<?xml version="1.0" encoding="utf-8"?>
<!-- Generator: Adobe Illustrator 19.0.0, SVG Export Plug-In . SVG Version: 6.00 Build 0)  -->
<svg version="1.1" id="图层_1" xmlns="http://www.w3.org/2000/svg" xmlns:xlink="http://www.w3.org/1999/xlink" x="0px" y="0px"
	 viewBox="0 0 955 445" style="enable-background:new 0 0 955 445;" xml:space="preserve">
<style type="text/css">
	.st0_gldk{fill:#1561C0;fill-opacity:0.4;stroke:#1561C0;stroke-miterlimit:10;}
	.st1_gldk{fill:none;stroke:#00BEFF;stroke-width:3;stroke-miterlimit:10;}
	.st2_gldk{fill:none;stroke:#1561C0;stroke-miterlimit:10;}
	.st3_gldk{fill:none;stroke:#009FE8;stroke-miterlimit:10;}
	.st4_gldk{fill:#00BEFF;}
</style>
<g id="底框_1_">
	<polygon id="XMLID_3208_" class="st0_gldk" points="297.8,56.6 30.1,56.6 30.1,41.3 56.4,17.1 275.7,17.1 	"/>
	<g id="XMLID_3182_">
		<polyline id="XMLID_3189_" class="st1_gldk" points="64,442.9 44.4,442.9 10.5,410.7 10.5,395.1 		"/>
		<polyline id="XMLID_3188_" class="st1_gldk" points="952.3,386.7 952.3,409.8 918.3,439.9 898.3,439.9 		"/>
		<polygon id="XMLID_3206_" class="st2_gldk" points="20.6,38 49.6,10.9 281.6,10.9 308.4,56.4 908.6,56.4 941.9,80.9 941.9,405.5 
			914,430.8 48.3,430.8 20.6,405.5 		"/>
		<polyline id="XMLID_3186_" class="st3_gldk" points="2.7,392.5 2.7,414.4 27.4,438.1 		"/>
		<polyline id="XMLID_3205_" class="st3_gldk" points="950.3,64.5 918.2,39.7 884.1,40.4 		"/>
		<polyline id="XMLID_3204_" class="st1_gldk" points="10.5,59.5 11.1,31.5 42.1,2.1 287.6,2.1 295.4,14.5 		"/>
		<polyline id="XMLID_3203_" class="st1_gldk" points="442.6,47.5 913.7,47.5 945,71.6 		"/>
	</g>
	<g id="XMLID_9_">
		<polygon id="XMLID_3202_" class="st4_gldk" points="322.2,52.1 315.5,52.1 304.7,34.6 311.4,34.6 		"/>
		<polygon id="XMLID_3201_" class="st4_gldk" points="333.3,52.1 326.6,52.1 315.8,34.6 322.5,34.6 		"/>
		<polygon id="XMLID_3200_" class="st4_gldk" points="344.4,52.1 337.7,52.1 326.9,34.6 333.6,34.6 		"/>
		<polygon id="XMLID_892_" class="st4_gldk" points="355.5,52.1 348.8,52.1 338,34.6 344.7,34.6 		"/>
		<polygon id="XMLID_889_" class="st4_gldk" points="366.6,52.1 359.9,52.1 349.1,34.6 355.8,34.6 		"/>
		<polygon id="XMLID_884_" class="st4_gldk" points="377.7,52.1 371,52.1 360.2,34.6 366.9,34.6 		"/>
		<polygon id="XMLID_883_" class="st4_gldk" points="388.8,52.1 382.1,52.1 371.3,34.6 378,34.6 		"/>
		<polygon id="XMLID_882_" class="st4_gldk" points="399.9,52.1 393.2,52.1 382.4,34.6 389.1,34.6 		"/>
		<polygon id="XMLID_881_" class="st4_gldk" points="411,52.1 404.3,52.1 393.5,34.6 400.2,34.6 		"/>
		<polygon id="XMLID_879_" class="st4_gldk" points="422.1,52.1 415.4,52.1 404.6,34.6 411.3,34.6 		"/>
		<polygon id="XMLID_826_" class="st4_gldk" points="433.2,52.1 426.5,52.1 415.7,34.6 422.4,34.6 		"/>
	</g>
</g>
</svg>
