<?xml version="1.0" encoding="utf-8"?>
<!-- Generator: Adobe Illustrator 19.0.0, SVG Export Plug-In . SVG Version: 6.00 Build 0)  -->
<svg version="1.1" id="图层_1" xmlns="http://www.w3.org/2000/svg" xmlns:xlink="http://www.w3.org/1999/xlink" x="0px" y="0px"
	 viewBox="0 0 955 480" style="enable-background:new 0 0 955 480;" xml:space="preserve">
<style type="text/css">
	.st0{fill:#1561C0;fill-opacity:0.4;stroke:#1561C0;stroke-miterlimit:10;}
	.st1{fill:none;stroke:#00BEFF;stroke-width:3;stroke-miterlimit:10;}
	.st2{fill:none;stroke:#1561C0;stroke-miterlimit:10;}
	.st3{fill:none;stroke:#009FE8;stroke-miterlimit:10;}
	.st4{fill:#00BEFF;}
</style>
<g id="底框">
	<polygon id="XMLID_3164_" class="st0" points="297.8,57.2 30.1,57.2 30.1,42 56.4,17.8 275.7,17.8 	"/>
	<g id="XMLID_3153_">
		<polyline id="XMLID_3172_" class="st1" points="64,477.2 44.4,477.2 10.5,445 10.5,429.5 		"/>
		<polyline id="XMLID_3171_" class="st1" points="952.3,421.1 952.3,444.1 918.3,474.2 898.3,474.2 		"/>
		<polygon id="XMLID_3170_" class="st2" points="20.6,38.7 49.6,11.6 281.6,11.6 308.4,57.1 908.6,57.1 941.9,81.6 941.9,439.9 
			914,465.2 48.3,465.2 20.6,439.9 		"/>
		<polyline id="XMLID_3169_" class="st3" points="2.7,426.8 2.7,448.7 27.4,472.4 		"/>
		<polyline id="XMLID_3308_" class="st3" points="950.3,65.2 918.2,40.4 884.1,41.1 		"/>
		<polyline id="XMLID_3155_" class="st1" points="10.5,60.2 11.1,32.1 42.1,2.8 287.6,2.8 295.4,15.1 		"/>
		<polyline id="XMLID_3154_" class="st1" points="442.6,48.2 913.7,48.2 945,72.2 		"/>
	</g>
	<g id="XMLID_823_">
		<polygon id="XMLID_3152_" class="st4" points="322.2,52.8 315.5,52.8 304.7,35.2 311.4,35.2 		"/>
		<polygon id="XMLID_3151_" class="st4" points="333.3,52.8 326.6,52.8 315.8,35.2 322.5,35.2 		"/>
		<polygon id="XMLID_1180_" class="st4" points="344.4,52.8 337.7,52.8 326.9,35.2 333.6,35.2 		"/>
		<polygon id="XMLID_1178_" class="st4" points="355.5,52.8 348.8,52.8 338,35.2 344.7,35.2 		"/>
		<polygon id="XMLID_873_" class="st4" points="366.6,52.8 359.9,52.8 349.1,35.2 355.8,35.2 		"/>
		<polygon id="XMLID_869_" class="st4" points="377.7,52.8 371,52.8 360.2,35.2 366.9,35.2 		"/>
		<polygon id="XMLID_867_" class="st4" points="388.8,52.8 382.1,52.8 371.3,35.2 378,35.2 		"/>
		<polygon id="XMLID_866_" class="st4" points="399.9,52.8 393.2,52.8 382.4,35.2 389.1,35.2 		"/>
		<polygon id="XMLID_864_" class="st4" points="411,52.8 404.3,52.8 393.5,35.2 400.2,35.2 		"/>
		<polygon id="XMLID_863_" class="st4" points="422.1,52.8 415.4,52.8 404.6,35.2 411.3,35.2 		"/>
		<polygon id="XMLID_862_" class="st4" points="433.2,52.8 426.5,52.8 415.7,35.2 422.4,35.2 		"/>
	</g>
</g>
</svg>
