<?xml version="1.0" encoding="utf-8"?>
<!-- Generator: Adobe Illustrator 19.0.0, SVG Export Plug-In . SVG Version: 6.00 Build 0)  -->
<svg version="1.1" id="图层_1" xmlns="http://www.w3.org/2000/svg" xmlns:xlink="http://www.w3.org/1999/xlink" x="0px" y="0px"
	 viewBox="0 0 890 350" style="enable-background:new 0 0 890 350;" xml:space="preserve">
<style type="text/css">
	.st0{fill:none;stroke:#1561C0;stroke-miterlimit:10;}
	.st1{fill:none;stroke:#00BEFF;stroke-width:2.7467;stroke-miterlimit:10;}
	.st2{fill:none;stroke:#009FE8;stroke-width:3;stroke-miterlimit:10;}
</style>
<g id="XMLID_268_">
	<g id="XMLID_927_">
		<line id="XMLID_935_" class="st0" x1="883" y1="54.5" x2="9" y2="54.5"/>
		<line id="XMLID_931_" class="st1" x1="883.6" y1="54.5" x2="860.2" y2="54.5"/>
		<line id="XMLID_929_" class="st1" x1="30.3" y1="54.5" x2="9" y2="54.5"/>
	</g>
	<line id="XMLID_166_" class="st0" x1="2" y1="201.5" x2="888" y2="201.5"/>
	<g id="XMLID_306_">
		<line id="XMLID_309_" class="st0" x1="216.1" y1="67.4" x2="216.1" y2="192.7"/>
		<line id="XMLID_308_" class="st2" x1="216.1" y1="67.4" x2="216.1" y2="80"/>
		<line id="XMLID_307_" class="st2" x1="216.1" y1="180.1" x2="216.1" y2="192.7"/>
	</g>
	<g id="XMLID_302_">
		<line id="XMLID_305_" class="st0" x1="294.4" y1="213.8" x2="294.4" y2="346.7"/>
		<line id="XMLID_304_" class="st2" x1="294.4" y1="213.8" x2="294.4" y2="226.3"/>
		<line id="XMLID_303_" class="st2" x1="294.4" y1="334.1" x2="294.4" y2="346.7"/>
	</g>
	<g id="XMLID_298_">
		<line id="XMLID_301_" class="st0" x1="598.2" y1="213.8" x2="598.2" y2="346.7"/>
		<line id="XMLID_300_" class="st2" x1="598.2" y1="213.8" x2="598.2" y2="226.3"/>
		<line id="XMLID_299_" class="st2" x1="598.2" y1="334.1" x2="598.2" y2="346.7"/>
	</g>
	<g id="XMLID_294_">
		<line id="XMLID_297_" class="st0" x1="443.4" y1="67.4" x2="443.4" y2="192.7"/>
		<line id="XMLID_296_" class="st2" x1="443.4" y1="67.4" x2="443.4" y2="80"/>
		<line id="XMLID_295_" class="st2" x1="443.4" y1="180.1" x2="443.4" y2="192.7"/>
	</g>
	<g id="XMLID_290_">
		<line id="XMLID_293_" class="st0" x1="670.7" y1="67.4" x2="670.7" y2="192.7"/>
		<line id="XMLID_292_" class="st2" x1="670.7" y1="67.4" x2="670.7" y2="80"/>
		<line id="XMLID_291_" class="st2" x1="670.7" y1="180.1" x2="670.7" y2="192.7"/>
	</g>
</g>
</svg>
