<?xml version="1.0" encoding="utf-8"?>
<!-- Generator: Adobe Illustrator 19.0.0, SVG Export Plug-In . SVG Version: 6.00 Build 0)  -->
<svg version="1.1" id="图层_1" xmlns="http://www.w3.org/2000/svg" xmlns:xlink="http://www.w3.org/1999/xlink" x="0px" y="0px"
	 viewBox="0 0 930 814" style="enable-background:new 0 0 930 814;" xml:space="preserve">
<style type="text/css">
	.st0{opacity:0.6;fill:#1561C0;fill-opacity:0.6;stroke:#1561C0;stroke-miterlimit:10;}
	.st1{fill:#1561C0;}
	.st2{fill:#00BEFF;}
	.st3{clip-path:url(#XMLID_35_);}
</style>
<g id="左侧">
	<polygon id="XMLID_2272_" class="st0" points="11.2,16 22.1,7.8 42.5,7.8 45.2,6.3 398.4,6.3 401.3,7.8 421.9,7.8 451.1,51.8 
		11.2,51.8 	"/>
	<g id="XMLID_1512_">
		<polygon id="XMLID_12694_" class="st1" points="476.2,51.9 454.3,51.9 423.7,5.6 401.3,5.6 401.3,1.6 425.5,1.6 456.1,47.9 
			476.2,47.9 		"/>
	</g>
	<g id="XMLID_1511_">
		<polygon id="XMLID_12690_" class="st1" points="68.8,804 63.9,807.5 76.7,807.5 81.6,804 		"/>
		<polygon id="XMLID_12691_" class="st1" points="47.9,804 43,807.5 55.8,807.5 60.8,804 		"/>
		<polygon id="XMLID_12692_" class="st1" points="110.6,804 105.7,807.5 118.5,807.5 123.4,804 		"/>
		<polygon id="XMLID_12693_" class="st1" points="89.7,804 84.8,807.5 97.6,807.5 102.5,804 		"/>
	</g>
	<polygon id="XMLID_1510_" class="st1" points="919.9,54.7 919.7,790.7 900.4,807.5 7.2,807.5 7.2,13.9 19.4,4.5 423.9,4.5 
		454.6,50.9 761,51.3 780.9,28.3 903.4,28.6 905.7,26.5 779.9,26.6 759.4,48.6 454.9,48.6 424.2,3.6 18.7,3.6 2.2,15.5 2.2,810 
		2.2,811.8 40.2,811.8 39.9,812 52.7,812 53,811.8 61,811.8 60.8,812 73.6,812 73.9,811.8 81.9,811.8 81.6,812 94.4,812 94.7,811.8 
		102.8,811.8 102.5,812 115.3,812 115.6,811.8 898.6,812 924.9,791.1 925,49.6 	"/>
	<g id="XMLID_1509_">
		<polygon id="XMLID_12699_" class="st2" points="928.4,67.4 926.4,69.9 926.4,47.7 907.4,24.6 881.4,24.5 883.9,22.6 908.4,22.6 
			928.4,47 		"/>
	</g>
	<g id="XMLID_801_">
		
			<rect id="XMLID_1508_" x="914.4" y="38.5" transform="matrix(0.624 0.7814 -0.7814 0.624 375.0111 -699.7763)" class="st1" width="0.6" height="2.6"/>
		
			<rect id="XMLID_1498_" x="905.1" y="27" transform="matrix(0.624 0.7814 -0.7814 0.624 362.5305 -696.8553)" class="st1" width="0.6" height="2.6"/>
		
			<rect id="XMLID_1497_" x="905.8" y="28" transform="matrix(0.624 0.7814 -0.7814 0.624 363.5706 -697.0987)" class="st1" width="0.6" height="2.6"/>
		
			<rect id="XMLID_1496_" x="906.6" y="28.9" transform="matrix(0.624 0.7814 -0.7814 0.624 364.6106 -697.3422)" class="st1" width="0.6" height="2.6"/>
		
			<rect id="XMLID_1495_" x="907.4" y="29.9" transform="matrix(0.624 0.7814 -0.7814 0.624 365.6507 -697.5856)" class="st1" width="0.6" height="2.6"/>
		
			<rect id="XMLID_1493_" x="908.2" y="30.8" transform="matrix(0.624 0.7814 -0.7814 0.624 366.6907 -697.829)" class="st1" width="0.6" height="2.6"/>
		
			<rect id="XMLID_1492_" x="908.9" y="31.8" transform="matrix(0.624 0.7814 -0.7814 0.624 367.7308 -698.0724)" class="st1" width="0.6" height="2.6"/>
		
			<rect id="XMLID_1491_" x="909.7" y="32.7" transform="matrix(0.624 0.7814 -0.7814 0.624 368.7708 -698.3158)" class="st1" width="0.6" height="2.6"/>
		
			<rect id="XMLID_1490_" x="910.5" y="33.7" transform="matrix(0.624 0.7814 -0.7814 0.624 369.8109 -698.5593)" class="st1" width="0.6" height="2.6"/>
		
			<rect id="XMLID_1489_" x="911.3" y="34.7" transform="matrix(0.624 0.7814 -0.7814 0.624 370.8509 -698.8027)" class="st1" width="0.6" height="2.6"/>
		
			<rect id="XMLID_1440_" x="912" y="35.6" transform="matrix(0.624 0.7814 -0.7814 0.624 371.891 -699.0461)" class="st1" width="0.6" height="2.6"/>
		
			<rect id="XMLID_1438_" x="912.8" y="36.6" transform="matrix(0.624 0.7814 -0.7814 0.624 372.931 -699.2895)" class="st1" width="0.6" height="2.6"/>
		
			<rect id="XMLID_1436_" x="913.6" y="37.5" transform="matrix(0.624 0.7814 -0.7814 0.624 373.9711 -699.5329)" class="st1" width="0.6" height="2.6"/>
		
			<rect id="XMLID_1435_" x="915.1" y="39.5" transform="matrix(0.624 0.7814 -0.7814 0.624 376.0512 -700.0198)" class="st1" width="0.6" height="2.6"/>
		
			<rect id="XMLID_1434_" x="915.9" y="40.4" transform="matrix(0.624 0.7814 -0.7814 0.624 377.0912 -700.2632)" class="st1" width="0.6" height="2.6"/>
		
			<rect id="XMLID_1433_" x="916.7" y="41.4" transform="matrix(0.624 0.7814 -0.7814 0.624 378.1313 -700.5066)" class="st1" width="0.6" height="2.6"/>
		
			<rect id="XMLID_1432_" x="917.3" y="42.3" transform="matrix(0.619 0.7854 -0.7854 0.619 383.8851 -704.1276)" class="st1" width="0.6" height="2.6"/>
		
			<rect id="XMLID_1429_" x="918.1" y="43.2" transform="matrix(0.619 0.7854 -0.7854 0.619 384.9344 -704.3625)" class="st1" width="0.6" height="2.6"/>
		
			<rect id="XMLID_1427_" x="918.9" y="44.2" transform="matrix(0.619 0.7854 -0.7854 0.619 385.9838 -704.5974)" class="st1" width="0.6" height="2.6"/>
		
			<rect id="XMLID_1135_" x="919.6" y="45.2" transform="matrix(0.619 0.7854 -0.7854 0.619 387.0331 -704.8323)" class="st1" width="0.6" height="2.6"/>
		
			<rect id="XMLID_1119_" x="920.4" y="46.1" transform="matrix(0.619 0.7854 -0.7854 0.619 388.0824 -705.0673)" class="st1" width="0.6" height="2.6"/>
		
			<rect id="XMLID_815_" x="921.2" y="47.1" transform="matrix(0.619 0.7854 -0.7854 0.619 389.1317 -705.3022)" class="st1" width="0.6" height="2.6"/>
	</g>
	<g id="XMLID_448_">
		<polygon id="XMLID_453_" class="st2" points="870.6,806.9 870.6,812.4 901,812.4 925,792.3 925,770.1 919.4,770.1 919.4,791.2 
			900.5,806.9 		"/>
	</g>
	<g id="XMLID_141_">
		<defs>
			<polygon id="XMLID_142_" points="921.2,54.3 761.7,54.3 782.7,29.9 925,29.9 			"/>
		</defs>
		<clipPath id="XMLID_35_">
			<use xlink:href="#XMLID_142_"  style="overflow:visible;"/>
		</clipPath>
		<g id="XMLID_12700_" class="st3">
			<polygon id="XMLID_348_" class="st1" points="800.2,51 797.7,51 782.8,31.6 785.3,31.6 			"/>
			<polygon id="XMLID_276_" class="st1" points="804.5,51 802.1,51 787.2,31.6 789.6,31.6 			"/>
			<polygon id="XMLID_269_" class="st1" points="808.9,51 806.5,51 791.6,31.6 794,31.6 			"/>
			<polygon id="XMLID_199_" class="st1" points="813.3,51 810.8,51 795.9,31.6 798.4,31.6 			"/>
			<polygon id="XMLID_198_" class="st1" points="817.7,51 815.2,51 800.3,31.6 802.8,31.6 			"/>
			<polygon id="XMLID_173_" class="st1" points="822.1,51 819.6,51 804.7,31.6 807.2,31.6 			"/>
			<polygon id="XMLID_172_" class="st1" points="826.5,51 824,51 809.1,31.6 811.5,31.6 			"/>
			<polygon id="XMLID_171_" class="st1" points="830.8,51 828.4,51 813.5,31.6 815.9,31.6 			"/>
			<polygon id="XMLID_170_" class="st1" points="765.1,51 762.7,51 747.8,31.6 750.2,31.6 			"/>
			<polygon id="XMLID_169_" class="st1" points="769.5,51 767,51 752.1,31.6 754.6,31.6 			"/>
			<polygon id="XMLID_168_" class="st1" points="773.9,51 771.4,51 756.5,31.6 759,31.6 			"/>
			<polygon id="XMLID_167_" class="st1" points="778.3,51 775.8,51 760.9,31.6 763.4,31.6 			"/>
			<polygon id="XMLID_166_" class="st1" points="782.6,51 780.2,51 765.3,31.6 767.7,31.6 			"/>
			<polygon id="XMLID_165_" class="st1" points="787,51 784.6,51 769.7,31.6 772.1,31.6 			"/>
			<polygon id="XMLID_164_" class="st1" points="791.4,51 788.9,51 774,31.6 776.5,31.6 			"/>
			<polygon id="XMLID_163_" class="st1" points="795.8,51 793.3,51 778.4,31.6 780.9,31.6 			"/>
			<polygon id="XMLID_162_" class="st1" points="835.2,51 832.8,51 817.8,31.6 820.3,31.6 			"/>
			<polygon id="XMLID_161_" class="st1" points="839.6,51 837.1,51 822.2,31.6 824.7,31.6 			"/>
			<polygon id="XMLID_160_" class="st1" points="848.4,51 845.9,51 831,31.6 833.5,31.6 			"/>
			<polygon id="XMLID_159_" class="st1" points="844,51 841.5,51 826.6,31.6 829.1,31.6 			"/>
			<polygon id="XMLID_158_" class="st1" points="857.1,51 854.7,51 839.8,31.6 842.2,31.6 			"/>
			<polygon id="XMLID_157_" class="st1" points="865.9,51 863.4,51 848.5,31.6 851,31.6 			"/>
			<polygon id="XMLID_156_" class="st1" points="883.4,51 880.9,51 866,31.6 868.5,31.6 			"/>
			<polygon id="XMLID_155_" class="st1" points="900.9,51 898.5,51 883.6,31.6 886,31.6 			"/>
			<polygon id="XMLID_154_" class="st1" points="874.6,51 872.2,51 857.3,31.6 859.7,31.6 			"/>
			<polygon id="XMLID_153_" class="st1" points="892.2,51 889.7,51 874.8,31.6 877.3,31.6 			"/>
			<polygon id="XMLID_152_" class="st1" points="909.7,51 907.2,51 892.3,31.6 894.8,31.6 			"/>
			<polygon id="XMLID_151_" class="st1" points="918.4,51 916,51 901.1,31.6 903.5,31.6 			"/>
			<polygon id="XMLID_150_" class="st1" points="852.7,51 850.3,51 835.4,31.6 837.8,31.6 			"/>
			<polygon id="XMLID_149_" class="st1" points="861.5,51 859,51 844.1,31.6 846.6,31.6 			"/>
			<polygon id="XMLID_148_" class="st1" points="870.3,51 867.8,51 852.9,31.6 855.4,31.6 			"/>
			<polygon id="XMLID_147_" class="st1" points="887.8,51 885.3,51 870.4,31.6 872.9,31.6 			"/>
			<polygon id="XMLID_146_" class="st1" points="879,51 876.6,51 861.7,31.6 864.1,31.6 			"/>
			<polygon id="XMLID_145_" class="st1" points="896.5,51 894.1,51 879.2,31.6 881.6,31.6 			"/>
			<polygon id="XMLID_144_" class="st1" points="905.3,51 902.8,51 887.9,31.6 890.4,31.6 			"/>
			<polygon id="XMLID_143_" class="st1" points="914.1,51 911.6,51 896.7,31.6 899.2,31.6 			"/>
		</g>
	</g>
	<g id="XMLID_140_">
		<polygon id="XMLID_12695_" class="st2" points="8,56.7 1.6,56.7 1.6,15.1 18.5,2.4 42.5,2.4 42.5,5.4 19.5,5.4 8,14 		"/>
	</g>
</g>
</svg>
