<?xml version="1.0" encoding="utf-8"?>
<!-- Generator: Adobe Illustrator 19.0.0, SVG Export Plug-In . SVG Version: 6.00 Build 0)  -->
<svg version="1.1" id="图层_1" xmlns="http://www.w3.org/2000/svg" xmlns:xlink="http://www.w3.org/1999/xlink" x="0px" y="0px"
	 viewBox="0 0 930 64" style="enable-background:new 0 0 930 64;" xml:space="preserve">
<style type="text/css">
	.st0{clip-path:url(#XMLID_141_);}
	.st1{fill-rule:evenodd;clip-rule:evenodd;fill:#038BFC;}
	.st2{fill-rule:evenodd;clip-rule:evenodd;fill:none;stroke:#036EB7;stroke-width:1.4854;stroke-miterlimit:10;}
	.st3{fill-rule:evenodd;clip-rule:evenodd;fill:none;stroke:#05BCFE;stroke-width:2.9708;stroke-miterlimit:10;}
</style>
<g>
	<g>
		<defs>
			<rect id="XMLID_135_" x="3.1" y="3.6" width="67.9" height="56.8"/>
		</defs>
		<clipPath id="XMLID_141_">
			<use xlink:href="#XMLID_135_"  style="overflow:visible;"/>
		</clipPath>
		<g id="XMLID_139_" class="st0">
			<polygon id="XMLID_28_" class="st1" points="86.4,55.4 86.1,55.5 65,-19.2 65.3,-19.3 			"/>
			<polygon id="XMLID_114_" class="st1" points="85.4,55.7 85.1,55.8 64,-18.8 64.3,-18.9 			"/>
			<polygon id="XMLID_113_" class="st1" points="84.5,56.1 84.1,56.2 63,-18.5 63.4,-18.6 			"/>
			<polygon id="XMLID_112_" class="st1" points="83.5,56.4 83.2,56.5 62.1,-18.1 62.4,-18.2 			"/>
			<polygon id="XMLID_111_" class="st1" points="82.5,56.8 82.2,56.9 61.1,-17.8 61.4,-17.9 			"/>
			<polygon id="XMLID_110_" class="st1" points="81.5,57.1 81.2,57.2 60.1,-17.4 60.4,-17.6 			"/>
			<polygon id="XMLID_109_" class="st1" points="80.5,57.5 80.2,57.6 59.1,-17.1 59.4,-17.2 			"/>
			<polygon id="XMLID_108_" class="st1" points="79.6,57.8 79.3,57.9 58.2,-16.7 58.5,-16.9 			"/>
			<polygon id="XMLID_107_" class="st1" points="78.6,58.2 78.3,58.3 57.2,-16.4 57.5,-16.5 			"/>
			<polygon id="XMLID_106_" class="st1" points="77.6,58.5 77.3,58.6 56.2,-16 56.5,-16.2 			"/>
			<polygon id="XMLID_105_" class="st1" points="76.6,58.9 76.3,59 55.2,-15.7 55.5,-15.8 			"/>
			<polygon id="XMLID_104_" class="st1" points="75.7,59.2 75.4,59.3 54.2,-15.3 54.6,-15.5 			"/>
			<polygon id="XMLID_103_" class="st1" points="74.7,59.6 74.4,59.7 53.3,-15 53.6,-15.1 			"/>
			<polygon id="XMLID_102_" class="st1" points="73.7,59.9 73.4,60 52.3,-14.6 52.6,-14.8 			"/>
			<polygon id="XMLID_101_" class="st1" points="72.7,60.2 72.4,60.4 51.3,-14.3 51.6,-14.4 			"/>
			<polygon id="XMLID_100_" class="st1" points="71.8,60.6 71.4,60.7 50.3,-13.9 50.6,-14.1 			"/>
			<polygon id="XMLID_99_" class="st1" points="70.8,60.9 70.5,61.1 49.3,-13.6 49.7,-13.7 			"/>
			<polygon id="XMLID_98_" class="st1" points="69.8,61.3 69.5,61.4 48.4,-13.2 48.7,-13.4 			"/>
			<polygon id="XMLID_97_" class="st1" points="68.8,61.6 68.5,61.8 47.4,-12.9 47.7,-13 			"/>
			<polygon id="XMLID_96_" class="st1" points="67.9,62 67.5,62.1 46.4,-12.5 46.7,-12.7 			"/>
			<polygon id="XMLID_95_" class="st1" points="66.9,62.3 66.6,62.5 45.4,-12.2 45.7,-12.3 			"/>
			<polygon id="XMLID_94_" class="st1" points="65.9,62.7 65.6,62.8 44.5,-11.8 44.8,-12 			"/>
			<polygon id="XMLID_93_" class="st1" points="64.9,63 64.6,63.2 43.5,-11.5 43.8,-11.6 			"/>
			<polygon id="XMLID_92_" class="st1" points="63.9,63.4 63.6,63.5 42.5,-11.1 42.8,-11.3 			"/>
			<polygon id="XMLID_91_" class="st1" points="63,63.7 62.7,63.9 41.5,-10.8 41.8,-10.9 			"/>
			<polygon id="XMLID_90_" class="st1" points="62,64.1 61.7,64.2 40.5,-10.4 40.8,-10.6 			"/>
			<polygon id="XMLID_89_" class="st1" points="61,64.4 60.7,64.6 39.6,-10.1 39.9,-10.2 			"/>
			<polygon id="XMLID_88_" class="st1" points="60,64.8 59.7,64.9 38.6,-9.8 38.9,-9.9 			"/>
			<polygon id="XMLID_87_" class="st1" points="59.1,65.1 58.8,65.2 37.6,-9.4 37.9,-9.5 			"/>
			<polygon id="XMLID_86_" class="st1" points="58.1,65.5 57.8,65.6 36.6,-9.1 36.9,-9.2 			"/>
			<polygon id="XMLID_85_" class="st1" points="57.1,65.8 56.8,65.9 35.7,-8.7 36,-8.8 			"/>
			<polygon id="XMLID_84_" class="st1" points="56.1,66.2 55.8,66.3 34.7,-8.4 35,-8.5 			"/>
			<polygon id="XMLID_83_" class="st1" points="55.2,66.5 54.9,66.6 33.7,-8 34,-8.1 			"/>
			<polygon id="XMLID_82_" class="st1" points="54.2,66.9 53.9,67 32.7,-7.7 33,-7.8 			"/>
			<polygon id="XMLID_81_" class="st1" points="53.2,67.2 52.9,67.3 31.7,-7.3 32,-7.4 			"/>
			<polygon id="XMLID_80_" class="st1" points="52.2,67.6 51.9,67.7 30.8,-7 31.1,-7.1 			"/>
			<polygon id="XMLID_79_" class="st1" points="51.3,67.9 51,68 29.8,-6.6 30.1,-6.7 			"/>
			<polygon id="XMLID_78_" class="st1" points="50.3,68.3 50,68.4 28.8,-6.3 29.1,-6.4 			"/>
			<polygon id="XMLID_77_" class="st1" points="49.3,68.6 49,68.7 27.8,-5.9 28.1,-6 			"/>
			<polygon id="XMLID_76_" class="st1" points="48.3,69 48,69.1 26.8,-5.6 27.1,-5.7 			"/>
			<polygon id="XMLID_75_" class="st1" points="47.3,69.3 47,69.4 25.9,-5.2 26.2,-5.3 			"/>
			<polygon id="XMLID_74_" class="st1" points="46.4,69.7 46.1,69.8 24.9,-4.9 25.2,-5 			"/>
			<polygon id="XMLID_73_" class="st1" points="45.4,70 45.1,70.1 23.9,-4.5 24.2,-4.6 			"/>
			<polygon id="XMLID_72_" class="st1" points="44.4,70.3 44.1,70.5 22.9,-4.2 23.2,-4.3 			"/>
			<polygon id="XMLID_71_" class="st1" points="43.4,70.7 43.1,70.8 22,-3.8 22.3,-3.9 			"/>
			<polygon id="XMLID_70_" class="st1" points="42.5,71 42.2,71.2 21,-3.5 21.3,-3.6 			"/>
			<polygon id="XMLID_69_" class="st1" points="41.5,71.4 41.2,71.5 20,-3.1 20.3,-3.2 			"/>
			<polygon id="XMLID_68_" class="st1" points="40.5,71.7 40.2,71.9 19,-2.8 19.3,-2.9 			"/>
			<polygon id="XMLID_67_" class="st1" points="39.5,72.1 39.2,72.2 18,-2.4 18.3,-2.5 			"/>
			<polygon id="XMLID_66_" class="st1" points="38.6,72.4 38.3,72.6 17.1,-2.1 17.4,-2.2 			"/>
			<polygon id="XMLID_65_" class="st1" points="37.6,72.8 37.3,72.9 16.1,-1.7 16.4,-1.9 			"/>
			<polygon id="XMLID_64_" class="st1" points="36.6,73.1 36.3,73.3 15.1,-1.4 15.4,-1.5 			"/>
			<polygon id="XMLID_63_" class="st1" points="35.6,73.5 35.3,73.6 14.1,-1 14.4,-1.2 			"/>
			<polygon id="XMLID_62_" class="st1" points="34.6,73.8 34.4,73.9 13.2,-0.7 13.4,-0.8 			"/>
			<polygon id="XMLID_61_" class="st1" points="33.7,74.2 33.4,74.3 12.2,-0.3 12.5,-0.5 			"/>
			<polygon id="XMLID_60_" class="st1" points="32.7,74.5 32.4,74.6 11.2,0 11.5,-0.1 			"/>
			<polygon id="XMLID_59_" class="st1" points="31.7,74.9 31.4,75 10.2,0.4 10.5,0.2 			"/>
			<polygon id="XMLID_58_" class="st1" points="30.7,75.2 30.5,75.3 9.2,0.7 9.5,0.6 			"/>
			<polygon id="XMLID_57_" class="st1" points="29.8,75.6 29.5,75.7 8.3,1.1 8.5,0.9 			"/>
			<polygon id="XMLID_56_" class="st1" points="28.8,75.9 28.5,76 7.3,1.4 7.6,1.3 			"/>
			<polygon id="XMLID_55_" class="st1" points="27.8,76.3 27.5,76.4 6.3,1.8 6.6,1.6 			"/>
			<polygon id="XMLID_54_" class="st1" points="26.8,76.6 26.5,76.7 5.3,2.1 5.6,2 			"/>
			<polygon id="XMLID_53_" class="st1" points="25.9,77 25.6,77.1 4.3,2.5 4.6,2.3 			"/>
			<polygon id="XMLID_52_" class="st1" points="24.9,77.3 24.6,77.4 3.4,2.8 3.7,2.7 			"/>
			<polygon id="XMLID_51_" class="st1" points="23.9,77.7 23.6,77.8 2.4,3.2 2.7,3 			"/>
			<polygon id="XMLID_50_" class="st1" points="22.9,78 22.6,78.1 1.4,3.5 1.7,3.4 			"/>
			<polygon id="XMLID_49_" class="st1" points="22,78.4 21.7,78.5 0.4,3.9 0.7,3.7 			"/>
			<polygon id="XMLID_48_" class="st1" points="21,78.7 20.7,78.8 -0.5,4.2 -0.3,4.1 			"/>
			<polygon id="XMLID_47_" class="st1" points="20,79.1 19.7,79.2 -1.5,4.5 -1.2,4.4 			"/>
			<polygon id="XMLID_46_" class="st1" points="19,79.4 18.7,79.5 -2.5,4.9 -2.2,4.8 			"/>
			<polygon id="XMLID_45_" class="st1" points="18,79.7 17.8,79.9 -3.5,5.2 -3.2,5.1 			"/>
			<polygon id="XMLID_43_" class="st1" points="17.1,80.1 16.8,80.2 -4.5,5.6 -4.2,5.5 			"/>
			<polygon id="XMLID_41_" class="st1" points="16.1,80.4 15.8,80.6 -5.4,5.9 -5.2,5.8 			"/>
			<polygon id="XMLID_36_" class="st1" points="15.1,80.8 14.8,80.9 -6.4,6.3 -6.1,6.2 			"/>
			<polygon id="XMLID_35_" class="st1" points="14.1,81.1 13.9,81.3 -7.4,6.6 -7.1,6.5 			"/>
			<polygon id="XMLID_34_" class="st1" points="13.2,81.5 12.9,81.6 -8.4,7 -8.1,6.9 			"/>
			<polygon id="XMLID_33_" class="st1" points="12.2,81.8 11.9,82 -9.3,7.3 -9.1,7.2 			"/>
			<polygon id="XMLID_32_" class="st1" points="11.2,82.2 10.9,82.3 -10.3,7.7 -10,7.6 			"/>
			<polygon id="XMLID_31_" class="st1" points="10.2,82.5 10,82.7 -11.3,8 -11,7.9 			"/>
			<polygon id="XMLID_30_" class="st1" points="9.3,82.9 9,83 -12.3,8.4 -12,8.3 			"/>
			<polygon id="XMLID_29_" class="st1" points="8.3,83.2 8,83.3 -13.3,8.7 -13,8.6 			"/>
			<polygon id="XMLID_27_" class="st1" points="7.3,83.6 7,83.7 -14.2,9.1 -14,9 			"/>
		</g>
	</g>
	<g>
		<rect id="XMLID_1517_" x="3.1" y="3.6" class="st2" width="923.9" height="56.8"/>
		<polyline id="XMLID_1516_" class="st3" points="3.1,17.4 3.1,3.6 17.5,3.6 		"/>
		<polyline id="XMLID_1515_" class="st3" points="3.1,46.6 3.1,60.4 17.5,60.4 		"/>
		<polyline id="XMLID_1514_" class="st3" points="926.9,17.4 926.9,3.6 912.5,3.6 		"/>
		<polyline id="XMLID_1513_" class="st3" points="926.9,46.6 926.9,60.4 912.5,60.4 		"/>
	</g>
</g>
</svg>
