<?xml version="1.0" encoding="utf-8"?>
<!-- Generator: Adobe Illustrator 19.0.0, SVG Export Plug-In . SVG Version: 6.00 Build 0)  -->
<svg version="1.1" id="图层_1" xmlns="http://www.w3.org/2000/svg" xmlns:xlink="http://www.w3.org/1999/xlink" x="0px" y="0px"
	 viewBox="0 0 950 900" style="enable-background:new 0 0 950 900;" xml:space="preserve">
<style type="text/css">
	.st0{fill:#1561C0;}
	.st1{opacity:0.6;fill:#1561C0;fill-opacity:0.6;stroke:#1561C0;stroke-miterlimit:10;}
	.st2{fill:#00BEFF;}
	.st3{clip-path:url(#XMLID_59_);}
</style>
<g id="右侧">
	<g id="XMLID_1518_">
		<g id="XMLID_2030_">
			<polygon id="XMLID_2031_" class="st0" points="429.7,51.6 407.8,51.6 377.3,5.2 354.8,5.2 354.8,1.2 379.1,1.2 409.7,47.6 
				429.7,47.6 			"/>
		</g>
		<g id="XMLID_1524_">
			<g id="XMLID_2012_">
				<polygon id="XMLID_2016_" class="st0" points="68.3,890.3 63.4,893.9 76.2,893.9 81.1,890.3 				"/>
				<polygon id="XMLID_2015_" class="st0" points="47.4,890.3 42.5,893.9 55.3,893.9 60.3,890.3 				"/>
				<polygon id="XMLID_2014_" class="st0" points="110.1,890.3 105.2,893.9 118,893.9 122.9,890.3 				"/>
				<polygon id="XMLID_2013_" class="st0" points="89.2,890.3 84.3,893.9 97.1,893.9 102,890.3 				"/>
			</g>
			<polygon id="XMLID_2010_" class="st1" points="10.7,15.7 21.6,7.4 42,7.4 44.7,5.9 352,5.9 354.8,7.4 375.5,7.4 404.7,51.5 
				10.7,51.5 			"/>
			<polygon id="XMLID_2009_" class="st0" points="940.4,54.4 940.2,877.4 920.9,893.9 6.7,893.9 6.7,13.5 18.9,4.2 377.5,4.2 
				408.2,50.6 781.5,50.9 801.4,27.9 923.9,28.2 926.2,26.2 800.4,26.2 779.9,48.2 408.4,48.3 377.8,3.2 18.2,3.2 1.7,15.2 
				1.7,896.3 1.7,898.2 39.7,898.2 39.4,898.4 52.2,898.4 52.5,898.2 60.5,898.2 60.3,898.4 73.1,898.4 73.4,898.2 81.4,898.2 
				81.1,898.4 93.9,898.4 94.2,898.2 102.3,898.2 102,898.4 114.8,898.4 115.1,898.2 921.4,898.4 945.4,877.8 945.5,49.3 			"/>
			<g id="XMLID_2007_">
				<polygon id="XMLID_2008_" class="st2" points="948.9,67 946.9,69.6 946.9,47.4 927.9,24.3 901.9,24.2 904.4,22.3 928.9,22.3 
					948.9,46.7 				"/>
			</g>
			<g id="XMLID_1967_">
				
					<rect id="XMLID_2006_" x="934.9" y="38.2" transform="matrix(0.624 0.7814 -0.7814 0.624 382.4533 -715.9232)" class="st0" width="0.6" height="2.6"/>
				
					<rect id="XMLID_2005_" x="925.6" y="26.7" transform="matrix(0.624 0.7814 -0.7814 0.624 369.9727 -713.0021)" class="st0" width="0.6" height="2.6"/>
				
					<rect id="XMLID_2004_" x="926.3" y="27.6" transform="matrix(0.624 0.7814 -0.7814 0.624 371.0127 -713.2455)" class="st0" width="0.6" height="2.6"/>
				
					<rect id="XMLID_2003_" x="927.1" y="28.6" transform="matrix(0.624 0.7814 -0.7814 0.624 372.0528 -713.489)" class="st0" width="0.6" height="2.6"/>
				
					<rect id="XMLID_2002_" x="927.9" y="29.5" transform="matrix(0.624 0.7814 -0.7814 0.624 373.0928 -713.7324)" class="st0" width="0.6" height="2.6"/>
				
					<rect id="XMLID_2001_" x="928.7" y="30.5" transform="matrix(0.624 0.7814 -0.7814 0.624 374.1329 -713.9758)" class="st0" width="0.6" height="2.6"/>
				
					<rect id="XMLID_1999_" x="929.4" y="31.4" transform="matrix(0.624 0.7814 -0.7814 0.624 375.1729 -714.2192)" class="st0" width="0.6" height="2.6"/>
				
					<rect id="XMLID_1997_" x="930.2" y="32.4" transform="matrix(0.624 0.7814 -0.7814 0.624 376.213 -714.4626)" class="st0" width="0.6" height="2.6"/>
				
					<rect id="XMLID_1995_" x="931" y="33.4" transform="matrix(0.624 0.7814 -0.7814 0.624 377.2531 -714.7061)" class="st0" width="0.6" height="2.6"/>
				
					<rect id="XMLID_1993_" x="931.8" y="34.3" transform="matrix(0.624 0.7814 -0.7814 0.624 378.2931 -714.9495)" class="st0" width="0.6" height="2.6"/>
				
					<rect id="XMLID_1991_" x="932.5" y="35.3" transform="matrix(0.624 0.7814 -0.7814 0.624 379.3332 -715.1929)" class="st0" width="0.6" height="2.6"/>
				
					<rect id="XMLID_1989_" x="933.3" y="36.2" transform="matrix(0.624 0.7814 -0.7814 0.624 380.3732 -715.4363)" class="st0" width="0.6" height="2.6"/>
				
					<rect id="XMLID_1987_" x="934.1" y="37.2" transform="matrix(0.624 0.7814 -0.7814 0.624 381.4133 -715.6797)" class="st0" width="0.6" height="2.6"/>
				
					<rect id="XMLID_1985_" x="935.6" y="39.1" transform="matrix(0.624 0.7814 -0.7814 0.624 383.4934 -716.1666)" class="st0" width="0.6" height="2.6"/>
				
					<rect id="XMLID_1984_" x="936.4" y="40.1" transform="matrix(0.624 0.7814 -0.7814 0.624 384.5334 -716.41)" class="st0" width="0.6" height="2.6"/>
				
					<rect id="XMLID_1982_" x="937.2" y="41" transform="matrix(0.624 0.7814 -0.7814 0.624 385.5735 -716.6534)" class="st0" width="0.6" height="2.6"/>
				
					<rect id="XMLID_1980_" x="937.8" y="41.9" transform="matrix(0.619 0.7854 -0.7854 0.619 391.4294 -720.3582)" class="st0" width="0.6" height="2.6"/>
				
					<rect id="XMLID_1978_" x="938.6" y="42.9" transform="matrix(0.619 0.7854 -0.7854 0.619 392.4787 -720.5931)" class="st0" width="0.6" height="2.6"/>
				
					<rect id="XMLID_1975_" x="939.4" y="43.9" transform="matrix(0.619 0.7854 -0.7854 0.619 393.528 -720.828)" class="st0" width="0.6" height="2.6"/>
				
					<rect id="XMLID_1973_" x="940.1" y="44.8" transform="matrix(0.619 0.7854 -0.7854 0.619 394.5774 -721.0629)" class="st0" width="0.6" height="2.6"/>
				
					<rect id="XMLID_1971_" x="940.9" y="45.8" transform="matrix(0.619 0.7854 -0.7854 0.619 395.6267 -721.2979)" class="st0" width="0.6" height="2.6"/>
				
					<rect id="XMLID_1969_" x="941.7" y="46.8" transform="matrix(0.619 0.7854 -0.7854 0.619 396.676 -721.5328)" class="st0" width="0.6" height="2.6"/>
			</g>
			<g id="XMLID_1965_">
				<polygon id="XMLID_1966_" class="st2" points="891.1,893.2 891.1,898.8 921.5,898.8 945.5,878.6 945.5,856.4 939.9,856.4 
					939.9,877.5 921,893.2 				"/>
			</g>
			<g id="XMLID_1525_">
				<defs>
					<polygon id="XMLID_1529_" points="941.7,53.9 782.2,53.9 803.2,29.6 945.5,29.6 					"/>
				</defs>
				<clipPath id="XMLID_59_">
					<use xlink:href="#XMLID_1529_"  style="overflow:visible;"/>
				</clipPath>
				<g id="XMLID_1532_" class="st3">
					<polygon id="XMLID_1964_" class="st0" points="820.7,50.7 818.2,50.7 803.3,31.2 805.8,31.2 					"/>
					<polygon id="XMLID_1963_" class="st0" points="825,50.7 822.6,50.7 807.7,31.2 810.1,31.2 					"/>
					<polygon id="XMLID_1962_" class="st0" points="829.4,50.7 827,50.7 812.1,31.2 814.5,31.2 					"/>
					<polygon id="XMLID_1961_" class="st0" points="833.8,50.7 831.3,50.7 816.4,31.2 818.9,31.2 					"/>
					<polygon id="XMLID_1960_" class="st0" points="838.2,50.7 835.7,50.7 820.8,31.2 823.3,31.2 					"/>
					<polygon id="XMLID_1959_" class="st0" points="842.6,50.7 840.1,50.7 825.2,31.2 827.7,31.2 					"/>
					<polygon id="XMLID_1958_" class="st0" points="847,50.7 844.5,50.7 829.6,31.2 832,31.2 					"/>
					<polygon id="XMLID_1956_" class="st0" points="851.3,50.7 848.9,50.7 834,31.2 836.4,31.2 					"/>
					<polygon id="XMLID_1900_" class="st0" points="785.6,50.7 783.2,50.7 768.3,31.2 770.7,31.2 					"/>
					<polygon id="XMLID_1891_" class="st0" points="790,50.7 787.5,50.7 772.6,31.2 775.1,31.2 					"/>
					<polygon id="XMLID_1890_" class="st0" points="794.4,50.7 791.9,50.7 777,31.2 779.5,31.2 					"/>
					<polygon id="XMLID_1889_" class="st0" points="798.8,50.7 796.3,50.7 781.4,31.2 783.9,31.2 					"/>
					<polygon id="XMLID_1888_" class="st0" points="803.1,50.7 800.7,50.7 785.8,31.2 788.2,31.2 					"/>
					<polygon id="XMLID_1887_" class="st0" points="807.5,50.7 805.1,50.7 790.2,31.2 792.6,31.2 					"/>
					<polygon id="XMLID_1886_" class="st0" points="811.9,50.7 809.4,50.7 794.5,31.2 797,31.2 					"/>
					<polygon id="XMLID_1885_" class="st0" points="816.3,50.7 813.8,50.7 798.9,31.2 801.4,31.2 					"/>
					<polygon id="XMLID_1884_" class="st0" points="855.7,50.7 853.3,50.7 838.3,31.2 840.8,31.2 					"/>
					<polygon id="XMLID_1883_" class="st0" points="860.1,50.7 857.6,50.7 842.7,31.2 845.2,31.2 					"/>
					<polygon id="XMLID_1882_" class="st0" points="868.9,50.7 866.4,50.7 851.5,31.2 854,31.2 					"/>
					<polygon id="XMLID_1881_" class="st0" points="864.5,50.7 862,50.7 847.1,31.2 849.6,31.2 					"/>
					<polygon id="XMLID_1880_" class="st0" points="877.6,50.7 875.2,50.7 860.3,31.2 862.7,31.2 					"/>
					<polygon id="XMLID_1844_" class="st0" points="886.4,50.7 883.9,50.7 869,31.2 871.5,31.2 					"/>
					<polygon id="XMLID_1732_" class="st0" points="903.9,50.7 901.4,50.7 886.5,31.2 889,31.2 					"/>
					<polygon id="XMLID_1725_" class="st0" points="921.4,50.7 919,50.7 904.1,31.2 906.5,31.2 					"/>
					<polygon id="XMLID_1669_" class="st0" points="895.1,50.7 892.7,50.7 877.8,31.2 880.2,31.2 					"/>
					<polygon id="XMLID_1613_" class="st0" points="912.7,50.7 910.2,50.7 895.3,31.2 897.8,31.2 					"/>
					<polygon id="XMLID_1573_" class="st0" points="930.2,50.7 927.7,50.7 912.8,31.2 915.3,31.2 					"/>
					<polygon id="XMLID_1551_" class="st0" points="938.9,50.7 936.5,50.7 921.6,31.2 924,31.2 					"/>
					<polygon id="XMLID_1549_" class="st0" points="873.2,50.7 870.8,50.7 855.9,31.2 858.3,31.2 					"/>
					<polygon id="XMLID_1543_" class="st0" points="882,50.7 879.5,50.7 864.6,31.2 867.1,31.2 					"/>
					<polygon id="XMLID_1542_" class="st0" points="890.8,50.7 888.3,50.7 873.4,31.2 875.9,31.2 					"/>
					<polygon id="XMLID_1541_" class="st0" points="908.3,50.7 905.8,50.7 890.9,31.2 893.4,31.2 					"/>
					<polygon id="XMLID_1536_" class="st0" points="899.5,50.7 897.1,50.7 882.2,31.2 884.6,31.2 					"/>
					<polygon id="XMLID_1535_" class="st0" points="917,50.7 914.6,50.7 899.7,31.2 902.1,31.2 					"/>
					<polygon id="XMLID_1534_" class="st0" points="925.8,50.7 923.3,50.7 908.4,31.2 910.9,31.2 					"/>
					<polygon id="XMLID_1533_" class="st0" points="934.6,50.7 932.1,50.7 917.2,31.2 919.7,31.2 					"/>
				</g>
			</g>
		</g>
		<g id="XMLID_1520_">
			<polygon id="XMLID_1522_" class="st2" points="7.5,56.4 1.1,56.4 1.1,14.7 18,2.1 42,2.1 42,5.1 19,5.1 7.5,13.7 			"/>
		</g>
	</g>
</g>
</svg>
