<?xml version="1.0" encoding="utf-8"?>
<!-- Generator: Adobe Illustrator 19.0.0, SVG Export Plug-In . SVG Version: 6.00 Build 0)  -->
<svg version="1.1" id="图层_1" xmlns="http://www.w3.org/2000/svg" xmlns:xlink="http://www.w3.org/1999/xlink" x="0px" y="0px"
	 viewBox="0 0 906 1010" style="enable-background:new 0 0 906 1010;" xml:space="preserve">
<style type="text/css">
	.integrated0{fill:none;stroke:#1561C0;stroke-miterlimit:10;}
	.integrated1{fill:#00BEFF;}
	.integrated2{fill:none;stroke:#1561C0;stroke-width:5;stroke-miterlimit:10;}
	.integrated3{fill:#1561C0;fill-opacity:0.4;stroke:#1561C0;stroke-miterlimit:10;}
	.integrated4{fill:#FEAB01;}
	.integrated5{font-family:'MicrosoftYaHei-Bold';}
	.integrated6{font-size:24px;}
	.integrated7{fill:none;stroke:#00BEFF;stroke-miterlimit:10;}
	.integrated8{fill:none;stroke:#00BEFF;stroke-width:3.0235;stroke-linecap:round;stroke-miterlimit:10;}
</style>
<g id="XMLID_4_">
	<polygon id="XMLID_9527_" class="integrated0" points="891.1,996 13.7,997.4 3,987.9 3,697.9 9.3,691.5 299.7,691.5 330.1,726 895.5,726 
		903,732.9 903,986.5 	"/>
	<polygon id="XMLID_9526_" class="integrated1" points="2.5,958.6 9.4,965.1 9.4,987.1 17.9,995.2 25.2,995.2 28,997.8 13.5,997.8 
		2.5,988.2 	"/>
	<polygon id="XMLID_9525_" class="integrated1" points="95.1,1004.8 35.2,1004.8 26.9,996.8 102.2,996.7 	"/>
	<g id="XMLID_9522_">
		<polygon id="XMLID_9524_" class="integrated1" points="903.5,956.8 897.7,963 897.7,985 889.2,993.1 880.5,993.2 877,996.5 891.3,996.5 
			903.5,986.8 		"/>
		<polygon id="XMLID_9523_" class="integrated1" points="810,1003.4 869.9,1003.4 878.1,995.5 803,995.5 		"/>
	</g>
	<polygon id="XMLID_9521_" class="integrated1" points="2.5,731.3 9.3,724.9 9.3,704.2 14.6,698.4 24.2,698.4 26.1,695.7 55,695.7 59.6,691 
		9.3,691 2.5,697.9 	"/>
	<polygon id="XMLID_9520_" class="integrated1" points="903.5,766.3 896,759.9 896,739.2 890.7,733.4 881.1,733.4 879.2,730.7 850.3,730.7 
		845.7,725.4 895.7,725.4 903.5,732.6 	"/>
	<polyline id="XMLID_9519_" class="integrated2" points="268.2,691.5 299.7,691.5 330,725.7 376.2,725.7 	"/>
	<g id="XMLID_9508_">
		<g id="XMLID_9516_">
			<circle id="XMLID_9518_" class="integrated0" cx="716.9" cy="696.6" r="3.2"/>
			<polyline id="XMLID_9517_" class="integrated0" points="844.5,726 820.1,696.6 720,696.6 			"/>
		</g>
		<g id="XMLID_9513_">
			<circle id="XMLID_9515_" class="integrated0" cx="747.3" cy="706" r="2.1"/>
			<polyline id="XMLID_9514_" class="integrated0" points="833.9,726 817.3,706 749.4,706 			"/>
		</g>
		<g id="XMLID_9509_">
			<polyline id="XMLID_9512_" class="integrated0" points="821.2,725.4 812.2,714.6 775.2,714.6 			"/>
			<circle id="XMLID_9511_" class="integrated0" cx="774.1" cy="714.6" r="1.2"/>
		</g>
	</g>
	<g id="XMLID_9505_">
		<circle id="XMLID_9507_" class="integrated0" cx="250.1" cy="1005.5" r="3.2"/>
		<polyline id="XMLID_9506_" class="integrated0" points="139.1,997.2 147,1005.5 247.1,1005.5 		"/>
	</g>
	<g id="XMLID_9502_">
		<circle id="XMLID_9504_" class="integrated0" cx="676.8" cy="1006.3" r="2.1"/>
		<polyline id="XMLID_9503_" class="integrated0" points="757.4,996.3 746.8,1006.3 678.9,1006.3 		"/>
	</g>
	<g id="XMLID_9499_">
		<polyline id="XMLID_9501_" class="integrated0" points="744.7,996.4 740.7,999.8 703.7,999.8 		"/>
		<circle id="XMLID_9500_" class="integrated0" cx="702.5" cy="999.8" r="1.2"/>
	</g>
	<polygon id="XMLID_9494_" class="integrated3" points="12.6,707.3 16.5,702 26.2,702 28.6,698.7 56.1,698.7 59.7,695.1 262.2,694.8 
		268.3,698.4 295.5,698.2 310.6,714.6 311.1,728.7 13.1,728.7 	"/>
	<g id="XMLID_9491_">
		<text id="XMLID_83_" transform="matrix(1 0 0 1 87.3375 720.2871)" class="integrated4 integrated5 integrated6">各系统情况</text>
	</g>
	<g id="XMLID_20_">
		<polygon id="XMLID_9721_" class="integrated0" points="891.1,647.2 13.7,648.5 3,639.1 3,349 9.3,342.7 299.7,342.7 330.1,377.2 
			895.5,377.2 903,384 903,637.7 		"/>
		<polygon id="XMLID_9720_" class="integrated1" points="2.5,609.8 9.4,616.3 9.4,638.3 17.9,646.4 25.2,646.4 28,649 13.5,649 2.5,639.3 		
			"/>
		<polygon id="XMLID_9719_" class="integrated1" points="95.1,656 35.2,656 26.9,648 102.2,647.9 		"/>
		<g id="XMLID_9716_">
			<polygon id="XMLID_9718_" class="integrated1" points="903.5,608 897.7,614.2 897.7,636.2 889.2,644.3 880.5,644.4 877,647.7 
				891.3,647.7 903.5,638 			"/>
			<polygon id="XMLID_9717_" class="integrated1" points="810,654.6 869.9,654.6 878.1,646.6 803,646.6 			"/>
		</g>
		<polygon id="XMLID_9715_" class="integrated1" points="2.5,382.4 9.3,376.1 9.3,355.3 14.6,349.6 24.2,349.6 26.1,346.8 55,346.8 
			59.6,342.2 9.3,342.2 2.5,349 		"/>
		<polygon id="XMLID_9714_" class="integrated1" points="903.5,417.4 896,411.1 896,390.3 890.7,384.6 881.1,384.6 879.2,381.8 850.3,381.8 
			845.7,376.6 895.7,376.6 903.5,383.8 		"/>
		<polyline id="XMLID_9713_" class="integrated2" points="268.2,342.7 299.7,342.7 330,376.8 376.2,376.8 		"/>
		<g id="XMLID_9703_">
			<g id="XMLID_9710_">
				<circle id="XMLID_9712_" class="integrated0" cx="716.9" cy="347.7" r="3.2"/>
				<polyline id="XMLID_9711_" class="integrated0" points="844.5,377.2 820.1,347.7 720,347.7 				"/>
			</g>
			<g id="XMLID_9707_">
				<circle id="XMLID_9709_" class="integrated0" cx="747.3" cy="357.2" r="2.1"/>
				<polyline id="XMLID_9708_" class="integrated0" points="833.9,377.2 817.3,357.2 749.4,357.2 				"/>
			</g>
			<g id="XMLID_9704_">
				<polyline id="XMLID_9706_" class="integrated0" points="821.2,376.6 812.2,365.7 775.2,365.7 				"/>
				<circle id="XMLID_9705_" class="integrated0" cx="774.1" cy="365.7" r="1.2"/>
			</g>
		</g>
		<g id="XMLID_9700_">
			<circle id="XMLID_9702_" class="integrated0" cx="250.1" cy="656.7" r="3.2"/>
			<polyline id="XMLID_9701_" class="integrated0" points="139.1,648.3 147,656.7 247.1,656.7 			"/>
		</g>
		<g id="XMLID_9697_">
			<circle id="XMLID_9699_" class="integrated0" cx="676.8" cy="657.5" r="2.1"/>
			<polyline id="XMLID_9698_" class="integrated0" points="757.4,647.5 746.8,657.5 678.9,657.5 			"/>
		</g>
		<g id="XMLID_9694_">
			<polyline id="XMLID_9696_" class="integrated0" points="744.7,647.5 740.7,650.9 703.7,650.9 			"/>
			<circle id="XMLID_9695_" class="integrated0" cx="702.5" cy="650.9" r="1.2"/>
		</g>
		<polygon id="XMLID_9690_" class="integrated3" points="12.6,358.4 16.5,353.1 26.2,353.1 28.6,349.9 56.1,349.9 59.7,346.3 262.2,346 
			268.3,349.6 295.5,349.4 310.6,365.8 311.1,379.8 13.1,379.8 		"/>
		<g id="XMLID_9687_">
			<text id="XMLID_84_" transform="matrix(1 0 0 1 64.5353 371.4456)" class="integrated4 integrated5 integrated6">接入厅局单位情况</text>
		</g>
	</g>
	<polygon id="XMLID_9914_" class="integrated0" points="891.1,306.3 13.7,307.7 3,298.2 3,8.2 9.3,1.8 299.7,1.8 330.1,36.3 895.5,36.3 
		903,43.2 903,296.8 	"/>
	<polygon id="XMLID_9913_" class="integrated1" points="2.5,269 9.4,275.5 9.4,297.5 17.9,305.6 25.2,305.6 28,308.2 13.5,308.2 2.5,298.5 	
		"/>
	<polygon id="XMLID_9912_" class="integrated1" points="95.1,315.2 35.2,315.2 26.9,307.2 102.2,307.1 	"/>
	<g id="XMLID_9909_">
		<polygon id="XMLID_9911_" class="integrated1" points="903.5,267.2 897.7,273.3 897.7,295.3 889.2,303.5 880.5,303.5 877,306.9 
			891.3,306.9 903.5,297.2 		"/>
		<polygon id="XMLID_9910_" class="integrated1" points="810,313.8 869.9,313.8 878.1,305.8 803,305.8 		"/>
	</g>
	<polygon id="XMLID_9908_" class="integrated1" points="2.5,41.6 9.3,35.3 9.3,14.5 14.6,8.7 24.2,8.7 26.1,6 55,6 59.6,1.3 9.3,1.3 
		2.5,8.2 	"/>
	<polygon id="XMLID_9907_" class="integrated1" points="903.5,76.6 896,70.3 896,49.5 890.7,43.7 881.1,43.7 879.2,41 850.3,41 845.7,35.8 
		895.7,35.8 903.5,42.9 	"/>
	<polyline id="XMLID_9906_" class="integrated2" points="268.2,1.8 299.7,1.8 330,36 376.2,36 	"/>
	<g id="XMLID_9896_">
		<g id="XMLID_9903_">
			<circle id="XMLID_9905_" class="integrated0" cx="716.9" cy="6.9" r="3.2"/>
			<polyline id="XMLID_9904_" class="integrated0" points="844.5,36.3 820.1,6.9 720,6.9 			"/>
		</g>
		<g id="XMLID_9900_">
			<circle id="XMLID_9902_" class="integrated0" cx="747.3" cy="16.3" r="2.1"/>
			<polyline id="XMLID_9901_" class="integrated0" points="833.9,36.3 817.3,16.3 749.4,16.3 			"/>
		</g>
		<g id="XMLID_9897_">
			<polyline id="XMLID_9899_" class="integrated0" points="821.2,35.8 812.2,24.9 775.2,24.9 			"/>
			<circle id="XMLID_9898_" class="integrated0" cx="774.1" cy="24.9" r="1.2"/>
		</g>
	</g>
	<g id="XMLID_9893_">
		<circle id="XMLID_9895_" class="integrated0" cx="250.1" cy="315.8" r="3.2"/>
		<polyline id="XMLID_9894_" class="integrated0" points="139.1,307.5 147,315.8 247.1,315.8 		"/>
	</g>
	<g id="XMLID_9890_">
		<circle id="XMLID_9892_" class="integrated0" cx="676.8" cy="316.6" r="2.1"/>
		<polyline id="XMLID_9891_" class="integrated0" points="757.4,306.6 746.8,316.6 678.9,316.6 		"/>
	</g>
	<g id="XMLID_9887_">
		<polyline id="XMLID_9889_" class="integrated0" points="744.7,306.7 740.7,310.1 703.7,310.1 		"/>
		<circle id="XMLID_9888_" class="integrated0" cx="702.5" cy="310.1" r="1.2"/>
	</g>
	<polygon id="XMLID_9883_" class="integrated3" points="12.6,17.6 16.5,12.3 26.2,12.3 28.6,9 56.1,9 59.7,5.5 262.2,5.1 268.3,8.7 
		295.5,8.6 310.6,25 311.1,39 13.1,39 	"/>
	<g id="XMLID_9880_">
		<text id="XMLID_85_" transform="matrix(1 0 0 1 89.8336 30.6218)" class="integrated4 integrated5 integrated6">系统接入情况</text>
	</g>
	<g id="XMLID_5277_">
		<line id="XMLID_5206_" class="integrated0" x1="452.4" y1="404.7" x2="452.4" y2="635.5"/>
		<line id="XMLID_5203_" class="integrated7" x1="452.4" y1="402.3" x2="452.4" y2="415.2"/>
		<line id="XMLID_5280_" class="integrated7" x1="452.4" y1="622.6" x2="452.4" y2="635.5"/>
	</g>
	<g id="XMLID_5193_">
		<line id="XMLID_5196_" class="integrated0" x1="302.1" y1="748" x2="302.1" y2="978.8"/>
		<line id="XMLID_5195_" class="integrated7" x1="302.1" y1="745.6" x2="302.1" y2="758.5"/>
		<line id="XMLID_5194_" class="integrated7" x1="302.1" y1="966" x2="302.1" y2="978.8"/>
	</g>
	<g id="XMLID_5216_">
		<line id="XMLID_5281_" class="integrated0" x1="604.8" y1="748" x2="604.8" y2="978.8"/>
		<line id="XMLID_5279_" class="integrated7" x1="604.8" y1="745.6" x2="604.8" y2="758.5"/>
		<line id="XMLID_5217_" class="integrated7" x1="604.8" y1="966" x2="604.8" y2="978.8"/>
	</g>
	<g id="XMLID_250_">
		<line id="XMLID_257_" class="integrated0" x1="452.4" y1="57.8" x2="452.4" y2="288.6"/>
		<line id="XMLID_253_" class="integrated7" x1="452.4" y1="55.4" x2="452.4" y2="68.3"/>
		<line id="XMLID_251_" class="integrated7" x1="452.4" y1="275.7" x2="452.4" y2="288.6"/>
	</g>
	<path id="XMLID_263_" class="integrated1" d="M529.2,129.5c-8.5,4-14.9,10.6-21.3,17.4c-0.3-0.6,0-1,0.1-1.4c4.6-16.4,18.8-28.5,35.8-30.3
		c2-0.2,4.1-0.4,6.1-0.2c1,0.1,1.8-0.4,2.7-0.8c5.4-2.3,10.9-4.2,16.7-5c4.2-0.6,8.3-0.4,12.3,1.1c4.9,1.9,7.1,5.7,7.3,10.8
		c0.1,4.6-1.2,8.8-2.9,13c-0.7,1.7-0.7,3,0.1,4.6c3.4,6.8,4.5,14,4.1,21.6c-0.1,2-0.2,2-2.2,2c-18.7,0-37.5,0-56.2,0
		c-1.9,0-2,0.2-1.7,2.1c1.8,10.8,12,17.7,23.1,15.5c5.1-1,9.2-3.7,12.2-8c0.4-0.6,0.8-0.9,1.5-0.9c6.7,0,13.4,0,20.2,0
		c0.2,0,0.3,0,0.4,0.1c0.3,0.3,0.1,0.6,0,0.9c-3.5,9-9.3,15.9-17.5,20.9c-7.6,4.6-15.9,6.5-24.8,5.9c-4.9-0.3-9.7-1.6-14.1-3.7
		c-0.9-0.4-1.5-0.4-2.4,0c-5.3,2.6-10.9,4.6-16.8,5.4c-2,0.2-4.1,0.2-6.1-0.2c-4.8-1.1-7.8-4.5-8.5-9.8c-0.6-4.9,0.2-9.7,1.2-14.4
		c1.3-5.9,4.3-11.1,7.1-16.3c5.8-10.5,13-20,21.6-28.3C527.8,130.8,528.5,130.2,529.2,129.5z M548.7,150.9
		C548.7,150.9,548.7,150.9,548.7,150.9c5.8,0,11.6,0,17.4,0c1.6,0,1.8-0.2,1.5-1.8c-0.3-2.4-1.2-4.6-2.4-6.7
		c-4.2-6.7-12.5-10.2-20.3-8.6c-7.8,1.6-13.6,7.4-14.8,15c-0.3,1.9-0.2,2,1.8,2C537.4,150.9,543.1,150.9,548.7,150.9z M526.9,193
		c-4.3-2.7-7.9-5.8-11-9.5c-3.1-3.7-5.3-7.9-7.1-12.6c-1.1,1.6-1.6,3.2-2.2,4.6c-1.6,4.2-3,8.5-3,13.1c0.1,6.2,4.6,8.5,8.7,8.7
		c3.3,0.2,6.4-0.7,9.4-1.8C523.5,194.9,525.2,194.2,526.9,193z M563.8,117.7c8.4,3.6,15,9.2,19.9,16.7c0.4-0.2,0.5-0.4,0.6-0.7
		c1.1-2.9,2-5.8,2.2-8.9c0.5-6-2.9-10.3-8.5-10.7C572.9,113.7,568.4,115.5,563.8,117.7z"/>
	<path id="XMLID_5200_" class="integrated1" d="M79,129.5c-8.5,4-14.9,10.6-21.3,17.4c-0.3-0.6,0-1,0.1-1.4c4.6-16.4,18.8-28.5,35.8-30.3
		c2-0.2,4.1-0.4,6.1-0.2c1,0.1,1.8-0.4,2.7-0.8c5.4-2.3,10.9-4.2,16.7-5c4.2-0.6,8.3-0.4,12.3,1.1c4.9,1.9,7.1,5.7,7.3,10.8
		c0.1,4.6-1.2,8.8-2.9,13c-0.7,1.7-0.7,3,0.1,4.6c3.4,6.8,4.5,14,4.1,21.6c-0.1,2-0.2,2-2.2,2c-18.7,0-37.5,0-56.2,0
		c-1.9,0-2,0.2-1.7,2.1c1.8,10.8,12,17.7,23.1,15.5c5.1-1,9.2-3.7,12.2-8c0.4-0.6,0.8-0.9,1.5-0.9c6.7,0,13.4,0,20.2,0
		c0.2,0,0.3,0,0.4,0.1c0.3,0.3,0.1,0.6,0,0.9c-3.5,9-9.3,15.9-17.5,20.9c-7.6,4.6-15.9,6.5-24.8,5.9c-4.9-0.3-9.7-1.6-14.1-3.7
		c-0.9-0.4-1.5-0.4-2.4,0c-5.3,2.6-10.9,4.6-16.8,5.4c-2,0.2-4.1,0.2-6.1-0.2c-4.8-1.1-7.8-4.5-8.5-9.8c-0.6-4.9,0.2-9.7,1.2-14.4
		c1.3-5.9,4.3-11.1,7.1-16.3c5.8-10.5,13-20,21.6-28.3C77.7,130.8,78.3,130.2,79,129.5z M98.6,150.9
		C98.6,150.9,98.6,150.9,98.6,150.9c5.8,0,11.6,0,17.4,0c1.6,0,1.8-0.2,1.5-1.8c-0.3-2.4-1.2-4.6-2.4-6.7
		c-4.2-6.7-12.5-10.2-20.3-8.6c-7.8,1.6-13.6,7.4-14.8,15c-0.3,1.9-0.2,2,1.8,2C87.3,150.9,92.9,150.9,98.6,150.9z M76.8,193
		c-4.3-2.7-7.9-5.8-11-9.5c-3.1-3.7-5.3-7.9-7.1-12.6c-1.1,1.6-1.6,3.2-2.2,4.6c-1.6,4.2-3,8.5-3,13.1c0.1,6.2,4.6,8.5,8.7,8.7
		c3.3,0.2,6.4-0.7,9.4-1.8C73.3,194.9,75,194.2,76.8,193z M113.7,117.7c8.4,3.6,15,9.2,19.9,16.7c0.4-0.2,0.5-0.4,0.6-0.7
		c1.1-2.9,2-5.8,2.2-8.9c0.5-6-2.9-10.3-8.5-10.7C122.8,113.7,118.2,115.5,113.7,117.7z"/>
	<g id="XMLID_1_">
		<path id="XMLID_2_" class="integrated1" d="M155.5,188.7v3c-1.8,1.5-3.7,2.9-5.5,4.3l3.2,1.2l-1.9,3l-13.9-5.7l1.6-2.6l7.6,2.8l4-3h-12.9
			v-2.5l0.8-2.2h-3.9v-3h5.1l0.7-1.7H136v-3h5.6l1-2.5h3.7l-1,2.5H156v3h-12l-0.7,1.7h14.2v3h-15.4l-0.7,1.7H155.5z"/>
	</g>
	<path id="XMLID_476_" class="integrated1" d="M398.2,477.3c0-1.3-1.1-2.3-2.4-2.3h-69.8c-1.3,0-2.4,1-2.4,2.3c0,1.3,1.1,2.3,2.4,2.3h69.8
		C397.1,479.6,398.2,478.6,398.2,477.3z M374.9,519.4v-32.5c1.3,0,2.3-1,2.3-2.3s-1-2.3-2.3-2.3h-9.5c-1.3,0-2.3,1.1-2.3,2.3
		s1,2.3,2.3,2.3h0.2v32.5H374.9z M398,527.9h-1.6c1-0.6,1.7-1.7,1.7-2.9c0-1.9-1.5-3.4-3.4-3.4H327c-1.9,0-3.4,1.5-3.4,3.4
		c0,1.2,0.7,2.3,1.7,2.9h-2.7c-2,0-3.5,1.7-3.5,3.8c0,2.1,1.6,3.8,3.5,3.8H398c2,0,3.5-1.7,3.5-3.8C401.6,529.6,400,527.9,398,527.9
		z M393.6,519.4v-32.5c1.3,0,2.3-1,2.3-2.3s-1-2.3-2.3-2.3h-9.5c-1.3,0-2.3,1.1-2.3,2.3s1,2.3,2.3,2.3h0.2v32.5H393.6z M356.3,519.4
		v-32.5c1.3,0,2.3-1,2.3-2.3s-1-2.3-2.3-2.3h-9.5c-1.3,0-2.3,1.1-2.3,2.3s1,2.3,2.3,2.3h0.2v32.5H356.3z M337.6,519.4v-32.5
		c1.3,0,2.3-1,2.3-2.3s-1-2.3-2.3-2.3H328c-1.3,0-2.3,1.1-2.3,2.3s1,2.3,2.3,2.3h0.2v32.5H337.6z M386.4,466.6l-25.8-15.9
		l-25.6,15.9h-17.7v6.6h86.3v-6.6H386.4z"/>
	<g id="XMLID_5192_">
		<polygon id="XMLID_5187_" class="integrated1" points="773,523.9 797.3,479 802,503.2 823.4,468 831.5,491.8 846,473.4 836.6,473.6 
			861.3,458.9 853,488.3 850.7,477.8 829.5,505.2 821.3,482.1 799,517.5 794.5,495.8 		"/>
		<polyline id="XMLID_5182_" class="integrated8" points="858.1,532.3 767.9,532.3 767.9,470.1 		"/>
		<polygon id="XMLID_5180_" class="integrated1" points="775.8,527 792.2,504.9 798.8,523.5 820.2,489.8 828.8,512.5 846,489.4 854.2,527 		
			"/>
	</g>
</g>
</svg>
