<?xml version="1.0" encoding="utf-8"?>
<!-- Generator: Adobe Illustrator 19.0.0, SVG Export Plug-In . SVG Version: 6.00 Build 0)  -->
<svg version="1.1" id="图层_1" xmlns="http://www.w3.org/2000/svg" xmlns:xlink="http://www.w3.org/1999/xlink" x="0px" y="0px"
	 viewBox="0 0 42 50" style="enable-background:new 0 0 42 50;" xml:space="preserve">
<style type="text/css">
	.st0_mda{fill:#00E0D5;}
</style>
<g>
	<path id="XMLID_384_" class="st0_mda" d="M3.9,41h28.7c0,0,2,0.4,2.6-1.6c0.6-2,4.7-15.6,4.7-15.6s0.4-0.8-1.1-0.8c-1.5,0-5.8,0-5.8,0
		s-1.2,0-1.4,0.6l-1.8,2.8L8.1,26.3c0,0-1.9,0-2.2,2.2L3.7,40.2C3.7,40.2,3.4,41,3.9,41z"/>
	<path id="XMLID_383_" class="st0_mda" d="M2.2,19.3v16.4l0.2,0.2c0,0,1.2-9.1,2.8-10.6l0.1-7.1H3.6C3.6,18.2,2.5,18.3,2.2,19.3z"/>
	<path id="XMLID_382_" class="st0_mda" d="M7.2,24.5H8V10c0,0,0-0.3,0.7-0.3c0.7,0,18.8,0,18.8,0s0.9,0,0.9,0.5c0.1,0.5,0,14.2,0,14.2
		h0.6V10.1c0,0,0.1-1.2-2.5-1.2c-2.6,0-18.7,0-18.7,0S7.2,9.1,7.2,9.9C7.1,10.6,7.2,24.5,7.2,24.5z"/>
	<rect id="XMLID_381_" x="10.4" y="12.5" class="st0_mda" width="15.5" height="1"/>
	<rect id="XMLID_380_" x="10.4" y="15.7" class="st0_mda" width="15.5" height="1"/>
	<rect id="XMLID_379_" x="10.4" y="22.5" class="st0_mda" width="15.5" height="1"/>
	<rect id="XMLID_378_" x="10.4" y="18.9" class="st0_mda" width="15.5" height="1"/>
	<path id="XMLID_377_" class="st0_mda" d="M30.9,18.3v3.6c0,0,1.3-0.8,1.7-0.8c0.4-0.1,1.8-0.1,1.8-0.1v-1.7c0,0-0.5-1-1.1-1
		c-0.6,0-2.3,0-2.3,0v0.2"/>
</g>
</svg>
