<?xml version="1.0" encoding="utf-8"?>
<!-- Generator: Adobe Illustrator 19.0.0, SVG Export Plug-In . SVG Version: 6.00 Build 0)  -->
<svg version="1.1" id="图层_1" xmlns="http://www.w3.org/2000/svg" xmlns:xlink="http://www.w3.org/1999/xlink" x="0px" y="0px"
	 viewBox="0 0 42 50" style="enable-background:new 0 0 42 50;" xml:space="preserve">
<style type="text/css">
	.st0_mjsry{fill:#F4E800;}
</style>
<g>
	<path class="st0_mjsry" d="M35.9,12c-0.1-0.2-0.3-0.3-0.6-0.3c0,0-0.1,0-0.1,0c-0.8-0.1-2.1,1.7-2.2,1.9c-0.2,0.2-0.3,0.2-0.3,0.2
		c-0.1,0-0.1-0.2-0.1-0.2c0,0,0-1-0.6-1.2c0,0-0.1-0.1-0.3-0.1c-0.1,0-0.2,0-0.3,0.1c-0.1,0-0.1,0.1-0.1,0.2c0,0.2,0.1,0.4,0.3,0.6
		c0.1,0.1,0.1,0.3,0,0.5c0,0.1,0,0.1-0.1,0.2c0,0.1-0.1,0.2-0.1,0.3c0,0.2,0,0.3,0,0.4c0.1,0.4,0.2,0.8,0.5,1.1L31.9,16l-0.6-0.4
		c-0.1,0-0.1,0-0.2,0c-1.3,2.1-2.8,3.2-4.3,3.2h0c-1.9,0-3.4-1.7-4.1-2.6c-0.4-0.6-0.8-1.1-1.3-1.6v0.2v0.2v2.8
		c0.4,0,0.7,0.1,0.9,0.3c0,0,0.1,0.1,0.1,0.1c0,0,0.1,0.1,0.1,0.1c0,0,0,0,0,0.1c0.2,0.3,0.3,0.7,0.4,1.1c0,0.1,0,0.1,0,0.2
		c0,0.1,0,0.1,0,0.2c0,1.3-0.4,2.8-0.5,2.9c0,0-0.1,0.3-0.3,0.4c0,0-0.1,0-0.1,0c0,0-0.1,0-0.2,0c-0.1,0.1-0.2,0.1-0.3,0.1
		c-0.1-0.1-0.1-0.3,0-0.4c0.1-0.2,0.3-0.3,0.4-0.3c0.1,0,0.1,0.2,0.1,0.4c0,0,0,0,0.1,0c0.1,0,0.1-0.2,0.1-0.2c0,0,0.5-1.7,0.4-3
		c0-0.1,0-0.1,0-0.2c0-0.2-0.1-0.5-0.2-0.6c0-0.1-0.1-0.2-0.1-0.3c0,0,0,0,0,0c-0.2-0.3-0.6-0.4-1.1-0.4c-0.5,0-0.9,0.2-1.1,0.6
		c-0.8,1.2,0.2,3.9,0.2,3.9c0,0,0,0.1,0.1,0.2c0,0,0.1,0,0.2,0c0-0.2,0-0.3,0.1-0.3c0.1-0.1,0.3,0.1,0.4,0.3c0.1,0.2,0.1,0.4,0,0.4
		c-0.1,0-0.2,0-0.3-0.1c-0.1,0.1-0.3,0.1-0.4,0c-0.2-0.1-0.3-0.3-0.3-0.4c0-0.1-1.1-2.8-0.2-4.1c0.3-0.4,0.7-0.7,1.2-0.7v-3.1v-0.2
		v-0.1c0,0,0,0,0-0.1c-0.3-0.2-0.6-0.4-0.9-0.6l0,0h0c0,0,0,0,0,0c0,0,0,0,0,0c0,0,0,0,0,0c0,0,0,0-0.1,0c-0.8,0.6-2.9,1.5-3.2,1.6
		c-0.3-0.1-2.3-1-3.2-1.6l0,0c0,0,0,0,0,0c0,0-0.1,0-0.1,0c-0.3,0.2-0.6,0.4-0.9,0.6c0,0,0,0,0,0v0.1v0.2V20
		c0.4,0.1,0.7,0.4,0.7,0.9c0,0.5-0.4,0.9-0.9,0.9c-0.5,0-0.9-0.4-0.9-0.9c0-0.4,0.3-0.8,0.7-0.9v-4.9v-0.2v-0.2
		c-0.2,0.2-0.4,0.4-0.6,0.6c0,0,0,0,0,0c0,0-0.1,0.1-0.1,0.2c-0.3,0.3-0.5,0.6-0.7,1c-0.4,0.6-0.8,1.4-1.3,2.4
		c-1,2.3-2.4,6.3-3,12.5c0,0,0,0.1,0,0.1c0,0,0.1,0,0.1,0l0.5,0L7.2,32c-0.2,0.1-0.8,0.4-1.1,2C6,35.3,6,36.1,6.3,36.5
		c0.1,0.1,0.3,0.2,0.4,0.2c0.1,0,0.3-0.1,0.3-0.1c0.8-0.2,1.2-2.1,1.3-2.3c0.1-0.2,0.2-0.3,0.2-0.3c0,0,0.1,0.1,0.1,0.1
		c0,0,0.3,0.8,1,0.9c0.1,0,0.4,0,0.5-0.2c0,0,0,0,0,0v6.6c0,0.1,0.1,0.1,0.1,0.1h2.9v6h3.5v-6h1.3v6h3.5v-6h2.1
		c0.1,0,0.1-0.1,0.1-0.1V20.3c1.1,0.6,2.1,0.9,3.2,0.9c3.1,0,5.6-2.5,6.8-4c0,0,0-0.1,0-0.1c0,0,0-0.1-0.1-0.1l-0.7-0.4l0.3-0.4
		c0,0,0,0,0.1,0c0.3,0,1-0.2,1.8-1.6C35.9,13.3,36.1,12.5,35.9,12z M9.9,34.5c0,0.1-0.2,0.1-0.3,0.1h0c-0.5,0-0.7-0.7-0.7-0.7
		c0,0-0.1-0.2-0.3-0.2c-0.2,0-0.3,0.2-0.4,0.5C7.9,35,7.5,36.3,7,36.3c0,0,0,0,0,0c0,0-0.1,0.1-0.2,0.1c-0.1,0-0.2,0-0.2-0.1
		c-0.2-0.2-0.3-0.8-0.1-2.3c0.3-1.7,0.9-1.8,0.9-1.8c0.1,0,0.1,0,0.1-0.1l0.1-0.5l0.7,0.1l0,0.4c0,0.1,0,0.1,0.1,0.1
		c0.3,0.1,0.6,0.4,0.8,0.7c0.1,0.1,0.1,0.2,0.1,0.3c0,0.1,0,0.2,0,0.2c0,0.1,0,0.2,0,0.3c0,0.1,0.1,0.5,0.3,0.6
		C9.8,34.4,9.9,34.4,9.9,34.5C9.9,34.5,9.9,34.5,9.9,34.5z M10.1,34.4c-0.1-0.1-0.2-0.3-0.4-0.4c-0.1,0-0.2-0.2-0.2-0.4
		c0-0.1,0-0.1,0-0.2c0-0.1,0-0.2,0-0.3c0-0.1-0.1-0.3-0.2-0.4c-0.2-0.3-0.5-0.6-0.8-0.8l0-0.3l0.5,0c0,0,0,0,0,0c0,0,0.1,0,0.1,0
		c0,0,0-0.1,0-0.1c0,0,0.2-3.1,1-6.1V34.4z M19.4,14.6c0.1-0.1,0.2-0.1,0.3-0.2c0.1,0,0.1-0.1,0.2-0.1l-0.1,0.1l-0.9,2.2l-0.6-0.4
		l-0.1-0.1L18,16.2l-0.9-0.5C17.6,15.5,18.6,15,19.4,14.6z M14.1,14.5c0.1,0.1,0.2,0.1,0.3,0.2c0.8,0.4,1.7,0.9,2.2,1l-0.8,0.6
		l-0.1,0.1l-0.1,0.1l-0.7,0.4L14,14.5l-0.1-0.1C14,14.4,14,14.4,14.1,14.5z M15.1,35.5h-3.8v-0.6h3.8V35.5z M17.7,19.6l-0.3-2.1
		h-1.1L16,19.6v0L15,17l0,0l0.7-0.5l0.1-0.1l0.1,0l0.4,0.7h1.1l0.4-0.7l0.1-0.1l0.1,0.1l0.1,0.1l0.7,0.4L17.7,19.6z M22.3,35.5h-3.8
		v-0.6h3.8V35.5z M34.9,14.5c-0.8,1.3-1.4,1.4-1.6,1.4c0,0-0.1,0-0.1,0c-0.1,0-0.1,0-0.1,0l-0.3,0.5l-0.7-0.4l0.2-0.3
		c0,0,0-0.1,0-0.1c-0.3-0.3-0.5-0.6-0.5-1c0-0.1,0-0.2,0-0.4c0-0.1,0-0.2,0.1-0.3c0-0.1,0.1-0.2,0.1-0.3c0-0.1,0.1-0.5-0.1-0.7
		c-0.2-0.2-0.2-0.3-0.2-0.4c0,0,0-0.1,0-0.1c0.1-0.1,0.3,0,0.3,0c0.5,0.2,0.5,1,0.5,1c0,0.1,0.1,0.4,0.3,0.4c0.1,0,0.3-0.1,0.5-0.3
		c0.3-0.5,1.4-1.9,2-1.8c0,0,0,0,0,0c0,0,0,0,0.1,0c0.1,0,0.3,0,0.3,0.2C35.8,12.3,35.8,12.9,34.9,14.5z"/>
	<path id="XMLID_384_" class="st0_mjsry" d="M13.1,47.6c0,0-1.9,0.2-1.9,1.8h5.7c0,0,0.1-1.1-0.2-1.8H13.1z"/>
	<path id="XMLID_383_" class="st0_mjsry" d="M21.5,47.6h-3.6c-0.4,0.8-0.2,1.8-0.2,1.8h5.7C23.4,47.9,21.5,47.6,21.5,47.6z"/>
	<circle id="XMLID_382_" class="st0_mjsry" cx="14.5" cy="9.2" r="0.5"/>
	<circle id="XMLID_381_" class="st0_mjsry" cx="19.1" cy="9.2" r="0.5"/>
	<path class="st0_mjsry" d="M12,20.8c0,0.3,0.2,0.5,0.5,0.5c0.3,0,0.5-0.2,0.5-0.5c0-0.3-0.2-0.5-0.5-0.5C12.3,20.3,12,20.6,12,20.8z
		 M12.6,20.5c0.2,0,0.3,0.2,0.3,0.3c0,0.2-0.2,0.3-0.3,0.3c-0.2,0-0.3-0.2-0.3-0.3C12.2,20.7,12.4,20.5,12.6,20.5z"/>
	<path class="st0_mjsry" d="M11.6,10.5c0.8,2.2,2.9,3.7,5.3,3.7c2.4,0,4.5-1.5,5.3-3.7c0.6-0.1,1.1-0.6,1.1-1.2c0-0.5-0.3-1-0.7-1.1
		c0.1-0.4,0.1-0.9,0.1-1.4c0-0.1,0-0.2,0-0.3c1-0.5,1.9-1.3,2.9-2.3l-1.7,0.4l0.3-0.9c0,0-1,1-2.5-0.7c-1.1-1.5-2.8-2.5-4.7-2.5
		c-3.2,0-5.8,2.8-5.8,6.2c0,0.5,0,0.9,0.1,1.4c-0.5,0.2-0.8,0.6-0.8,1.2C10.4,10,10.9,10.5,11.6,10.5z M11.3,8.6c0,0,0.1,0,0.1,0
		c0,0,0,0,0,0c0.1,0,0.2-0.1,0.2-0.2c0,0,0,0,0,0c0-0.9,0.3-1.7,0.7-2.4c1.5,0.8,5.4,2.5,9.3,1c0.2,0.4,0.2,0.9,0.3,1.4c0,0,0,0,0,0
		c0,0.1,0.1,0.2,0.2,0.2c0,0,0,0,0.1,0c0,0,0.1,0,0.1,0.1c0.2,0.1,0.4,0.4,0.4,0.7c0,0.4-0.3,0.7-0.7,0.7c0,0,0,0,0,0c0,0,0,0,0,0
		c0,0,0,0,0,0c-0.1,0-0.2,0.1-0.3,0.2c0,0,0,0,0,0c-0.7,2.1-2.7,3.5-4.9,3.5c-2.2,0-4.2-1.4-4.9-3.6c0,0,0,0,0,0
		c0-0.1-0.1-0.2-0.2-0.2c0,0,0,0,0,0l0,0c0,0,0,0,0,0c0,0,0,0,0,0c-0.4,0-0.7-0.3-0.7-0.7C10.9,9,11.1,8.7,11.3,8.6z"/>
</g>
</svg>
