<?xml version="1.0" encoding="utf-8"?>
<!-- Generator: Adobe Illustrator 19.0.0, SVG Export Plug-In . SVG Version: 6.00 Build 0)  -->
<svg version="1.1" id="图层_1" xmlns="http://www.w3.org/2000/svg" xmlns:xlink="http://www.w3.org/1999/xlink" x="0px" y="0px"
	 viewBox="0 0 42 50" style="enable-background:new 0 0 42 50;" xml:space="preserve">
<style type="text/css">
	.st0_mrks{fill:#5DEF26;}
</style>
<g>
	<path id="XMLID_378_" class="st0_mrks" d="M21,10.3c2.8,0,5.2-2.3,5.2-5.2C26.2,2.3,23.8,0,21,0c-2.8,0-5.1,2.3-5.1,5.2
		C15.9,8,18.2,10.3,21,10.3z"/>
	<path id="XMLID_377_" class="st0_mrks" d="M32.3,26.4c0-0.1,0-0.2,0-0.3L30,13.6c-0.2-1.2-1.2-2-2.4-2H14.4c-1.2,0-2.2,0.9-2.4,2
		L9.7,26.1c0,0.1,0,0.2,0,0.3c0,0.1,0,0.2,0,0.3c0,1.3,1.1,2.4,2.4,2.4c1.2,0,2.2-0.8,2.4-2l1.5-9.3l0,29.7c0,1.3,1.1,2.4,2.4,2.4
		c1.3,0,2.4-1.1,2.4-2.4V32.9h0.6v14.7c0,1.3,1.1,2.4,2.4,2.4c1.3,0,2.4-1.1,2.4-2.4l0-29.7l1.5,9.3c0.2,1.1,1.2,2,2.4,2
		c1.3,0,2.4-1.1,2.4-2.4C32.3,26.6,32.3,26.5,32.3,26.4z"/>
</g>
</svg>
