<?xml version="1.0" encoding="utf-8"?>
<!-- Generator: Adobe Illustrator 19.0.0, SVG Export Plug-In . SVG Version: 6.00 Build 0)  -->
<svg version="1.1" id="图层_1" xmlns="http://www.w3.org/2000/svg" xmlns:xlink="http://www.w3.org/1999/xlink" x="0px" y="0px"
	 viewBox="0 0 42 50" style="enable-background:new 0 0 42 50;" xml:space="preserve">
<style type="text/css">
	.st0_mlljg{fill:#00E0D5;}
</style>
<g>
	<path class="st0_mlljg" d="M37.1,1H4.9C4.8,1,4.7,1.2,4.7,1.3v47.4c0,0.1,0.1,0.3,0.3,0.3h32.2c0.1,0,0.3-0.1,0.3-0.3V1.3
		C37.3,1.2,37.2,1,37.1,1z M14.3,42.6H9.1v-5.2h5.2V42.6z M14.3,34.2H9.1V29h5.2V34.2z M14.3,25.8H9.1v-5.2h5.2V25.8z M23.6,42.6
		h-5.2v-5.2h5.2V42.6z M23.6,34.2h-5.2V29h5.2V34.2z M23.6,25.8h-5.2v-5.2h5.2V25.8z M26.2,17.9H15.8V7.4h10.4V17.9z M32.9,42.6
		h-5.2v-5.2h5.2V42.6z M32.9,34.2h-5.2V29h5.2V34.2z M32.9,25.8h-5.2v-5.2h5.2V25.8z"/>
	<polygon id="XMLID_377_" class="st0_mlljg" points="19.7,16.3 22.3,16.3 22.3,13.9 25.1,13.9 25.1,11.2 22.3,11.2 22.3,8.8 19.7,8.8 
		19.7,11.2 16.9,11.2 16.9,13.9 19.7,13.9 	"/>
</g>
</svg>
