<?xml version="1.0" encoding="utf-8"?>
<!-- Generator: Adobe Illustrator 19.0.0, SVG Export Plug-In . SVG Version: 6.00 Build 0)  -->
<svg version="1.1" id="图层_1" xmlns="http://www.w3.org/2000/svg" xmlns:xlink="http://www.w3.org/1999/xlink" x="0px" y="0px"
	 viewBox="0 0 42 50" style="enable-background:new 0 0 42 50;" xml:space="preserve">
<style type="text/css">
	.st0_mllcs{fill:#5DEF26;}
</style>
<g>
	
		<ellipse id="XMLID_383_" transform="matrix(0.5229 0.8524 -0.8524 0.5229 17.0669 -0.2525)" class="st0_mllcs" cx="8.8" cy="15.1" rx="3.4" ry="3.2"/>
	<path id="XMLID_382_" class="st0_mllcs" d="M20.6,30.5c-3.9-1.8-6.9-5.2-8.1-9.4c0-0.1-0.2-1.8,0.9-1.9c1.1-0.2,1.7,1.2,1.7,1.4
		c1,3.3,3.4,6,6.6,7.5c0.7,0.3,1.2,1.1,0.9,1.8C22.4,30.5,21.5,30.9,20.6,30.5z"/>
	<path class="st0_mllcs" d="M25.3,30.2c0-0.1,0-0.2,0-0.2c1.3-0.1,2.6-0.2,3.9-0.2c2.3,0,4.6,0.2,7,0.5c0,0,0.2,0,0.2,0
		c0.4,0.1,0.8,0.3,1,0.7c0,0,0,0.1,0.1,0.1c0.1-0.8-0.4-1.6-1.1-1.8c-0.1,0-0.3-0.1-0.3-0.1c-3.8-0.6-7.3-0.7-11-0.3
		c-0.2-0.6-0.4-1.1-0.8-1.6l-6.1-7l0.4-0.3l-0.3-0.4c0.6-0.8,0.1-2-0.4-3.1c-0.5-1.2-1-2.4-0.6-3.5c0.6-1.4,1.4-2,2-2.2v0.1h0.5v5.5
		h14.6V6.2H19.8v3.7h-0.5v0.7c-0.7,0.3-1.8,0.9-2.4,2.5c-0.5,1.2,0.1,2.6,0.6,3.8c0.5,1.2,0.8,2,0.5,2.6l-0.3-0.3l-0.4,0.3l-0.9-1
		c-1.5-1.7-4-1.9-5.7-0.4c-1.7,1.5-1.9,4-0.4,5.7l7.8,9c0.9,1,2.1,1.4,3.3,1.4l0,0c0,0,0.1,0,0.1,0c0.2,0,0.5-0.1,0.7-0.1
		c4.5-0.8,8.6-0.8,13.2-0.1c0,0,0.2,0,0.3,0.1c0.7,0.1,1.5-0.5,1.8-1.4c0.2-0.9-0.3-1.9-1.1-2c-0.1,0-0.3,0-0.3-0.1
		C32.4,30,28.9,29.9,25.3,30.2z M20.6,7h12.9v8.8H20.6v-4.7V9.9V7z M22.9,29.9c-0.1,0.4-0.4,0.7-0.8,0.8c-0.5,0.2-1.1,0.2-1.6,0
		c-2-0.9-3.7-2.2-5.2-3.9c0,0,0,0,0,0c-1.4-1.6-2.5-3.5-3.1-5.6c0-0.1-0.1-0.5-0.1-0.8c0-0.6,0.3-1.4,1.2-1.5
		c0.5-0.1,1.1,0.1,1.5,0.6c0.1,0.2,0.4,0.6,0.5,0.9c0.5,1.6,1.3,3.1,2.4,4.3c1.1,1.3,2.5,2.3,4.1,3c0.3,0.1,0.5,0.3,0.7,0.5
		C22.9,28.8,23.1,29.4,22.9,29.9z"/>
	<path id="XMLID_378_" class="st0_mllcs" d="M4.2,17.5c-0.1,0.2,15.1,17,15.1,17h22V38H40v5.8h-1.8V38H16.6v5.8h-1.8v-6.7L0.7,20.5
		L4.2,17.5z"/>
	<path id="XMLID_377_" class="st0_mllcs" d="M26.8,14.5c-1.2-0.9-4.2-1.9-3.9-4.2c0.3-1.8,1.8-2.4,2.9-1.7c0.8,0.5,0.9,1.1,1,1.3
		c0.1-0.2,0.2-0.8,1-1.3c1.1-0.7,2.6-0.2,2.9,1.7C31,12.6,28,13.6,26.8,14.5z"/>
</g>
</svg>
