<?xml version="1.0" encoding="utf-8"?>
<!-- Generator: Adobe Illustrator 19.0.0, SVG Export Plug-In . SVG Version: 6.00 Build 0)  -->
<svg version="1.1" id="图层_1" xmlns="http://www.w3.org/2000/svg" xmlns:xlink="http://www.w3.org/1999/xlink" x="0px" y="0px"
	 viewBox="0 0 50 36" style="enable-background:new 0 0 50 36;" xml:space="preserve">
<style type="text/css">
	.st0_mzkan{fill:#FF6224;}
	.st1_mzkan{fill:none;stroke:#05BCFE;stroke-miterlimit:10;}
	.st2_mzkan{fill:#05BCFE;}
</style>
<g id="展开按钮">
	<g>
		<g>
			<g>
				<polygon id="XMLID_357_" class="st0_mzkan" points="33.3,17.6 33.3,21.2 24,27.8 14.8,21.3 14.8,17.6 24,24.1 				"/>
			</g>
			<g>
				<polygon id="XMLID_356_" class="st0_mzkan" points="33.3,10.7 33.3,14.6 24.1,21.1 14.8,14.5 14.8,10.7 24.1,17.4 				"/>
			</g>
		</g>
		<polygon id="XMLID_355_" class="st1_mzkan" points="1.5,1.3 8.4,1.3 13.7,2.9 38.2,2.9 48,1.3 48,32.7 40.9,32.7 35.2,34.5 8.9,34.5 
			1.5,32.7 		"/>
		<polygon id="XMLID_354_" class="st2_mzkan" points="8.8,33.5 2.6,31.9 2.6,29.7 		"/>
		<polygon id="XMLID_353_" class="st2_mzkan" points="46.5,3.6 46.5,2.9 42,3.6 		"/>
		<polygon id="XMLID_352_" class="st2_mzkan" points="48,33.5 48.4,33.5 47.6,34.7 47.2,34.7 		"/>
		<polygon id="XMLID_351_" class="st2_mzkan" points="47.4,33.5 47.7,33.5 46.9,34.7 46.6,34.7 		"/>
		<polygon id="XMLID_350_" class="st2_mzkan" points="46.7,33.5 47.1,33.5 46.3,34.7 45.9,34.7 		"/>
		<polygon id="XMLID_349_" class="st2_mzkan" points="46,33.5 46.4,33.5 45.6,34.7 45.2,34.7 		"/>
		<g>
			<polygon id="XMLID_348_" class="st2_mzkan" points="45.4,33.5 45.7,33.5 44.9,34.7 44.6,34.7 			"/>
			<polygon id="XMLID_347_" class="st2_mzkan" points="44.7,33.5 45.1,33.5 44.3,34.7 43.9,34.7 			"/>
			<polygon id="XMLID_346_" class="st2_mzkan" points="44,33.5 44.4,33.5 43.6,34.7 43.2,34.7 			"/>
			<polygon id="XMLID_345_" class="st2_mzkan" points="43.3,33.5 43.7,33.5 42.9,34.7 42.5,34.7 			"/>
		</g>
		<polygon id="XMLID_344_" class="st2_mzkan" points="42.6,33.5 43,33.5 42.2,34.7 41.8,34.7 		"/>
		<polygon id="XMLID_343_" class="st2_mzkan" points="41.9,33.5 42.3,33.5 41.5,34.7 41.1,34.7 		"/>
		<polygon id="XMLID_342_" class="st2_mzkan" points="41.3,33.5 41.6,33.5 40.8,34.7 40.5,34.7 		"/>
		<polygon id="XMLID_341_" class="st2_mzkan" points="40.6,33.5 41,33.5 40.2,34.7 39.8,34.7 		"/>
		<rect id="XMLID_340_" x="39.4" y="33.9" class="st2_mzkan" width="9.1" height="0.4"/>
		<polygon id="XMLID_339_" class="st2_mzkan" points="11.2,3.5 8,2.7 3.2,2.7 3.2,3.5 		"/>
	</g>
</g>
</svg>
