<?xml version="1.0" encoding="utf-8"?>
<!-- Generator: Adobe Illustrator 19.0.0, SVG Export Plug-In . SVG Version: 6.00 Build 0)  -->
<svg version="1.1" id="图层_1" xmlns="http://www.w3.org/2000/svg" xmlns:xlink="http://www.w3.org/1999/xlink" x="0px" y="0px"
	 viewBox="0 0 705 292.8" style="enable-background:new 0 0 705 292.8;" xml:space="preserve">
<style type="text/css">
	.st0_mzdmb{fill:none;stroke:#32B0E7;stroke-miterlimit:10;}
	.st1_mzdmb{fill:#1C5DAB;fill-opacity:0.8;stroke:#3075BB;stroke-miterlimit:10;}
	.st2_mzdmb{fill:none;stroke:#2EB2E8;stroke-width:3;stroke-miterlimit:10;}
	.st3_mzdmb{fill:none;stroke:#1969A9;stroke-miterlimit:10;}
	.st4_mzdmb{fill:none;stroke:#2EB2E8;stroke-miterlimit:10;}
	.st5_mzdmb{fill:#2EB2E8;}
</style>
<line id="XMLID_356_" class="st0_mzdmb" x1="5.5" y1="27.5" x2="5.5" y2="134.1"/>
<line id="XMLID_355_" class="st0_mzdmb" x1="701.8" y1="27.5" x2="701.8" y2="134.1"/>
<line id="XMLID_354_" class="st0_mzdmb" x1="5.5" y1="163.5" x2="5.5" y2="270.1"/>
<line id="XMLID_353_" class="st0_mzdmb" x1="701.8" y1="163.5" x2="701.8" y2="270.1"/>
<polygon id="XMLID_349_" class="st1_mzdmb" points="701.5,276 496.7,276 467.5,286.7 238.7,286.7 210,276 5.2,276 5.2,10.4 167.6,10.4 
	196.2,4.2 523.8,4.2 554.2,10.4 701.5,10.4 "/>
<g id="XMLID_342_">
	<g id="XMLID_346_">
		<polyline id="XMLID_348_" class="st2_mzdmb" points="5.5,264 5.5,276 15.9,276 		"/>
		<polyline id="XMLID_347_" class="st2_mzdmb" points="17.5,10.4 5.5,10.4 5.5,20.8 		"/>
	</g>
	<g id="XMLID_343_">
		<polyline id="XMLID_345_" class="st2_mzdmb" points="701.7,264 701.7,276 691.3,276 		"/>
		<polyline id="XMLID_344_" class="st2_mzdmb" points="689.7,10.4 701.7,10.4 701.7,20.8 		"/>
	</g>
</g>
<g id="XMLID_263_">
	<line id="XMLID_267_" class="st3_mzdmb" x1="237.6" y1="20" x2="237.6" y2="126.6"/>
	<g id="XMLID_264_">
		<line id="XMLID_266_" class="st4_mzdmb" x1="237.6" y1="20" x2="237.6" y2="29.5"/>
		<line id="XMLID_265_" class="st4_mzdmb" x1="237.6" y1="117.1" x2="237.6" y2="126.6"/>
	</g>
</g>
<g id="XMLID_258_">
	<line id="XMLID_262_" class="st3_mzdmb" x1="237.6" y1="149.4" x2="237.6" y2="256"/>
	<g id="XMLID_259_">
		<line id="XMLID_261_" class="st4_mzdmb" x1="237.6" y1="149.4" x2="237.6" y2="158.9"/>
		<line id="XMLID_260_" class="st4_mzdmb" x1="237.6" y1="246.5" x2="237.6" y2="256"/>
	</g>
</g>
<g id="XMLID_253_">
	<line id="XMLID_257_" class="st3_mzdmb" x1="470.2" y1="20" x2="470.2" y2="126.6"/>
	<g id="XMLID_254_">
		<line id="XMLID_256_" class="st4_mzdmb" x1="470.2" y1="20" x2="470.2" y2="29.5"/>
		<line id="XMLID_255_" class="st4_mzdmb" x1="470.2" y1="117.1" x2="470.2" y2="126.6"/>
	</g>
</g>
<g id="XMLID_248_">
	<line id="XMLID_252_" class="st3_mzdmb" x1="470.2" y1="149.4" x2="470.2" y2="256"/>
	<g id="XMLID_249_">
		<line id="XMLID_251_" class="st4_mzdmb" x1="470.2" y1="149.4" x2="470.2" y2="158.9"/>
		<line id="XMLID_250_" class="st4_mzdmb" x1="470.2" y1="246.5" x2="470.2" y2="256"/>
	</g>
</g>
<g id="XMLID_244_">
	<line id="XMLID_247_" class="st3_mzdmb" x1="25.6" y1="138.9" x2="681.5" y2="138.9"/>
	<line id="XMLID_246_" class="st4_mzdmb" x1="35.1" y1="138.9" x2="25.6" y2="138.9"/>
	<line id="XMLID_245_" class="st4_mzdmb" x1="681.5" y1="138.9" x2="672" y2="138.9"/>
</g>
<g id="XMLID_122_">
	<g id="XMLID_199_">
		<g id="XMLID_200_">
			<rect id="XMLID_201_" x="31.9" y="283.8" class="st5_mzdmb" width="107.5" height="1"/>
		</g>
	</g>
	<g id="XMLID_197_">
		<circle id="XMLID_198_" class="st5_mzdmb" cx="148.1" cy="284.1" r="2.3"/>
	</g>
	<g id="XMLID_187_">
		<path id="XMLID_188_" class="st5_mzdmb" d="M148.1,289.7L148.1,289.7c-0.7,0-1.4-0.1-2.1-0.4l0.4-0.9c0.5,0.2,1.1,0.3,1.7,0.3
			L148.1,289.7z M150.2,289.2l-0.4-0.9c0.5-0.2,1-0.6,1.5-1l0.7,0.7C151.5,288.6,150.9,289,150.2,289.2z M144.2,288.1
			c-0.5-0.5-0.9-1.1-1.2-1.8l0.9-0.4c0.2,0.5,0.6,1,1,1.5L144.2,288.1z M153.2,286.3l-0.9-0.4c0.2-0.5,0.3-1.1,0.3-1.7l1-0.1v0.1
			C153.6,284.9,153.5,285.6,153.2,286.3z M142.7,284.2l-0.2,0c0-0.7,0.1-1.4,0.4-2.1l0.9,0.4c-0.2,0.5-0.3,1.1-0.3,1.7L142.7,284.2z
			 M152.2,282.4c-0.2-0.5-0.6-1-1-1.5l0.7-0.7c0.5,0.5,0.9,1.1,1.2,1.8L152.2,282.4z M144.8,281l-0.7-0.7c0.5-0.5,1.1-0.9,1.8-1.2
			l0.4,0.9C145.8,280.2,145.3,280.5,144.8,281z M149.8,279.9c-0.5-0.2-1.1-0.3-1.7-0.3l0-0.7l0-0.3c0,0,0,0,0,0
			c0.7,0,1.4,0.1,2.1,0.4L149.8,279.9z"/>
	</g>
	<g id="XMLID_185_">
		<circle id="XMLID_186_" class="st5_mzdmb" cx="162.2" cy="284.1" r="2.3"/>
	</g>
	<g id="XMLID_175_">
		<path id="XMLID_176_" class="st5_mzdmb" d="M162.2,289.7L162.2,289.7c-0.7,0-1.4-0.1-2.1-0.4l0.4-0.9c0.5,0.2,1.1,0.3,1.7,0.3
			L162.2,289.7z M164.3,289.2l-0.4-0.9c0.5-0.2,1-0.6,1.5-1l0.7,0.7C165.6,288.6,165,289,164.3,289.2z M158.3,288.1
			c-0.5-0.5-0.9-1.1-1.2-1.8l0.9-0.4c0.2,0.5,0.6,1,1,1.5L158.3,288.1z M167.3,286.3l-0.9-0.4c0.2-0.5,0.3-1.1,0.3-1.7l0.7,0l0.3,0
			C167.7,284.9,167.5,285.6,167.3,286.3z M156.6,284.2L156.6,284.2c0-0.8,0.1-1.5,0.4-2.1l0.9,0.4c-0.2,0.5-0.3,1.1-0.3,1.7
			L156.6,284.2z M166.3,282.4c-0.2-0.5-0.6-1-1-1.5l0.7-0.7c0.5,0.5,0.9,1.1,1.2,1.8L166.3,282.4z M158.9,281l-0.7-0.7
			c0.5-0.5,1.1-0.9,1.8-1.2l0.4,0.9C159.8,280.2,159.3,280.5,158.9,281z M163.9,279.9c-0.5-0.2-1.1-0.3-1.7-0.3l0-1h0
			c0.7,0,1.4,0.1,2.1,0.4L163.9,279.9z"/>
	</g>
	<g id="XMLID_173_">
		<circle id="XMLID_174_" class="st5_mzdmb" cx="176.2" cy="284.1" r="2.3"/>
	</g>
	<g id="XMLID_163_">
		<path id="XMLID_164_" class="st5_mzdmb" d="M176.3,289.7L176.3,289.7c-0.7,0-1.4-0.1-2.1-0.4l0.4-0.9c0.5,0.2,1.1,0.3,1.7,0.3
			L176.3,289.7z M178.4,289.2l-0.4-0.9c0.5-0.2,1-0.6,1.5-1l0.7,0.7C179.6,288.6,179,289,178.4,289.2z M172.3,288.1
			c-0.5-0.5-0.9-1.1-1.2-1.8l0.9-0.4c0.2,0.5,0.6,1,1,1.5L172.3,288.1z M181.4,286.3l-0.9-0.4c0.2-0.5,0.3-1.1,0.3-1.7l0.7,0l0.3,0
			C181.8,284.9,181.6,285.6,181.4,286.3z M170.7,284.2L170.7,284.2c0-0.8,0.1-1.5,0.4-2.1l0.9,0.4c-0.2,0.5-0.3,1.1-0.3,1.7
			L170.7,284.2z M180.4,282.4c-0.2-0.5-0.6-1-1-1.5l0.7-0.7c0.5,0.5,0.9,1.1,1.2,1.8L180.4,282.4z M173,281l-0.7-0.7
			c0.5-0.5,1.1-0.9,1.8-1.2l0.4,0.9C173.9,280.2,173.4,280.5,173,281z M177.9,279.9c-0.5-0.2-1.1-0.3-1.7-0.3l0-1h0
			c0.7,0,1.4,0.1,2.1,0.4L177.9,279.9z"/>
	</g>
	<g id="XMLID_161_">
		<circle id="XMLID_162_" class="st5_mzdmb" cx="190.3" cy="284.1" r="2.3"/>
	</g>
	<g id="XMLID_151_">
		<path id="XMLID_152_" class="st5_mzdmb" d="M190.3,289.7L190.3,289.7c-0.7,0-1.4-0.1-2.1-0.4l0.4-0.9c0.5,0.2,1.1,0.3,1.7,0.3
			L190.3,289.7z M192.5,289.2l-0.4-0.9c0.5-0.2,1-0.6,1.5-1l0.7,0.7C193.7,288.6,193.1,289,192.5,289.2z M186.4,288.1
			c-0.5-0.5-0.9-1.1-1.2-1.8l0.9-0.4c0.2,0.5,0.6,1,1,1.5L186.4,288.1z M195.4,286.3l-0.9-0.4c0.2-0.5,0.3-1.1,0.3-1.7l1-0.1v0.1
			C195.9,284.9,195.7,285.6,195.4,286.3z M185,284.2l-0.2,0c0-0.7,0.1-1.4,0.4-2.1l0.9,0.4c-0.2,0.5-0.3,1.1-0.3,1.7L185,284.2z
			 M194.5,282.4c-0.2-0.5-0.6-1-1-1.5l0.7-0.7c0.5,0.5,0.9,1.1,1.2,1.8L194.5,282.4z M187.1,281l-0.7-0.7c0.5-0.5,1.1-0.9,1.8-1.2
			l0.4,0.9C188,280.2,187.5,280.5,187.1,281z M192,279.9c-0.5-0.2-1.1-0.3-1.7-0.3l0-0.7l0-0.3c0,0,0,0,0,0c0.7,0,1.4,0.1,2.1,0.4
			L192,279.9z"/>
	</g>
	<g id="XMLID_149_">
		<circle id="XMLID_150_" class="st5_mzdmb" cx="204.4" cy="284.1" r="2.3"/>
	</g>
	<g id="XMLID_139_">
		<path id="XMLID_140_" class="st5_mzdmb" d="M204.4,289.7L204.4,289.7c-0.7,0-1.4-0.1-2.1-0.4l0.4-0.9c0.5,0.2,1.1,0.3,1.7,0.3
			L204.4,289.7z M206.5,289.2l-0.4-0.9c0.5-0.2,1-0.6,1.5-1l0.7,0.7C207.8,288.6,207.2,289,206.5,289.2z M200.5,288.1
			c-0.5-0.5-0.9-1.1-1.2-1.8l0.9-0.4c0.2,0.5,0.6,1,1,1.5L200.5,288.1z M209.5,286.3l-0.9-0.4c0.2-0.5,0.3-1.1,0.3-1.7l0.7,0l0.3,0
			C209.9,284.9,209.8,285.6,209.5,286.3z M198.9,284.2L198.9,284.2c0-0.8,0.1-1.5,0.4-2.1l0.9,0.4c-0.2,0.5-0.3,1.1-0.3,1.7
			L198.9,284.2z M208.6,282.4c-0.2-0.5-0.6-1-1-1.5l0.7-0.7c0.5,0.5,0.9,1.1,1.2,1.8L208.6,282.4z M201.2,281l-0.7-0.7
			c0.5-0.5,1.1-0.9,1.8-1.2l0.4,0.9C202.1,280.2,201.6,280.5,201.2,281z M206.1,279.9c-0.5-0.2-1.1-0.3-1.7-0.3l0-1h0
			c0.7,0,1.4,0.1,2.1,0.4L206.1,279.9z"/>
	</g>
	<g id="XMLID_137_">
		<polygon id="XMLID_138_" class="st5_mzdmb" points="6.6,286.7 4.4,286.7 7,280.5 9.1,280.5 		"/>
	</g>
	<g id="XMLID_135_">
		<polygon id="XMLID_136_" class="st5_mzdmb" points="9.6,286.7 7.5,286.7 10,280.5 12.1,280.5 		"/>
	</g>
	<g id="XMLID_133_">
		<polygon id="XMLID_134_" class="st5_mzdmb" points="12.6,286.7 10.5,286.7 13.1,280.5 15.2,280.5 		"/>
	</g>
	<g id="XMLID_131_">
		<polygon id="XMLID_132_" class="st5_mzdmb" points="15.6,286.7 13.5,286.7 16.1,280.5 18.2,280.5 		"/>
	</g>
	<g id="XMLID_129_">
		<polygon id="XMLID_130_" class="st5_mzdmb" points="18.6,286.7 16.5,286.7 19.1,280.5 21.2,280.5 		"/>
	</g>
	<g id="XMLID_127_">
		<polygon id="XMLID_128_" class="st5_mzdmb" points="21.7,286.7 19.6,286.7 22.1,280.5 24.2,280.5 		"/>
	</g>
	<g id="XMLID_125_">
		<polygon id="XMLID_126_" class="st5_mzdmb" points="24.7,286.7 22.6,286.7 25.1,280.5 27.2,280.5 		"/>
	</g>
	<g id="XMLID_123_">
		<polygon id="XMLID_124_" class="st5_mzdmb" points="27.7,286.7 25.6,286.7 28.2,280.5 30.3,280.5 		"/>
	</g>
</g>
<g id="XMLID_42_">
	<g id="XMLID_119_">
		<g id="XMLID_120_">
			<rect id="XMLID_121_" x="567.9" y="283.8" class="st5_mzdmb" width="107.5" height="1"/>
		</g>
	</g>
	<g id="XMLID_117_">
		<circle id="XMLID_118_" class="st5_mzdmb" cx="559.2" cy="284.2" r="2.3"/>
	</g>
	<g id="XMLID_107_">
		<path id="XMLID_108_" class="st5_mzdmb" d="M559.2,288.7c0.6,0,1.2-0.1,1.7-0.3l0.4,0.9c-0.7,0.3-1.4,0.4-2.1,0.4h0L559.2,288.7z
			 M555.3,288.1l0.7-0.7c0.4,0.4,0.9,0.8,1.5,1l-0.4,0.9C556.4,289,555.8,288.6,555.3,288.1z M562.4,287.4c0.4-0.4,0.8-0.9,1-1.5
			l0.9,0.4c-0.3,0.7-0.7,1.3-1.2,1.8L562.4,287.4z M553.7,284.2L553.7,284.2h1c0,0.6,0.1,1.2,0.3,1.7l-0.9,0.4
			C553.8,285.6,553.7,284.9,553.7,284.2z M563.7,284.2c0-0.6-0.1-1.2-0.3-1.7l0.9-0.4c0.3,0.7,0.4,1.4,0.4,2.1l-0.2,0L563.7,284.2z
			 M554.1,282c0.3-0.7,0.7-1.3,1.2-1.8l0.7,0.7c-0.4,0.4-0.8,0.9-1,1.5L554.1,282z M561,280l0.4-0.9c0.7,0.3,1.3,0.7,1.8,1.2
			l-0.7,0.7C562,280.6,561.5,280.2,561,280z M557.1,279c0.7-0.3,1.4-0.4,2.1-0.4c0,0,0,0,0,0l0,0.3l0,0.7c-0.6,0-1.2,0.1-1.7,0.3
			L557.1,279z"/>
	</g>
	<g id="XMLID_105_">
		<circle id="XMLID_106_" class="st5_mzdmb" cx="545.1" cy="284.2" r="2.3"/>
	</g>
	<g id="XMLID_95_">
		<path id="XMLID_96_" class="st5_mzdmb" d="M545.1,288.7c0.6,0,1.2-0.1,1.7-0.3l0.4,0.9c-0.7,0.3-1.4,0.4-2.1,0.4h0L545.1,288.7z
			 M541.2,288.1l0.7-0.7c0.4,0.4,0.9,0.8,1.5,1l-0.4,0.9C542.3,289,541.7,288.6,541.2,288.1z M548.3,287.4c0.4-0.4,0.8-0.9,1-1.5
			l0.9,0.4c-0.3,0.7-0.7,1.3-1.2,1.8L548.3,287.4z M539.6,284.2l0.3,0l0.7,0c0,0.6,0.1,1.2,0.3,1.7l-0.9,0.4
			C539.7,285.6,539.6,284.9,539.6,284.2z M549.7,284.2c0-0.6-0.1-1.2-0.3-1.7l0.9-0.4c0.3,0.7,0.4,1.4,0.4,2.1v0L549.7,284.2z
			 M540,282c0.3-0.7,0.7-1.3,1.2-1.8l0.7,0.7c-0.4,0.4-0.8,0.9-1,1.5L540,282z M546.9,280l0.4-0.9c0.7,0.3,1.3,0.7,1.8,1.2l-0.7,0.7
			C547.9,280.6,547.4,280.2,546.9,280z M543.1,279c0.7-0.3,1.4-0.4,2.1-0.4h0l0,1c-0.6,0-1.2,0.1-1.7,0.3L543.1,279z"/>
	</g>
	<g id="XMLID_93_">
		<circle id="XMLID_94_" class="st5_mzdmb" cx="531" cy="284.2" r="2.3"/>
	</g>
	<g id="XMLID_83_">
		<path id="XMLID_84_" class="st5_mzdmb" d="M531,288.7c0.6,0,1.2-0.1,1.7-0.3l0.4,0.9c-0.7,0.3-1.4,0.4-2.1,0.4h0L531,288.7z
			 M527.1,288.1l0.7-0.7c0.4,0.4,0.9,0.8,1.5,1l-0.4,0.9C528.2,289,527.6,288.6,527.1,288.1z M534.2,287.4c0.4-0.4,0.8-0.9,1-1.5
			l0.9,0.4c-0.3,0.7-0.7,1.3-1.2,1.8L534.2,287.4z M525.5,284.2l0.3,0l0.7,0c0,0.6,0.1,1.2,0.3,1.7l-0.9,0.4
			C525.6,285.6,525.5,284.9,525.5,284.2z M535.6,284.2c0-0.6-0.1-1.2-0.3-1.7l0.9-0.4c0.3,0.7,0.4,1.4,0.4,2.1v0L535.6,284.2z
			 M525.9,282c0.3-0.7,0.7-1.3,1.2-1.8l0.7,0.7c-0.4,0.4-0.8,0.9-1,1.5L525.9,282z M532.8,280l0.4-0.9c0.7,0.3,1.3,0.7,1.8,1.2
			l-0.7,0.7C533.8,280.6,533.4,280.2,532.8,280z M529,279c0.7-0.3,1.4-0.4,2.1-0.4h0l0,1c-0.6,0-1.2,0.1-1.7,0.3L529,279z"/>
	</g>
	<g id="XMLID_81_">
		<circle id="XMLID_82_" class="st5_mzdmb" cx="517" cy="284.2" r="2.3"/>
	</g>
	<g id="XMLID_71_">
		<path id="XMLID_72_" class="st5_mzdmb" d="M517,288.7c0.6,0,1.2-0.1,1.7-0.3l0.4,0.9c-0.7,0.3-1.4,0.4-2.1,0.4h0L517,288.7z M513,288.1
			l0.7-0.7c0.4,0.4,0.9,0.8,1.5,1l-0.4,0.9C514.2,289,513.6,288.6,513,288.1z M520.1,287.4c0.4-0.4,0.8-0.9,1-1.5l0.9,0.4
			c-0.3,0.7-0.7,1.3-1.2,1.8L520.1,287.4z M511.4,284.2L511.4,284.2h1c0,0.6,0.1,1.2,0.3,1.7l-0.9,0.4
			C511.6,285.6,511.4,284.9,511.4,284.2z M521.5,284.2c0-0.6-0.1-1.2-0.3-1.7l0.9-0.4c0.3,0.7,0.4,1.4,0.4,2.1l-0.2,0L521.5,284.2z
			 M511.9,282c0.3-0.7,0.7-1.3,1.2-1.8l0.7,0.7c-0.4,0.4-0.8,0.9-1,1.5L511.9,282z M518.7,280l0.4-0.9c0.7,0.3,1.3,0.7,1.8,1.2
			l-0.7,0.7C519.8,280.6,519.3,280.2,518.7,280z M514.9,279c0.7-0.3,1.4-0.4,2.1-0.4c0,0,0,0,0,0l0,0.3l0,0.7
			c-0.6,0-1.2,0.1-1.7,0.3L514.9,279z"/>
	</g>
	<g id="XMLID_69_">
		<circle id="XMLID_70_" class="st5_mzdmb" cx="502.9" cy="284.2" r="2.3"/>
	</g>
	<g id="XMLID_59_">
		<path id="XMLID_60_" class="st5_mzdmb" d="M502.9,288.7c0.6,0,1.2-0.1,1.7-0.3l0.4,0.9c-0.7,0.3-1.4,0.4-2.1,0.4h0L502.9,288.7z
			 M499,288.1l0.7-0.7c0.4,0.4,0.9,0.8,1.5,1l-0.4,0.9C500.1,289,499.5,288.6,499,288.1z M506.1,287.4c0.4-0.4,0.8-0.9,1-1.5
			l0.9,0.4c-0.3,0.7-0.7,1.3-1.2,1.8L506.1,287.4z M497.3,284.2l0.3,0l0.7,0c0,0.6,0.1,1.2,0.3,1.7l-0.9,0.4
			C497.5,285.6,497.3,284.9,497.3,284.2z M507.4,284.2c0-0.6-0.1-1.2-0.3-1.7l0.9-0.4c0.3,0.7,0.4,1.4,0.4,2.1v0L507.4,284.2z
			 M497.8,282c0.3-0.7,0.7-1.3,1.2-1.8l0.7,0.7c-0.4,0.4-0.8,0.9-1,1.5L497.8,282z M504.6,280l0.4-0.9c0.7,0.3,1.3,0.7,1.8,1.2
			l-0.7,0.7C505.7,280.6,505.2,280.2,504.6,280z M500.8,279c0.7-0.3,1.4-0.4,2.1-0.4h0l0,1c-0.6,0-1.2,0.1-1.7,0.3L500.8,279z"/>
	</g>
	<g id="XMLID_57_">
		<polygon id="XMLID_58_" class="st5_mzdmb" points="700.7,286.7 702.8,286.7 700.3,280.6 698.2,280.6 		"/>
	</g>
	<g id="XMLID_55_">
		<polygon id="XMLID_56_" class="st5_mzdmb" points="697.7,286.7 699.8,286.7 697.2,280.6 695.1,280.6 		"/>
	</g>
	<g id="XMLID_53_">
		<polygon id="XMLID_54_" class="st5_mzdmb" points="694.7,286.7 696.8,286.7 694.2,280.6 692.1,280.6 		"/>
	</g>
	<g id="XMLID_51_">
		<polygon id="XMLID_52_" class="st5_mzdmb" points="691.7,286.7 693.8,286.7 691.2,280.6 689.1,280.6 		"/>
	</g>
	<g id="XMLID_49_">
		<polygon id="XMLID_50_" class="st5_mzdmb" points="688.6,286.7 690.7,286.7 688.2,280.6 686.1,280.6 		"/>
	</g>
	<g id="XMLID_47_">
		<polygon id="XMLID_48_" class="st5_mzdmb" points="685.6,286.7 687.7,286.7 685.2,280.6 683.1,280.6 		"/>
	</g>
	<g id="XMLID_45_">
		<polygon id="XMLID_46_" class="st5_mzdmb" points="682.6,286.7 684.7,286.7 682.1,280.6 680,280.6 		"/>
	</g>
	<g id="XMLID_43_">
		<polygon id="XMLID_44_" class="st5_mzdmb" points="679.6,286.7 681.7,286.7 679.1,280.6 677,280.6 		"/>
	</g>
</g>
</svg>
