<?xml version="1.0" encoding="utf-8"?>
<!-- Generator: Adobe Illustrator 19.0.0, SVG Export Plug-In . SVG Version: 6.00 Build 0)  -->
<svg version="1.1" id="图层_1" xmlns="http://www.w3.org/2000/svg" xmlns:xlink="http://www.w3.org/1999/xlink" x="0px" y="0px"
	 viewBox="0 0 49.7 35.5" style="enable-background:new 0 0 49.7 35.5;" xml:space="preserve">
<style type="text/css">
	.st0_mzdan{fill:#EB612D;}
	.st1_mzdan{fill:none;stroke:#32B0E7;stroke-miterlimit:10;}
	.st2_mzdan{fill:#32B0E7;}
</style>
<g>
	<g>
		<g>
			<g>
				<polygon class="st0_mzdan" points="16.2,18.4 16.2,14.7 25.5,8.1 34.8,14.7 34.8,18.4 25.5,11.8 				"/>
			</g>
			<g>
				<polygon class="st0_mzdan" points="16.3,25.3 16.3,21.4 25.4,14.9 34.7,21.5 34.7,25.3 25.4,18.6 				"/>
			</g>
		</g>
		<polygon class="st1_mzdan" points="48,34.7 41.1,34.7 35.9,33.1 11.3,33.1 1.6,34.7 1.6,3.2 8.7,3.3 14.3,1.4 40.6,1.4 48,3.2 		"/>
		<polygon class="st2_mzdan" points="40.8,2.4 47,4.1 47,6.3 		"/>
		<polygon class="st2_mzdan" points="3.1,32.3 3.1,33.1 7.5,32.3 		"/>
		<polygon class="st2_mzdan" points="1.5,2.5 1.1,2.5 1.9,1.2 2.3,1.2 		"/>
		<polygon class="st2_mzdan" points="2.2,2.5 1.8,2.5 2.6,1.2 3,1.2 		"/>
		<polygon class="st2_mzdan" points="2.8,2.5 2.5,2.5 3.3,1.2 3.6,1.2 		"/>
		<polygon class="st2_mzdan" points="3.5,2.5 3.1,2.5 3.9,1.2 4.3,1.2 		"/>
		<g>
			<polygon class="st2_mzdan" points="4.2,2.5 3.8,2.5 4.6,1.2 5,1.2 			"/>
			<polygon class="st2_mzdan" points="4.8,2.5 4.5,2.5 5.3,1.2 5.6,1.2 			"/>
			<polygon class="st2_mzdan" points="5.5,2.5 5.1,2.5 5.9,1.2 6.3,1.2 			"/>
			<polygon class="st2_mzdan" points="6.2,2.5 5.8,2.5 6.6,1.2 7,1.2 			"/>
		</g>
		<polygon class="st2_mzdan" points="6.9,2.5 6.6,2.5 7.3,1.2 7.7,1.2 		"/>
		<polygon class="st2_mzdan" points="7.6,2.5 7.2,2.5 8,1.2 8.4,1.2 		"/>
		<polygon class="st2_mzdan" points="8.3,2.5 7.9,2.5 8.7,1.2 9.1,1.2 		"/>
		<polygon class="st2_mzdan" points="8.9,2.5 8.6,2.5 9.4,1.2 9.7,1.2 		"/>
		<rect x="1.1" y="1.6" class="st2_mzdan" width="9.1" height="0.4"/>
		<polygon class="st2_mzdan" points="38.3,32.4 41.5,33.3 46.3,33.3 46.3,32.4 		"/>
	</g>
</g>
</svg>
