<?xml version="1.0" encoding="utf-8"?>
<!-- Generator: Adobe Illustrator 19.0.0, SVG Export Plug-In . SVG Version: 6.00 Build 0)  -->
<svg version="1.1" id="图层_1" xmlns="http://www.w3.org/2000/svg" xmlns:xlink="http://www.w3.org/1999/xlink" x="0px" y="0px"
	 viewBox="0 0 42 50" style="enable-background:new 0 0 42 50;" xml:space="preserve">
<style type="text/css">
	.st0_mzzlrs{fill:#F4E800;}
</style>
<g>
	<rect id="XMLID_402_" x="18" y="42.8" class="st0_mzzlrs" width="6.6" height="0.8"/>
	
		<ellipse id="XMLID_401_" transform="matrix(0.1647 0.9863 -0.9863 0.1647 21.6365 -5.81)" class="st0_mzzlrs" cx="14.2" cy="9.9" rx="3.6" ry="3.8"/>
	<path id="XMLID_400_" class="st0_mzzlrs" d="M22.6,29.9c-0.2,0-1.9,0-3.9-0.1c0.1-0.4,0.2-0.7,0.2-1.1v-2.4h-5.9v-9.4
		c0-0.9,0.7-1.6,1.6-1.6c0.9,0,1.6,0.7,1.6,1.6v6.2h2.8v-4.7c0-2.5-2-4.5-4.5-4.5s-4.5,2-4.5,4.5v10.3c0,0.6,0.1,1.2,0.4,1.8
		c2.4,0.2,4.5,1.2,6,2.8c1.7,0,3.5,0,4.3,0.1c-0.3,2-1.2,7.2-1.2,7.7c0.2,1.6,3,2.2,3.5-0.3c0.1-0.4,1.4-6.6,1.8-8.6h0
		C24.7,31.1,24.2,29.9,22.6,29.9z"/>
	<path class="st0_mzzlrs" d="M9.5,30.7c-4.8,0-8.8,3.9-8.8,8.8c0,4.8,3.9,8.8,8.8,8.8c4.8,0,8.8-3.9,8.8-8.8C18.3,34.6,14.3,30.7,9.5,30.7z
		 M5.5,32.9l3.1,5.4c-0.2,0.1-0.3,0.2-0.4,0.4l-5.4-3.1C3.5,34.5,4.4,33.5,5.5,32.9z M2.8,35.7l5.4,3.1C8,39,8,39.2,8,39.4H1.8
		C1.8,38.1,2.2,36.8,2.8,35.7z M1.8,39.6H8C8,39.8,8,40,8.1,40.1l-5.4,3.1C2.2,42.2,1.8,40.9,1.8,39.6z M2.9,43.4l5.4-3.1
		c0.1,0.2,0.2,0.3,0.4,0.4l-3.1,5.4C4.4,45.4,3.5,44.5,2.9,43.4z M9.4,47.2c-1.3,0-2.6-0.4-3.6-1l3.1-5.4C9,40.9,9.2,41,9.4,41V47.2
		z M9.4,38c-0.2,0-0.4,0.1-0.6,0.1l-3.1-5.4c1.1-0.6,2.3-1,3.6-1V38z M17.2,39.4H11c0-0.2-0.1-0.4-0.1-0.6l5.4-3.1
		C16.8,36.8,17.1,38.1,17.2,39.4z M16.1,35.6l-5.4,3.1c-0.1-0.2-0.2-0.3-0.4-0.4l3.1-5.4C14.5,33.5,15.4,34.5,16.1,35.6z M9.6,31.8
		c1.3,0,2.6,0.4,3.6,1l-3.1,5.4C10,38.1,9.8,38,9.6,38V31.8z M9.6,47.2V41c0.2,0,0.4-0.1,0.6-0.1l3.1,5.4
		C12.1,46.8,10.9,47.1,9.6,47.2z M13.4,46.1l-3.1-5.4c0.2-0.1,0.3-0.2,0.4-0.4l5.4,3.1C15.4,44.5,14.5,45.4,13.4,46.1z M16.2,43.2
		l-5.4-3.1c0.1-0.2,0.1-0.4,0.1-0.6h6.2C17.1,40.9,16.8,42.2,16.2,43.2z"/>
	<polygon id="XMLID_386_" class="st0_mzzlrs" points="12.4,33.6 9.9,33.6 9.9,35.6 11.3,35.6 	"/>
	<path id="XMLID_385_" class="st0_mzzlrs" d="M15.7,35.5c-0.5-0.7-1-1.3-1.7-1.8h-0.7l-1.1,1.9h3.3L15.7,35.5z"/>
	<path id="XMLID_384_" class="st0_mzzlrs" d="M9.1,35.6v-3.5c-0.5,0-0.9,0.1-1.4,0.2v1.3v1.9v0H9.1z"/>
	<path id="XMLID_383_" class="st0_mzzlrs" d="M19.4,33.6h-3c0.5,0.6,0.9,1.2,1.3,1.9h1.8V33.6z"/>
	<path id="XMLID_382_" class="st0_mzzlrs" d="M8.1,23.9H7.7v6.7c0.5-0.1,1.1-0.2,1.7-0.2v-6.5H9.1v-1.7h0l0-0.1l-4.4-0.9l-0.2,0.9l3.7,0.7
		V23.9z"/>
	<path class="st0_mzzlrs" d="M21.3,43.9c-1.2,0-2.2,1-2.2,2.2c0,1.2,1,2.2,2.2,2.2c1.2,0,2.2-1,2.2-2.2C23.5,44.9,22.5,43.9,21.3,43.9z
		 M21.3,47.1c-0.6,0-1-0.5-1-1c0-0.6,0.5-1,1-1c0.6,0,1,0.5,1,1C22.3,46.7,21.9,47.1,21.3,47.1z"/>
	<path class="st0_mzzlrs" d="M39.2,6.6V5.9V5.6h-0.4h-3.6V1.7h-0.8v3.8h-3.5h-0.2h-0.2v1c-1.1,0-2,0.2-2,0.4v6.2l1,0.4v0.4h0.9v0.2h0.2v2.5
		c0,3.5-2.4,9.7-7.9,9.7c-0.9,0-1.7-0.1-2.3-0.3h1.1c0.7,0,1.3-0.6,1.3-1.3c0-0.7-0.6-1.3-1.3-1.3h-5.9v-6.5c0-0.7-0.6-1.3-1.3-1.3
		c-0.7,0-1.3,0.6-1.3,1.3V26h0.3h2.3h3.2c0.8,0.5,2,0.8,3.9,0.8c5.9,0,8.4-6.6,8.4-10.2v-2.5v-0.2h0.9v-0.4l1-0.4V6.9
		c0-0.2-0.9-0.3-2.1-0.4V5.9h3.5v40.9h-4.8v1.5H40v-1.5h-4.8V5.9h3.6v0.6c-1.1,0-2,0.2-2,0.4v6.2l1,0.4v0.4h2.5v-0.4l1-0.4V6.9
		C41.3,6.7,40.4,6.6,39.2,6.6z M32.7,10h-3.9V7c0.2-0.1,0.9-0.2,1.9-0.2c1,0,1.7,0.1,1.9,0.2V10z M41,10v0.4v2.5l-1,0.4v0.3h-1.9
		v-0.3l-1-0.4v-2.5V10V7c0.2-0.1,0.9-0.2,1.9-0.2c1,0,1.7,0.1,1.9,0.2V10z"/>
</g>
</svg>
