<?xml version="1.0" encoding="utf-8"?>
<!-- Generator: Adobe Illustrator 19.0.0, SVG Export Plug-In . SVG Version: 6.00 Build 0)  -->
<svg version="1.1" id="图层_1" xmlns="http://www.w3.org/2000/svg" xmlns:xlink="http://www.w3.org/1999/xlink" x="0px" y="0px"
	 viewBox="0 0 910 231.7" style="enable-background:new 0 0 910 231.7;" xml:space="preserve">
<style type="text/css">
	.st0{fill:none;stroke:#1561C0;stroke-miterlimit:10;}
	.st1{fill:#00BEFF;}
	.st2{fill:none;stroke:#1561C0;stroke-width:5;stroke-miterlimit:10;}
	.st3{fill:#1561C0;fill-opacity:0.4;stroke:#1561C0;stroke-miterlimit:10;}
	.st4{fill:none;stroke:#00BEFF;stroke-width:3;stroke-miterlimit:10;}
</style>
<g id="XMLID_1_">
	<g id="XMLID_88_">
		<polygon id="XMLID_461_" class="st0" points="893.1,214.8 15.7,216.2 5,206.7 5,11.1 11.3,4.7 210.7,4.7 241,39.2 897.5,39.2 
			905,46.1 905,205.3 		"/>
		<polygon id="XMLID_460_" class="st1" points="4.5,177.4 11.4,183.9 11.4,206 19.9,214.1 27.2,214.1 30,216.7 15.5,216.7 4.5,207 
					"/>
		<polygon id="XMLID_459_" class="st1" points="97.1,223.6 37.2,223.6 28.9,215.7 104.2,215.6 		"/>
		<g id="XMLID_456_">
			<polygon id="XMLID_458_" class="st1" points="905.5,175.6 899.7,181.8 899.7,203.8 891.2,211.9 882.5,212 879,215.4 893.3,215.4 
				905.5,205.6 			"/>
			<polygon id="XMLID_457_" class="st1" points="812,222.2 871.9,222.2 880.1,214.3 805,214.3 			"/>
		</g>
		<polygon id="XMLID_455_" class="st1" points="4.5,44.5 11.3,38.2 11.3,17.4 16.6,11.6 26.2,11.6 28.1,8.9 57,8.9 61.6,4.2 
			11.3,4.2 4.5,11.1 		"/>
		<polygon id="XMLID_454_" class="st1" points="905.5,79.5 898,73.2 898,52.4 892.7,46.6 883.1,46.6 881.2,43.9 852.3,43.9 
			847.7,38.7 897.7,38.7 905.5,45.8 		"/>
		<polyline id="XMLID_453_" class="st2" points="179.1,4.7 210.7,4.7 241,38.9 287.1,38.9 		"/>
		<g id="XMLID_443_">
			<g id="XMLID_450_">
				<circle id="XMLID_452_" class="st0" cx="718.9" cy="9.8" r="3.2"/>
				<polyline id="XMLID_451_" class="st0" points="846.5,39.2 822.1,9.8 722,9.8 				"/>
			</g>
			<g id="XMLID_447_">
				<circle id="XMLID_449_" class="st0" cx="749.3" cy="19.2" r="2.1"/>
				<polyline id="XMLID_448_" class="st0" points="835.9,39.2 819.3,19.2 751.4,19.2 				"/>
			</g>
			<g id="XMLID_444_">
				<polyline id="XMLID_446_" class="st0" points="823.2,38.7 814.2,27.8 777.2,27.8 				"/>
				<circle id="XMLID_445_" class="st0" cx="776.1" cy="27.8" r="1.2"/>
			</g>
		</g>
		<g id="XMLID_435_">
			<circle id="XMLID_439_" class="st0" cx="252.1" cy="224.3" r="3.2"/>
			<polyline id="XMLID_436_" class="st0" points="141.1,216 149,224.3 249.1,224.3 			"/>
		</g>
		<g id="XMLID_432_">
			<circle id="XMLID_434_" class="st0" cx="678.8" cy="225.1" r="2.1"/>
			<polyline id="XMLID_433_" class="st0" points="759.4,215.1 748.8,225.1 680.9,225.1 			"/>
		</g>
		<g id="XMLID_423_">
			<polyline id="XMLID_428_" class="st0" points="746.7,215.2 742.7,218.6 705.7,218.6 			"/>
			<circle id="XMLID_424_" class="st0" cx="704.5" cy="218.6" r="1.2"/>
		</g>
		<polygon id="XMLID_421_" class="st3" points="14.6,20.5 18.5,15.2 28.2,15.2 30.6,11.9 58.1,11.9 61.7,8.4 173.2,8 179.3,11.6 
			206.5,11.4 221.5,27.8 222,41.9 15.1,41.9 		"/>
	</g>
	<g id="XMLID_74_">
		<rect id="XMLID_206_" x="47.2" y="56.4" class="st0" width="389.9" height="145.8"/>
		<g id="XMLID_78_">
			<polyline id="XMLID_80_" class="st4" points="63.9,56.4 47.2,56.4 47.2,71.4 			"/>
			<polyline id="XMLID_79_" class="st4" points="63.9,202.2 47.2,202.2 47.2,187.2 			"/>
		</g>
		<g id="XMLID_75_">
			<polyline id="XMLID_77_" class="st4" points="420.3,56.4 437.1,56.4 437.1,71.4 			"/>
			<polyline id="XMLID_76_" class="st4" points="420.3,202.2 437.1,202.2 437.1,187.2 			"/>
		</g>
	</g>
	<g id="XMLID_66_">
		<rect id="XMLID_467_" x="467.2" y="56.4" class="st0" width="389.9" height="145.8"/>
		<g id="XMLID_70_">
			<polyline id="XMLID_72_" class="st4" points="483.9,56.4 467.2,56.4 467.2,71.4 			"/>
			<polyline id="XMLID_71_" class="st4" points="483.9,202.2 467.2,202.2 467.2,187.2 			"/>
		</g>
		<g id="XMLID_67_">
			<polyline id="XMLID_69_" class="st4" points="840.3,56.4 857.1,56.4 857.1,71.4 			"/>
			<polyline id="XMLID_68_" class="st4" points="840.3,202.2 857.1,202.2 857.1,187.2 			"/>
		</g>
	</g>
</g>
</svg>
