<?xml version="1.0" encoding="utf-8"?>
<!-- Generator: Adobe Illustrator 19.0.0, SVG Export Plug-In . SVG Version: 6.00 Build 0)  -->
<svg version="1.1" id="图层_1" xmlns="http://www.w3.org/2000/svg" xmlns:xlink="http://www.w3.org/1999/xlink" x="0px" y="0px"
	 viewBox="0 0 910 265" style="enable-background:new 0 0 910 265;" xml:space="preserve">
<style type="text/css">
	.st0_rt{fill:none;stroke:#1561C0;stroke-miterlimit:10;}
	.st1_rt{fill:#00BEFF;}
	.st2_rt{fill:none;stroke:#1561C0;stroke-width:5;stroke-miterlimit:10;}
	.st3_rt{fill:#1561C0;fill-opacity:0.4;stroke:#1561C0;stroke-miterlimit:10;}
	.st4_rt{fill:#20E5E5;}
</style>
<g id="XMLID_1_">
	<polygon id="XMLID_18223_" class="st0_rt" points="893.1,248.9 15.7,250.3 5,240.8 5,10.3 11.3,3.9 210.7,3.9 241,38.4 897.5,38.4 
		905,45.3 905,239.4 	"/>
	<polygon id="XMLID_601_" class="st1_rt" points="4.5,211.5 11.4,218 11.4,240.1 19.9,248.2 27.2,248.2 30,250.8 15.5,250.8 4.5,241.1 
			"/>
	<polygon id="XMLID_600_" class="st1_rt" points="97.1,257.7 37.2,257.7 28.9,249.8 104.2,249.7 	"/>
	<g id="XMLID_599_">
		<polygon id="XMLID_18220_" class="st1_rt" points="905.5,209.7 899.7,215.9 899.7,237.9 891.2,246 882.5,246.1 879,249.5 
			893.3,249.5 905.5,239.7 		"/>
		<polygon id="XMLID_18219_" class="st1_rt" points="812,256.3 871.9,256.3 880.1,248.4 805,248.4 		"/>
	</g>
	<polygon id="XMLID_598_" class="st1_rt" points="4.5,43.7 11.3,37.4 11.3,16.6 16.6,10.8 26.2,10.8 28.1,8.1 57,8.1 61.6,3.4 
		11.3,3.4 4.5,10.3 	"/>
	<polygon id="XMLID_18216_" class="st1_rt" points="905.5,78.7 898,72.4 898,51.6 892.7,45.8 883.1,45.8 881.2,43.1 852.3,43.1 
		847.7,37.9 897.7,37.9 905.5,45 	"/>
	<polyline id="XMLID_597_" class="st2_rt" points="179.1,3.9 210.7,3.9 241,38.1 287.1,38.1 	"/>
	<g id="XMLID_581_">
		<g id="XMLID_594_">
			<circle id="XMLID_596_" class="st0_rt" cx="718.9" cy="9" r="3.2"/>
			<polyline id="XMLID_595_" class="st0_rt" points="846.5,38.4 822.1,9 722,9 			"/>
		</g>
		<g id="XMLID_591_">
			<circle id="XMLID_593_" class="st0_rt" cx="749.3" cy="18.4" r="2.1"/>
			<polyline id="XMLID_592_" class="st0_rt" points="835.9,38.4 819.3,18.4 751.4,18.4 			"/>
		</g>
		<g id="XMLID_588_">
			<polyline id="XMLID_590_" class="st0_rt" points="823.2,37.9 814.2,27 777.2,27 			"/>
			<circle id="XMLID_589_" class="st0_rt" cx="776.1" cy="27" r="1.2"/>
		</g>
	</g>
	<g id="XMLID_580_">
		<circle id="XMLID_18204_" class="st0_rt" cx="252.1" cy="258.4" r="3.2"/>
		<polyline id="XMLID_18203_" class="st0_rt" points="141.1,250.1 149,258.4 249.1,258.4 		"/>
	</g>
	<g id="XMLID_579_">
		<circle id="XMLID_18201_" class="st0_rt" cx="678.8" cy="259.2" r="2.1"/>
		<polyline id="XMLID_18200_" class="st0_rt" points="759.4,249.2 748.8,259.2 680.9,259.2 		"/>
	</g>
	<g id="XMLID_578_">
		<polyline id="XMLID_18198_" class="st0_rt" points="746.7,249.3 742.7,252.7 705.7,252.7 		"/>
		<circle id="XMLID_18197_" class="st0_rt" cx="704.5" cy="252.7" r="1.2"/>
	</g>
	<polygon id="XMLID_571_" class="st3_rt" points="14.6,19.7 18.5,14.4 28.2,14.4 30.6,11.1 58.1,11.1 61.7,7.6 173.2,7.2 179.3,10.8 
		206.5,10.6 221.5,27 222,41.1 15.1,41.1 	"/>
	<rect id="XMLID_48_" x="232.9" y="57.8" class="st0_rt" width="146.4" height="172.3"/>
	<g id="XMLID_41_">
		<polygon id="XMLID_45_" class="st1_rt" points="230.6,55.7 243.1,55.7 246.2,53.2 227.9,53.2 227.9,69.5 230.6,67 		"/>
		<polygon id="XMLID_42_" class="st1_rt" points="381.3,55.7 368.8,55.7 365.7,53.2 384,53.2 384,69.5 381.3,67 		"/>
	</g>
	<g id="XMLID_38_">
		<polygon id="XMLID_40_" class="st1_rt" points="230.8,231.7 243.3,231.7 246.4,234.2 228.1,234.2 228.1,217.8 230.8,220.4 		"/>
		<polygon id="XMLID_39_" class="st1_rt" points="381.5,231.7 369,231.7 365.8,234.2 384.1,234.2 384.1,217.8 381.5,220.4 		"/>
	</g>
	<rect id="XMLID_128_" x="399.1" y="57.8" class="st0_rt" width="146.4" height="172.3"/>
	<g id="XMLID_54_">
		<polygon id="XMLID_126_" class="st1_rt" points="396.8,55.7 409.3,55.7 412.4,53.2 394.1,53.2 394.1,69.5 396.8,67 		"/>
		<polygon id="XMLID_55_" class="st1_rt" points="547.5,55.7 535,55.7 531.9,53.2 550.2,53.2 550.2,69.5 547.5,67 		"/>
	</g>
	<g id="XMLID_51_">
		<polygon id="XMLID_53_" class="st1_rt" points="397,231.7 409.5,231.7 412.6,234.2 394.3,234.2 394.3,217.8 397,220.4 		"/>
		<polygon id="XMLID_52_" class="st1_rt" points="547.7,231.7 535.1,231.7 532,234.2 550.3,234.2 550.3,217.8 547.7,220.4 		"/>
	</g>
	<rect id="XMLID_145_" x="565.3" y="57.8" class="st0_rt" width="146.4" height="172.3"/>
	<g id="XMLID_141_">
		<polygon id="XMLID_144_" class="st1_rt" points="563,55.7 575.5,55.7 578.6,53.2 560.3,53.2 560.3,69.5 563,67 		"/>
		<polygon id="XMLID_143_" class="st1_rt" points="713.7,55.7 701.2,55.7 698.1,53.2 716.4,53.2 716.4,69.5 713.7,67 		"/>
	</g>
	<g id="XMLID_137_">
		<polygon id="XMLID_139_" class="st1_rt" points="563.2,231.7 575.7,231.7 578.8,234.2 560.5,234.2 560.5,217.8 563.2,220.4 		"/>
		<polygon id="XMLID_138_" class="st1_rt" points="713.9,231.7 701.3,231.7 698.2,234.2 716.5,234.2 716.5,217.8 713.9,220.4 		"/>
	</g>
	<rect id="XMLID_154_" x="731.5" y="57.8" class="st0_rt" width="146.4" height="172.3"/>
	<g id="XMLID_151_">
		<polygon id="XMLID_153_" class="st1_rt" points="729.2,55.7 741.7,55.7 744.8,53.2 726.5,53.2 726.5,69.5 729.2,67 		"/>
		<polygon id="XMLID_152_" class="st1_rt" points="879.9,55.7 867.4,55.7 864.3,53.2 882.6,53.2 882.6,69.5 879.9,67 		"/>
	</g>
	<g id="XMLID_147_">
		<polygon id="XMLID_150_" class="st1_rt" points="729.4,231.7 741.9,231.7 745,234.2 726.7,234.2 726.7,217.8 729.4,220.4 		"/>
		<polygon id="XMLID_149_" class="st1_rt" points="880.1,231.7 867.5,231.7 864.4,234.2 882.7,234.2 882.7,217.8 880.1,220.4 		"/>
	</g>
	<circle id="XMLID_67_" class="st4_rt" cx="804.7" cy="121.6" r="0.4"/>
	<circle id="XMLID_66_" class="st4_rt" cx="804.7" cy="121.6" r="0.4"/>
</g>
</svg>
