<?xml version="1.0" encoding="utf-8"?>
<!-- Generator: Adobe Illustrator 19.0.0, SVG Export Plug-In . SVG Version: 6.00 Build 0)  -->
<svg version="1.1" id="图层_1" xmlns="http://www.w3.org/2000/svg" xmlns:xlink="http://www.w3.org/1999/xlink" x="0px" y="0px"
	 viewBox="0 0 952 930" style="enable-background:new 0 0 952 930;" xml:space="preserve">
<style type="text/css">
	.st0{fill:#1561C0;fill-opacity:0.4;stroke:#1561C0;stroke-miterlimit:10;}
	.st1{fill:none;stroke:#00BEFF;stroke-width:3;stroke-miterlimit:10;}
	.st2{fill:none;stroke:#1561C0;stroke-miterlimit:10;}
	.st3{fill:none;stroke:#009FE8;stroke-miterlimit:10;}
	.st4{fill:#00BEFF;}
</style>
<g id="底框_2_">
	<polygon id="XMLID_398_" class="st0" points="296.3,56.4 28.6,56.4 28.6,41.2 54.9,17 274.2,17 	"/>
	<g id="XMLID_389_">
		<polyline id="XMLID_396_" class="st1" points="62.5,928 42.9,928 9,895.8 9,880.3 		"/>
		<polyline id="XMLID_395_" class="st1" points="950.8,871.9 950.8,894.9 916.8,925 896.8,925 		"/>
		<polygon id="XMLID_394_" class="st2" points="19.1,37.9 48.1,10.8 280.1,10.8 306.9,56.3 907.1,56.3 940.4,80.8 940.4,890.7 
			912.5,916 46.8,916 19.1,890.7 		"/>
		<polyline id="XMLID_393_" class="st3" points="1.2,877.6 1.2,899.5 25.9,923.2 		"/>
		<polyline id="XMLID_392_" class="st3" points="948.8,64.4 916.7,39.6 882.6,40.3 		"/>
		<polyline id="XMLID_391_" class="st1" points="9,59.4 9.6,31.4 40.6,2 286.1,2 293.9,14.3 		"/>
		<polyline id="XMLID_390_" class="st1" points="441.1,47.4 912.2,47.4 943.5,71.4 		"/>
	</g>
	<g id="XMLID_377_">
		<polygon id="XMLID_388_" class="st4" points="320.7,52 314,52 303.2,34.4 309.9,34.4 		"/>
		<polygon id="XMLID_387_" class="st4" points="331.8,52 325.1,52 314.3,34.4 321,34.4 		"/>
		<polygon id="XMLID_386_" class="st4" points="342.9,52 336.2,52 325.4,34.4 332.1,34.4 		"/>
		<polygon id="XMLID_385_" class="st4" points="354,52 347.3,52 336.5,34.4 343.2,34.4 		"/>
		<polygon id="XMLID_384_" class="st4" points="365.1,52 358.4,52 347.6,34.4 354.3,34.4 		"/>
		<polygon id="XMLID_383_" class="st4" points="376.2,52 369.5,52 358.7,34.4 365.4,34.4 		"/>
		<polygon id="XMLID_382_" class="st4" points="387.3,52 380.6,52 369.8,34.4 376.5,34.4 		"/>
		<polygon id="XMLID_381_" class="st4" points="398.4,52 391.7,52 380.9,34.4 387.6,34.4 		"/>
		<polygon id="XMLID_380_" class="st4" points="409.5,52 402.8,52 392,34.4 398.7,34.4 		"/>
		<polygon id="XMLID_379_" class="st4" points="420.6,52 413.9,52 403.1,34.4 409.8,34.4 		"/>
		<polygon id="XMLID_378_" class="st4" points="431.7,52 425,52 414.2,34.4 420.9,34.4 		"/>
	</g>
</g>
</svg>
