<?xml version="1.0" encoding="utf-8"?>
<!-- Generator: Adobe Illustrator 19.0.0, SVG Export Plug-In . SVG Version: 6.00 Build 0)  -->
<svg version="1.1" id="图层_1" xmlns="http://www.w3.org/2000/svg" xmlns:xlink="http://www.w3.org/1999/xlink" x="0px" y="0px"
	 viewBox="0 0 892 392" style="enable-background:new 0 0 892 392;" xml:space="preserve">
<style type="text/css">
	.st0{fill:none;stroke:#1561C0;stroke-miterlimit:10;}
	.st1{fill:none;stroke:#009FE8;stroke-width:3;stroke-miterlimit:10;}
	.st2{fill:none;stroke:#00BEFF;stroke-width:2.7467;stroke-miterlimit:10;}
	.st3{display:none;}
	.st4{display:inline;opacity:0.7;fill:#1561C0;}
	.st5{display:inline;}
	.st6{fill:#25E8E8;}
	.st7{fill:#FFAA00;}
	.st8{font-family:'MicrosoftYaHei-Bold';}
	.st9{font-size:24px;}
	.st10{fill:#F7F7F7;}
	.st11{font-family:'MicrosoftYaHei';}
	.st12{font-size:18px;}
	.st13{font-size:14px;}
	.st14{fill-rule:evenodd;clip-rule:evenodd;fill:#FFAA00;}
	.st15{display:inline;fill:none;stroke:#1561C0;stroke-miterlimit:10;}
	.st16{fill:url(#XMLID_389_);}
	.st17{fill:none;stroke:#05A8F7;stroke-miterlimit:10;}
	.st18{opacity:0.3;fill:none;stroke:#05A8F7;stroke-miterlimit:10;}
	.st19{fill:#00D8D2;}
	.st20{fill:#00FF81;}
	.st21{fill:#FFFFFF;}
	.st22{font-family:'MicrosoftYaHeiLight';}
	.st23{font-size:12px;}
	.st24{fill:#00BEFF;fill-opacity:0.3;stroke:#00BEFF;stroke-miterlimit:10;}
	.st25{fill:#00BEFF;stroke:#00BEFF;stroke-miterlimit:10;}
	.st26{fill:none;stroke:#00BEFF;stroke-width:2;stroke-miterlimit:10;}
	.st27{fill:none;stroke:#00FF81;stroke-miterlimit:10;}
	.st28{fill:url(#XMLID_391_);}
	.st29{fill:url(#XMLID_408_);}
</style>
<g id="上部分">
	<g id="总诊疗人数">
		<g id="XMLID_1323_">
			<rect id="XMLID_1331_" x="2.4" y="1.8" class="st0" width="887.2" height="388.3"/>
			<g id="XMLID_1324_">
				<g id="XMLID_1328_">
					<polyline id="XMLID_1330_" class="st1" points="2.4,15.5 2.4,1.8 18.7,1.8 					"/>
					<polyline id="XMLID_1329_" class="st1" points="2.4,376.5 2.4,390.2 18.7,390.2 					"/>
				</g>
				<g id="XMLID_1325_">
					<polyline id="XMLID_1327_" class="st1" points="889.6,15.5 889.6,1.8 873.3,1.8 					"/>
					<polyline id="XMLID_1326_" class="st1" points="889.6,376.5 889.6,390.2 873.3,390.2 					"/>
				</g>
			</g>
		</g>
		<g id="XMLID_390_">
			<line id="XMLID_689_" class="st0" x1="865" y1="140.5" x2="25" y2="140.5"/>
			<line id="XMLID_688_" class="st2" x1="866.3" y1="139.7" x2="842.9" y2="139.7"/>
			<line id="XMLID_393_" class="st2" x1="47" y1="139.7" x2="25.7" y2="139.7"/>
		</g>
		<line id="XMLID_1130_" class="st0" x1="224.3" y1="20.8" x2="224.3" y2="120.7"/>
		<line id="XMLID_1129_" class="st0" x1="443.2" y1="20.8" x2="443.2" y2="120.7"/>
		<line id="XMLID_1128_" class="st0" x1="671.9" y1="20.8" x2="671.9" y2="120.7"/>
	</g>
	<g id="门诊人数" class="st3">
		<rect id="XMLID_1127_" x="236.9" y="10.9" class="st4" width="193.7" height="115.8"/>
		<g id="XMLID_1118_" class="st5">
			<rect id="XMLID_1126_" x="2.4" y="1.8" class="st0" width="887.2" height="388.3"/>
			<g id="XMLID_1119_">
				<g id="XMLID_1123_">
					<polyline id="XMLID_1125_" class="st1" points="2.4,15.5 2.4,1.8 18.7,1.8 					"/>
					<polyline id="XMLID_1124_" class="st1" points="2.4,376.5 2.4,390.2 18.7,390.2 					"/>
				</g>
				<g id="XMLID_1120_">
					<polyline id="XMLID_1122_" class="st1" points="889.6,15.5 889.6,1.8 873.3,1.8 					"/>
					<polyline id="XMLID_1121_" class="st1" points="889.6,376.5 889.6,390.2 873.3,390.2 					"/>
				</g>
			</g>
		</g>
		<g id="XMLID_1080_" class="st5">
			<g id="XMLID_1088_">
				<rect id="XMLID_1117_" x="27.8" y="65.3" class="st6" width="6.6" height="0.8"/>
				
					<ellipse id="XMLID_1116_" transform="matrix(0.1647 0.9863 -0.9863 0.1647 51.9807 3.3021)" class="st6" cx="24" cy="32.3" rx="3.6" ry="3.8"/>
				<path id="XMLID_1115_" class="st6" d="M32.4,52.4c-0.2,0-1.9,0-3.9-0.1c0.1-0.4,0.2-0.7,0.2-1.1v-2.4h-5.9v-9.4
					c0-0.9,0.7-1.6,1.6-1.6c0.9,0,1.6,0.7,1.6,1.6v6.2h2.8v-4.7c0-2.5-2-4.5-4.5-4.5s-4.5,2-4.5,4.5v10.3c0,0.6,0.1,1.2,0.4,1.8
					c2.4,0.2,4.5,1.2,6,2.8c1.7,0,3.5,0,4.3,0.1c-0.3,2-1.2,7.2-1.2,7.7c0.2,1.6,3,2.2,3.5-0.3c0.1-0.4,1.4-6.6,1.8-8.6h0
					C34.5,53.6,34,52.4,32.4,52.4z"/>
				<path id="XMLID_1101_" class="st6" d="M19.3,53.2c-4.8,0-8.8,3.9-8.8,8.8c0,4.8,3.9,8.8,8.8,8.8c4.8,0,8.8-3.9,8.8-8.8
					C28.1,57.1,24.1,53.2,19.3,53.2z M15.3,55.4l3.1,5.4c-0.2,0.1-0.3,0.2-0.4,0.4L12.7,58C13.3,56.9,14.2,56,15.3,55.4z M12.6,58.2
					l5.4,3.1c-0.1,0.2-0.1,0.4-0.1,0.6h-6.2C11.6,60.5,12,59.3,12.6,58.2z M11.6,62h6.2c0,0.2,0.1,0.4,0.1,0.6l-5.4,3.1
					C12,64.6,11.6,63.4,11.6,62z M12.7,65.9l5.4-3.1c0.1,0.2,0.2,0.3,0.4,0.4l-3.1,5.4C14.2,67.9,13.3,67,12.7,65.9z M19.2,69.6
					c-1.3,0-2.6-0.4-3.6-1l3.1-5.4c0.2,0.1,0.4,0.1,0.6,0.1V69.6z M19.2,60.5c-0.2,0-0.4,0.1-0.6,0.1l-3.1-5.4c1.1-0.6,2.3-1,3.6-1
					V60.5z M26.9,61.9h-6.2c0-0.2-0.1-0.4-0.1-0.6l5.4-3.1C26.6,59.3,26.9,60.5,26.9,61.9z M25.9,58l-5.4,3.1
					c-0.1-0.2-0.2-0.3-0.4-0.4l3.1-5.4C24.3,56,25.2,56.9,25.9,58z M19.4,54.3c1.3,0,2.6,0.4,3.6,1l-3.1,5.4
					c-0.2-0.1-0.4-0.1-0.6-0.1V54.3z M19.4,69.6v-6.2c0.2,0,0.4-0.1,0.6-0.1l3.1,5.4C21.9,69.3,20.7,69.6,19.4,69.6z M23.2,68.6
					l-3.1-5.4c0.2-0.1,0.3-0.2,0.4-0.4l5.4,3.1C25.2,67,24.3,67.9,23.2,68.6z M26,65.7l-5.4-3.1c0.1-0.2,0.1-0.4,0.1-0.6h6.2
					C26.9,63.4,26.6,64.6,26,65.7z"/>
				<polygon id="XMLID_1100_" class="st6" points="22.2,56.1 19.6,56.1 19.6,58 21.1,58 				"/>
				<path id="XMLID_1099_" class="st6" d="M25.5,57.9c-0.5-0.7-1-1.3-1.7-1.8h-0.7L22,58h3.3L25.5,57.9z"/>
				<path id="XMLID_1098_" class="st6" d="M18.9,58.1v-3.5c-0.5,0-0.9,0.1-1.4,0.2v1.3V58v0H18.9z"/>
				<path id="XMLID_1097_" class="st6" d="M29.2,56.1h-3c0.5,0.6,0.9,1.2,1.3,1.9h1.8V56.1z"/>
				<path id="XMLID_1096_" class="st6" d="M17.9,46.4h-0.4v6.7c0.5-0.1,1.1-0.2,1.7-0.2v-6.5h-0.3v-1.7h0l0-0.1l-4.4-0.9l-0.2,0.9
					l3.7,0.7V46.4z"/>
				<path id="XMLID_1093_" class="st6" d="M31.1,66.4c-1.2,0-2.2,1-2.2,2.2c0,1.2,1,2.2,2.2,2.2c1.2,0,2.2-1,2.2-2.2
					C33.3,67.4,32.3,66.4,31.1,66.4z M31.1,69.6c-0.6,0-1-0.5-1-1s0.5-1,1-1c0.6,0,1,0.5,1,1S31.6,69.6,31.1,69.6z"/>
				<path id="XMLID_1089_" class="st6" d="M49,29v-0.6V28h-0.4h-3.6v-3.8h-0.8V28h-3.5h-0.2h-0.2v1c-1.1,0-2,0.2-2,0.4v6.2l1,0.4
					v0.4h0.9v0.2h0.2v2.5c0,3.5-2.4,9.7-7.9,9.7c-0.9,0-1.7-0.1-2.3-0.3h1.1c0.7,0,1.3-0.6,1.3-1.3c0-0.7-0.6-1.3-1.3-1.3h-5.9v-6.5
					c0-0.7-0.6-1.3-1.3-1.3c-0.7,0-1.3,0.6-1.3,1.3v9.1h0.3h2.3h3.2c0.8,0.5,2,0.8,3.9,0.8c5.9,0,8.4-6.6,8.4-10.2v-2.5v-0.2h0.9V36
					l1-0.4v-6.2c0-0.2-0.9-0.3-2.1-0.4v-0.6h3.5v40.9h-4.8v1.5h10.3v-1.5h-4.8V28.4h3.6V29c-1.1,0-2,0.2-2,0.4v6.2l1,0.4v0.4h2.5V36
					l1-0.4v-6.2C51.1,29.2,50.2,29,49,29z M42.5,32.4h-3.9v-2.9c0.2-0.1,0.9-0.2,1.9-0.2c1,0,1.7,0.1,1.9,0.2V32.4z M50.8,32.4v0.4
					v2.5l-1,0.4v0.3h-1.9v-0.3l-1-0.4v-2.5v-0.4v-2.9c0.2-0.1,0.9-0.2,1.9-0.2c1,0,1.7,0.1,1.9,0.2V32.4z"/>
			</g>
			<text id="XMLID_1087_" transform="matrix(1 0 0 1 57.3302 71.9288)" class="st7 st8 st9">30 864 976</text>
			<text id="XMLID_1086_" transform="matrix(1 0 0 1 57.6635 35.4097)" class="st10 st11 st12">总诊疗人数（人）</text>
			<text id="XMLID_1085_" transform="matrix(1 0 0 1 37.1917 112.2448)" class="st10 st11 st13">与上年相比</text>
			<text id="XMLID_1084_" transform="matrix(1 0 0 1 131.3008 112.2449)" class="st10 st11 st13">1.54‰</text>
			<polygon id="XMLID_1081_" class="st14" points="128.9,116.2 119,117.6 121.3,115.3 120.3,114.8 118.3,113.4 116.7,111.9 
				115.2,110 114.2,108.1 113.6,105.8 113.5,103.6 113.7,101.4 114,100.3 114.5,99.1 122.4,102.3 122,103 121.6,103.5 121.2,104.8 
				121,106 121,107.3 121.2,108.7 121.7,109.9 122.4,111.1 123.4,112.1 124.8,108.3 			"/>
		</g>
		<g id="XMLID_1050_" class="st5">
			<text id="XMLID_1079_" transform="matrix(1 0 0 1 356.611 112.2451)" class="st10 st11 st13">2.95‰</text>
			<text id="XMLID_1078_" transform="matrix(1 0 0 1 260.8915 112.2847)" class="st10 st11 st13">与上年相比</text>
			<text id="XMLID_1077_" transform="matrix(1 0 0 1 287.8127 71.929)" class="st7 st8 st9">23 837 414</text>
			<text id="XMLID_1076_" transform="matrix(1 0 0 1 288.3127 35.4094)" class="st10 st11 st12">门诊人数（人）</text>
			<polygon id="XMLID_1073_" class="st14" points="350.7,116.2 340.8,117.6 343.1,115.3 342.1,114.8 340.1,113.4 338.4,111.9 
				337,110 336,108.1 335.4,105.8 335.3,103.6 335.5,101.4 335.8,100.3 336.3,99.1 344.2,102.3 343.8,103 343.4,103.5 343,104.8 
				342.8,106 342.8,107.3 343,108.7 343.5,109.9 344.2,111.1 345.2,112.1 346.6,108.3 			"/>
			<g id="XMLID_1051_">
				<path id="XMLID_1072_" class="st6" d="M253.6,42.7c0.3,0.7,1.1,1.6,2.2,1.9c0.6-0.9,0.6-2.1,0.3-2.9l-0.6-1.5l-0.2,0.1
					c0,0,0,0,0,0c-0.3-0.7-0.9-1.1-1.5-0.8l-0.2,0.1c-0.5,0.2-0.7,1-0.5,1.7c0,0,0,0,0,0l-0.1,0L253.6,42.7z"/>
				<path id="XMLID_1071_" class="st6" d="M252,79.1c0,1.3,1.1,2.4,2.4,2.4c1.3,0,2.4-1.1,2.4-2.4V64.8c-0.9,0-3.1-0.1-4.7-0.5V79.1
					z"/>
				<path id="XMLID_1070_" class="st6" d="M261.9,26.5L261.9,26.5c0-1.2-2-2.1-4.5-2.1c-2.4,0-4.4,0.9-4.5,2.1h0v2h8.9V26.5z"/>
				<path id="XMLID_1062_" class="st6" d="M260.1,61c0-0.6,0.5-1.1,1.1-1.1h2.3c0.1-0.5,0.3-0.9,0.6-1.2l-0.6-15.1
					c1.8,3.6,2.3,7.7,1.5,11.8c0,0.1-0.1,0.6-0.1,0.7c0,1,0.6,1.9,1.5,2.2c0.9,0.3,1.9-0.2,2.4-1.2c0.1-0.1,0.2-0.5,0.2-0.7
					c1.3-6.5-0.2-13.2-4.2-18.4c0,0-1-1.4-2.9-2c0.1,0.1,0.2,0.2,0.2,0.4c1,1.9-0.2,4.9-0.7,6.1c0.2,0.2,0.2,0.4,0.2,0.7
					c-0.1,0.5-0.5,0.8-1,0.7c-0.5-0.1-0.8-0.5-0.7-1c0.1-0.5,0.5-0.8,1-0.7c0,0,0,0,0,0c0.5-1.2,1.5-3.9,0.7-5.5
					c-0.2-0.4-0.5-0.7-0.9-0.9c-0.3,0-0.6-0.1-1-0.1h-4.6c0,0-0.1,0-0.1,0c-0.4,0.2-0.7,0.4-0.9,0.7c-0.5,0.8-0.5,1.9-0.4,2.5
					c0.8-0.2,1.7,0.4,2.1,1.3c0,0,0,0,0,0l-0.1,0l0.6,1.5c0.4,0.9,0.4,2.1-0.2,3c0.3,0,0.6,0,0.9-0.1c0-0.1,0.1-0.2,0.2-0.2
					c0.2-0.1,0.3,0.3,0.3,0.3s0.2,0.3,0,0.4c-0.1,0.1-0.3,0-0.4-0.1c-0.4,0.1-0.8,0.1-1.2,0.1c-0.2,0.3-0.6,0.5-0.9,0.7
					c0,0.2-0.1,0.3-0.2,0.4c-0.2,0.1-0.3-0.3-0.3-0.3s-0.2-0.3,0-0.4c0.1,0,0.2,0,0.3,0c0.3-0.2,0.5-0.3,0.7-0.5
					c-1-0.3-1.9-1.1-2.3-2l-0.6-1.5l-0.2,0.1c0,0,0,0,0,0c-0.4-1-0.1-2,0.7-2.4c-0.1-0.4-0.2-1.3,0.1-2.1c0,0,0,0,0,0v-0.1
					c0.1-0.3,0.2-0.6,0.4-0.8c0.1-0.1,0.2-0.2,0.2-0.3c-1.8,0.3-3,1.4-3.6,1.9v0c-0.5,0.5-0.9,1-1.2,1.6c-2.7,5.1-2.9,10,0,14.8
					c0.1,0.1,0.3,0.5,0.3,0.5c0.4,0.7,1.4,1,2.2,0.6c0.8-0.4,1.2-1.3,1-2.1c0,0-0.2-0.4-0.2-0.4c-1.5-3-2-5.4-1.5-8.1
					c0.1-0.3,0.3-0.7,0.4-1l-0.2,4.6c0.2,1.4,0.7,2.8,1.5,4.3c0,0.1,0.2,0.5,0.2,0.5c0.3,1-0.2,2-1.1,2.5c-0.3,0.1-0.6,0.2-0.9,0.2
					l0,0.9h0l-0.3,6.6c0,0.7,3,1.3,6.7,1.4h0.5c0.9,0,1.7,0,2.5-0.1V61z M257.4,60.4c-0.3,0-0.6-0.2-0.6-0.6c0-0.3,0.2-0.6,0.6-0.6
					c0.3,0,0.6,0.2,0.6,0.6C258,60.1,257.7,60.4,257.4,60.4z M257.4,56.1c-0.3,0-0.6-0.2-0.6-0.6c0-0.3,0.2-0.6,0.6-0.6
					c0.3,0,0.6,0.2,0.6,0.6C258,55.8,257.7,56.1,257.4,56.1z M257.4,51.8c-0.3,0-0.6-0.2-0.6-0.6c0-0.3,0.2-0.6,0.6-0.6
					c0.3,0,0.6,0.2,0.6,0.6C258,51.6,257.7,51.8,257.4,51.8z M257.4,47.5c-0.3,0-0.6-0.2-0.6-0.6c0-0.3,0.2-0.6,0.6-0.6
					c0.3,0,0.6,0.2,0.6,0.6C258,47.3,257.7,47.5,257.4,47.5z M257.4,43.2c-0.3,0-0.6-0.2-0.6-0.6c0-0.3,0.2-0.6,0.6-0.6
					c0.3,0,0.6,0.2,0.6,0.6C258,43,257.7,43.2,257.4,43.2z M257.4,38.9c-0.3,0-0.6-0.2-0.6-0.6c0-0.3,0.2-0.6,0.6-0.6
					c0.3,0,0.6,0.2,0.6,0.6C258,38.7,257.7,38.9,257.4,38.9z"/>
				<path id="XMLID_1061_" class="st6" d="M260.1,68.5v-3.8c-0.9,0.1-1.8,0.1-2.2,0.1v14.3c0,1.3,1.1,2.4,2.4,2.4
					c1.3,0,2.4-1.1,2.4-2.4v-9.5h-1.4C260.6,69.6,260.1,69.1,260.1,68.5z"/>
				<path id="XMLID_1057_" class="st6" d="M272.5,60.2H270c0-0.9-0.7-1.6-1.5-1.6h-3.2c-0.8,0-1.5,0.7-1.5,1.6h-2.6
					c-0.4,0-0.8,0.3-0.8,0.8v7.5c0,0.4,0.3,0.8,0.8,0.8h11.3c0.4,0,0.8-0.3,0.8-0.8V61C273.3,60.6,273,60.2,272.5,60.2z M265.3,59.6
					h3.2c0.3,0,0.5,0.3,0.6,0.6h-4.4C264.7,59.9,265,59.6,265.3,59.6z M269.4,66h-1.5v1.5h-2.1V66h-1.5V64h1.5v-1.5h2.1V64h1.5V66z"
					/>
				<rect id="XMLID_1056_" x="258.4" y="30.7" class="st6" width="2.3" height="1.1"/>
				<rect id="XMLID_1055_" x="254.2" y="30.7" class="st6" width="2.3" height="1.1"/>
				<path id="XMLID_1052_" class="st6" d="M257.3,35.2c2.4,0,4.4-2.2,4.4-5c0-0.4-0.1-0.9-0.2-1.3h-8.5c-0.1,0.4-0.2,0.8-0.2,1.3
					C253,32.9,254.9,35.2,257.3,35.2z M253.8,32v-1.5c0-0.1,0.1-0.2,0.2-0.2h2.6c0.1,0,0.2,0.1,0.2,0.2v0.6h1.2v-0.6
					c0-0.1,0.1-0.2,0.2-0.2h2.6c0.1,0,0.2,0.1,0.2,0.2V32c0,0.1-0.1,0.2-0.2,0.2h-2.6c-0.1,0-0.2-0.1-0.2-0.2v-0.6h-1.2V32
					c0,0.1-0.1,0.2-0.2,0.2H254C253.9,32.2,253.8,32.1,253.8,32z"/>
			</g>
		</g>
		<g id="XMLID_1015_" class="st5">
			<text id="XMLID_1049_" transform="matrix(1 0 0 1 577.814 113.1286)" class="st10 st11 st13">6.03‰</text>
			<text id="XMLID_1048_" transform="matrix(1 0 0 1 484.9106 112.2847)" class="st10 st11 st13">与上年相比</text>
			<g id="XMLID_1045_">
				<text id="XMLID_471_" transform="matrix(1 0 0 1 523.2676 71.9289)" class="st7 st8 st9">1 702 005</text>
			</g>
			<text id="XMLID_1044_" transform="matrix(1 0 0 1 523.2676 35.4094)" class="st10 st11 st12">急诊人数（人）</text>
			<polygon id="XMLID_1041_" class="st14" points="573.2,104.9 566.4,97.7 559.5,104.9 563.4,104.9 563.4,105.5 563.4,106.4 
				563.2,107.7 563,108.6 562.7,109.5 562.5,110.5 562.2,111.4 561.9,112.1 561.5,113.2 561.1,113.8 560.5,114.9 560.2,115.4 
				559.7,116 559.2,116.7 558.7,117.2 558.2,117.7 557.7,118.1 557.4,118.4 557.2,118.5 558.4,118.4 559.6,118.1 560.4,117.8 
				561.5,117.4 562.5,116.8 563.7,116 564.3,115.6 565.1,114.8 566,113.8 566.6,113.1 567.3,112 568,110.7 568.8,109.1 569.5,107.3 
				569.8,105.8 569.9,104.9 			"/>
			<g id="XMLID_1016_">
				<path id="XMLID_1040_" class="st6" d="M471.2,37.7c-0.2-1.5-0.4-3-0.6-4.4c-0.1-0.4,0-0.7,0.4-0.9c0.1-0.1,0.2-0.3,0.2-0.4
					c-0.1-0.1-0.2-0.2-0.4-0.2c-0.1,0-0.3,0.1-0.4,0.2c-0.1,0.1-0.3,0.2-0.4,0.2c-0.4,0.1-0.5,0.2-0.3,0.6c0.2,0.3,0.3,0.7,0.4,1.1
					c0.1,0.9,0.3,1.8,0.3,2.8c0.1,0.9,0.3,3.3-0.2,4.2c-0.1,0.1,0.1,0.3,0.2,0.4c0.1,0.1,0.3,0.1,0.3,0c0.2-0.2,0.4-0.4,0.8-0.2
					c0,0,0.1,0,0.1,0c0.3-0.1,0.2-0.3,0.1-0.5C471.4,40,471.2,38.1,471.2,37.7z"/>
				<path id="XMLID_1039_" class="st6" d="M484,32.1c-0.2,0-0.3-0.1-0.4-0.2c-0.1-0.1-0.3-0.2-0.4-0.2c-0.1,0-0.3,0.1-0.4,0.2
					c0,0.1,0.1,0.3,0.2,0.4c0.4,0.2,0.4,0.6,0.4,0.9c-0.2,1.5-0.4,3-0.6,4.4c-0.1,0.4-0.2,2.3-0.4,2.7c-0.1,0.2-0.2,0.4,0.1,0.5
					c0,0,0.1,0,0.1,0c0.3-0.1,0.5,0,0.8,0.2c0.1,0.1,0.3,0,0.3,0c0.1-0.1,0.2-0.3,0.2-0.4c-0.6-1-0.4-3.3-0.3-4.2
					c0.1-0.9,0.2-1.9,0.3-2.8c0.1-0.4,0.2-0.7,0.4-1.1C484.5,32.3,484.4,32.1,484,32.1z"/>
				<path id="XMLID_1038_" class="st6" d="M498.3,32.4C498.3,32.4,498.3,32.4,498.3,32.4c-0.5,0.1-0.9,0.3-1.4,0.5
					c0.2,2.3,1.5,4.4,2.8,4.4c1.3,0,2.6-2.1,2.8-4.4c-0.4-0.2-0.9-0.4-1.4-0.5l-1.4,1.4L498.3,32.4z"/>
				<path id="XMLID_1020_" class="st6" d="M503.3,33.3C503.2,33.3,503.2,33.3,503.3,33.3c-0.3,2.3-1.6,4.6-3.3,4.8
					c-0.2,1.2,0.2,1.6,0.7,2.2c0.9,1,1.4,1.9-0.1,4.4c0.1,0.2,0.2,0.4,0.2,0.6c0,0.6-0.5,1-1,1c-0.6,0-1-0.5-1-1c0-0.6,0.5-1,1-1
					c0.1,0,0.1,0,0.2,0c1.3-2.2,0.8-2.7,0.2-3.4c-0.5-0.6-1.1-1.3-0.9-2.7c-1.6-0.4-2.8-2.6-3-4.8c-0.1,0-0.2,0.1-0.2,0.1
					c-0.6,0.4-1.2,0.8-1.8,1.2c-2.1-0.5-3-1.7-4.9-4.2c-0.4-0.5-0.8-1-1.2-1.6v-7.3c0-0.5-0.4-1-1-1h-20.2c-0.5,0-1,0.4-1,1v20.2
					c0,0.5,0.4,1,1,1h20.2c0.5,0,1-0.4,1-1v-6.1c1.4,1.6,3.1,2.7,5.9,3.2v3c0,0,0,0,0,0c0,0,0,5.7,0,7.8c0,1.8,0.4,2.1,0.4,2.1
					l0,20.7c0,1.4,1.2,2.6,2.6,2.6c1.4,0,2.6-1.2,2.6-2.6l0-17.9c0.1,0,0.2,0,0.3,0c0,0,0,0,0.1,0l0,17.9c0,1.4,1.2,2.6,2.6,2.6
					c1.4,0,2.6-1.2,2.6-2.6l0-20.7c0,0,0.4-0.8,0.4-2.1c0-1.3,0-7.9,0-7.9c0.6,1.7,0.9,4,0.6,7.2c-0.1,1.2,0.8,2.3,1.9,2.4
					c0.1,0,0.1,0,0.2,0c1.1,0,2.1-0.8,2.2-2C511.3,39.6,507.5,35.9,503.3,33.3z M487.1,21.6l0,6.2c-0.7-0.5-1.8-0.5-2.5,0.1
					c-0.4,0.3-0.6,0.7-0.7,1.2c0-0.2,0-0.4-0.1-0.5c-0.1-0.9-0.2-1.9-0.2-2.8c0-0.4,0.1-0.8,0.2-1.1c0.1-0.4,0-0.6-0.4-0.6
					c-0.2,0-0.3-0.1-0.5-0.1c-0.1,0-0.3-0.1-0.4-0.1c0.2-0.4,0.1-0.8,0-1c-0.2-0.4-0.7-0.4-1-0.4c-0.1,0-0.1,0-0.1,0c0,0,0,0,0,0
					c-0.2,0-1.7,0.4-2.1,1.2c-0.1,0.1-0.1,0.3-0.1,0.4c-0.1,0-0.2,0-0.2,0c-0.3,0-0.5,0.1-0.7,0.1V24c0-0.2-0.1-0.4-0.2-0.5
					c0-0.1,0.1-0.1,0.1-0.2V23c0,0,0-0.1,0-0.1c0.2-0.1,0.3-0.3,0.3-0.5v-0.1c0-0.1,0-0.5-0.3-0.7H487.1z M481.7,29.5
					c-0.1,0.2-0.3,0.3-0.7,0.3c-0.4,0.1-1,0-1.5-0.2c-1.1-0.4-1.7-1.1-1.6-1.5c0-0.1,0.2-0.2,0.3-0.3c0.3,0.2,0.6,0.4,1,0.5
					c0.5,0.2,1,0.3,1.4,0.3c0.1,0,0.3,0,0.4,0c0,0,0.1,0,0.1,0C481.6,28.9,481.8,29.3,481.7,29.5z M481.7,31.3
					c-0.1,0.2-0.3,0.3-0.7,0.3c-0.4,0.1-1,0-1.5-0.2c-1.1-0.4-1.7-1.1-1.6-1.5c0-0.1,0.2-0.2,0.4-0.3c0.3,0.2,0.6,0.4,1,0.5
					c0.5,0.2,1,0.3,1.4,0.3c0.1,0,0.3,0,0.4,0c0,0,0,0,0.1,0C481.5,30.8,481.8,31.1,481.7,31.3z M481.6,27.6
					c-0.1,0.2-0.3,0.3-0.7,0.3c-0.4,0.1-1,0-1.5-0.2c-1.1-0.4-1.7-1.1-1.6-1.5c0.1-0.1,0.3-0.3,0.5-0.3c0.2,0.2,0.5,0.3,0.8,0.4
					c0.3,0.1,0.5,0.2,0.8,0.2c0,0,0,0.1,0.1,0.1c0,0.1,0.1,0.1,0.2,0.1c0,0,0,0,0,0c0.1,0,0.2,0,0.2-0.1l0.1-0.1c0.1,0,0.1,0,0.2,0
					C481.4,26.9,481.7,27.4,481.6,27.6z M478.2,24.8c0.1-0.2,0.3-0.3,0.7-0.3c0.1,0,0.2,0,0.3,0c0.1,0.5,0.3,1,0.5,1.4
					c-0.1,0-0.3-0.1-0.4-0.1c-0.4-0.1-0.7-0.4-1-0.6C478.2,25.1,478.1,24.9,478.2,24.8z M477.8,31.2c0.4,0.3,0.8,0.6,1.4,0.8
					c0.3,0.1,0.7,0.2,1,0.2c0.3,0.4,0.4,0.7,0.3,0.9c-0.1,0.2-0.4,0.2-0.7,0.2c-0.4,0-1-0.2-1.4-0.5c-0.3-0.2-0.6-0.5-0.9-0.7
					C477.8,31.9,477.9,31.5,477.8,31.2z M475.5,40.6c0.2,0,0.4,0.2,0.7,0.4c-0.2,0.2-0.3,0.3-0.4,0.3c-0.2-0.1-0.4-0.3-0.6-0.4
					C475.3,40.8,475.3,40.6,475.5,40.6z M475.5,38.6c0.3-0.2,0.5-0.2,0.7,0.1c0.2,0.3,0.4,0.6,0.7,0.8c0.1,0.1,0.4,0.1,0.4,0
					c0.3-0.2,0.5-0.5,0.7-0.8c0.1-0.1,0.4-0.3,0.5-0.3c0.2,0.1,0.5,0.3,0.5,0.5c0,0.3-0.1,0.8-0.3,0.9c-0.8,1-2.9,0.5-3.3-0.1
					C475.1,39.4,475.2,38.9,475.5,38.6z M476,41.8c0.1,0,0.3-0.1,0.5-0.2c0.5-0.3,1-0.3,1.5,0c0.2,0.1,0.3,0.2,0.5,0.2L476,41.8
					L476,41.8z M478.3,41c0.2-0.2,0.3-0.4,0.5-0.5c0.2,0,0.2,0.1,0.5,0.3c-0.3,0.2-0.5,0.3-0.7,0.4C478.6,41.3,478.4,41.1,478.3,41z
					 M479,41.8c0.3-0.1,0.6-0.4,0.7-0.9c0.1-0.3,0.1-1,0.6-1.2c0.7-0.6,1.7-1.4,1.4-2.2c-0.1-0.3-0.2-0.7-0.4-1
					c-0.6-1-1.7-1.1-2.6-0.4c-0.3,0.3-0.6,0.6-0.9,0.9c-0.5,0.5-0.9,0.6-1.4,0c-0.3-0.3-0.6-0.6-0.9-0.9c-0.9-0.8-2-0.6-2.7,0.5
					c-0.5,0.8-0.4,1.5,0.2,2.2c0.2,0.2,0.3,0.5,0.5,0.8c0.7,0.5,0.8,1,0.9,1.4c0.1,0.5,0.4,0.8,0.7,0.9h-8.5V21.6h9.7
					c-0.1,0.1-0.1,0.1-0.1,0.2c0,0.1,0.1,0.2,0.2,0.3c0.1,0.1,1,0,1,0c0,0,0,0,0,0v0.2c0,0,0,0,0,0h-0.7c-0.2,0-0.3,0.1-0.3,0.3
					c0,0.2,0.1,0.3,0.3,0.3h0.6c0,0,0,0,0,0v0.2h-0.4c-0.1,0-0.2,0.1-0.3,0.2c-0.3,0.1-0.4,0.3-0.4,0.6v0.2
					c-0.2-0.1-0.4-0.1-0.7-0.1c-0.2,0-0.4,0-0.6,0.1c0-0.2,0-0.3-0.1-0.5c-0.4-0.8-1.9-1.2-2.1-1.2c0,0,0,0,0,0c0,0-0.1,0-0.1,0
					c-0.3,0-0.7,0.1-1,0.4c-0.2,0.3-0.2,0.6,0,1c0,0,0,0,0,0c0,0-0.1,0-0.1-0.1c-0.1,0-0.3,0.1-0.4,0.1c-0.2,0-0.3,0.1-0.5,0.1
					c-0.4,0-0.5,0.1-0.4,0.6c0.1,0.4,0.2,0.7,0.2,1.1c0,0.9-0.1,1.9-0.2,2.8c-0.1,0.9-0.1,1.8-0.8,2.6c-0.1,0.1,0,0.3,0.1,0.4
					c0,0.1,0.2,0.1,0.3,0.1c0.3-0.2,0.5-0.3,0.8-0.1c0,0,0.1,0,0.1,0c0.3,0,0.2-0.2,0.2-0.5c-0.1-0.4-0.2-0.9-0.1-1.3
					c0.1-1.5,0.2-3,0.3-4.5c0-0.4,0.1-0.7,0.5-0.9c0.1,0,0.3-0.3,0.2-0.4c0,0,0,0,0,0l0.6,0.7l0.5,0.7c0,0.1,0,0.2,0,0.3
					c0,0,0,0.1,0.1,0.1c-0.8,0.5-1.1,1.2-0.9,1.8c0.1,0.2,0.2,0.4,0.4,0.5c-0.4,0.4-0.6,0.9-0.4,1.3c0.1,0.2,0.2,0.4,0.4,0.5
					c-0.4,0.4-0.6,0.9-0.4,1.3c0.1,0.4,0.6,0.7,1.2,0.8c0,0,0,0,0,0c-0.2,0.5-0.3,0.9-0.1,1.3c0.2,0.3,0.6,0.5,1.1,0.5
					c0.1,0,0.1,0,0.2,0c0.5,0,1.2-0.3,1.7-0.6c0.1-0.1,0.3-0.2,0.4-0.3c0,0,0,0,0,0h1.1c0,0,0,0,0,0c0,0,0.1,0.1,0.1,0.1
					c0,0,0,0,0,0.1v0.1c0,0.1-0.1,0.2-0.2,0.2h-1.1c-0.2,0-0.3,0.1-0.3,0.3c0,0.1,0,0.2,0.1,0.2c0,0.1,0.1,0.2,0.3,0.2h0.9
					c0.1,0,0.1,0.1,0.1,0.1v0.1c0,0.1-0.1,0.1-0.1,0.1h-0.9c-0.2,0-0.3,0.1-0.3,0.3c0,0.1,0.1,0.2,0.2,0.3c0.1,0.1,0.1,0.1,0.2,0.1
					h0.7c0,0,0,0,0,0v0.1c0,0,0,0,0,0h-0.7c-0.2,0-0.3,0.1-0.3,0.3c0,0.2,0.1,0.3,0.3,0.3h0.6c0,0,0,0,0,0v0.2h-0.4
					c-0.2,0-0.3,0.1-0.3,0.3c0,0.2,0.1,0.3,0.3,0.3h0.5c0.3,0,0.5-0.2,0.5-0.5v-0.3c0,0,0-0.1,0-0.1c0.2-0.1,0.3-0.3,0.3-0.5v-0.1
					c0-0.1,0-0.2-0.1-0.3c0.2-0.1,0.3-0.3,0.3-0.5v-0.1c0-0.2-0.1-0.3-0.1-0.4c0.1-0.1,0.2-0.3,0.2-0.4c0.5,0.2,0.9,0.4,1.4,0.4
					c0.1,0,0.1,0,0.2,0c0.5,0,0.9-0.2,1.1-0.5c0.2-0.3,0.2-0.8-0.1-1.3c0,0,0,0,0,0c0.6-0.1,1-0.4,1.2-0.8c0.2-0.4,0-0.9-0.4-1.3
					c0.2-0.1,0.4-0.3,0.4-0.5c0.2-0.4,0-0.9-0.4-1.3c0.2-0.1,0.3-0.3,0.4-0.5c0.2-0.6-0.2-1.2-0.9-1.8c0,0,0-0.1,0.1-0.1
					c0.1-0.2,0-0.4-0.1-0.6l0.2-0.4l0.6-0.6c0,0.1,0.1,0.2,0.2,0.3c0.4,0.1,0.5,0.5,0.5,0.9c0.1,1.5,0.2,3,0.3,4.5
					c0,0.4-0.1,0.9-0.1,1.3c0,0.2-0.1,0.4,0.2,0.5c0,0,0.1,0,0.1,0c0.3-0.2,0.5-0.1,0.8,0.1c0.1,0,0.3,0,0.3-0.1
					c0-0.1,0.1-0.2,0.1-0.3c0.5,0.6,0.9,1.1,1.3,1.7c0.4,0.5,0.8,1.1,1.2,1.5v7.3L479,41.8L479,41.8z M475.2,26.3
					c0.3-0.1,0.6-0.2,0.8-0.4c0.3,0.1,0.5,0.2,0.5,0.3c0.1,0.4-0.5,1.1-1.6,1.5c-0.5,0.2-1.1,0.3-1.5,0.2c-0.4,0-0.6-0.2-0.7-0.3
					c-0.1-0.2,0.2-0.7,0.8-1.1l0.1,0.1c0,0.1,0.1,0.1,0.2,0.1c0,0,0,0,0,0c0.1,0,0.2,0,0.2-0.1c0,0,0-0.1,0.1-0.1c0,0,0.1,0,0.1,0
					C474.5,26.5,474.8,26.5,475.2,26.3z M474.3,26.1c0.2-0.4,0.4-0.9,0.6-1.4c0.2-0.1,0.5-0.1,0.7-0.1c0.4,0,0.6,0.1,0.7,0.3
					c0,0.1,0,0.3-0.2,0.5c-0.2,0.2-0.6,0.4-1,0.6C474.8,26,474.5,26,474.3,26.1z M473.2,28.6c0,0,0.1,0,0.1,0c0.1,0,0.2,0,0.4,0
					c0.5,0,1-0.1,1.4-0.3c0.4-0.1,0.7-0.3,1-0.5c0.1,0.1,0.3,0.1,0.3,0.3c0.1,0.4-0.5,1.1-1.6,1.5c-0.5,0.2-1.1,0.3-1.5,0.2
					c-0.4,0-0.6-0.2-0.7-0.3C472.6,29.3,472.8,28.9,473.2,28.6z M473.2,30.4C473.2,30.4,473.2,30.5,473.2,30.4c0.2,0,0.3,0,0.4,0
					c0.5,0,0.9-0.1,1.4-0.3c0.4-0.1,0.7-0.3,1-0.5c0.2,0.1,0.3,0.2,0.4,0.3c0.1,0.4-0.5,1.1-1.6,1.5c-0.5,0.2-1.1,0.3-1.5,0.2
					c-0.4,0-0.6-0.2-0.7-0.3C472.6,31.1,472.8,30.8,473.2,30.4z M474,32.3c0.3,0,0.7-0.1,1-0.2c0.6-0.2,1.1-0.5,1.4-0.8
					c0,0.3,0.1,0.6,0.3,1c-0.2,0.3-0.5,0.5-0.9,0.7c-0.5,0.3-1,0.5-1.4,0.5c-0.4,0-0.6-0.1-0.7-0.2C473.6,33.1,473.7,32.7,474,32.3z
					"/>
				<path id="XMLID_1017_" class="st6" d="M499.7,32.1c2.9,0,5.3-2.4,5.3-5.3c0-1.2-0.4-2.3-1.1-3.2h-1.7v-0.8h0.9
					c-0.3-0.3-0.7-0.5-1.1-0.7c-0.4-0.9-1.3-1.5-2.3-1.5c-1,0-1.9,0.6-2.3,1.5c-0.4,0.2-0.7,0.4-1.1,0.7h1.1v0.8h-1.8
					c-0.7,0.9-1.1,2-1.1,3.2C494.4,29.8,496.7,32.1,499.7,32.1z M499.7,21.7c0.8,0,1.4,0.6,1.4,1.4c0,0.8-0.6,1.4-1.4,1.4
					c-0.8,0-1.4-0.6-1.4-1.4C498.2,22.4,498.9,21.7,499.7,21.7z"/>
			</g>
		</g>
		<g id="XMLID_993_" class="st5">
			<g id="XMLID_1012_">
				<text id="XMLID_473_" transform="matrix(1 0 0 1 755.1962 71.9289)" class="st7 st8 st9">976 419</text>
			</g>
			<text id="XMLID_1011_" transform="matrix(1 0 0 1 806.9427 112.2451)" class="st10 st11 st13">1.24‰</text>
			<text id="XMLID_1010_" transform="matrix(1 0 0 1 711.0768 112.2847)" class="st10 st11 st13">与上年相比</text>
			<text id="XMLID_1009_" transform="matrix(1 0 0 1 755.1962 35.4094)" class="st10 st11 st12">入院人数（人）</text>
			<polygon id="XMLID_1006_" class="st14" points="801.2,104.9 794.3,97.7 787.5,104.9 791.4,104.9 791.4,105.5 791.3,106.4 
				791.1,107.7 790.9,108.6 790.7,109.5 790.5,110.5 790.2,111.4 789.9,112.1 789.4,113.2 789.1,113.8 788.5,114.9 788.2,115.4 
				787.7,116 787.2,116.7 786.7,117.2 786.2,117.7 785.7,118.1 785.3,118.4 785.1,118.5 786.3,118.4 787.6,118.1 788.4,117.8 
				789.5,117.4 790.5,116.8 791.7,116 792.2,115.6 793.1,114.8 794,113.8 794.5,113.1 795.2,112 796,110.7 796.8,109.1 797.4,107.3 
				797.8,105.8 797.9,104.9 			"/>
			<g id="XMLID_994_">
				<path id="XMLID_1005_" class="st6" d="M720.3,44.7c-5.6,1.2-8.4-1.4-8.5-1.5c-0.7-0.7-1.8-0.7-2.6,0c-0.7,0.7-0.7,1.9,0,2.6
					c0.1,0.1,2.9,2.9,8.2,2.9c1.1,0,2.3-0.1,3.6-0.4c1-0.2,1.6-1.2,1.4-2.2C722.3,45.1,721.3,44.4,720.3,44.7z"/>
				<circle id="XMLID_1004_" class="st6" cx="703.9" cy="39.9" r="4.1"/>
				<path id="XMLID_1003_" class="st6" d="M741.6,56.6l-7.6-3.1c-0.3-0.1-0.5-0.2-0.8-0.2h-1.9V53c0-0.2-0.1-0.4-0.1-0.6l7.2,2
					c0.2,0.1,0.4,0.1,0.6,0.1c1,0,1.8-0.6,2.1-1.6c0.3-1.2-0.4-2.3-1.5-2.7l-9.5-2.6c-0.2-0.1-0.4-0.1-0.6-0.1l-6.5,0
					c-0.3,0.7-0.9,1.3-1.7,1.5c-1.1,0.2-2.2,0.4-3.2,0.4c-5.3,0-8.8-2.8-9-2.9c-0.5-0.4-0.8-1-0.9-1.7c-0.1-0.7,0.1-1.3,0.5-1.8
					c0.5-0.6,1.2-0.9,1.9-0.9c0.6,0,1.1,0.2,1.5,0.5c0.1,0.1,1.5,1.1,3.7,1.6l-4-2.6c-1.4-0.9-3.1-0.3-4.2,0.7c0,0-0.3,0.3-0.6,0.7
					c-0.2,0.4-0.4,0.8-0.4,0.8l0,0c-0.5,1.3-0.3,3.2,1.1,4.1l7.6,4.9c0.1,0.1,0.2,0.1,0.3,0.2c0,0,0,0,0,0v0.4h-2.2l-10.1-7
					c0.1-0.1,0.1-0.1,0.1-0.2c0.4-0.6,0.2-1.4-0.4-1.7l-3.4-2.1c-0.6-0.4-1.3-0.2-1.7,0.4c-1-0.5-2.2-0.2-2.8,0.7
					c-0.7,1-0.4,2.4,0.6,3.1l15.8,10.9c0.4,0.3,0.8,0.4,1.3,0.4h2.9c0.2,0.5,0.7,0.9,1.2,0.9h2.8v10.4h-1.4c-0.6,0-1.1,0.5-1.1,1.1
					c0,0.6,0.5,1.1,1.1,1.1h10.3c0.6,0,1.1-0.5,1.1-1.1c0-0.6-0.5-1.1-1.1-1.1h-1.5V58.7h2.8c0.6,0,1-0.4,1.2-0.9h1.6l7.2,2.9
					c0.3,0.1,0.6,0.2,0.8,0.2c0.9,0,1.7-0.5,2.1-1.4C743.3,58.4,742.7,57.1,741.6,56.6z"/>
				<path id="XMLID_1002_" class="st6" d="M711.1,39c0,1,0.8,1.7,1.7,1.7c4,0,6.3-1.1,7.7-2.4v2.8c-0.1,0.6-0.4,1.6-0.7,2.9
					c0.1,0,0.2,0,0.3-0.1c0.2,0,0.4-0.1,0.5-0.1c1.2,0,2.2,0.8,2.4,1.9c0.1,0.3,0.1,0.7,0,1l6.2,0c0.3,0,0.5,0,0.8,0.1l0.9,0.2
					c-0.5-2.5-1.1-5-1.3-6v-3.3c0.7,1.4,1.1,3.4,1,6.4c0,1,0.7,1.7,1.7,1.8c0,0,0,0,0,0c0.9,0,1.7-0.8,1.7-1.7
					c0.1-8.2-4.2-12.6-8-13.5c0,0,0,0,0,0l-1.1,1.1l-1.1-1.1c-0.6,0.2-2.9,1.2-4.3,3.4c-1.2,1.7-2.3,3.1-6.8,3.1
					C711.9,37.3,711.1,38,711.1,39z"/>
				<path id="XMLID_999_" class="st6" d="M725.2,30.4c2.3,0,4.2-1.9,4.2-4.2c0-1-0.3-1.8-0.9-2.6h-1.3V23h0.7
					c-0.3-0.2-0.5-0.4-0.8-0.6c-0.3-0.7-1-1.2-1.8-1.2c-0.8,0-1.5,0.5-1.8,1.2c-0.3,0.2-0.6,0.3-0.9,0.6h0.8v0.6H722
					c-0.5,0.7-0.9,1.6-0.9,2.6C721.1,28.5,722.9,30.4,725.2,30.4z M725.2,22.2c0.6,0,1.1,0.5,1.1,1.1c0,0.6-0.5,1.1-1.1,1.1
					c-0.6,0-1.1-0.5-1.1-1.1C724.1,22.7,724.6,22.2,725.2,22.2z"/>
				<path id="XMLID_995_" class="st6" d="M713.5,33.1h-1.1v-9.5h-14.7v9.5h-1v2.2h16.9V33.1z M711.1,24.8V29l-4,0
					c-0.1,0-0.2,0.1-0.2,0.2l-0.6,2l-0.6-2c0-0.1-0.1-0.2-0.2-0.2h-0.8l-1.2-3.5c-0.1-0.2-0.3-0.2-0.4,0L702,29h-3.1v-4.2H711.1z
					 M698.9,32.7v-3.2h3.3c0.1,0,0.2-0.1,0.2-0.1l1-3l1,3c0,0.1,0.1,0.1,0.2,0.1h0.8l0.7,2.5c0,0.1,0.1,0.2,0.2,0.2
					c0.1,0,0.2-0.1,0.2-0.2l0.7-2.5l3.9,0v3.2L698.9,32.7L698.9,32.7z"/>
			</g>
		</g>
		<line id="XMLID_992_" class="st15" x1="224.3" y1="20.8" x2="224.3" y2="120.7"/>
		<line id="XMLID_991_" class="st15" x1="443.2" y1="20.8" x2="443.2" y2="120.7"/>
		<line id="XMLID_990_" class="st15" x1="671.9" y1="20.8" x2="671.9" y2="120.7"/>
		<g id="XMLID_921_" class="st5">
			<linearGradient id="XMLID_389_" gradientUnits="userSpaceOnUse" x1="418.0193" y1="360.0532" x2="418.0193" y2="211.7215">
				<stop  offset="0" style="stop-color:#00BEFF;stop-opacity:0.1"/>
				<stop  offset="1" style="stop-color:#00FF81;stop-opacity:0.6"/>
			</linearGradient>
			<path id="XMLID_989_" class="st16" d="M162.6,360.1L162.6,360.1c0,0,67-82.1,86.3-93.4s64.5-14.3,85-14.3s62.7-15,84.3-21.5
				s62.3-0.5,85-3.5s68.1-10.8,85-10.8s85-4.8,85-4.8s-0.6-9.8,0.2,148.2H162.6z"/>
			<polyline id="XMLID_988_" class="st17" points="78.1,195 78.1,360.2 758.6,360.2 			"/>
			<line id="XMLID_987_" class="st17" x1="67.9" y1="327.3" x2="78.1" y2="327.3"/>
			<line id="XMLID_986_" class="st17" x1="67.9" y1="294.3" x2="78.1" y2="294.3"/>
			<line id="XMLID_985_" class="st17" x1="67.9" y1="360.2" x2="78.1" y2="360.2"/>
			<line id="XMLID_984_" class="st17" x1="74.7" y1="338.2" x2="78.1" y2="338.2"/>
			<line id="XMLID_983_" class="st17" x1="74.7" y1="305.3" x2="78.1" y2="305.3"/>
			<line id="XMLID_982_" class="st17" x1="74.7" y1="316.3" x2="78.1" y2="316.3"/>
			<line id="XMLID_981_" class="st17" x1="67.9" y1="261.4" x2="78.1" y2="261.4"/>
			<line id="XMLID_980_" class="st17" x1="74.7" y1="349.2" x2="78.1" y2="349.2"/>
			<line id="XMLID_979_" class="st17" x1="74.7" y1="283.3" x2="78.1" y2="283.3"/>
			<line id="XMLID_978_" class="st17" x1="74.7" y1="272.3" x2="78.1" y2="272.3"/>
			<line id="XMLID_977_" class="st17" x1="74.7" y1="250.4" x2="78.1" y2="250.4"/>
			<line id="XMLID_976_" class="st17" x1="74.7" y1="239.4" x2="78.1" y2="239.4"/>
			<line id="XMLID_975_" class="st17" x1="74.7" y1="206.4" x2="78.1" y2="206.4"/>
			<line id="XMLID_974_" class="st17" x1="74.7" y1="217.4" x2="78.1" y2="217.4"/>
			<line id="XMLID_973_" class="st17" x1="67.9" y1="195.5" x2="78.1" y2="195.5"/>
			<line id="XMLID_972_" class="st17" x1="67.9" y1="228.4" x2="78.1" y2="228.4"/>
			<line id="XMLID_971_" class="st18" x1="77.8" y1="327.3" x2="758.3" y2="327.3"/>
			<line id="XMLID_970_" class="st18" x1="77.8" y1="261.4" x2="758.3" y2="261.4"/>
			<line id="XMLID_969_" class="st18" x1="77.8" y1="294.3" x2="758.3" y2="294.3"/>
			<line id="XMLID_968_" class="st18" x1="77.8" y1="228.4" x2="758.3" y2="228.4"/>
			<line id="XMLID_967_" class="st18" x1="77.8" y1="195.5" x2="758.3" y2="195.5"/>
			<path id="XMLID_966_" class="st18" d="M588.2,194.7c0,81.5,0,107.3,0,165.6"/>
			<path id="XMLID_965_" class="st18" d="M758.3,194.7c0,81.5,0,105.8,0,164.1"/>
			<path id="XMLID_964_" class="st18" d="M673.3,194.7c0,81.5,0,165.1,0,165.1"/>
			<path id="XMLID_963_" class="st18" d="M503.2,194.7c0,81.5,0,107.3,0,165.6"/>
			<path id="XMLID_962_" class="st18" d="M418.2,194.7c0,81.5,0,107.3,0,165.6"/>
			<path id="XMLID_961_" class="st18" d="M333.1,194.7c0,81.5,0,107.3,0,165.6"/>
			<path id="XMLID_960_" class="st18" d="M248.1,194.7c0,81.5,0,107.3,0,165.6"/>
			<path id="XMLID_959_" class="st18" d="M163,194.7c0,81.5,0,107.3,0,165.6"/>
			<circle id="XMLID_958_" class="st19" cx="163" cy="360.3" r="3"/>
			<circle id="XMLID_957_" class="st20" cx="248.1" cy="266.7" r="3"/>
			<circle id="XMLID_956_" class="st20" cx="333.1" cy="252.4" r="3"/>
			<circle id="XMLID_955_" class="st20" cx="418.2" cy="230.9" r="3"/>
			<circle id="XMLID_954_" class="st20" cx="503.2" cy="227.4" r="3"/>
			<circle id="XMLID_953_" class="st20" cx="588.2" cy="216.6" r="3"/>
			<circle id="XMLID_952_" class="st20" cx="673.3" cy="211.8" r="3"/>
			<text id="XMLID_951_" transform="matrix(1 0 0 1 36.4194 199.5388)" class="st21 st22 st23">2500</text>
			<text id="XMLID_950_" transform="matrix(1 0 0 1 36.4191 232.4006)" class="st21 st22 st23">2000</text>
			<text id="XMLID_949_" transform="matrix(1 0 0 1 38.4761 265.2626)" class="st21 st22 st23">1500</text>
			<text id="XMLID_948_" transform="matrix(1 0 0 1 43.0933 330.9858)" class="st21 st22 st23">500</text>
			<text id="XMLID_947_" transform="matrix(1 0 0 1 38.4763 298.1243)" class="st21 st22 st23">1000</text>
			<text id="XMLID_946_" transform="matrix(1 0 0 1 56.4409 363.8472)" class="st21 st22 st23">0</text>
			<text id="XMLID_945_" transform="matrix(1 0 0 1 145.8428 378.9643)" class="st21 st22 st13">2009</text>
			<text id="XMLID_944_" transform="matrix(1 0 0 1 231.7219 378.9643)" class="st21 st22 st13">2010</text>
			<text id="XMLID_943_" transform="matrix(1 0 0 1 317.6012 378.9643)" class="st21 st22 st13">2011</text>
			<text id="XMLID_942_" transform="matrix(1 0 0 1 401.7191 378.9643)" class="st21 st22 st13">2012</text>
			<text id="XMLID_941_" transform="matrix(1 0 0 1 486.7174 378.9643)" class="st21 st22 st13">2013</text>
			<text id="XMLID_940_" transform="matrix(1 0 0 1 571.6281 378.9643)" class="st21 st22 st13">2014</text>
			<text id="XMLID_939_" transform="matrix(1 0 0 1 656.7147 378.9643)" class="st21 st22 st13">2015</text>
			<text id="XMLID_938_" transform="matrix(1 0 0 1 741.7133 378.9644)" class="st21 st22 st13">2016</text>
			<text id="XMLID_937_" transform="matrix(1 0 0 1 788.0465 378.9644)" class="st21 st22 st13">年份</text>
			<text id="XMLID_936_" transform="matrix(1 0 0 1 39.1149 173.9497)" class="st21 st22 st23">万人</text>
			<g id="XMLID_925_">
				<g id="XMLID_930_">
					<rect id="XMLID_932_" x="635.2" y="157.9" class="st24" width="76.2" height="36.1"/>
					<polygon id="XMLID_931_" class="st25" points="673.2,200.8 677.4,193.9 669.1,193.9 					"/>
				</g>
				<text id="XMLID_929_" transform="matrix(1 0 0 1 639.2177 180.6423)" class="st21 st8 st13">23837414</text>
				<g id="XMLID_926_">
					<polyline id="XMLID_928_" class="st26" points="635.2,162 635.2,157.9 640.6,157.9 					"/>
					<polyline id="XMLID_927_" class="st26" points="707.2,193.9 711.4,193.9 711.4,189.8 					"/>
				</g>
			</g>
			<circle id="XMLID_924_" class="st20" cx="782.6" cy="215" r="6"/>
			<text id="XMLID_923_" transform="matrix(1 0 0 1 794.7611 219.7175)" class="st10 st22 st13">门诊人数</text>
			<path id="XMLID_922_" class="st27" d="M162.6,360.1L162.6,360.1c0,0,67-82.1,86.3-93.4s64.5-14.3,85-14.3s62.7-15,84.3-21.5
				s62.3-0.5,85-3.5s68.1-10.8,85-10.8s85-4.8,85-4.8"/>
		</g>
		<g id="XMLID_377_" class="st5">
			<line id="XMLID_690_" class="st0" x1="865" y1="140.5" x2="25" y2="140.5"/>
			<line id="XMLID_379_" class="st2" x1="866.3" y1="139.7" x2="842.9" y2="139.7"/>
			<line id="XMLID_378_" class="st2" x1="47" y1="139.7" x2="25.7" y2="139.7"/>
		</g>
	</g>
	<g id="急诊人数" class="st3">
		<rect id="XMLID_916_" x="460.7" y="10.9" class="st4" width="193.7" height="115.8"/>
		<g id="XMLID_907_" class="st5">
			<rect id="XMLID_915_" x="2.4" y="1.8" class="st0" width="887.2" height="388.3"/>
			<g id="XMLID_908_">
				<g id="XMLID_912_">
					<polyline id="XMLID_914_" class="st1" points="2.4,15.5 2.4,1.8 18.7,1.8 					"/>
					<polyline id="XMLID_913_" class="st1" points="2.4,376.5 2.4,390.2 18.7,390.2 					"/>
				</g>
				<g id="XMLID_909_">
					<polyline id="XMLID_911_" class="st1" points="889.6,15.5 889.6,1.8 873.3,1.8 					"/>
					<polyline id="XMLID_910_" class="st1" points="889.6,376.5 889.6,390.2 873.3,390.2 					"/>
				</g>
			</g>
		</g>
		<g id="XMLID_869_" class="st5">
			<g id="XMLID_877_">
				<rect id="XMLID_906_" x="27.8" y="65.3" class="st6" width="6.6" height="0.8"/>
				
					<ellipse id="XMLID_905_" transform="matrix(0.1647 0.9863 -0.9863 0.1647 51.9807 3.3021)" class="st6" cx="24" cy="32.3" rx="3.6" ry="3.8"/>
				<path id="XMLID_904_" class="st6" d="M32.4,52.4c-0.2,0-1.9,0-3.9-0.1c0.1-0.4,0.2-0.7,0.2-1.1v-2.4h-5.9v-9.4
					c0-0.9,0.7-1.6,1.6-1.6c0.9,0,1.6,0.7,1.6,1.6v6.2h2.8v-4.7c0-2.5-2-4.5-4.5-4.5s-4.5,2-4.5,4.5v10.3c0,0.6,0.1,1.2,0.4,1.8
					c2.4,0.2,4.5,1.2,6,2.8c1.7,0,3.5,0,4.3,0.1c-0.3,2-1.2,7.2-1.2,7.7c0.2,1.6,3,2.2,3.5-0.3c0.1-0.4,1.4-6.6,1.8-8.6h0
					C34.5,53.6,34,52.4,32.4,52.4z"/>
				<path id="XMLID_890_" class="st6" d="M19.3,53.2c-4.8,0-8.8,3.9-8.8,8.8c0,4.8,3.9,8.8,8.8,8.8c4.8,0,8.8-3.9,8.8-8.8
					C28.1,57.1,24.1,53.2,19.3,53.2z M15.3,55.4l3.1,5.4c-0.2,0.1-0.3,0.2-0.4,0.4L12.7,58C13.3,56.9,14.2,56,15.3,55.4z M12.6,58.2
					l5.4,3.1c-0.1,0.2-0.1,0.4-0.1,0.6h-6.2C11.6,60.5,12,59.3,12.6,58.2z M11.6,62h6.2c0,0.2,0.1,0.4,0.1,0.6l-5.4,3.1
					C12,64.6,11.6,63.4,11.6,62z M12.7,65.9l5.4-3.1c0.1,0.2,0.2,0.3,0.4,0.4l-3.1,5.4C14.2,67.9,13.3,67,12.7,65.9z M19.2,69.6
					c-1.3,0-2.6-0.4-3.6-1l3.1-5.4c0.2,0.1,0.4,0.1,0.6,0.1V69.6z M19.2,60.5c-0.2,0-0.4,0.1-0.6,0.1l-3.1-5.4c1.1-0.6,2.3-1,3.6-1
					V60.5z M26.9,61.9h-6.2c0-0.2-0.1-0.4-0.1-0.6l5.4-3.1C26.6,59.3,26.9,60.5,26.9,61.9z M25.9,58l-5.4,3.1
					c-0.1-0.2-0.2-0.3-0.4-0.4l3.1-5.4C24.3,56,25.2,56.9,25.9,58z M19.4,54.3c1.3,0,2.6,0.4,3.6,1l-3.1,5.4
					c-0.2-0.1-0.4-0.1-0.6-0.1V54.3z M19.4,69.6v-6.2c0.2,0,0.4-0.1,0.6-0.1l3.1,5.4C21.9,69.3,20.7,69.6,19.4,69.6z M23.2,68.6
					l-3.1-5.4c0.2-0.1,0.3-0.2,0.4-0.4l5.4,3.1C25.2,67,24.3,67.9,23.2,68.6z M26,65.7l-5.4-3.1c0.1-0.2,0.1-0.4,0.1-0.6h6.2
					C26.9,63.4,26.6,64.6,26,65.7z"/>
				<polygon id="XMLID_889_" class="st6" points="22.2,56.1 19.6,56.1 19.6,58 21.1,58 				"/>
				<path id="XMLID_888_" class="st6" d="M25.5,57.9c-0.5-0.7-1-1.3-1.7-1.8h-0.7L22,58h3.3L25.5,57.9z"/>
				<path id="XMLID_887_" class="st6" d="M18.9,58.1v-3.5c-0.5,0-0.9,0.1-1.4,0.2v1.3V58v0H18.9z"/>
				<path id="XMLID_886_" class="st6" d="M29.2,56.1h-3c0.5,0.6,0.9,1.2,1.3,1.9h1.8V56.1z"/>
				<path id="XMLID_885_" class="st6" d="M17.9,46.4h-0.4v6.7c0.5-0.1,1.1-0.2,1.7-0.2v-6.5h-0.3v-1.7h0l0-0.1l-4.4-0.9l-0.2,0.9
					l3.7,0.7V46.4z"/>
				<path id="XMLID_882_" class="st6" d="M31.1,66.4c-1.2,0-2.2,1-2.2,2.2c0,1.2,1,2.2,2.2,2.2c1.2,0,2.2-1,2.2-2.2
					C33.3,67.4,32.3,66.4,31.1,66.4z M31.1,69.6c-0.6,0-1-0.5-1-1s0.5-1,1-1c0.6,0,1,0.5,1,1S31.6,69.6,31.1,69.6z"/>
				<path id="XMLID_878_" class="st6" d="M49,29v-0.6V28h-0.4h-3.6v-3.8h-0.8V28h-3.5h-0.2h-0.2v1c-1.1,0-2,0.2-2,0.4v6.2l1,0.4v0.4
					h0.9v0.2h0.2v2.5c0,3.5-2.4,9.7-7.9,9.7c-0.9,0-1.7-0.1-2.3-0.3h1.1c0.7,0,1.3-0.6,1.3-1.3c0-0.7-0.6-1.3-1.3-1.3h-5.9v-6.5
					c0-0.7-0.6-1.3-1.3-1.3c-0.7,0-1.3,0.6-1.3,1.3v9.1h0.3h2.3h3.2c0.8,0.5,2,0.8,3.9,0.8c5.9,0,8.4-6.6,8.4-10.2v-2.5v-0.2h0.9V36
					l1-0.4v-6.2c0-0.2-0.9-0.3-2.1-0.4v-0.6h3.5v40.9h-4.8v1.5h10.3v-1.5h-4.8V28.4h3.6V29c-1.1,0-2,0.2-2,0.4v6.2l1,0.4v0.4h2.5V36
					l1-0.4v-6.2C51.1,29.2,50.2,29,49,29z M42.5,32.4h-3.9v-2.9c0.2-0.1,0.9-0.2,1.9-0.2c1,0,1.7,0.1,1.9,0.2V32.4z M50.8,32.4v0.4
					v2.5l-1,0.4v0.3h-1.9v-0.3l-1-0.4v-2.5v-0.4v-2.9c0.2-0.1,0.9-0.2,1.9-0.2c1,0,1.7,0.1,1.9,0.2V32.4z"/>
			</g>
			<text id="XMLID_876_" transform="matrix(1 0 0 1 57.3302 71.9288)" class="st7 st8 st9">30 864 976</text>
			<text id="XMLID_875_" transform="matrix(1 0 0 1 57.6635 35.4097)" class="st10 st11 st12">总诊疗人数（人）</text>
			<text id="XMLID_874_" transform="matrix(1 0 0 1 37.1917 112.2448)" class="st10 st11 st13">与上年相比</text>
			<text id="XMLID_873_" transform="matrix(1 0 0 1 131.3008 112.2449)" class="st10 st11 st13">1.54‰</text>
			<polygon id="XMLID_870_" class="st14" points="128.9,116.2 119,117.6 121.3,115.3 120.3,114.8 118.3,113.4 116.7,111.9 
				115.2,110 114.2,108.1 113.6,105.8 113.5,103.6 113.7,101.4 114,100.3 114.5,99.1 122.4,102.3 122,103 121.6,103.5 121.2,104.8 
				121,106 121,107.3 121.2,108.7 121.7,109.9 122.4,111.1 123.4,112.1 124.8,108.3 			"/>
		</g>
		<g id="XMLID_839_" class="st5">
			<text id="XMLID_868_" transform="matrix(1 0 0 1 356.611 112.2451)" class="st10 st11 st13">2.95‰</text>
			<text id="XMLID_867_" transform="matrix(1 0 0 1 260.8915 112.2847)" class="st10 st11 st13">与上年相比</text>
			<text id="XMLID_866_" transform="matrix(1 0 0 1 287.8127 71.929)" class="st7 st8 st9">23 837 414</text>
			<text id="XMLID_865_" transform="matrix(1 0 0 1 288.3127 35.4094)" class="st10 st11 st12">门诊人数（人）</text>
			<polygon id="XMLID_862_" class="st14" points="350.7,116.2 340.8,117.6 343.1,115.3 342.1,114.8 340.1,113.4 338.4,111.9 
				337,110 336,108.1 335.4,105.8 335.3,103.6 335.5,101.4 335.8,100.3 336.3,99.1 344.2,102.3 343.8,103 343.4,103.5 343,104.8 
				342.8,106 342.8,107.3 343,108.7 343.5,109.9 344.2,111.1 345.2,112.1 346.6,108.3 			"/>
			<g id="XMLID_840_">
				<path id="XMLID_861_" class="st6" d="M253.6,42.7c0.3,0.7,1.1,1.6,2.2,1.9c0.6-0.9,0.6-2.1,0.3-2.9l-0.6-1.5l-0.2,0.1
					c0,0,0,0,0,0c-0.3-0.7-0.9-1.1-1.5-0.8l-0.2,0.1c-0.5,0.2-0.7,1-0.5,1.7c0,0,0,0,0,0l-0.1,0L253.6,42.7z"/>
				<path id="XMLID_860_" class="st6" d="M252,79.1c0,1.3,1.1,2.4,2.4,2.4c1.3,0,2.4-1.1,2.4-2.4V64.8c-0.9,0-3.1-0.1-4.7-0.5V79.1z
					"/>
				<path id="XMLID_859_" class="st6" d="M261.9,26.5L261.9,26.5c0-1.2-2-2.1-4.5-2.1c-2.4,0-4.4,0.9-4.5,2.1h0v2h8.9V26.5z"/>
				<path id="XMLID_851_" class="st6" d="M260.1,61c0-0.6,0.5-1.1,1.1-1.1h2.3c0.1-0.5,0.3-0.9,0.6-1.2l-0.6-15.1
					c1.8,3.6,2.3,7.7,1.5,11.8c0,0.1-0.1,0.6-0.1,0.7c0,1,0.6,1.9,1.5,2.2c0.9,0.3,1.9-0.2,2.4-1.2c0.1-0.1,0.2-0.5,0.2-0.7
					c1.3-6.5-0.2-13.2-4.2-18.4c0,0-1-1.4-2.9-2c0.1,0.1,0.2,0.2,0.2,0.4c1,1.9-0.2,4.9-0.7,6.1c0.2,0.2,0.2,0.4,0.2,0.7
					c-0.1,0.5-0.5,0.8-1,0.7c-0.5-0.1-0.8-0.5-0.7-1c0.1-0.5,0.5-0.8,1-0.7c0,0,0,0,0,0c0.5-1.2,1.5-3.9,0.7-5.5
					c-0.2-0.4-0.5-0.7-0.9-0.9c-0.3,0-0.6-0.1-1-0.1h-4.6c0,0-0.1,0-0.1,0c-0.4,0.2-0.7,0.4-0.9,0.7c-0.5,0.8-0.5,1.9-0.4,2.5
					c0.8-0.2,1.7,0.4,2.1,1.3c0,0,0,0,0,0l-0.1,0l0.6,1.5c0.4,0.9,0.4,2.1-0.2,3c0.3,0,0.6,0,0.9-0.1c0-0.1,0.1-0.2,0.2-0.2
					c0.2-0.1,0.3,0.3,0.3,0.3s0.2,0.3,0,0.4c-0.1,0.1-0.3,0-0.4-0.1c-0.4,0.1-0.8,0.1-1.2,0.1c-0.2,0.3-0.6,0.5-0.9,0.7
					c0,0.2-0.1,0.3-0.2,0.4c-0.2,0.1-0.3-0.3-0.3-0.3s-0.2-0.3,0-0.4c0.1,0,0.2,0,0.3,0c0.3-0.2,0.5-0.3,0.7-0.5
					c-1-0.3-1.9-1.1-2.3-2l-0.6-1.5l-0.2,0.1c0,0,0,0,0,0c-0.4-1-0.1-2,0.7-2.4c-0.1-0.4-0.2-1.3,0.1-2.1c0,0,0,0,0,0v-0.1
					c0.1-0.3,0.2-0.6,0.4-0.8c0.1-0.1,0.2-0.2,0.2-0.3c-1.8,0.3-3,1.4-3.6,1.9v0c-0.5,0.5-0.9,1-1.2,1.6c-2.7,5.1-2.9,10,0,14.8
					c0.1,0.1,0.3,0.5,0.3,0.5c0.4,0.7,1.4,1,2.2,0.6c0.8-0.4,1.2-1.3,1-2.1c0,0-0.2-0.4-0.2-0.4c-1.5-3-2-5.4-1.5-8.1
					c0.1-0.3,0.3-0.7,0.4-1l-0.2,4.6c0.2,1.4,0.7,2.8,1.5,4.3c0,0.1,0.2,0.5,0.2,0.5c0.3,1-0.2,2-1.1,2.5c-0.3,0.1-0.6,0.2-0.9,0.2
					l0,0.9h0l-0.3,6.6c0,0.7,3,1.3,6.7,1.4h0.5c0.9,0,1.7,0,2.5-0.1V61z M257.4,60.4c-0.3,0-0.6-0.2-0.6-0.6c0-0.3,0.2-0.6,0.6-0.6
					c0.3,0,0.6,0.2,0.6,0.6C258,60.1,257.7,60.4,257.4,60.4z M257.4,56.1c-0.3,0-0.6-0.2-0.6-0.6c0-0.3,0.2-0.6,0.6-0.6
					c0.3,0,0.6,0.2,0.6,0.6C258,55.8,257.7,56.1,257.4,56.1z M257.4,51.8c-0.3,0-0.6-0.2-0.6-0.6c0-0.3,0.2-0.6,0.6-0.6
					c0.3,0,0.6,0.2,0.6,0.6C258,51.6,257.7,51.8,257.4,51.8z M257.4,47.5c-0.3,0-0.6-0.2-0.6-0.6c0-0.3,0.2-0.6,0.6-0.6
					c0.3,0,0.6,0.2,0.6,0.6C258,47.3,257.7,47.5,257.4,47.5z M257.4,43.2c-0.3,0-0.6-0.2-0.6-0.6c0-0.3,0.2-0.6,0.6-0.6
					c0.3,0,0.6,0.2,0.6,0.6C258,43,257.7,43.2,257.4,43.2z M257.4,38.9c-0.3,0-0.6-0.2-0.6-0.6c0-0.3,0.2-0.6,0.6-0.6
					c0.3,0,0.6,0.2,0.6,0.6C258,38.7,257.7,38.9,257.4,38.9z"/>
				<path id="XMLID_850_" class="st6" d="M260.1,68.5v-3.8c-0.9,0.1-1.8,0.1-2.2,0.1v14.3c0,1.3,1.1,2.4,2.4,2.4
					c1.3,0,2.4-1.1,2.4-2.4v-9.5h-1.4C260.6,69.6,260.1,69.1,260.1,68.5z"/>
				<path id="XMLID_846_" class="st6" d="M272.5,60.2H270c0-0.9-0.7-1.6-1.5-1.6h-3.2c-0.8,0-1.5,0.7-1.5,1.6h-2.6
					c-0.4,0-0.8,0.3-0.8,0.8v7.5c0,0.4,0.3,0.8,0.8,0.8h11.3c0.4,0,0.8-0.3,0.8-0.8V61C273.3,60.6,273,60.2,272.5,60.2z M265.3,59.6
					h3.2c0.3,0,0.5,0.3,0.6,0.6h-4.4C264.7,59.9,265,59.6,265.3,59.6z M269.4,66h-1.5v1.5h-2.1V66h-1.5V64h1.5v-1.5h2.1V64h1.5V66z"
					/>
				<rect id="XMLID_845_" x="258.4" y="30.7" class="st6" width="2.3" height="1.1"/>
				<rect id="XMLID_844_" x="254.2" y="30.7" class="st6" width="2.3" height="1.1"/>
				<path id="XMLID_841_" class="st6" d="M257.3,35.2c2.4,0,4.4-2.2,4.4-5c0-0.4-0.1-0.9-0.2-1.3h-8.5c-0.1,0.4-0.2,0.8-0.2,1.3
					C253,32.9,254.9,35.2,257.3,35.2z M253.8,32v-1.5c0-0.1,0.1-0.2,0.2-0.2h2.6c0.1,0,0.2,0.1,0.2,0.2v0.6h1.2v-0.6
					c0-0.1,0.1-0.2,0.2-0.2h2.6c0.1,0,0.2,0.1,0.2,0.2V32c0,0.1-0.1,0.2-0.2,0.2h-2.6c-0.1,0-0.2-0.1-0.2-0.2v-0.6h-1.2V32
					c0,0.1-0.1,0.2-0.2,0.2H254C253.9,32.2,253.8,32.1,253.8,32z"/>
			</g>
		</g>
		<g id="XMLID_804_" class="st5">
			<text id="XMLID_838_" transform="matrix(1 0 0 1 577.814 113.1286)" class="st10 st11 st13">6.03‰</text>
			<text id="XMLID_837_" transform="matrix(1 0 0 1 484.9106 112.2847)" class="st10 st11 st13">与上年相比</text>
			<g id="XMLID_834_">
				<text id="XMLID_491_" transform="matrix(1 0 0 1 523.2676 71.9289)" class="st7 st8 st9">1 702 005</text>
			</g>
			<text id="XMLID_833_" transform="matrix(1 0 0 1 523.2676 35.4094)" class="st10 st11 st12">急诊人数（人）</text>
			<polygon id="XMLID_830_" class="st14" points="573.2,104.9 566.4,97.7 559.5,104.9 563.4,104.9 563.4,105.5 563.4,106.4 
				563.2,107.7 563,108.6 562.7,109.5 562.5,110.5 562.2,111.4 561.9,112.1 561.5,113.2 561.1,113.8 560.5,114.9 560.2,115.4 
				559.7,116 559.2,116.7 558.7,117.2 558.2,117.7 557.7,118.1 557.4,118.4 557.2,118.5 558.4,118.4 559.6,118.1 560.4,117.8 
				561.5,117.4 562.5,116.8 563.7,116 564.3,115.6 565.1,114.8 566,113.8 566.6,113.1 567.3,112 568,110.7 568.8,109.1 569.5,107.3 
				569.8,105.8 569.9,104.9 			"/>
			<g id="XMLID_805_">
				<path id="XMLID_829_" class="st6" d="M471.2,37.7c-0.2-1.5-0.4-3-0.6-4.4c-0.1-0.4,0-0.7,0.4-0.9c0.1-0.1,0.2-0.3,0.2-0.4
					c-0.1-0.1-0.2-0.2-0.4-0.2c-0.1,0-0.3,0.1-0.4,0.2c-0.1,0.1-0.3,0.2-0.4,0.2c-0.4,0.1-0.5,0.2-0.3,0.6c0.2,0.3,0.3,0.7,0.4,1.1
					c0.1,0.9,0.3,1.8,0.3,2.8c0.1,0.9,0.3,3.3-0.2,4.2c-0.1,0.1,0.1,0.3,0.2,0.4c0.1,0.1,0.3,0.1,0.3,0c0.2-0.2,0.4-0.4,0.8-0.2
					c0,0,0.1,0,0.1,0c0.3-0.1,0.2-0.3,0.1-0.5C471.4,40,471.2,38.1,471.2,37.7z"/>
				<path id="XMLID_828_" class="st6" d="M484,32.1c-0.2,0-0.3-0.1-0.4-0.2c-0.1-0.1-0.3-0.2-0.4-0.2c-0.1,0-0.3,0.1-0.4,0.2
					c0,0.1,0.1,0.3,0.2,0.4c0.4,0.2,0.4,0.6,0.4,0.9c-0.2,1.5-0.4,3-0.6,4.4c-0.1,0.4-0.2,2.3-0.4,2.7c-0.1,0.2-0.2,0.4,0.1,0.5
					c0,0,0.1,0,0.1,0c0.3-0.1,0.5,0,0.8,0.2c0.1,0.1,0.3,0,0.3,0c0.1-0.1,0.2-0.3,0.2-0.4c-0.6-1-0.4-3.3-0.3-4.2
					c0.1-0.9,0.2-1.9,0.3-2.8c0.1-0.4,0.2-0.7,0.4-1.1C484.5,32.3,484.4,32.1,484,32.1z"/>
				<path id="XMLID_827_" class="st6" d="M498.3,32.4C498.3,32.4,498.3,32.4,498.3,32.4c-0.5,0.1-0.9,0.3-1.4,0.5
					c0.2,2.3,1.5,4.4,2.8,4.4c1.3,0,2.6-2.1,2.8-4.4c-0.4-0.2-0.9-0.4-1.4-0.5l-1.4,1.4L498.3,32.4z"/>
				<path id="XMLID_809_" class="st6" d="M503.3,33.3C503.2,33.3,503.2,33.3,503.3,33.3c-0.3,2.3-1.6,4.6-3.3,4.8
					c-0.2,1.2,0.2,1.6,0.7,2.2c0.9,1,1.4,1.9-0.1,4.4c0.1,0.2,0.2,0.4,0.2,0.6c0,0.6-0.5,1-1,1c-0.6,0-1-0.5-1-1c0-0.6,0.5-1,1-1
					c0.1,0,0.1,0,0.2,0c1.3-2.2,0.8-2.7,0.2-3.4c-0.5-0.6-1.1-1.3-0.9-2.7c-1.6-0.4-2.8-2.6-3-4.8c-0.1,0-0.2,0.1-0.2,0.1
					c-0.6,0.4-1.2,0.8-1.8,1.2c-2.1-0.5-3-1.7-4.9-4.2c-0.4-0.5-0.8-1-1.2-1.6v-7.3c0-0.5-0.4-1-1-1h-20.2c-0.5,0-1,0.4-1,1v20.2
					c0,0.5,0.4,1,1,1h20.2c0.5,0,1-0.4,1-1v-6.1c1.4,1.6,3.1,2.7,5.9,3.2v3c0,0,0,0,0,0c0,0,0,5.7,0,7.8c0,1.8,0.4,2.1,0.4,2.1
					l0,20.7c0,1.4,1.2,2.6,2.6,2.6c1.4,0,2.6-1.2,2.6-2.6l0-17.9c0.1,0,0.2,0,0.3,0c0,0,0,0,0.1,0l0,17.9c0,1.4,1.2,2.6,2.6,2.6
					c1.4,0,2.6-1.2,2.6-2.6l0-20.7c0,0,0.4-0.8,0.4-2.1c0-1.3,0-7.9,0-7.9c0.6,1.7,0.9,4,0.6,7.2c-0.1,1.2,0.8,2.3,1.9,2.4
					c0.1,0,0.1,0,0.2,0c1.1,0,2.1-0.8,2.2-2C511.3,39.6,507.5,35.9,503.3,33.3z M487.1,21.6l0,6.2c-0.7-0.5-1.8-0.5-2.5,0.1
					c-0.4,0.3-0.6,0.7-0.7,1.2c0-0.2,0-0.4-0.1-0.5c-0.1-0.9-0.2-1.9-0.2-2.8c0-0.4,0.1-0.8,0.2-1.1c0.1-0.4,0-0.6-0.4-0.6
					c-0.2,0-0.3-0.1-0.5-0.1c-0.1,0-0.3-0.1-0.4-0.1c0.2-0.4,0.1-0.8,0-1c-0.2-0.4-0.7-0.4-1-0.4c-0.1,0-0.1,0-0.1,0c0,0,0,0,0,0
					c-0.2,0-1.7,0.4-2.1,1.2c-0.1,0.1-0.1,0.3-0.1,0.4c-0.1,0-0.2,0-0.2,0c-0.3,0-0.5,0.1-0.7,0.1V24c0-0.2-0.1-0.4-0.2-0.5
					c0-0.1,0.1-0.1,0.1-0.2V23c0,0,0-0.1,0-0.1c0.2-0.1,0.3-0.3,0.3-0.5v-0.1c0-0.1,0-0.5-0.3-0.7H487.1z M481.7,29.5
					c-0.1,0.2-0.3,0.3-0.7,0.3c-0.4,0.1-1,0-1.5-0.2c-1.1-0.4-1.7-1.1-1.6-1.5c0-0.1,0.2-0.2,0.3-0.3c0.3,0.2,0.6,0.4,1,0.5
					c0.5,0.2,1,0.3,1.4,0.3c0.1,0,0.3,0,0.4,0c0,0,0.1,0,0.1,0C481.6,28.9,481.8,29.3,481.7,29.5z M481.7,31.3
					c-0.1,0.2-0.3,0.3-0.7,0.3c-0.4,0.1-1,0-1.5-0.2c-1.1-0.4-1.7-1.1-1.6-1.5c0-0.1,0.2-0.2,0.4-0.3c0.3,0.2,0.6,0.4,1,0.5
					c0.5,0.2,1,0.3,1.4,0.3c0.1,0,0.3,0,0.4,0c0,0,0,0,0.1,0C481.5,30.8,481.8,31.1,481.7,31.3z M481.6,27.6
					c-0.1,0.2-0.3,0.3-0.7,0.3c-0.4,0.1-1,0-1.5-0.2c-1.1-0.4-1.7-1.1-1.6-1.5c0.1-0.1,0.3-0.3,0.5-0.3c0.2,0.2,0.5,0.3,0.8,0.4
					c0.3,0.1,0.5,0.2,0.8,0.2c0,0,0,0.1,0.1,0.1c0,0.1,0.1,0.1,0.2,0.1c0,0,0,0,0,0c0.1,0,0.2,0,0.2-0.1l0.1-0.1c0.1,0,0.1,0,0.2,0
					C481.4,26.9,481.7,27.4,481.6,27.6z M478.2,24.8c0.1-0.2,0.3-0.3,0.7-0.3c0.1,0,0.2,0,0.3,0c0.1,0.5,0.3,1,0.5,1.4
					c-0.1,0-0.3-0.1-0.4-0.1c-0.4-0.1-0.7-0.4-1-0.6C478.2,25.1,478.1,24.9,478.2,24.8z M477.8,31.2c0.4,0.3,0.8,0.6,1.4,0.8
					c0.3,0.1,0.7,0.2,1,0.2c0.3,0.4,0.4,0.7,0.3,0.9c-0.1,0.2-0.4,0.2-0.7,0.2c-0.4,0-1-0.2-1.4-0.5c-0.3-0.2-0.6-0.5-0.9-0.7
					C477.8,31.9,477.9,31.5,477.8,31.2z M475.5,40.6c0.2,0,0.4,0.2,0.7,0.4c-0.2,0.2-0.3,0.3-0.4,0.3c-0.2-0.1-0.4-0.3-0.6-0.4
					C475.3,40.8,475.3,40.6,475.5,40.6z M475.5,38.6c0.3-0.2,0.5-0.2,0.7,0.1c0.2,0.3,0.4,0.6,0.7,0.8c0.1,0.1,0.4,0.1,0.4,0
					c0.3-0.2,0.5-0.5,0.7-0.8c0.1-0.1,0.4-0.3,0.5-0.3c0.2,0.1,0.5,0.3,0.5,0.5c0,0.3-0.1,0.8-0.3,0.9c-0.8,1-2.9,0.5-3.3-0.1
					C475.1,39.4,475.2,38.9,475.5,38.6z M476,41.8c0.1,0,0.3-0.1,0.5-0.2c0.5-0.3,1-0.3,1.5,0c0.2,0.1,0.3,0.2,0.5,0.2L476,41.8
					L476,41.8z M478.3,41c0.2-0.2,0.3-0.4,0.5-0.5c0.2,0,0.2,0.1,0.5,0.3c-0.3,0.2-0.5,0.3-0.7,0.4C478.6,41.3,478.4,41.1,478.3,41z
					 M479,41.8c0.3-0.1,0.6-0.4,0.7-0.9c0.1-0.3,0.1-1,0.6-1.2c0.7-0.6,1.7-1.4,1.4-2.2c-0.1-0.3-0.2-0.7-0.4-1
					c-0.6-1-1.7-1.1-2.6-0.4c-0.3,0.3-0.6,0.6-0.9,0.9c-0.5,0.5-0.9,0.6-1.4,0c-0.3-0.3-0.6-0.6-0.9-0.9c-0.9-0.8-2-0.6-2.7,0.5
					c-0.5,0.8-0.4,1.5,0.2,2.2c0.2,0.2,0.3,0.5,0.5,0.8c0.7,0.5,0.8,1,0.9,1.4c0.1,0.5,0.4,0.8,0.7,0.9h-8.5V21.6h9.7
					c-0.1,0.1-0.1,0.1-0.1,0.2c0,0.1,0.1,0.2,0.2,0.3c0.1,0.1,1,0,1,0c0,0,0,0,0,0v0.2c0,0,0,0,0,0h-0.7c-0.2,0-0.3,0.1-0.3,0.3
					c0,0.2,0.1,0.3,0.3,0.3h0.6c0,0,0,0,0,0v0.2h-0.4c-0.1,0-0.2,0.1-0.3,0.2c-0.3,0.1-0.4,0.3-0.4,0.6v0.2
					c-0.2-0.1-0.4-0.1-0.7-0.1c-0.2,0-0.4,0-0.6,0.1c0-0.2,0-0.3-0.1-0.5c-0.4-0.8-1.9-1.2-2.1-1.2c0,0,0,0,0,0c0,0-0.1,0-0.1,0
					c-0.3,0-0.7,0.1-1,0.4c-0.2,0.3-0.2,0.6,0,1c0,0,0,0,0,0c0,0-0.1,0-0.1-0.1c-0.1,0-0.3,0.1-0.4,0.1c-0.2,0-0.3,0.1-0.5,0.1
					c-0.4,0-0.5,0.1-0.4,0.6c0.1,0.4,0.2,0.7,0.2,1.1c0,0.9-0.1,1.9-0.2,2.8c-0.1,0.9-0.1,1.8-0.8,2.6c-0.1,0.1,0,0.3,0.1,0.4
					c0,0.1,0.2,0.1,0.3,0.1c0.3-0.2,0.5-0.3,0.8-0.1c0,0,0.1,0,0.1,0c0.3,0,0.2-0.2,0.2-0.5c-0.1-0.4-0.2-0.9-0.1-1.3
					c0.1-1.5,0.2-3,0.3-4.5c0-0.4,0.1-0.7,0.5-0.9c0.1,0,0.3-0.3,0.2-0.4c0,0,0,0,0,0l0.6,0.7l0.5,0.7c0,0.1,0,0.2,0,0.3
					c0,0,0,0.1,0.1,0.1c-0.8,0.5-1.1,1.2-0.9,1.8c0.1,0.2,0.2,0.4,0.4,0.5c-0.4,0.4-0.6,0.9-0.4,1.3c0.1,0.2,0.2,0.4,0.4,0.5
					c-0.4,0.4-0.6,0.9-0.4,1.3c0.1,0.4,0.6,0.7,1.2,0.8c0,0,0,0,0,0c-0.2,0.5-0.3,0.9-0.1,1.3c0.2,0.3,0.6,0.5,1.1,0.5
					c0.1,0,0.1,0,0.2,0c0.5,0,1.2-0.3,1.7-0.6c0.1-0.1,0.3-0.2,0.4-0.3c0,0,0,0,0,0h1.1c0,0,0,0,0,0c0,0,0.1,0.1,0.1,0.1
					c0,0,0,0,0,0.1v0.1c0,0.1-0.1,0.2-0.2,0.2h-1.1c-0.2,0-0.3,0.1-0.3,0.3c0,0.1,0,0.2,0.1,0.2c0,0.1,0.1,0.2,0.3,0.2h0.9
					c0.1,0,0.1,0.1,0.1,0.1v0.1c0,0.1-0.1,0.1-0.1,0.1h-0.9c-0.2,0-0.3,0.1-0.3,0.3c0,0.1,0.1,0.2,0.2,0.3c0.1,0.1,0.1,0.1,0.2,0.1
					h0.7c0,0,0,0,0,0v0.1c0,0,0,0,0,0h-0.7c-0.2,0-0.3,0.1-0.3,0.3c0,0.2,0.1,0.3,0.3,0.3h0.6c0,0,0,0,0,0v0.2h-0.4
					c-0.2,0-0.3,0.1-0.3,0.3c0,0.2,0.1,0.3,0.3,0.3h0.5c0.3,0,0.5-0.2,0.5-0.5v-0.3c0,0,0-0.1,0-0.1c0.2-0.1,0.3-0.3,0.3-0.5v-0.1
					c0-0.1,0-0.2-0.1-0.3c0.2-0.1,0.3-0.3,0.3-0.5v-0.1c0-0.2-0.1-0.3-0.1-0.4c0.1-0.1,0.2-0.3,0.2-0.4c0.5,0.2,0.9,0.4,1.4,0.4
					c0.1,0,0.1,0,0.2,0c0.5,0,0.9-0.2,1.1-0.5c0.2-0.3,0.2-0.8-0.1-1.3c0,0,0,0,0,0c0.6-0.1,1-0.4,1.2-0.8c0.2-0.4,0-0.9-0.4-1.3
					c0.2-0.1,0.4-0.3,0.4-0.5c0.2-0.4,0-0.9-0.4-1.3c0.2-0.1,0.3-0.3,0.4-0.5c0.2-0.6-0.2-1.2-0.9-1.8c0,0,0-0.1,0.1-0.1
					c0.1-0.2,0-0.4-0.1-0.6l0.2-0.4l0.6-0.6c0,0.1,0.1,0.2,0.2,0.3c0.4,0.1,0.5,0.5,0.5,0.9c0.1,1.5,0.2,3,0.3,4.5
					c0,0.4-0.1,0.9-0.1,1.3c0,0.2-0.1,0.4,0.2,0.5c0,0,0.1,0,0.1,0c0.3-0.2,0.5-0.1,0.8,0.1c0.1,0,0.3,0,0.3-0.1
					c0-0.1,0.1-0.2,0.1-0.3c0.5,0.6,0.9,1.1,1.3,1.7c0.4,0.5,0.8,1.1,1.2,1.5v7.3L479,41.8L479,41.8z M475.2,26.3
					c0.3-0.1,0.6-0.2,0.8-0.4c0.3,0.1,0.5,0.2,0.5,0.3c0.1,0.4-0.5,1.1-1.6,1.5c-0.5,0.2-1.1,0.3-1.5,0.2c-0.4,0-0.6-0.2-0.7-0.3
					c-0.1-0.2,0.2-0.7,0.8-1.1l0.1,0.1c0,0.1,0.1,0.1,0.2,0.1c0,0,0,0,0,0c0.1,0,0.2,0,0.2-0.1c0,0,0-0.1,0.1-0.1c0,0,0.1,0,0.1,0
					C474.5,26.5,474.8,26.5,475.2,26.3z M474.3,26.1c0.2-0.4,0.4-0.9,0.6-1.4c0.2-0.1,0.5-0.1,0.7-0.1c0.4,0,0.6,0.1,0.7,0.3
					c0,0.1,0,0.3-0.2,0.5c-0.2,0.2-0.6,0.4-1,0.6C474.8,26,474.5,26,474.3,26.1z M473.2,28.6c0,0,0.1,0,0.1,0c0.1,0,0.2,0,0.4,0
					c0.5,0,1-0.1,1.4-0.3c0.4-0.1,0.7-0.3,1-0.5c0.1,0.1,0.3,0.1,0.3,0.3c0.1,0.4-0.5,1.1-1.6,1.5c-0.5,0.2-1.1,0.3-1.5,0.2
					c-0.4,0-0.6-0.2-0.7-0.3C472.6,29.3,472.8,28.9,473.2,28.6z M473.2,30.4C473.2,30.4,473.2,30.5,473.2,30.4c0.2,0,0.3,0,0.4,0
					c0.5,0,0.9-0.1,1.4-0.3c0.4-0.1,0.7-0.3,1-0.5c0.2,0.1,0.3,0.2,0.4,0.3c0.1,0.4-0.5,1.1-1.6,1.5c-0.5,0.2-1.1,0.3-1.5,0.2
					c-0.4,0-0.6-0.2-0.7-0.3C472.6,31.1,472.8,30.8,473.2,30.4z M474,32.3c0.3,0,0.7-0.1,1-0.2c0.6-0.2,1.1-0.5,1.4-0.8
					c0,0.3,0.1,0.6,0.3,1c-0.2,0.3-0.5,0.5-0.9,0.7c-0.5,0.3-1,0.5-1.4,0.5c-0.4,0-0.6-0.1-0.7-0.2C473.6,33.1,473.7,32.7,474,32.3z
					"/>
				<path id="XMLID_806_" class="st6" d="M499.7,32.1c2.9,0,5.3-2.4,5.3-5.3c0-1.2-0.4-2.3-1.1-3.2h-1.7v-0.8h0.9
					c-0.3-0.3-0.7-0.5-1.1-0.7c-0.4-0.9-1.3-1.5-2.3-1.5c-1,0-1.9,0.6-2.3,1.5c-0.4,0.2-0.7,0.4-1.1,0.7h1.1v0.8h-1.8
					c-0.7,0.9-1.1,2-1.1,3.2C494.4,29.8,496.7,32.1,499.7,32.1z M499.7,21.7c0.8,0,1.4,0.6,1.4,1.4c0,0.8-0.6,1.4-1.4,1.4
					c-0.8,0-1.4-0.6-1.4-1.4C498.2,22.4,498.9,21.7,499.7,21.7z"/>
			</g>
		</g>
		<g id="XMLID_782_" class="st5">
			<g id="XMLID_801_">
				<text id="XMLID_497_" transform="matrix(1 0 0 1 755.1962 71.9289)" class="st7 st8 st9">976 419</text>
			</g>
			<text id="XMLID_800_" transform="matrix(1 0 0 1 806.9427 112.2451)" class="st10 st11 st13">1.24‰</text>
			<text id="XMLID_799_" transform="matrix(1 0 0 1 711.0768 112.2847)" class="st10 st11 st13">与上年相比</text>
			<text id="XMLID_798_" transform="matrix(1 0 0 1 755.1962 35.4094)" class="st10 st11 st12">入院人数（人）</text>
			<polygon id="XMLID_795_" class="st14" points="801.2,104.9 794.3,97.7 787.5,104.9 791.4,104.9 791.4,105.5 791.3,106.4 
				791.1,107.7 790.9,108.6 790.7,109.5 790.5,110.5 790.2,111.4 789.9,112.1 789.4,113.2 789.1,113.8 788.5,114.9 788.2,115.4 
				787.7,116 787.2,116.7 786.7,117.2 786.2,117.7 785.7,118.1 785.3,118.4 785.1,118.5 786.3,118.4 787.6,118.1 788.4,117.8 
				789.5,117.4 790.5,116.8 791.7,116 792.2,115.6 793.1,114.8 794,113.8 794.5,113.1 795.2,112 796,110.7 796.8,109.1 797.4,107.3 
				797.8,105.8 797.9,104.9 			"/>
			<g id="XMLID_783_">
				<path id="XMLID_794_" class="st6" d="M720.3,44.7c-5.6,1.2-8.4-1.4-8.5-1.5c-0.7-0.7-1.8-0.7-2.6,0c-0.7,0.7-0.7,1.9,0,2.6
					c0.1,0.1,2.9,2.9,8.2,2.9c1.1,0,2.3-0.1,3.6-0.4c1-0.2,1.6-1.2,1.4-2.2C722.3,45.1,721.3,44.4,720.3,44.7z"/>
				<circle id="XMLID_793_" class="st6" cx="703.9" cy="39.9" r="4.1"/>
				<path id="XMLID_792_" class="st6" d="M741.6,56.6l-7.6-3.1c-0.3-0.1-0.5-0.2-0.8-0.2h-1.9V53c0-0.2-0.1-0.4-0.1-0.6l7.2,2
					c0.2,0.1,0.4,0.1,0.6,0.1c1,0,1.8-0.6,2.1-1.6c0.3-1.2-0.4-2.3-1.5-2.7l-9.5-2.6c-0.2-0.1-0.4-0.1-0.6-0.1l-6.5,0
					c-0.3,0.7-0.9,1.3-1.7,1.5c-1.1,0.2-2.2,0.4-3.2,0.4c-5.3,0-8.8-2.8-9-2.9c-0.5-0.4-0.8-1-0.9-1.7c-0.1-0.7,0.1-1.3,0.5-1.8
					c0.5-0.6,1.2-0.9,1.9-0.9c0.6,0,1.1,0.2,1.5,0.5c0.1,0.1,1.5,1.1,3.7,1.6l-4-2.6c-1.4-0.9-3.1-0.3-4.2,0.7c0,0-0.3,0.3-0.6,0.7
					c-0.2,0.4-0.4,0.8-0.4,0.8l0,0c-0.5,1.3-0.3,3.2,1.1,4.1l7.6,4.9c0.1,0.1,0.2,0.1,0.3,0.2c0,0,0,0,0,0v0.4h-2.2l-10.1-7
					c0.1-0.1,0.1-0.1,0.1-0.2c0.4-0.6,0.2-1.4-0.4-1.7l-3.4-2.1c-0.6-0.4-1.3-0.2-1.7,0.4c-1-0.5-2.2-0.2-2.8,0.7
					c-0.7,1-0.4,2.4,0.6,3.1l15.8,10.9c0.4,0.3,0.8,0.4,1.3,0.4h2.9c0.2,0.5,0.7,0.9,1.2,0.9h2.8v10.4h-1.4c-0.6,0-1.1,0.5-1.1,1.1
					c0,0.6,0.5,1.1,1.1,1.1h10.3c0.6,0,1.1-0.5,1.1-1.1c0-0.6-0.5-1.1-1.1-1.1h-1.5V58.7h2.8c0.6,0,1-0.4,1.2-0.9h1.6l7.2,2.9
					c0.3,0.1,0.6,0.2,0.8,0.2c0.9,0,1.7-0.5,2.1-1.4C743.3,58.4,742.7,57.1,741.6,56.6z"/>
				<path id="XMLID_791_" class="st6" d="M711.1,39c0,1,0.8,1.7,1.7,1.7c4,0,6.3-1.1,7.7-2.4v2.8c-0.1,0.6-0.4,1.6-0.7,2.9
					c0.1,0,0.2,0,0.3-0.1c0.2,0,0.4-0.1,0.5-0.1c1.2,0,2.2,0.8,2.4,1.9c0.1,0.3,0.1,0.7,0,1l6.2,0c0.3,0,0.5,0,0.8,0.1l0.9,0.2
					c-0.5-2.5-1.1-5-1.3-6v-3.3c0.7,1.4,1.1,3.4,1,6.4c0,1,0.7,1.7,1.7,1.8c0,0,0,0,0,0c0.9,0,1.7-0.8,1.7-1.7
					c0.1-8.2-4.2-12.6-8-13.5c0,0,0,0,0,0l-1.1,1.1l-1.1-1.1c-0.6,0.2-2.9,1.2-4.3,3.4c-1.2,1.7-2.3,3.1-6.8,3.1
					C711.9,37.3,711.1,38,711.1,39z"/>
				<path id="XMLID_788_" class="st6" d="M725.2,30.4c2.3,0,4.2-1.9,4.2-4.2c0-1-0.3-1.8-0.9-2.6h-1.3V23h0.7
					c-0.3-0.2-0.5-0.4-0.8-0.6c-0.3-0.7-1-1.2-1.8-1.2c-0.8,0-1.5,0.5-1.8,1.2c-0.3,0.2-0.6,0.3-0.9,0.6h0.8v0.6H722
					c-0.5,0.7-0.9,1.6-0.9,2.6C721.1,28.5,722.9,30.4,725.2,30.4z M725.2,22.2c0.6,0,1.1,0.5,1.1,1.1c0,0.6-0.5,1.1-1.1,1.1
					c-0.6,0-1.1-0.5-1.1-1.1C724.1,22.7,724.6,22.2,725.2,22.2z"/>
				<path id="XMLID_784_" class="st6" d="M713.5,33.1h-1.1v-9.5h-14.7v9.5h-1v2.2h16.9V33.1z M711.1,24.8V29l-4,0
					c-0.1,0-0.2,0.1-0.2,0.2l-0.6,2l-0.6-2c0-0.1-0.1-0.2-0.2-0.2h-0.8l-1.2-3.5c-0.1-0.2-0.3-0.2-0.4,0L702,29h-3.1v-4.2H711.1z
					 M698.9,32.7v-3.2h3.3c0.1,0,0.2-0.1,0.2-0.1l1-3l1,3c0,0.1,0.1,0.1,0.2,0.1h0.8l0.7,2.5c0,0.1,0.1,0.2,0.2,0.2
					c0.1,0,0.2-0.1,0.2-0.2l0.7-2.5l3.9,0v3.2L698.9,32.7L698.9,32.7z"/>
			</g>
		</g>
		<line id="XMLID_781_" class="st15" x1="224.3" y1="20.8" x2="224.3" y2="120.7"/>
		<line id="XMLID_780_" class="st15" x1="443.2" y1="20.8" x2="443.2" y2="120.7"/>
		<line id="XMLID_779_" class="st15" x1="671.9" y1="20.8" x2="671.9" y2="120.7"/>
		<g id="XMLID_709_" class="st5">
			<polyline id="XMLID_778_" class="st17" points="78.2,196.1 78.2,361.3 758.7,361.3 			"/>
			<g id="XMLID_710_">
				<linearGradient id="XMLID_391_" gradientUnits="userSpaceOnUse" x1="418.0919" y1="361.1126" x2="418.0919" y2="240.4313">
					<stop  offset="0" style="stop-color:#00BEFF;stop-opacity:0.1"/>
					<stop  offset="1" style="stop-color:#00FF81;stop-opacity:0.6"/>
				</linearGradient>
				<path id="XMLID_777_" class="st28" d="M162.7,361.1L162.7,361.1c0,0,66.2-57,85.5-68.3c19.3-11.3,64.5-8.5,85-8.5s63.4,0.4,85-6
					s62.3-4.8,85-7.8c22.7-3,68.1-8.1,85-8.1c17,0,85-16.8,85-16.8s-0.6-42.5,0.2,115.5H162.7z"/>
				<line id="XMLID_776_" class="st17" x1="68" y1="328.3" x2="78.2" y2="328.3"/>
				<line id="XMLID_775_" class="st17" x1="68" y1="295.4" x2="78.2" y2="295.4"/>
				<line id="XMLID_774_" class="st17" x1="68" y1="361.3" x2="78.2" y2="361.3"/>
				<line id="XMLID_773_" class="st17" x1="74.8" y1="339.3" x2="78.2" y2="339.3"/>
				<line id="XMLID_772_" class="st17" x1="74.8" y1="306.3" x2="78.2" y2="306.3"/>
				<line id="XMLID_771_" class="st17" x1="74.8" y1="317.3" x2="78.2" y2="317.3"/>
				<line id="XMLID_770_" class="st17" x1="68" y1="262.4" x2="78.2" y2="262.4"/>
				<line id="XMLID_769_" class="st17" x1="74.8" y1="350.3" x2="78.2" y2="350.3"/>
				<line id="XMLID_768_" class="st17" x1="74.8" y1="284.4" x2="78.2" y2="284.4"/>
				<line id="XMLID_767_" class="st17" x1="74.8" y1="273.4" x2="78.2" y2="273.4"/>
				<line id="XMLID_766_" class="st17" x1="74.8" y1="251.4" x2="78.2" y2="251.4"/>
				<line id="XMLID_765_" class="st17" x1="74.8" y1="240.4" x2="78.2" y2="240.4"/>
				<line id="XMLID_764_" class="st17" x1="74.8" y1="207.5" x2="78.2" y2="207.5"/>
				<line id="XMLID_763_" class="st17" x1="74.8" y1="218.5" x2="78.2" y2="218.5"/>
				<line id="XMLID_762_" class="st17" x1="68" y1="196.5" x2="78.2" y2="196.5"/>
				<line id="XMLID_761_" class="st17" x1="68" y1="229.5" x2="78.2" y2="229.5"/>
				<line id="XMLID_760_" class="st18" x1="77.8" y1="328.3" x2="758.4" y2="328.3"/>
				<line id="XMLID_759_" class="st18" x1="77.8" y1="262.4" x2="758.4" y2="262.4"/>
				<line id="XMLID_758_" class="st18" x1="77.8" y1="295.4" x2="758.4" y2="295.4"/>
				<line id="XMLID_757_" class="st18" x1="77.8" y1="229.5" x2="758.4" y2="229.5"/>
				<line id="XMLID_756_" class="st18" x1="77.8" y1="196.5" x2="758.4" y2="196.5"/>
				<path id="XMLID_755_" class="st18" d="M588.3,195.7c0,81.5,0,107.3,0,165.6"/>
				<path id="XMLID_754_" class="st18" d="M758.4,195.7c0,81.5,0,105.8,0,164.1"/>
				<path id="XMLID_753_" class="st18" d="M673.3,195.7c0,81.5,0,165.1,0,165.1"/>
				<path id="XMLID_752_" class="st18" d="M503.3,195.7c0,81.5,0,107.3,0,165.6"/>
				<path id="XMLID_751_" class="st18" d="M418.2,195.7c0,81.5,0,107.3,0,165.6"/>
				<path id="XMLID_750_" class="st18" d="M333.2,195.7c0,81.5,0,107.3,0,165.6"/>
				<path id="XMLID_749_" class="st18" d="M248.1,195.7c0,81.5,0,107.3,0,165.6"/>
				<path id="XMLID_748_" class="st18" d="M163.1,195.7c0,81.5,0,107.3,0,165.6"/>
				<circle id="XMLID_747_" class="st19" cx="163.1" cy="361.3" r="3"/>
				<circle id="XMLID_746_" class="st20" cx="248.1" cy="292.8" r="3"/>
				<circle id="XMLID_745_" class="st20" cx="333.2" cy="284.3" r="3"/>
				<circle id="XMLID_744_" class="st20" cx="418.2" cy="278.3" r="3"/>
				<circle id="XMLID_743_" class="st20" cx="503.3" cy="270.5" r="3"/>
				<circle id="XMLID_742_" class="st20" cx="588.3" cy="262.4" r="3"/>
				<circle id="XMLID_741_" class="st20" cx="673.3" cy="245.6" r="3"/>
				<text id="XMLID_740_" transform="matrix(1 0 0 1 43.1658 200.5983)" class="st21 st22 st23">250</text>
				<text id="XMLID_739_" transform="matrix(1 0 0 1 43.1654 233.4601)" class="st21 st22 st23">200</text>
				<text id="XMLID_738_" transform="matrix(1 0 0 1 45.2224 266.322)" class="st21 st22 st23">150</text>
				<text id="XMLID_737_" transform="matrix(1 0 0 1 49.8396 332.0452)" class="st21 st22 st23">50</text>
				<text id="XMLID_736_" transform="matrix(1 0 0 1 45.2227 299.1838)" class="st21 st22 st23">100</text>
				<text id="XMLID_735_" transform="matrix(1 0 0 1 56.5134 364.9067)" class="st21 st22 st23">0</text>
				<text id="XMLID_734_" transform="matrix(1 0 0 1 145.9153 380.0237)" class="st21 st22 st13">2009</text>
				<text id="XMLID_733_" transform="matrix(1 0 0 1 231.7944 380.0237)" class="st21 st22 st13">2010</text>
				<text id="XMLID_732_" transform="matrix(1 0 0 1 317.6737 380.0237)" class="st21 st22 st13">2011</text>
				<text id="XMLID_731_" transform="matrix(1 0 0 1 401.7916 380.0237)" class="st21 st22 st13">2012</text>
				<text id="XMLID_730_" transform="matrix(1 0 0 1 486.7899 380.0237)" class="st21 st22 st13">2013</text>
				<text id="XMLID_729_" transform="matrix(1 0 0 1 571.7006 380.0237)" class="st21 st22 st13">2014</text>
				<text id="XMLID_728_" transform="matrix(1 0 0 1 656.7872 380.0237)" class="st21 st22 st13">2015</text>
				<text id="XMLID_727_" transform="matrix(1 0 0 1 741.7858 380.0239)" class="st21 st22 st13">2016</text>
				<text id="XMLID_726_" transform="matrix(1 0 0 1 788.119 380.0239)" class="st21 st22 st13">年份</text>
				<text id="XMLID_725_" transform="matrix(1 0 0 1 39.1874 175.0092)" class="st21 st22 st23">万人</text>
				<g id="XMLID_714_">
					<g id="XMLID_719_">
						<rect id="XMLID_721_" x="635.2" y="192" class="st24" width="76.2" height="36.1"/>
						<polygon id="XMLID_720_" class="st25" points="673.3,234.9 677.5,228 669.2,228 						"/>
					</g>
					<text id="XMLID_718_" transform="matrix(1 0 0 1 644.1902 214.7763)" class="st21 st8 st13">1702005</text>
					<g id="XMLID_715_">
						<polyline id="XMLID_717_" class="st26" points="635.2,196.1 635.2,192 640.7,192 						"/>
						<polyline id="XMLID_716_" class="st26" points="707.3,228 711.4,228 711.4,224 						"/>
					</g>
				</g>
				<circle id="XMLID_713_" class="st20" cx="782.6" cy="216" r="6"/>
				<text id="XMLID_712_" transform="matrix(1 0 0 1 794.8336 220.7769)" class="st10 st22 st13">急诊人数</text>
				<path id="XMLID_711_" class="st27" d="M162.7,361.1L162.7,361.1c0,0,66.2-57,85.5-68.3c19.3-11.3,64.5-8.5,85-8.5s63.4,0.4,85-6
					s62.3-4.8,85-7.8c22.7-3,68.1-8.1,85-8.1c17,0,85-16.8,85-16.8"/>
			</g>
		</g>
		<g id="XMLID_691_" class="st5">
			<line id="XMLID_694_" class="st0" x1="865" y1="140.5" x2="25" y2="140.5"/>
			<line id="XMLID_693_" class="st2" x1="866.3" y1="139.7" x2="842.9" y2="139.7"/>
			<line id="XMLID_692_" class="st2" x1="47" y1="139.7" x2="25.7" y2="139.7"/>
		</g>
	</g>
	<g id="入院人数" class="st3">
		<rect id="XMLID_704_" x="691.1" y="10.9" class="st4" width="193.7" height="115.8"/>
		<g id="XMLID_684_" class="st5">
			<rect id="XMLID_703_" x="2.4" y="1.8" class="st0" width="887.2" height="388.3"/>
			<g id="XMLID_685_">
				<g id="XMLID_699_">
					<polyline id="XMLID_702_" class="st1" points="2.4,15.5 2.4,1.8 18.7,1.8 					"/>
					<polyline id="XMLID_701_" class="st1" points="2.4,376.5 2.4,390.2 18.7,390.2 					"/>
				</g>
				<g id="XMLID_686_">
					<polyline id="XMLID_696_" class="st1" points="889.6,15.5 889.6,1.8 873.3,1.8 					"/>
					<polyline id="XMLID_687_" class="st1" points="889.6,376.5 889.6,390.2 873.3,390.2 					"/>
				</g>
			</g>
		</g>
		<g id="XMLID_615_" class="st5">
			<linearGradient id="XMLID_408_" gradientUnits="userSpaceOnUse" x1="418.4582" y1="355.8417" x2="418.4582" y2="235.1603">
				<stop  offset="0" style="stop-color:#00BEFF;stop-opacity:0.1"/>
				<stop  offset="1" style="stop-color:#00FF81;stop-opacity:0.6"/>
			</linearGradient>
			<path id="XMLID_683_" class="st29" d="M163,355.8L163,355.8c0,0,66.2-57,85.5-68.3s64.5-8.5,85-8.5s63.4,0.4,85-6
				c21.7-6.5,62.3-4.8,85-7.8s68.1-8.1,85-8.1s85-16.8,85-16.8s-0.6-42.5,0.2,115.5L163,355.8z"/>
			<polyline id="XMLID_682_" class="st17" points="78.5,190.8 78.5,356 759.1,356 			"/>
			<line id="XMLID_681_" class="st17" x1="68.4" y1="323" x2="78.5" y2="323"/>
			<line id="XMLID_680_" class="st17" x1="68.4" y1="290.1" x2="78.5" y2="290.1"/>
			<line id="XMLID_679_" class="st17" x1="68.4" y1="356" x2="78.5" y2="356"/>
			<line id="XMLID_678_" class="st17" x1="75.1" y1="334" x2="78.5" y2="334"/>
			<line id="XMLID_677_" class="st17" x1="75.1" y1="301.1" x2="78.5" y2="301.1"/>
			<line id="XMLID_676_" class="st17" x1="75.1" y1="312.1" x2="78.5" y2="312.1"/>
			<line id="XMLID_675_" class="st17" x1="68.4" y1="257.1" x2="78.5" y2="257.1"/>
			<line id="XMLID_674_" class="st17" x1="75.1" y1="345" x2="78.5" y2="345"/>
			<line id="XMLID_673_" class="st17" x1="75.1" y1="279.1" x2="78.5" y2="279.1"/>
			<line id="XMLID_672_" class="st17" x1="75.1" y1="268.1" x2="78.5" y2="268.1"/>
			<line id="XMLID_671_" class="st17" x1="75.1" y1="246.2" x2="78.5" y2="246.2"/>
			<line id="XMLID_670_" class="st17" x1="75.1" y1="235.2" x2="78.5" y2="235.2"/>
			<line id="XMLID_669_" class="st17" x1="75.1" y1="202.2" x2="78.5" y2="202.2"/>
			<line id="XMLID_668_" class="st17" x1="75.1" y1="213.2" x2="78.5" y2="213.2"/>
			<line id="XMLID_667_" class="st17" x1="68.4" y1="191.2" x2="78.5" y2="191.2"/>
			<line id="XMLID_666_" class="st17" x1="68.4" y1="224.2" x2="78.5" y2="224.2"/>
			<line id="XMLID_665_" class="st18" x1="78.2" y1="323" x2="758.7" y2="323"/>
			<line id="XMLID_664_" class="st18" x1="78.2" y1="257.1" x2="758.7" y2="257.1"/>
			<line id="XMLID_663_" class="st18" x1="78.2" y1="290.1" x2="758.7" y2="290.1"/>
			<line id="XMLID_662_" class="st18" x1="78.2" y1="224.2" x2="758.7" y2="224.2"/>
			<line id="XMLID_661_" class="st18" x1="78.2" y1="191.2" x2="758.7" y2="191.2"/>
			<path id="XMLID_660_" class="st18" d="M588.7,190.5c0,81.5,0,107.3,0,165.6"/>
			<path id="XMLID_659_" class="st18" d="M758.7,190.5c0,81.5,0,105.8,0,164.1"/>
			<path id="XMLID_658_" class="st18" d="M673.7,190.5c0,81.5,0,165.1,0,165.1"/>
			<path id="XMLID_657_" class="st18" d="M503.6,190.5c0,81.5,0,107.3,0,165.6"/>
			<path id="XMLID_656_" class="st18" d="M418.6,190.5c0,81.5,0,107.3,0,165.6"/>
			<path id="XMLID_655_" class="st18" d="M333.6,190.5c0,81.5,0,107.3,0,165.6"/>
			<path id="XMLID_654_" class="st18" d="M248.5,190.5c0,81.5,0,107.3,0,165.6"/>
			<path id="XMLID_653_" class="st18" d="M163.5,190.5c0,81.5,0,107.3,0,165.6"/>
			<circle id="XMLID_652_" class="st19" cx="163.5" cy="356" r="3"/>
			<circle id="XMLID_651_" class="st20" cx="248.5" cy="287.6" r="3"/>
			<circle id="XMLID_650_" class="st20" cx="333.6" cy="279.1" r="3"/>
			<circle id="XMLID_649_" class="st20" cx="418.6" cy="273" r="3"/>
			<circle id="XMLID_648_" class="st20" cx="503.6" cy="265.2" r="3"/>
			<circle id="XMLID_647_" class="st20" cx="588.7" cy="257.1" r="3"/>
			<circle id="XMLID_646_" class="st20" cx="673.7" cy="240.4" r="3"/>
			<text id="XMLID_645_" transform="matrix(1 0 0 1 52.2626 195.3273)" class="st21 st22 st23">15</text>
			<text id="XMLID_644_" transform="matrix(1 0 0 1 52.2623 228.1891)" class="st21 st22 st23">12</text>
			<text id="XMLID_643_" transform="matrix(1 0 0 1 56.8798 261.051)" class="st21 st22 st23">9</text>
			<text id="XMLID_642_" transform="matrix(1 0 0 1 56.8798 326.7743)" class="st21 st22 st23">3</text>
			<text id="XMLID_641_" transform="matrix(1 0 0 1 56.88 293.9128)" class="st21 st22 st23">6</text>
			<text id="XMLID_640_" transform="matrix(1 0 0 1 56.8798 359.6357)" class="st21 st22 st23">0</text>
			<text id="XMLID_639_" transform="matrix(1 0 0 1 146.2816 374.7528)" class="st21 st22 st13">2009</text>
			<text id="XMLID_638_" transform="matrix(1 0 0 1 232.1608 374.7528)" class="st21 st22 st13">2010</text>
			<text id="XMLID_637_" transform="matrix(1 0 0 1 318.0402 374.7528)" class="st21 st22 st13">2011</text>
			<text id="XMLID_636_" transform="matrix(1 0 0 1 402.1581 374.7528)" class="st21 st22 st13">2012</text>
			<text id="XMLID_635_" transform="matrix(1 0 0 1 487.1561 374.7528)" class="st21 st22 st13">2013</text>
			<text id="XMLID_634_" transform="matrix(1 0 0 1 572.067 374.7528)" class="st21 st22 st13">2014</text>
			<text id="XMLID_633_" transform="matrix(1 0 0 1 657.1537 374.7528)" class="st21 st22 st13">2015</text>
			<text id="XMLID_632_" transform="matrix(1 0 0 1 742.1522 374.7529)" class="st21 st22 st13">2016</text>
			<text id="XMLID_631_" transform="matrix(1 0 0 1 788.4855 374.7529)" class="st21 st22 st13">年份</text>
			<text id="XMLID_630_" transform="matrix(1 0 0 1 39.5533 175.7528)" class="st21 st22 st23">万人</text>
			<g id="XMLID_619_">
				<g id="XMLID_624_">
					<rect id="XMLID_626_" x="635.6" y="186.7" class="st24" width="76.2" height="36.1"/>
					<polygon id="XMLID_625_" class="st25" points="673.7,229.7 677.8,222.8 669.6,222.8 					"/>
				</g>
				<text id="XMLID_623_" transform="matrix(1 0 0 1 648.0565 209.5054)" class="st21 st8 st13">976419</text>
				<g id="XMLID_620_">
					<polyline id="XMLID_622_" class="st26" points="635.6,190.8 635.6,186.7 641.1,186.7 					"/>
					<polyline id="XMLID_621_" class="st26" points="707.7,222.8 711.8,222.8 711.8,218.7 					"/>
				</g>
			</g>
			<circle id="XMLID_618_" class="st20" cx="783" cy="210.8" r="6"/>
			<text id="XMLID_617_" transform="matrix(1 0 0 1 795.2001 215.5059)" class="st10 st22 st13">入院人数</text>
			<path id="XMLID_616_" class="st27" d="M163,355.8L163,355.8c0,0,66.2-57,85.5-68.3s64.5-8.5,85-8.5s63.4,0.4,85-6
				c21.7-6.5,62.3-4.8,85-7.8s68.1-8.1,85-8.1s85-16.8,85-16.8"/>
		</g>
		<g id="XMLID_577_" class="st5">
			<g id="XMLID_585_">
				<rect id="XMLID_614_" x="27.8" y="65.3" class="st6" width="6.6" height="0.8"/>
				
					<ellipse id="XMLID_613_" transform="matrix(0.1647 0.9863 -0.9863 0.1647 51.9807 3.3021)" class="st6" cx="24" cy="32.3" rx="3.6" ry="3.8"/>
				<path id="XMLID_612_" class="st6" d="M32.4,52.4c-0.2,0-1.9,0-3.9-0.1c0.1-0.4,0.2-0.7,0.2-1.1v-2.4h-5.9v-9.4
					c0-0.9,0.7-1.6,1.6-1.6c0.9,0,1.6,0.7,1.6,1.6v6.2h2.8v-4.7c0-2.5-2-4.5-4.5-4.5s-4.5,2-4.5,4.5v10.3c0,0.6,0.1,1.2,0.4,1.8
					c2.4,0.2,4.5,1.2,6,2.8c1.7,0,3.5,0,4.3,0.1c-0.3,2-1.2,7.2-1.2,7.7c0.2,1.6,3,2.2,3.5-0.3c0.1-0.4,1.4-6.6,1.8-8.6h0
					C34.5,53.6,34,52.4,32.4,52.4z"/>
				<path id="XMLID_598_" class="st6" d="M19.3,53.2c-4.8,0-8.8,3.9-8.8,8.8c0,4.8,3.9,8.8,8.8,8.8c4.8,0,8.8-3.9,8.8-8.8
					C28.1,57.1,24.1,53.2,19.3,53.2z M15.3,55.4l3.1,5.4c-0.2,0.1-0.3,0.2-0.4,0.4L12.7,58C13.3,56.9,14.2,56,15.3,55.4z M12.6,58.2
					l5.4,3.1c-0.1,0.2-0.1,0.4-0.1,0.6h-6.2C11.6,60.5,12,59.3,12.6,58.2z M11.6,62h6.2c0,0.2,0.1,0.4,0.1,0.6l-5.4,3.1
					C12,64.6,11.6,63.4,11.6,62z M12.7,65.9l5.4-3.1c0.1,0.2,0.2,0.3,0.4,0.4l-3.1,5.4C14.2,67.9,13.3,67,12.7,65.9z M19.2,69.6
					c-1.3,0-2.6-0.4-3.6-1l3.1-5.4c0.2,0.1,0.4,0.1,0.6,0.1V69.6z M19.2,60.5c-0.2,0-0.4,0.1-0.6,0.1l-3.1-5.4c1.1-0.6,2.3-1,3.6-1
					V60.5z M26.9,61.9h-6.2c0-0.2-0.1-0.4-0.1-0.6l5.4-3.1C26.6,59.3,26.9,60.5,26.9,61.9z M25.9,58l-5.4,3.1
					c-0.1-0.2-0.2-0.3-0.4-0.4l3.1-5.4C24.3,56,25.2,56.9,25.9,58z M19.4,54.3c1.3,0,2.6,0.4,3.6,1l-3.1,5.4
					c-0.2-0.1-0.4-0.1-0.6-0.1V54.3z M19.4,69.6v-6.2c0.2,0,0.4-0.1,0.6-0.1l3.1,5.4C21.9,69.3,20.7,69.6,19.4,69.6z M23.2,68.6
					l-3.1-5.4c0.2-0.1,0.3-0.2,0.4-0.4l5.4,3.1C25.2,67,24.3,67.9,23.2,68.6z M26,65.7l-5.4-3.1c0.1-0.2,0.1-0.4,0.1-0.6h6.2
					C26.9,63.4,26.6,64.6,26,65.7z"/>
				<polygon id="XMLID_597_" class="st6" points="22.2,56.1 19.6,56.1 19.6,58 21.1,58 				"/>
				<path id="XMLID_596_" class="st6" d="M25.5,57.9c-0.5-0.7-1-1.3-1.7-1.8h-0.7L22,58h3.3L25.5,57.9z"/>
				<path id="XMLID_595_" class="st6" d="M18.9,58.1v-3.5c-0.5,0-0.9,0.1-1.4,0.2v1.3V58v0H18.9z"/>
				<path id="XMLID_594_" class="st6" d="M29.2,56.1h-3c0.5,0.6,0.9,1.2,1.3,1.9h1.8V56.1z"/>
				<path id="XMLID_593_" class="st6" d="M17.9,46.4h-0.4v6.7c0.5-0.1,1.1-0.2,1.7-0.2v-6.5h-0.3v-1.7h0l0-0.1l-4.4-0.9l-0.2,0.9
					l3.7,0.7V46.4z"/>
				<path id="XMLID_590_" class="st6" d="M31.1,66.4c-1.2,0-2.2,1-2.2,2.2c0,1.2,1,2.2,2.2,2.2c1.2,0,2.2-1,2.2-2.2
					C33.3,67.4,32.3,66.4,31.1,66.4z M31.1,69.6c-0.6,0-1-0.5-1-1s0.5-1,1-1c0.6,0,1,0.5,1,1S31.6,69.6,31.1,69.6z"/>
				<path id="XMLID_586_" class="st6" d="M49,29v-0.6V28h-0.4h-3.6v-3.8h-0.8V28h-3.5h-0.2h-0.2v1c-1.1,0-2,0.2-2,0.4v6.2l1,0.4v0.4
					h0.9v0.2h0.2v2.5c0,3.5-2.4,9.7-7.9,9.7c-0.9,0-1.7-0.1-2.3-0.3h1.1c0.7,0,1.3-0.6,1.3-1.3c0-0.7-0.6-1.3-1.3-1.3h-5.9v-6.5
					c0-0.7-0.6-1.3-1.3-1.3c-0.7,0-1.3,0.6-1.3,1.3v9.1h0.3h2.3h3.2c0.8,0.5,2,0.8,3.9,0.8c5.9,0,8.4-6.6,8.4-10.2v-2.5v-0.2h0.9V36
					l1-0.4v-6.2c0-0.2-0.9-0.3-2.1-0.4v-0.6h3.5v40.9h-4.8v1.5h10.3v-1.5h-4.8V28.4h3.6V29c-1.1,0-2,0.2-2,0.4v6.2l1,0.4v0.4h2.5V36
					l1-0.4v-6.2C51.1,29.2,50.2,29,49,29z M42.5,32.4h-3.9v-2.9c0.2-0.1,0.9-0.2,1.9-0.2c1,0,1.7,0.1,1.9,0.2V32.4z M50.8,32.4v0.4
					v2.5l-1,0.4v0.3h-1.9v-0.3l-1-0.4v-2.5v-0.4v-2.9c0.2-0.1,0.9-0.2,1.9-0.2c1,0,1.7,0.1,1.9,0.2V32.4z"/>
			</g>
			<text id="XMLID_584_" transform="matrix(1 0 0 1 57.3302 71.9288)" class="st7 st8 st9">30 864 976</text>
			<text id="XMLID_583_" transform="matrix(1 0 0 1 57.6635 35.4097)" class="st10 st11 st12">总诊疗人数（人）</text>
			<text id="XMLID_582_" transform="matrix(1 0 0 1 37.1917 112.2448)" class="st10 st11 st13">与上年相比</text>
			<text id="XMLID_581_" transform="matrix(1 0 0 1 131.3008 112.2449)" class="st10 st11 st13">1.54‰</text>
			<polygon id="XMLID_578_" class="st14" points="128.9,116.2 119,117.6 121.3,115.3 120.3,114.8 118.3,113.4 116.7,111.9 
				115.2,110 114.2,108.1 113.6,105.8 113.5,103.6 113.7,101.4 114,100.3 114.5,99.1 122.4,102.3 122,103 121.6,103.5 121.2,104.8 
				121,106 121,107.3 121.2,108.7 121.7,109.9 122.4,111.1 123.4,112.1 124.8,108.3 			"/>
		</g>
		<g id="XMLID_533_" class="st5">
			<text id="XMLID_576_" transform="matrix(1 0 0 1 356.611 112.2451)" class="st10 st11 st13">2.95‰</text>
			<text id="XMLID_575_" transform="matrix(1 0 0 1 260.8915 112.2847)" class="st10 st11 st13">与上年相比</text>
			<text id="XMLID_574_" transform="matrix(1 0 0 1 287.8127 71.929)" class="st7 st8 st9">23 837 414</text>
			<text id="XMLID_573_" transform="matrix(1 0 0 1 288.3127 35.4094)" class="st10 st11 st12">门诊人数（人）</text>
			<polygon id="XMLID_570_" class="st14" points="350.7,116.2 340.8,117.6 343.1,115.3 342.1,114.8 340.1,113.4 338.4,111.9 
				337,110 336,108.1 335.4,105.8 335.3,103.6 335.5,101.4 335.8,100.3 336.3,99.1 344.2,102.3 343.8,103 343.4,103.5 343,104.8 
				342.8,106 342.8,107.3 343,108.7 343.5,109.9 344.2,111.1 345.2,112.1 346.6,108.3 			"/>
			<g id="XMLID_534_">
				<path id="XMLID_569_" class="st6" d="M253.6,42.7c0.3,0.7,1.1,1.6,2.2,1.9c0.6-0.9,0.6-2.1,0.3-2.9l-0.6-1.5l-0.2,0.1
					c0,0,0,0,0,0c-0.3-0.7-0.9-1.1-1.5-0.8l-0.2,0.1c-0.5,0.2-0.7,1-0.5,1.7c0,0,0,0,0,0l-0.1,0L253.6,42.7z"/>
				<path id="XMLID_568_" class="st6" d="M252,79.1c0,1.3,1.1,2.4,2.4,2.4c1.3,0,2.4-1.1,2.4-2.4V64.8c-0.9,0-3.1-0.1-4.7-0.5V79.1z
					"/>
				<path id="XMLID_567_" class="st6" d="M261.9,26.5L261.9,26.5c0-1.2-2-2.1-4.5-2.1c-2.4,0-4.4,0.9-4.5,2.1h0v2h8.9V26.5z"/>
				<path id="XMLID_559_" class="st6" d="M260.1,61c0-0.6,0.5-1.1,1.1-1.1h2.3c0.1-0.5,0.3-0.9,0.6-1.2l-0.6-15.1
					c1.8,3.6,2.3,7.7,1.5,11.8c0,0.1-0.1,0.6-0.1,0.7c0,1,0.6,1.9,1.5,2.2c0.9,0.3,1.9-0.2,2.4-1.2c0.1-0.1,0.2-0.5,0.2-0.7
					c1.3-6.5-0.2-13.2-4.2-18.4c0,0-1-1.4-2.9-2c0.1,0.1,0.2,0.2,0.2,0.4c1,1.9-0.2,4.9-0.7,6.1c0.2,0.2,0.2,0.4,0.2,0.7
					c-0.1,0.5-0.5,0.8-1,0.7c-0.5-0.1-0.8-0.5-0.7-1c0.1-0.5,0.5-0.8,1-0.7c0,0,0,0,0,0c0.5-1.2,1.5-3.9,0.7-5.5
					c-0.2-0.4-0.5-0.7-0.9-0.9c-0.3,0-0.6-0.1-1-0.1h-4.6c0,0-0.1,0-0.1,0c-0.4,0.2-0.7,0.4-0.9,0.7c-0.5,0.8-0.5,1.9-0.4,2.5
					c0.8-0.2,1.7,0.4,2.1,1.3c0,0,0,0,0,0l-0.1,0l0.6,1.5c0.4,0.9,0.4,2.1-0.2,3c0.3,0,0.6,0,0.9-0.1c0-0.1,0.1-0.2,0.2-0.2
					c0.2-0.1,0.3,0.3,0.3,0.3s0.2,0.3,0,0.4c-0.1,0.1-0.3,0-0.4-0.1c-0.4,0.1-0.8,0.1-1.2,0.1c-0.2,0.3-0.6,0.5-0.9,0.7
					c0,0.2-0.1,0.3-0.2,0.4c-0.2,0.1-0.3-0.3-0.3-0.3s-0.2-0.3,0-0.4c0.1,0,0.2,0,0.3,0c0.3-0.2,0.5-0.3,0.7-0.5
					c-1-0.3-1.9-1.1-2.3-2l-0.6-1.5l-0.2,0.1c0,0,0,0,0,0c-0.4-1-0.1-2,0.7-2.4c-0.1-0.4-0.2-1.3,0.1-2.1c0,0,0,0,0,0v-0.1
					c0.1-0.3,0.2-0.6,0.4-0.8c0.1-0.1,0.2-0.2,0.2-0.3c-1.8,0.3-3,1.4-3.6,1.9v0c-0.5,0.5-0.9,1-1.2,1.6c-2.7,5.1-2.9,10,0,14.8
					c0.1,0.1,0.3,0.5,0.3,0.5c0.4,0.7,1.4,1,2.2,0.6c0.8-0.4,1.2-1.3,1-2.1c0,0-0.2-0.4-0.2-0.4c-1.5-3-2-5.4-1.5-8.1
					c0.1-0.3,0.3-0.7,0.4-1l-0.2,4.6c0.2,1.4,0.7,2.8,1.5,4.3c0,0.1,0.2,0.5,0.2,0.5c0.3,1-0.2,2-1.1,2.5c-0.3,0.1-0.6,0.2-0.9,0.2
					l0,0.9h0l-0.3,6.6c0,0.7,3,1.3,6.7,1.4h0.5c0.9,0,1.7,0,2.5-0.1V61z M257.4,60.4c-0.3,0-0.6-0.2-0.6-0.6c0-0.3,0.2-0.6,0.6-0.6
					c0.3,0,0.6,0.2,0.6,0.6C258,60.1,257.7,60.4,257.4,60.4z M257.4,56.1c-0.3,0-0.6-0.2-0.6-0.6c0-0.3,0.2-0.6,0.6-0.6
					c0.3,0,0.6,0.2,0.6,0.6C258,55.8,257.7,56.1,257.4,56.1z M257.4,51.8c-0.3,0-0.6-0.2-0.6-0.6c0-0.3,0.2-0.6,0.6-0.6
					c0.3,0,0.6,0.2,0.6,0.6C258,51.6,257.7,51.8,257.4,51.8z M257.4,47.5c-0.3,0-0.6-0.2-0.6-0.6c0-0.3,0.2-0.6,0.6-0.6
					c0.3,0,0.6,0.2,0.6,0.6C258,47.3,257.7,47.5,257.4,47.5z M257.4,43.2c-0.3,0-0.6-0.2-0.6-0.6c0-0.3,0.2-0.6,0.6-0.6
					c0.3,0,0.6,0.2,0.6,0.6C258,43,257.7,43.2,257.4,43.2z M257.4,38.9c-0.3,0-0.6-0.2-0.6-0.6c0-0.3,0.2-0.6,0.6-0.6
					c0.3,0,0.6,0.2,0.6,0.6C258,38.7,257.7,38.9,257.4,38.9z"/>
				<path id="XMLID_558_" class="st6" d="M260.1,68.5v-3.8c-0.9,0.1-1.8,0.1-2.2,0.1v14.3c0,1.3,1.1,2.4,2.4,2.4
					c1.3,0,2.4-1.1,2.4-2.4v-9.5h-1.4C260.6,69.6,260.1,69.1,260.1,68.5z"/>
				<path id="XMLID_554_" class="st6" d="M272.5,60.2H270c0-0.9-0.7-1.6-1.5-1.6h-3.2c-0.8,0-1.5,0.7-1.5,1.6h-2.6
					c-0.4,0-0.8,0.3-0.8,0.8v7.5c0,0.4,0.3,0.8,0.8,0.8h11.3c0.4,0,0.8-0.3,0.8-0.8V61C273.3,60.6,273,60.2,272.5,60.2z M265.3,59.6
					h3.2c0.3,0,0.5,0.3,0.6,0.6h-4.4C264.7,59.9,265,59.6,265.3,59.6z M269.4,66h-1.5v1.5h-2.1V66h-1.5V64h1.5v-1.5h2.1V64h1.5V66z"
					/>
				<rect id="XMLID_539_" x="258.4" y="30.7" class="st6" width="2.3" height="1.1"/>
				<rect id="XMLID_538_" x="254.2" y="30.7" class="st6" width="2.3" height="1.1"/>
				<path id="XMLID_535_" class="st6" d="M257.3,35.2c2.4,0,4.4-2.2,4.4-5c0-0.4-0.1-0.9-0.2-1.3h-8.5c-0.1,0.4-0.2,0.8-0.2,1.3
					C253,32.9,254.9,35.2,257.3,35.2z M253.8,32v-1.5c0-0.1,0.1-0.2,0.2-0.2h2.6c0.1,0,0.2,0.1,0.2,0.2v0.6h1.2v-0.6
					c0-0.1,0.1-0.2,0.2-0.2h2.6c0.1,0,0.2,0.1,0.2,0.2V32c0,0.1-0.1,0.2-0.2,0.2h-2.6c-0.1,0-0.2-0.1-0.2-0.2v-0.6h-1.2V32
					c0,0.1-0.1,0.2-0.2,0.2H254C253.9,32.2,253.8,32.1,253.8,32z"/>
			</g>
		</g>
		<g id="XMLID_498_" class="st5">
			<text id="XMLID_532_" transform="matrix(1 0 0 1 577.814 113.1286)" class="st10 st11 st13">6.03‰</text>
			<text id="XMLID_531_" transform="matrix(1 0 0 1 484.9106 112.2847)" class="st10 st11 st13">与上年相比</text>
			<g id="XMLID_528_">
				<text id="XMLID_525_" transform="matrix(1 0 0 1 523.2676 71.9289)" class="st7 st8 st9">1 702 005</text>
			</g>
			<text id="XMLID_527_" transform="matrix(1 0 0 1 523.2676 35.4094)" class="st10 st11 st12">急诊人数（人）</text>
			<polygon id="XMLID_524_" class="st14" points="573.2,104.9 566.4,97.7 559.5,104.9 563.4,104.9 563.4,105.5 563.4,106.4 
				563.2,107.7 563,108.6 562.7,109.5 562.5,110.5 562.2,111.4 561.9,112.1 561.5,113.2 561.1,113.8 560.5,114.9 560.2,115.4 
				559.7,116 559.2,116.7 558.7,117.2 558.2,117.7 557.7,118.1 557.4,118.4 557.2,118.5 558.4,118.4 559.6,118.1 560.4,117.8 
				561.5,117.4 562.5,116.8 563.7,116 564.3,115.6 565.1,114.8 566,113.8 566.6,113.1 567.3,112 568,110.7 568.8,109.1 569.5,107.3 
				569.8,105.8 569.9,104.9 			"/>
			<g id="XMLID_499_">
				<path id="XMLID_523_" class="st6" d="M471.2,37.7c-0.2-1.5-0.4-3-0.6-4.4c-0.1-0.4,0-0.7,0.4-0.9c0.1-0.1,0.2-0.3,0.2-0.4
					c-0.1-0.1-0.2-0.2-0.4-0.2c-0.1,0-0.3,0.1-0.4,0.2c-0.1,0.1-0.3,0.2-0.4,0.2c-0.4,0.1-0.5,0.2-0.3,0.6c0.2,0.3,0.3,0.7,0.4,1.1
					c0.1,0.9,0.3,1.8,0.3,2.8c0.1,0.9,0.3,3.3-0.2,4.2c-0.1,0.1,0.1,0.3,0.2,0.4c0.1,0.1,0.3,0.1,0.3,0c0.2-0.2,0.4-0.4,0.8-0.2
					c0,0,0.1,0,0.1,0c0.3-0.1,0.2-0.3,0.1-0.5C471.4,40,471.2,38.1,471.2,37.7z"/>
				<path id="XMLID_522_" class="st6" d="M484,32.1c-0.2,0-0.3-0.1-0.4-0.2c-0.1-0.1-0.3-0.2-0.4-0.2c-0.1,0-0.3,0.1-0.4,0.2
					c0,0.1,0.1,0.3,0.2,0.4c0.4,0.2,0.4,0.6,0.4,0.9c-0.2,1.5-0.4,3-0.6,4.4c-0.1,0.4-0.2,2.3-0.4,2.7c-0.1,0.2-0.2,0.4,0.1,0.5
					c0,0,0.1,0,0.1,0c0.3-0.1,0.5,0,0.8,0.2c0.1,0.1,0.3,0,0.3,0c0.1-0.1,0.2-0.3,0.2-0.4c-0.6-1-0.4-3.3-0.3-4.2
					c0.1-0.9,0.2-1.9,0.3-2.8c0.1-0.4,0.2-0.7,0.4-1.1C484.5,32.3,484.4,32.1,484,32.1z"/>
				<path id="XMLID_521_" class="st6" d="M498.3,32.4C498.3,32.4,498.3,32.4,498.3,32.4c-0.5,0.1-0.9,0.3-1.4,0.5
					c0.2,2.3,1.5,4.4,2.8,4.4c1.3,0,2.6-2.1,2.8-4.4c-0.4-0.2-0.9-0.4-1.4-0.5l-1.4,1.4L498.3,32.4z"/>
				<path id="XMLID_503_" class="st6" d="M503.3,33.3C503.2,33.3,503.2,33.3,503.3,33.3c-0.3,2.3-1.6,4.6-3.3,4.8
					c-0.2,1.2,0.2,1.6,0.7,2.2c0.9,1,1.4,1.9-0.1,4.4c0.1,0.2,0.2,0.4,0.2,0.6c0,0.6-0.5,1-1,1c-0.6,0-1-0.5-1-1c0-0.6,0.5-1,1-1
					c0.1,0,0.1,0,0.2,0c1.3-2.2,0.8-2.7,0.2-3.4c-0.5-0.6-1.1-1.3-0.9-2.7c-1.6-0.4-2.8-2.6-3-4.8c-0.1,0-0.2,0.1-0.2,0.1
					c-0.6,0.4-1.2,0.8-1.8,1.2c-2.1-0.5-3-1.7-4.9-4.2c-0.4-0.5-0.8-1-1.2-1.6v-7.3c0-0.5-0.4-1-1-1h-20.2c-0.5,0-1,0.4-1,1v20.2
					c0,0.5,0.4,1,1,1h20.2c0.5,0,1-0.4,1-1v-6.1c1.4,1.6,3.1,2.7,5.9,3.2v3c0,0,0,0,0,0c0,0,0,5.7,0,7.8c0,1.8,0.4,2.1,0.4,2.1
					l0,20.7c0,1.4,1.2,2.6,2.6,2.6c1.4,0,2.6-1.2,2.6-2.6l0-17.9c0.1,0,0.2,0,0.3,0c0,0,0,0,0.1,0l0,17.9c0,1.4,1.2,2.6,2.6,2.6
					c1.4,0,2.6-1.2,2.6-2.6l0-20.7c0,0,0.4-0.8,0.4-2.1c0-1.3,0-7.9,0-7.9c0.6,1.7,0.9,4,0.6,7.2c-0.1,1.2,0.8,2.3,1.9,2.4
					c0.1,0,0.1,0,0.2,0c1.1,0,2.1-0.8,2.2-2C511.3,39.6,507.5,35.9,503.3,33.3z M487.1,21.6l0,6.2c-0.7-0.5-1.8-0.5-2.5,0.1
					c-0.4,0.3-0.6,0.7-0.7,1.2c0-0.2,0-0.4-0.1-0.5c-0.1-0.9-0.2-1.9-0.2-2.8c0-0.4,0.1-0.8,0.2-1.1c0.1-0.4,0-0.6-0.4-0.6
					c-0.2,0-0.3-0.1-0.5-0.1c-0.1,0-0.3-0.1-0.4-0.1c0.2-0.4,0.1-0.8,0-1c-0.2-0.4-0.7-0.4-1-0.4c-0.1,0-0.1,0-0.1,0c0,0,0,0,0,0
					c-0.2,0-1.7,0.4-2.1,1.2c-0.1,0.1-0.1,0.3-0.1,0.4c-0.1,0-0.2,0-0.2,0c-0.3,0-0.5,0.1-0.7,0.1V24c0-0.2-0.1-0.4-0.2-0.5
					c0-0.1,0.1-0.1,0.1-0.2V23c0,0,0-0.1,0-0.1c0.2-0.1,0.3-0.3,0.3-0.5v-0.1c0-0.1,0-0.5-0.3-0.7H487.1z M481.7,29.5
					c-0.1,0.2-0.3,0.3-0.7,0.3c-0.4,0.1-1,0-1.5-0.2c-1.1-0.4-1.7-1.1-1.6-1.5c0-0.1,0.2-0.2,0.3-0.3c0.3,0.2,0.6,0.4,1,0.5
					c0.5,0.2,1,0.3,1.4,0.3c0.1,0,0.3,0,0.4,0c0,0,0.1,0,0.1,0C481.6,28.9,481.8,29.3,481.7,29.5z M481.7,31.3
					c-0.1,0.2-0.3,0.3-0.7,0.3c-0.4,0.1-1,0-1.5-0.2c-1.1-0.4-1.7-1.1-1.6-1.5c0-0.1,0.2-0.2,0.4-0.3c0.3,0.2,0.6,0.4,1,0.5
					c0.5,0.2,1,0.3,1.4,0.3c0.1,0,0.3,0,0.4,0c0,0,0,0,0.1,0C481.5,30.8,481.8,31.1,481.7,31.3z M481.6,27.6
					c-0.1,0.2-0.3,0.3-0.7,0.3c-0.4,0.1-1,0-1.5-0.2c-1.1-0.4-1.7-1.1-1.6-1.5c0.1-0.1,0.3-0.3,0.5-0.3c0.2,0.2,0.5,0.3,0.8,0.4
					c0.3,0.1,0.5,0.2,0.8,0.2c0,0,0,0.1,0.1,0.1c0,0.1,0.1,0.1,0.2,0.1c0,0,0,0,0,0c0.1,0,0.2,0,0.2-0.1l0.1-0.1c0.1,0,0.1,0,0.2,0
					C481.4,26.9,481.7,27.4,481.6,27.6z M478.2,24.8c0.1-0.2,0.3-0.3,0.7-0.3c0.1,0,0.2,0,0.3,0c0.1,0.5,0.3,1,0.5,1.4
					c-0.1,0-0.3-0.1-0.4-0.1c-0.4-0.1-0.7-0.4-1-0.6C478.2,25.1,478.1,24.9,478.2,24.8z M477.8,31.2c0.4,0.3,0.8,0.6,1.4,0.8
					c0.3,0.1,0.7,0.2,1,0.2c0.3,0.4,0.4,0.7,0.3,0.9c-0.1,0.2-0.4,0.2-0.7,0.2c-0.4,0-1-0.2-1.4-0.5c-0.3-0.2-0.6-0.5-0.9-0.7
					C477.8,31.9,477.9,31.5,477.8,31.2z M475.5,40.6c0.2,0,0.4,0.2,0.7,0.4c-0.2,0.2-0.3,0.3-0.4,0.3c-0.2-0.1-0.4-0.3-0.6-0.4
					C475.3,40.8,475.3,40.6,475.5,40.6z M475.5,38.6c0.3-0.2,0.5-0.2,0.7,0.1c0.2,0.3,0.4,0.6,0.7,0.8c0.1,0.1,0.4,0.1,0.4,0
					c0.3-0.2,0.5-0.5,0.7-0.8c0.1-0.1,0.4-0.3,0.5-0.3c0.2,0.1,0.5,0.3,0.5,0.5c0,0.3-0.1,0.8-0.3,0.9c-0.8,1-2.9,0.5-3.3-0.1
					C475.1,39.4,475.2,38.9,475.5,38.6z M476,41.8c0.1,0,0.3-0.1,0.5-0.2c0.5-0.3,1-0.3,1.5,0c0.2,0.1,0.3,0.2,0.5,0.2L476,41.8
					L476,41.8z M478.3,41c0.2-0.2,0.3-0.4,0.5-0.5c0.2,0,0.2,0.1,0.5,0.3c-0.3,0.2-0.5,0.3-0.7,0.4C478.6,41.3,478.4,41.1,478.3,41z
					 M479,41.8c0.3-0.1,0.6-0.4,0.7-0.9c0.1-0.3,0.1-1,0.6-1.2c0.7-0.6,1.7-1.4,1.4-2.2c-0.1-0.3-0.2-0.7-0.4-1
					c-0.6-1-1.7-1.1-2.6-0.4c-0.3,0.3-0.6,0.6-0.9,0.9c-0.5,0.5-0.9,0.6-1.4,0c-0.3-0.3-0.6-0.6-0.9-0.9c-0.9-0.8-2-0.6-2.7,0.5
					c-0.5,0.8-0.4,1.5,0.2,2.2c0.2,0.2,0.3,0.5,0.5,0.8c0.7,0.5,0.8,1,0.9,1.4c0.1,0.5,0.4,0.8,0.7,0.9h-8.5V21.6h9.7
					c-0.1,0.1-0.1,0.1-0.1,0.2c0,0.1,0.1,0.2,0.2,0.3c0.1,0.1,1,0,1,0c0,0,0,0,0,0v0.2c0,0,0,0,0,0h-0.7c-0.2,0-0.3,0.1-0.3,0.3
					c0,0.2,0.1,0.3,0.3,0.3h0.6c0,0,0,0,0,0v0.2h-0.4c-0.1,0-0.2,0.1-0.3,0.2c-0.3,0.1-0.4,0.3-0.4,0.6v0.2
					c-0.2-0.1-0.4-0.1-0.7-0.1c-0.2,0-0.4,0-0.6,0.1c0-0.2,0-0.3-0.1-0.5c-0.4-0.8-1.9-1.2-2.1-1.2c0,0,0,0,0,0c0,0-0.1,0-0.1,0
					c-0.3,0-0.7,0.1-1,0.4c-0.2,0.3-0.2,0.6,0,1c0,0,0,0,0,0c0,0-0.1,0-0.1-0.1c-0.1,0-0.3,0.1-0.4,0.1c-0.2,0-0.3,0.1-0.5,0.1
					c-0.4,0-0.5,0.1-0.4,0.6c0.1,0.4,0.2,0.7,0.2,1.1c0,0.9-0.1,1.9-0.2,2.8c-0.1,0.9-0.1,1.8-0.8,2.6c-0.1,0.1,0,0.3,0.1,0.4
					c0,0.1,0.2,0.1,0.3,0.1c0.3-0.2,0.5-0.3,0.8-0.1c0,0,0.1,0,0.1,0c0.3,0,0.2-0.2,0.2-0.5c-0.1-0.4-0.2-0.9-0.1-1.3
					c0.1-1.5,0.2-3,0.3-4.5c0-0.4,0.1-0.7,0.5-0.9c0.1,0,0.3-0.3,0.2-0.4c0,0,0,0,0,0l0.6,0.7l0.5,0.7c0,0.1,0,0.2,0,0.3
					c0,0,0,0.1,0.1,0.1c-0.8,0.5-1.1,1.2-0.9,1.8c0.1,0.2,0.2,0.4,0.4,0.5c-0.4,0.4-0.6,0.9-0.4,1.3c0.1,0.2,0.2,0.4,0.4,0.5
					c-0.4,0.4-0.6,0.9-0.4,1.3c0.1,0.4,0.6,0.7,1.2,0.8c0,0,0,0,0,0c-0.2,0.5-0.3,0.9-0.1,1.3c0.2,0.3,0.6,0.5,1.1,0.5
					c0.1,0,0.1,0,0.2,0c0.5,0,1.2-0.3,1.7-0.6c0.1-0.1,0.3-0.2,0.4-0.3c0,0,0,0,0,0h1.1c0,0,0,0,0,0c0,0,0.1,0.1,0.1,0.1
					c0,0,0,0,0,0.1v0.1c0,0.1-0.1,0.2-0.2,0.2h-1.1c-0.2,0-0.3,0.1-0.3,0.3c0,0.1,0,0.2,0.1,0.2c0,0.1,0.1,0.2,0.3,0.2h0.9
					c0.1,0,0.1,0.1,0.1,0.1v0.1c0,0.1-0.1,0.1-0.1,0.1h-0.9c-0.2,0-0.3,0.1-0.3,0.3c0,0.1,0.1,0.2,0.2,0.3c0.1,0.1,0.1,0.1,0.2,0.1
					h0.7c0,0,0,0,0,0v0.1c0,0,0,0,0,0h-0.7c-0.2,0-0.3,0.1-0.3,0.3c0,0.2,0.1,0.3,0.3,0.3h0.6c0,0,0,0,0,0v0.2h-0.4
					c-0.2,0-0.3,0.1-0.3,0.3c0,0.2,0.1,0.3,0.3,0.3h0.5c0.3,0,0.5-0.2,0.5-0.5v-0.3c0,0,0-0.1,0-0.1c0.2-0.1,0.3-0.3,0.3-0.5v-0.1
					c0-0.1,0-0.2-0.1-0.3c0.2-0.1,0.3-0.3,0.3-0.5v-0.1c0-0.2-0.1-0.3-0.1-0.4c0.1-0.1,0.2-0.3,0.2-0.4c0.5,0.2,0.9,0.4,1.4,0.4
					c0.1,0,0.1,0,0.2,0c0.5,0,0.9-0.2,1.1-0.5c0.2-0.3,0.2-0.8-0.1-1.3c0,0,0,0,0,0c0.6-0.1,1-0.4,1.2-0.8c0.2-0.4,0-0.9-0.4-1.3
					c0.2-0.1,0.4-0.3,0.4-0.5c0.2-0.4,0-0.9-0.4-1.3c0.2-0.1,0.3-0.3,0.4-0.5c0.2-0.6-0.2-1.2-0.9-1.8c0,0,0-0.1,0.1-0.1
					c0.1-0.2,0-0.4-0.1-0.6l0.2-0.4l0.6-0.6c0,0.1,0.1,0.2,0.2,0.3c0.4,0.1,0.5,0.5,0.5,0.9c0.1,1.5,0.2,3,0.3,4.5
					c0,0.4-0.1,0.9-0.1,1.3c0,0.2-0.1,0.4,0.2,0.5c0,0,0.1,0,0.1,0c0.3-0.2,0.5-0.1,0.8,0.1c0.1,0,0.3,0,0.3-0.1
					c0-0.1,0.1-0.2,0.1-0.3c0.5,0.6,0.9,1.1,1.3,1.7c0.4,0.5,0.8,1.1,1.2,1.5v7.3L479,41.8L479,41.8z M475.2,26.3
					c0.3-0.1,0.6-0.2,0.8-0.4c0.3,0.1,0.5,0.2,0.5,0.3c0.1,0.4-0.5,1.1-1.6,1.5c-0.5,0.2-1.1,0.3-1.5,0.2c-0.4,0-0.6-0.2-0.7-0.3
					c-0.1-0.2,0.2-0.7,0.8-1.1l0.1,0.1c0,0.1,0.1,0.1,0.2,0.1c0,0,0,0,0,0c0.1,0,0.2,0,0.2-0.1c0,0,0-0.1,0.1-0.1c0,0,0.1,0,0.1,0
					C474.5,26.5,474.8,26.5,475.2,26.3z M474.3,26.1c0.2-0.4,0.4-0.9,0.6-1.4c0.2-0.1,0.5-0.1,0.7-0.1c0.4,0,0.6,0.1,0.7,0.3
					c0,0.1,0,0.3-0.2,0.5c-0.2,0.2-0.6,0.4-1,0.6C474.8,26,474.5,26,474.3,26.1z M473.2,28.6c0,0,0.1,0,0.1,0c0.1,0,0.2,0,0.4,0
					c0.5,0,1-0.1,1.4-0.3c0.4-0.1,0.7-0.3,1-0.5c0.1,0.1,0.3,0.1,0.3,0.3c0.1,0.4-0.5,1.1-1.6,1.5c-0.5,0.2-1.1,0.3-1.5,0.2
					c-0.4,0-0.6-0.2-0.7-0.3C472.6,29.3,472.8,28.9,473.2,28.6z M473.2,30.4C473.2,30.4,473.2,30.5,473.2,30.4c0.2,0,0.3,0,0.4,0
					c0.5,0,0.9-0.1,1.4-0.3c0.4-0.1,0.7-0.3,1-0.5c0.2,0.1,0.3,0.2,0.4,0.3c0.1,0.4-0.5,1.1-1.6,1.5c-0.5,0.2-1.1,0.3-1.5,0.2
					c-0.4,0-0.6-0.2-0.7-0.3C472.6,31.1,472.8,30.8,473.2,30.4z M474,32.3c0.3,0,0.7-0.1,1-0.2c0.6-0.2,1.1-0.5,1.4-0.8
					c0,0.3,0.1,0.6,0.3,1c-0.2,0.3-0.5,0.5-0.9,0.7c-0.5,0.3-1,0.5-1.4,0.5c-0.4,0-0.6-0.1-0.7-0.2C473.6,33.1,473.7,32.7,474,32.3z
					"/>
				<path id="XMLID_500_" class="st6" d="M499.7,32.1c2.9,0,5.3-2.4,5.3-5.3c0-1.2-0.4-2.3-1.1-3.2h-1.7v-0.8h0.9
					c-0.3-0.3-0.7-0.5-1.1-0.7c-0.4-0.9-1.3-1.5-2.3-1.5c-1,0-1.9,0.6-2.3,1.5c-0.4,0.2-0.7,0.4-1.1,0.7h1.1v0.8h-1.8
					c-0.7,0.9-1.1,2-1.1,3.2C494.4,29.8,496.7,32.1,499.7,32.1z M499.7,21.7c0.8,0,1.4,0.6,1.4,1.4c0,0.8-0.6,1.4-1.4,1.4
					c-0.8,0-1.4-0.6-1.4-1.4C498.2,22.4,498.9,21.7,499.7,21.7z"/>
			</g>
		</g>
		<g id="XMLID_476_" class="st5">
			<g id="XMLID_495_">
				<text id="XMLID_526_" transform="matrix(1 0 0 1 755.1962 71.9289)" class="st7 st8 st9">976 419</text>
			</g>
			<text id="XMLID_494_" transform="matrix(1 0 0 1 806.9427 112.2451)" class="st10 st11 st13">1.24‰</text>
			<text id="XMLID_493_" transform="matrix(1 0 0 1 711.0768 112.2847)" class="st10 st11 st13">与上年相比</text>
			<text id="XMLID_492_" transform="matrix(1 0 0 1 755.1962 35.4094)" class="st10 st11 st12">入院人数（人）</text>
			<polygon id="XMLID_489_" class="st14" points="801.2,104.9 794.3,97.7 787.5,104.9 791.4,104.9 791.4,105.5 791.3,106.4 
				791.1,107.7 790.9,108.6 790.7,109.5 790.5,110.5 790.2,111.4 789.9,112.1 789.4,113.2 789.1,113.8 788.5,114.9 788.2,115.4 
				787.7,116 787.2,116.7 786.7,117.2 786.2,117.7 785.7,118.1 785.3,118.4 785.1,118.5 786.3,118.4 787.6,118.1 788.4,117.8 
				789.5,117.4 790.5,116.8 791.7,116 792.2,115.6 793.1,114.8 794,113.8 794.5,113.1 795.2,112 796,110.7 796.8,109.1 797.4,107.3 
				797.8,105.8 797.9,104.9 			"/>
			<g id="XMLID_477_">
				<path id="XMLID_488_" class="st6" d="M720.3,44.7c-5.6,1.2-8.4-1.4-8.5-1.5c-0.7-0.7-1.8-0.7-2.6,0c-0.7,0.7-0.7,1.9,0,2.6
					c0.1,0.1,2.9,2.9,8.2,2.9c1.1,0,2.3-0.1,3.6-0.4c1-0.2,1.6-1.2,1.4-2.2C722.3,45.1,721.3,44.4,720.3,44.7z"/>
				<circle id="XMLID_487_" class="st6" cx="703.9" cy="39.9" r="4.1"/>
				<path id="XMLID_486_" class="st6" d="M741.6,56.6l-7.6-3.1c-0.3-0.1-0.5-0.2-0.8-0.2h-1.9V53c0-0.2-0.1-0.4-0.1-0.6l7.2,2
					c0.2,0.1,0.4,0.1,0.6,0.1c1,0,1.8-0.6,2.1-1.6c0.3-1.2-0.4-2.3-1.5-2.7l-9.5-2.6c-0.2-0.1-0.4-0.1-0.6-0.1l-6.5,0
					c-0.3,0.7-0.9,1.3-1.7,1.5c-1.1,0.2-2.2,0.4-3.2,0.4c-5.3,0-8.8-2.8-9-2.9c-0.5-0.4-0.8-1-0.9-1.7c-0.1-0.7,0.1-1.3,0.5-1.8
					c0.5-0.6,1.2-0.9,1.9-0.9c0.6,0,1.1,0.2,1.5,0.5c0.1,0.1,1.5,1.1,3.7,1.6l-4-2.6c-1.4-0.9-3.1-0.3-4.2,0.7c0,0-0.3,0.3-0.6,0.7
					c-0.2,0.4-0.4,0.8-0.4,0.8l0,0c-0.5,1.3-0.3,3.2,1.1,4.1l7.6,4.9c0.1,0.1,0.2,0.1,0.3,0.2c0,0,0,0,0,0v0.4h-2.2l-10.1-7
					c0.1-0.1,0.1-0.1,0.1-0.2c0.4-0.6,0.2-1.4-0.4-1.7l-3.4-2.1c-0.6-0.4-1.3-0.2-1.7,0.4c-1-0.5-2.2-0.2-2.8,0.7
					c-0.7,1-0.4,2.4,0.6,3.1l15.8,10.9c0.4,0.3,0.8,0.4,1.3,0.4h2.9c0.2,0.5,0.7,0.9,1.2,0.9h2.8v10.4h-1.4c-0.6,0-1.1,0.5-1.1,1.1
					c0,0.6,0.5,1.1,1.1,1.1h10.3c0.6,0,1.1-0.5,1.1-1.1c0-0.6-0.5-1.1-1.1-1.1h-1.5V58.7h2.8c0.6,0,1-0.4,1.2-0.9h1.6l7.2,2.9
					c0.3,0.1,0.6,0.2,0.8,0.2c0.9,0,1.7-0.5,2.1-1.4C743.3,58.4,742.7,57.1,741.6,56.6z"/>
				<path id="XMLID_485_" class="st6" d="M711.1,39c0,1,0.8,1.7,1.7,1.7c4,0,6.3-1.1,7.7-2.4v2.8c-0.1,0.6-0.4,1.6-0.7,2.9
					c0.1,0,0.2,0,0.3-0.1c0.2,0,0.4-0.1,0.5-0.1c1.2,0,2.2,0.8,2.4,1.9c0.1,0.3,0.1,0.7,0,1l6.2,0c0.3,0,0.5,0,0.8,0.1l0.9,0.2
					c-0.5-2.5-1.1-5-1.3-6v-3.3c0.7,1.4,1.1,3.4,1,6.4c0,1,0.7,1.7,1.7,1.8c0,0,0,0,0,0c0.9,0,1.7-0.8,1.7-1.7
					c0.1-8.2-4.2-12.6-8-13.5c0,0,0,0,0,0l-1.1,1.1l-1.1-1.1c-0.6,0.2-2.9,1.2-4.3,3.4c-1.2,1.7-2.3,3.1-6.8,3.1
					C711.9,37.3,711.1,38,711.1,39z"/>
				<path id="XMLID_482_" class="st6" d="M725.2,30.4c2.3,0,4.2-1.9,4.2-4.2c0-1-0.3-1.8-0.9-2.6h-1.3V23h0.7
					c-0.3-0.2-0.5-0.4-0.8-0.6c-0.3-0.7-1-1.2-1.8-1.2c-0.8,0-1.5,0.5-1.8,1.2c-0.3,0.2-0.6,0.3-0.9,0.6h0.8v0.6H722
					c-0.5,0.7-0.9,1.6-0.9,2.6C721.1,28.5,722.9,30.4,725.2,30.4z M725.2,22.2c0.6,0,1.1,0.5,1.1,1.1c0,0.6-0.5,1.1-1.1,1.1
					c-0.6,0-1.1-0.5-1.1-1.1C724.1,22.7,724.6,22.2,725.2,22.2z"/>
				<path id="XMLID_478_" class="st6" d="M713.5,33.1h-1.1v-9.5h-14.7v9.5h-1v2.2h16.9V33.1z M711.1,24.8V29l-4,0
					c-0.1,0-0.2,0.1-0.2,0.2l-0.6,2l-0.6-2c0-0.1-0.1-0.2-0.2-0.2h-0.8l-1.2-3.5c-0.1-0.2-0.3-0.2-0.4,0L702,29h-3.1v-4.2H711.1z
					 M698.9,32.7v-3.2h3.3c0.1,0,0.2-0.1,0.2-0.1l1-3l1,3c0,0.1,0.1,0.1,0.2,0.1h0.8l0.7,2.5c0,0.1,0.1,0.2,0.2,0.2
					c0.1,0,0.2-0.1,0.2-0.2l0.7-2.5l3.9,0v3.2L698.9,32.7L698.9,32.7z"/>
			</g>
		</g>
		<line id="XMLID_475_" class="st15" x1="224.3" y1="20.8" x2="224.3" y2="120.7"/>
		<line id="XMLID_474_" class="st15" x1="443.2" y1="20.8" x2="443.2" y2="120.7"/>
		<line id="XMLID_385_" class="st15" x1="671.9" y1="20.8" x2="671.9" y2="120.7"/>
		<g id="XMLID_695_" class="st5">
			<line id="XMLID_700_" class="st0" x1="865" y1="140.5" x2="25" y2="140.5"/>
			<line id="XMLID_698_" class="st2" x1="866.3" y1="139.7" x2="842.9" y2="139.7"/>
			<line id="XMLID_697_" class="st2" x1="47" y1="139.7" x2="25.7" y2="139.7"/>
		</g>
	</g>
</g>
</svg>
