<?xml version="1.0" encoding="utf-8"?>
<!-- Generator: Adobe Illustrator 19.0.0, SVG Export Plug-In . SVG Version: 6.00 Build 0)  -->
<svg version="1.1" id="图层_1" xmlns="http://www.w3.org/2000/svg" xmlns:xlink="http://www.w3.org/1999/xlink" x="0px" y="0px"
	 viewBox="0 0 50 50" style="enable-background:new 0 0 50 50;" xml:space="preserve" zn="业务办结率">
<style type="text/css">
	.edu_finish1{fill:#00EF43;}
</style>
<g>
	<path id="XMLID_75_" class="edu_finish1" d="M21.8,18c0.2,0,0.3,0,0.5,0.1c0.2,0.1,0.4,0.2,0.5,0.4l1.1-3.6l-3.7-1.1l-1.4,4.7l1.8,0.5
		c0,0,0-0.1,0.1-0.1C20.8,18.3,21.3,18,21.8,18z"/>
	<rect id="XMLID_74_" x="37.7" y="21.8" class="edu_finish1" width="4.8" height="1.1"/>
	<rect id="XMLID_35_" x="37.1" y="20" class="edu_finish1" width="5" height="1.4"/>
	<rect id="XMLID_34_" x="37.7" y="18.6" class="edu_finish1" width="5" height="1"/>
	<path class="edu_finish1" d="M26.5,18.2V23h7v-4.8c0.1,0.2,0.2,0.3,0.2,0.5c0.3,0.9,0.6,2.2,0.7,4.2h2.1c-0.1-3.3-0.7-5.1-1.5-6.3
		c-0.4-0.6-0.9-1.1-1.4-1.3c-0.4-0.2-0.8-0.3-1-0.3c0,0,0,0-0.1,0h-0.7l-1.2,2l-0.4-1.2l0.5-0.8h-1.4l0.5,0.8l-0.4,1.2l-1.2-2h-0.7
		c0,0,0,0-0.1,0c-0.2,0-0.6,0.1-1.1,0.3c-0.7,0.3-1.4,1.1-2,2.4C24,19,23.6,20.6,23.6,23h2.1C25.7,20.5,26.1,19,26.5,18.2z
		 M30.5,18.4h2V19h-2V18.4z"/>
	<circle id="XMLID_31_" class="edu_finish1" cx="30" cy="11.4" r="2.9"/>
	<path id="XMLID_30_" class="edu_finish1" d="M21.5,21.8c0.5-0.5,0.9-1.2,1.3-2.1c0.2-0.5,0-1.1-0.6-1.3c-0.5-0.2-1.1,0-1.3,0.6
		c-0.3,0.8-0.6,1.2-0.8,1.4c-0.2,0.2-0.3,0.2-0.3,0.2c-0.1,0-0.2,0-0.5-0.3c-0.4-0.3-0.8-0.9-1.1-1.4c-0.1-0.2-0.3-0.5-0.3-0.6
		c0-0.1-0.1-0.1-0.1-0.2c0,0,0,0,0,0c0,0,0,0,0,0c-0.2-0.4-0.6-0.6-1-0.6c0,0-0.1,0-0.1,0h-5c-0.2,0-0.3,0-0.5,0.1
		c-0.4,0.2-1.3,0.6-2,1.7c-1,1.4-1.9,3.7-1.9,7.7c0,0.3,0,0.6,0,0.8c0,0.6,0.5,1,1,1c0,0,0,0,0,0c0.6,0,1-0.5,1-1.1
		c0-0.3,0-0.5,0-0.8c0-3.4,0.7-5.3,1.4-6.3v19.2c0,0.9,0.7,1.6,1.6,1.6c0.9,0,1.6-0.7,1.6-1.6V28.2h0.6v11.6c0,0.9,0.7,1.6,1.6,1.6
		c0.9,0,1.6-0.7,1.6-1.6V21.5c0.1,0.1,0.3,0.3,0.4,0.4c0.5,0.4,1,0.7,1.8,0.7c0,0,0,0,0,0C20.4,22.6,21,22.3,21.5,21.8z"/>
	<circle id="XMLID_29_" class="edu_finish1" cx="14" cy="13.8" r="2.9"/>
	<rect id="XMLID_28_" x="18.4" y="23.2" class="edu_finish1" width="24.5" height="1.4"/>
</g>
</svg>
