<?xml version="1.0" encoding="utf-8"?>
<!-- Generator: Adobe Illustrator 19.0.0, SVG Export Plug-In . SVG Version: 6.00 Build 0)  -->
<svg version="1.1" id="图层_1" xmlns="http://www.w3.org/2000/svg" xmlns:xlink="http://www.w3.org/1999/xlink" x="0px" y="0px"
	 viewBox="0 0 50 50" style="enable-background:new 0 0 50 50;" xml:space="preserve" zn="学校信息化环境完善">
<style type="text/css">
	.edu_iconinfo0{fill:#00BEFF;}
</style>
<g>
	<path class="edu_iconinfo0" d="M34.8,33.5V10.3c0-5.2-4.2-9.4-9.4-9.4h-0.8c-5.2,0-9.4,4.2-9.4,9.4v23.2c0,4.5,3.2,8.3,7.5,9.2v2.2h-4.4
		c-1.2,0-2.1,1-2.1,2.1c0,1.2,1,2.1,2.1,2.1h13.4c1.2,0,2.1-1,2.1-2.1c0-1.2-1-2.1-2.1-2.1h-4.4v-2.2C31.6,41.8,34.8,38,34.8,33.5z
		 M25.4,40.3h-0.8c-3.7,0-6.8-3-6.8-6.8V10.3c0-3.7,3-6.8,6.8-6.8h0.8c3.7,0,6.8,3,6.8,6.8v23.2C32.2,37.2,29.1,40.3,25.4,40.3z"/>
	<path class="edu_iconinfo0" d="M25,17.9c2.6,0,4.6-2.1,4.6-4.6S27.6,8.7,25,8.7s-4.6,2.1-4.6,4.6S22.4,17.9,25,17.9z M25,11
		c1.3,0,2.3,1,2.3,2.3c0,1.3-1,2.3-2.3,2.3c-1.3,0-2.3-1-2.3-2.3C22.7,12,23.7,11,25,11z"/>
	<path class="edu_iconinfo0" d="M25,25.9c-3.2,0-5.7,2.6-5.7,5.7c0,3.2,2.6,5.7,5.7,5.7c3.2,0,5.7-2.6,5.7-5.7C30.7,28.5,28.2,25.9,25,25.9z
		 M25,34.5c-1.6,0-2.9-1.3-2.9-2.9c0-1.6,1.3-2.9,2.9-2.9c1.6,0,2.9,1.3,2.9,2.9C27.9,33.2,26.6,34.5,25,34.5z"/>
	<circle id="XMLID_30_" class="edu_iconinfo0" cx="25" cy="31.6" r="1.9"/>
	<circle id="XMLID_29_" class="edu_iconinfo0" cx="25" cy="13.4" r="1.4"/>
	<path id="XMLID_28_" class="edu_iconinfo0" d="M31.9,21.8c0-0.2-0.2-0.4-0.4-0.4H18.4c-0.2,0-0.4,0.2-0.4,0.4c0,0.2,0.2,0.4,0.4,0.4h13.1
		C31.8,22.1,31.9,22,31.9,21.8z"/>
</g>
</svg>
