<?xml version="1.0" encoding="utf-8"?>
<!-- Generator: Adobe Illustrator 19.0.0, SVG Export Plug-In . SVG Version: 6.00 Build 0)  -->
<svg version="1.1" id="图层_1" xmlns="http://www.w3.org/2000/svg" xmlns:xlink="http://www.w3.org/1999/xlink" x="0px" y="0px"
	 viewBox="0 0 50 50" style="enable-background:new 0 0 50 50;" xml:space="preserve" zn="学校接入互联网">
<style type="text/css">
	.edu_iconint0{fill:#00BEFF;}
</style>
<path class="edu_iconint0" d="M19.4,15.2c-3.3,1.5-5.8,4.1-8.2,6.7c-0.1-0.2,0-0.4,0-0.5c1.8-6.3,7.3-11,13.9-11.7c0.8-0.1,1.6-0.2,2.4-0.1
	c0.4,0,0.7-0.2,1-0.3c2.1-0.9,4.2-1.6,6.5-1.9c1.6-0.2,3.2-0.2,4.8,0.4c1.9,0.8,2.8,2.2,2.8,4.2c0.1,1.8-0.4,3.4-1.1,5
	c-0.3,0.6-0.3,1.2,0,1.8c1.3,2.6,1.8,5.4,1.6,8.4c0,0.8-0.1,0.8-0.8,0.8c-7.3,0-14.5,0-21.8,0c-0.7,0-0.8,0.1-0.7,0.8
	c0.7,4.2,4.6,6.9,8.9,6c2-0.4,3.6-1.4,4.7-3.1c0.2-0.2,0.3-0.3,0.6-0.3c2.6,0,5.2,0,7.8,0c0.1,0,0.1,0,0.2,0c0.1,0.1,0,0.2,0,0.3
	c-1.3,3.5-3.6,6.2-6.8,8.1c-3,1.8-6.2,2.5-9.6,2.3c-1.9-0.1-3.7-0.6-5.5-1.4c-0.3-0.2-0.6-0.2-0.9,0c-2.1,1-4.2,1.8-6.5,2.1
	c-0.8,0.1-1.6,0.1-2.4-0.1c-1.9-0.4-3-1.8-3.3-3.8c-0.2-1.9,0.1-3.7,0.5-5.6C8,31,9.2,29,10.3,26.9c2.2-4.1,5-7.7,8.3-11
	C18.9,15.7,19.1,15.5,19.4,15.2z M27,23.5C27,23.5,27,23.5,27,23.5c2.2,0,4.5,0,6.7,0c0.6,0,0.7-0.1,0.6-0.7
	c-0.1-0.9-0.4-1.8-0.9-2.6c-1.6-2.6-4.8-4-7.9-3.3c-3,0.6-5.3,2.9-5.7,5.8c-0.1,0.7-0.1,0.8,0.7,0.8C22.6,23.5,24.8,23.5,27,23.5z
	 M18.5,39.8c-1.7-1-3.1-2.2-4.3-3.7c-1.2-1.4-2-3.1-2.8-4.9c-0.4,0.6-0.6,1.2-0.9,1.8c-0.6,1.6-1.2,3.3-1.1,5.1
	c0,2.4,1.8,3.3,3.4,3.4c1.3,0.1,2.5-0.3,3.7-0.7C17.2,40.5,17.9,40.3,18.5,39.8z M32.8,10.7c3.2,1.4,5.8,3.6,7.7,6.5
	c0.2-0.1,0.2-0.2,0.2-0.3c0.4-1.1,0.8-2.3,0.9-3.4c0.2-2.3-1.1-4-3.3-4.2C36.4,9.1,34.6,9.8,32.8,10.7z"/>
</svg>
