<?xml version="1.0" encoding="utf-8"?>
<!-- Generator: Adobe Illustrator 19.0.0, SVG Export Plug-In . SVG Version: 6.00 Build 0)  -->
<svg version="1.1" id="图层_1" xmlns="http://www.w3.org/2000/svg" xmlns:xlink="http://www.w3.org/1999/xlink" x="0px" y="0px"
	 viewBox="0 0 50 50" style="enable-background:new 0 0 50 50;" xml:space="preserve" zn="配备多媒体教学设备">
<style type="text/css">
	.edu_media0{fill:#00BEFF;}
</style>
<path class="edu_media0" d="M46.2,17.1H37v-1.4h9.2V17.1z M46.2,18.1H37v1.4h9.2V18.1z M46.2,11.7h-9.1v3.1h9.1V11.7z M49.1,8.3v33.4
	c0,0.5-0.4,0.9-0.9,0.9H35c-0.5,0-0.9-0.4-0.9-0.9V8.3c0-0.5,0.4-0.9,0.9-0.9h13.2C48.7,7.4,49.1,7.8,49.1,8.3z M47.3,9.2H35.9v31.6
	h11.4V9.2z M46.2,20.4H37v1.4h9.2V20.4z M44.7,30.9c0,1.6-1.3,2.9-2.9,2.9c-1.6,0-2.9-1.3-2.9-2.9c0-1.6,1.3-2.9,2.9-2.9
	C43.4,28,44.7,29.3,44.7,30.9z M43.6,30.9c0-1-0.8-1.9-1.9-1.9c-1,0-1.9,0.8-1.9,1.9c0,1,0.8,1.9,1.9,1.9
	C42.8,32.8,43.6,32,43.6,30.9z M31.6,13.8v18.9c0,1.1-0.9,2.1-2,2.1H19.4c0,0-0.6,4.1,3.1,4.1V41h-3.1h-6.2h-3.1v-2.1
	c3.5,0,3.1-4.1,3.1-4.1H2.9c-1.1,0-2.1-0.9-2.1-2.1V13.8c0-1.1,0.9-2.1,2.1-2.1h26.6C30.7,11.7,31.6,12.7,31.6,13.8z M18.2,32.3
	c0-1-0.8-1.8-1.8-1.8c-1,0-1.8,0.8-1.8,1.8c0,1,0.8,1.8,1.8,1.8C17.4,34,18.2,33.2,18.2,32.3z M29.4,13.9H3.1v16h26.4h0V13.9z
	 M16.4,31.2c-0.6,0-1.1,0.5-1.1,1.1c0,0.6,0.5,1.1,1.1,1.1c0.6,0,1.1-0.5,1.1-1.1C17.5,31.7,17,31.2,16.4,31.2z"/>
</svg>
