<?xml version="1.0" encoding="utf-8"?>
<!-- Generator: Adobe Illustrator 19.0.0, SVG Export Plug-In . SVG Version: 6.00 Build 0)  -->
<svg version="1.1" id="图层_1" xmlns="http://www.w3.org/2000/svg" xmlns:xlink="http://www.w3.org/1999/xlink" x="0px" y="0px"
	 viewBox="0 0 50 50" style="enable-background:new 0 0 50 50;" xml:space="preserve" zn="业务上线率">
<style type="text/css">
	.edu_online0{fill:#00EF43;}
</style>
<g>
	<path class="edu_online0" d="M42.1,29.7H26.2v-5.2v-0.4v-0.7h-3c0.1,0.2,0.2,0.5,0.2,0.7c0,0.1,0,0.2,0,0.3h1.7v12.8h0.7h0.3h15.9h0.3h0.7
		V24.7h-1V29.7z M26.2,36.4v-5.6h15.9v5.6H26.2z"/>
	<circle id="XMLID_82_" class="edu_online0" cx="16.4" cy="11.8" r="3.3"/>
	<path id="XMLID_81_" class="edu_online0" d="M13.1,18.6L13.1,18.6C13,17.8,13.6,17,14.4,17c0,0,0.1,0,0.1,0c0.7,0,1.4,0.6,1.4,1.3
		c0,0,0,0,0,0.1c0,0.1,0,0.2,0.1,0.3c0.1,0.2,0.2,0.6,0.3,1.1c0,0.1,0.1,0.1,0.1,0.2c0.1-0.2,0.1-0.3,0.2-0.5
		c0.6-1.4,0.4-3.2-0.8-3.7c-1.2-0.5-3.1-0.1-4.1,1.9c-1.4,2.7-1.9,4.6-2.1,7.8c0,1,0.4,1.7,0.8,2.2c0,0.1,0,0.2,0.1,0.3l0,0
		c0,0,0,0,0,0c0,0,0,0.1,0,0.1c0.1,0.3,0.3,1.1,0.3,2.2c0,1.9-0.6,4.8-3.5,8.1c-0.7,0.7-0.6,1.9,0.2,2.6c0.3,0.3,0.8,0.5,1.2,0.5
		c0.5,0,1-0.2,1.4-0.6c3-3.3,4.1-6.6,4.3-9.2c0,0.1,0.1,0.1,0.1,0.2c1,1.7,2,4.3,2.3,7.9c0.1,0.9,0.9,1.6,1.8,1.6c0.1,0,0.1,0,0.2,0
		c1-0.1,1.7-1,1.6-2c-0.5-4.9-2-8.3-3.5-10.4c-0.9-1.3-1.7-2.2-2.3-2.7c0.1-1,0.3-2,0.6-3c-0.3-0.4-0.6-0.7-0.9-1.2
		C13.4,20.6,13.1,19.1,13.1,18.6z"/>
	<path id="XMLID_80_" class="edu_online0" d="M23.2,24.3c0-0.6-0.6-1.1-1.2-1.1c-0.1,0-0.3,0-0.4,0c-1.5,0-2.5-0.3-3.3-0.8
		c-1.2-0.7-1.8-1.7-2.2-2.6c-0.2-0.4-0.3-0.8-0.3-1.1c0-0.1,0-0.3-0.1-0.3c0,0,0-0.1,0-0.1c0,0,0,0,0,0c0,0,0,0,0,0v0h0
		c-0.1-0.6-0.6-1.1-1.3-1.1c-0.6,0.1-1.1,0.6-1.1,1.3v0c0,0.1,0.1,1.7,1.2,3.5c0.6,0.9,1.4,1.8,2.5,2.4c1.2,0.7,2.6,1.1,4.4,1.1
		c0,0,0,0,0,0c0.2,0,0.3,0,0.5,0C22.7,25.5,23.2,24.9,23.2,24.3z"/>
	<circle id="XMLID_79_" class="edu_online0" cx="26.7" cy="39.5" r="1.2"/>
	<circle id="XMLID_78_" class="edu_online0" cx="41.5" cy="39.5" r="1.2"/>
	<rect id="XMLID_77_" x="27.4" y="23.6" class="edu_online0" width="1.5" height="5.4"/>
	<path class="edu_online0" d="M30.9,29v-5.4h-1.5V29H30.9z M29.8,24.2h0.9v1.4h-0.9V24.2z"/>
	
		<rect id="XMLID_74_" x="30.5" y="25.5" transform="matrix(-0.3526 -0.9358 0.9358 -0.3526 20.4206 66.5731)" class="edu_online0" width="5.4" height="1.4"/>
	<path class="edu_online0" d="M37.8,28.4l-2.4-4.9l-1.3,0.6l2.4,4.9L37.8,28.4z M35.3,25.7l-0.6-1.2l0.8-0.4l0.6,1.2L35.3,25.7z"/>
	<path class="edu_online0" d="M41.2,28.1L37.7,24l-1.1,0.9l3.6,4.1L41.2,28.1z M38.1,26.2l-0.9-1l0.7-0.6l0.9,1L38.1,26.2z"/>
	<rect id="XMLID_31_" x="27.8" y="34.1" class="edu_online0" width="5.4" height="1.5"/>
	<rect id="XMLID_30_" x="28.3" y="32.1" class="edu_online0" width="5.4" height="1.5"/>
	<rect id="XMLID_29_" x="34.4" y="34.1" class="edu_online0" width="5.4" height="1.5"/>
	<rect id="XMLID_28_" x="35" y="32.1" class="edu_online0" width="5.4" height="1.5"/>
</g>
</svg>
