<?xml version="1.0" encoding="utf-8"?>
<!-- Generator: Adobe Illustrator 19.0.0, SVG Export Plug-In . SVG Version: 6.00 Build 0)  -->
<svg version="1.1" id="图层_1" xmlns="http://www.w3.org/2000/svg" xmlns:xlink="http://www.w3.org/1999/xlink" x="0px" y="0px"
	 viewBox="0 0 50 50" style="enable-background:new 0 0 50 50;" xml:space="preserve" zn="家长注册数">
<style type="text/css">
	.edu_par0{fill:#1CEFF4;}
</style>
<path class="edu_par0" d="M33.7,7V5.4h-2.5V7H18.9V5.4h-2.5V7H11v37.7h28V7H33.7z M37.5,43.2L37.5,43.2H12.5V8.4h3.9v2h2.5v-2h12.3v2h2.5
	v-2h3.9V43.2z M22.8,16.2c0,0-0.3-1,0.1-0.8c-0.3-1.5-0.1-2-0.1-2c0.4-1.1,1.6-1.7,1.6-1.7c0.3-0.3,0.3-0.2,0.3-0.1
	c0.1-0.1,0.2-0.2,0.2-0.2c-0.1,0.1-0.1,0.2-0.2,0.2l0.1,0.1c0.1-0.1,0.2-0.2,0.2-0.2c-0.1,0.1-0.1,0.2-0.1,0.2l0.1,0
	c0.1-0.3,0.3-0.4,0.4-0.5c0.1-0.1,0.3-0.2,0.3-0.2c-0.1,0.1-0.2,0.2-0.2,0.4c0.1-0.2,0.3-0.3,0.3-0.3c0,0.3,0.3,0.6,0.5,0.7
	c0-0.1-0.1-0.1-0.1-0.1c0.1,0.1,0.1,0.1,0.1,0.2c0,0,0,0,0.1,0c-0.1-0.1-0.1-0.1-0.1-0.1c0.1,0.1,0.1,0.1,0.2,0.2c0.1,0,0.1,0,0.2,0
	c0,0,0-0.1,0-0.1c0,0,0.1,0,0.1,0.1c0.9,0.3,1.2,0.7,1.2,0.7c0.8,0.9,0.4,2.2,0.2,2.6c0.3-0.1,0.1,0.8,0.1,0.8
	c0,0.3-0.2,0.4-0.2,0.4c-0.2,1.3-1.3,2.7-2.5,2.7c-1,0-2.2-1.4-2.4-2.7C23,16.6,22.8,16.5,22.8,16.2z M19.3,25.2c0,0,0.1-3.1,1-4.5
	c0,0,0.3-0.4,0.9-0.6c0,0,2.2-0.7,2.3-1.2c0,0,1.6,4.1,3.7,0c0,0,0,0.4,1.1,0.8c0,0,2,0.6,2.3,1.4c0,0,1.1,2.5,0.8,4.7
	c0,0,0,0.2-0.4,0.4c0,0-2.5,1.1-6,1c0,0-3.4-0.2-5.5-1.1C19.6,25.9,19.3,25.9,19.3,25.2z M16.1,35.7h15.7v0.9H16.1V35.7z M16.2,38.5
	h14.3v0.9H16.2V38.5z M16.1,32.8h17.2v0.9H16.1V32.8z M16.1,29.9h18.6v0.9H16.1V29.9z"/>
</svg>
