<?xml version="1.0" encoding="utf-8"?>
<!-- Generator: Adobe Illustrator 19.0.0, SVG Export Plug-In . SVG Version: 6.00 Build 0)  -->
<svg version="1.1" id="图层_1" xmlns="http://www.w3.org/2000/svg" xmlns:xlink="http://www.w3.org/1999/xlink" x="0px" y="0px"
	 viewBox="0 0 50 50" style="enable-background:new 0 0 50 50;" xml:space="preserve" zn="注册教师数">
<style type="text/css">
	.edu_tea0{fill:#1CEFF4;}
</style>
<path id="XMLID_28_" class="edu_tea0" d="M14.5,15.2c0,0-0.2-4,5.2-4.1h2.9l1,1.7l1-1.7h2.6c0,0,4.8-0.1,5.1,4.1v5.2h-3.2v-4.6l-1,0v4.6
	h-9.5l0-4.5h-1v4.5h-3.2V15.2z M23.7,9.9c2.1,0,3.8-1.7,3.8-3.8s-1.7-3.8-3.8-3.8c-2.1,0-3.8,1.7-3.8,3.8S21.6,9.9,23.7,9.9z
	 M18.7,49.9h9.5l4.6-24.3H14.1L18.7,49.9z M46.8,5.1c0,2.7-3,4.9-6.7,5.1c-2,1.6-5.4,2.5-5.4,2.5c1.6-1.5,1.8-2.5,1.7-3.1
	c-2.3-0.8-4-2.5-4-4.5c0-2.8,3.2-5.1,7.2-5.1S46.8,2.3,46.8,5.1z M43.9,6.4c0-0.2-0.2-0.4-0.5-0.4h-7.6c-0.2,0-0.4,0.2-0.4,0.4
	c0,0.2,0.2,0.4,0.4,0.4h7.6C43.7,6.8,43.9,6.6,43.9,6.4z M43.9,3.9c0-0.2-0.2-0.5-0.5-0.5h-7.6c-0.2,0-0.4,0.2-0.4,0.5
	s0.2,0.5,0.4,0.5h7.6C43.7,4.4,43.9,4.2,43.9,3.9z M11.2,24.7h24.6v-3.6H11.2V24.7z"/>
</svg>
