<?xml version="1.0" encoding="utf-8"?>
<!-- Generator: Adobe Illustrator 19.0.0, SVG Export Plug-In . SVG Version: 6.00 Build 0)  -->
<svg version="1.1" id="图层_1" xmlns="http://www.w3.org/2000/svg" xmlns:xlink="http://www.w3.org/1999/xlink" x="0px" y="0px"
	 viewBox="0 0 93.6 94.2" style="enable-background:new 0 0 93.6 94.2;" xml:space="preserve">
<style type="text/css">
	.teacherIcons0{fill:#1CEFF4;}
</style>
<path id="XMLID_958_" class="teacherIcons0" d="M93.6,6.3v37.6c0,1.1-0.9,1.9-1.9,1.9H40.5c-1.1,0-1.9-0.9-1.9-1.9v-3l3.9-2.6V42h47.3V8.2
	H42.4v14.2c-0.2,0.1-0.4,0.2-0.5,0.4l-0.5,0.4c-0.7-1.7-1.7-3.1-2.8-4.2V6.3c0-1.1,0.9-1.9,1.9-1.9h51.2C92.7,4.3,93.6,5.2,93.6,6.3
	z M47.8,31.8l2.3-1.6h0c0,0,0,0,0,0c1.2-1.2,1.4-2.9,0.6-4.3l18.8-12.8l-0.9-1.3l-19,12.9c-0.6-0.4-1.3-0.7-2-0.7
	c-1,0-2,0.3-2.8,1.1c0,0,0,0,0,0l-0.5,0.3l-4.2,2.9v-1.2c-0.8-9.3-11.6-9.2-11.6-9.2h-4.7l-3.9,6.5l-3.9-6.5h-4.5
	C-0.4,18.2,0,27.1,0,27.1v20.8h0C0,48,0,48,0,48.1c0,2,1.6,3.6,3.6,3.6c2,0,3.6-1.6,3.6-3.6c0,0,0-0.1,0-0.2h0V28.6h2.2l0,60.7
	c0,2.7,2.2,4.8,4.8,4.8c2.7,0,4.8-2.2,4.8-4.8V50.2h2.2v39.2l0,0c0,2.6,2.2,4.8,4.8,4.8c2.6,0,4.8-2.2,4.8-4.8l0-60.9h2.3v6.3
	c0,0,0,0,0,0c0,2,1.6,3.6,3.6,3.6c0.6,0,1.1-0.2,1.6-0.4l0,0l6.2-4.1L47.8,31.8z M20.1,16.4c4.5,0,8.2-3.7,8.2-8.2
	c0-4.5-3.7-8.2-8.2-8.2c-4.5,0-8.2,3.7-8.2,8.2C11.9,12.7,15.6,16.4,20.1,16.4z"/>
</svg>
