<?xml version="1.0" encoding="utf-8"?>
<!-- Generator: Adobe Illustrator 19.0.0, SVG Export Plug-In . SVG Version: 6.00 Build 0)  -->
<svg version="1.1" id="图层_1" xmlns="http://www.w3.org/2000/svg" xmlns:xlink="http://www.w3.org/1999/xlink" x="0px" y="0px"
	 viewBox="0 0 50 58" style="enable-background:new 0 0 50 58;" xml:space="preserve">
<style type="text/css">
	.stcure{fill:#25E8E8;}
</style>
<g>
	<rect id="XMLID_52_" x="22" y="46.8" class="stcure" width="6.6" height="0.8"/>
	
		<ellipse id="XMLID_51_" transform="matrix(0.1647 0.9863 -0.9863 0.1647 28.9229 -6.4143)" class="stcure" cx="18.2" cy="13.9" rx="3.6" ry="3.8"/>
	<path id="XMLID_50_" class="stcure" d="M26.6,33.9c-0.2,0-1.9,0-3.9-0.1c0.1-0.4,0.2-0.7,0.2-1.1v-2.4h-5.9v-9.4
		c0-0.9,0.7-1.6,1.6-1.6c0.9,0,1.6,0.7,1.6,1.6v6.2h2.8v-4.7c0-2.5-2-4.5-4.5-4.5s-4.5,2-4.5,4.5v10.3c0,0.6,0.1,1.2,0.4,1.8
		c2.4,0.2,4.5,1.2,6,2.8c1.7,0,3.5,0,4.3,0.1c-0.3,2-1.2,7.2-1.2,7.7c0.2,1.6,3,2.2,3.5-0.3c0.1-0.4,1.4-6.6,1.8-8.6h0
		C28.7,35.1,28.2,33.9,26.6,33.9z"/>
	<path class="stcure" d="M13.5,34.7c-4.8,0-8.8,3.9-8.8,8.8c0,4.8,3.9,8.8,8.8,8.8c4.8,0,8.8-3.9,8.8-8.8
		C22.3,38.6,18.3,34.7,13.5,34.7z M9.5,36.9l3.1,5.4c-0.2,0.1-0.3,0.2-0.4,0.4l-5.4-3.1C7.5,38.5,8.4,37.5,9.5,36.9z M6.8,39.7
		l5.4,3.1C12,43,12,43.2,12,43.4H5.8C5.8,42.1,6.2,40.8,6.8,39.7z M5.8,43.6H12c0,0.2,0.1,0.4,0.1,0.6l-5.4,3.1
		C6.2,46.2,5.8,44.9,5.8,43.6z M6.9,47.4l5.4-3.1c0.1,0.2,0.2,0.3,0.4,0.4l-3.1,5.4C8.4,49.4,7.5,48.5,6.9,47.4z M13.4,51.2
		c-1.3,0-2.6-0.4-3.6-1l3.1-5.4c0.2,0.1,0.4,0.1,0.6,0.1V51.2z M13.4,42c-0.2,0-0.4,0.1-0.6,0.1l-3.1-5.4c1.1-0.6,2.3-1,3.6-1V42z
		 M21.2,43.4H15c0-0.2-0.1-0.4-0.1-0.6l5.4-3.1C20.8,40.8,21.1,42.1,21.2,43.4z M20.1,39.6l-5.4,3.1c-0.1-0.2-0.2-0.3-0.4-0.4
		l3.1-5.4C18.5,37.5,19.4,38.5,20.1,39.6z M13.6,35.8c1.3,0,2.6,0.4,3.6,1l-3.1,5.4C14,42.1,13.8,42,13.6,42V35.8z M13.6,51.2V45
		c0.2,0,0.4-0.1,0.6-0.1l3.1,5.4C16.1,50.8,14.9,51.1,13.6,51.2z M17.4,50.1l-3.1-5.4c0.2-0.1,0.3-0.2,0.4-0.4l5.4,3.1
		C19.4,48.5,18.5,49.4,17.4,50.1z M20.2,47.2l-5.4-3.1c0.1-0.2,0.1-0.4,0.1-0.6h6.2C21.1,44.9,20.8,46.2,20.2,47.2z"/>
	<polygon id="XMLID_36_" class="stcure" points="16.4,37.6 13.9,37.6 13.9,39.6 15.3,39.6 	"/>
	<path id="XMLID_35_" class="stcure" d="M19.7,39.5c-0.5-0.7-1-1.3-1.7-1.8h-0.7l-1.1,1.9h3.3L19.7,39.5z"/>
	<path id="XMLID_34_" class="stcure" d="M13.1,39.6v-3.5c-0.5,0-0.9,0.1-1.4,0.2v1.3v1.9v0H13.1z"/>
	<path id="XMLID_33_" class="stcure" d="M23.4,37.6h-3c0.5,0.6,0.9,1.2,1.3,1.9h1.8V37.6z"/>
	<path id="XMLID_32_" class="stcure" d="M12.1,27.9h-0.4v6.7c0.5-0.1,1.1-0.2,1.7-0.2v-6.5h-0.3v-1.7h0l0-0.1l-4.4-0.9l-0.2,0.9
		l3.7,0.7V27.9z"/>
	<path class="stcure" d="M25.3,47.9c-1.2,0-2.2,1-2.2,2.2c0,1.2,1,2.2,2.2,2.2c1.2,0,2.2-1,2.2-2.2C27.5,48.9,26.5,47.9,25.3,47.9z
		 M25.3,51.1c-0.6,0-1-0.5-1-1c0-0.6,0.5-1,1-1c0.6,0,1,0.5,1,1C26.3,50.7,25.9,51.1,25.3,51.1z"/>
	<path class="stcure" d="M43.2,10.6V9.9V9.6h-0.4h-3.6V5.7h-0.8v3.8h-3.5h-0.2h-0.2v1c-1.1,0-2,0.2-2,0.4v6.2l1,0.4v0.4h0.9v0.2h0.2
		v2.5c0,3.5-2.4,9.7-7.9,9.7c-0.9,0-1.7-0.1-2.3-0.3h1.1c0.7,0,1.3-0.6,1.3-1.3c0-0.7-0.6-1.3-1.3-1.3h-5.9v-6.5
		c0-0.7-0.6-1.3-1.3-1.3c-0.7,0-1.3,0.6-1.3,1.3V30h0.3h2.3h3.2c0.8,0.5,2,0.8,3.9,0.8c5.9,0,8.4-6.6,8.4-10.2v-2.5v-0.2h0.9v-0.4
		l1-0.4v-6.2c0-0.2-0.9-0.3-2.1-0.4V9.9h3.5v40.9h-4.8v1.5H44v-1.5h-4.8V9.9h3.6v0.6c-1.1,0-2,0.2-2,0.4v6.2l1,0.4v0.4h2.5v-0.4
		l1-0.4v-6.2C45.3,10.7,44.4,10.6,43.2,10.6z M36.7,14h-3.9V11c0.2-0.1,0.9-0.2,1.9-0.2c1,0,1.7,0.1,1.9,0.2V14z M45,14v0.4v2.5
		l-1,0.4v0.3h-1.9v-0.3l-1-0.4v-2.5V14V11c0.2-0.1,0.9-0.2,1.9-0.2c1,0,1.7,0.1,1.9,0.2V14z"/>
</g>
</svg>
