<?xml version="1.0" encoding="utf-8"?>
<!-- Generator: Adobe Illustrator 19.0.0, SVG Export Plug-In . SVG Version: 6.00 Build 0)  -->
<svg version="1.1" id="图层_1" xmlns="http://www.w3.org/2000/svg" xmlns:xlink="http://www.w3.org/1999/xlink" x="0px" y="0px"
	 viewBox="0 0 18 22" style="enable-background:new 0 0 18 22;" xml:space="preserve">
<style type="text/css">
	.stupon{fill-rule:evenodd;clip-rule:evenodd;fill:#FFAA00;}
</style>
<g id="XMLID_2_">
	<polygon id="XMLID_3_" class="stupon" points="17,7.8 10.2,0.6 3.3,7.8 7.2,7.8 7.2,8.5 7.2,9.4 7,10.6 6.8,11.6 6.5,12.5 6.3,13.4 
		6,14.3 5.7,15.1 5.3,16.1 4.9,16.8 4.3,17.8 4,18.3 3.5,18.9 3,19.6 2.5,20.2 2,20.6 1.5,21 1.2,21.3 1,21.4 2.2,21.3 3.4,21 
		4.2,20.8 5.3,20.3 6.3,19.7 7.5,19 8.1,18.5 8.9,17.8 9.8,16.7 10.4,16 11.1,15 11.8,13.6 12.6,12.1 13.3,10.2 13.6,8.8 13.7,7.8 	
		"/>
</g>
</svg>
