<?xml version="1.0" encoding="utf-8"?>
<!-- Generator: Adobe Illustrator 19.0.0, SVG Export Plug-In . SVG Version: 6.00 Build 0)  -->
<svg version="1.1" id="图层_1" xmlns="http://www.w3.org/2000/svg" xmlns:xlink="http://www.w3.org/1999/xlink" x="0px" y="0px"
	 viewBox="0 0 50 58" style="enable-background:new 0 0 50 58;" xml:space="preserve">
<style type="text/css">
	.sthosipital{fill:#25E8E8;}
</style>
<g>
	<path id="XMLID_35_" class="sthosipital" d="M26.5,27.4c-5.6,1.2-8.4-1.4-8.5-1.5c-0.7-0.7-1.8-0.7-2.6,0c-0.7,0.7-0.7,1.9,0,2.6
		c0.1,0.1,2.9,2.9,8.2,2.9c1.1,0,2.3-0.1,3.6-0.4c1-0.2,1.6-1.2,1.4-2.2C28.5,27.8,27.5,27.2,26.5,27.4z"/>
	<circle id="XMLID_34_" class="sthosipital" cx="10" cy="22.6" r="4.1"/>
	<path id="XMLID_33_" class="sthosipital" d="M47.8,39.4l-7.6-3.1c-0.3-0.1-0.5-0.2-0.8-0.2h-1.9v-0.4c0-0.2-0.1-0.4-0.1-0.6l7.2,2
		c0.2,0.1,0.4,0.1,0.6,0.1c1,0,1.8-0.6,2.1-1.6c0.3-1.2-0.4-2.3-1.5-2.7l-9.5-2.6c-0.2-0.1-0.4-0.1-0.6-0.1l-6.5,0
		c-0.3,0.7-0.9,1.3-1.7,1.5C26.2,31.9,25.1,32,24,32c-5.3,0-8.8-2.8-9-2.9c-0.5-0.4-0.8-1-0.9-1.7c-0.1-0.7,0.1-1.3,0.5-1.8
		c0.5-0.6,1.2-0.9,1.9-0.9c0.6,0,1.1,0.2,1.5,0.5c0.1,0.1,1.5,1.1,3.7,1.6l-4-2.6c-1.4-0.9-3.1-0.3-4.2,0.7c0,0-0.3,0.3-0.6,0.7
		c-0.2,0.4-0.4,0.8-0.4,0.8l0,0c-0.5,1.3-0.3,3.2,1.1,4.1l7.6,4.9c0.1,0.1,0.2,0.1,0.3,0.2c0,0,0,0,0,0v0.4h-2.2l-10.1-7
		c0.1-0.1,0.1-0.1,0.1-0.2c0.4-0.6,0.2-1.4-0.4-1.7L5.7,25c-0.6-0.4-1.3-0.2-1.7,0.4c-1-0.5-2.2-0.2-2.8,0.7c-0.7,1-0.4,2.4,0.6,3.1
		l15.8,10.9c0.4,0.3,0.8,0.4,1.3,0.4h2.9c0.2,0.5,0.7,0.9,1.2,0.9h2.8v10.4h-1.4c-0.6,0-1.1,0.5-1.1,1.1c0,0.6,0.5,1.1,1.1,1.1h10.3
		c0.6,0,1.1-0.5,1.1-1.1c0-0.6-0.5-1.1-1.1-1.1h-1.5V41.4H36c0.6,0,1-0.4,1.2-0.9h1.6l7.2,2.9c0.3,0.1,0.6,0.2,0.8,0.2
		c0.9,0,1.7-0.5,2.1-1.4C49.5,41.1,48.9,39.8,47.8,39.4z"/>
	<path id="XMLID_32_" class="sthosipital" d="M17.3,21.7c0,1,0.8,1.7,1.7,1.7c4,0,6.3-1.1,7.7-2.4v2.8c-0.1,0.6-0.4,1.6-0.7,2.9
		c0.1,0,0.2,0,0.3-0.1c0.2,0,0.4-0.1,0.5-0.1c1.2,0,2.2,0.8,2.4,1.9c0.1,0.3,0.1,0.7,0,1l6.2,0c0.3,0,0.5,0,0.8,0.1l0.9,0.2
		c-0.5-2.5-1.1-5-1.3-6v-3.3c0.7,1.4,1.1,3.4,1,6.4c0,1,0.7,1.7,1.7,1.8c0,0,0,0,0,0c0.9,0,1.7-0.8,1.7-1.7c0.1-8.2-4.2-12.6-8-13.5
		c0,0,0,0,0,0l-1.1,1.1l-1.1-1.1c-0.6,0.2-2.9,1.2-4.3,3.4c-1.2,1.7-2.3,3.1-6.8,3.1C18.1,20,17.3,20.8,17.3,21.7z"/>
	<path class="sthosipital" d="M31.4,13.1c2.3,0,4.2-1.9,4.2-4.2c0-1-0.3-1.8-0.9-2.6h-1.3V5.8h0.7c-0.3-0.2-0.5-0.4-0.8-0.6
		c-0.3-0.7-1-1.2-1.8-1.2c-0.8,0-1.5,0.5-1.8,1.2c-0.3,0.2-0.6,0.3-0.9,0.6h0.8v0.6h-1.5c-0.5,0.7-0.9,1.6-0.9,2.6
		C27.3,11.2,29.1,13.1,31.4,13.1z M31.4,4.9c0.6,0,1.1,0.5,1.1,1.1c0,0.6-0.5,1.1-1.1,1.1c-0.6,0-1.1-0.5-1.1-1.1
		C30.3,5.4,30.8,4.9,31.4,4.9z"/>
	<path class="sthosipital" d="M19.7,15.8h-1.1V6.3H3.8v9.5h-1V18h16.9V15.8z M17.3,7.5v4.2l-4,0c-0.1,0-0.2,0.1-0.2,0.2l-0.6,2l-0.6-2
		c0-0.1-0.1-0.2-0.2-0.2h-0.8L9.7,8.3c-0.1-0.2-0.3-0.2-0.4,0l-1.2,3.5H5.1V7.5H17.3z M5.1,15.4v-3.2h3.3c0.1,0,0.2-0.1,0.2-0.1l1-3
		l1,3c0,0.1,0.1,0.1,0.2,0.1h0.8l0.7,2.5c0,0.1,0.1,0.2,0.2,0.2c0.1,0,0.2-0.1,0.2-0.2l0.7-2.5l3.9,0v3.2L5.1,15.4L5.1,15.4z"/>
</g>
</svg>
