<?xml version="1.0" encoding="utf-8"?>
<!-- Generator: Adobe Illustrator 19.0.0, SVG Export Plug-In . SVG Version: 6.00 Build 0)  -->
<svg version="1.1" id="图层_1" xmlns="http://www.w3.org/2000/svg" xmlns:xlink="http://www.w3.org/1999/xlink" x="0px" y="0px"
	 viewBox="178 -45.1 952 930" style="enable-background:new 178 -45.1 952 930;" xml:space="preserve">
<style type="text/css">
	.stone{fill:#1561C0;fill-opacity:0.4;stroke:#1561C0;stroke-miterlimit:10;}
	.sttwo{fill:none;stroke:#00BEFF;stroke-width:3;stroke-miterlimit:10;}
	.stthree{fill:none;stroke:#1561C0;stroke-miterlimit:10;}
	.stforu{fill:none;stroke:#009FE8;stroke-miterlimit:10;}
	.stfive{fill:#00BEFF;}
	.stsix{fill:none;stroke:#009FE8;stroke-width:3;stroke-miterlimit:10;}
	.stsev{fill:none;stroke:#00BEFF;stroke-width:2.7467;stroke-miterlimit:10;}
	.stei{display:none;}
	.stnine{display:inline;opacity:0.7;fill:#1561C0;}
	.stten{display:inline;}
	.sttwo0{fill:#25E8E8;}
	.sttwo1{fill:#FFAA00;}
	.sttwo2{font-family:'MicrosoftYaHei-Bold';}
	.sttwo3{font-size:24px;}
	.sttwo4{fill:#F7F7F7;}
	.sttwo5{font-family:'MicrosoftYaHei';}
	.sttwo6{font-size:18px;}
	.sttwo7{font-size:14px;}
	.sttwo8{fill-rule:evenodd;clip-rule:evenodd;fill:#FFAA00;}
	.sttwo9{display:inline;fill:none;stroke:#1561C0;stroke-miterlimit:10;}
	.stthree0{fill:url(#SVGID_1_);}
	.stthree1{fill:none;stroke:#05A8F7;stroke-miterlimit:10;}
	.stthree2{opacity:0.3;fill:none;stroke:#05A8F7;stroke-miterlimit:10;}
	.stthree3{fill:#00D8D2;}
	.stthree4{fill:#00FF81;}
	.stthree5{fill:#FFFFFF;}
	.stthree6{font-family:'MicrosoftYaHeiLight';}
	.stthree7{font-size:12px;}
	.stthree8{fill:#00BEFF;fill-opacity:0.3;stroke:#00BEFF;stroke-miterlimit:10;}
	.stthree9{fill:#00BEFF;stroke:#00BEFF;stroke-miterlimit:10;}
	.stforu0{fill:none;stroke:#00BEFF;stroke-width:2;stroke-miterlimit:10;}
	.stforu1{fill:none;stroke:#00FF81;stroke-miterlimit:10;}
	.stforu2{fill:url(#SVGID_2_);}
	.stforu3{fill:url(#SVGID_3_);}
</style>
<g>
	<g id="底框_1_">
		<polygon id="XMLID_136_" class="stone" points="474.3,11.3 206.6,11.3 206.6,-4 232.9,-28.1 452.2,-28.1 		"/>
		<g id="XMLID_100_">
			<polyline id="XMLID_132_" class="sttwo" points="240.5,882.9 220.9,882.9 187,850.7 187,835.1 			"/>
			<polyline id="XMLID_131_" class="sttwo" points="1128.8,826.8 1128.8,849.8 1094.8,879.9 1074.8,879.9 			"/>
			<polygon id="XMLID_130_" class="stthree" points="197.1,-7.2 226.1,-34.3 458.1,-34.3 484.9,11.2 1085.1,11.2 1118.4,35.7 
				1118.4,845.6 1090.5,870.8 224.8,870.8 197.1,845.6 			"/>
			<polyline id="XMLID_129_" class="stforu" points="179.2,832.5 179.2,854.4 203.9,878.1 			"/>
			<polyline id="XMLID_127_" class="stforu" points="1126.8,19.3 1094.7,-5.5 1060.6,-4.8 			"/>
			<polyline id="XMLID_108_" class="sttwo" points="187,14.3 187.6,-13.8 218.6,-43.1 464.1,-43.1 471.9,-30.8 			"/>
			<polyline id="XMLID_103_" class="sttwo" points="619.1,2.2 1090.2,2.2 1121.5,26.3 			"/>
		</g>
		<g id="XMLID_5_">
			<polygon id="XMLID_69_" class="stfive" points="498.7,6.9 492,6.9 481.2,-10.7 487.9,-10.7 			"/>
			<polygon id="XMLID_68_" class="stfive" points="509.8,6.9 503.1,6.9 492.3,-10.7 499,-10.7 			"/>
			<polygon id="XMLID_67_" class="stfive" points="520.9,6.9 514.2,6.9 503.4,-10.7 510.1,-10.7 			"/>
			<polygon id="XMLID_64_" class="stfive" points="532,6.9 525.3,6.9 514.5,-10.7 521.2,-10.7 			"/>
			<polygon id="XMLID_63_" class="stfive" points="543.1,6.9 536.4,6.9 525.6,-10.7 532.3,-10.7 			"/>
			<polygon id="XMLID_36_" class="stfive" points="554.2,6.9 547.5,6.9 536.7,-10.7 543.4,-10.7 			"/>
			<polygon id="XMLID_29_" class="stfive" points="565.3,6.9 558.6,6.9 547.8,-10.7 554.5,-10.7 			"/>
			<polygon id="XMLID_10_" class="stfive" points="576.4,6.9 569.7,6.9 558.9,-10.7 565.6,-10.7 			"/>
			<polygon id="XMLID_8_" class="stfive" points="587.5,6.9 580.8,6.9 570,-10.7 576.7,-10.7 			"/>
			<polygon id="XMLID_7_" class="stfive" points="598.6,6.9 591.9,6.9 581.1,-10.7 587.8,-10.7 			"/>
			<polygon id="XMLID_6_" class="stfive" points="609.7,6.9 603,6.9 592.2,-10.7 598.9,-10.7 			"/>
		</g>
	</g>
	<g id="上部分">
		<g id="总诊疗人数">
			<g>
				<rect x="214.6" y="34.4" class="stthree" width="887.2" height="388.3"/>
				<g>
					<g>
						<polyline class="stsix" points="214.6,48.1 214.6,34.4 231,34.4 						"/>
						<polyline class="stsix" points="214.6,409.1 214.6,422.8 231,422.8 						"/>
					</g>
					<g>
						<polyline class="stsix" points="1101.9,48.1 1101.9,34.4 1085.5,34.4 						"/>
						<polyline class="stsix" points="1101.9,409.1 1101.9,422.8 1085.5,422.8 						"/>
					</g>
				</g>
			</g>
			<g id="XMLID_3_">
				<line id="XMLID_689_" class="stthree" x1="1078" y1="172.4" x2="238" y2="172.4"/>
				<line id="XMLID_688_" class="stsev" x1="1078.6" y1="172.3" x2="1055.1" y2="172.3"/>
				<line id="XMLID_4_" class="stsev" x1="259.2" y1="172.3" x2="237.9" y2="172.3"/>
			</g>
			<line class="stthree" x1="436.6" y1="53.4" x2="436.6" y2="153.3"/>
			<line class="stthree" x1="655.4" y1="53.4" x2="655.4" y2="153.3"/>
			<line class="stthree" x1="884.2" y1="53.4" x2="884.2" y2="153.3"/>
		</g>
		<g id="门诊人数" class="stei">
			<rect x="449.2" y="43.5" class="stnine" width="193.7" height="115.8"/>
			<g class="stten">
				<rect x="214.6" y="34.4" class="stthree" width="887.2" height="388.3"/>
				<g>
					<g>
						<polyline class="stsix" points="214.6,48.1 214.6,34.4 231,34.4 						"/>
						<polyline class="stsix" points="214.6,409.1 214.6,422.8 231,422.8 						"/>
					</g>
					<g>
						<polyline class="stsix" points="1101.9,48.1 1101.9,34.4 1085.5,34.4 						"/>
						<polyline class="stsix" points="1101.9,409.1 1101.9,422.8 1085.5,422.8 						"/>
					</g>
				</g>
			</g>
			<g class="stten">
				<g>
					<rect x="240" y="97.9" class="sttwo0" width="6.6" height="0.8"/>
					
						<ellipse transform="matrix(0.1647 0.9863 -0.9863 0.1647 261.4199 -178.8164)" class="sttwo0" cx="236.3" cy="64.9" rx="3.6" ry="3.8"/>
					<path class="sttwo0" d="M244.6,85c-0.2,0-1.9,0-3.9-0.1c0.1-0.4,0.2-0.7,0.2-1.1v-2.4h-5.9V72c0-0.9,0.7-1.6,1.6-1.6
						c0.9,0,1.6,0.7,1.6,1.6v6.2h2.8v-4.7c0-2.5-2-4.5-4.5-4.5c-2.5,0-4.5,2-4.5,4.5v10.3c0,0.6,0.1,1.2,0.4,1.8
						c2.4,0.2,4.5,1.2,6,2.8c1.7,0,3.5,0,4.3,0.1c-0.3,2-1.2,7.2-1.2,7.7c0.2,1.6,3,2.2,3.5-0.3c0.1-0.4,1.4-6.6,1.8-8.6h0
						C246.8,86.2,246.2,85,244.6,85z"/>
					<path class="sttwo0" d="M231.5,85.8c-4.8,0-8.8,3.9-8.8,8.8c0,4.8,3.9,8.8,8.8,8.8c4.8,0,8.8-3.9,8.8-8.8
						C240.3,89.7,236.4,85.8,231.5,85.8z M227.6,88l3.1,5.4c-0.2,0.1-0.3,0.2-0.4,0.4l-5.4-3.1C225.6,89.5,226.5,88.6,227.6,88z
						 M224.8,90.8l5.4,3.1c-0.1,0.2-0.1,0.4-0.1,0.6h-6.2C223.8,93.1,224.2,91.9,224.8,90.8z M223.8,94.7h6.2c0,0.2,0.1,0.4,0.1,0.6
						l-5.4,3.1C224.2,97.2,223.8,96,223.8,94.7z M224.9,98.5l5.4-3.1c0.1,0.2,0.2,0.3,0.4,0.4l-3.1,5.4
						C226.5,100.5,225.6,99.6,224.9,98.5z M231.4,102.2c-1.3,0-2.6-0.4-3.6-1l3.1-5.4c0.2,0.1,0.4,0.1,0.6,0.1V102.2z M231.4,93.1
						c-0.2,0-0.4,0.1-0.6,0.1l-3.1-5.4c1.1-0.6,2.3-1,3.6-1V93.1z M239.2,94.5H233c0-0.2-0.1-0.4-0.1-0.6l5.4-3.1
						C238.8,91.9,239.2,93.1,239.2,94.5z M238.1,90.6l-5.4,3.1c-0.1-0.2-0.2-0.3-0.4-0.4l3.1-5.4C236.5,88.6,237.5,89.5,238.1,90.6z
						 M231.6,86.9c1.3,0,2.6,0.4,3.6,1l-3.1,5.4c-0.2-0.1-0.4-0.1-0.6-0.1V86.9z M231.6,102.2V96c0.2,0,0.4-0.1,0.6-0.1l3.1,5.4
						C234.2,101.9,232.9,102.2,231.6,102.2z M235.4,101.2l-3.1-5.4c0.2-0.1,0.3-0.2,0.4-0.4l5.4,3.1
						C237.5,99.6,236.5,100.5,235.4,101.2z M238.2,98.3l-5.4-3.1c0.1-0.2,0.1-0.4,0.1-0.6h6.2C239.2,96,238.8,97.2,238.2,98.3z"/>
					<polygon class="sttwo0" points="234.5,88.7 231.9,88.7 231.9,90.6 233.3,90.6 					"/>
					<path class="sttwo0" d="M237.7,90.5c-0.5-0.7-1-1.3-1.7-1.8h-0.7l-1.1,1.9h3.3L237.7,90.5z"/>
					<path class="sttwo0" d="M231.1,90.7v-3.5c-0.5,0-0.9,0.1-1.4,0.2v1.3v1.9v0H231.1z"/>
					<path class="sttwo0" d="M241.5,88.7h-3c0.5,0.6,0.9,1.2,1.3,1.9h1.8V88.7z"/>
					<path class="sttwo0" d="M230.2,79h-0.4v6.7c0.5-0.1,1.1-0.2,1.7-0.2V79h-0.3v-1.7h0l0-0.1l-4.4-0.9l-0.2,0.9l3.7,0.7V79z"/>
					<path class="sttwo0" d="M243.3,99c-1.2,0-2.2,1-2.2,2.2c0,1.2,1,2.2,2.2,2.2c1.2,0,2.2-1,2.2-2.2C245.5,100,244.5,99,243.3,99z
						 M243.3,102.2c-0.6,0-1-0.5-1-1s0.5-1,1-1c0.6,0,1,0.5,1,1S243.9,102.2,243.3,102.2z"/>
					<path class="sttwo0" d="M261.3,61.6V61v-0.4h-0.4h-3.6v-3.8h-0.8v3.8H253h-0.2h-0.2v1c-1.1,0-2,0.2-2,0.4v6.2l1,0.4V69h0.9v0.2
						h0.2v2.5c0,3.5-2.4,9.7-7.9,9.7c-0.9,0-1.7-0.1-2.3-0.3h1.1c0.7,0,1.3-0.6,1.3-1.3c0-0.7-0.6-1.3-1.3-1.3h-5.9V72
						c0-0.7-0.6-1.3-1.3-1.3c-0.7,0-1.3,0.6-1.3,1.3v9.1h0.3h2.3h3.2c0.8,0.5,2,0.8,3.9,0.8c5.9,0,8.4-6.6,8.4-10.2v-2.5V69h0.9
						v-0.4l1-0.4V62c0-0.2-0.9-0.3-2.1-0.4V61h3.5v40.9h-4.8v1.5h10.3v-1.5h-4.8V61h3.6v0.6c-1.1,0-2,0.2-2,0.4v6.2l1,0.4V69h2.5
						v-0.4l1-0.4V62C263.4,61.8,262.4,61.6,261.3,61.6z M254.8,65h-3.9v-2.9c0.2-0.1,0.9-0.2,1.9-0.2c1,0,1.7,0.1,1.9,0.2V65z
						 M263.1,65v0.4v2.5l-1,0.4v0.3h-1.9v-0.3l-1-0.4v-2.5V65v-2.9c0.2-0.1,0.9-0.2,1.9-0.2c1,0,1.7,0.1,1.9,0.2V65z"/>
				</g>
				<text transform="matrix(1 0 0 1 269.5798 104.5308)" class="sttwo1 sttwo2 sttwo3">30 864 976</text>
				<text transform="matrix(1 0 0 1 269.9131 68.0117)" class="sttwo4 sttwo5 sttwo6">总诊疗人数（人）</text>
				<text transform="matrix(1 0 0 1 249.4412 144.8467)" class="sttwo4 sttwo5 sttwo7">与上年相比</text>
				<text transform="matrix(1 0 0 1 343.5505 144.8469)" class="sttwo4 sttwo5 sttwo7">1.54‰</text>
				<polygon class="sttwo8" points="341.1,148.8 331.2,150.2 333.6,147.9 332.6,147.4 330.5,146 328.9,144.5 327.4,142.6 326.5,140.7 
					325.8,138.4 325.7,136.2 326,134 326.2,132.9 326.8,131.7 334.7,134.9 334.2,135.6 333.9,136.1 333.5,137.4 333.2,138.6 
					333.2,139.9 333.5,141.3 333.9,142.5 334.7,143.7 335.7,144.7 337.1,140.9 				"/>
			</g>
			<g class="stten">
				<text transform="matrix(1 0 0 1 568.8606 144.847)" class="sttwo4 sttwo5 sttwo7">2.95‰</text>
				<text transform="matrix(1 0 0 1 473.1411 144.8866)" class="sttwo4 sttwo5 sttwo7">与上年相比</text>
				<text transform="matrix(1 0 0 1 500.0623 104.531)" class="sttwo1 sttwo2 sttwo3">23 837 414</text>
				<text transform="matrix(1 0 0 1 500.5623 68.0114)" class="sttwo4 sttwo5 sttwo6">门诊人数（人）</text>
				<polygon class="sttwo8" points="562.9,148.8 553,150.2 555.4,147.9 554.4,147.4 552.3,146 550.7,144.5 549.2,142.6 548.3,140.7 
					547.6,138.4 547.5,136.2 547.8,134 548,132.9 548.5,131.7 556.5,134.9 556,135.6 555.7,136.1 555.3,137.4 555,138.6 555,139.9 
					555.3,141.3 555.7,142.5 556.5,143.7 557.5,144.7 558.9,140.9 				"/>
				<g>
					<path class="sttwo0" d="M465.8,75.3c0.3,0.7,1.1,1.6,2.2,1.9c0.6-0.9,0.6-2.1,0.3-2.9l-0.6-1.5l-0.2,0.1c0,0,0,0,0,0
						c-0.3-0.7-0.9-1.1-1.5-0.8l-0.2,0.1c-0.5,0.2-0.7,1-0.5,1.7c0,0,0,0,0,0l-0.1,0L465.8,75.3z"/>
					<path class="sttwo0" d="M464.3,111.7c0,1.3,1.1,2.4,2.4,2.4c1.3,0,2.4-1.1,2.4-2.4V97.4c-0.9,0-3.1-0.1-4.7-0.5V111.7z"/>
					<path class="sttwo0" d="M474.1,59.1L474.1,59.1c0-1.2-2-2.1-4.5-2.1c-2.4,0-4.4,0.9-4.5,2.1h0v2h8.9V59.1z"/>
					<path class="sttwo0" d="M472.4,93.6c0-0.6,0.5-1.1,1.1-1.1h2.3c0.1-0.5,0.3-0.9,0.6-1.2l-0.6-15.1c1.8,3.6,2.3,7.7,1.5,11.8
						c0,0.1-0.1,0.6-0.1,0.7c0,1,0.6,1.9,1.5,2.2c0.9,0.3,1.9-0.2,2.4-1.2c0.1-0.1,0.2-0.5,0.2-0.7c1.3-6.5-0.2-13.2-4.2-18.4
						c0,0-1-1.4-2.9-2c0.1,0.1,0.2,0.2,0.2,0.4c1,1.9-0.2,4.9-0.7,6.1c0.2,0.2,0.2,0.4,0.2,0.7c-0.1,0.5-0.5,0.8-1,0.7
						c-0.5-0.1-0.8-0.5-0.7-1c0.1-0.5,0.5-0.8,1-0.7c0,0,0,0,0,0c0.5-1.2,1.5-3.9,0.7-5.5c-0.2-0.4-0.5-0.7-0.9-0.9
						c-0.3,0-0.6-0.1-1-0.1h-4.6c0,0-0.1,0-0.1,0c-0.4,0.2-0.7,0.4-0.9,0.7c-0.5,0.8-0.5,1.9-0.4,2.5c0.8-0.2,1.7,0.4,2.1,1.3
						c0,0,0,0,0,0l-0.1,0l0.6,1.5c0.4,0.9,0.4,2.1-0.2,3c0.3,0,0.6,0,0.9-0.1c0-0.1,0.1-0.2,0.2-0.2c0.2-0.1,0.3,0.3,0.3,0.3
						s0.2,0.3,0,0.4c-0.1,0.1-0.3,0-0.4-0.1c-0.4,0.1-0.8,0.1-1.2,0.1c-0.2,0.3-0.6,0.5-0.9,0.7c0,0.2-0.1,0.3-0.2,0.4
						c-0.2,0.1-0.3-0.3-0.3-0.3s-0.2-0.3,0-0.4c0.1,0,0.2,0,0.3,0c0.3-0.2,0.5-0.3,0.7-0.5c-1-0.3-1.9-1.1-2.3-2l-0.6-1.5l-0.2,0.1
						c0,0,0,0,0,0c-0.4-1-0.1-2,0.7-2.4c-0.1-0.4-0.2-1.3,0.1-2.1c0,0,0,0,0,0v-0.1c0.1-0.3,0.2-0.6,0.4-0.8
						c0.1-0.1,0.2-0.2,0.2-0.3c-1.8,0.3-3,1.4-3.6,1.9v0c-0.5,0.5-0.9,1-1.2,1.6c-2.7,5.1-2.9,10,0,14.8c0.1,0.1,0.3,0.5,0.3,0.5
						c0.4,0.7,1.4,1,2.2,0.6c0.8-0.4,1.2-1.3,1-2.1c0,0-0.2-0.4-0.2-0.4c-1.5-3-2-5.4-1.5-8.1c0.1-0.3,0.3-0.7,0.4-1l-0.2,4.6
						c0.2,1.4,0.7,2.8,1.5,4.3c0,0.1,0.2,0.5,0.2,0.5c0.3,1-0.2,2-1.1,2.5c-0.3,0.1-0.6,0.2-0.9,0.2l0,0.9h0l-0.3,6.6
						c0,0.7,3,1.3,6.7,1.4h0.5c0.9,0,1.7,0,2.5-0.1V93.6z M469.7,93c-0.3,0-0.6-0.2-0.6-0.6c0-0.3,0.2-0.6,0.6-0.6
						c0.3,0,0.6,0.2,0.6,0.6C470.2,92.7,470,93,469.7,93z M469.7,88.7c-0.3,0-0.6-0.2-0.6-0.6c0-0.3,0.2-0.6,0.6-0.6
						c0.3,0,0.6,0.2,0.6,0.6C470.2,88.5,470,88.7,469.7,88.7z M469.7,84.4c-0.3,0-0.6-0.2-0.6-0.6c0-0.3,0.2-0.6,0.6-0.6
						c0.3,0,0.6,0.2,0.6,0.6C470.2,84.2,470,84.4,469.7,84.4z M469.7,80.1c-0.3,0-0.6-0.2-0.6-0.6c0-0.3,0.2-0.6,0.6-0.6
						c0.3,0,0.6,0.2,0.6,0.6C470.2,79.9,470,80.1,469.7,80.1z M469.7,75.8c-0.3,0-0.6-0.2-0.6-0.6c0-0.3,0.2-0.6,0.6-0.6
						c0.3,0,0.6,0.2,0.6,0.6C470.2,75.6,470,75.8,469.7,75.8z M469.7,71.5c-0.3,0-0.6-0.2-0.6-0.6c0-0.3,0.2-0.6,0.6-0.6
						c0.3,0,0.6,0.2,0.6,0.6C470.2,71.3,470,71.5,469.7,71.5z"/>
					<path class="sttwo0" d="M472.4,101.1v-3.8c-0.9,0.1-1.8,0.1-2.2,0.1v14.3c0,1.3,1.1,2.4,2.4,2.4c1.3,0,2.4-1.1,2.4-2.4v-9.5h-1.4
						C472.9,102.2,472.4,101.7,472.4,101.1z"/>
					<path class="sttwo0" d="M484.8,92.8h-2.6c0-0.9-0.7-1.6-1.5-1.6h-3.2c-0.8,0-1.5,0.7-1.5,1.6h-2.6c-0.4,0-0.8,0.3-0.8,0.8v7.5
						c0,0.4,0.3,0.8,0.8,0.8h11.3c0.4,0,0.8-0.3,0.8-0.8v-7.5C485.5,93.2,485.2,92.8,484.8,92.8z M477.5,92.2h3.2
						c0.3,0,0.5,0.3,0.6,0.6h-4.4C477,92.5,477.2,92.2,477.5,92.2z M481.7,98.6h-1.5v1.5h-2.1v-1.5h-1.5v-2.1h1.5V95h2.1v1.5h1.5
						V98.6z"/>
					<rect x="470.6" y="63.3" class="sttwo0" width="2.3" height="1.1"/>
					<rect x="466.4" y="63.3" class="sttwo0" width="2.3" height="1.1"/>
					<path class="sttwo0" d="M469.6,67.8c2.4,0,4.4-2.2,4.4-5c0-0.4-0.1-0.9-0.2-1.3h-8.5c-0.1,0.4-0.2,0.8-0.2,1.3
						C465.2,65.6,467.2,67.8,469.6,67.8z M466.1,64.6v-1.5c0-0.1,0.1-0.2,0.2-0.2h2.6c0.1,0,0.2,0.1,0.2,0.2v0.6h1.2v-0.6
						c0-0.1,0.1-0.2,0.2-0.2h2.6c0.1,0,0.2,0.1,0.2,0.2v1.5c0,0.1-0.1,0.2-0.2,0.2h-2.6c-0.1,0-0.2-0.1-0.2-0.2v-0.6h-1.2v0.6
						c0,0.1-0.1,0.2-0.2,0.2h-2.6C466.2,64.8,466.1,64.7,466.1,64.6z"/>
				</g>
			</g>
			<g class="stten">
				<text transform="matrix(1 0 0 1 790.0637 145.7306)" class="sttwo4 sttwo5 sttwo7">6.03‰</text>
				<text transform="matrix(1 0 0 1 697.1604 144.8866)" class="sttwo4 sttwo5 sttwo7">与上年相比</text>
				<g>
					<text transform="matrix(1 0 0 1 735.5173 104.5309)" class="sttwo1 sttwo2 sttwo3">1 702 005</text>
				</g>
				<text transform="matrix(1 0 0 1 735.5173 68.0113)" class="sttwo4 sttwo5 sttwo6">急诊人数（人）</text>
				<polygon class="sttwo8" points="785.5,137.5 778.6,130.3 771.8,137.5 775.7,137.5 775.7,138.1 775.6,139 775.4,140.3 775.2,141.2 
					775,142.1 774.8,143.1 774.5,144 774.2,144.7 773.7,145.8 773.4,146.4 772.8,147.5 772.5,148 772,148.6 771.4,149.3 771,149.8 
					770.5,150.3 770,150.7 769.6,151 769.4,151.1 770.6,151 771.9,150.7 772.7,150.4 773.8,150 774.8,149.4 776,148.6 776.5,148.2 
					777.3,147.4 778.2,146.4 778.8,145.7 779.5,144.6 780.3,143.3 781.1,141.7 781.7,139.9 782.1,138.4 782.2,137.5 				"/>
				<g>
					<path class="sttwo0" d="M683.4,70.3c-0.2-1.5-0.4-3-0.6-4.4c-0.1-0.4,0-0.7,0.4-0.9c0.1-0.1,0.2-0.3,0.2-0.4
						c-0.1-0.1-0.2-0.2-0.4-0.2c-0.1,0-0.3,0.1-0.4,0.2c-0.1,0.1-0.3,0.2-0.4,0.2c-0.4,0.1-0.5,0.2-0.3,0.6c0.2,0.3,0.3,0.7,0.4,1.1
						c0.1,0.9,0.3,1.8,0.3,2.8c0.1,0.9,0.3,3.3-0.2,4.2c-0.1,0.1,0.1,0.3,0.2,0.4c0.1,0.1,0.3,0.1,0.3,0c0.2-0.2,0.4-0.4,0.8-0.2
						c0,0,0.1,0,0.1,0c0.3-0.1,0.2-0.3,0.1-0.5C683.7,72.6,683.5,70.7,683.4,70.3z"/>
					<path class="sttwo0" d="M696.3,64.7c-0.2,0-0.3-0.1-0.4-0.2c-0.1-0.1-0.3-0.2-0.4-0.2c-0.1,0-0.3,0.1-0.4,0.2
						c0,0.1,0.1,0.3,0.2,0.4c0.4,0.2,0.4,0.6,0.4,0.9c-0.2,1.5-0.4,3-0.6,4.4c-0.1,0.4-0.2,2.3-0.4,2.7c-0.1,0.2-0.2,0.4,0.1,0.5
						c0,0,0.1,0,0.1,0c0.3-0.1,0.5,0,0.8,0.2c0.1,0.1,0.3,0,0.3,0c0.1-0.1,0.2-0.3,0.2-0.4c-0.6-1-0.4-3.3-0.3-4.2
						c0.1-0.9,0.2-1.9,0.3-2.8c0.1-0.4,0.2-0.7,0.4-1.1C696.8,64.9,696.7,64.7,696.3,64.7z"/>
					<path class="sttwo0" d="M710.5,65C710.5,65,710.5,65,710.5,65c-0.5,0.1-0.9,0.3-1.4,0.5c0.2,2.3,1.5,4.4,2.8,4.4
						c1.3,0,2.6-2.1,2.8-4.4c-0.4-0.2-0.9-0.4-1.4-0.5l-1.4,1.4L710.5,65z"/>
					<path class="sttwo0" d="M715.5,65.9C715.5,65.9,715.5,65.9,715.5,65.9c-0.3,2.3-1.6,4.6-3.3,4.8c-0.2,1.2,0.2,1.6,0.7,2.2
						c0.9,1,1.4,1.9-0.1,4.4c0.1,0.2,0.2,0.4,0.2,0.6c0,0.6-0.5,1-1,1c-0.6,0-1-0.5-1-1c0-0.6,0.5-1,1-1c0.1,0,0.1,0,0.2,0
						c1.3-2.2,0.8-2.7,0.2-3.4c-0.5-0.6-1.1-1.3-0.9-2.7c-1.6-0.4-2.8-2.6-3-4.8c-0.1,0-0.2,0.1-0.2,0.1c-0.6,0.4-1.2,0.8-1.8,1.2
						c-2.1-0.5-3-1.7-4.9-4.2c-0.4-0.5-0.8-1-1.2-1.6v-7.3c0-0.5-0.4-1-1-1h-20.2c-0.5,0-1,0.4-1,1v20.2c0,0.5,0.4,1,1,1h20.2
						c0.5,0,1-0.4,1-1v-6.1c1.4,1.6,3.1,2.7,5.9,3.2v3c0,0,0,0,0,0c0,0,0,5.7,0,7.8c0,1.8,0.4,2.1,0.4,2.1l0,20.7
						c0,1.4,1.2,2.6,2.6,2.6c1.4,0,2.6-1.2,2.6-2.6l0-17.9c0.1,0,0.2,0,0.3,0c0,0,0,0,0.1,0l0,17.9c0,1.4,1.2,2.6,2.6,2.6
						c1.4,0,2.6-1.2,2.6-2.6l0-20.7c0,0,0.4-0.8,0.4-2.1c0-1.3,0-7.9,0-7.9c0.6,1.7,0.9,4,0.6,7.2c-0.1,1.2,0.8,2.3,1.9,2.4
						c0.1,0,0.1,0,0.2,0c1.1,0,2.1-0.8,2.2-2C723.5,72.2,719.7,68.5,715.5,65.9z M699.3,54.2l0,6.2c-0.7-0.5-1.8-0.5-2.5,0.1
						c-0.4,0.3-0.6,0.7-0.7,1.2c0-0.2,0-0.4-0.1-0.5c-0.1-0.9-0.2-1.9-0.2-2.8c0-0.4,0.1-0.8,0.2-1.1c0.1-0.4,0-0.6-0.4-0.6
						c-0.2,0-0.3-0.1-0.5-0.1c-0.1,0-0.3-0.1-0.4-0.1c0.2-0.4,0.1-0.8,0-1c-0.2-0.4-0.7-0.4-1-0.4c-0.1,0-0.1,0-0.1,0c0,0,0,0,0,0
						c-0.2,0-1.7,0.4-2.1,1.2c-0.1,0.1-0.1,0.3-0.1,0.4c-0.1,0-0.2,0-0.2,0c-0.3,0-0.5,0.1-0.7,0.1v-0.2c0-0.2-0.1-0.4-0.2-0.5
						c0-0.1,0.1-0.1,0.1-0.2v-0.3c0,0,0-0.1,0-0.1c0.2-0.1,0.3-0.3,0.3-0.5v-0.1c0-0.1,0-0.5-0.3-0.7H699.3z M693.9,62.1
						c-0.1,0.2-0.3,0.3-0.7,0.3c-0.4,0.1-1,0-1.5-0.2c-1.1-0.4-1.7-1.1-1.6-1.5c0-0.1,0.2-0.2,0.3-0.3c0.3,0.2,0.6,0.4,1,0.5
						c0.5,0.2,1,0.3,1.4,0.3c0.1,0,0.3,0,0.4,0c0,0,0.1,0,0.1,0C693.8,61.5,694,61.9,693.9,62.1z M693.9,63.9
						c-0.1,0.2-0.3,0.3-0.7,0.3c-0.4,0.1-1,0-1.5-0.2c-1.1-0.4-1.7-1.1-1.6-1.5c0-0.1,0.2-0.2,0.4-0.3c0.3,0.2,0.6,0.4,1,0.5
						c0.5,0.2,1,0.3,1.4,0.3c0.1,0,0.3,0,0.4,0c0,0,0,0,0.1,0C693.8,63.4,694,63.7,693.9,63.9z M693.9,60.2
						c-0.1,0.2-0.3,0.3-0.7,0.3c-0.4,0.1-1,0-1.5-0.2c-1.1-0.4-1.7-1.1-1.6-1.5c0.1-0.1,0.3-0.3,0.5-0.3c0.2,0.2,0.5,0.3,0.8,0.4
						c0.3,0.1,0.5,0.2,0.8,0.2c0,0,0,0.1,0.1,0.1c0,0.1,0.1,0.1,0.2,0.1c0,0,0,0,0,0c0.1,0,0.2,0,0.2-0.1l0.1-0.1c0.1,0,0.1,0,0.2,0
						C693.7,59.5,694,60,693.9,60.2z M690.4,57.4c0.1-0.2,0.3-0.3,0.7-0.3c0.1,0,0.2,0,0.3,0c0.1,0.5,0.3,1,0.5,1.4
						c-0.1,0-0.3-0.1-0.4-0.1c-0.4-0.1-0.7-0.4-1-0.6C690.4,57.7,690.4,57.5,690.4,57.4z M690.1,63.8c0.4,0.3,0.8,0.6,1.4,0.8
						c0.3,0.1,0.7,0.2,1,0.2c0.3,0.4,0.4,0.7,0.3,0.9c-0.1,0.2-0.4,0.2-0.7,0.2c-0.4,0-1-0.2-1.4-0.5c-0.3-0.2-0.6-0.5-0.9-0.7
						C690,64.5,690.1,64.1,690.1,63.8z M687.7,73.2c0.2,0,0.4,0.2,0.7,0.4c-0.2,0.2-0.3,0.3-0.4,0.3c-0.2-0.1-0.4-0.3-0.6-0.4
						C687.6,73.4,687.6,73.2,687.7,73.2z M687.8,71.2c0.3-0.2,0.5-0.2,0.7,0.1c0.2,0.3,0.4,0.6,0.7,0.8c0.1,0.1,0.4,0.1,0.4,0
						c0.3-0.2,0.5-0.5,0.7-0.8c0.1-0.1,0.4-0.3,0.5-0.3c0.2,0.1,0.5,0.3,0.5,0.5c0,0.3-0.1,0.8-0.3,0.9c-0.8,1-2.9,0.5-3.3-0.1
						C687.4,72,687.4,71.5,687.8,71.2z M688.2,74.4c0.1,0,0.3-0.1,0.5-0.2c0.5-0.3,1-0.3,1.5,0c0.2,0.1,0.3,0.2,0.5,0.2L688.2,74.4
						L688.2,74.4z M690.6,73.6c0.2-0.2,0.3-0.4,0.5-0.5c0.2,0,0.2,0.1,0.5,0.3c-0.3,0.2-0.5,0.3-0.7,0.4
						C690.8,73.9,690.7,73.7,690.6,73.6z M691.3,74.4c0.3-0.1,0.6-0.4,0.7-0.9c0.1-0.3,0.1-1,0.6-1.2c0.7-0.6,1.7-1.4,1.4-2.2
						c-0.1-0.3-0.2-0.7-0.4-1c-0.6-1-1.7-1.1-2.6-0.4c-0.3,0.3-0.6,0.6-0.9,0.9c-0.5,0.5-0.9,0.6-1.4,0c-0.3-0.3-0.6-0.6-0.9-0.9
						c-0.9-0.8-2-0.6-2.7,0.5c-0.5,0.8-0.4,1.5,0.2,2.2c0.2,0.2,0.3,0.5,0.5,0.8c0.7,0.5,0.8,1,0.9,1.4c0.1,0.5,0.4,0.8,0.7,0.9
						h-8.5V54.2h9.7c-0.1,0.1-0.1,0.1-0.1,0.2c0,0.1,0.1,0.2,0.2,0.3c0.1,0.1,1,0,1,0c0,0,0,0,0,0v0.2c0,0,0,0,0,0H689
						c-0.2,0-0.3,0.1-0.3,0.3c0,0.2,0.1,0.3,0.3,0.3h0.6c0,0,0,0,0,0v0.2h-0.4c-0.1,0-0.2,0.1-0.3,0.2c-0.3,0.1-0.4,0.3-0.4,0.6v0.2
						c-0.2-0.1-0.4-0.1-0.7-0.1c-0.2,0-0.4,0-0.6,0.1c0-0.2,0-0.3-0.1-0.5c-0.4-0.8-1.9-1.2-2.1-1.2c0,0,0,0,0,0c0,0-0.1,0-0.1,0
						c-0.3,0-0.7,0.1-1,0.4c-0.2,0.3-0.2,0.6,0,1c0,0,0,0,0,0c0,0-0.1,0-0.1-0.1c-0.1,0-0.3,0.1-0.4,0.1c-0.2,0-0.3,0.1-0.5,0.1
						c-0.4,0-0.5,0.1-0.4,0.6c0.1,0.4,0.2,0.7,0.2,1.1c0,0.9-0.1,1.9-0.2,2.8c-0.1,0.9-0.1,1.8-0.8,2.6c-0.1,0.1,0,0.3,0.1,0.4
						c0,0.1,0.2,0.1,0.3,0.1c0.3-0.2,0.5-0.3,0.8-0.1c0,0,0.1,0,0.1,0c0.3,0,0.2-0.2,0.2-0.5c-0.1-0.4-0.2-0.9-0.1-1.3
						c0.1-1.5,0.2-3,0.3-4.5c0-0.4,0.1-0.7,0.5-0.9c0.1,0,0.3-0.3,0.2-0.4c0,0,0,0,0,0l0.6,0.7l0.5,0.7c0,0.1,0,0.2,0,0.3
						c0,0,0,0.1,0.1,0.1c-0.8,0.5-1.1,1.2-0.9,1.8c0.1,0.2,0.2,0.4,0.4,0.5c-0.4,0.4-0.6,0.9-0.4,1.3c0.1,0.2,0.2,0.4,0.4,0.5
						c-0.4,0.4-0.6,0.9-0.4,1.3c0.1,0.4,0.6,0.7,1.2,0.8c0,0,0,0,0,0c-0.2,0.5-0.3,0.9-0.1,1.3c0.2,0.3,0.6,0.5,1.1,0.5
						c0.1,0,0.1,0,0.2,0c0.5,0,1.2-0.3,1.7-0.6c0.1-0.1,0.3-0.2,0.4-0.3c0,0,0,0,0,0h1.1c0,0,0,0,0,0c0,0,0.1,0.1,0.1,0.1
						c0,0,0,0,0,0.1v0.1c0,0.1-0.1,0.2-0.2,0.2h-1.1c-0.2,0-0.3,0.1-0.3,0.3c0,0.1,0,0.2,0.1,0.2c0,0.1,0.1,0.2,0.3,0.2h0.9
						c0.1,0,0.1,0.1,0.1,0.1v0.1c0,0.1-0.1,0.1-0.1,0.1h-0.9c-0.2,0-0.3,0.1-0.3,0.3c0,0.1,0.1,0.2,0.2,0.3C688.9,68,689,68,689,68
						h0.7c0,0,0,0,0,0v0.1c0,0,0,0,0,0H689c-0.2,0-0.3,0.1-0.3,0.3c0,0.2,0.1,0.3,0.3,0.3h0.6c0,0,0,0,0,0V69h-0.4
						c-0.2,0-0.3,0.1-0.3,0.3c0,0.2,0.1,0.3,0.3,0.3h0.5c0.3,0,0.5-0.2,0.5-0.5v-0.3c0,0,0-0.1,0-0.1c0.2-0.1,0.3-0.3,0.3-0.5v-0.1
						c0-0.1,0-0.2-0.1-0.3c0.2-0.1,0.3-0.3,0.3-0.5v-0.1c0-0.2-0.1-0.3-0.1-0.4c0.1-0.1,0.2-0.3,0.2-0.4c0.5,0.2,0.9,0.4,1.4,0.4
						c0.1,0,0.1,0,0.2,0c0.5,0,0.9-0.2,1.1-0.5c0.2-0.3,0.2-0.8-0.1-1.3c0,0,0,0,0,0c0.6-0.1,1-0.4,1.2-0.8c0.2-0.4,0-0.9-0.4-1.3
						c0.2-0.1,0.4-0.3,0.4-0.5c0.2-0.4,0-0.9-0.4-1.3c0.2-0.1,0.3-0.3,0.4-0.5c0.2-0.6-0.2-1.2-0.9-1.8c0,0,0-0.1,0.1-0.1
						c0.1-0.2,0-0.4-0.1-0.6l0.2-0.4l0.6-0.6c0,0.1,0.1,0.2,0.2,0.3c0.4,0.1,0.5,0.5,0.5,0.9c0.1,1.5,0.2,3,0.3,4.5
						c0,0.4-0.1,0.9-0.1,1.3c0,0.2-0.1,0.4,0.2,0.5c0,0,0.1,0,0.1,0c0.3-0.2,0.5-0.1,0.8,0.1c0.1,0,0.3,0,0.3-0.1
						c0-0.1,0.1-0.2,0.1-0.3c0.5,0.6,0.9,1.1,1.3,1.7c0.4,0.5,0.8,1.1,1.2,1.5v7.3L691.3,74.4L691.3,74.4z M687.4,58.9
						c0.3-0.1,0.6-0.2,0.8-0.4c0.3,0.1,0.5,0.2,0.5,0.3c0.1,0.4-0.5,1.1-1.6,1.5c-0.5,0.2-1.1,0.3-1.5,0.2c-0.4,0-0.6-0.2-0.7-0.3
						c-0.1-0.2,0.2-0.7,0.8-1.1l0.1,0.1c0,0.1,0.1,0.1,0.2,0.1c0,0,0,0,0,0c0.1,0,0.2,0,0.2-0.1c0,0,0-0.1,0.1-0.1c0,0,0.1,0,0.1,0
						C686.7,59.1,687.1,59.1,687.4,58.9z M686.5,58.7c0.2-0.4,0.4-0.9,0.6-1.4c0.2-0.1,0.5-0.1,0.7-0.1c0.4,0,0.6,0.1,0.7,0.3
						c0,0.1,0,0.3-0.2,0.5c-0.2,0.2-0.6,0.4-1,0.6C687,58.6,686.8,58.6,686.5,58.7z M685.4,61.2c0,0,0.1,0,0.1,0c0.1,0,0.2,0,0.4,0
						c0.5,0,1-0.1,1.4-0.3c0.4-0.1,0.7-0.3,1-0.5c0.1,0.1,0.3,0.1,0.3,0.3c0.1,0.4-0.5,1.1-1.6,1.5c-0.5,0.2-1.1,0.3-1.5,0.2
						c-0.4,0-0.6-0.2-0.7-0.3C684.8,61.9,685,61.5,685.4,61.2z M685.4,63C685.5,63,685.5,63.1,685.4,63c0.2,0,0.3,0,0.4,0
						c0.5,0,0.9-0.1,1.4-0.3c0.4-0.1,0.7-0.3,1-0.5c0.2,0.1,0.3,0.2,0.4,0.3c0.1,0.4-0.5,1.1-1.6,1.5c-0.5,0.2-1.1,0.3-1.5,0.2
						c-0.4,0-0.6-0.2-0.7-0.3C684.8,63.7,685,63.4,685.4,63z M686.3,64.9c0.3,0,0.7-0.1,1-0.2c0.6-0.2,1.1-0.5,1.4-0.8
						c0,0.3,0.1,0.6,0.3,1c-0.2,0.3-0.5,0.5-0.9,0.7c-0.5,0.3-1,0.5-1.4,0.5c-0.4,0-0.6-0.1-0.7-0.2C685.9,65.7,686,65.3,686.3,64.9
						z"/>
					<path class="sttwo0" d="M711.9,64.7c2.9,0,5.3-2.4,5.3-5.3c0-1.2-0.4-2.3-1.1-3.2h-1.7v-0.8h0.9c-0.3-0.3-0.7-0.5-1.1-0.7
						c-0.4-0.9-1.3-1.5-2.3-1.5c-1,0-1.9,0.6-2.3,1.5c-0.4,0.2-0.7,0.4-1.1,0.7h1.1v0.8h-1.8c-0.7,0.9-1.1,2-1.1,3.2
						C706.6,62.4,709,64.7,711.9,64.7z M711.9,54.3c0.8,0,1.4,0.6,1.4,1.4c0,0.8-0.6,1.4-1.4,1.4c-0.8,0-1.4-0.6-1.4-1.4
						C710.5,55,711.1,54.3,711.9,54.3z"/>
				</g>
			</g>
			<g class="stten">
				<g>
					<text transform="matrix(1 0 0 1 967.4458 104.5309)" class="sttwo1 sttwo2 sttwo3">976 419</text>
				</g>
				<text transform="matrix(1 0 0 1 1019.1924 144.847)" class="sttwo4 sttwo5 sttwo7">1.24‰</text>
				<text transform="matrix(1 0 0 1 923.3264 144.8866)" class="sttwo4 sttwo5 sttwo7">与上年相比</text>
				<text transform="matrix(1 0 0 1 967.4458 68.0113)" class="sttwo4 sttwo5 sttwo6">入院人数（人）</text>
				<polygon class="sttwo8" points="1013.4,137.5 1006.6,130.3 999.8,137.5 1003.6,137.5 1003.6,138.1 1003.6,139 1003.4,140.3 
					1003.2,141.2 1003,142.1 1002.7,143.1 1002.5,144 1002.2,144.7 1001.7,145.8 1001.3,146.4 1000.8,147.5 1000.4,148 1000,148.6 
					999.4,149.3 998.9,149.8 998.4,150.3 997.9,150.7 997.6,151 997.4,151.1 998.6,151 999.8,150.7 1000.7,150.4 1001.7,150 
					1002.7,149.4 1003.9,148.6 1004.5,148.2 1005.3,147.4 1006.2,146.4 1006.8,145.7 1007.5,144.6 1008.3,143.3 1009,141.7 
					1009.7,139.9 1010,138.4 1010.1,137.5 				"/>
				<g>
					<path class="sttwo0" d="M932.6,77.3c-5.6,1.2-8.4-1.4-8.5-1.5c-0.7-0.7-1.8-0.7-2.6,0c-0.7,0.7-0.7,1.9,0,2.6
						c0.1,0.1,2.9,2.9,8.2,2.9c1.1,0,2.3-0.1,3.6-0.4c1-0.2,1.6-1.2,1.4-2.2C934.5,77.7,933.5,77,932.6,77.3z"/>
					<circle class="sttwo0" cx="916.1" cy="72.5" r="4.1"/>
					<path class="sttwo0" d="M953.9,89.2l-7.6-3.1c-0.3-0.1-0.5-0.2-0.8-0.2h-1.9v-0.4c0-0.2-0.1-0.4-0.1-0.6l7.2,2
						c0.2,0.1,0.4,0.1,0.6,0.1c1,0,1.8-0.6,2.1-1.6c0.3-1.2-0.4-2.3-1.5-2.7l-9.5-2.6c-0.2-0.1-0.4-0.1-0.6-0.1l-6.5,0
						c-0.3,0.7-0.9,1.3-1.7,1.5c-1.1,0.2-2.2,0.4-3.2,0.4c-5.3,0-8.8-2.8-9-2.9c-0.5-0.4-0.8-1-0.9-1.7c-0.1-0.7,0.1-1.3,0.5-1.8
						c0.5-0.6,1.2-0.9,1.9-0.9c0.6,0,1.1,0.2,1.5,0.5c0.1,0.1,1.5,1.1,3.7,1.6l-4-2.6c-1.4-0.9-3.1-0.3-4.2,0.7c0,0-0.3,0.3-0.6,0.7
						c-0.2,0.4-0.4,0.8-0.4,0.8l0,0c-0.5,1.3-0.3,3.2,1.1,4.1l7.6,4.9c0.1,0.1,0.2,0.1,0.3,0.2c0,0,0,0,0,0V86h-2.2l-10.1-7
						c0.1-0.1,0.1-0.1,0.1-0.2c0.4-0.6,0.2-1.4-0.4-1.7l-3.4-2.1c-0.6-0.4-1.3-0.2-1.7,0.4c-1-0.5-2.2-0.2-2.8,0.7
						c-0.7,1-0.4,2.4,0.6,3.1L923.6,90c0.4,0.3,0.8,0.4,1.3,0.4h2.9c0.2,0.5,0.7,0.9,1.2,0.9h2.8v10.4h-1.4c-0.6,0-1.1,0.5-1.1,1.1
						c0,0.6,0.5,1.1,1.1,1.1h10.3c0.6,0,1.1-0.5,1.1-1.1c0-0.6-0.5-1.1-1.1-1.1h-1.5V91.3h2.8c0.6,0,1-0.4,1.2-0.9h1.6l7.2,2.9
						c0.3,0.1,0.6,0.2,0.8,0.2c0.9,0,1.7-0.5,2.1-1.4C955.5,91,955,89.7,953.9,89.2z"/>
					<path class="sttwo0" d="M923.4,71.6c0,1,0.8,1.7,1.7,1.7c4,0,6.3-1.1,7.7-2.4v2.8c-0.1,0.6-0.4,1.6-0.7,2.9c0.1,0,0.2,0,0.3-0.1
						c0.2,0,0.4-0.1,0.5-0.1c1.2,0,2.2,0.8,2.4,1.9c0.1,0.3,0.1,0.7,0,1l6.2,0c0.3,0,0.5,0,0.8,0.1l0.9,0.2c-0.5-2.5-1.1-5-1.3-6
						v-3.3c0.7,1.4,1.1,3.4,1,6.4c0,1,0.7,1.7,1.7,1.8c0,0,0,0,0,0c0.9,0,1.7-0.8,1.7-1.7c0.1-8.2-4.2-12.6-8-13.5c0,0,0,0,0,0
						l-1.1,1.1l-1.1-1.1c-0.6,0.2-2.9,1.2-4.3,3.4c-1.2,1.7-2.3,3.1-6.8,3.1C924.2,69.9,923.4,70.7,923.4,71.6z"/>
					<path class="sttwo0" d="M937.5,63c2.3,0,4.2-1.9,4.2-4.2c0-1-0.3-1.8-0.9-2.6h-1.3v-0.6h0.7c-0.3-0.2-0.5-0.4-0.8-0.6
						c-0.3-0.7-1-1.2-1.8-1.2c-0.8,0-1.5,0.5-1.8,1.2c-0.3,0.2-0.6,0.3-0.9,0.6h0.8v0.6h-1.5c-0.5,0.7-0.9,1.6-0.9,2.6
						C933.3,61.1,935.2,63,937.5,63z M937.5,54.8c0.6,0,1.1,0.5,1.1,1.1c0,0.6-0.5,1.1-1.1,1.1c-0.6,0-1.1-0.5-1.1-1.1
						C936.4,55.3,936.9,54.8,937.5,54.8z"/>
					<path class="sttwo0" d="M925.7,65.7h-1.1v-9.5h-14.7v9.5h-1v2.2h16.9V65.7z M923.4,57.4v4.2l-4,0c-0.1,0-0.2,0.1-0.2,0.2l-0.6,2
						l-0.6-2c0-0.1-0.1-0.2-0.2-0.2H917l-1.2-3.5c-0.1-0.2-0.3-0.2-0.4,0l-1.2,3.5h-3.1v-4.2H923.4z M911.1,65.3V62h3.3
						c0.1,0,0.2-0.1,0.2-0.1l1-3l1,3c0,0.1,0.1,0.1,0.2,0.1h0.8l0.7,2.5c0,0.1,0.1,0.2,0.2,0.2c0.1,0,0.2-0.1,0.2-0.2l0.7-2.5l3.9,0
						v3.2L911.1,65.3L911.1,65.3z"/>
				</g>
			</g>
			<line class="sttwo9" x1="436.6" y1="53.4" x2="436.6" y2="153.3"/>
			<line class="sttwo9" x1="655.4" y1="53.4" x2="655.4" y2="153.3"/>
			<line class="sttwo9" x1="884.2" y1="53.4" x2="884.2" y2="153.3"/>
			<g class="stten">
				<linearGradient id="SVGID_1_" gradientUnits="userSpaceOnUse" x1="630.2689" y1="392.6552" x2="630.2689" y2="244.3235">
					<stop  offset="0" style="stop-color:#00BEFF;stop-opacity:0.1"/>
					<stop  offset="1" style="stop-color:#00FF81;stop-opacity:0.6"/>
				</linearGradient>
				<path class="stthree0" d="M374.8,392.7L374.8,392.7c0,0,67-82.1,86.3-93.4s64.5-14.3,85-14.3s62.7-15,84.3-21.5
					c21.7-6.5,62.3-0.5,85-3.5s68.1-10.8,85-10.8c17,0,85-4.8,85-4.8s-0.6-9.8,0.2,148.2H374.8z"/>
				<polyline class="stthree1" points="290.3,227.6 290.3,392.9 970.9,392.9 				"/>
				<line class="stthree1" x1="280.2" y1="359.9" x2="290.3" y2="359.9"/>
				<line class="stthree1" x1="280.2" y1="326.9" x2="290.3" y2="326.9"/>
				<line class="stthree1" x1="280.2" y1="392.8" x2="290.3" y2="392.8"/>
				<line class="stthree1" x1="287" y1="370.8" x2="290.3" y2="370.8"/>
				<line class="stthree1" x1="287" y1="337.9" x2="290.3" y2="337.9"/>
				<line class="stthree1" x1="287" y1="348.9" x2="290.3" y2="348.9"/>
				<line class="stthree1" x1="280.2" y1="294" x2="290.3" y2="294"/>
				<line class="stthree1" x1="287" y1="381.8" x2="290.3" y2="381.8"/>
				<line class="stthree1" x1="287" y1="315.9" x2="290.3" y2="315.9"/>
				<line class="stthree1" x1="287" y1="304.9" x2="290.3" y2="304.9"/>
				<line class="stthree1" x1="287" y1="283" x2="290.3" y2="283"/>
				<line class="stthree1" x1="287" y1="272" x2="290.3" y2="272"/>
				<line class="stthree1" x1="287" y1="239" x2="290.3" y2="239"/>
				<line class="stthree1" x1="287" y1="250" x2="290.3" y2="250"/>
				<line class="stthree1" x1="280.2" y1="228.1" x2="290.3" y2="228.1"/>
				<line class="stthree1" x1="280.2" y1="261" x2="290.3" y2="261"/>
				<line class="stthree2" x1="290" y1="359.9" x2="970.5" y2="359.9"/>
				<line class="stthree2" x1="290" y1="294" x2="970.5" y2="294"/>
				<line class="stthree2" x1="290" y1="326.9" x2="970.5" y2="326.9"/>
				<line class="stthree2" x1="290" y1="261" x2="970.5" y2="261"/>
				<line class="stthree2" x1="290" y1="228.1" x2="970.5" y2="228.1"/>
				<path class="stthree2" d="M800.5,227.3c0,81.5,0,107.3,0,165.6"/>
				<path class="stthree2" d="M970.6,227.3c0,81.5,0,105.8,0,164.1"/>
				<path class="stthree2" d="M885.5,227.3c0,81.5,0,165.1,0,165.1"/>
				<path class="stthree2" d="M715.4,227.3c0,81.5,0,107.3,0,165.6"/>
				<path class="stthree2" d="M630.4,227.3c0,81.5,0,107.3,0,165.6"/>
				<path class="stthree2" d="M545.4,227.3c0,81.5,0,107.3,0,165.6"/>
				<path class="stthree2" d="M460.3,227.3c0,81.5,0,107.3,0,165.6"/>
				<path class="stthree2" d="M375.3,227.3c0,81.5,0,107.3,0,165.6"/>
				<circle class="stthree3" cx="375.3" cy="392.9" r="3"/>
				<circle class="stthree4" cx="460.3" cy="299.3" r="3"/>
				<circle class="stthree4" cx="545.4" cy="285" r="3"/>
				<circle class="stthree4" cx="630.4" cy="263.5" r="3"/>
				<circle class="stthree4" cx="715.4" cy="260.1" r="3"/>
				<circle class="stthree4" cx="800.5" cy="249.2" r="3"/>
				<circle class="stthree4" cx="885.5" cy="244.4" r="3"/>
				<text transform="matrix(1 0 0 1 248.6692 232.1408)" class="stthree5 stthree6 stthree7">2500</text>
				<text transform="matrix(1 0 0 1 248.6687 265.0026)" class="stthree5 stthree6 stthree7">2000</text>
				<text transform="matrix(1 0 0 1 250.7258 297.8646)" class="stthree5 stthree6 stthree7">1500</text>
				<text transform="matrix(1 0 0 1 255.343 363.5878)" class="stthree5 stthree6 stthree7">500</text>
				<text transform="matrix(1 0 0 1 250.7258 330.7263)" class="stthree5 stthree6 stthree7">1000</text>
				<text transform="matrix(1 0 0 1 268.6907 396.4492)" class="stthree5 stthree6 stthree7">0</text>
				<text transform="matrix(1 0 0 1 358.0925 411.5663)" class="stthree5 stthree6 sttwo7">2009</text>
				<text transform="matrix(1 0 0 1 443.9714 411.5663)" class="stthree5 stthree6 sttwo7">2010</text>
				<text transform="matrix(1 0 0 1 529.8508 411.5663)" class="stthree5 stthree6 sttwo7">2011</text>
				<text transform="matrix(1 0 0 1 613.9688 411.5663)" class="stthree5 stthree6 sttwo7">2012</text>
				<text transform="matrix(1 0 0 1 698.967 411.5663)" class="stthree5 stthree6 sttwo7">2013</text>
				<text transform="matrix(1 0 0 1 783.8777 411.5663)" class="stthree5 stthree6 sttwo7">2014</text>
				<text transform="matrix(1 0 0 1 868.9644 411.5663)" class="stthree5 stthree6 sttwo7">2015</text>
				<text transform="matrix(1 0 0 1 953.9629 411.5664)" class="stthree5 stthree6 sttwo7">2016</text>
				<text transform="matrix(1 0 0 1 1000.2961 411.5664)" class="stthree5 stthree6 sttwo7">年份</text>
				<text transform="matrix(1 0 0 1 251.3645 206.5517)" class="stthree5 stthree6 stthree7">万人</text>
				<g>
					<g>
						<rect x="847.4" y="190.5" class="stthree8" width="76.2" height="36.1"/>
						<polygon class="stthree9" points="885.5,233.4 889.6,226.5 881.4,226.5 						"/>
					</g>
					<text transform="matrix(1 0 0 1 851.4673 213.2443)" class="stthree5 sttwo2 sttwo7">23837414</text>
					<g>
						<polyline class="stforu0" points="847.4,194.6 847.4,190.5 852.9,190.5 						"/>
						<polyline class="stforu0" points="919.5,226.5 923.6,226.5 923.6,222.4 						"/>
					</g>
				</g>
				<circle class="stthree4" cx="994.8" cy="247.6" r="6"/>
				<text transform="matrix(1 0 0 1 1007.0107 252.3194)" class="sttwo4 stthree6 sttwo7">门诊人数</text>
				<path class="stforu1" d="M374.8,392.7L374.8,392.7c0,0,67-82.1,86.3-93.4s64.5-14.3,85-14.3s62.7-15,84.3-21.5
					c21.7-6.5,62.3-0.5,85-3.5s68.1-10.8,85-10.8c17,0,85-4.8,85-4.8"/>
			</g>
			<g id="XMLID_1_" class="stten">
				<line id="XMLID_690_" class="stthree" x1="1078" y1="172.4" x2="238" y2="172.4"/>
				<line id="XMLID_184_" class="stsev" x1="1078.6" y1="172.3" x2="1055.1" y2="172.3"/>
				<line id="XMLID_142_" class="stsev" x1="259.2" y1="172.3" x2="237.9" y2="172.3"/>
			</g>
		</g>
		<g id="急诊人数" class="stei">
			<rect x="673" y="43.5" class="stnine" width="193.7" height="115.8"/>
			<g class="stten">
				<rect x="214.6" y="34.4" class="stthree" width="887.2" height="388.3"/>
				<g>
					<g>
						<polyline class="stsix" points="214.6,48.1 214.6,34.4 231,34.4 						"/>
						<polyline class="stsix" points="214.6,409.1 214.6,422.8 231,422.8 						"/>
					</g>
					<g>
						<polyline class="stsix" points="1101.9,48.1 1101.9,34.4 1085.5,34.4 						"/>
						<polyline class="stsix" points="1101.9,409.1 1101.9,422.8 1085.5,422.8 						"/>
					</g>
				</g>
			</g>
			<g class="stten">
				<g>
					<rect x="240" y="97.9" class="sttwo0" width="6.6" height="0.8"/>
					
						<ellipse transform="matrix(0.1647 0.9863 -0.9863 0.1647 261.4199 -178.8164)" class="sttwo0" cx="236.3" cy="64.9" rx="3.6" ry="3.8"/>
					<path class="sttwo0" d="M244.6,85c-0.2,0-1.9,0-3.9-0.1c0.1-0.4,0.2-0.7,0.2-1.1v-2.4h-5.9V72c0-0.9,0.7-1.6,1.6-1.6
						c0.9,0,1.6,0.7,1.6,1.6v6.2h2.8v-4.7c0-2.5-2-4.5-4.5-4.5c-2.5,0-4.5,2-4.5,4.5v10.3c0,0.6,0.1,1.2,0.4,1.8
						c2.4,0.2,4.5,1.2,6,2.8c1.7,0,3.5,0,4.3,0.1c-0.3,2-1.2,7.2-1.2,7.7c0.2,1.6,3,2.2,3.5-0.3c0.1-0.4,1.4-6.6,1.8-8.6h0
						C246.8,86.2,246.2,85,244.6,85z"/>
					<path class="sttwo0" d="M231.5,85.8c-4.8,0-8.8,3.9-8.8,8.8c0,4.8,3.9,8.8,8.8,8.8c4.8,0,8.8-3.9,8.8-8.8
						C240.3,89.7,236.4,85.8,231.5,85.8z M227.6,88l3.1,5.4c-0.2,0.1-0.3,0.2-0.4,0.4l-5.4-3.1C225.6,89.5,226.5,88.6,227.6,88z
						 M224.8,90.8l5.4,3.1c-0.1,0.2-0.1,0.4-0.1,0.6h-6.2C223.8,93.1,224.2,91.9,224.8,90.8z M223.8,94.7h6.2c0,0.2,0.1,0.4,0.1,0.6
						l-5.4,3.1C224.2,97.2,223.8,96,223.8,94.7z M224.9,98.5l5.4-3.1c0.1,0.2,0.2,0.3,0.4,0.4l-3.1,5.4
						C226.5,100.5,225.6,99.6,224.9,98.5z M231.4,102.2c-1.3,0-2.6-0.4-3.6-1l3.1-5.4c0.2,0.1,0.4,0.1,0.6,0.1V102.2z M231.4,93.1
						c-0.2,0-0.4,0.1-0.6,0.1l-3.1-5.4c1.1-0.6,2.3-1,3.6-1V93.1z M239.2,94.5H233c0-0.2-0.1-0.4-0.1-0.6l5.4-3.1
						C238.8,91.9,239.2,93.1,239.2,94.5z M238.1,90.6l-5.4,3.1c-0.1-0.2-0.2-0.3-0.4-0.4l3.1-5.4C236.5,88.6,237.5,89.5,238.1,90.6z
						 M231.6,86.9c1.3,0,2.6,0.4,3.6,1l-3.1,5.4c-0.2-0.1-0.4-0.1-0.6-0.1V86.9z M231.6,102.2V96c0.2,0,0.4-0.1,0.6-0.1l3.1,5.4
						C234.2,101.9,232.9,102.2,231.6,102.2z M235.4,101.2l-3.1-5.4c0.2-0.1,0.3-0.2,0.4-0.4l5.4,3.1
						C237.5,99.6,236.5,100.5,235.4,101.2z M238.2,98.3l-5.4-3.1c0.1-0.2,0.1-0.4,0.1-0.6h6.2C239.2,96,238.8,97.2,238.2,98.3z"/>
					<polygon class="sttwo0" points="234.5,88.7 231.9,88.7 231.9,90.6 233.3,90.6 					"/>
					<path class="sttwo0" d="M237.7,90.5c-0.5-0.7-1-1.3-1.7-1.8h-0.7l-1.1,1.9h3.3L237.7,90.5z"/>
					<path class="sttwo0" d="M231.1,90.7v-3.5c-0.5,0-0.9,0.1-1.4,0.2v1.3v1.9v0H231.1z"/>
					<path class="sttwo0" d="M241.5,88.7h-3c0.5,0.6,0.9,1.2,1.3,1.9h1.8V88.7z"/>
					<path class="sttwo0" d="M230.2,79h-0.4v6.7c0.5-0.1,1.1-0.2,1.7-0.2V79h-0.3v-1.7h0l0-0.1l-4.4-0.9l-0.2,0.9l3.7,0.7V79z"/>
					<path class="sttwo0" d="M243.3,99c-1.2,0-2.2,1-2.2,2.2c0,1.2,1,2.2,2.2,2.2c1.2,0,2.2-1,2.2-2.2C245.5,100,244.5,99,243.3,99z
						 M243.3,102.2c-0.6,0-1-0.5-1-1s0.5-1,1-1c0.6,0,1,0.5,1,1S243.9,102.2,243.3,102.2z"/>
					<path class="sttwo0" d="M261.3,61.6V61v-0.4h-0.4h-3.6v-3.8h-0.8v3.8H253h-0.2h-0.2v1c-1.1,0-2,0.2-2,0.4v6.2l1,0.4V69h0.9v0.2
						h0.2v2.5c0,3.5-2.4,9.7-7.9,9.7c-0.9,0-1.7-0.1-2.3-0.3h1.1c0.7,0,1.3-0.6,1.3-1.3c0-0.7-0.6-1.3-1.3-1.3h-5.9V72
						c0-0.7-0.6-1.3-1.3-1.3c-0.7,0-1.3,0.6-1.3,1.3v9.1h0.3h2.3h3.2c0.8,0.5,2,0.8,3.9,0.8c5.9,0,8.4-6.6,8.4-10.2v-2.5V69h0.9
						v-0.4l1-0.4V62c0-0.2-0.9-0.3-2.1-0.4V61h3.5v40.9h-4.8v1.5h10.3v-1.5h-4.8V61h3.6v0.6c-1.1,0-2,0.2-2,0.4v6.2l1,0.4V69h2.5
						v-0.4l1-0.4V62C263.4,61.8,262.4,61.6,261.3,61.6z M254.8,65h-3.9v-2.9c0.2-0.1,0.9-0.2,1.9-0.2c1,0,1.7,0.1,1.9,0.2V65z
						 M263.1,65v0.4v2.5l-1,0.4v0.3h-1.9v-0.3l-1-0.4v-2.5V65v-2.9c0.2-0.1,0.9-0.2,1.9-0.2c1,0,1.7,0.1,1.9,0.2V65z"/>
				</g>
				<text transform="matrix(1 0 0 1 269.5798 104.5308)" class="sttwo1 sttwo2 sttwo3">30 864 976</text>
				<text transform="matrix(1 0 0 1 269.9131 68.0117)" class="sttwo4 sttwo5 sttwo6">总诊疗人数（人）</text>
				<text transform="matrix(1 0 0 1 249.4412 144.8467)" class="sttwo4 sttwo5 sttwo7">与上年相比</text>
				<text transform="matrix(1 0 0 1 343.5505 144.8469)" class="sttwo4 sttwo5 sttwo7">1.54‰</text>
				<polygon class="sttwo8" points="341.1,148.8 331.2,150.2 333.6,147.9 332.6,147.4 330.5,146 328.9,144.5 327.4,142.6 326.5,140.7 
					325.8,138.4 325.7,136.2 326,134 326.2,132.9 326.8,131.7 334.7,134.9 334.2,135.6 333.9,136.1 333.5,137.4 333.2,138.6 
					333.2,139.9 333.5,141.3 333.9,142.5 334.7,143.7 335.7,144.7 337.1,140.9 				"/>
			</g>
			<g class="stten">
				<text transform="matrix(1 0 0 1 568.8606 144.847)" class="sttwo4 sttwo5 sttwo7">2.95‰</text>
				<text transform="matrix(1 0 0 1 473.1411 144.8866)" class="sttwo4 sttwo5 sttwo7">与上年相比</text>
				<text transform="matrix(1 0 0 1 500.0623 104.531)" class="sttwo1 sttwo2 sttwo3">23 837 414</text>
				<text transform="matrix(1 0 0 1 500.5623 68.0114)" class="sttwo4 sttwo5 sttwo6">门诊人数（人）</text>
				<polygon class="sttwo8" points="562.9,148.8 553,150.2 555.4,147.9 554.4,147.4 552.3,146 550.7,144.5 549.2,142.6 548.3,140.7 
					547.6,138.4 547.5,136.2 547.8,134 548,132.9 548.5,131.7 556.5,134.9 556,135.6 555.7,136.1 555.3,137.4 555,138.6 555,139.9 
					555.3,141.3 555.7,142.5 556.5,143.7 557.5,144.7 558.9,140.9 				"/>
				<g>
					<path class="sttwo0" d="M465.8,75.3c0.3,0.7,1.1,1.6,2.2,1.9c0.6-0.9,0.6-2.1,0.3-2.9l-0.6-1.5l-0.2,0.1c0,0,0,0,0,0
						c-0.3-0.7-0.9-1.1-1.5-0.8l-0.2,0.1c-0.5,0.2-0.7,1-0.5,1.7c0,0,0,0,0,0l-0.1,0L465.8,75.3z"/>
					<path class="sttwo0" d="M464.3,111.7c0,1.3,1.1,2.4,2.4,2.4c1.3,0,2.4-1.1,2.4-2.4V97.4c-0.9,0-3.1-0.1-4.7-0.5V111.7z"/>
					<path class="sttwo0" d="M474.1,59.1L474.1,59.1c0-1.2-2-2.1-4.5-2.1c-2.4,0-4.4,0.9-4.5,2.1h0v2h8.9V59.1z"/>
					<path class="sttwo0" d="M472.4,93.6c0-0.6,0.5-1.1,1.1-1.1h2.3c0.1-0.5,0.3-0.9,0.6-1.2l-0.6-15.1c1.8,3.6,2.3,7.7,1.5,11.8
						c0,0.1-0.1,0.6-0.1,0.7c0,1,0.6,1.9,1.5,2.2c0.9,0.3,1.9-0.2,2.4-1.2c0.1-0.1,0.2-0.5,0.2-0.7c1.3-6.5-0.2-13.2-4.2-18.4
						c0,0-1-1.4-2.9-2c0.1,0.1,0.2,0.2,0.2,0.4c1,1.9-0.2,4.9-0.7,6.1c0.2,0.2,0.2,0.4,0.2,0.7c-0.1,0.5-0.5,0.8-1,0.7
						c-0.5-0.1-0.8-0.5-0.7-1c0.1-0.5,0.5-0.8,1-0.7c0,0,0,0,0,0c0.5-1.2,1.5-3.9,0.7-5.5c-0.2-0.4-0.5-0.7-0.9-0.9
						c-0.3,0-0.6-0.1-1-0.1h-4.6c0,0-0.1,0-0.1,0c-0.4,0.2-0.7,0.4-0.9,0.7c-0.5,0.8-0.5,1.9-0.4,2.5c0.8-0.2,1.7,0.4,2.1,1.3
						c0,0,0,0,0,0l-0.1,0l0.6,1.5c0.4,0.9,0.4,2.1-0.2,3c0.3,0,0.6,0,0.9-0.1c0-0.1,0.1-0.2,0.2-0.2c0.2-0.1,0.3,0.3,0.3,0.3
						s0.2,0.3,0,0.4c-0.1,0.1-0.3,0-0.4-0.1c-0.4,0.1-0.8,0.1-1.2,0.1c-0.2,0.3-0.6,0.5-0.9,0.7c0,0.2-0.1,0.3-0.2,0.4
						c-0.2,0.1-0.3-0.3-0.3-0.3s-0.2-0.3,0-0.4c0.1,0,0.2,0,0.3,0c0.3-0.2,0.5-0.3,0.7-0.5c-1-0.3-1.9-1.1-2.3-2l-0.6-1.5l-0.2,0.1
						c0,0,0,0,0,0c-0.4-1-0.1-2,0.7-2.4c-0.1-0.4-0.2-1.3,0.1-2.1c0,0,0,0,0,0v-0.1c0.1-0.3,0.2-0.6,0.4-0.8
						c0.1-0.1,0.2-0.2,0.2-0.3c-1.8,0.3-3,1.4-3.6,1.9v0c-0.5,0.5-0.9,1-1.2,1.6c-2.7,5.1-2.9,10,0,14.8c0.1,0.1,0.3,0.5,0.3,0.5
						c0.4,0.7,1.4,1,2.2,0.6c0.8-0.4,1.2-1.3,1-2.1c0,0-0.2-0.4-0.2-0.4c-1.5-3-2-5.4-1.5-8.1c0.1-0.3,0.3-0.7,0.4-1l-0.2,4.6
						c0.2,1.4,0.7,2.8,1.5,4.3c0,0.1,0.2,0.5,0.2,0.5c0.3,1-0.2,2-1.1,2.5c-0.3,0.1-0.6,0.2-0.9,0.2l0,0.9h0l-0.3,6.6
						c0,0.7,3,1.3,6.7,1.4h0.5c0.9,0,1.7,0,2.5-0.1V93.6z M469.7,93c-0.3,0-0.6-0.2-0.6-0.6c0-0.3,0.2-0.6,0.6-0.6
						c0.3,0,0.6,0.2,0.6,0.6C470.2,92.7,470,93,469.7,93z M469.7,88.7c-0.3,0-0.6-0.2-0.6-0.6c0-0.3,0.2-0.6,0.6-0.6
						c0.3,0,0.6,0.2,0.6,0.6C470.2,88.5,470,88.7,469.7,88.7z M469.7,84.4c-0.3,0-0.6-0.2-0.6-0.6c0-0.3,0.2-0.6,0.6-0.6
						c0.3,0,0.6,0.2,0.6,0.6C470.2,84.2,470,84.4,469.7,84.4z M469.7,80.1c-0.3,0-0.6-0.2-0.6-0.6c0-0.3,0.2-0.6,0.6-0.6
						c0.3,0,0.6,0.2,0.6,0.6C470.2,79.9,470,80.1,469.7,80.1z M469.7,75.8c-0.3,0-0.6-0.2-0.6-0.6c0-0.3,0.2-0.6,0.6-0.6
						c0.3,0,0.6,0.2,0.6,0.6C470.2,75.6,470,75.8,469.7,75.8z M469.7,71.5c-0.3,0-0.6-0.2-0.6-0.6c0-0.3,0.2-0.6,0.6-0.6
						c0.3,0,0.6,0.2,0.6,0.6C470.2,71.3,470,71.5,469.7,71.5z"/>
					<path class="sttwo0" d="M472.4,101.1v-3.8c-0.9,0.1-1.8,0.1-2.2,0.1v14.3c0,1.3,1.1,2.4,2.4,2.4c1.3,0,2.4-1.1,2.4-2.4v-9.5h-1.4
						C472.9,102.2,472.4,101.7,472.4,101.1z"/>
					<path class="sttwo0" d="M484.8,92.8h-2.6c0-0.9-0.7-1.6-1.5-1.6h-3.2c-0.8,0-1.5,0.7-1.5,1.6h-2.6c-0.4,0-0.8,0.3-0.8,0.8v7.5
						c0,0.4,0.3,0.8,0.8,0.8h11.3c0.4,0,0.8-0.3,0.8-0.8v-7.5C485.5,93.2,485.2,92.8,484.8,92.8z M477.5,92.2h3.2
						c0.3,0,0.5,0.3,0.6,0.6h-4.4C477,92.5,477.2,92.2,477.5,92.2z M481.7,98.6h-1.5v1.5h-2.1v-1.5h-1.5v-2.1h1.5V95h2.1v1.5h1.5
						V98.6z"/>
					<rect x="470.6" y="63.3" class="sttwo0" width="2.3" height="1.1"/>
					<rect x="466.4" y="63.3" class="sttwo0" width="2.3" height="1.1"/>
					<path class="sttwo0" d="M469.6,67.8c2.4,0,4.4-2.2,4.4-5c0-0.4-0.1-0.9-0.2-1.3h-8.5c-0.1,0.4-0.2,0.8-0.2,1.3
						C465.2,65.6,467.2,67.8,469.6,67.8z M466.1,64.6v-1.5c0-0.1,0.1-0.2,0.2-0.2h2.6c0.1,0,0.2,0.1,0.2,0.2v0.6h1.2v-0.6
						c0-0.1,0.1-0.2,0.2-0.2h2.6c0.1,0,0.2,0.1,0.2,0.2v1.5c0,0.1-0.1,0.2-0.2,0.2h-2.6c-0.1,0-0.2-0.1-0.2-0.2v-0.6h-1.2v0.6
						c0,0.1-0.1,0.2-0.2,0.2h-2.6C466.2,64.8,466.1,64.7,466.1,64.6z"/>
				</g>
			</g>
			<g class="stten">
				<text transform="matrix(1 0 0 1 790.0637 145.7306)" class="sttwo4 sttwo5 sttwo7">6.03‰</text>
				<text transform="matrix(1 0 0 1 697.1604 144.8866)" class="sttwo4 sttwo5 sttwo7">与上年相比</text>
				<g>
					<text transform="matrix(1 0 0 1 735.5173 104.5309)" class="sttwo1 sttwo2 sttwo3">1 702 005</text>
				</g>
				<text transform="matrix(1 0 0 1 735.5173 68.0113)" class="sttwo4 sttwo5 sttwo6">急诊人数（人）</text>
				<polygon class="sttwo8" points="785.5,137.5 778.6,130.3 771.8,137.5 775.7,137.5 775.7,138.1 775.6,139 775.4,140.3 775.2,141.2 
					775,142.1 774.8,143.1 774.5,144 774.2,144.7 773.7,145.8 773.4,146.4 772.8,147.5 772.5,148 772,148.6 771.4,149.3 771,149.8 
					770.5,150.3 770,150.7 769.6,151 769.4,151.1 770.6,151 771.9,150.7 772.7,150.4 773.8,150 774.8,149.4 776,148.6 776.5,148.2 
					777.3,147.4 778.2,146.4 778.8,145.7 779.5,144.6 780.3,143.3 781.1,141.7 781.7,139.9 782.1,138.4 782.2,137.5 				"/>
				<g>
					<path class="sttwo0" d="M683.4,70.3c-0.2-1.5-0.4-3-0.6-4.4c-0.1-0.4,0-0.7,0.4-0.9c0.1-0.1,0.2-0.3,0.2-0.4
						c-0.1-0.1-0.2-0.2-0.4-0.2c-0.1,0-0.3,0.1-0.4,0.2c-0.1,0.1-0.3,0.2-0.4,0.2c-0.4,0.1-0.5,0.2-0.3,0.6c0.2,0.3,0.3,0.7,0.4,1.1
						c0.1,0.9,0.3,1.8,0.3,2.8c0.1,0.9,0.3,3.3-0.2,4.2c-0.1,0.1,0.1,0.3,0.2,0.4c0.1,0.1,0.3,0.1,0.3,0c0.2-0.2,0.4-0.4,0.8-0.2
						c0,0,0.1,0,0.1,0c0.3-0.1,0.2-0.3,0.1-0.5C683.7,72.6,683.5,70.7,683.4,70.3z"/>
					<path class="sttwo0" d="M696.3,64.7c-0.2,0-0.3-0.1-0.4-0.2c-0.1-0.1-0.3-0.2-0.4-0.2c-0.1,0-0.3,0.1-0.4,0.2
						c0,0.1,0.1,0.3,0.2,0.4c0.4,0.2,0.4,0.6,0.4,0.9c-0.2,1.5-0.4,3-0.6,4.4c-0.1,0.4-0.2,2.3-0.4,2.7c-0.1,0.2-0.2,0.4,0.1,0.5
						c0,0,0.1,0,0.1,0c0.3-0.1,0.5,0,0.8,0.2c0.1,0.1,0.3,0,0.3,0c0.1-0.1,0.2-0.3,0.2-0.4c-0.6-1-0.4-3.3-0.3-4.2
						c0.1-0.9,0.2-1.9,0.3-2.8c0.1-0.4,0.2-0.7,0.4-1.1C696.8,64.9,696.7,64.7,696.3,64.7z"/>
					<path class="sttwo0" d="M710.5,65C710.5,65,710.5,65,710.5,65c-0.5,0.1-0.9,0.3-1.4,0.5c0.2,2.3,1.5,4.4,2.8,4.4
						c1.3,0,2.6-2.1,2.8-4.4c-0.4-0.2-0.9-0.4-1.4-0.5l-1.4,1.4L710.5,65z"/>
					<path class="sttwo0" d="M715.5,65.9C715.5,65.9,715.5,65.9,715.5,65.9c-0.3,2.3-1.6,4.6-3.3,4.8c-0.2,1.2,0.2,1.6,0.7,2.2
						c0.9,1,1.4,1.9-0.1,4.4c0.1,0.2,0.2,0.4,0.2,0.6c0,0.6-0.5,1-1,1c-0.6,0-1-0.5-1-1c0-0.6,0.5-1,1-1c0.1,0,0.1,0,0.2,0
						c1.3-2.2,0.8-2.7,0.2-3.4c-0.5-0.6-1.1-1.3-0.9-2.7c-1.6-0.4-2.8-2.6-3-4.8c-0.1,0-0.2,0.1-0.2,0.1c-0.6,0.4-1.2,0.8-1.8,1.2
						c-2.1-0.5-3-1.7-4.9-4.2c-0.4-0.5-0.8-1-1.2-1.6v-7.3c0-0.5-0.4-1-1-1h-20.2c-0.5,0-1,0.4-1,1v20.2c0,0.5,0.4,1,1,1h20.2
						c0.5,0,1-0.4,1-1v-6.1c1.4,1.6,3.1,2.7,5.9,3.2v3c0,0,0,0,0,0c0,0,0,5.7,0,7.8c0,1.8,0.4,2.1,0.4,2.1l0,20.7
						c0,1.4,1.2,2.6,2.6,2.6c1.4,0,2.6-1.2,2.6-2.6l0-17.9c0.1,0,0.2,0,0.3,0c0,0,0,0,0.1,0l0,17.9c0,1.4,1.2,2.6,2.6,2.6
						c1.4,0,2.6-1.2,2.6-2.6l0-20.7c0,0,0.4-0.8,0.4-2.1c0-1.3,0-7.9,0-7.9c0.6,1.7,0.9,4,0.6,7.2c-0.1,1.2,0.8,2.3,1.9,2.4
						c0.1,0,0.1,0,0.2,0c1.1,0,2.1-0.8,2.2-2C723.5,72.2,719.7,68.5,715.5,65.9z M699.3,54.2l0,6.2c-0.7-0.5-1.8-0.5-2.5,0.1
						c-0.4,0.3-0.6,0.7-0.7,1.2c0-0.2,0-0.4-0.1-0.5c-0.1-0.9-0.2-1.9-0.2-2.8c0-0.4,0.1-0.8,0.2-1.1c0.1-0.4,0-0.6-0.4-0.6
						c-0.2,0-0.3-0.1-0.5-0.1c-0.1,0-0.3-0.1-0.4-0.1c0.2-0.4,0.1-0.8,0-1c-0.2-0.4-0.7-0.4-1-0.4c-0.1,0-0.1,0-0.1,0c0,0,0,0,0,0
						c-0.2,0-1.7,0.4-2.1,1.2c-0.1,0.1-0.1,0.3-0.1,0.4c-0.1,0-0.2,0-0.2,0c-0.3,0-0.5,0.1-0.7,0.1v-0.2c0-0.2-0.1-0.4-0.2-0.5
						c0-0.1,0.1-0.1,0.1-0.2v-0.3c0,0,0-0.1,0-0.1c0.2-0.1,0.3-0.3,0.3-0.5v-0.1c0-0.1,0-0.5-0.3-0.7H699.3z M693.9,62.1
						c-0.1,0.2-0.3,0.3-0.7,0.3c-0.4,0.1-1,0-1.5-0.2c-1.1-0.4-1.7-1.1-1.6-1.5c0-0.1,0.2-0.2,0.3-0.3c0.3,0.2,0.6,0.4,1,0.5
						c0.5,0.2,1,0.3,1.4,0.3c0.1,0,0.3,0,0.4,0c0,0,0.1,0,0.1,0C693.8,61.5,694,61.9,693.9,62.1z M693.9,63.9
						c-0.1,0.2-0.3,0.3-0.7,0.3c-0.4,0.1-1,0-1.5-0.2c-1.1-0.4-1.7-1.1-1.6-1.5c0-0.1,0.2-0.2,0.4-0.3c0.3,0.2,0.6,0.4,1,0.5
						c0.5,0.2,1,0.3,1.4,0.3c0.1,0,0.3,0,0.4,0c0,0,0,0,0.1,0C693.8,63.4,694,63.7,693.9,63.9z M693.9,60.2
						c-0.1,0.2-0.3,0.3-0.7,0.3c-0.4,0.1-1,0-1.5-0.2c-1.1-0.4-1.7-1.1-1.6-1.5c0.1-0.1,0.3-0.3,0.5-0.3c0.2,0.2,0.5,0.3,0.8,0.4
						c0.3,0.1,0.5,0.2,0.8,0.2c0,0,0,0.1,0.1,0.1c0,0.1,0.1,0.1,0.2,0.1c0,0,0,0,0,0c0.1,0,0.2,0,0.2-0.1l0.1-0.1c0.1,0,0.1,0,0.2,0
						C693.7,59.5,694,60,693.9,60.2z M690.4,57.4c0.1-0.2,0.3-0.3,0.7-0.3c0.1,0,0.2,0,0.3,0c0.1,0.5,0.3,1,0.5,1.4
						c-0.1,0-0.3-0.1-0.4-0.1c-0.4-0.1-0.7-0.4-1-0.6C690.4,57.7,690.4,57.5,690.4,57.4z M690.1,63.8c0.4,0.3,0.8,0.6,1.4,0.8
						c0.3,0.1,0.7,0.2,1,0.2c0.3,0.4,0.4,0.7,0.3,0.9c-0.1,0.2-0.4,0.2-0.7,0.2c-0.4,0-1-0.2-1.4-0.5c-0.3-0.2-0.6-0.5-0.9-0.7
						C690,64.5,690.1,64.1,690.1,63.8z M687.7,73.2c0.2,0,0.4,0.2,0.7,0.4c-0.2,0.2-0.3,0.3-0.4,0.3c-0.2-0.1-0.4-0.3-0.6-0.4
						C687.6,73.4,687.6,73.2,687.7,73.2z M687.8,71.2c0.3-0.2,0.5-0.2,0.7,0.1c0.2,0.3,0.4,0.6,0.7,0.8c0.1,0.1,0.4,0.1,0.4,0
						c0.3-0.2,0.5-0.5,0.7-0.8c0.1-0.1,0.4-0.3,0.5-0.3c0.2,0.1,0.5,0.3,0.5,0.5c0,0.3-0.1,0.8-0.3,0.9c-0.8,1-2.9,0.5-3.3-0.1
						C687.4,72,687.4,71.5,687.8,71.2z M688.2,74.4c0.1,0,0.3-0.1,0.5-0.2c0.5-0.3,1-0.3,1.5,0c0.2,0.1,0.3,0.2,0.5,0.2L688.2,74.4
						L688.2,74.4z M690.6,73.6c0.2-0.2,0.3-0.4,0.5-0.5c0.2,0,0.2,0.1,0.5,0.3c-0.3,0.2-0.5,0.3-0.7,0.4
						C690.8,73.9,690.7,73.7,690.6,73.6z M691.3,74.4c0.3-0.1,0.6-0.4,0.7-0.9c0.1-0.3,0.1-1,0.6-1.2c0.7-0.6,1.7-1.4,1.4-2.2
						c-0.1-0.3-0.2-0.7-0.4-1c-0.6-1-1.7-1.1-2.6-0.4c-0.3,0.3-0.6,0.6-0.9,0.9c-0.5,0.5-0.9,0.6-1.4,0c-0.3-0.3-0.6-0.6-0.9-0.9
						c-0.9-0.8-2-0.6-2.7,0.5c-0.5,0.8-0.4,1.5,0.2,2.2c0.2,0.2,0.3,0.5,0.5,0.8c0.7,0.5,0.8,1,0.9,1.4c0.1,0.5,0.4,0.8,0.7,0.9
						h-8.5V54.2h9.7c-0.1,0.1-0.1,0.1-0.1,0.2c0,0.1,0.1,0.2,0.2,0.3c0.1,0.1,1,0,1,0c0,0,0,0,0,0v0.2c0,0,0,0,0,0H689
						c-0.2,0-0.3,0.1-0.3,0.3c0,0.2,0.1,0.3,0.3,0.3h0.6c0,0,0,0,0,0v0.2h-0.4c-0.1,0-0.2,0.1-0.3,0.2c-0.3,0.1-0.4,0.3-0.4,0.6v0.2
						c-0.2-0.1-0.4-0.1-0.7-0.1c-0.2,0-0.4,0-0.6,0.1c0-0.2,0-0.3-0.1-0.5c-0.4-0.8-1.9-1.2-2.1-1.2c0,0,0,0,0,0c0,0-0.1,0-0.1,0
						c-0.3,0-0.7,0.1-1,0.4c-0.2,0.3-0.2,0.6,0,1c0,0,0,0,0,0c0,0-0.1,0-0.1-0.1c-0.1,0-0.3,0.1-0.4,0.1c-0.2,0-0.3,0.1-0.5,0.1
						c-0.4,0-0.5,0.1-0.4,0.6c0.1,0.4,0.2,0.7,0.2,1.1c0,0.9-0.1,1.9-0.2,2.8c-0.1,0.9-0.1,1.8-0.8,2.6c-0.1,0.1,0,0.3,0.1,0.4
						c0,0.1,0.2,0.1,0.3,0.1c0.3-0.2,0.5-0.3,0.8-0.1c0,0,0.1,0,0.1,0c0.3,0,0.2-0.2,0.2-0.5c-0.1-0.4-0.2-0.9-0.1-1.3
						c0.1-1.5,0.2-3,0.3-4.5c0-0.4,0.1-0.7,0.5-0.9c0.1,0,0.3-0.3,0.2-0.4c0,0,0,0,0,0l0.6,0.7l0.5,0.7c0,0.1,0,0.2,0,0.3
						c0,0,0,0.1,0.1,0.1c-0.8,0.5-1.1,1.2-0.9,1.8c0.1,0.2,0.2,0.4,0.4,0.5c-0.4,0.4-0.6,0.9-0.4,1.3c0.1,0.2,0.2,0.4,0.4,0.5
						c-0.4,0.4-0.6,0.9-0.4,1.3c0.1,0.4,0.6,0.7,1.2,0.8c0,0,0,0,0,0c-0.2,0.5-0.3,0.9-0.1,1.3c0.2,0.3,0.6,0.5,1.1,0.5
						c0.1,0,0.1,0,0.2,0c0.5,0,1.2-0.3,1.7-0.6c0.1-0.1,0.3-0.2,0.4-0.3c0,0,0,0,0,0h1.1c0,0,0,0,0,0c0,0,0.1,0.1,0.1,0.1
						c0,0,0,0,0,0.1v0.1c0,0.1-0.1,0.2-0.2,0.2h-1.1c-0.2,0-0.3,0.1-0.3,0.3c0,0.1,0,0.2,0.1,0.2c0,0.1,0.1,0.2,0.3,0.2h0.9
						c0.1,0,0.1,0.1,0.1,0.1v0.1c0,0.1-0.1,0.1-0.1,0.1h-0.9c-0.2,0-0.3,0.1-0.3,0.3c0,0.1,0.1,0.2,0.2,0.3C688.9,68,689,68,689,68
						h0.7c0,0,0,0,0,0v0.1c0,0,0,0,0,0H689c-0.2,0-0.3,0.1-0.3,0.3c0,0.2,0.1,0.3,0.3,0.3h0.6c0,0,0,0,0,0V69h-0.4
						c-0.2,0-0.3,0.1-0.3,0.3c0,0.2,0.1,0.3,0.3,0.3h0.5c0.3,0,0.5-0.2,0.5-0.5v-0.3c0,0,0-0.1,0-0.1c0.2-0.1,0.3-0.3,0.3-0.5v-0.1
						c0-0.1,0-0.2-0.1-0.3c0.2-0.1,0.3-0.3,0.3-0.5v-0.1c0-0.2-0.1-0.3-0.1-0.4c0.1-0.1,0.2-0.3,0.2-0.4c0.5,0.2,0.9,0.4,1.4,0.4
						c0.1,0,0.1,0,0.2,0c0.5,0,0.9-0.2,1.1-0.5c0.2-0.3,0.2-0.8-0.1-1.3c0,0,0,0,0,0c0.6-0.1,1-0.4,1.2-0.8c0.2-0.4,0-0.9-0.4-1.3
						c0.2-0.1,0.4-0.3,0.4-0.5c0.2-0.4,0-0.9-0.4-1.3c0.2-0.1,0.3-0.3,0.4-0.5c0.2-0.6-0.2-1.2-0.9-1.8c0,0,0-0.1,0.1-0.1
						c0.1-0.2,0-0.4-0.1-0.6l0.2-0.4l0.6-0.6c0,0.1,0.1,0.2,0.2,0.3c0.4,0.1,0.5,0.5,0.5,0.9c0.1,1.5,0.2,3,0.3,4.5
						c0,0.4-0.1,0.9-0.1,1.3c0,0.2-0.1,0.4,0.2,0.5c0,0,0.1,0,0.1,0c0.3-0.2,0.5-0.1,0.8,0.1c0.1,0,0.3,0,0.3-0.1
						c0-0.1,0.1-0.2,0.1-0.3c0.5,0.6,0.9,1.1,1.3,1.7c0.4,0.5,0.8,1.1,1.2,1.5v7.3L691.3,74.4L691.3,74.4z M687.4,58.9
						c0.3-0.1,0.6-0.2,0.8-0.4c0.3,0.1,0.5,0.2,0.5,0.3c0.1,0.4-0.5,1.1-1.6,1.5c-0.5,0.2-1.1,0.3-1.5,0.2c-0.4,0-0.6-0.2-0.7-0.3
						c-0.1-0.2,0.2-0.7,0.8-1.1l0.1,0.1c0,0.1,0.1,0.1,0.2,0.1c0,0,0,0,0,0c0.1,0,0.2,0,0.2-0.1c0,0,0-0.1,0.1-0.1c0,0,0.1,0,0.1,0
						C686.7,59.1,687.1,59.1,687.4,58.9z M686.5,58.7c0.2-0.4,0.4-0.9,0.6-1.4c0.2-0.1,0.5-0.1,0.7-0.1c0.4,0,0.6,0.1,0.7,0.3
						c0,0.1,0,0.3-0.2,0.5c-0.2,0.2-0.6,0.4-1,0.6C687,58.6,686.8,58.6,686.5,58.7z M685.4,61.2c0,0,0.1,0,0.1,0c0.1,0,0.2,0,0.4,0
						c0.5,0,1-0.1,1.4-0.3c0.4-0.1,0.7-0.3,1-0.5c0.1,0.1,0.3,0.1,0.3,0.3c0.1,0.4-0.5,1.1-1.6,1.5c-0.5,0.2-1.1,0.3-1.5,0.2
						c-0.4,0-0.6-0.2-0.7-0.3C684.8,61.9,685,61.5,685.4,61.2z M685.4,63C685.5,63,685.5,63.1,685.4,63c0.2,0,0.3,0,0.4,0
						c0.5,0,0.9-0.1,1.4-0.3c0.4-0.1,0.7-0.3,1-0.5c0.2,0.1,0.3,0.2,0.4,0.3c0.1,0.4-0.5,1.1-1.6,1.5c-0.5,0.2-1.1,0.3-1.5,0.2
						c-0.4,0-0.6-0.2-0.7-0.3C684.8,63.7,685,63.4,685.4,63z M686.3,64.9c0.3,0,0.7-0.1,1-0.2c0.6-0.2,1.1-0.5,1.4-0.8
						c0,0.3,0.1,0.6,0.3,1c-0.2,0.3-0.5,0.5-0.9,0.7c-0.5,0.3-1,0.5-1.4,0.5c-0.4,0-0.6-0.1-0.7-0.2C685.9,65.7,686,65.3,686.3,64.9
						z"/>
					<path class="sttwo0" d="M711.9,64.7c2.9,0,5.3-2.4,5.3-5.3c0-1.2-0.4-2.3-1.1-3.2h-1.7v-0.8h0.9c-0.3-0.3-0.7-0.5-1.1-0.7
						c-0.4-0.9-1.3-1.5-2.3-1.5c-1,0-1.9,0.6-2.3,1.5c-0.4,0.2-0.7,0.4-1.1,0.7h1.1v0.8h-1.8c-0.7,0.9-1.1,2-1.1,3.2
						C706.6,62.4,709,64.7,711.9,64.7z M711.9,54.3c0.8,0,1.4,0.6,1.4,1.4c0,0.8-0.6,1.4-1.4,1.4c-0.8,0-1.4-0.6-1.4-1.4
						C710.5,55,711.1,54.3,711.9,54.3z"/>
				</g>
			</g>
			<g class="stten">
				<g>
					<text transform="matrix(1 0 0 1 967.4458 104.5309)" class="sttwo1 sttwo2 sttwo3">976 419</text>
				</g>
				<text transform="matrix(1 0 0 1 1019.1924 144.847)" class="sttwo4 sttwo5 sttwo7">1.24‰</text>
				<text transform="matrix(1 0 0 1 923.3264 144.8866)" class="sttwo4 sttwo5 sttwo7">与上年相比</text>
				<text transform="matrix(1 0 0 1 967.4458 68.0113)" class="sttwo4 sttwo5 sttwo6">入院人数（人）</text>
				<polygon class="sttwo8" points="1013.4,137.5 1006.6,130.3 999.8,137.5 1003.6,137.5 1003.6,138.1 1003.6,139 1003.4,140.3 
					1003.2,141.2 1003,142.1 1002.7,143.1 1002.5,144 1002.2,144.7 1001.7,145.8 1001.3,146.4 1000.8,147.5 1000.4,148 1000,148.6 
					999.4,149.3 998.9,149.8 998.4,150.3 997.9,150.7 997.6,151 997.4,151.1 998.6,151 999.8,150.7 1000.7,150.4 1001.7,150 
					1002.7,149.4 1003.9,148.6 1004.5,148.2 1005.3,147.4 1006.2,146.4 1006.8,145.7 1007.5,144.6 1008.3,143.3 1009,141.7 
					1009.7,139.9 1010,138.4 1010.1,137.5 				"/>
				<g>
					<path class="sttwo0" d="M932.6,77.3c-5.6,1.2-8.4-1.4-8.5-1.5c-0.7-0.7-1.8-0.7-2.6,0c-0.7,0.7-0.7,1.9,0,2.6
						c0.1,0.1,2.9,2.9,8.2,2.9c1.1,0,2.3-0.1,3.6-0.4c1-0.2,1.6-1.2,1.4-2.2C934.5,77.7,933.5,77,932.6,77.3z"/>
					<circle class="sttwo0" cx="916.1" cy="72.5" r="4.1"/>
					<path class="sttwo0" d="M953.9,89.2l-7.6-3.1c-0.3-0.1-0.5-0.2-0.8-0.2h-1.9v-0.4c0-0.2-0.1-0.4-0.1-0.6l7.2,2
						c0.2,0.1,0.4,0.1,0.6,0.1c1,0,1.8-0.6,2.1-1.6c0.3-1.2-0.4-2.3-1.5-2.7l-9.5-2.6c-0.2-0.1-0.4-0.1-0.6-0.1l-6.5,0
						c-0.3,0.7-0.9,1.3-1.7,1.5c-1.1,0.2-2.2,0.4-3.2,0.4c-5.3,0-8.8-2.8-9-2.9c-0.5-0.4-0.8-1-0.9-1.7c-0.1-0.7,0.1-1.3,0.5-1.8
						c0.5-0.6,1.2-0.9,1.9-0.9c0.6,0,1.1,0.2,1.5,0.5c0.1,0.1,1.5,1.1,3.7,1.6l-4-2.6c-1.4-0.9-3.1-0.3-4.2,0.7c0,0-0.3,0.3-0.6,0.7
						c-0.2,0.4-0.4,0.8-0.4,0.8l0,0c-0.5,1.3-0.3,3.2,1.1,4.1l7.6,4.9c0.1,0.1,0.2,0.1,0.3,0.2c0,0,0,0,0,0V86h-2.2l-10.1-7
						c0.1-0.1,0.1-0.1,0.1-0.2c0.4-0.6,0.2-1.4-0.4-1.7l-3.4-2.1c-0.6-0.4-1.3-0.2-1.7,0.4c-1-0.5-2.2-0.2-2.8,0.7
						c-0.7,1-0.4,2.4,0.6,3.1L923.6,90c0.4,0.3,0.8,0.4,1.3,0.4h2.9c0.2,0.5,0.7,0.9,1.2,0.9h2.8v10.4h-1.4c-0.6,0-1.1,0.5-1.1,1.1
						c0,0.6,0.5,1.1,1.1,1.1h10.3c0.6,0,1.1-0.5,1.1-1.1c0-0.6-0.5-1.1-1.1-1.1h-1.5V91.3h2.8c0.6,0,1-0.4,1.2-0.9h1.6l7.2,2.9
						c0.3,0.1,0.6,0.2,0.8,0.2c0.9,0,1.7-0.5,2.1-1.4C955.5,91,955,89.7,953.9,89.2z"/>
					<path class="sttwo0" d="M923.4,71.6c0,1,0.8,1.7,1.7,1.7c4,0,6.3-1.1,7.7-2.4v2.8c-0.1,0.6-0.4,1.6-0.7,2.9c0.1,0,0.2,0,0.3-0.1
						c0.2,0,0.4-0.1,0.5-0.1c1.2,0,2.2,0.8,2.4,1.9c0.1,0.3,0.1,0.7,0,1l6.2,0c0.3,0,0.5,0,0.8,0.1l0.9,0.2c-0.5-2.5-1.1-5-1.3-6
						v-3.3c0.7,1.4,1.1,3.4,1,6.4c0,1,0.7,1.7,1.7,1.8c0,0,0,0,0,0c0.9,0,1.7-0.8,1.7-1.7c0.1-8.2-4.2-12.6-8-13.5c0,0,0,0,0,0
						l-1.1,1.1l-1.1-1.1c-0.6,0.2-2.9,1.2-4.3,3.4c-1.2,1.7-2.3,3.1-6.8,3.1C924.2,69.9,923.4,70.7,923.4,71.6z"/>
					<path class="sttwo0" d="M937.5,63c2.3,0,4.2-1.9,4.2-4.2c0-1-0.3-1.8-0.9-2.6h-1.3v-0.6h0.7c-0.3-0.2-0.5-0.4-0.8-0.6
						c-0.3-0.7-1-1.2-1.8-1.2c-0.8,0-1.5,0.5-1.8,1.2c-0.3,0.2-0.6,0.3-0.9,0.6h0.8v0.6h-1.5c-0.5,0.7-0.9,1.6-0.9,2.6
						C933.3,61.1,935.2,63,937.5,63z M937.5,54.8c0.6,0,1.1,0.5,1.1,1.1c0,0.6-0.5,1.1-1.1,1.1c-0.6,0-1.1-0.5-1.1-1.1
						C936.4,55.3,936.9,54.8,937.5,54.8z"/>
					<path class="sttwo0" d="M925.7,65.7h-1.1v-9.5h-14.7v9.5h-1v2.2h16.9V65.7z M923.4,57.4v4.2l-4,0c-0.1,0-0.2,0.1-0.2,0.2l-0.6,2
						l-0.6-2c0-0.1-0.1-0.2-0.2-0.2H917l-1.2-3.5c-0.1-0.2-0.3-0.2-0.4,0l-1.2,3.5h-3.1v-4.2H923.4z M911.1,65.3V62h3.3
						c0.1,0,0.2-0.1,0.2-0.1l1-3l1,3c0,0.1,0.1,0.1,0.2,0.1h0.8l0.7,2.5c0,0.1,0.1,0.2,0.2,0.2c0.1,0,0.2-0.1,0.2-0.2l0.7-2.5l3.9,0
						v3.2L911.1,65.3L911.1,65.3z"/>
				</g>
			</g>
			<line class="sttwo9" x1="436.6" y1="53.4" x2="436.6" y2="153.3"/>
			<line class="sttwo9" x1="655.4" y1="53.4" x2="655.4" y2="153.3"/>
			<line class="sttwo9" x1="884.2" y1="53.4" x2="884.2" y2="153.3"/>
			<g class="stten">
				<polyline class="stthree1" points="290.4,228.7 290.4,393.9 970.9,393.9 				"/>
				<g>
					<linearGradient id="SVGID_2_" gradientUnits="userSpaceOnUse" x1="630.3414" y1="393.7146" x2="630.3414" y2="273.0333">
						<stop  offset="0" style="stop-color:#00BEFF;stop-opacity:0.1"/>
						<stop  offset="1" style="stop-color:#00FF81;stop-opacity:0.6"/>
					</linearGradient>
					<path class="stforu2" d="M374.9,393.7L374.9,393.7c0,0,66.2-57,85.5-68.3s64.5-8.5,85-8.5s63.4,0.4,85-6c21.7-6.5,62.3-4.8,85-7.8
						s68.1-8.1,85-8.1s85-16.8,85-16.8s-0.6-42.5,0.2,115.5H374.9z"/>
					<line class="stthree1" x1="280.3" y1="360.9" x2="290.4" y2="360.9"/>
					<line class="stthree1" x1="280.3" y1="328" x2="290.4" y2="328"/>
					<line class="stthree1" x1="280.3" y1="393.9" x2="290.4" y2="393.9"/>
					<line class="stthree1" x1="287" y1="371.9" x2="290.4" y2="371.9"/>
					<line class="stthree1" x1="287" y1="338.9" x2="290.4" y2="338.9"/>
					<line class="stthree1" x1="287" y1="349.9" x2="290.4" y2="349.9"/>
					<line class="stthree1" x1="280.3" y1="295" x2="290.4" y2="295"/>
					<line class="stthree1" x1="287" y1="382.9" x2="290.4" y2="382.9"/>
					<line class="stthree1" x1="287" y1="317" x2="290.4" y2="317"/>
					<line class="stthree1" x1="287" y1="306" x2="290.4" y2="306"/>
					<line class="stthree1" x1="287" y1="284" x2="290.4" y2="284"/>
					<line class="stthree1" x1="287" y1="273.1" x2="290.4" y2="273.1"/>
					<line class="stthree1" x1="287" y1="240.1" x2="290.4" y2="240.1"/>
					<line class="stthree1" x1="287" y1="251.1" x2="290.4" y2="251.1"/>
					<line class="stthree1" x1="280.3" y1="229.1" x2="290.4" y2="229.1"/>
					<line class="stthree1" x1="280.3" y1="262.1" x2="290.4" y2="262.1"/>
					<line class="stthree2" x1="290.1" y1="360.9" x2="970.6" y2="360.9"/>
					<line class="stthree2" x1="290.1" y1="295" x2="970.6" y2="295"/>
					<line class="stthree2" x1="290.1" y1="328" x2="970.6" y2="328"/>
					<line class="stthree2" x1="290.1" y1="262.1" x2="970.6" y2="262.1"/>
					<line class="stthree2" x1="290.1" y1="229.1" x2="970.6" y2="229.1"/>
					<path class="stthree2" d="M800.5,228.3c0,81.5,0,107.3,0,165.6"/>
					<path class="stthree2" d="M970.6,228.3c0,81.5,0,105.8,0,164.1"/>
					<path class="stthree2" d="M885.6,228.3c0,81.5,0,165.1,0,165.1"/>
					<path class="stthree2" d="M715.5,228.3c0,81.5,0,107.3,0,165.6"/>
					<path class="stthree2" d="M630.5,228.3c0,81.5,0,107.3,0,165.6"/>
					<path class="stthree2" d="M545.4,228.3c0,81.5,0,107.3,0,165.6"/>
					<path class="stthree2" d="M460.4,228.3c0,81.5,0,107.3,0,165.6"/>
					<path class="stthree2" d="M375.4,228.3c0,81.5,0,107.3,0,165.6"/>
					<circle class="stthree3" cx="375.4" cy="393.9" r="3"/>
					<circle class="stthree4" cx="460.4" cy="325.5" r="3"/>
					<circle class="stthree4" cx="545.4" cy="316.9" r="3"/>
					<circle class="stthree4" cx="630.5" cy="310.9" r="3"/>
					<circle class="stthree4" cx="715.5" cy="303.1" r="3"/>
					<circle class="stthree4" cx="800.5" cy="295" r="3"/>
					<circle class="stthree4" cx="885.6" cy="278.2" r="3"/>
					<text transform="matrix(1 0 0 1 255.4153 233.2002)" class="stthree5 stthree6 stthree7">250</text>
					<text transform="matrix(1 0 0 1 255.415 266.0621)" class="stthree5 stthree6 stthree7">200</text>
					<text transform="matrix(1 0 0 1 257.4719 298.924)" class="stthree5 stthree6 stthree7">150</text>
					<text transform="matrix(1 0 0 1 262.0891 364.6472)" class="stthree5 stthree6 stthree7">50</text>
					<text transform="matrix(1 0 0 1 257.4724 331.7858)" class="stthree5 stthree6 stthree7">100</text>
					<text transform="matrix(1 0 0 1 268.7629 397.5087)" class="stthree5 stthree6 stthree7">0</text>
					<text transform="matrix(1 0 0 1 358.1648 412.6258)" class="stthree5 stthree6 sttwo7">2009</text>
					<text transform="matrix(1 0 0 1 444.0442 412.6258)" class="stthree5 stthree6 sttwo7">2010</text>
					<text transform="matrix(1 0 0 1 529.9233 412.6258)" class="stthree5 stthree6 sttwo7">2011</text>
					<text transform="matrix(1 0 0 1 614.0413 412.6258)" class="stthree5 stthree6 sttwo7">2012</text>
					<text transform="matrix(1 0 0 1 699.0396 412.6258)" class="stthree5 stthree6 sttwo7">2013</text>
					<text transform="matrix(1 0 0 1 783.9502 412.6258)" class="stthree5 stthree6 sttwo7">2014</text>
					<text transform="matrix(1 0 0 1 869.0369 412.6258)" class="stthree5 stthree6 sttwo7">2015</text>
					<text transform="matrix(1 0 0 1 954.0354 412.6259)" class="stthree5 stthree6 sttwo7">2016</text>
					<text transform="matrix(1 0 0 1 1000.3687 412.6259)" class="stthree5 stthree6 sttwo7">年份</text>
					<text transform="matrix(1 0 0 1 251.437 207.6112)" class="stthree5 stthree6 stthree7">万人</text>
					<g>
						<g>
							<rect x="847.5" y="224.6" class="stthree8" width="76.2" height="36.1"/>
							<polygon class="stthree9" points="885.6,267.6 889.7,260.6 881.5,260.6 							"/>
						</g>
						<text transform="matrix(1 0 0 1 856.4398 247.3783)" class="stthree5 sttwo2 sttwo7">1702005</text>
						<g>
							<polyline class="stforu0" points="847.5,228.7 847.5,224.6 852.9,224.6 							"/>
							<polyline class="stforu0" points="919.6,260.6 923.7,260.6 923.7,256.6 							"/>
						</g>
					</g>
					<circle class="stthree4" cx="994.9" cy="248.6" r="6"/>
					<text transform="matrix(1 0 0 1 1007.0833 253.3789)" class="sttwo4 stthree6 sttwo7">急诊人数</text>
					<path class="stforu1" d="M374.9,393.7L374.9,393.7c0,0,66.2-57,85.5-68.3s64.5-8.5,85-8.5s63.4,0.4,85-6c21.7-6.5,62.3-4.8,85-7.8
						s68.1-8.1,85-8.1s85-16.8,85-16.8"/>
				</g>
			</g>
			<g id="XMLID_691_" class="stten">
				<line id="XMLID_694_" class="stthree" x1="1078" y1="172.4" x2="238" y2="172.4"/>
				<line id="XMLID_693_" class="stsev" x1="1078.6" y1="172.3" x2="1055.1" y2="172.3"/>
				<line id="XMLID_692_" class="stsev" x1="259.2" y1="172.3" x2="237.9" y2="172.3"/>
			</g>
		</g>
		<g id="入院人数" class="stei">
			<rect x="903.3" y="43.5" class="stnine" width="193.7" height="115.8"/>
			<g class="stten">
				<rect x="214.6" y="34.4" class="stthree" width="887.2" height="388.3"/>
				<g>
					<g>
						<polyline class="stsix" points="214.6,48.1 214.6,34.4 231,34.4 						"/>
						<polyline class="stsix" points="214.6,409.1 214.6,422.8 231,422.8 						"/>
					</g>
					<g>
						<polyline class="stsix" points="1101.9,48.1 1101.9,34.4 1085.5,34.4 						"/>
						<polyline class="stsix" points="1101.9,409.1 1101.9,422.8 1085.5,422.8 						"/>
					</g>
				</g>
			</g>
			<g class="stten">
				<linearGradient id="SVGID_3_" gradientUnits="userSpaceOnUse" x1="630.7078" y1="388.4437" x2="630.7078" y2="267.7623">
					<stop  offset="0" style="stop-color:#00BEFF;stop-opacity:0.1"/>
					<stop  offset="1" style="stop-color:#00FF81;stop-opacity:0.6"/>
				</linearGradient>
				<path class="stforu3" d="M375.3,388.4L375.3,388.4c0,0,66.2-57,85.5-68.3s64.5-8.5,85-8.5s63.4,0.4,85-6s62.3-4.8,85-7.8
					c22.7-3,68.1-8.1,85-8.1c17,0,85-16.8,85-16.8s-0.6-42.5,0.2,115.5L375.3,388.4z"/>
				<polyline class="stthree1" points="290.8,223.4 290.8,388.6 971.3,388.6 				"/>
				<line class="stthree1" x1="280.6" y1="355.6" x2="290.8" y2="355.6"/>
				<line class="stthree1" x1="280.6" y1="322.7" x2="290.8" y2="322.7"/>
				<line class="stthree1" x1="280.6" y1="388.6" x2="290.8" y2="388.6"/>
				<line class="stthree1" x1="287.4" y1="366.6" x2="290.8" y2="366.6"/>
				<line class="stthree1" x1="287.4" y1="333.7" x2="290.8" y2="333.7"/>
				<line class="stthree1" x1="287.4" y1="344.7" x2="290.8" y2="344.7"/>
				<line class="stthree1" x1="280.6" y1="289.7" x2="290.8" y2="289.7"/>
				<line class="stthree1" x1="287.4" y1="377.6" x2="290.8" y2="377.6"/>
				<line class="stthree1" x1="287.4" y1="311.7" x2="290.8" y2="311.7"/>
				<line class="stthree1" x1="287.4" y1="300.7" x2="290.8" y2="300.7"/>
				<line class="stthree1" x1="287.4" y1="278.8" x2="290.8" y2="278.8"/>
				<line class="stthree1" x1="287.4" y1="267.8" x2="290.8" y2="267.8"/>
				<line class="stthree1" x1="287.4" y1="234.8" x2="290.8" y2="234.8"/>
				<line class="stthree1" x1="287.4" y1="245.8" x2="290.8" y2="245.8"/>
				<line class="stthree1" x1="280.6" y1="223.8" x2="290.8" y2="223.8"/>
				<line class="stthree1" x1="280.6" y1="256.8" x2="290.8" y2="256.8"/>
				<line class="stthree2" x1="290.4" y1="355.6" x2="971" y2="355.6"/>
				<line class="stthree2" x1="290.4" y1="289.7" x2="971" y2="289.7"/>
				<line class="stthree2" x1="290.4" y1="322.7" x2="971" y2="322.7"/>
				<line class="stthree2" x1="290.4" y1="256.8" x2="971" y2="256.8"/>
				<line class="stthree2" x1="290.4" y1="223.8" x2="971" y2="223.8"/>
				<path class="stthree2" d="M800.9,223.1c0,81.5,0,107.3,0,165.6"/>
				<path class="stthree2" d="M971,223.1c0,81.5,0,105.8,0,164.1"/>
				<path class="stthree2" d="M886,223.1c0,81.5,0,165.1,0,165.1"/>
				<path class="stthree2" d="M715.9,223.1c0,81.5,0,107.3,0,165.6"/>
				<path class="stthree2" d="M630.8,223.1c0,81.5,0,107.3,0,165.6"/>
				<path class="stthree2" d="M545.8,223.1c0,81.5,0,107.3,0,165.6"/>
				<path class="stthree2" d="M460.8,223.1c0,81.5,0,107.3,0,165.6"/>
				<path class="stthree2" d="M375.7,223.1c0,81.5,0,107.3,0,165.6"/>
				<circle class="stthree3" cx="375.7" cy="388.7" r="3"/>
				<circle class="stthree4" cx="460.8" cy="320.2" r="3"/>
				<circle class="stthree4" cx="545.8" cy="311.7" r="3"/>
				<circle class="stthree4" cx="630.8" cy="305.6" r="3"/>
				<circle class="stthree4" cx="715.9" cy="297.8" r="3"/>
				<circle class="stthree4" cx="800.9" cy="289.7" r="3"/>
				<circle class="stthree4" cx="886" cy="273" r="3"/>
				<text transform="matrix(1 0 0 1 264.5122 227.9292)" class="stthree5 stthree6 stthree7">15</text>
				<text transform="matrix(1 0 0 1 264.512 260.7911)" class="stthree5 stthree6 stthree7">12</text>
				<text transform="matrix(1 0 0 1 269.1294 293.653)" class="stthree5 stthree6 stthree7">9</text>
				<text transform="matrix(1 0 0 1 269.1294 359.3763)" class="stthree5 stthree6 stthree7">3</text>
				<text transform="matrix(1 0 0 1 269.1296 326.5148)" class="stthree5 stthree6 stthree7">6</text>
				<text transform="matrix(1 0 0 1 269.1294 392.2377)" class="stthree5 stthree6 stthree7">0</text>
				<text transform="matrix(1 0 0 1 358.5313 407.3548)" class="stthree5 stthree6 sttwo7">2009</text>
				<text transform="matrix(1 0 0 1 444.4104 407.3548)" class="stthree5 stthree6 sttwo7">2010</text>
				<text transform="matrix(1 0 0 1 530.2898 407.3548)" class="stthree5 stthree6 sttwo7">2011</text>
				<text transform="matrix(1 0 0 1 614.4077 407.3548)" class="stthree5 stthree6 sttwo7">2012</text>
				<text transform="matrix(1 0 0 1 699.4058 407.3548)" class="stthree5 stthree6 sttwo7">2013</text>
				<text transform="matrix(1 0 0 1 784.3167 407.3548)" class="stthree5 stthree6 sttwo7">2014</text>
				<text transform="matrix(1 0 0 1 869.4033 407.3548)" class="stthree5 stthree6 sttwo7">2015</text>
				<text transform="matrix(1 0 0 1 954.4019 407.3549)" class="stthree5 stthree6 sttwo7">2016</text>
				<text transform="matrix(1 0 0 1 1000.7351 407.3549)" class="stthree5 stthree6 sttwo7">年份</text>
				<text transform="matrix(1 0 0 1 251.803 208.3548)" class="stthree5 stthree6 stthree7">万人</text>
				<g>
					<g>
						<rect x="847.8" y="219.3" class="stthree8" width="76.2" height="36.1"/>
						<polygon class="stthree9" points="885.9,262.3 890.1,255.4 881.8,255.4 						"/>
					</g>
					<text transform="matrix(1 0 0 1 860.3062 242.1073)" class="stthree5 sttwo2 sttwo7">976419</text>
					<g>
						<polyline class="stforu0" points="847.8,223.4 847.8,219.3 853.3,219.3 						"/>
						<polyline class="stforu0" points="919.9,255.4 924.1,255.4 924.1,251.3 						"/>
					</g>
				</g>
				<circle class="stthree4" cx="995.2" cy="243.4" r="6"/>
				<text transform="matrix(1 0 0 1 1007.4497 248.1079)" class="sttwo4 stthree6 sttwo7">入院人数</text>
				<path class="stforu1" d="M375.3,388.4L375.3,388.4c0,0,66.2-57,85.5-68.3s64.5-8.5,85-8.5s63.4,0.4,85-6s62.3-4.8,85-7.8
					c22.7-3,68.1-8.1,85-8.1c17,0,85-16.8,85-16.8"/>
			</g>
			<g class="stten">
				<g>
					<rect x="240" y="97.9" class="sttwo0" width="6.6" height="0.8"/>
					
						<ellipse transform="matrix(0.1647 0.9863 -0.9863 0.1647 261.4199 -178.8164)" class="sttwo0" cx="236.3" cy="64.9" rx="3.6" ry="3.8"/>
					<path class="sttwo0" d="M244.6,85c-0.2,0-1.9,0-3.9-0.1c0.1-0.4,0.2-0.7,0.2-1.1v-2.4h-5.9V72c0-0.9,0.7-1.6,1.6-1.6
						c0.9,0,1.6,0.7,1.6,1.6v6.2h2.8v-4.7c0-2.5-2-4.5-4.5-4.5c-2.5,0-4.5,2-4.5,4.5v10.3c0,0.6,0.1,1.2,0.4,1.8
						c2.4,0.2,4.5,1.2,6,2.8c1.7,0,3.5,0,4.3,0.1c-0.3,2-1.2,7.2-1.2,7.7c0.2,1.6,3,2.2,3.5-0.3c0.1-0.4,1.4-6.6,1.8-8.6h0
						C246.8,86.2,246.2,85,244.6,85z"/>
					<path class="sttwo0" d="M231.5,85.8c-4.8,0-8.8,3.9-8.8,8.8c0,4.8,3.9,8.8,8.8,8.8c4.8,0,8.8-3.9,8.8-8.8
						C240.3,89.7,236.4,85.8,231.5,85.8z M227.6,88l3.1,5.4c-0.2,0.1-0.3,0.2-0.4,0.4l-5.4-3.1C225.6,89.5,226.5,88.6,227.6,88z
						 M224.8,90.8l5.4,3.1c-0.1,0.2-0.1,0.4-0.1,0.6h-6.2C223.8,93.1,224.2,91.9,224.8,90.8z M223.8,94.7h6.2c0,0.2,0.1,0.4,0.1,0.6
						l-5.4,3.1C224.2,97.2,223.8,96,223.8,94.7z M224.9,98.5l5.4-3.1c0.1,0.2,0.2,0.3,0.4,0.4l-3.1,5.4
						C226.5,100.5,225.6,99.6,224.9,98.5z M231.4,102.2c-1.3,0-2.6-0.4-3.6-1l3.1-5.4c0.2,0.1,0.4,0.1,0.6,0.1V102.2z M231.4,93.1
						c-0.2,0-0.4,0.1-0.6,0.1l-3.1-5.4c1.1-0.6,2.3-1,3.6-1V93.1z M239.2,94.5H233c0-0.2-0.1-0.4-0.1-0.6l5.4-3.1
						C238.8,91.9,239.2,93.1,239.2,94.5z M238.1,90.6l-5.4,3.1c-0.1-0.2-0.2-0.3-0.4-0.4l3.1-5.4C236.5,88.6,237.5,89.5,238.1,90.6z
						 M231.6,86.9c1.3,0,2.6,0.4,3.6,1l-3.1,5.4c-0.2-0.1-0.4-0.1-0.6-0.1V86.9z M231.6,102.2V96c0.2,0,0.4-0.1,0.6-0.1l3.1,5.4
						C234.2,101.9,232.9,102.2,231.6,102.2z M235.4,101.2l-3.1-5.4c0.2-0.1,0.3-0.2,0.4-0.4l5.4,3.1
						C237.5,99.6,236.5,100.5,235.4,101.2z M238.2,98.3l-5.4-3.1c0.1-0.2,0.1-0.4,0.1-0.6h6.2C239.2,96,238.8,97.2,238.2,98.3z"/>
					<polygon class="sttwo0" points="234.5,88.7 231.9,88.7 231.9,90.6 233.3,90.6 					"/>
					<path class="sttwo0" d="M237.7,90.5c-0.5-0.7-1-1.3-1.7-1.8h-0.7l-1.1,1.9h3.3L237.7,90.5z"/>
					<path class="sttwo0" d="M231.1,90.7v-3.5c-0.5,0-0.9,0.1-1.4,0.2v1.3v1.9v0H231.1z"/>
					<path class="sttwo0" d="M241.5,88.7h-3c0.5,0.6,0.9,1.2,1.3,1.9h1.8V88.7z"/>
					<path class="sttwo0" d="M230.2,79h-0.4v6.7c0.5-0.1,1.1-0.2,1.7-0.2V79h-0.3v-1.7h0l0-0.1l-4.4-0.9l-0.2,0.9l3.7,0.7V79z"/>
					<path class="sttwo0" d="M243.3,99c-1.2,0-2.2,1-2.2,2.2c0,1.2,1,2.2,2.2,2.2c1.2,0,2.2-1,2.2-2.2C245.5,100,244.5,99,243.3,99z
						 M243.3,102.2c-0.6,0-1-0.5-1-1s0.5-1,1-1c0.6,0,1,0.5,1,1S243.9,102.2,243.3,102.2z"/>
					<path class="sttwo0" d="M261.3,61.6V61v-0.4h-0.4h-3.6v-3.8h-0.8v3.8H253h-0.2h-0.2v1c-1.1,0-2,0.2-2,0.4v6.2l1,0.4V69h0.9v0.2
						h0.2v2.5c0,3.5-2.4,9.7-7.9,9.7c-0.9,0-1.7-0.1-2.3-0.3h1.1c0.7,0,1.3-0.6,1.3-1.3c0-0.7-0.6-1.3-1.3-1.3h-5.9V72
						c0-0.7-0.6-1.3-1.3-1.3c-0.7,0-1.3,0.6-1.3,1.3v9.1h0.3h2.3h3.2c0.8,0.5,2,0.8,3.9,0.8c5.9,0,8.4-6.6,8.4-10.2v-2.5V69h0.9
						v-0.4l1-0.4V62c0-0.2-0.9-0.3-2.1-0.4V61h3.5v40.9h-4.8v1.5h10.3v-1.5h-4.8V61h3.6v0.6c-1.1,0-2,0.2-2,0.4v6.2l1,0.4V69h2.5
						v-0.4l1-0.4V62C263.4,61.8,262.4,61.6,261.3,61.6z M254.8,65h-3.9v-2.9c0.2-0.1,0.9-0.2,1.9-0.2c1,0,1.7,0.1,1.9,0.2V65z
						 M263.1,65v0.4v2.5l-1,0.4v0.3h-1.9v-0.3l-1-0.4v-2.5V65v-2.9c0.2-0.1,0.9-0.2,1.9-0.2c1,0,1.7,0.1,1.9,0.2V65z"/>
				</g>
				<text transform="matrix(1 0 0 1 269.5798 104.5308)" class="sttwo1 sttwo2 sttwo3">30 864 976</text>
				<text transform="matrix(1 0 0 1 269.9131 68.0117)" class="sttwo4 sttwo5 sttwo6">总诊疗人数（人）</text>
				<text transform="matrix(1 0 0 1 249.4412 144.8467)" class="sttwo4 sttwo5 sttwo7">与上年相比</text>
				<text transform="matrix(1 0 0 1 343.5505 144.8469)" class="sttwo4 sttwo5 sttwo7">1.54‰</text>
				<polygon class="sttwo8" points="341.1,148.8 331.2,150.2 333.6,147.9 332.6,147.4 330.5,146 328.9,144.5 327.4,142.6 326.5,140.7 
					325.8,138.4 325.7,136.2 326,134 326.2,132.9 326.8,131.7 334.7,134.9 334.2,135.6 333.9,136.1 333.5,137.4 333.2,138.6 
					333.2,139.9 333.5,141.3 333.9,142.5 334.7,143.7 335.7,144.7 337.1,140.9 				"/>
			</g>
			<g class="stten">
				<text transform="matrix(1 0 0 1 568.8606 144.847)" class="sttwo4 sttwo5 sttwo7">2.95‰</text>
				<text transform="matrix(1 0 0 1 473.1411 144.8866)" class="sttwo4 sttwo5 sttwo7">与上年相比</text>
				<text transform="matrix(1 0 0 1 500.0623 104.531)" class="sttwo1 sttwo2 sttwo3">23 837 414</text>
				<text transform="matrix(1 0 0 1 500.5623 68.0114)" class="sttwo4 sttwo5 sttwo6">门诊人数（人）</text>
				<polygon class="sttwo8" points="562.9,148.8 553,150.2 555.4,147.9 554.4,147.4 552.3,146 550.7,144.5 549.2,142.6 548.3,140.7 
					547.6,138.4 547.5,136.2 547.8,134 548,132.9 548.5,131.7 556.5,134.9 556,135.6 555.7,136.1 555.3,137.4 555,138.6 555,139.9 
					555.3,141.3 555.7,142.5 556.5,143.7 557.5,144.7 558.9,140.9 				"/>
				<g>
					<path class="sttwo0" d="M465.8,75.3c0.3,0.7,1.1,1.6,2.2,1.9c0.6-0.9,0.6-2.1,0.3-2.9l-0.6-1.5l-0.2,0.1c0,0,0,0,0,0
						c-0.3-0.7-0.9-1.1-1.5-0.8l-0.2,0.1c-0.5,0.2-0.7,1-0.5,1.7c0,0,0,0,0,0l-0.1,0L465.8,75.3z"/>
					<path class="sttwo0" d="M464.3,111.7c0,1.3,1.1,2.4,2.4,2.4c1.3,0,2.4-1.1,2.4-2.4V97.4c-0.9,0-3.1-0.1-4.7-0.5V111.7z"/>
					<path class="sttwo0" d="M474.1,59.1L474.1,59.1c0-1.2-2-2.1-4.5-2.1c-2.4,0-4.4,0.9-4.5,2.1h0v2h8.9V59.1z"/>
					<path class="sttwo0" d="M472.4,93.6c0-0.6,0.5-1.1,1.1-1.1h2.3c0.1-0.5,0.3-0.9,0.6-1.2l-0.6-15.1c1.8,3.6,2.3,7.7,1.5,11.8
						c0,0.1-0.1,0.6-0.1,0.7c0,1,0.6,1.9,1.5,2.2c0.9,0.3,1.9-0.2,2.4-1.2c0.1-0.1,0.2-0.5,0.2-0.7c1.3-6.5-0.2-13.2-4.2-18.4
						c0,0-1-1.4-2.9-2c0.1,0.1,0.2,0.2,0.2,0.4c1,1.9-0.2,4.9-0.7,6.1c0.2,0.2,0.2,0.4,0.2,0.7c-0.1,0.5-0.5,0.8-1,0.7
						c-0.5-0.1-0.8-0.5-0.7-1c0.1-0.5,0.5-0.8,1-0.7c0,0,0,0,0,0c0.5-1.2,1.5-3.9,0.7-5.5c-0.2-0.4-0.5-0.7-0.9-0.9
						c-0.3,0-0.6-0.1-1-0.1h-4.6c0,0-0.1,0-0.1,0c-0.4,0.2-0.7,0.4-0.9,0.7c-0.5,0.8-0.5,1.9-0.4,2.5c0.8-0.2,1.7,0.4,2.1,1.3
						c0,0,0,0,0,0l-0.1,0l0.6,1.5c0.4,0.9,0.4,2.1-0.2,3c0.3,0,0.6,0,0.9-0.1c0-0.1,0.1-0.2,0.2-0.2c0.2-0.1,0.3,0.3,0.3,0.3
						s0.2,0.3,0,0.4c-0.1,0.1-0.3,0-0.4-0.1c-0.4,0.1-0.8,0.1-1.2,0.1c-0.2,0.3-0.6,0.5-0.9,0.7c0,0.2-0.1,0.3-0.2,0.4
						c-0.2,0.1-0.3-0.3-0.3-0.3s-0.2-0.3,0-0.4c0.1,0,0.2,0,0.3,0c0.3-0.2,0.5-0.3,0.7-0.5c-1-0.3-1.9-1.1-2.3-2l-0.6-1.5l-0.2,0.1
						c0,0,0,0,0,0c-0.4-1-0.1-2,0.7-2.4c-0.1-0.4-0.2-1.3,0.1-2.1c0,0,0,0,0,0v-0.1c0.1-0.3,0.2-0.6,0.4-0.8
						c0.1-0.1,0.2-0.2,0.2-0.3c-1.8,0.3-3,1.4-3.6,1.9v0c-0.5,0.5-0.9,1-1.2,1.6c-2.7,5.1-2.9,10,0,14.8c0.1,0.1,0.3,0.5,0.3,0.5
						c0.4,0.7,1.4,1,2.2,0.6c0.8-0.4,1.2-1.3,1-2.1c0,0-0.2-0.4-0.2-0.4c-1.5-3-2-5.4-1.5-8.1c0.1-0.3,0.3-0.7,0.4-1l-0.2,4.6
						c0.2,1.4,0.7,2.8,1.5,4.3c0,0.1,0.2,0.5,0.2,0.5c0.3,1-0.2,2-1.1,2.5c-0.3,0.1-0.6,0.2-0.9,0.2l0,0.9h0l-0.3,6.6
						c0,0.7,3,1.3,6.7,1.4h0.5c0.9,0,1.7,0,2.5-0.1V93.6z M469.7,93c-0.3,0-0.6-0.2-0.6-0.6c0-0.3,0.2-0.6,0.6-0.6
						c0.3,0,0.6,0.2,0.6,0.6C470.2,92.7,470,93,469.7,93z M469.7,88.7c-0.3,0-0.6-0.2-0.6-0.6c0-0.3,0.2-0.6,0.6-0.6
						c0.3,0,0.6,0.2,0.6,0.6C470.2,88.5,470,88.7,469.7,88.7z M469.7,84.4c-0.3,0-0.6-0.2-0.6-0.6c0-0.3,0.2-0.6,0.6-0.6
						c0.3,0,0.6,0.2,0.6,0.6C470.2,84.2,470,84.4,469.7,84.4z M469.7,80.1c-0.3,0-0.6-0.2-0.6-0.6c0-0.3,0.2-0.6,0.6-0.6
						c0.3,0,0.6,0.2,0.6,0.6C470.2,79.9,470,80.1,469.7,80.1z M469.7,75.8c-0.3,0-0.6-0.2-0.6-0.6c0-0.3,0.2-0.6,0.6-0.6
						c0.3,0,0.6,0.2,0.6,0.6C470.2,75.6,470,75.8,469.7,75.8z M469.7,71.5c-0.3,0-0.6-0.2-0.6-0.6c0-0.3,0.2-0.6,0.6-0.6
						c0.3,0,0.6,0.2,0.6,0.6C470.2,71.3,470,71.5,469.7,71.5z"/>
					<path class="sttwo0" d="M472.4,101.1v-3.8c-0.9,0.1-1.8,0.1-2.2,0.1v14.3c0,1.3,1.1,2.4,2.4,2.4c1.3,0,2.4-1.1,2.4-2.4v-9.5h-1.4
						C472.9,102.2,472.4,101.7,472.4,101.1z"/>
					<path class="sttwo0" d="M484.8,92.8h-2.6c0-0.9-0.7-1.6-1.5-1.6h-3.2c-0.8,0-1.5,0.7-1.5,1.6h-2.6c-0.4,0-0.8,0.3-0.8,0.8v7.5
						c0,0.4,0.3,0.8,0.8,0.8h11.3c0.4,0,0.8-0.3,0.8-0.8v-7.5C485.5,93.2,485.2,92.8,484.8,92.8z M477.5,92.2h3.2
						c0.3,0,0.5,0.3,0.6,0.6h-4.4C477,92.5,477.2,92.2,477.5,92.2z M481.7,98.6h-1.5v1.5h-2.1v-1.5h-1.5v-2.1h1.5V95h2.1v1.5h1.5
						V98.6z"/>
					<rect x="470.6" y="63.3" class="sttwo0" width="2.3" height="1.1"/>
					<rect x="466.4" y="63.3" class="sttwo0" width="2.3" height="1.1"/>
					<path class="sttwo0" d="M469.6,67.8c2.4,0,4.4-2.2,4.4-5c0-0.4-0.1-0.9-0.2-1.3h-8.5c-0.1,0.4-0.2,0.8-0.2,1.3
						C465.2,65.6,467.2,67.8,469.6,67.8z M466.1,64.6v-1.5c0-0.1,0.1-0.2,0.2-0.2h2.6c0.1,0,0.2,0.1,0.2,0.2v0.6h1.2v-0.6
						c0-0.1,0.1-0.2,0.2-0.2h2.6c0.1,0,0.2,0.1,0.2,0.2v1.5c0,0.1-0.1,0.2-0.2,0.2h-2.6c-0.1,0-0.2-0.1-0.2-0.2v-0.6h-1.2v0.6
						c0,0.1-0.1,0.2-0.2,0.2h-2.6C466.2,64.8,466.1,64.7,466.1,64.6z"/>
				</g>
			</g>
			<g class="stten">
				<text transform="matrix(1 0 0 1 790.0637 145.7306)" class="sttwo4 sttwo5 sttwo7">6.03‰</text>
				<text transform="matrix(1 0 0 1 697.1604 144.8866)" class="sttwo4 sttwo5 sttwo7">与上年相比</text>
				<g>
					<text transform="matrix(1 0 0 1 735.5173 104.5309)" class="sttwo1 sttwo2 sttwo3">1 702 005</text>
				</g>
				<text transform="matrix(1 0 0 1 735.5173 68.0113)" class="sttwo4 sttwo5 sttwo6">急诊人数（人）</text>
				<polygon class="sttwo8" points="785.5,137.5 778.6,130.3 771.8,137.5 775.7,137.5 775.7,138.1 775.6,139 775.4,140.3 775.2,141.2 
					775,142.1 774.8,143.1 774.5,144 774.2,144.7 773.7,145.8 773.4,146.4 772.8,147.5 772.5,148 772,148.6 771.4,149.3 771,149.8 
					770.5,150.3 770,150.7 769.6,151 769.4,151.1 770.6,151 771.9,150.7 772.7,150.4 773.8,150 774.8,149.4 776,148.6 776.5,148.2 
					777.3,147.4 778.2,146.4 778.8,145.7 779.5,144.6 780.3,143.3 781.1,141.7 781.7,139.9 782.1,138.4 782.2,137.5 				"/>
				<g>
					<path class="sttwo0" d="M683.4,70.3c-0.2-1.5-0.4-3-0.6-4.4c-0.1-0.4,0-0.7,0.4-0.9c0.1-0.1,0.2-0.3,0.2-0.4
						c-0.1-0.1-0.2-0.2-0.4-0.2c-0.1,0-0.3,0.1-0.4,0.2c-0.1,0.1-0.3,0.2-0.4,0.2c-0.4,0.1-0.5,0.2-0.3,0.6c0.2,0.3,0.3,0.7,0.4,1.1
						c0.1,0.9,0.3,1.8,0.3,2.8c0.1,0.9,0.3,3.3-0.2,4.2c-0.1,0.1,0.1,0.3,0.2,0.4c0.1,0.1,0.3,0.1,0.3,0c0.2-0.2,0.4-0.4,0.8-0.2
						c0,0,0.1,0,0.1,0c0.3-0.1,0.2-0.3,0.1-0.5C683.7,72.6,683.5,70.7,683.4,70.3z"/>
					<path class="sttwo0" d="M696.3,64.7c-0.2,0-0.3-0.1-0.4-0.2c-0.1-0.1-0.3-0.2-0.4-0.2c-0.1,0-0.3,0.1-0.4,0.2
						c0,0.1,0.1,0.3,0.2,0.4c0.4,0.2,0.4,0.6,0.4,0.9c-0.2,1.5-0.4,3-0.6,4.4c-0.1,0.4-0.2,2.3-0.4,2.7c-0.1,0.2-0.2,0.4,0.1,0.5
						c0,0,0.1,0,0.1,0c0.3-0.1,0.5,0,0.8,0.2c0.1,0.1,0.3,0,0.3,0c0.1-0.1,0.2-0.3,0.2-0.4c-0.6-1-0.4-3.3-0.3-4.2
						c0.1-0.9,0.2-1.9,0.3-2.8c0.1-0.4,0.2-0.7,0.4-1.1C696.8,64.9,696.7,64.7,696.3,64.7z"/>
					<path class="sttwo0" d="M710.5,65C710.5,65,710.5,65,710.5,65c-0.5,0.1-0.9,0.3-1.4,0.5c0.2,2.3,1.5,4.4,2.8,4.4
						c1.3,0,2.6-2.1,2.8-4.4c-0.4-0.2-0.9-0.4-1.4-0.5l-1.4,1.4L710.5,65z"/>
					<path class="sttwo0" d="M715.5,65.9C715.5,65.9,715.5,65.9,715.5,65.9c-0.3,2.3-1.6,4.6-3.3,4.8c-0.2,1.2,0.2,1.6,0.7,2.2
						c0.9,1,1.4,1.9-0.1,4.4c0.1,0.2,0.2,0.4,0.2,0.6c0,0.6-0.5,1-1,1c-0.6,0-1-0.5-1-1c0-0.6,0.5-1,1-1c0.1,0,0.1,0,0.2,0
						c1.3-2.2,0.8-2.7,0.2-3.4c-0.5-0.6-1.1-1.3-0.9-2.7c-1.6-0.4-2.8-2.6-3-4.8c-0.1,0-0.2,0.1-0.2,0.1c-0.6,0.4-1.2,0.8-1.8,1.2
						c-2.1-0.5-3-1.7-4.9-4.2c-0.4-0.5-0.8-1-1.2-1.6v-7.3c0-0.5-0.4-1-1-1h-20.2c-0.5,0-1,0.4-1,1v20.2c0,0.5,0.4,1,1,1h20.2
						c0.5,0,1-0.4,1-1v-6.1c1.4,1.6,3.1,2.7,5.9,3.2v3c0,0,0,0,0,0c0,0,0,5.7,0,7.8c0,1.8,0.4,2.1,0.4,2.1l0,20.7
						c0,1.4,1.2,2.6,2.6,2.6c1.4,0,2.6-1.2,2.6-2.6l0-17.9c0.1,0,0.2,0,0.3,0c0,0,0,0,0.1,0l0,17.9c0,1.4,1.2,2.6,2.6,2.6
						c1.4,0,2.6-1.2,2.6-2.6l0-20.7c0,0,0.4-0.8,0.4-2.1c0-1.3,0-7.9,0-7.9c0.6,1.7,0.9,4,0.6,7.2c-0.1,1.2,0.8,2.3,1.9,2.4
						c0.1,0,0.1,0,0.2,0c1.1,0,2.1-0.8,2.2-2C723.5,72.2,719.7,68.5,715.5,65.9z M699.3,54.2l0,6.2c-0.7-0.5-1.8-0.5-2.5,0.1
						c-0.4,0.3-0.6,0.7-0.7,1.2c0-0.2,0-0.4-0.1-0.5c-0.1-0.9-0.2-1.9-0.2-2.8c0-0.4,0.1-0.8,0.2-1.1c0.1-0.4,0-0.6-0.4-0.6
						c-0.2,0-0.3-0.1-0.5-0.1c-0.1,0-0.3-0.1-0.4-0.1c0.2-0.4,0.1-0.8,0-1c-0.2-0.4-0.7-0.4-1-0.4c-0.1,0-0.1,0-0.1,0c0,0,0,0,0,0
						c-0.2,0-1.7,0.4-2.1,1.2c-0.1,0.1-0.1,0.3-0.1,0.4c-0.1,0-0.2,0-0.2,0c-0.3,0-0.5,0.1-0.7,0.1v-0.2c0-0.2-0.1-0.4-0.2-0.5
						c0-0.1,0.1-0.1,0.1-0.2v-0.3c0,0,0-0.1,0-0.1c0.2-0.1,0.3-0.3,0.3-0.5v-0.1c0-0.1,0-0.5-0.3-0.7H699.3z M693.9,62.1
						c-0.1,0.2-0.3,0.3-0.7,0.3c-0.4,0.1-1,0-1.5-0.2c-1.1-0.4-1.7-1.1-1.6-1.5c0-0.1,0.2-0.2,0.3-0.3c0.3,0.2,0.6,0.4,1,0.5
						c0.5,0.2,1,0.3,1.4,0.3c0.1,0,0.3,0,0.4,0c0,0,0.1,0,0.1,0C693.8,61.5,694,61.9,693.9,62.1z M693.9,63.9
						c-0.1,0.2-0.3,0.3-0.7,0.3c-0.4,0.1-1,0-1.5-0.2c-1.1-0.4-1.7-1.1-1.6-1.5c0-0.1,0.2-0.2,0.4-0.3c0.3,0.2,0.6,0.4,1,0.5
						c0.5,0.2,1,0.3,1.4,0.3c0.1,0,0.3,0,0.4,0c0,0,0,0,0.1,0C693.8,63.4,694,63.7,693.9,63.9z M693.9,60.2
						c-0.1,0.2-0.3,0.3-0.7,0.3c-0.4,0.1-1,0-1.5-0.2c-1.1-0.4-1.7-1.1-1.6-1.5c0.1-0.1,0.3-0.3,0.5-0.3c0.2,0.2,0.5,0.3,0.8,0.4
						c0.3,0.1,0.5,0.2,0.8,0.2c0,0,0,0.1,0.1,0.1c0,0.1,0.1,0.1,0.2,0.1c0,0,0,0,0,0c0.1,0,0.2,0,0.2-0.1l0.1-0.1c0.1,0,0.1,0,0.2,0
						C693.7,59.5,694,60,693.9,60.2z M690.4,57.4c0.1-0.2,0.3-0.3,0.7-0.3c0.1,0,0.2,0,0.3,0c0.1,0.5,0.3,1,0.5,1.4
						c-0.1,0-0.3-0.1-0.4-0.1c-0.4-0.1-0.7-0.4-1-0.6C690.4,57.7,690.4,57.5,690.4,57.4z M690.1,63.8c0.4,0.3,0.8,0.6,1.4,0.8
						c0.3,0.1,0.7,0.2,1,0.2c0.3,0.4,0.4,0.7,0.3,0.9c-0.1,0.2-0.4,0.2-0.7,0.2c-0.4,0-1-0.2-1.4-0.5c-0.3-0.2-0.6-0.5-0.9-0.7
						C690,64.5,690.1,64.1,690.1,63.8z M687.7,73.2c0.2,0,0.4,0.2,0.7,0.4c-0.2,0.2-0.3,0.3-0.4,0.3c-0.2-0.1-0.4-0.3-0.6-0.4
						C687.6,73.4,687.6,73.2,687.7,73.2z M687.8,71.2c0.3-0.2,0.5-0.2,0.7,0.1c0.2,0.3,0.4,0.6,0.7,0.8c0.1,0.1,0.4,0.1,0.4,0
						c0.3-0.2,0.5-0.5,0.7-0.8c0.1-0.1,0.4-0.3,0.5-0.3c0.2,0.1,0.5,0.3,0.5,0.5c0,0.3-0.1,0.8-0.3,0.9c-0.8,1-2.9,0.5-3.3-0.1
						C687.4,72,687.4,71.5,687.8,71.2z M688.2,74.4c0.1,0,0.3-0.1,0.5-0.2c0.5-0.3,1-0.3,1.5,0c0.2,0.1,0.3,0.2,0.5,0.2L688.2,74.4
						L688.2,74.4z M690.6,73.6c0.2-0.2,0.3-0.4,0.5-0.5c0.2,0,0.2,0.1,0.5,0.3c-0.3,0.2-0.5,0.3-0.7,0.4
						C690.8,73.9,690.7,73.7,690.6,73.6z M691.3,74.4c0.3-0.1,0.6-0.4,0.7-0.9c0.1-0.3,0.1-1,0.6-1.2c0.7-0.6,1.7-1.4,1.4-2.2
						c-0.1-0.3-0.2-0.7-0.4-1c-0.6-1-1.7-1.1-2.6-0.4c-0.3,0.3-0.6,0.6-0.9,0.9c-0.5,0.5-0.9,0.6-1.4,0c-0.3-0.3-0.6-0.6-0.9-0.9
						c-0.9-0.8-2-0.6-2.7,0.5c-0.5,0.8-0.4,1.5,0.2,2.2c0.2,0.2,0.3,0.5,0.5,0.8c0.7,0.5,0.8,1,0.9,1.4c0.1,0.5,0.4,0.8,0.7,0.9
						h-8.5V54.2h9.7c-0.1,0.1-0.1,0.1-0.1,0.2c0,0.1,0.1,0.2,0.2,0.3c0.1,0.1,1,0,1,0c0,0,0,0,0,0v0.2c0,0,0,0,0,0H689
						c-0.2,0-0.3,0.1-0.3,0.3c0,0.2,0.1,0.3,0.3,0.3h0.6c0,0,0,0,0,0v0.2h-0.4c-0.1,0-0.2,0.1-0.3,0.2c-0.3,0.1-0.4,0.3-0.4,0.6v0.2
						c-0.2-0.1-0.4-0.1-0.7-0.1c-0.2,0-0.4,0-0.6,0.1c0-0.2,0-0.3-0.1-0.5c-0.4-0.8-1.9-1.2-2.1-1.2c0,0,0,0,0,0c0,0-0.1,0-0.1,0
						c-0.3,0-0.7,0.1-1,0.4c-0.2,0.3-0.2,0.6,0,1c0,0,0,0,0,0c0,0-0.1,0-0.1-0.1c-0.1,0-0.3,0.1-0.4,0.1c-0.2,0-0.3,0.1-0.5,0.1
						c-0.4,0-0.5,0.1-0.4,0.6c0.1,0.4,0.2,0.7,0.2,1.1c0,0.9-0.1,1.9-0.2,2.8c-0.1,0.9-0.1,1.8-0.8,2.6c-0.1,0.1,0,0.3,0.1,0.4
						c0,0.1,0.2,0.1,0.3,0.1c0.3-0.2,0.5-0.3,0.8-0.1c0,0,0.1,0,0.1,0c0.3,0,0.2-0.2,0.2-0.5c-0.1-0.4-0.2-0.9-0.1-1.3
						c0.1-1.5,0.2-3,0.3-4.5c0-0.4,0.1-0.7,0.5-0.9c0.1,0,0.3-0.3,0.2-0.4c0,0,0,0,0,0l0.6,0.7l0.5,0.7c0,0.1,0,0.2,0,0.3
						c0,0,0,0.1,0.1,0.1c-0.8,0.5-1.1,1.2-0.9,1.8c0.1,0.2,0.2,0.4,0.4,0.5c-0.4,0.4-0.6,0.9-0.4,1.3c0.1,0.2,0.2,0.4,0.4,0.5
						c-0.4,0.4-0.6,0.9-0.4,1.3c0.1,0.4,0.6,0.7,1.2,0.8c0,0,0,0,0,0c-0.2,0.5-0.3,0.9-0.1,1.3c0.2,0.3,0.6,0.5,1.1,0.5
						c0.1,0,0.1,0,0.2,0c0.5,0,1.2-0.3,1.7-0.6c0.1-0.1,0.3-0.2,0.4-0.3c0,0,0,0,0,0h1.1c0,0,0,0,0,0c0,0,0.1,0.1,0.1,0.1
						c0,0,0,0,0,0.1v0.1c0,0.1-0.1,0.2-0.2,0.2h-1.1c-0.2,0-0.3,0.1-0.3,0.3c0,0.1,0,0.2,0.1,0.2c0,0.1,0.1,0.2,0.3,0.2h0.9
						c0.1,0,0.1,0.1,0.1,0.1v0.1c0,0.1-0.1,0.1-0.1,0.1h-0.9c-0.2,0-0.3,0.1-0.3,0.3c0,0.1,0.1,0.2,0.2,0.3C688.9,68,689,68,689,68
						h0.7c0,0,0,0,0,0v0.1c0,0,0,0,0,0H689c-0.2,0-0.3,0.1-0.3,0.3c0,0.2,0.1,0.3,0.3,0.3h0.6c0,0,0,0,0,0V69h-0.4
						c-0.2,0-0.3,0.1-0.3,0.3c0,0.2,0.1,0.3,0.3,0.3h0.5c0.3,0,0.5-0.2,0.5-0.5v-0.3c0,0,0-0.1,0-0.1c0.2-0.1,0.3-0.3,0.3-0.5v-0.1
						c0-0.1,0-0.2-0.1-0.3c0.2-0.1,0.3-0.3,0.3-0.5v-0.1c0-0.2-0.1-0.3-0.1-0.4c0.1-0.1,0.2-0.3,0.2-0.4c0.5,0.2,0.9,0.4,1.4,0.4
						c0.1,0,0.1,0,0.2,0c0.5,0,0.9-0.2,1.1-0.5c0.2-0.3,0.2-0.8-0.1-1.3c0,0,0,0,0,0c0.6-0.1,1-0.4,1.2-0.8c0.2-0.4,0-0.9-0.4-1.3
						c0.2-0.1,0.4-0.3,0.4-0.5c0.2-0.4,0-0.9-0.4-1.3c0.2-0.1,0.3-0.3,0.4-0.5c0.2-0.6-0.2-1.2-0.9-1.8c0,0,0-0.1,0.1-0.1
						c0.1-0.2,0-0.4-0.1-0.6l0.2-0.4l0.6-0.6c0,0.1,0.1,0.2,0.2,0.3c0.4,0.1,0.5,0.5,0.5,0.9c0.1,1.5,0.2,3,0.3,4.5
						c0,0.4-0.1,0.9-0.1,1.3c0,0.2-0.1,0.4,0.2,0.5c0,0,0.1,0,0.1,0c0.3-0.2,0.5-0.1,0.8,0.1c0.1,0,0.3,0,0.3-0.1
						c0-0.1,0.1-0.2,0.1-0.3c0.5,0.6,0.9,1.1,1.3,1.7c0.4,0.5,0.8,1.1,1.2,1.5v7.3L691.3,74.4L691.3,74.4z M687.4,58.9
						c0.3-0.1,0.6-0.2,0.8-0.4c0.3,0.1,0.5,0.2,0.5,0.3c0.1,0.4-0.5,1.1-1.6,1.5c-0.5,0.2-1.1,0.3-1.5,0.2c-0.4,0-0.6-0.2-0.7-0.3
						c-0.1-0.2,0.2-0.7,0.8-1.1l0.1,0.1c0,0.1,0.1,0.1,0.2,0.1c0,0,0,0,0,0c0.1,0,0.2,0,0.2-0.1c0,0,0-0.1,0.1-0.1c0,0,0.1,0,0.1,0
						C686.7,59.1,687.1,59.1,687.4,58.9z M686.5,58.7c0.2-0.4,0.4-0.9,0.6-1.4c0.2-0.1,0.5-0.1,0.7-0.1c0.4,0,0.6,0.1,0.7,0.3
						c0,0.1,0,0.3-0.2,0.5c-0.2,0.2-0.6,0.4-1,0.6C687,58.6,686.8,58.6,686.5,58.7z M685.4,61.2c0,0,0.1,0,0.1,0c0.1,0,0.2,0,0.4,0
						c0.5,0,1-0.1,1.4-0.3c0.4-0.1,0.7-0.3,1-0.5c0.1,0.1,0.3,0.1,0.3,0.3c0.1,0.4-0.5,1.1-1.6,1.5c-0.5,0.2-1.1,0.3-1.5,0.2
						c-0.4,0-0.6-0.2-0.7-0.3C684.8,61.9,685,61.5,685.4,61.2z M685.4,63C685.5,63,685.5,63.1,685.4,63c0.2,0,0.3,0,0.4,0
						c0.5,0,0.9-0.1,1.4-0.3c0.4-0.1,0.7-0.3,1-0.5c0.2,0.1,0.3,0.2,0.4,0.3c0.1,0.4-0.5,1.1-1.6,1.5c-0.5,0.2-1.1,0.3-1.5,0.2
						c-0.4,0-0.6-0.2-0.7-0.3C684.8,63.7,685,63.4,685.4,63z M686.3,64.9c0.3,0,0.7-0.1,1-0.2c0.6-0.2,1.1-0.5,1.4-0.8
						c0,0.3,0.1,0.6,0.3,1c-0.2,0.3-0.5,0.5-0.9,0.7c-0.5,0.3-1,0.5-1.4,0.5c-0.4,0-0.6-0.1-0.7-0.2C685.9,65.7,686,65.3,686.3,64.9
						z"/>
					<path class="sttwo0" d="M711.9,64.7c2.9,0,5.3-2.4,5.3-5.3c0-1.2-0.4-2.3-1.1-3.2h-1.7v-0.8h0.9c-0.3-0.3-0.7-0.5-1.1-0.7
						c-0.4-0.9-1.3-1.5-2.3-1.5c-1,0-1.9,0.6-2.3,1.5c-0.4,0.2-0.7,0.4-1.1,0.7h1.1v0.8h-1.8c-0.7,0.9-1.1,2-1.1,3.2
						C706.6,62.4,709,64.7,711.9,64.7z M711.9,54.3c0.8,0,1.4,0.6,1.4,1.4c0,0.8-0.6,1.4-1.4,1.4c-0.8,0-1.4-0.6-1.4-1.4
						C710.5,55,711.1,54.3,711.9,54.3z"/>
				</g>
			</g>
			<g class="stten">
				<g>
					<text transform="matrix(1 0 0 1 967.4458 104.5309)" class="sttwo1 sttwo2 sttwo3">976 419</text>
				</g>
				<text transform="matrix(1 0 0 1 1019.1924 144.847)" class="sttwo4 sttwo5 sttwo7">1.24‰</text>
				<text transform="matrix(1 0 0 1 923.3264 144.8866)" class="sttwo4 sttwo5 sttwo7">与上年相比</text>
				<text transform="matrix(1 0 0 1 967.4458 68.0113)" class="sttwo4 sttwo5 sttwo6">入院人数（人）</text>
				<polygon class="sttwo8" points="1013.4,137.5 1006.6,130.3 999.8,137.5 1003.6,137.5 1003.6,138.1 1003.6,139 1003.4,140.3 
					1003.2,141.2 1003,142.1 1002.7,143.1 1002.5,144 1002.2,144.7 1001.7,145.8 1001.3,146.4 1000.8,147.5 1000.4,148 1000,148.6 
					999.4,149.3 998.9,149.8 998.4,150.3 997.9,150.7 997.6,151 997.4,151.1 998.6,151 999.8,150.7 1000.7,150.4 1001.7,150 
					1002.7,149.4 1003.9,148.6 1004.5,148.2 1005.3,147.4 1006.2,146.4 1006.8,145.7 1007.5,144.6 1008.3,143.3 1009,141.7 
					1009.7,139.9 1010,138.4 1010.1,137.5 				"/>
				<g>
					<path class="sttwo0" d="M932.6,77.3c-5.6,1.2-8.4-1.4-8.5-1.5c-0.7-0.7-1.8-0.7-2.6,0c-0.7,0.7-0.7,1.9,0,2.6
						c0.1,0.1,2.9,2.9,8.2,2.9c1.1,0,2.3-0.1,3.6-0.4c1-0.2,1.6-1.2,1.4-2.2C934.5,77.7,933.5,77,932.6,77.3z"/>
					<circle class="sttwo0" cx="916.1" cy="72.5" r="4.1"/>
					<path class="sttwo0" d="M953.9,89.2l-7.6-3.1c-0.3-0.1-0.5-0.2-0.8-0.2h-1.9v-0.4c0-0.2-0.1-0.4-0.1-0.6l7.2,2
						c0.2,0.1,0.4,0.1,0.6,0.1c1,0,1.8-0.6,2.1-1.6c0.3-1.2-0.4-2.3-1.5-2.7l-9.5-2.6c-0.2-0.1-0.4-0.1-0.6-0.1l-6.5,0
						c-0.3,0.7-0.9,1.3-1.7,1.5c-1.1,0.2-2.2,0.4-3.2,0.4c-5.3,0-8.8-2.8-9-2.9c-0.5-0.4-0.8-1-0.9-1.7c-0.1-0.7,0.1-1.3,0.5-1.8
						c0.5-0.6,1.2-0.9,1.9-0.9c0.6,0,1.1,0.2,1.5,0.5c0.1,0.1,1.5,1.1,3.7,1.6l-4-2.6c-1.4-0.9-3.1-0.3-4.2,0.7c0,0-0.3,0.3-0.6,0.7
						c-0.2,0.4-0.4,0.8-0.4,0.8l0,0c-0.5,1.3-0.3,3.2,1.1,4.1l7.6,4.9c0.1,0.1,0.2,0.1,0.3,0.2c0,0,0,0,0,0V86h-2.2l-10.1-7
						c0.1-0.1,0.1-0.1,0.1-0.2c0.4-0.6,0.2-1.4-0.4-1.7l-3.4-2.1c-0.6-0.4-1.3-0.2-1.7,0.4c-1-0.5-2.2-0.2-2.8,0.7
						c-0.7,1-0.4,2.4,0.6,3.1L923.6,90c0.4,0.3,0.8,0.4,1.3,0.4h2.9c0.2,0.5,0.7,0.9,1.2,0.9h2.8v10.4h-1.4c-0.6,0-1.1,0.5-1.1,1.1
						c0,0.6,0.5,1.1,1.1,1.1h10.3c0.6,0,1.1-0.5,1.1-1.1c0-0.6-0.5-1.1-1.1-1.1h-1.5V91.3h2.8c0.6,0,1-0.4,1.2-0.9h1.6l7.2,2.9
						c0.3,0.1,0.6,0.2,0.8,0.2c0.9,0,1.7-0.5,2.1-1.4C955.5,91,955,89.7,953.9,89.2z"/>
					<path class="sttwo0" d="M923.4,71.6c0,1,0.8,1.7,1.7,1.7c4,0,6.3-1.1,7.7-2.4v2.8c-0.1,0.6-0.4,1.6-0.7,2.9c0.1,0,0.2,0,0.3-0.1
						c0.2,0,0.4-0.1,0.5-0.1c1.2,0,2.2,0.8,2.4,1.9c0.1,0.3,0.1,0.7,0,1l6.2,0c0.3,0,0.5,0,0.8,0.1l0.9,0.2c-0.5-2.5-1.1-5-1.3-6
						v-3.3c0.7,1.4,1.1,3.4,1,6.4c0,1,0.7,1.7,1.7,1.8c0,0,0,0,0,0c0.9,0,1.7-0.8,1.7-1.7c0.1-8.2-4.2-12.6-8-13.5c0,0,0,0,0,0
						l-1.1,1.1l-1.1-1.1c-0.6,0.2-2.9,1.2-4.3,3.4c-1.2,1.7-2.3,3.1-6.8,3.1C924.2,69.9,923.4,70.7,923.4,71.6z"/>
					<path class="sttwo0" d="M937.5,63c2.3,0,4.2-1.9,4.2-4.2c0-1-0.3-1.8-0.9-2.6h-1.3v-0.6h0.7c-0.3-0.2-0.5-0.4-0.8-0.6
						c-0.3-0.7-1-1.2-1.8-1.2c-0.8,0-1.5,0.5-1.8,1.2c-0.3,0.2-0.6,0.3-0.9,0.6h0.8v0.6h-1.5c-0.5,0.7-0.9,1.6-0.9,2.6
						C933.3,61.1,935.2,63,937.5,63z M937.5,54.8c0.6,0,1.1,0.5,1.1,1.1c0,0.6-0.5,1.1-1.1,1.1c-0.6,0-1.1-0.5-1.1-1.1
						C936.4,55.3,936.9,54.8,937.5,54.8z"/>
					<path class="sttwo0" d="M925.7,65.7h-1.1v-9.5h-14.7v9.5h-1v2.2h16.9V65.7z M923.4,57.4v4.2l-4,0c-0.1,0-0.2,0.1-0.2,0.2l-0.6,2
						l-0.6-2c0-0.1-0.1-0.2-0.2-0.2H917l-1.2-3.5c-0.1-0.2-0.3-0.2-0.4,0l-1.2,3.5h-3.1v-4.2H923.4z M911.1,65.3V62h3.3
						c0.1,0,0.2-0.1,0.2-0.1l1-3l1,3c0,0.1,0.1,0.1,0.2,0.1h0.8l0.7,2.5c0,0.1,0.1,0.2,0.2,0.2c0.1,0,0.2-0.1,0.2-0.2l0.7-2.5l3.9,0
						v3.2L911.1,65.3L911.1,65.3z"/>
				</g>
			</g>
			<line class="sttwo9" x1="436.6" y1="53.4" x2="436.6" y2="153.3"/>
			<line class="sttwo9" x1="655.4" y1="53.4" x2="655.4" y2="153.3"/>
			<line class="sttwo9" x1="884.2" y1="53.4" x2="884.2" y2="153.3"/>
			<g id="XMLID_695_" class="stten">
				<line id="XMLID_700_" class="stthree" x1="1078" y1="172.4" x2="238" y2="172.4"/>
				<line id="XMLID_698_" class="stsev" x1="1078.6" y1="172.3" x2="1055.1" y2="172.3"/>
				<line id="XMLID_697_" class="stsev" x1="259.2" y1="172.3" x2="237.9" y2="172.3"/>
			</g>
		</g>
	</g>
</g>
</svg>
