<?xml version="1.0" encoding="utf-8"?>
<!-- Generator: Adobe Illustrator 19.0.0, SVG Export Plug-In . SVG Version: 6.00 Build 0)  -->
<svg version="1.1" id="图层_1" xmlns="http://www.w3.org/2000/svg" xmlns:xlink="http://www.w3.org/1999/xlink" x="0px" y="0px"
	 viewBox="0 0 50 58" style="enable-background:new 0 0 50 58;" xml:space="preserve">
<style type="text/css">
	.stout{fill:#25E8E8;}
</style>
<g>
	<path id="XMLID_44_" class="stout" d="M18.4,18.7c0.3,0.7,1.1,1.6,2.2,1.9c0.6-0.9,0.6-2.1,0.3-2.9l-0.6-1.5l-0.2,0.1c0,0,0,0,0,0
		c-0.3-0.7-0.9-1.1-1.5-0.8l-0.2,0.1c-0.5,0.2-0.7,1-0.5,1.7c0,0,0,0,0,0l-0.1,0L18.4,18.7z"/>
	<path id="XMLID_43_" class="stout" d="M16.9,55.1c0,1.3,1.1,2.4,2.4,2.4c1.3,0,2.4-1.1,2.4-2.4V40.9c-0.9,0-3.1-0.1-4.7-0.5V55.1z"/>
	<path id="XMLID_42_" class="stout" d="M26.7,2.6L26.7,2.6c0-1.2-2-2.1-4.5-2.1c-2.4,0-4.4,0.9-4.5,2.1h0v2h8.9V2.6z"/>
	<path class="stout" d="M25,37c0-0.6,0.5-1.1,1.1-1.1h2.3c0.1-0.5,0.3-0.9,0.6-1.2l-0.6-15.1c1.8,3.6,2.3,7.7,1.5,11.8
		c0,0.1-0.1,0.6-0.1,0.7c0,1,0.6,1.9,1.5,2.2c0.9,0.3,1.9-0.2,2.4-1.2c0.1-0.1,0.2-0.5,0.2-0.7c1.3-6.5-0.2-13.2-4.2-18.4
		c0,0-1-1.4-2.9-2c0.1,0.1,0.2,0.2,0.2,0.4c1,1.9-0.2,4.9-0.7,6.1c0.2,0.2,0.2,0.4,0.2,0.7c-0.1,0.5-0.5,0.8-1,0.7
		c-0.5-0.1-0.8-0.5-0.7-1c0.1-0.5,0.5-0.8,1-0.7c0,0,0,0,0,0c0.5-1.2,1.5-3.9,0.7-5.5c-0.2-0.4-0.5-0.7-0.9-0.9
		c-0.3,0-0.6-0.1-1-0.1H20c0,0-0.1,0-0.1,0c-0.4,0.2-0.7,0.4-0.9,0.7c-0.5,0.8-0.5,1.9-0.4,2.5c0.8-0.2,1.7,0.4,2.1,1.3c0,0,0,0,0,0
		l-0.1,0l0.6,1.5c0.4,0.9,0.4,2.1-0.2,3c0.3,0,0.6,0,0.9-0.1c0-0.1,0.1-0.2,0.2-0.2c0.2-0.1,0.3,0.3,0.3,0.3s0.2,0.3,0,0.4
		c-0.1,0.1-0.3,0-0.4-0.1c-0.4,0.1-0.8,0.1-1.2,0.1c-0.2,0.3-0.6,0.5-0.9,0.7c0,0.2-0.1,0.3-0.2,0.4c-0.2,0.1-0.3-0.3-0.3-0.3
		s-0.2-0.3,0-0.4c0.1,0,0.2,0,0.3,0c0.3-0.2,0.5-0.3,0.7-0.5c-1-0.3-1.9-1.1-2.3-2l-0.6-1.5l-0.2,0.1c0,0,0,0,0,0
		c-0.4-1-0.1-2,0.7-2.4c-0.1-0.4-0.2-1.3,0.1-2.1c0,0,0,0,0,0v-0.1c0.1-0.3,0.2-0.6,0.4-0.8c0.1-0.1,0.2-0.2,0.2-0.3
		c-1.8,0.3-3,1.4-3.6,1.9v0c-0.5,0.5-0.9,1-1.2,1.6c-2.7,5.1-2.9,10,0,14.8c0.1,0.1,0.3,0.5,0.3,0.5c0.4,0.7,1.4,1,2.2,0.6
		c0.8-0.4,1.2-1.3,1-2.1c0,0-0.2-0.4-0.2-0.4c-1.5-3-2-5.4-1.5-8.1c0.1-0.3,0.3-0.7,0.4-1L16,24.2c0.2,1.4,0.7,2.8,1.5,4.3
		c0,0.1,0.2,0.5,0.2,0.5c0.3,1-0.2,2-1.1,2.5c-0.3,0.1-0.6,0.2-0.9,0.2l0,0.9h0l-0.3,6.6c0,0.7,3,1.3,6.7,1.4h0.5
		c0.9,0,1.7,0,2.5-0.1V37z M22.3,36.4c-0.3,0-0.6-0.2-0.6-0.6c0-0.3,0.2-0.6,0.6-0.6c0.3,0,0.6,0.2,0.6,0.6
		C22.8,36.2,22.6,36.4,22.3,36.4z M22.3,32.1c-0.3,0-0.6-0.2-0.6-0.6c0-0.3,0.2-0.6,0.6-0.6c0.3,0,0.6,0.2,0.6,0.6
		C22.8,31.9,22.6,32.1,22.3,32.1z M22.3,27.8c-0.3,0-0.6-0.2-0.6-0.6c0-0.3,0.2-0.6,0.6-0.6c0.3,0,0.6,0.2,0.6,0.6
		C22.8,27.6,22.6,27.8,22.3,27.8z M22.3,23.6c-0.3,0-0.6-0.2-0.6-0.6c0-0.3,0.2-0.6,0.6-0.6c0.3,0,0.6,0.2,0.6,0.6
		C22.8,23.3,22.6,23.6,22.3,23.6z M22.3,19.3c-0.3,0-0.6-0.2-0.6-0.6c0-0.3,0.2-0.6,0.6-0.6c0.3,0,0.6,0.2,0.6,0.6
		C22.8,19,22.6,19.3,22.3,19.3z M22.3,15c-0.3,0-0.6-0.2-0.6-0.6c0-0.3,0.2-0.6,0.6-0.6c0.3,0,0.6,0.2,0.6,0.6
		C22.8,14.7,22.6,15,22.3,15z"/>
	<path id="XMLID_34_" class="stout" d="M25,44.5v-3.8c-0.9,0.1-1.8,0.1-2.2,0.1v14.3c0,1.3,1.1,2.4,2.4,2.4c1.3,0,2.4-1.1,2.4-2.4
		v-9.5h-1.4C25.4,45.6,25,45.1,25,44.5z"/>
	<path class="stout" d="M37.4,36.3h-2.6c0-0.9-0.7-1.6-1.5-1.6h-3.2c-0.8,0-1.5,0.7-1.5,1.6h-2.6c-0.4,0-0.8,0.3-0.8,0.8v7.5
		c0,0.4,0.3,0.8,0.8,0.8h11.3c0.4,0,0.8-0.3,0.8-0.8V37C38.1,36.6,37.8,36.3,37.4,36.3z M30.1,35.7h3.2c0.3,0,0.5,0.3,0.6,0.6h-4.4
		C29.6,35.9,29.8,35.7,30.1,35.7z M34.3,42.1h-1.5v1.5h-2.1v-1.5h-1.5V40h1.5v-1.5h2.1V40h1.5V42.1z"/>
	<rect id="XMLID_30_" x="23.2" y="6.8" class="stout" width="2.3" height="1.1"/>
	<rect id="XMLID_11_" x="19" y="6.8" class="stout" width="2.3" height="1.1"/>
	<path class="stout" d="M22.2,11.2c2.4,0,4.4-2.2,4.4-5c0-0.4-0.1-0.9-0.2-1.3H18c-0.1,0.4-0.2,0.8-0.2,1.3
		C17.8,9,19.8,11.2,22.2,11.2z M18.7,8.1V6.6c0-0.1,0.1-0.2,0.2-0.2h2.6c0.1,0,0.2,0.1,0.2,0.2v0.6h1.2V6.6c0-0.1,0.1-0.2,0.2-0.2
		h2.6c0.1,0,0.2,0.1,0.2,0.2v1.5c0,0.1-0.1,0.2-0.2,0.2H23c-0.1,0-0.2-0.1-0.2-0.2V7.5h-1.2v0.6c0,0.1-0.1,0.2-0.2,0.2h-2.6
		C18.7,8.2,18.7,8.2,18.7,8.1z"/>
</g>
</svg>
