<?xml version="1.0" encoding="utf-8"?>
<!-- Generator: Adobe Illustrator 19.0.0, SVG Export Plug-In . SVG Version: 6.00 Build 0)  -->
<svg version="1.1" id="图层_1" xmlns="http://www.w3.org/2000/svg" xmlns:xlink="http://www.w3.org/1999/xlink" x="0px" y="0px"
	 viewBox="0 0 64 50" style="enable-background:new 0 0 64 50;" xml:space="preserve">
<style type="text/css">
	.st0_jdl{fill:#76E019;}
</style>
<g>
	<path id="XMLID_281_" class="st0_jdl" d="M16.2,6.1c0,0,6.4-1.7,9.7,1.7l-1,2.7c0,0,0.2,1.4,1.8,1.4c1.6,0,9.9,0,9.9,0s1.9,0,1-1.8
		c-0.9-1.8-5.7-9.7-5.7-9.7s-0.7-0.3-1.2,0.6c-0.5,0.9-1.4,2.5-1.4,2.5S21-0.8,16.2,6.1z"/>
	<path id="XMLID_280_" class="st0_jdl" d="M3.1,43V16.4c0,0,0.5-1.7,2.1-1.7s45.7,0,45.7,0s1.9,0.2,2,2v3h-3.3c0,0-4.2,0.3-5.7,4.9H9.6
		C9.6,24.6,4.5,28.2,3.1,43z"/>
	<g>
		<path id="XMLID_279_" class="st0_jdl" d="M37.9,40.9c-0.3-0.1-0.5-0.2-0.8-0.2c-0.3,0-0.6,0.1-0.8,0.2c-0.3,0.1-0.5,0.4-0.6,0.6
			c-0.1,0.3-0.2,0.6-0.2,0.9c0,0.3,0.1,0.6,0.2,0.9c0.1,0.3,0.3,0.5,0.6,0.6c0.3,0.2,0.5,0.2,0.8,0.2c0.3,0,0.6-0.1,0.8-0.2
			c0.3-0.2,0.5-0.4,0.6-0.6c0.2-0.3,0.2-0.6,0.2-0.9c0-0.3-0.1-0.6-0.2-0.9C38.4,41.2,38.2,41,37.9,40.9z"/>
		<path class="st0_jdl" d="M59.4,22.3c-2.1,0-9.3,0-9.3,0s-1.7-0.2-2.2,1.3l-2,3.8H13c0,0-3.1-0.5-3.8,2.1C8.5,32,4.1,48.5,4.1,48.5
			s-0.3,1.3,0.6,1.3h46.8c0,0,1.7,0,2.5-3.7c0.9-3.7,6.7-21.6,6.7-21.6S61.5,22.3,59.4,22.3z M25.5,32.1c0.3-0.6,0.8-1,1.4-1.3
			s1.2-0.5,1.8-0.5c0.6,0,1.2,0.2,1.8,0.5c0.6,0.3,1,0.7,1.4,1.3c0.3,0.6,0.5,1.2,0.5,1.8c0,0.6-0.2,1.2-0.5,1.8
			c-0.3,0.6-0.8,1-1.3,1.3c-0.6,0.3-1.2,0.5-1.8,0.5c-0.7,0-1.3-0.2-1.8-0.5c-0.6-0.3-1-0.8-1.3-1.3c-0.3-0.6-0.5-1.2-0.5-1.8
			C25,33.3,25.2,32.7,25.5,32.1z M40.2,44.2c-0.3,0.6-0.8,1-1.3,1.3c-0.6,0.3-1.2,0.5-1.8,0.5c-0.6,0-1.2-0.2-1.8-0.5
			c-0.6-0.3-1-0.8-1.3-1.3c-0.3-0.6-0.5-1.2-0.5-1.8c0-0.6,0.2-1.2,0.5-1.8c0.3-0.6,0.8-1,1.4-1.3c0.6-0.3,1.2-0.5,1.8-0.5
			c0.6,0,1.2,0.2,1.8,0.5c0.6,0.3,1,0.7,1.4,1.3c0.3,0.6,0.5,1.2,0.5,1.8C40.7,43,40.5,43.6,40.2,44.2z M26.9,46.3h-2.4L39,29.8h2.5
			L26.9,46.3z"/>
		<path id="XMLID_274_" class="st0_jdl" d="M27.9,35.3c0.3,0.2,0.5,0.2,0.8,0.2c0.3,0,0.6-0.1,0.8-0.2c0.3-0.2,0.5-0.4,0.6-0.6
			c0.1-0.3,0.2-0.5,0.2-0.9c0-0.3-0.1-0.6-0.2-0.9c-0.2-0.3-0.4-0.5-0.6-0.6c-0.3-0.1-0.5-0.2-0.8-0.2c-0.3,0-0.5,0.1-0.8,0.2
			c-0.3,0.1-0.5,0.4-0.6,0.6c-0.2,0.3-0.2,0.6-0.2,0.9c0,0.3,0.1,0.6,0.2,0.9C27.4,35,27.6,35.2,27.9,35.3z"/>
	</g>
</g>
</svg>
