<?xml version="1.0" encoding="utf-8"?>
<!-- Generator: Adobe Illustrator 19.0.0, SVG Export Plug-In . SVG Version: 6.00 Build 0)  -->
<svg version="1.1" id="图层_1" xmlns="http://www.w3.org/2000/svg" xmlns:xlink="http://www.w3.org/1999/xlink" x="0px" y="0px"
	 viewBox="0 0 64 56" style="enable-background:new 0 0 64 56;" xml:space="preserve">
<style type="text/css">
	.st0_jds{fill:#E2BD1E;}
</style>
<g>
	<path id="XMLID_281_" class="st0_jds" d="M3.7,54.5h47.4c0,0,3.3,0.6,4.2-2.7C56.3,48.6,63,26,63,26s0.7-1.4-1.8-1.4
		c-2.5,0-9.7,0-9.7,0s-1.9,0-2.4,1l-3,4.7l-35.6-0.1c0,0-3.2,0-3.7,3.6L3.4,53.2C3.4,53.2,2.9,54.4,3.7,54.5z"/>
	<path id="XMLID_280_" class="st0_jds" d="M0.9,18.6v27.1L1.2,46c0,0,2-15,4.7-17.6L6,16.7H3.2C3.2,16.7,1.3,16.8,0.9,18.6z"/>
	<path id="XMLID_279_" class="st0_jds" d="M9.1,27.1h1.5V3.3c0,0,0-0.4,1.1-0.5c1.1-0.1,31.1,0,31.1,0s1.4,0,1.6,0.9
		c0.1,0.9,0,23.5,0,23.5h1V3.4c0,0,0.1-2-4.1-2c-4.2,0-31,0-31,0S9.1,1.7,9.1,3C9.1,4.2,9.1,27.1,9.1,27.1z"/>
	<rect id="XMLID_278_" x="14.4" y="7.3" class="st0_jds" width="25.6" height="1.6"/>
	<rect id="XMLID_277_" x="14.4" y="12.6" class="st0_jds" width="25.6" height="1.6"/>
	<rect id="XMLID_276_" x="14.4" y="23.8" class="st0_jds" width="25.6" height="1.6"/>
	<rect id="XMLID_275_" x="14.4" y="17.9" class="st0_jds" width="25.6" height="1.6"/>
	<path id="XMLID_274_" class="st0_jds" d="M48.4,16.8v5.9c0,0,2.1-1.2,2.8-1.4c0.7-0.1,2.9-0.1,2.9-0.1v-2.9c0,0-0.8-1.6-1.8-1.7
		c-1-0.1-3.9,0-3.9,0V17"/>
</g>
</svg>
