<?xml version="1.0" encoding="utf-8"?>
<!-- Generator: Adobe Illustrator 19.0.0, SVG Export Plug-In . SVG Version: 6.00 Build 0)  -->
<svg version="1.1" id="图层_1" xmlns="http://www.w3.org/2000/svg" xmlns:xlink="http://www.w3.org/1999/xlink" x="0px" y="0px"
	 viewBox="180 180.9 955 480" style="enable-background:new 180 180.9 955 480;" xml:space="preserve">
<style type="text/css">
	.stleft1{fill:#1561C0;fill-opacity:0.4;stroke:#1561C0;stroke-miterlimit:10;}
	.stleft2{fill:none;stroke:#00BEFF;stroke-width:3;stroke-miterlimit:10;}
	.stleft3{fill:none;stroke:#1561C0;stroke-miterlimit:10;}
	.stleft4{fill:none;stroke:#009FE8;stroke-miterlimit:10;}
	.stleft5{fill:#00BEFF;}
	.stleft6{fill:none;stroke:#009FE8;stroke-width:3;stroke-miterlimit:10;}
</style>
<g>
	<g id="底框">
		<polygon id="XMLID_3164_" class="stleft1" points="477.8,238.1 210.1,238.1 210.1,222.8 236.4,198.7 455.7,198.7 		"/>
		<g id="XMLID_3153_">
			<polyline id="XMLID_3172_" class="stleft2" points="244,658.1 224.4,658.1 190.5,625.9 190.5,610.3 			"/>
			<polyline id="XMLID_3171_" class="stleft2" points="1132.3,602 1132.3,625 1098.3,655.1 1078.3,655.1 			"/>
			<polygon id="XMLID_3170_" class="stleft3" points="200.6,219.6 229.6,192.5 461.6,192.5 488.4,237.9 1088.6,237.9 1121.9,262.5 
				1121.9,620.8 1094,646 228.3,646 200.6,620.8 			"/>
			<polyline id="XMLID_3169_" class="stleft4" points="182.7,607.7 182.7,629.6 207.4,653.3 			"/>
			<polyline id="XMLID_3308_" class="stleft4" points="1130.3,246.1 1098.2,221.3 1064.1,222 			"/>
			<polyline id="XMLID_3155_" class="stleft2" points="190.5,241.1 191.1,213 222.1,183.7 467.6,183.7 475.4,196 			"/>
			<polyline id="XMLID_3154_" class="stleft2" points="622.6,229 1093.7,229 1125,253.1 			"/>
		</g>
		<g id="XMLID_823_">
			<polygon id="XMLID_3152_" class="stleft5" points="502.2,233.7 495.5,233.7 484.7,216.1 491.4,216.1 			"/>
			<polygon id="XMLID_3151_" class="stleft5" points="513.3,233.7 506.6,233.7 495.8,216.1 502.5,216.1 			"/>
			<polygon id="XMLID_1180_" class="stleft5" points="524.4,233.7 517.7,233.7 506.9,216.1 513.6,216.1 			"/>
			<polygon id="XMLID_1178_" class="stleft5" points="535.5,233.7 528.8,233.7 518,216.1 524.7,216.1 			"/>
			<polygon id="XMLID_873_" class="stleft5" points="546.6,233.7 539.9,233.7 529.1,216.1 535.8,216.1 			"/>
			<polygon id="XMLID_869_" class="stleft5" points="557.7,233.7 551,233.7 540.2,216.1 546.9,216.1 			"/>
			<polygon id="XMLID_867_" class="stleft5" points="568.8,233.7 562.1,233.7 551.3,216.1 558,216.1 			"/>
			<polygon id="XMLID_866_" class="stleft5" points="579.9,233.7 573.2,233.7 562.4,216.1 569.1,216.1 			"/>
			<polygon id="XMLID_864_" class="stleft5" points="591,233.7 584.3,233.7 573.5,216.1 580.2,216.1 			"/>
			<polygon id="XMLID_863_" class="stleft5" points="602.1,233.7 595.4,233.7 584.6,216.1 591.3,216.1 			"/>
			<polygon id="XMLID_862_" class="stleft5" points="613.2,233.7 606.5,233.7 595.7,216.1 602.4,216.1 			"/>
		</g>
	</g>
	<g id="人口总数">
		<g>
			<rect x="210.9" y="255.7" class="stleft3" width="216.3" height="138.9"/>
			<rect x="438.2" y="255.7" class="stleft3" width="216.3" height="138.9"/>
			<rect x="665.5" y="255.7" class="stleft3" width="216.3" height="138.9"/>
			<polygon class="stleft3" points="1109,394.5 892.8,394.5 892.8,255.7 1096.6,256 1109,264.8 			"/>
			<g>
				<g>
					<polyline class="stleft6" points="210.9,269.3 210.9,255.7 227.2,255.7 					"/>
					<polyline class="stleft6" points="210.9,380.9 210.9,394.5 227.2,394.5 					"/>
				</g>
				<g>
					<polyline class="stleft6" points="427.2,269.3 427.2,255.7 410.8,255.7 					"/>
					<polyline class="stleft6" points="427.2,380.9 427.2,394.5 410.8,394.5 					"/>
				</g>
			</g>
			<g>
				<g>
					<polyline class="stleft6" points="438.2,269.3 438.2,255.7 454.5,255.7 					"/>
					<polyline class="stleft6" points="438.2,380.9 438.2,394.5 454.5,394.5 					"/>
				</g>
				<g>
					<polyline class="stleft6" points="654.4,269.3 654.4,255.7 638.1,255.7 					"/>
					<polyline class="stleft6" points="654.4,380.9 654.4,394.5 638.1,394.5 					"/>
				</g>
			</g>
			<g>
				<g>
					<polyline class="stleft6" points="665.5,269.3 665.5,255.7 681.8,255.7 					"/>
					<polyline class="stleft6" points="665.5,380.9 665.5,394.5 681.8,394.5 					"/>
				</g>
				<g>
					<polyline class="stleft6" points="881.7,269.3 881.7,255.7 865.4,255.7 					"/>
					<polyline class="stleft6" points="881.7,380.9 881.7,394.5 865.4,394.5 					"/>
				</g>
			</g>
			<g>
				<g>
					<polyline class="stleft6" points="892.8,269.3 892.8,255.7 909.1,255.7 					"/>
					<polyline class="stleft6" points="892.8,380.9 892.8,394.5 909.1,394.5 					"/>
				</g>
				<g>
					<polyline class="stleft6" points="1109,380.9 1109,394.5 1092.7,394.5 					"/>
					<polyline class="stleft6" points="1086.4,256.1 1096.6,256.1 1109,264.8 1109,272.9 					"/>
				</g>
			</g>
		</g>
	</g>
</g>
</svg>
