<?xml version="1.0" encoding="utf-8"?>
<!-- Generator: Adobe Illustrator 19.0.0, SVG Export Plug-In . SVG Version: 6.00 Build 0)  -->
<svg version="1.1" id="图层_1" xmlns="http://www.w3.org/2000/svg" xmlns:xlink="http://www.w3.org/1999/xlink" x="0px" y="0px"
	 viewBox="0 0 44 60" style="enable-background:new 0 0 44 60;" xml:space="preserve">
<style type="text/css">
	.stborn{fill:#0FD186;}
</style>
<g>
	<ellipse id="XMLID_109_" class="stborn" cx="21.9" cy="11.9" rx="6.7" ry="6.9"/>
	<path id="XMLID_108_" class="stborn" d="M28.3,35.1c1,1,1,2.6,0,3.7l-3.5,3.4c-1,1-4.7,1-5.7,0l-3.4-3.4c-1-1-1-2.6,0-3.7L28.3,35.1z"
		/>
	<path id="XMLID_107_" class="stborn" d="M34.8,28.9l-6.2-8.4c-0.1-0.2-0.3-0.3-0.5-0.4c-0.8-0.6-1.8-1-2.8-1h-6.6c-1.1,0-2,0.4-2.8,1
		c-0.1,0-6.6,8.8-6.6,8.8c-0.4,0.6-0.3,1.4,0.3,1.9c0.3,0.2,0.6,0.3,0.9,0.2c0.3-0.1,0.6-0.2,0.8-0.5l3.9-3.3v3.1
		c0,3,0.2,2.7,2.9,2.7h9.2c2.3,0,1.8,0.3,1.8-2.7v-3l3.9,3.2c0.2,0.3,0.5,0.5,0.8,0.5c0.3,0.1,0.6,0,0.9-0.2
		C35,30.3,35.1,29.5,34.8,28.9z"/>
	<g>
		<path id="XMLID_93_" class="stborn" d="M17.2,54.9c-0.6,0-1.7-0.4-2-0.9l-4.1-7.2c-0.5-0.8,3-7,3-7l3.7,4c0,0-1.8,2-1.9,2.6
			c-0.1,0.6,2.8,5.6,2.8,5.6c0.5,0.9,0.3,2-0.5,2.6C17.9,54.8,17.6,54.9,17.2,54.9z"/>
	</g>
	<g>
		<path id="XMLID_66_" class="stborn" d="M26.8,54.9c0.6,0,1.7-0.4,2-0.9l4.1-7.2c0.5-0.8-3-7-3-7l-3.7,4c0,0,1.8,2,1.9,2.6
			c0.1,0.6-2.8,5.6-2.8,5.6c-0.5,0.9-0.3,2,0.5,2.6C26.1,54.8,26.5,54.9,26.8,54.9z"/>
	</g>
</g>
</svg>
