<?xml version="1.0" encoding="utf-8"?>
<!-- Generator: Adobe Illustrator 19.0.0, SVG Export Plug-In . SVG Version: 6.00 Build 0)  -->
<svg version="1.1" id="图层_1" xmlns="http://www.w3.org/2000/svg" xmlns:xlink="http://www.w3.org/1999/xlink" x="0px" y="0px"
	 viewBox="0 0 44 60" style="enable-background:new 0 0 44 60;" xml:space="preserve">
<style type="text/css">
	.stallpopu{fill:#0FD186;}
</style>
<g>
	<path id="XMLID_93_" class="stallpopu" d="M22,15.3c2.8,0,5.2-2.3,5.2-5.2C27.2,7.3,24.8,5,22,5c-2.8,0-5.1,2.3-5.1,5.2
		C16.9,13,19.2,15.3,22,15.3z"/>
	<path id="XMLID_66_" class="stallpopu" d="M33.3,31.4c0-0.1,0-0.2,0-0.3L31,18.6c-0.2-1.2-1.2-2-2.4-2H15.4c-1.2,0-2.2,0.9-2.4,2
		l-2.4,12.5c0,0.1,0,0.2,0,0.3c0,0.1,0,0.2,0,0.3c0,1.3,1.1,2.4,2.4,2.4c1.2,0,2.2-0.8,2.4-2l1.5-9.3l0,29.7c0,1.3,1.1,2.4,2.4,2.4
		c1.3,0,2.4-1.1,2.4-2.4V37.9h0.6v14.7c0,1.3,1.1,2.4,2.4,2.4c1.3,0,2.4-1.1,2.4-2.4l0-29.7l1.5,9.3c0.2,1.1,1.2,2,2.4,2
		c1.3,0,2.4-1.1,2.4-2.4C33.3,31.6,33.3,31.5,33.3,31.4z"/>
</g>
</svg>
