<?xml version="1.0" encoding="utf-8"?>
<!-- Generator: Adobe Illustrator 19.0.0, SVG Export Plug-In . SVG Version: 6.00 Build 0)  -->
<svg version="1.1" id="图层_1" xmlns="http://www.w3.org/2000/svg" xmlns:xlink="http://www.w3.org/1999/xlink" x="0px" y="0px"
	 viewBox="0 0 44 60" style="enable-background:new 0 0 44 60;" xml:space="preserve">
<style type="text/css">
	.stin{fill:#0FD186;}
</style>
<g>
	<polygon id="XMLID_109_" class="stin" points="11.6,32.9 11.6,46.8 17.9,46.8 17.9,33 14.8,30.4 	"/>
	<polygon id="XMLID_108_" class="stin" points="22.1,36.6 22.1,46.8 28.3,46.8 28.3,33.4 23.3,37.6 	"/>
	<polygon id="XMLID_107_" class="stin" points="1.2,46.8 7.4,46.8 7.4,36.4 1.2,41.5 	"/>
	<polygon id="XMLID_93_" class="stin" points="32.5,46.8 38.7,46.8 38.7,24.4 32.5,29.7 	"/>
	<polygon id="XMLID_66_" class="stin" points="30.9,13.2 36,18.1 23.3,28.9 14.8,21.7 1.2,32.8 1.2,37.6 14.8,26.5 23.3,33.7 
		38.6,20.7 42.8,24.8 42.8,13.2 	"/>
</g>
</svg>
