<?xml version="1.0" encoding="utf-8"?>
<!-- Generator: Adobe Illustrator 19.0.0, SVG Export Plug-In . SVG Version: 6.00 Build 0)  -->
<svg version="1.1" id="图层_1" xmlns="http://www.w3.org/2000/svg" xmlns:xlink="http://www.w3.org/1999/xlink" x="0px" y="0px"
	 viewBox="0 0 44 60" style="enable-background:new 0 0 44 60;" xml:space="preserve">
<style type="text/css">
	.stdeath{fill:#0FD186;}
</style>
<g>
	<path class="stdeath" d="M27.6,58.4H16.4L9.1,15.1l7-13.7l12,0.1l6.8,13.6L27.6,58.4z M28.6,0.8h-13L8.3,15.1l7.5,44.1h12.5l7.5-44.1
		L28.6,0.8z"/>
	<g>
		<path id="XMLID_93_" class="stdeath" d="M29.4,17c-0.3-2-5.5-2.5-7-2.5c-1.9,0-7.1,0.3-7.5,2.8c-0.4,2.7-1.5,12.4-1.5,12.4
			c-0.2,1.3,0.3,2.2,1.1,2.5c0.5,0.2,1.6-0.2,1.8-1.5l1-8.9l0,26.8c0,1.6,0.5,2.5,1.9,2.6c1.2,0.1,1.7-0.8,1.8-2.7L21,34.3h1.9
			l0.1,14.4c0,1.6,0.7,2.4,2,2.4c1.3,0,1.8-1,1.8-2.7c0,0,0-25.5,0.1-26.7l0.8,8.5c0.2,1.4,1.1,2,1.9,1.8c1-0.2,1.2-1.3,1.1-2.2
			C30.7,30,29.8,19.6,29.4,17z"/>
		<ellipse id="XMLID_66_" class="stdeath" cx="22.1" cy="9.4" rx="4" ry="4.1"/>
	</g>
</g>
</svg>
