<?xml version="1.0" encoding="utf-8"?>
<!-- Generator: Adobe Illustrator 19.0.0, SVG Export Plug-In . SVG Version: 6.00 Build 0)  -->
<svg version="1.1" id="图层_1" xmlns="http://www.w3.org/2000/svg" xmlns:xlink="http://www.w3.org/1999/xlink" x="0px" y="0px"
	 viewBox="0 0 50 58" style="enable-background:new 0 0 50 58;" xml:space="preserve">
<style type="text/css">
	.st0{fill:#25E8E8;}
</style>
<g>
	<path id="XMLID_48_" class="st0" d="M8,18.9c-0.2-1.5-0.4-3-0.6-4.4c-0.1-0.4,0-0.7,0.4-0.9C7.9,13.4,8,13.2,8,13.1
		c-0.1-0.1-0.2-0.2-0.4-0.2c-0.1,0-0.3,0.1-0.4,0.2c-0.1,0.1-0.3,0.2-0.4,0.2c-0.4,0.1-0.5,0.2-0.3,0.6c0.2,0.3,0.3,0.7,0.4,1.1
		c0.1,0.9,0.3,1.8,0.3,2.8c0.1,0.9,0.3,3.3-0.2,4.2C6.8,22,7,22.2,7.1,22.3c0.1,0.1,0.3,0.1,0.3,0c0.2-0.2,0.4-0.4,0.8-0.2
		c0,0,0.1,0,0.1,0c0.3-0.1,0.2-0.3,0.1-0.5C8.3,21.2,8.1,19.3,8,18.9z"/>
	<path id="XMLID_47_" class="st0" d="M20.9,13.2c-0.2,0-0.3-0.1-0.4-0.2c-0.1-0.1-0.3-0.2-0.4-0.2c-0.1,0-0.3,0.1-0.4,0.2
		c0,0.1,0.1,0.3,0.2,0.4c0.4,0.2,0.4,0.6,0.4,0.9c-0.2,1.5-0.4,3-0.6,4.4c-0.1,0.4-0.2,2.3-0.4,2.7c-0.1,0.2-0.2,0.4,0.1,0.5
		c0,0,0.1,0,0.1,0c0.3-0.1,0.5,0,0.8,0.2c0.1,0.1,0.3,0,0.3,0c0.1-0.1,0.2-0.3,0.2-0.4c-0.6-1-0.4-3.3-0.3-4.2
		c0.1-0.9,0.2-1.9,0.3-2.8c0.1-0.4,0.2-0.7,0.4-1.1C21.4,13.5,21.3,13.3,20.9,13.2z"/>
	<path id="XMLID_46_" class="st0" d="M35.1,13.6C35.1,13.6,35.1,13.6,35.1,13.6c-0.5,0.1-0.9,0.3-1.4,0.5c0.2,2.3,1.5,4.4,2.8,4.4
		c1.3,0,2.6-2.1,2.8-4.4c-0.4-0.2-0.9-0.4-1.4-0.5L36.5,15L35.1,13.6z"/>
	<path class="st0" d="M40.1,14.5C40.1,14.4,40.1,14.4,40.1,14.5c-0.3,2.3-1.6,4.6-3.3,4.8c-0.2,1.2,0.2,1.6,0.7,2.2
		c0.9,1,1.4,1.9-0.1,4.4c0.1,0.2,0.2,0.4,0.2,0.6c0,0.6-0.5,1-1,1c-0.6,0-1-0.5-1-1c0-0.6,0.5-1,1-1c0.1,0,0.1,0,0.2,0
		c1.3-2.2,0.8-2.7,0.2-3.4c-0.5-0.6-1.1-1.3-0.9-2.7c-1.6-0.4-2.8-2.6-3.1-4.8c-0.1,0-0.2,0.1-0.2,0.1c-0.6,0.4-1.2,0.8-1.8,1.2
		c-2.1-0.5-3-1.7-4.9-4.2c-0.4-0.5-0.8-1-1.2-1.6V2.8c0-0.5-0.4-1-1-1H3.7c-0.5,0-1,0.4-1,1V23c0,0.5,0.4,1,1,1h20.2
		c0.5,0,1-0.4,1-1v-6.1c1.4,1.6,3.1,2.7,5.9,3.2v3c0,0,0,0,0,0c0,0,0,5.7,0,7.8c0,1.8,0.4,2.1,0.4,2.1l0,20.7c0,1.4,1.2,2.6,2.6,2.6
		c1.4,0,2.6-1.2,2.6-2.6l0-17.9c0.1,0,0.2,0,0.3,0c0,0,0,0,0.1,0l0,17.9c0,1.4,1.2,2.6,2.6,2.6c1.4,0,2.6-1.2,2.6-2.6l0-20.7
		c0,0,0.4-0.8,0.4-2.1c0-1.3,0-7.9,0-7.9c0.6,1.7,0.9,4,0.6,7.2c-0.1,1.2,0.8,2.3,1.9,2.4c0.1,0,0.1,0,0.2,0c1.1,0,2.1-0.8,2.2-2
		C48.1,20.8,44.3,17,40.1,14.5z M23.9,2.8l0,6.2c-0.7-0.5-1.8-0.5-2.5,0.1c-0.4,0.3-0.6,0.7-0.7,1.2c0-0.2,0-0.4-0.1-0.5
		c-0.1-0.9-0.2-1.9-0.2-2.8c0-0.4,0.1-0.8,0.2-1.1c0.1-0.4,0-0.6-0.4-0.6c-0.2,0-0.3-0.1-0.5-0.1c-0.1,0-0.3-0.1-0.4-0.1
		c0.2-0.4,0.1-0.8,0-1c-0.2-0.4-0.7-0.4-1-0.4c-0.1,0-0.1,0-0.1,0c0,0,0,0,0,0c-0.2,0-1.7,0.4-2.1,1.2c-0.1,0.1-0.1,0.3-0.1,0.4
		c-0.1,0-0.2,0-0.2,0c-0.3,0-0.5,0.1-0.7,0.1V5.1c0-0.2-0.1-0.4-0.2-0.5c0-0.1,0.1-0.1,0.1-0.2V4.1c0,0,0-0.1,0-0.1
		C14.9,3.9,15,3.7,15,3.5V3.4c0-0.1,0-0.5-0.3-0.7H23.9z M18.5,10.6c-0.1,0.2-0.3,0.3-0.7,0.3c-0.4,0.1-1,0-1.5-0.2
		c-1.1-0.4-1.7-1.1-1.6-1.5c0-0.1,0.2-0.2,0.3-0.3c0.3,0.2,0.6,0.4,1,0.5c0.5,0.2,1,0.3,1.4,0.3c0.1,0,0.3,0,0.4,0c0,0,0.1,0,0.1,0
		C18.4,10.1,18.6,10.4,18.5,10.6z M18.5,12.5c-0.1,0.2-0.3,0.3-0.7,0.3c-0.4,0.1-1,0-1.5-0.2c-1.1-0.4-1.7-1.1-1.6-1.5
		c0-0.1,0.2-0.2,0.4-0.3c0.3,0.2,0.6,0.4,1,0.5c0.5,0.2,1,0.3,1.4,0.3c0.1,0,0.3,0,0.4,0c0,0,0,0,0.1,0
		C18.4,11.9,18.6,12.3,18.5,12.5z M18.5,8.8c-0.1,0.2-0.3,0.3-0.7,0.3c-0.4,0.1-1,0-1.5-0.2c-1.1-0.4-1.7-1.1-1.6-1.5
		c0.1-0.1,0.3-0.3,0.5-0.3c0.2,0.2,0.5,0.3,0.8,0.4c0.3,0.1,0.5,0.2,0.8,0.2c0,0,0,0.1,0.1,0.1c0,0.1,0.1,0.1,0.2,0.1c0,0,0,0,0,0
		c0.1,0,0.2,0,0.2-0.1l0.1-0.1c0.1,0,0.1,0,0.2,0C18.3,8,18.6,8.5,18.5,8.8z M15,6c0.1-0.2,0.3-0.3,0.7-0.3c0.1,0,0.2,0,0.3,0
		c0.1,0.5,0.3,1,0.5,1.4c-0.1,0-0.3-0.1-0.4-0.1c-0.4-0.1-0.7-0.4-1-0.6C15,6.3,14.9,6.1,15,6z M14.7,12.4c0.4,0.3,0.8,0.6,1.4,0.8
		c0.3,0.1,0.7,0.2,1,0.2c0.3,0.4,0.4,0.7,0.3,0.9c-0.1,0.2-0.4,0.2-0.7,0.2c-0.4,0-1-0.2-1.4-0.5c-0.3-0.2-0.6-0.5-0.9-0.7
		C14.6,13,14.7,12.7,14.7,12.4z M12.3,21.7c0.2,0,0.4,0.2,0.7,0.4c-0.2,0.2-0.3,0.3-0.4,0.3c-0.2-0.1-0.4-0.3-0.6-0.4
		C12.2,21.9,12.1,21.8,12.3,21.7z M12.4,19.8c0.3-0.2,0.5-0.2,0.7,0.1c0.2,0.3,0.4,0.6,0.7,0.8c0.1,0.1,0.4,0.1,0.4,0
		c0.3-0.2,0.5-0.5,0.7-0.8c0.1-0.1,0.4-0.3,0.5-0.3c0.2,0.1,0.5,0.3,0.5,0.5c0,0.3-0.1,0.8-0.3,0.9c-0.8,1-2.9,0.5-3.3-0.1
		C12,20.6,12,20.1,12.4,19.8z M12.8,23c0.1,0,0.3-0.1,0.5-0.2c0.5-0.3,1-0.3,1.5,0c0.2,0.1,0.3,0.2,0.5,0.2L12.8,23L12.8,23z
		 M15.2,22.2c0.2-0.2,0.3-0.4,0.5-0.5c0.2,0,0.2,0.1,0.5,0.3c-0.3,0.2-0.5,0.3-0.7,0.4C15.4,22.5,15.3,22.3,15.2,22.2z M15.9,23
		c0.3-0.1,0.6-0.4,0.7-0.9c0.1-0.3,0.1-1,0.6-1.2c0.7-0.6,1.7-1.4,1.4-2.2c-0.1-0.3-0.2-0.7-0.4-1c-0.6-1-1.7-1.1-2.6-0.4
		c-0.3,0.3-0.6,0.6-0.9,0.9c-0.5,0.5-0.9,0.6-1.4,0c-0.3-0.3-0.6-0.6-0.9-0.9c-0.9-0.8-2-0.6-2.7,0.5c-0.5,0.8-0.4,1.5,0.2,2.2
		c0.2,0.2,0.3,0.5,0.5,0.8c0.7,0.5,0.8,1,0.9,1.4c0.1,0.5,0.4,0.8,0.7,0.9H3.7V2.8h9.7c-0.1,0.1-0.1,0.1-0.1,0.2
		c0,0.1,0.1,0.2,0.2,0.3c0.1,0.1,1,0,1,0c0,0,0,0,0,0v0.2c0,0,0,0,0,0h-0.7c-0.2,0-0.3,0.1-0.3,0.3c0,0.2,0.1,0.3,0.3,0.3h0.6
		c0,0,0,0,0,0v0.2h-0.4c-0.1,0-0.2,0.1-0.3,0.2C13.2,4.6,13,4.9,13,5.1v0.2c-0.2-0.1-0.4-0.1-0.7-0.1c-0.2,0-0.4,0-0.6,0.1
		c0-0.2,0-0.3-0.1-0.5C11.3,4,9.8,3.7,9.6,3.6c0,0,0,0,0,0c0,0-0.1,0-0.1,0c-0.3,0-0.7,0.1-1,0.4c-0.2,0.3-0.2,0.6,0,1c0,0,0,0,0,0
		c0,0-0.1,0-0.1-0.1C8.2,5,8,5.1,7.9,5.1c-0.2,0-0.3,0.1-0.5,0.1C7,5.2,6.9,5.4,7,5.8c0.1,0.4,0.2,0.7,0.2,1.1
		c0,0.9-0.1,1.9-0.2,2.8c-0.1,0.9-0.1,1.8-0.8,2.6c-0.1,0.1,0,0.3,0.1,0.4c0,0.1,0.2,0.1,0.3,0.1c0.3-0.2,0.5-0.3,0.8-0.1
		c0,0,0.1,0,0.1,0c0.3,0,0.2-0.2,0.2-0.5c-0.1-0.4-0.2-0.9-0.1-1.3c0.1-1.5,0.2-3,0.3-4.5c0-0.4,0.1-0.7,0.5-0.9
		c0.1,0,0.3-0.3,0.2-0.4c0,0,0,0,0,0l0.6,0.7l0.5,0.7c0,0.1,0,0.2,0,0.3c0,0,0,0.1,0.1,0.1C9.1,7.8,8.7,8.4,8.9,9
		C9,9.2,9.1,9.4,9.3,9.5c-0.4,0.4-0.6,0.9-0.4,1.3c0.1,0.2,0.2,0.4,0.4,0.5c-0.4,0.4-0.6,0.9-0.4,1.3c0.1,0.4,0.6,0.7,1.2,0.8
		c0,0,0,0,0,0C9.9,14,9.8,14.4,10,14.7c0.2,0.3,0.6,0.5,1.1,0.5c0.1,0,0.1,0,0.2,0c0.5,0,1.2-0.3,1.7-0.6c0.1-0.1,0.3-0.2,0.4-0.3
		c0,0,0,0,0,0h1.1c0,0,0,0,0,0c0,0,0.1,0.1,0.1,0.1c0,0,0,0,0,0.1v0.1c0,0.1-0.1,0.2-0.2,0.2h-1.1c-0.2,0-0.3,0.1-0.3,0.3
		c0,0.1,0,0.2,0.1,0.2c0,0.1,0.1,0.2,0.3,0.2h0.9c0.1,0,0.1,0.1,0.1,0.1v0.1c0,0.1-0.1,0.1-0.1,0.1h-0.9c-0.2,0-0.3,0.1-0.3,0.3
		c0,0.1,0.1,0.2,0.2,0.3c0.1,0.1,0.1,0.1,0.2,0.1h0.7c0,0,0,0,0,0v0.1c0,0,0,0,0,0h-0.7c-0.2,0-0.3,0.1-0.3,0.3
		c0,0.2,0.1,0.3,0.3,0.3h0.6c0,0,0,0,0,0v0.2h-0.4c-0.2,0-0.3,0.1-0.3,0.3c0,0.2,0.1,0.3,0.3,0.3h0.5c0.3,0,0.5-0.2,0.5-0.5v-0.3
		c0,0,0-0.1,0-0.1c0.2-0.1,0.3-0.3,0.3-0.5v-0.1c0-0.1,0-0.2-0.1-0.3c0.2-0.1,0.3-0.3,0.3-0.5v-0.1c0-0.2-0.1-0.3-0.1-0.4
		c0.1-0.1,0.2-0.3,0.2-0.4c0.5,0.2,0.9,0.4,1.4,0.4c0.1,0,0.1,0,0.2,0c0.5,0,0.9-0.2,1.1-0.5c0.2-0.3,0.2-0.8-0.1-1.3c0,0,0,0,0,0
		c0.6-0.1,1-0.4,1.2-0.8c0.2-0.4,0-0.9-0.4-1.3c0.2-0.1,0.4-0.3,0.4-0.5c0.2-0.4,0-0.9-0.4-1.3C18.9,9.4,19,9.2,19.1,9
		c0.2-0.6-0.2-1.2-0.9-1.8c0,0,0-0.1,0.1-0.1c0.1-0.2,0-0.4-0.1-0.6l0.2-0.4l0.6-0.6c0,0.1,0.1,0.2,0.2,0.3c0.4,0.1,0.5,0.5,0.5,0.9
		c0.1,1.5,0.2,3,0.3,4.5c0,0.4-0.1,0.9-0.1,1.3c0,0.2-0.1,0.4,0.2,0.5c0,0,0.1,0,0.1,0c0.3-0.2,0.5-0.1,0.8,0.1c0.1,0,0.3,0,0.3-0.1
		c0-0.1,0.1-0.2,0.1-0.3c0.5,0.6,0.9,1.1,1.3,1.7c0.4,0.5,0.8,1.1,1.2,1.5V23L15.9,23L15.9,23z M12,7.5c0.3-0.1,0.6-0.2,0.8-0.4
		c0.3,0.1,0.5,0.2,0.5,0.3c0.1,0.4-0.5,1.1-1.6,1.5c-0.5,0.2-1.1,0.3-1.5,0.2C9.9,9.1,9.6,9,9.5,8.8c-0.1-0.2,0.2-0.7,0.8-1.1
		l0.1,0.1c0,0.1,0.1,0.1,0.2,0.1c0,0,0,0,0,0c0.1,0,0.2,0,0.2-0.1c0,0,0-0.1,0.1-0.1c0,0,0.1,0,0.1,0C11.3,7.7,11.7,7.6,12,7.5z
		 M11.1,7.2c0.2-0.4,0.4-0.9,0.6-1.4c0.2-0.1,0.5-0.1,0.7-0.1C12.7,5.7,13,5.8,13,6c0,0.1,0,0.3-0.2,0.5c-0.2,0.2-0.6,0.4-1,0.6
		C11.6,7.1,11.4,7.2,11.1,7.2z M10,9.8c0,0,0.1,0,0.1,0c0.1,0,0.2,0,0.4,0c0.5,0,1-0.1,1.4-0.3c0.4-0.1,0.7-0.3,1-0.5
		c0.1,0.1,0.3,0.1,0.3,0.3c0.1,0.4-0.5,1.1-1.6,1.5C11.2,11,10.6,11,10.2,11c-0.4,0-0.6-0.2-0.7-0.3C9.4,10.4,9.6,10.1,10,9.8z
		 M10,11.6C10,11.6,10.1,11.6,10,11.6c0.2,0,0.3,0,0.4,0c0.5,0,0.9-0.1,1.4-0.3c0.4-0.1,0.7-0.3,1-0.5c0.2,0.1,0.3,0.2,0.4,0.3
		c0.1,0.4-0.5,1.1-1.6,1.5c-0.5,0.2-1.1,0.3-1.5,0.2c-0.4,0-0.6-0.2-0.7-0.3C9.4,12.3,9.6,11.9,10,11.6z M10.9,13.5
		c0.3,0,0.7-0.1,1-0.2c0.6-0.2,1.1-0.5,1.4-0.8c0,0.3,0.1,0.6,0.3,1c-0.2,0.3-0.5,0.5-0.9,0.7c-0.5,0.3-1,0.5-1.4,0.5
		c-0.4,0-0.6-0.1-0.7-0.2C10.5,14.2,10.6,13.9,10.9,13.5z"/>
	<path class="st0" d="M36.5,13.3c2.9,0,5.3-2.4,5.3-5.3c0-1.2-0.4-2.3-1.1-3.2H39V4h0.9c-0.3-0.3-0.7-0.5-1.1-0.7
		c-0.4-0.9-1.3-1.5-2.3-1.5c-1,0-1.9,0.6-2.3,1.5c-0.4,0.2-0.7,0.4-1.1,0.7h1.1v0.8h-1.8c-0.7,0.9-1.1,2-1.1,3.2
		C31.2,10.9,33.6,13.3,36.5,13.3z M36.5,2.9c0.8,0,1.4,0.6,1.4,1.4c0,0.8-0.6,1.4-1.4,1.4c-0.8,0-1.4-0.6-1.4-1.4
		C35.1,3.5,35.7,2.9,36.5,2.9z"/>
</g>
</svg>
