<?xml version="1.0" encoding="utf-8"?>
<!-- Generator: Adobe Illustrator 19.0.0, SVG Export Plug-In . SVG Version: 6.00 Build 0)  -->
<svg version="1.1" id="图层_1" xmlns="http://www.w3.org/2000/svg" xmlns:xlink="http://www.w3.org/1999/xlink" x="0px" y="0px"
	 viewBox="0 0 102 70" style="enable-background:new 0 0 102 70;" xml:space="preserve">
<style type="text/css">
	.st0_sl{fill:#45CE19;}
</style>
<g>
	
		<ellipse id="XMLID_35_" transform="matrix(0.2566 0.9665 -0.9665 0.2566 17.0094 -2.7246)" class="st0_sl" cx="10.3" cy="9.7" rx="5.3" ry="5.5"/>
	<path id="XMLID_34_" class="st0_sl" d="M17.6,40l-0.1-8.6l0-1.6c-3.8-1.3-7.3-3.6-10.1-6.6c-0.7-0.7-1-1.6-0.9-2.5
		C6.5,20,6.8,19.4,7.3,19c0.4-0.3,0.8-0.4,1.2-0.5c0.9-0.1,1.9,0.3,2.6,1.1c1.8,1.9,3.9,3.4,6.2,4.5l0-1.4c-0.1-3.7-3.2-6.6-6.9-6.5
		c-3.7,0.1-6.6,3.2-6.5,6.9l0.2,15.7l0,0c0.1,8.1-0.9,15-3.4,22.7c0,0.1-0.3,0.8-0.3,0.8c-0.3,1.1,0.5,2.4,1.9,3
		c1.5,0.6,3.1,0.1,3.6-1.2c0-0.1,0.2-0.5,0.2-0.5c1.8-5.7,3-11.2,3.4-16.8c0.5,0.1,1,0.1,1.5,0.1c0.3,0,0.5,0,0.7-0.1
		c0.9,4.9,1.3,9.7,1.2,15c0,0.1,0,0.5,0,0.6c-0.1,1.2,1.1,2.4,2.6,2.6c1.6,0.2,3-0.8,3.1-2.2c0-0.1,0-0.7,0-0.9
		c0.2-6.6-0.4-12.6-1.9-18.8C17.3,42.2,17.6,41.1,17.6,40z"/>
	<path id="XMLID_33_" class="st0_sl" d="M29,28.3c0-0.1-0.1-0.3-0.1-0.4l3.4-1.6l-0.1-0.3l-3.4,1.6c-0.4-0.7-1-1.1-1.8-1.3
		c-0.1,0-0.6-0.1-0.7-0.1c-5.8,0.2-11.4-2.2-15.4-6.4c-0.9-1-2.3-1.3-3.3-0.5c-1,0.7-1,2.4,0,3.6c4.9,5.3,11.8,8.1,19,7.9
		c0.1,0,0.6-0.1,0.7-0.1C28.4,30.3,29.2,29.3,29,28.3z"/>
	<polygon id="XMLID_32_" class="st0_sl" points="84.6,43.1 85.7,42.5 101.6,42.5 100.8,38.3 83.8,37.7 72.1,45.5 29.1,32.1 27.3,38.4 
		69.7,51.4 73.7,61.2 65,61.2 65,65.6 75.5,65.6 93,65.6 98.7,65.6 98.7,61.2 91.4,61.2 	"/>
	<path id="XMLID_31_" class="st0_sl" d="M17.6,24.1c4.2,0.7,8.8,0.4,12.8-1c0.1,0,0.3-0.2,0.4-0.2c1.1-0.7,1.5-1.9,1-2.8v-3.1
		c0.2-0.1,0.4-0.3,0.4-0.5c0-0.3-0.2-0.5-0.5-0.5c-0.3,0-0.5,0.2-0.5,0.5c0,0.2,0.2,0.4,0.4,0.5v2.7c-0.6-0.6-1.5-0.9-2.4-0.8
		c0,0-0.4,0.1-0.6,0.1c-5.4,1.9-12.4,0.2-11.8,0.4C17.4,20.1,17.7,23.1,17.6,24.1z"/>
	<path class="st0_sl" d="M49,37.8l18.7,6c1.9,0.6,3.9,0.3,5.5-0.6l0,0c0.5-0.3,6.7-4.1,10.2-6.4v0c0.7,0.1,14.8,0.9,15.7,0.6
		c2.6-0.6,2.9-5.4-1.2-5.7c-0.6,0-9.7-0.7-13.8-1.1c-0.3,0-1.1,0-1.2,0c-0.5,0.1-1,0.3-1.6,0.6c-0.3,0.2-2.9,1.8-5.6,3.4
		c-0.1-0.1-0.1-0.2-0.2-0.3c2.3-1.4,5.2-3.2,5.5-3.4c0.4-0.2,0.8-0.4,1.2-0.6c0.2-0.1,0.4-0.1,0.5-0.1c0.1,0,0.9,0,1.3,0
		c4,0.3,13.2,1,13.8,1.1c1.1,0.1,2,0.5,2.5,1c-0.4-0.9-1.4-1.6-2.9-1.7c-0.6,0-9.7-0.7-13.8-1.1c-0.3,0-1.1,0-1.2,0
		c-0.5,0.1-1,0.3-1.6,0.6c-0.3,0.2-3.1,1.9-5.8,3.6c-0.8-1.2-2-2.2-3.5-2.6l-18.7-6c-3.5-1.1-7.3,0.8-8.4,4.3
		C43.6,32.9,45.5,36.7,49,37.8z M49.1,28.3c0.7-0.6,1.7-0.8,2.6-0.4c0.3,0.1,1.1,0.6,1.4,0.9c2.1,1.8,4.5,3.2,7.1,4
		c2.7,0.9,5.5,1.1,8.3,0.8c0.5-0.1,1,0,1.4,0.1c1,0.3,1.6,1,1.9,1.9c0.2,0.6,0,1.3-0.4,1.8c-0.5,0.7-1.3,1.2-2.3,1.3
		c-3.6,0.4-7.1,0.1-10.6-1c0,0,0,0,0,0c-3.4-1.1-6.5-2.9-9.1-5.2c-0.1-0.1-0.5-0.6-0.8-1C48.3,30.6,47.9,29.3,49.1,28.3z"/>
	<path id="XMLID_10_" class="st0_sl" d="M69.1,38.3c1.6-0.2,2.6-1.5,2.3-2.7c-0.3-1.2-1.6-1.9-2.9-1.7c-5.7,0.7-11.4-1.1-15.7-4.9
		c-0.2-0.2-2.2-1.6-3.6-0.5c-1.5,1.2,0.2,3.4,0.3,3.5C54.9,36.9,62.1,39.2,69.1,38.3z"/>
	<path id="XMLID_9_" class="st0_sl" d="M37,31.5c2.7,1.4,6,0.4,7.3-2.1c1-1.9,0.6-4-0.6-5.7c-0.3,0.6-0.8,0.8-1,0.7
		c-0.2-0.1-0.3-0.8,0-1.5c0-0.1,0.1-0.1,0.1-0.1c-0.3-0.2-0.6-0.5-1-0.6c-2.7-1.4-6-0.4-7.3,2.1C33.1,26.9,34.2,30.1,37,31.5z"/>
</g>
</svg>
