<?xml version="1.0" encoding="utf-8"?>
<!-- Generator: Adobe Illustrator 19.0.0, SVG Export Plug-In . SVG Version: 6.00 Build 0)  -->
<svg version="1.1" id="图层_1" xmlns="http://www.w3.org/2000/svg" xmlns:xlink="http://www.w3.org/1999/xlink" x="0px" y="0px"
	 viewBox="0 0 102 70" style="enable-background:new 0 0 102 70;" xml:space="preserve">
<style type="text/css">
	.st0_fy{fill:#45CE19;}
</style>
<g>
	<path id="XMLID_68_" class="st0_fy" d="M61.9,12.3c1.2-1.7,1.9-3.6,1.9-5.2c0-4.3-4.8-2-10.7-2c-5.9,0-10.7-2.6-10.7,2
		c0,1.6,0.7,3.4,2,5.2H61.9z"/>
	<path class="st0_fy" d="M37.6,21c2.4-1.6,4.1-3.7,4.7-5.5c0.1,0.1,0.3,0.1,0.4,0.1h20.7c0.7,0,1.2-0.5,1.2-1.2c0-0.7-0.5-1.2-1.2-1.2
		H42.9c0-3.1-0.9-5-2.1-5.9c-0.5-0.4-1.1-0.7-1.6-0.7c-0.8-0.1-1.5,0-2.2,0.4c-1.1,0.7-1.8,2-1.4,3.5c0.1,0.3,0.2,0.5,0.3,0.8
		c-0.3,0.1-0.6,0.1-0.9,0.3c-1.5,0.6-2.1,1.9-2.1,3.2c0.1,1,0.6,2,1.6,2.6c-1.4,0.2-2.9,0.2-4.3-0.1c-0.6-0.2-1.3,0.2-1.4,0.9
		c-0.2,0.6,0.2,1.3,0.9,1.4c1.8,0.4,3.8,0.4,5.7,0c-2.2,1.3-4.8,2.2-7.3,2.1c-0.2,0-0.5,0-0.7-0.1c-0.7-0.1-1.2,0.4-1.3,1.1
		c-0.1,0.7,0.4,1.2,1.1,1.3c0.3,0,0.6,0.1,0.9,0.1C31.5,24.3,35,22.9,37.6,21z M38.3,9.1c0.3-0.2,0.6-0.2,0.9,0c0,0,0.1,0.1,0.1,0.1
		c0.5,0.4,1,1.4,1.1,3c-0.5-0.2-0.9-0.4-1.3-0.5c-0.7-0.6-1.1-1.2-1.2-1.7C37.8,9.6,38,9.3,38.3,9.1z M35.9,13.8
		c0.4-0.2,0.8-0.2,1.4-0.1c0.2,0,0.5,0.1,0.7,0.2c0.3,0.2,0.7,0.5,1.1,0.7c-0.7,0.4-1.3,0.7-1.8,0.8c-0.6,0.2-1,0.2-1.4,0.1
		c-0.4-0.1-0.7-0.4-0.7-0.7C35.3,14.4,35.5,14,35.9,13.8z"/>
	<g>
		<path id="XMLID_63_" class="st0_fy" d="M82.7,20c0-0.5-0.4-0.9-0.9-0.9H68.3c0.6,0.6,1.3,1.2,1.9,1.8h11.6
			C82.3,20.9,82.7,20.5,82.7,20z"/>
		<path id="XMLID_62_" class="st0_fy" d="M82.1,14.3c0-3.3-3.7-1.5-8.2-1.5c-3.6,0-6.6-1.2-7.7,0c0.3,0.5,0.5,1.1,0.5,1.7
			c0,0.7-0.2,1.3-0.6,1.8c0.2,0.5,0.4,1,0.7,1.4c0.2,0.2,0.5,0.4,0.7,0.6h13.1C81.5,17,82.1,15.5,82.1,14.3z"/>
		<path id="XMLID_35_" class="st0_fy" d="M80.5,21.7h-9.6c0.6,0.7,1.2,1.4,1.8,2.2c4,5.2,7.8,12.6,7.8,19.3c0,3.2-0.7,6.3-2,9.2
			c-1.2,2.7-2.9,5-4.9,7.1c0.1,0,0.2,0,0.2,0c10.8,0,19.5-7.8,19.5-17.3C93.4,35.4,87.7,25.7,80.5,21.7z"/>
		<path id="XMLID_34_" class="st0_fy" d="M65.6,16.8l0.1,0.1C65.7,16.8,65.7,16.8,65.6,16.8C65.6,16.8,65.6,16.8,65.6,16.8z"/>
	</g>
	<g>
		<path id="XMLID_33_" class="st0_fy" d="M26.8,18.3c0-0.2,0-0.4,0.1-0.5c0.4-1.7,2.1-2.7,3.8-2.3c0.1,0,0.2,0.1,0.3,0.1
			c0-0.2,0-0.4-0.1-0.5c0-0.8,0.1-1.6,0.4-2.3c-0.6,0.1-1.2,0.1-1.8,0.1c-4.5,0-8.2-2-8.2,1.5c0,1.2,0.6,2.6,1.5,4H26.8z"/>
		<path id="XMLID_32_" class="st0_fy" d="M27.8,52.3c-1.3-2.9-2-6-2-9.2c0-5.9,3-12.5,6.4-17.5c-1.4,0.4-2.9,0.5-4.3,0.5
			c-0.4,0-0.7,0-1.1-0.1c-1.7-0.2-3-1.8-2.8-3.5c0-0.3,0.1-0.6,0.2-0.9h-1.4C15.7,25.7,10,35.4,10,42c0,9.6,8.7,17.3,19.5,17.3
			c1,0,2-0.1,3-0.2C30.6,57.2,29,54.9,27.8,52.3z"/>
		<path class="st0_fy" d="M17.6,25c1.8-1.3,3.2-2.8,3.6-4.2c0.1,0,0.2,0.1,0.3,0.1h3.2c0.6-0.7,1.4-1.1,2.3-1.1
			c-0.1-0.2-0.2-0.5-0.2-0.7h-5.2c0-2.4-0.7-3.8-1.6-4.5c-0.4-0.3-0.8-0.5-1.3-0.6c-0.6-0.1-1.2,0-1.7,0.3c-0.8,0.5-1.4,1.5-1.1,2.7
			c0,0.2,0.1,0.4,0.2,0.6c-0.3,0-0.5,0.1-0.7,0.2c-1.1,0.5-1.6,1.5-1.6,2.5c0,0.8,0.5,1.5,1.2,2c-1.1,0.2-2.3,0.2-3.3-0.1
			c-0.5-0.1-1,0.2-1.1,0.7c-0.1,0.5,0.2,1,0.7,1.1c1.4,0.3,2.9,0.3,4.4,0c-1.7,1-3.7,1.7-5.6,1.6c-0.2,0-0.4,0-0.6,0
			c-0.5-0.1-1,0.3-1,0.8c-0.1,0.5,0.3,1,0.8,1c0.2,0,0.5,0,0.7,0C12.8,27.5,15.5,26.5,17.6,25z M18.1,15.9c0.2-0.1,0.5-0.1,0.7,0
			c0,0,0.1,0,0.1,0.1c0.4,0.3,0.8,1.1,0.9,2.3c-0.3-0.2-0.7-0.3-1-0.4c-0.6-0.5-0.9-0.9-0.9-1.3C17.7,16.2,17.9,16,18.1,15.9z
			 M16.3,19.5c0.3-0.1,0.6-0.2,1.1-0.1c0.2,0,0.3,0.1,0.5,0.1c0.2,0.2,0.5,0.4,0.8,0.5c-0.5,0.3-1,0.5-1.4,0.6
			c-0.4,0.1-0.8,0.1-1.1,0.1c-0.3-0.1-0.5-0.3-0.5-0.6C15.8,19.9,15.9,19.6,16.3,19.5z"/>
	</g>
	<path class="st0_fy" d="M61.7,16.6H44.6c-9.4,5.2-16.8,17.8-16.8,26.5c0,12.4,11.4,22.5,25.4,22.5c14,0,25.4-10.1,25.4-22.5
		C78.5,34.4,71.1,21.9,61.7,16.6z M61,40.9v2h-6.4v2.9H61v2h-6.4v7.2h-3.4V48h-6.3v-2h6.3V43h-6.3v-2h5.3l-6.9-12.4h3.8l4.3,8.4
		c0.7,1.4,1.1,2.5,1.6,3.7h0.1c0.4-1.1,0.9-2.4,1.6-3.8l4.4-8.4H63l-7.3,12.4H61z"/>
</g>
</svg>
