<?xml version="1.0" encoding="utf-8"?>
<!-- Generator: Adobe Illustrator 19.0.0, SVG Export Plug-In . SVG Version: 6.00 Build 0)  -->
<svg version="1.1" id="图层_1" xmlns="http://www.w3.org/2000/svg" xmlns:xlink="http://www.w3.org/1999/xlink" x="0px" y="0px"
	 viewBox="0 0 102 70" style="enable-background:new 0 0 102 70;" xml:space="preserve">
<style type="text/css">
	.st0_lv{fill:#45CE19;}
</style>
<g>
	
		<ellipse id="XMLID_73_" transform="matrix(-0.5229 0.8524 -0.8524 -0.5229 145.1537 -43.7019)" class="st0_lv" cx="84.8" cy="18.8" rx="6" ry="5.7"/>
	<path id="XMLID_72_" class="st0_lv" d="M63.8,46c7-3.2,12.3-9.3,14.5-16.7c0-0.2,0.4-3.1-1.7-3.4c-2-0.3-3,2.2-3.1,2.4
		c-1.9,5.9-6.1,10.7-11.7,13.3c-1.3,0.6-2.1,2-1.7,3.2C60.5,46.1,62.2,46.8,63.8,46z"/>
	<path class="st0_lv" d="M36.2,46.2c-0.1,0-0.4,0.1-0.5,0.1c-1.5,0.3-2.3,1.9-1.9,3.6c0.4,1.7,1.8,2.8,3.1,2.5c0.1,0,0.5-0.1,0.5-0.1
		c8.2-1.2,15.4-1.1,23.4,0.2c0.4,0.1,0.9,0.2,1.3,0.2c0.1,0,0.1,0,0.2,0l0,0c2.1,0.1,4.3-0.7,5.8-2.5l13.9-16
		c2.6-3,2.3-7.6-0.7-10.2c-3-2.6-7.6-2.3-10.2,0.7l-1.6,1.8L68.9,26l-0.5,0.5c-0.6-1,0-2.5,0.9-4.6c0.9-2.1,1.9-4.6,1.1-6.8
		c-1.2-2.9-3-4.1-4.3-4.5V9.4h-0.9V2.9H39.3v18.6h25.8v-9.8H66v-0.3c1.1,0.5,2.6,1.5,3.6,4c0.8,1.9-0.2,4.1-1.1,6.2
		c-0.9,2-1.7,4.1-0.7,5.6l-0.6,0.7l0.7,0.6L57.2,40.8c-0.7,0.8-1.2,1.8-1.5,2.8C49.3,43,43,43.1,36.3,44.1c-0.1,0-0.5,0.1-0.6,0.1
		c-1.3,0.3-2.1,1.6-2,3.1c0-0.1,0.1-0.1,0.1-0.2c0.4-0.7,1.1-1.1,1.8-1.3c0.1,0,0.4-0.1,0.4-0.1c4.3-0.7,8.4-1,12.5-1
		c2.3,0,4.7,0.1,7,0.3c0,0.1,0,0.3,0,0.4C49.1,45,42.9,45.2,36.2,46.2z M63.7,9.4v2.3v8.3h-23V4.4h23V9.4z M60.4,42.2
		c0.3-0.4,0.8-0.7,1.2-0.9c2.8-1.3,5.2-3.1,7.2-5.4c2-2.2,3.4-4.8,4.3-7.7c0.2-0.5,0.6-1.3,0.8-1.6c0.7-0.8,1.7-1.2,2.7-1.1
		c1.7,0.2,2,1.7,2.1,2.7c0,0.5-0.1,1.2-0.1,1.4c-1.1,3.6-3,7-5.5,9.9h0c-2.6,2.9-5.6,5.2-9.2,6.8c-0.9,0.4-2,0.5-2.8,0.1
		c-0.7-0.3-1.2-0.8-1.4-1.5C59.4,44.1,59.7,43,60.4,42.2z"/>
	<path id="XMLID_68_" class="st0_lv" d="M14.8,4.1c1.1,0,2.2,0.3,3.6,0.7c0.5-1.5,0.7-2.2,1.1-3.7C15.8,0,13.7,0,9.9,1.2
		c0.5,1.5,0.7,2.2,1.1,3.7C12.5,4.4,13.7,4.1,14.8,4.1z"/>
	<path id="XMLID_67_" class="st0_lv" d="M17.7,9.4c-0.8-0.5-1.5-1.1-1.9-1.9c-0.6,0.3-1.1,0.5-1.7,0.7c-1.5,0.6-2.9,1.2-3.8,2.6
		c-0.1,0.1-0.2,0.2-0.3,0.3c0.3,2.7,2.3,4.9,4.7,4.9c2.5,0,4.5-2.2,4.8-5.1l-0.3-0.3C19.3,10.6,18.7,10,17.7,9.4z"/>
	<path id="XMLID_65_" class="st0_lv" d="M10.1,10.6c1.3-2.2,4-2.5,6-3.7c0.3,0.9,1.1,1.6,1.9,2.1c1.1,0.6,1.7,1.3,1.7,1.3
		s0.6-1.6-0.2-3.6c-0.6-1.4-2.5-2.4-4.6-2.4c-4.9,0-5.4,3.3-5.5,3.9C9.3,9.7,9.6,11.4,10.1,10.6z"/>
	<path id="XMLID_64_" class="st0_lv" d="M15.4,67c0,1.5,1.2,2.8,2.8,2.8c1.5,0,2.8-1.2,2.8-2.8V49.8c-1.9,0.4-4.5,0.5-5.5,0.5V67z"/>
	<path id="XMLID_63_" class="st0_lv" d="M8.6,67c0,1.5,1.2,2.8,2.8,2.8c1.5,0,2.8-1.2,2.8-2.8V50.4c-1.1,0-3.6-0.1-5.5-0.6V67z"/>
	<path class="st0_lv" d="M24.5,20.8c-0.7-1.4-1.7-2.5-4-3.5l0,0c-0.4-0.2-1-0.4-1.6-0.5c0,0-0.1,0-0.1,0c-0.2,0-0.3-0.1-0.5-0.1v0
		c-0.3-0.1-0.6-0.1-0.9-0.1c-0.7-0.1-1.8-0.2-2.6-0.2v0c0,0,0,0,0,0c0,0,0,0,0,0v0c-0.7,0-1.8,0.1-2.6,0.2c-0.3,0-0.6,0.1-0.9,0.1v0
		c-0.2,0-0.3,0.1-0.5,0.1c0,0-0.1,0-0.1,0c-0.6,0.1-1.2,0.3-1.6,0.5l0,0c-2.3,1-3.3,2.1-4,3.5c-3.1,5.9-3.4,11.6,0,17.2
		c0.1,0.1,0.3,0.6,0.3,0.6c0.5,0.8,1.6,1.1,2.6,0.7c1-0.4,1.4-1.5,1.1-2.4c0,0-0.2-0.4-0.2-0.5C6.8,32,6.6,28.7,7.9,24.7l-0.1,1.7
		l-0.2,4.8c0.3,1.6,0.8,3.2,1.8,5c0,0.1,0.3,0.5,0.3,0.6c0.4,1.1-0.2,2.4-1.3,2.9c-0.3,0.2-0.7,0.2-1.1,0.2l-0.4,8.5
		c0,0.9,3.4,1.6,7.7,1.6c0,0,0.1,0,0.2,0c0,0,0,0,0,0c0,0,0,0,0,0c0.1,0,0.2,0,0.2,0c4.3,0,7.7-0.7,7.7-1.6l-0.4-8.5
		c-0.4,0-0.7-0.1-1.1-0.2c-1.1-0.5-1.7-1.8-1.3-2.9c0,0,0.2-0.5,0.3-0.6c0.9-1.8,1.5-3.4,1.8-5l-0.2-4.8l-0.1-1.7
		c1.4,4,1.1,7.3-1.1,11.6c0,0.1-0.2,0.5-0.2,0.5c-0.3,0.9,0.2,2,1.1,2.4c1,0.5,2.1,0.1,2.6-0.7c0-0.1,0.3-0.5,0.3-0.6
		C27.9,32.4,27.6,26.7,24.5,20.8z M14.9,45.1c-0.4,0-0.6-0.3-0.6-0.6s0.3-0.6,0.6-0.6c0.4,0,0.6,0.3,0.6,0.6S15.2,45.1,14.9,45.1z
		 M14.9,40.4c-0.4,0-0.6-0.3-0.6-0.6s0.3-0.6,0.6-0.6c0.4,0,0.6,0.3,0.6,0.6S15.2,40.4,14.9,40.4z M14.9,35.6
		c-0.4,0-0.6-0.3-0.6-0.6s0.3-0.6,0.6-0.6c0.4,0,0.6,0.3,0.6,0.6S15.2,35.6,14.9,35.6z M14.9,30.9c-0.4,0-0.6-0.3-0.6-0.6
		c0-0.4,0.3-0.6,0.6-0.6c0.4,0,0.6,0.3,0.6,0.6C15.5,30.6,15.2,30.9,14.9,30.9z M14.9,26.1c-0.4,0-0.6-0.3-0.6-0.6s0.3-0.6,0.6-0.6
		c0.4,0,0.6,0.3,0.6,0.6S15.2,26.1,14.9,26.1z M14.9,21.4c-0.4,0-0.6-0.3-0.6-0.6s0.3-0.6,0.6-0.6c0.4,0,0.6,0.3,0.6,0.6
		S15.2,21.4,14.9,21.4z M20.5,24.8h-1v1H18v-1h-1v-1.5h1v-1h1.5v1h1V24.8z"/>
	<path id="XMLID_10_" class="st0_lv" d="M92.9,23C93,23.4,66,53.3,66,53.3H26.9v6.1h2.4v10.3h3.2V59.4h38.3v10.3h3.2v-12l25.1-29.4
		L92.9,23z"/>
	<path id="XMLID_9_" class="st0_lv" d="M52.8,17.7c2.1-1.6,7.5-3.4,6.9-7.4c-0.5-3.3-3.2-4.2-5.1-3c-1.4,0.8-1.5,1.9-1.7,2.3
		c-0.2-0.3-0.4-1.4-1.7-2.3c-2-1.2-4.6-0.3-5.1,3C45.3,14.2,50.7,16.1,52.8,17.7z"/>
</g>
</svg>
