<?xml version="1.0" encoding="utf-8"?>
<!-- Generator: Adobe Illustrator 19.0.0, SVG Export Plug-In . SVG Version: 6.00 Build 0)  -->
<svg version="1.1" id="图层_1" xmlns="http://www.w3.org/2000/svg" xmlns:xlink="http://www.w3.org/1999/xlink" x="0px" y="0px"
	 viewBox="0 0 211 75" style="enable-background:new 0 0 211 75;" xml:space="preserve">
<style type="text/css">
	.fazhanxuqiu_tuopinxuqiu_st0{opacity:0.5;fill:#132043;}
	.fazhanxuqiu_tuopinxuqiu_st1{fill:#01AAE5;}
</style>
<rect id="FAZHANXUQIU_TUOPINXUQIU_XMLID_123_" x="10.5" y="11.4" class="fazhanxuqiu_tuopinxuqiu_st0" width="189" height="53.3"/>
<g id="FAZHANXUQIU_TUOPINXUQIU_XMLID_59_">
	<polygon id="FAZHANXUQIU_TUOPINXUQIU_XMLID_121_" class="fazhanxuqiu_tuopinxuqiu_st1" points="203.1,55 201.7,55 201.7,67.1 189.7,67.1 189.7,68.4 203.1,68.4 	"/>
	<polygon id="FAZHANXUQIU_TUOPINXUQIU_XMLID_120_" class="fazhanxuqiu_tuopinxuqiu_st1" points="7.1,21.7 8.4,21.7 8.4,9.5 20.5,9.5 20.5,8.3 7.1,8.3 	"/>
	<polygon id="FAZHANXUQIU_TUOPINXUQIU_XMLID_119_" class="fazhanxuqiu_tuopinxuqiu_st1" points="203.1,21.7 201.7,21.7 201.7,9.5 189.7,9.5 189.7,8.3 203.1,8.3 	"/>
	<polygon id="FAZHANXUQIU_TUOPINXUQIU_XMLID_118_" class="fazhanxuqiu_tuopinxuqiu_st1" points="7.1,55 8.4,55 8.4,67.1 20.5,67.1 20.5,68.4 7.1,68.4 	"/>
	<path id="FAZHANXUQIU_TUOPINXUQIU_XMLID_115_" class="fazhanxuqiu_tuopinxuqiu_st1" d="M3.6,4.5V72h203.1V4.5H3.6z M204.8,70.1H5.5V6.4h199.3V70.1z"/>
</g>
</svg>
