<?xml version="1.0" encoding="utf-8"?>
<!-- Generator: Adobe Illustrator 19.0.0, SVG Export Plug-In . SVG Version: 6.00 Build 0)  -->
<svg version="1.1" id="图层_1" xmlns="http://www.w3.org/2000/svg" xmlns:xlink="http://www.w3.org/1999/xlink" x="0px" y="0px"
	 viewBox="0 0 234.5 124.7" style="enable-background:new 0 0 234.5 124.7;" xml:space="preserve">
<style type="text/css">
	.huzhu0{opacity:0.25;}
	.huzhu1{opacity:0.1;fill:#00BEFF;}
	.huzhu2{fill:none;stroke:#2CA6E0;stroke-width:0.1;stroke-miterlimit:10;}
	.huzhu3{fill:#00BEFF;}
	.huzhu4{fill:none;stroke:#00B4EB;stroke-miterlimit:10;}
	.huzhu5{fill:#00B4EB;}
	.huzhu6{fill:none;stroke:#00B4EB;stroke-width:0.5;stroke-linecap:round;stroke-miterlimit:10;}
	.huzhu7{opacity:0.8;fill:none;stroke:#00BEFF;stroke-miterlimit:10;}
	.huzhu8{opacity:0.4;}
	.huzhu9{opacity:0.2;fill:#00B4EB;}
	.huzhu10{fill:none;stroke:#00B4EB;stroke-width:0.5;stroke-miterlimit:10;}
	.huzhu11{fill:#FFFFFF;}
	.huzhu12{fill:#FFAA00;}
	.huzhu13{opacity:0.5;fill:#00B4EB;}
	.huzhu14{opacity:0.75;fill:#00B4EB;}
	.huzhu15{fill:none;stroke:#00BEFF;stroke-miterlimit:10;}
</style>
<g id="XMLID_1_">
	<g id="XMLID_44_" class="huzhu0">
		<rect id="XMLID_148_" x="4.5" y="3.7" class="huzhu1" width="226" height="116.9"/>
		<g id="XMLID_114_">
			<line id="XMLID_147_" class="huzhu2" x1="4.9" y1="3.7" x2="230.2" y2="3.7"/>
			<line id="XMLID_146_" class="huzhu2" x1="4.9" y1="7.4" x2="230.2" y2="7.4"/>
			<line id="XMLID_145_" class="huzhu2" x1="4.9" y1="14.7" x2="230.2" y2="14.7"/>
			<line id="XMLID_144_" class="huzhu2" x1="4.9" y1="22" x2="230.2" y2="22"/>
			<line id="XMLID_143_" class="huzhu2" x1="4.9" y1="29.3" x2="230.2" y2="29.3"/>
			<line id="XMLID_142_" class="huzhu2" x1="4.9" y1="43.9" x2="230.2" y2="43.9"/>
			<line id="XMLID_141_" class="huzhu2" x1="4.9" y1="58.5" x2="230.2" y2="58.5"/>
			<line id="XMLID_140_" class="huzhu2" x1="4.9" y1="73.1" x2="230.2" y2="73.1"/>
			<line id="XMLID_139_" class="huzhu2" x1="4.9" y1="87.7" x2="230.2" y2="87.7"/>
			<line id="XMLID_138_" class="huzhu2" x1="4.9" y1="102.3" x2="230.2" y2="102.3"/>
			<line id="XMLID_137_" class="huzhu2" x1="4.9" y1="113.2" x2="230.2" y2="113.2"/>
			<line id="XMLID_136_" class="huzhu2" x1="4.9" y1="11" x2="230.2" y2="11"/>
			<line id="XMLID_135_" class="huzhu2" x1="4.9" y1="18.3" x2="230.2" y2="18.3"/>
			<line id="XMLID_134_" class="huzhu2" x1="4.9" y1="25.6" x2="230.2" y2="25.6"/>
			<line id="XMLID_133_" class="huzhu2" x1="4.9" y1="32.9" x2="230.2" y2="32.9"/>
			<line id="XMLID_132_" class="huzhu2" x1="4.9" y1="47.5" x2="230.2" y2="47.5"/>
			<line id="XMLID_131_" class="huzhu2" x1="4.9" y1="62.1" x2="230.2" y2="62.1"/>
			<line id="XMLID_130_" class="huzhu2" x1="4.9" y1="76.7" x2="230.2" y2="76.7"/>
			<line id="XMLID_129_" class="huzhu2" x1="4.9" y1="91.3" x2="230.2" y2="91.3"/>
			<line id="XMLID_128_" class="huzhu2" x1="4.9" y1="105.9" x2="230.2" y2="105.9"/>
			<line id="XMLID_127_" class="huzhu2" x1="4.9" y1="116.8" x2="230.2" y2="116.8"/>
			<line id="XMLID_126_" class="huzhu2" x1="4.9" y1="120.5" x2="230.2" y2="120.5"/>
			<line id="XMLID_125_" class="huzhu2" x1="4.9" y1="36.6" x2="230.2" y2="36.6"/>
			<line id="XMLID_124_" class="huzhu2" x1="4.9" y1="51.2" x2="230.2" y2="51.2"/>
			<line id="XMLID_123_" class="huzhu2" x1="4.9" y1="65.8" x2="230.2" y2="65.8"/>
			<line id="XMLID_122_" class="huzhu2" x1="4.9" y1="80.4" x2="230.2" y2="80.4"/>
			<line id="XMLID_121_" class="huzhu2" x1="4.9" y1="95" x2="230.2" y2="95"/>
			<line id="XMLID_120_" class="huzhu2" x1="4.9" y1="40.2" x2="230.2" y2="40.2"/>
			<line id="XMLID_119_" class="huzhu2" x1="4.9" y1="54.8" x2="230.2" y2="54.8"/>
			<line id="XMLID_118_" class="huzhu2" x1="4.9" y1="69.4" x2="230.2" y2="69.4"/>
			<line id="XMLID_117_" class="huzhu2" x1="4.9" y1="84" x2="230.2" y2="84"/>
			<line id="XMLID_116_" class="huzhu2" x1="4.9" y1="98.6" x2="230.2" y2="98.6"/>
			<line id="XMLID_115_" class="huzhu2" x1="4.9" y1="109.6" x2="230.2" y2="109.6"/>
		</g>
		<g id="XMLID_45_">
			<g id="XMLID_80_">
				<line id="XMLID_113_" class="huzhu2" x1="121.2" y1="3.7" x2="121.2" y2="120.5"/>
				<line id="XMLID_112_" class="huzhu2" x1="117.5" y1="3.7" x2="117.5" y2="120.5"/>
				<line id="XMLID_111_" class="huzhu2" x1="110.2" y1="3.7" x2="110.2" y2="120.5"/>
				<line id="XMLID_110_" class="huzhu2" x1="102.9" y1="3.7" x2="102.9" y2="120.5"/>
				<line id="XMLID_109_" class="huzhu2" x1="95.6" y1="3.7" x2="95.6" y2="120.5"/>
				<line id="XMLID_108_" class="huzhu2" x1="81" y1="3.7" x2="81" y2="120.5"/>
				<line id="XMLID_107_" class="huzhu2" x1="66.5" y1="3.7" x2="66.5" y2="120.5"/>
				<line id="XMLID_106_" class="huzhu2" x1="51.9" y1="3.7" x2="51.9" y2="120.5"/>
				<line id="XMLID_105_" class="huzhu2" x1="37.3" y1="3.7" x2="37.3" y2="120.5"/>
				<line id="XMLID_104_" class="huzhu2" x1="22.7" y1="3.7" x2="22.7" y2="120.5"/>
				<line id="XMLID_103_" class="huzhu2" x1="11.7" y1="3.7" x2="11.7" y2="120.5"/>
				<line id="XMLID_102_" class="huzhu2" x1="113.9" y1="3.7" x2="113.9" y2="120.5"/>
				<line id="XMLID_101_" class="huzhu2" x1="106.6" y1="3.7" x2="106.6" y2="120.5"/>
				<line id="XMLID_100_" class="huzhu2" x1="99.3" y1="3.7" x2="99.3" y2="120.5"/>
				<line id="XMLID_99_" class="huzhu2" x1="92" y1="3.7" x2="92" y2="120.5"/>
				<line id="XMLID_98_" class="huzhu2" x1="77.4" y1="3.7" x2="77.4" y2="120.5"/>
				<line id="XMLID_97_" class="huzhu2" x1="62.8" y1="3.7" x2="62.8" y2="120.5"/>
				<line id="XMLID_96_" class="huzhu2" x1="48.2" y1="3.7" x2="48.2" y2="120.5"/>
				<line id="XMLID_95_" class="huzhu2" x1="33.6" y1="3.7" x2="33.6" y2="120.5"/>
				<line id="XMLID_94_" class="huzhu2" x1="19" y1="3.7" x2="19" y2="120.5"/>
				<line id="XMLID_93_" class="huzhu2" x1="8.1" y1="3.7" x2="8.1" y2="120.5"/>
				<line id="XMLID_92_" class="huzhu2" x1="4.4" y1="3.7" x2="4.4" y2="120.5"/>
				<line id="XMLID_91_" class="huzhu2" x1="88.3" y1="3.7" x2="88.3" y2="120.5"/>
				<line id="XMLID_90_" class="huzhu2" x1="73.7" y1="3.7" x2="73.7" y2="120.5"/>
				<line id="XMLID_89_" class="huzhu2" x1="59.2" y1="3.7" x2="59.2" y2="120.5"/>
				<line id="XMLID_88_" class="huzhu2" x1="44.6" y1="3.7" x2="44.6" y2="120.5"/>
				<line id="XMLID_87_" class="huzhu2" x1="30" y1="3.7" x2="30" y2="120.5"/>
				<line id="XMLID_86_" class="huzhu2" x1="84.7" y1="3.7" x2="84.7" y2="120.5"/>
				<line id="XMLID_85_" class="huzhu2" x1="70.1" y1="3.7" x2="70.1" y2="120.5"/>
				<line id="XMLID_84_" class="huzhu2" x1="55.5" y1="3.7" x2="55.5" y2="120.5"/>
				<line id="XMLID_83_" class="huzhu2" x1="40.9" y1="3.7" x2="40.9" y2="120.5"/>
				<line id="XMLID_82_" class="huzhu2" x1="26.3" y1="3.7" x2="26.3" y2="120.5"/>
				<line id="XMLID_81_" class="huzhu2" x1="15.4" y1="3.7" x2="15.4" y2="120.5"/>
			</g>
			<g id="XMLID_46_">
				<line id="XMLID_79_" class="huzhu2" x1="230.6" y1="3.7" x2="230.6" y2="120.5"/>
				<line id="XMLID_78_" class="huzhu2" x1="227" y1="3.7" x2="227" y2="120.5"/>
				<line id="XMLID_77_" class="huzhu2" x1="219.7" y1="3.7" x2="219.7" y2="120.5"/>
				<line id="XMLID_76_" class="huzhu2" x1="212.4" y1="3.7" x2="212.4" y2="120.5"/>
				<line id="XMLID_75_" class="huzhu2" x1="205.1" y1="3.7" x2="205.1" y2="120.5"/>
				<line id="XMLID_74_" class="huzhu2" x1="190.5" y1="3.7" x2="190.5" y2="120.5"/>
				<line id="XMLID_73_" class="huzhu2" x1="175.9" y1="3.7" x2="175.9" y2="120.5"/>
				<line id="XMLID_72_" class="huzhu2" x1="161.3" y1="3.7" x2="161.3" y2="120.5"/>
				<line id="XMLID_71_" class="huzhu2" x1="146.7" y1="3.7" x2="146.7" y2="120.5"/>
				<line id="XMLID_70_" class="huzhu2" x1="132.1" y1="3.7" x2="132.1" y2="120.5"/>
				<line id="XMLID_69_" class="huzhu2" x1="121.2" y1="3.7" x2="121.2" y2="120.5"/>
				<line id="XMLID_68_" class="huzhu2" x1="223.3" y1="3.7" x2="223.3" y2="120.5"/>
				<line id="XMLID_67_" class="huzhu2" x1="216" y1="3.7" x2="216" y2="120.5"/>
				<line id="XMLID_66_" class="huzhu2" x1="208.7" y1="3.7" x2="208.7" y2="120.5"/>
				<line id="XMLID_65_" class="huzhu2" x1="201.4" y1="3.7" x2="201.4" y2="120.5"/>
				<line id="XMLID_64_" class="huzhu2" x1="186.9" y1="3.7" x2="186.9" y2="120.5"/>
				<line id="XMLID_63_" class="huzhu2" x1="172.3" y1="3.7" x2="172.3" y2="120.5"/>
				<line id="XMLID_62_" class="huzhu2" x1="157.7" y1="3.7" x2="157.7" y2="120.5"/>
				<line id="XMLID_61_" class="huzhu2" x1="143.1" y1="3.7" x2="143.1" y2="120.5"/>
				<line id="XMLID_60_" class="huzhu2" x1="128.5" y1="3.7" x2="128.5" y2="120.5"/>
				<line id="XMLID_59_" class="huzhu2" x1="117.5" y1="3.7" x2="117.5" y2="120.5"/>
				<line id="XMLID_58_" class="huzhu2" x1="113.9" y1="3.7" x2="113.9" y2="120.5"/>
				<line id="XMLID_57_" class="huzhu2" x1="197.8" y1="3.7" x2="197.8" y2="120.5"/>
				<line id="XMLID_56_" class="huzhu2" x1="183.2" y1="3.7" x2="183.2" y2="120.5"/>
				<line id="XMLID_55_" class="huzhu2" x1="168.6" y1="3.7" x2="168.6" y2="120.5"/>
				<line id="XMLID_54_" class="huzhu2" x1="154" y1="3.7" x2="154" y2="120.5"/>
				<line id="XMLID_53_" class="huzhu2" x1="139.4" y1="3.7" x2="139.4" y2="120.5"/>
				<line id="XMLID_52_" class="huzhu2" x1="194.1" y1="3.7" x2="194.1" y2="120.5"/>
				<line id="XMLID_51_" class="huzhu2" x1="179.6" y1="3.7" x2="179.6" y2="120.5"/>
				<line id="XMLID_50_" class="huzhu2" x1="165" y1="3.7" x2="165" y2="120.5"/>
				<line id="XMLID_49_" class="huzhu2" x1="150.4" y1="3.7" x2="150.4" y2="120.5"/>
				<line id="XMLID_48_" class="huzhu2" x1="135.8" y1="3.7" x2="135.8" y2="120.5"/>
				<line id="XMLID_47_" class="huzhu2" x1="124.8" y1="3.7" x2="124.8" y2="120.5"/>
			</g>
		</g>
	</g>
	<polygon id="XMLID_43_" class="huzhu3" points="232.5,122.5 205.9,122.6 205.9,124.7 234.5,124.7 234.5,105.9 232.5,107.4 	"/>
	<polygon id="XMLID_42_" class="huzhu3" points="232.5,2.1 205.9,2 205.9,0 234.5,0 234.5,18.8 232.5,17.3 	"/>
	<g id="XMLID_39_">
		<rect id="XMLID_41_" x="214.2" y="6.7" class="huzhu4" width="13.4" height="13.4"/>
		<rect id="XMLID_40_" x="218.6" y="11.1" class="huzhu5" width="4.6" height="4.6"/>
	</g>
	<polyline id="XMLID_38_" class="huzhu6" points="220.8,26.7 220.8,119.9 214.8,119.9 	"/>
	<polygon id="XMLID_37_" class="huzhu3" points="2.1,2.1 28.7,2 28.7,0 0,0 0,18.8 2.1,17.3 	"/>
	<polygon id="XMLID_36_" class="huzhu3" points="2.1,122.5 28.7,122.6 28.7,124.7 0,124.7 0,105.9 2.1,107.4 	"/>
	<rect id="XMLID_35_" x="2.1" y="2.1" class="huzhu7" width="230.4" height="120.4"/>
	<g id="XMLID_27_">
		<g id="XMLID_32_">
			<rect id="XMLID_34_" x="7.1" y="105.6" class="huzhu4" width="13.4" height="13.4"/>
			<rect id="XMLID_33_" x="11.5" y="110" class="huzhu5" width="4.6" height="4.6"/>
		</g>
		<polyline id="XMLID_31_" class="huzhu6" points="13.8,98.9 13.8,5.7 20.8,5.7 		"/>
		<path id="XMLID_30_" class="huzhu5" d="M18.5,101.5H9.1l1.1-1.8c0.3-0.5,0.9-0.8,1.5-0.8h4.1c0.6,0,1.1,0.3,1.5,0.8L18.5,101.5z"/>
	</g>
	<g id="XMLID_24_" class="huzhu8">
		<polygon id="XMLID_26_" class="huzhu9" points="74.6,10.4 25.9,10.4 25.9,106.5 34.7,115.2 34.7,108.6 30.6,104.6 30.6,74.2 
			37.7,67.1 37.7,40.6 30.9,33.8 30.9,17.3 56.8,17.3 69,17.3 		"/>
		<polygon id="XMLID_25_" class="huzhu10" points="74.6,10.4 25.9,10.4 25.9,106.5 34.7,115.2 34.7,108.6 30.6,104.6 30.6,74.2 
			37.7,67.1 37.7,40.6 30.9,33.8 30.9,17.3 56.8,17.3 69,17.3 		"/>
	</g>
	<g id="XMLID_21_" class="huzhu8">
		<polygon id="XMLID_23_" class="huzhu9" points="217.2,47.5 217.2,115.7 170.3,115.7 175.8,110.3 200.3,110.3 202.9,107.7 
			209.3,107.7 212.9,111.3 212.9,81.6 209.2,77.9 209.2,66.5 215.5,60.2 215.5,50.7 		"/>
		<polygon id="XMLID_22_" class="huzhu4" points="217.2,47.5 217.2,115.7 170.3,115.7 175.8,110.3 200.3,110.3 202.9,107.7 
			209.3,107.7 212.9,111.3 212.9,81.6 209.2,77.9 209.2,66.5 215.5,60.2 215.5,50.7 		"/>
	</g>
	<g id="XMLID_13_">
		<polygon id="XMLID_20_" class="huzhu11" points="199.7,14.1 205.4,8.5 208.8,8.5 203.1,14.1 208.8,19.8 205.4,19.8 		"/>
		<polygon id="XMLID_19_" class="huzhu12" points="194.4,14.1 200,8.5 203.4,8.5 197.8,14.1 203.4,19.8 200,19.8 		"/>
		<polygon id="XMLID_18_" class="huzhu12" points="189,14.1 194.7,8.5 198.1,8.5 192.4,14.1 198.1,19.8 194.7,19.8 		"/>
		<circle id="XMLID_17_" class="huzhu13" cx="169.5" cy="14.4" r="1"/>
		<circle id="XMLID_16_" class="huzhu14" cx="172.8" cy="14.4" r="1"/>
		<circle id="XMLID_15_" class="huzhu5" cx="176.1" cy="14.4" r="1"/>
	</g>
	<path id="XMLID_6_" class="huzhu15" d="M116.8,62.3"/>
	<g id="XMLID_2_">
		<circle id="XMLID_5_" class="huzhu13" cx="53.3" cy="113.7" r="1"/>
		<circle id="XMLID_4_" class="huzhu14" cx="50" cy="113.7" r="1"/>
		<circle id="XMLID_3_" class="huzhu5" cx="46.7" cy="113.7" r="1"/>
	</g>
</g>
</svg>
