<?xml version="1.0" encoding="utf-8"?>
<!-- Generator: Adobe Illustrator 19.0.0, SVG Export Plug-In . SVG Version: 6.00 Build 0)  -->
<svg version="1.1" id="图层_1" xmlns="http://www.w3.org/2000/svg" xmlns:xlink="http://www.w3.org/1999/xlink" x="0px" y="0px"
	 viewBox="0 0 2330 930" style="enable-background:new 0 0 2330 930;" xml:space="preserve">
<style type="text/css">
	.st0{fill:none;stroke:#038BFC;stroke-width:4;stroke-miterlimit:10;}
	.st1{fill:none;stroke:#038BFC;stroke-width:2;stroke-miterlimit:10;}
	.st2{fill:none;stroke:#FFFFFF;stroke-width:4;stroke-miterlimit:10;}
</style>
<g id="XMLID_148_">
	<g id="XMLID_157_">
		<rect id="XMLID_175_" x="62.8" y="36.7" class="st0" width="2203.3" height="856.5"/>
		<polyline id="XMLID_174_" class="st1" points="56.1,76.2 56.1,29.7 104.1,29.7 		"/>
		<polyline id="XMLID_173_" class="st1" points="2272.9,76.2 2272.9,29.7 2224.9,29.7 		"/>
		<polyline id="XMLID_172_" class="st1" points="56.1,883.8 56.1,900.3 104.1,900.3 		"/>
		<polyline id="XMLID_171_" class="st1" points="2272.9,883.8 2272.9,900.3 2224.9,900.3 		"/>
		<g id="XMLID_158_">
			<polyline id="XMLID_168_" class="st2" points="56.1,47.7 56.1,29.8 76.6,29.8 			"/>
			<polyline id="XMLID_165_" class="st2" points="2272.9,47.7 2272.9,29.8 2254.4,29.8 			"/>
			<polyline id="XMLID_162_" class="st2" points="56.1,882.3 56.1,900.2 76.6,900.2 			"/>
			<polyline id="XMLID_159_" class="st2" points="2272.9,882.3 2272.9,900.2 2254.4,900.2 			"/>
		</g>
	</g>
	<g id="XMLID_153_">
		<line id="XMLID_156_" class="st1" x1="33.3" y1="881.5" x2="2296.7" y2="881.5"/>
		<polyline id="XMLID_155_" class="st2" points="27.3,870.1 27.3,881.5 39.3,881.5 		"/>
		<polyline id="XMLID_154_" class="st2" points="2302.7,870.1 2302.7,881.5 2290.7,881.5 		"/>
	</g>
	<g id="XMLID_149_">
		<line id="XMLID_152_" class="st1" x1="33.3" y1="48.7" x2="2296.7" y2="48.7"/>
		<polyline id="XMLID_151_" class="st2" points="27.3,60.1 27.3,48.7 39.3,48.7 		"/>
		<polyline id="XMLID_150_" class="st2" points="2302.7,60.1 2302.7,48.7 2290.7,48.7 		"/>
	</g>
</g>
</svg>
