<?xml version="1.0" encoding="utf-8"?>
<!-- Generator: Adobe Illustrator 19.0.0, SVG Export Plug-In . SVG Version: 6.00 Build 0)  -->
<svg version="1.1" id="图层_1" xmlns="http://www.w3.org/2000/svg" xmlns:xlink="http://www.w3.org/1999/xlink" x="0px" y="0px"
	 viewBox="0 0 537 763.5" style="enable-background:new 0 0 537 763.5;" xml:space="preserve">
<style type="text/css">
	.PINKUNZHENDUAN_ST0{fill:#038BFC;fill-opacity:0.3;stroke:#038BFC;stroke-width:3;stroke-miterlimit:10;}
	.PINKUNZHENDUAN_ST1{fill:#038BFC;}
	.PINKUNZHENDUAN_ST2{fill:#FFFFFF;}
</style>
<polygon id="PINKUNZHENDUAN_ST_XMLID_558_" class="PINKUNZHENDUAN_ST0" points="403,12.6 132.6,12.6 158.8,58.5 377,58.5 "/>
<g id="PINKUNZHENDUAN_ST_XMLID_541_">
	<path id="PINKUNZHENDUAN_ST_XMLID_554_" class="PINKUNZHENDUAN_ST1" d="M113.3,24.8l26.1,47.8l253-0.1l3.1,0l1.4-2.7l23-44.1L517,46.7v694.6l-14.4,7.1H33l-14.2-7.1
		V46.6l96.5-21.8 M110.4,21.2L13.8,43v701.3l18,9h472l18.2-9V43l-98.2-20.3l-8.3,0.5l-31.2,42.2L150.9,66l-31.6-43.3L110.4,21.2z"/>
	<polygon id="PINKUNZHENDUAN_ST_XMLID_553_" class="PINKUNZHENDUAN_ST2" points="31.8,36.6 32.8,45.6 21.8,49.6 21.8,84.6 13.8,98.6 13.8,142.6 7.8,147.6 7.8,153.6 
		13.8,153.6 13.8,43 	"/>
	<polygon id="PINKUNZHENDUAN_ST_XMLID_552_" class="PINKUNZHENDUAN_ST1" points="139.5,72.5 110.4,21.2 129,23.9 150.8,65.4 	"/>
	<polygon id="PINKUNZHENDUAN_ST_XMLID_551_" class="PINKUNZHENDUAN_ST1" points="395.7,72.5 423.5,22.7 406.1,23.9 384.3,65.4 	"/>
	<g id="PINKUNZHENDUAN_ST_XMLID_546_">
		<g id="PINKUNZHENDUAN_ST_XMLID_549_">
			<polygon id="PINKUNZHENDUAN_ST_XMLID_550_" class="PINKUNZHENDUAN_ST1" points="399.3,81.1 427.2,31.2 421.8,31.5 397,75.9 			"/>
		</g>
		<g id="PINKUNZHENDUAN_ST_XMLID_547_">
			<polygon id="PINKUNZHENDUAN_ST_XMLID_548_" class="PINKUNZHENDUAN_ST1" points="136.5,81.1 108.6,31.2 114,31.5 138.8,75.9 			"/>
		</g>
	</g>
	<polygon id="PINKUNZHENDUAN_ST_XMLID_545_" class="PINKUNZHENDUAN_ST2" points="504.6,36.6 503.6,45.6 514.6,49.6 514.6,84.6 522.6,98.6 522.6,142.6 528.6,147.6 
		528.6,153.6 522.6,153.6 522.7,43 	"/>
	<polygon id="PINKUNZHENDUAN_ST_XMLID_544_" class="PINKUNZHENDUAN_ST2" points="31.8,753.6 32.8,742.6 21.8,738.6 21.8,703.6 13.8,689.6 13.8,645.6 7.8,640.6 
		7.8,634.6 13.8,634.6 13.8,745.1 	"/>
	<polygon id="PINKUNZHENDUAN_ST_XMLID_543_" class="PINKUNZHENDUAN_ST2" points="503.8,753.6 502.8,742.6 513.8,738.6 513.8,703.6 521.8,690.6 521.8,645.6 
		527.8,640.6 527.8,634.6 521.8,634.6 521.8,745.1 	"/>
	<polygon id="PINKUNZHENDUAN_ST_XMLID_542_" class="PINKUNZHENDUAN_ST1" points="138.8,75.9 397,75.9 399.3,81.1 136.5,81.1 	"/>
</g>
</svg>
