<?xml version="1.0" encoding="utf-8"?>
<!-- Generator: Adobe Illustrator 19.0.0, SVG Export Plug-In . SVG Version: 6.00 Build 0)  -->
<svg version="1.1" id="图层_1" xmlns="http://www.w3.org/2000/svg" xmlns:xlink="http://www.w3.org/1999/xlink" x="0px" y="0px"
	 viewBox="0 0 1601 889" style="enable-background:new 0 0 1601 889;" xml:space="preserve">
<style type="text/css">
	.pinkunzhenduantablest0{fill:none;stroke:#038BFC;stroke-width:4;stroke-miterlimit:10;}
	.pinkunzhenduantablest1{fill:none;stroke:#038BFC;stroke-width:2;stroke-miterlimit:10;}
	.pinkunzhenduantablest2{fill:none;stroke:#FFFFFF;stroke-width:4;stroke-miterlimit:10;}
</style>
<g id="pinkunzhenduantablest_XMLID_831_">
	<g id="pinkunzhenduantablest_XMLID_840_">
		<rect id="pinkunzhenduantablest_XMLID_858_" x="41.7" y="11.3" class="pinkunzhenduantablest0" width="1516.6" height="866.5"/>
		<polyline id="pinkunzhenduantablest_XMLID_857_" class="pinkunzhenduantablest1" points="35,50.8 35,4.3 83,4.3 		"/>
		<polyline id="pinkunzhenduantablest_XMLID_856_" class="pinkunzhenduantablest1" points="1565,50.8 1565,4.3 1517,4.3 		"/>
		<polyline id="pinkunzhenduantablest_XMLID_855_" class="pinkunzhenduantablest1" points="35,868.3 35,884.8 83,884.8 		"/>
		<polyline id="pinkunzhenduantablest_XMLID_854_" class="pinkunzhenduantablest1" points="1565,868.3 1565,884.8 1517,884.8 		"/>
		<g id="pinkunzhenduantablest_XMLID_841_">
			<polyline id="pinkunzhenduantablest_XMLID_851_" class="pinkunzhenduantablest2" points="35,22.2 35,4.3 55.5,4.3 			"/>
			<polyline id="pinkunzhenduantablest_XMLID_848_" class="pinkunzhenduantablest2" points="1565,22.2 1565,4.3 1546.5,4.3 			"/>
			<polyline id="pinkunzhenduantablest_XMLID_845_" class="pinkunzhenduantablest2" points="35,866.8 35,884.7 55.5,884.7 			"/>
			<polyline id="pinkunzhenduantablest_XMLID_842_" class="pinkunzhenduantablest2" points="1565,866.8 1565,884.7 1546.5,884.7 			"/>
		</g>
	</g>
	<g id="pinkunzhenduantablest_XMLID_836_">
		<line id="pinkunzhenduantablest_XMLID_839_" class="pinkunzhenduantablest1" x1="12.2" y1="866" x2="1588.8" y2="866"/>
		<polyline id="pinkunzhenduantablest_XMLID_838_" class="pinkunzhenduantablest2" points="6.2,854.7 6.2,866 18.2,866 		"/>
		<polyline id="pinkunzhenduantablest_XMLID_837_" class="pinkunzhenduantablest2" points="1594.8,854.7 1594.8,866 1582.8,866 		"/>
	</g>
	<g id="pinkunzhenduantablest_XMLID_832_">
		<line id="pinkunzhenduantablest_XMLID_835_" class="pinkunzhenduantablest1" x1="12.2" y1="23.3" x2="1588.8" y2="23.3"/>
		<polyline id="pinkunzhenduantablest_XMLID_834_" class="pinkunzhenduantablest2" points="6.2,34.7 6.2,23.3 18.2,23.3 		"/>
		<polyline id="pinkunzhenduantablest_XMLID_833_" class="pinkunzhenduantablest2" points="1594.8,34.7 1594.8,23.3 1582.8,23.3 		"/>
	</g>
</g>
</svg>
