<?xml version="1.0" encoding="utf-8"?>
<!-- Generator: Adobe Illustrator 19.0.0, SVG Export Plug-In . SVG Version: 6.00 Build 0)  -->
<svg version="1.1" id="图层_1" xmlns="http://www.w3.org/2000/svg" xmlns:xlink="http://www.w3.org/1999/xlink" x="0px" y="0px"
	 viewBox="0 0 930 910" style="enable-background:new 0 0 930 910;" xml:space="preserve">
<style type="text/css">
	.st0_0{fill:none;stroke:#038BFC;stroke-width:4;stroke-miterlimit:10;}
	.st1_1{fill:none;stroke:#038BFC;stroke-width:2;stroke-miterlimit:10;}
	.st2_2{fill:none;stroke:#FFFFFF;stroke-width:4;stroke-miterlimit:10;}
</style>
<g id="XMLID_414_">
	<g id="XMLID_423_">
		<rect id="XMLID_441_" x="43.3" y="26.7" class="st0_0" width="842.4" height="856.5"/>
		<polyline id="XMLID_440_" class="st1_1" points="36.5,66.2 36.5,19.7 84.5,19.7 		"/>
		<polyline id="XMLID_439_" class="st1_1" points="892.5,66.2 892.5,19.7 844.5,19.7 		"/>
		<polyline id="XMLID_438_" class="st1_1" points="36.5,873.8 36.5,890.3 84.5,890.3 		"/>
		<polyline id="XMLID_437_" class="st1_1" points="892.5,873.8 892.5,890.3 844.5,890.3 		"/>
		<g id="XMLID_424_">
			<polyline id="XMLID_434_" class="st2" points="36.5,37.7 36.5,19.8 57,19.8 			"/>
			<polyline id="XMLID_431_" class="st2" points="892.5,37.7 892.5,19.8 874,19.8 			"/>
			<polyline id="XMLID_428_" class="st2" points="36.5,872.3 36.5,890.2 57,890.2 			"/>
			<polyline id="XMLID_425_" class="st2" points="892.5,872.3 892.5,890.2 874,890.2 			"/>
		</g>
	</g>
	<g id="XMLID_419_">
		<line id="XMLID_422_" class="st1_1" x1="13.8" y1="871.5" x2="916.2" y2="871.5"/>
		<polyline id="XMLID_421_" class="st2_2" points="7.8,860.1 7.8,871.5 19.8,871.5 		"/>
		<polyline id="XMLID_420_" class="st2_2" points="922.2,860.1 922.2,871.5 910.2,871.5 		"/>
	</g>
	<g id="XMLID_415_">
		<line id="XMLID_418_" class="st1_1" x1="13.8" y1="38.7" x2="916.2" y2="38.7"/>
		<polyline id="XMLID_417_" class="st2_2" points="7.8,50.1 7.8,38.7 19.8,38.7 		"/>
		<polyline id="XMLID_416_" class="st2_2" points="922.2,50.1 922.2,38.7 910.2,38.7 		"/>
	</g>
</g>
</svg>
