<?xml version="1.0" encoding="utf-8"?>
<!-- Generator: Adobe Illustrator 19.0.0, SVG Export Plug-In . SVG Version: 6.00 Build 0)  -->
<svg version="1.1" id="图层_1" xmlns="http://www.w3.org/2000/svg" xmlns:xlink="http://www.w3.org/1999/xlink" x="0px" y="0px"
	 viewBox="0 0 2473.9 875.1" style="enable-background:new 0 0 2473.9 875.1;" xml:space="preserve">
<style type="text/css">
	.st0{opacity:0.7;fill:#05BCFE;}
	.st1{opacity:0.39;}
	.st2{fill:#05BCFE;}
	.st3{opacity:0.39;fill:#01AAE5;}
	.st4{opacity:0.7;fill:#01AAE5;}
	.st5{opacity:0.6;fill:#01AAE5;}
</style>
<path id="XMLID_94_" class="st0" d="M760.7,152.4H58.2L0,194.4v616.5v13.5h83.5l-1,0.7h45.1l1-0.7h28.3l-1,0.7H201l1-0.7h28.3
	l-1,0.7h45.1l1-0.7h28.3l-1,0.7h145.1l1-0.7l311.9-0.5V152.4z M756.6,802.3h-739V188.7l40.6-29.3h698.5V802.3z"/>
<g id="XMLID_89_" class="st1">
	<polygon id="XMLID_93_" class="st2" points="121.2,793 103.9,805.5 149,805.5 166.3,793 	"/>
	<polygon id="XMLID_92_" class="st2" points="47.8,793 30.5,805.5 75.6,805.5 92.9,793 	"/>
	<polygon id="XMLID_91_" class="st2" points="268,793 250.7,805.5 295.8,805.5 313.1,793 	"/>
	<polygon id="XMLID_90_" class="st2" points="194.6,793 177.3,805.5 222.4,805.5 239.7,793 	"/>
</g>
<polygon id="XMLID_88_" class="st3" points="573.3,134.8 722.9,134.8 740.5,122.1 590.9,122.1 "/>
<polygon id="XMLID_87_" class="st3" points="1243.8,37 1243.8,37 1628,37 1741.6,118.2 1752.8,118.2 1632.9,31.9 1355.4,31.9 
	1355.4,31.3 1320.3,5.9 1243.8,5.9 1243.8,5.9 1167.3,5.9 1132.1,31.3 1132.1,31.8 854.7,31.8 728.1,122.1 740.5,122.1 859.5,37 "/>
<path id="XMLID_83_" class="st4" d="M1626.3,42.4h-382.5v0H861.2l-58.2,42v776.5v13.5h83.5l-1,0.7h45.1l1-0.7H960l-1,0.7h45.1l1-0.7
	h28.3l-1,0.7h45.1l1-0.7h28.3l-1,0.7h130.8l0,0h145.1l-1-0.7h28.3l1,0.7h45.1l-1-0.7h28.3l1,0.7h45.1l-1-0.7h28.3l1,0.7h45.1l-1-0.7
	h83.5v-13.5V84.4L1626.3,42.4z M821,79.4l40.2-30 M1666.9,852.3l-845.9,0V79.4l40.2-30l765,0l40.6,29.3V852.3z"/>
<polygon id="XMLID_82_" class="st3" points="483.6,132.2 627.4,132.2 637.8,124.7 494,124.7 "/>
<polygon id="XMLID_81_" class="st3" points="240.2,130.3 551.3,130.3 556.3,126.7 245.3,126.7 "/>
<polygon id="XMLID_80_" class="st3" points="983.9,21.8 1127.7,21.8 1138.1,14.3 994.3,14.3 "/>
<polygon id="XMLID_79_" class="st3" points="890.5,19.9 1051.6,19.9 1056.6,16.3 895.6,16.3 "/>
<path id="XMLID_37_" class="st0" d="M1713.2,819.9l311.9,0.5l1,0.7h145.1l-1-0.7h28.3l1,0.7h45.1l-1-0.7h28.3l1,0.7h45.1l-1-0.7
	h28.3l1,0.7h45.1l-1-0.7h83.5V807V190.5l-58.2-42h-702.5V819.9z M1717.2,155.5h698.5l40.6,29.3v613.5h-739V155.5z"/>
<g id="XMLID_32_" class="st1">
	<polygon id="XMLID_36_" class="st2" points="2352.6,789 2370,801.5 2324.9,801.5 2307.6,789 	"/>
	<polygon id="XMLID_35_" class="st2" points="2426.1,789 2443.4,801.5 2398.3,801.5 2381,789 	"/>
	<polygon id="XMLID_34_" class="st2" points="2205.8,789 2223.1,801.5 2178.1,801.5 2160.8,789 	"/>
	<polygon id="XMLID_33_" class="st2" points="2279.2,789 2296.5,801.5 2251.5,801.5 2234.2,789 	"/>
</g>
<polygon id="XMLID_31_" class="st5" points="1789.7,111.9 1824.8,137.3 1824.8,137.9 2422.3,137.9 2456.3,162.5 2456.3,171.1 
	2417.4,143 1713.2,143 1713.2,137.9 1713.2,111.9 "/>
<polygon id="XMLID_30_" class="st3" points="1900.5,130.9 1759.5,130.9 1741.6,118.2 1883,118.2 "/>
<polygon id="XMLID_29_" class="st3" points="1990.2,128.3 1846.5,128.3 1836.1,120.8 1979.8,120.8 "/>
<polygon id="XMLID_28_" class="st3" points="2233.7,126.4 1922.6,126.4 1917.5,122.7 2228.6,122.7 "/>
<polygon id="XMLID_27_" class="st3" points="1406.6,11.7 1247,11.7 1091.2,11.7 1073.6,24.4 1247,24.4 1424.1,24.4 "/>
<polygon id="XMLID_26_" class="st3" points="1513.8,21.8 1370.1,21.8 1359.7,14.3 1503.4,14.3 "/>
<polygon id="XMLID_25_" class="st3" points="1597.3,19.9 1446.2,19.9 1441.1,16.2 1592.2,16.2 "/>
<polygon id="XMLID_24_" class="st5" points="1316.8,31.5 1179.4,31.5 1212.8,0 1279.1,0 "/>
</svg>
