<?xml version="1.0" encoding="utf-8"?>
<!-- Generator: Adobe Illustrator 19.0.0, SVG Export Plug-In . SVG Version: 6.00 Build 0)  -->
<svg version="1.1" id="图层_1" xmlns="http://www.w3.org/2000/svg" xmlns:xlink="http://www.w3.org/1999/xlink" x="0px" y="0px"
	 viewBox="0 0 598.3 114" style="enable-background:new 0 0 598.3 114;" xml:space="preserve">
<style type="text/css">
	.st0{fill:#00BEFF;fill-opacity:0.3;stroke:#05BCFE;stroke-width:0.5;stroke-miterlimit:10;}
	.st1{fill:none;stroke:#00BEFF;stroke-miterlimit:10;}
	.st2{fill:none;stroke:#F7F7F7;stroke-width:2;stroke-miterlimit:10;}
</style>
<g id="XMLID_2_">
	<polygon id="XMLID_108_" class="st0" points="131,8.2 126.9,11.8 47.4,11.8 45.6,8.5 15,8.5 15,20.9 12.3,23.6 12.3,30.8 
		12.3,33.4 12.3,87.4 10.6,91 10.6,105.6 5.6,105.6 5.5,15.9 7.7,13.7 7.7,8.5 12.3,3.6 109.2,3.6 117.4,8.2 	"/>
	<polygon id="XMLID_107_" class="st1" points="587.6,105.6 5.6,105.6 5.6,15.8 7.7,13.6 7.7,8.5 12.4,3.6 109.2,3.6 117.4,8.2 
		140.8,8.1 591,7.4 595.4,12.4 595.4,24.5 592.3,29.5 592.3,98.5 	"/>
	<polyline id="XMLID_3_" class="st2" points="592.3,83.4 592.3,98.5 587.6,105.6 562.4,105.6 	"/>
</g>
</svg>
