<?xml version="1.0" encoding="utf-8"?>
<!-- Generator: Adobe Illustrator 19.0.0, SVG Export Plug-In . SVG Version: 6.00 Build 0)  -->
<svg version="1.1" id="图层_1" xmlns="http://www.w3.org/2000/svg" xmlns:xlink="http://www.w3.org/1999/xlink" x="0px" y="0px"
	 viewBox="0 0 2924 980" style="enable-background:new 0 0 2924 980;" xml:space="preserve">
<style type="text/css">
	.st0{fill:none;stroke:#1561C0;stroke-width:3;stroke-miterlimit:10;}
	.st1{fill:#1561C0;}
	.st2{fill:none;stroke:#2EF5FF;stroke-width:3;stroke-miterlimit:10;}
	.st3{fill:#00BEFF;}
	.st4{fill:none;stroke:#1561C0;stroke-miterlimit:10;}
	.st5{opacity:0.2;fill:#2EF5FF;}
	.st6{fill:none;stroke:#00BEFF;stroke-miterlimit:10;}
	.st7{fill:none;stroke:#00BEFF;stroke-width:3;stroke-miterlimit:10;}
	.st8{fill:#FEAB01;}
	.st9{font-family:'MicrosoftYaHei-Bold';}
	.st10{font-size:48px;}
</style>
<g>
	<polyline class="st0" points="2690.2,124.3 2819.2,124.3 2856.7,158.7 2858.2,395 2882.4,449.9 2884.7,576.4 2856.7,633.2 
		2856.7,874.7 2820.3,904.3 2274.7,904.3 2219.8,942.9 	"/>
	<polyline class="st0" points="700,942.9 632,904.3 103.2,904.3 66.7,874.1 66.7,634.1 36,577.3 36,443.9 66.7,383.6 66.7,158.7 
		103.2,124.3 234.7,124.3 	"/>
	<polygon class="st1" points="2850.2,752.3 2850.2,752.3 2844.2,746.8 2844.2,836.9 2850.2,842.4 2850.2,870.3 2816.3,897.8 
		2769.9,897.8 2764.4,891.9 2674.3,891.9 2679.8,897.8 2679.8,897.8 2687.2,905.8 2819.2,905.8 2858.2,874.1 2858.2,759.8 	"/>
	<polygon class="st1" points="74.7,281.1 74.7,281.1 80.6,286.6 80.6,196.5 74.7,191 74.7,163.2 105.5,133.8 152,133.8 157.5,139.8 
		247.6,139.8 242.1,133.8 242.1,133.8 234.7,125.8 102.7,125.8 66.7,159.4 66.7,273.7 	"/>
	<polygon class="st1" points="2850.2,278.1 2850.2,278.1 2844.2,283.6 2844.2,193.4 2850.2,187.9 2850.2,160.1 2819.3,130.8 
		2772.9,130.8 2767.4,136.7 2677.3,136.7 2682.8,130.8 2682.8,130.8 2690.2,122.8 2822.2,122.8 2858.2,156.3 2858.2,270.6 	"/>
	<polygon class="st1" points="74.7,752.3 74.7,752.3 80.6,746.8 80.6,836.9 74.7,842.4 74.7,870.3 108.5,897.8 155,897.8 
		160.5,891.9 250.6,891.9 245.1,897.8 245.1,897.8 237.7,905.8 105.7,905.8 66.7,874.1 66.7,759.8 	"/>
	<path class="st2" d="M2049.7,152.5"/>
	<polygon class="st1" points="2046.2,111.5 2075.7,133.8 2105.6,133.8 2109.3,127 2076,127 2054.9,111.5 	"/>
	<polygon class="st1" points="878.6,116.1 849,138.4 819.2,138.4 815.4,131.7 848.7,131.6 869.9,116.1 	"/>
	<polygon class="st3" points="2645.6,133.8 2676.9,133.8 2680.7,127 2649.4,127 	"/>
	<polygon class="st3" points="2114.1,133.8 2115.9,133.8 2118,130.1 2116.2,130.1 	"/>
	<polygon class="st3" points="2110.8,133.8 2112.5,133.8 2114.6,130.1 2112.9,130.1 	"/>
	<polygon class="st3" points="2117.5,133.8 2119.3,133.8 2121.4,130.1 2119.6,130.1 	"/>
	<polygon class="st3" points="2124.3,133.8 2126,133.8 2128.1,130.1 2126.4,130.1 	"/>
	<polygon class="st3" points="2120.9,133.8 2122.6,133.8 2124.7,130.1 2123,130.1 	"/>
	<polygon class="st3" points="2127.6,133.8 2129.4,133.8 2131.5,130.1 2129.7,130.1 	"/>
	<polygon class="st3" points="2137.7,133.8 2139.5,133.8 2141.6,130.1 2139.8,130.1 	"/>
	<polygon class="st3" points="2131,133.8 2132.7,133.8 2134.8,130.1 2133.1,130.1 	"/>
	<polygon class="st3" points="2144.5,133.8 2146.2,133.8 2148.3,130.1 2146.6,130.1 	"/>
	<polygon class="st3" points="2158,133.8 2159.7,133.8 2161.8,130.1 2160.1,130.1 	"/>
	<polygon class="st3" points="2151.2,133.8 2153,133.8 2155.1,130.1 2153.3,130.1 	"/>
	<polygon class="st3" points="2164.7,133.8 2166.4,133.8 2168.5,130.1 2166.8,130.1 	"/>
	<polygon class="st3" points="2141.1,133.8 2142.8,133.8 2145,130.1 2143.2,130.1 	"/>
	<polygon class="st3" points="2134.4,133.8 2136.1,133.8 2138.2,130.1 2136.5,130.1 	"/>
	<polygon class="st3" points="2147.9,133.8 2149.6,133.8 2151.7,130.1 2150,130.1 	"/>
	<polygon class="st3" points="2161.3,133.8 2163.1,133.8 2165.2,130.1 2163.4,130.1 	"/>
	<polygon class="st3" points="2154.6,133.8 2156.3,133.8 2158.4,130.1 2156.7,130.1 	"/>
	<polygon class="st3" points="2168.1,133.8 2169.8,133.8 2171.9,130.1 2170.2,130.1 	"/>
	<polygon class="st3" points="2174.8,133.8 2176.6,133.8 2178.7,130.1 2176.9,130.1 	"/>
	<polygon class="st3" points="2171.4,133.8 2173.2,133.8 2175.3,130.1 2173.6,130.1 	"/>
	<polygon class="st3" points="2178.2,133.8 2179.9,133.8 2182,130.1 2180.3,130.1 	"/>
	<polygon class="st3" points="2184.9,133.8 2186.7,133.8 2188.8,130.1 2187,130.1 	"/>
	<polygon class="st3" points="2181.6,133.8 2183.3,133.8 2185.4,130.1 2183.7,130.1 	"/>
	<polygon class="st3" points="2188.3,133.8 2190,133.8 2192.1,130.1 2190.4,130.1 	"/>
	<polygon class="st3" points="2195,133.8 2196.8,133.8 2198.9,130.1 2197.1,130.1 	"/>
	<polygon class="st3" points="2191.7,133.8 2193.4,133.8 2195.5,130.1 2193.8,130.1 	"/>
	<polygon class="st3" points="2198.4,133.8 2200.2,133.8 2202.3,130.1 2200.5,130.1 	"/>
	<polygon class="st3" points="2205.2,133.8 2206.9,133.8 2209,130.1 2207.3,130.1 	"/>
	<polygon class="st3" points="2201.8,133.8 2203.5,133.8 2205.6,130.1 2203.9,130.1 	"/>
	<polygon class="st3" points="2208.5,133.8 2210.3,133.8 2212.4,130.1 2210.6,130.1 	"/>
	<polygon class="st3" points="2215.3,133.8 2217,133.8 2219.1,130.1 2217.4,130.1 	"/>
	<polygon class="st3" points="2211.9,133.8 2213.6,133.8 2215.7,130.1 2214,130.1 	"/>
	<polygon class="st3" points="2218.6,133.8 2220.4,133.8 2222.5,130.1 2220.7,130.1 	"/>
	<polygon class="st3" points="2225.4,133.8 2227.1,133.8 2229.2,130.1 2227.5,130.1 	"/>
	<polygon class="st3" points="2222,133.8 2223.7,133.8 2225.9,130.1 2224.1,130.1 	"/>
	<polygon class="st3" points="2228.8,133.8 2230.5,133.8 2232.6,130.1 2230.9,130.1 	"/>
	<polygon class="st3" points="2235.5,133.8 2237.2,133.8 2239.3,130.1 2237.6,130.1 	"/>
	<polygon class="st3" points="2232.1,133.8 2233.9,133.8 2236,130.1 2234.2,130.1 	"/>
	<polygon class="st3" points="2238.9,133.8 2240.6,133.8 2242.7,130.1 2241,130.1 	"/>
	<polygon class="st3" points="2245.6,133.8 2247.3,133.8 2249.4,130.1 2247.7,130.1 	"/>
	<polygon class="st3" points="2242.2,133.8 2244,133.8 2246.1,130.1 2244.3,130.1 	"/>
	<polygon class="st3" points="2249,133.8 2250.7,133.8 2252.8,130.1 2251.1,130.1 	"/>
	<polygon class="st3" points="2255.7,133.8 2257.5,133.8 2259.6,130.1 2257.8,130.1 	"/>
	<polygon class="st3" points="2252.3,133.8 2254.1,133.8 2256.2,130.1 2254.5,130.1 	"/>
	<polygon class="st3" points="2259.1,133.8 2260.8,133.8 2262.9,130.1 2261.2,130.1 	"/>
	<polygon class="st3" points="2265.8,133.8 2267.6,133.8 2269.7,130.1 2267.9,130.1 	"/>
	<polygon class="st3" points="2262.5,133.8 2264.2,133.8 2266.3,130.1 2264.6,130.1 	"/>
	<polygon class="st3" points="2269.2,133.8 2270.9,133.8 2273,130.1 2271.3,130.1 	"/>
	<polygon class="st3" points="2275.9,133.8 2277.7,133.8 2279.8,130.1 2278,130.1 	"/>
	<polygon class="st3" points="2272.6,133.8 2274.3,133.8 2276.4,130.1 2274.7,130.1 	"/>
	<polygon class="st3" points="2279.3,133.8 2281.1,133.8 2283.2,130.1 2281.4,130.1 	"/>
	<polygon class="st3" points="2286.1,133.8 2287.8,133.8 2289.9,130.1 2288.2,130.1 	"/>
	<polygon class="st3" points="2282.7,133.8 2284.4,133.8 2286.5,130.1 2284.8,130.1 	"/>
	<polygon class="st3" points="2289.4,133.8 2291.2,133.8 2293.3,130.1 2291.5,130.1 	"/>
	<polygon class="st3" points="2296.2,133.8 2297.9,133.8 2300,130.1 2298.3,130.1 	"/>
	<polygon class="st3" points="2292.8,133.8 2294.5,133.8 2296.6,130.1 2294.9,130.1 	"/>
	<polygon class="st3" points="2299.5,133.8 2301.3,133.8 2303.4,130.1 2301.6,130.1 	"/>
	<polygon class="st3" points="2306.3,133.8 2308,133.8 2310.1,130.1 2308.4,130.1 	"/>
	<polygon class="st3" points="2302.9,133.8 2304.6,133.8 2306.8,130.1 2305,130.1 	"/>
	<polygon class="st3" points="2309.7,133.8 2311.4,133.8 2313.5,130.1 2311.8,130.1 	"/>
	<polygon class="st3" points="2316.4,133.8 2318.1,133.8 2320.2,130.1 2318.5,130.1 	"/>
	<polygon class="st3" points="2313,133.8 2314.8,133.8 2316.9,130.1 2315.1,130.1 	"/>
	<polygon class="st3" points="2319.8,133.8 2321.5,133.8 2323.6,130.1 2321.9,130.1 	"/>
	<polygon class="st3" points="2326.5,133.8 2328.2,133.8 2330.3,130.1 2328.6,130.1 	"/>
	<polygon class="st3" points="2323.1,133.8 2324.9,133.8 2327,130.1 2325.2,130.1 	"/>
	<polygon class="st3" points="2329.9,133.8 2331.6,133.8 2333.7,130.1 2332,130.1 	"/>
	<polygon class="st3" points="2336.6,133.8 2338.4,133.8 2340.5,130.1 2338.7,130.1 	"/>
	<polygon class="st3" points="2333.2,133.8 2335,133.8 2337.1,130.1 2335.4,130.1 	"/>
	<polygon class="st3" points="2340,133.8 2341.7,133.8 2343.8,130.1 2342.1,130.1 	"/>
	<polygon class="st3" points="2346.7,133.8 2348.5,133.8 2350.6,130.1 2348.8,130.1 	"/>
	<polygon class="st3" points="2343.4,133.8 2345.1,133.8 2347.2,130.1 2345.5,130.1 	"/>
	<polygon class="st3" points="2350.1,133.8 2351.8,133.8 2353.9,130.1 2352.2,130.1 	"/>
	<polygon class="st3" points="2356.8,133.8 2358.6,133.8 2360.7,130.1 2358.9,130.1 	"/>
	<polygon class="st3" points="2353.5,133.8 2355.2,133.8 2357.3,130.1 2355.6,130.1 	"/>
	<polygon class="st3" points="2360.2,133.8 2362,133.8 2364.1,130.1 2362.3,130.1 	"/>
	<polygon class="st3" points="2367,133.8 2368.7,133.8 2370.8,130.1 2369.1,130.1 	"/>
	<polygon class="st3" points="2363.6,133.8 2365.3,133.8 2367.4,130.1 2365.7,130.1 	"/>
	<polygon class="st3" points="2370.3,133.8 2372.1,133.8 2374.2,130.1 2372.4,130.1 	"/>
	<polygon class="st3" points="2377.1,133.8 2378.8,133.8 2380.9,130.1 2379.2,130.1 	"/>
	<polygon class="st3" points="2373.7,133.8 2375.4,133.8 2377.5,130.1 2375.8,130.1 	"/>
	<polygon class="st3" points="2380.4,133.8 2382.2,133.8 2384.3,130.1 2382.5,130.1 	"/>
	<polygon class="st3" points="2387.2,133.8 2388.9,133.8 2391,130.1 2389.3,130.1 	"/>
	<polygon class="st3" points="2383.8,133.8 2385.5,133.8 2387.7,130.1 2385.9,130.1 	"/>
	<polygon class="st3" points="2390.6,133.8 2392.3,133.8 2394.4,130.1 2392.7,130.1 	"/>
	<polygon class="st3" points="2397.3,133.8 2399,133.8 2401.1,130.1 2399.4,130.1 	"/>
	<polygon class="st3" points="2393.9,133.8 2395.7,133.8 2397.8,130.1 2396,130.1 	"/>
	<polygon class="st3" points="2400.7,133.8 2402.4,133.8 2404.5,130.1 2402.8,130.1 	"/>
	<polygon class="st3" points="2407.4,133.8 2409.1,133.8 2411.2,130.1 2409.5,130.1 	"/>
	<polygon class="st3" points="2404,133.8 2405.8,133.8 2407.9,130.1 2406.1,130.1 	"/>
	<polygon class="st3" points="2410.8,133.8 2412.5,133.8 2414.6,130.1 2412.9,130.1 	"/>
	<polygon class="st3" points="2417.5,133.8 2419.3,133.8 2421.4,130.1 2419.6,130.1 	"/>
	<polygon class="st3" points="2414.1,133.8 2415.9,133.8 2418,130.1 2416.3,130.1 	"/>
	<polygon class="st3" points="2420.9,133.8 2422.6,133.8 2424.7,130.1 2423,130.1 	"/>
	<polygon class="st3" points="2427.6,133.8 2429.4,133.8 2431.5,130.1 2429.7,130.1 	"/>
	<polygon class="st3" points="2424.3,133.8 2426,133.8 2428.1,130.1 2426.4,130.1 	"/>
	<polygon class="st3" points="2431,133.8 2432.7,133.8 2434.8,130.1 2433.1,130.1 	"/>
	<polygon class="st3" points="2437.7,133.8 2439.5,133.8 2441.6,130.1 2439.8,130.1 	"/>
	<polygon class="st3" points="2434.4,133.8 2436.1,133.8 2438.2,130.1 2436.5,130.1 	"/>
	<polygon class="st3" points="2441.1,133.8 2442.9,133.8 2445,130.1 2443.2,130.1 	"/>
	<polygon class="st3" points="2447.9,133.8 2449.6,133.8 2451.7,130.1 2450,130.1 	"/>
	<polygon class="st3" points="2444.5,133.8 2446.2,133.8 2448.3,130.1 2446.6,130.1 	"/>
	<polygon class="st3" points="2451.2,133.8 2453,133.8 2455.1,130.1 2453.3,130.1 	"/>
	<polygon class="st3" points="2458,133.8 2459.7,133.8 2461.8,130.1 2460.1,130.1 	"/>
	<polygon class="st3" points="2454.6,133.8 2456.3,133.8 2458.4,130.1 2456.7,130.1 	"/>
	<polygon class="st3" points="2461.3,133.8 2463.1,133.8 2465.2,130.1 2463.4,130.1 	"/>
	<polygon class="st3" points="2468.1,133.8 2469.8,133.8 2471.9,130.1 2470.2,130.1 	"/>
	<polygon class="st3" points="2464.7,133.8 2466.4,133.8 2468.6,130.1 2466.8,130.1 	"/>
	<polygon class="st3" points="2471.4,133.8 2473.2,133.8 2475.3,130.1 2473.6,130.1 	"/>
	<polygon class="st3" points="2478.2,133.8 2479.9,133.8 2482,130.1 2480.3,130.1 	"/>
	<polygon class="st3" points="2474.8,133.8 2476.6,133.8 2478.7,130.1 2476.9,130.1 	"/>
	<polygon class="st3" points="2481.6,133.8 2483.3,133.8 2485.4,130.1 2483.7,130.1 	"/>
	<polygon class="st3" points="2488.3,133.8 2490,133.8 2492.1,130.1 2490.4,130.1 	"/>
	<polygon class="st3" points="2484.9,133.8 2486.7,133.8 2488.8,130.1 2487,130.1 	"/>
	<polygon class="st3" points="2491.7,133.8 2493.4,133.8 2495.5,130.1 2493.8,130.1 	"/>
	<polygon class="st3" points="2498.4,133.8 2500.2,133.8 2502.3,130.1 2500.5,130.1 	"/>
	<polygon class="st3" points="2495,133.8 2496.8,133.8 2498.9,130.1 2497.1,130.1 	"/>
	<polygon class="st3" points="2501.8,133.8 2503.5,133.8 2505.6,130.1 2503.9,130.1 	"/>
	<polygon class="st3" points="2508.5,133.8 2510.3,133.8 2512.4,130.1 2510.6,130.1 	"/>
	<polygon class="st3" points="2505.2,133.8 2506.9,133.8 2509,130.1 2507.3,130.1 	"/>
	<polygon class="st3" points="2511.9,133.8 2513.6,133.8 2515.7,130.1 2514,130.1 	"/>
	<polygon class="st3" points="2518.6,133.8 2520.4,133.8 2522.5,130.1 2520.7,130.1 	"/>
	<polygon class="st3" points="2515.3,133.8 2517,133.8 2519.1,130.1 2517.4,130.1 	"/>
	<polygon class="st3" points="2522,133.8 2523.8,133.8 2525.9,130.1 2524.1,130.1 	"/>
	<polygon class="st3" points="2528.8,133.8 2530.5,133.8 2532.6,130.1 2530.9,130.1 	"/>
	<polygon class="st3" points="2525.4,133.8 2527.1,133.8 2529.2,130.1 2527.5,130.1 	"/>
	<polygon class="st3" points="2532.1,133.8 2533.9,133.8 2536,130.1 2534.2,130.1 	"/>
	<polygon class="st3" points="2538.9,133.8 2540.6,133.8 2542.7,130.1 2541,130.1 	"/>
	<polygon class="st3" points="2535.5,133.8 2537.2,133.8 2539.3,130.1 2537.6,130.1 	"/>
	<polygon class="st3" points="2542.2,133.8 2544,133.8 2546.1,130.1 2544.3,130.1 	"/>
	<polygon class="st3" points="2549,133.8 2550.7,133.8 2552.8,130.1 2551.1,130.1 	"/>
	<polygon class="st3" points="2545.6,133.8 2547.3,133.8 2549.4,130.1 2547.7,130.1 	"/>
	<polygon class="st3" points="2552.3,133.8 2554.1,133.8 2556.2,130.1 2554.5,130.1 	"/>
	<polygon class="st3" points="2559.1,133.8 2560.8,133.8 2562.9,130.1 2561.2,130.1 	"/>
	<polygon class="st3" points="2555.7,133.8 2557.5,133.8 2559.6,130.1 2557.8,130.1 	"/>
	<polygon class="st3" points="2562.5,133.8 2564.2,133.8 2566.3,130.1 2564.6,130.1 	"/>
	<polygon class="st3" points="2569.2,133.8 2570.9,133.8 2573,130.1 2571.3,130.1 	"/>
	<polygon class="st3" points="2565.8,133.8 2567.6,133.8 2569.7,130.1 2567.9,130.1 	"/>
	<polygon class="st3" points="2572.6,133.8 2574.3,133.8 2576.4,130.1 2574.7,130.1 	"/>
	<polygon class="st3" points="2579.3,133.8 2581.1,133.8 2583.2,130.1 2581.4,130.1 	"/>
	<polygon class="st3" points="2575.9,133.8 2577.7,133.8 2579.8,130.1 2578,130.1 	"/>
	<polygon class="st3" points="2582.7,133.8 2584.4,133.8 2586.5,130.1 2584.8,130.1 	"/>
	<polygon class="st3" points="2589.4,133.8 2591.2,133.8 2593.3,130.1 2591.5,130.1 	"/>
	<polygon class="st3" points="2586.1,133.8 2587.8,133.8 2589.9,130.1 2588.2,130.1 	"/>
	<polygon class="st3" points="2592.8,133.8 2594.5,133.8 2596.6,130.1 2594.9,130.1 	"/>
	<polygon class="st3" points="2599.5,133.8 2601.3,133.8 2603.4,130.1 2601.6,130.1 	"/>
	<polygon class="st3" points="2596.2,133.8 2597.9,133.8 2600,130.1 2598.3,130.1 	"/>
	<polygon class="st3" points="2602.9,133.8 2604.6,133.8 2606.8,130.1 2605,130.1 	"/>
	<polygon class="st3" points="2609.7,133.8 2611.4,133.8 2613.5,130.1 2611.8,130.1 	"/>
	<polygon class="st3" points="2606.3,133.8 2608,133.8 2610.1,130.1 2608.4,130.1 	"/>
	<polygon class="st3" points="2613,133.8 2614.8,133.8 2616.9,130.1 2615.1,130.1 	"/>
	<polygon class="st3" points="2619.8,133.8 2621.5,133.8 2623.6,130.1 2621.9,130.1 	"/>
	<polygon class="st3" points="2616.4,133.8 2618.1,133.8 2620.2,130.1 2618.5,130.1 	"/>
	<polygon class="st3" points="2623.1,133.8 2624.9,133.8 2627,130.1 2625.2,130.1 	"/>
	<polygon class="st3" points="2629.9,133.8 2631.6,133.8 2633.7,130.1 2632,130.1 	"/>
	<polygon class="st3" points="2626.5,133.8 2628.2,133.8 2630.3,130.1 2628.6,130.1 	"/>
	<polygon class="st3" points="2633.2,133.8 2635,133.8 2637.1,130.1 2635.4,130.1 	"/>
	<polygon class="st3" points="2636.4,133.8 2638.2,133.8 2640.3,130.1 2638.5,130.1 	"/>
	<polygon class="st3" points="2639.8,133.8 2641.5,133.8 2643.6,130.1 2641.9,130.1 	"/>
	<polygon class="st3" points="279.3,136.9 247.9,136.9 244.2,130.1 275.5,130.1 	"/>
	<polygon class="st3" points="810.7,136.9 809,136.9 806.9,133.2 808.6,133.2 	"/>
	<polygon class="st3" points="814.1,136.9 812.3,136.9 810.2,133.2 812,133.2 	"/>
	<polygon class="st3" points="807.3,136.9 805.6,136.9 803.5,133.2 805.2,133.2 	"/>
	<polygon class="st3" points="800.6,136.9 798.9,136.9 796.8,133.2 798.5,133.2 	"/>
	<polygon class="st3" points="804,136.9 802.2,136.9 800.1,133.2 801.9,133.2 	"/>
	<polygon class="st3" points="797.2,136.9 795.5,136.9 793.4,133.2 795.1,133.2 	"/>
	<polygon class="st3" points="787.1,136.9 785.4,136.9 783.3,133.2 785,133.2 	"/>
	<polygon class="st3" points="793.9,136.9 792.1,136.9 790,133.2 791.8,133.2 	"/>
	<polygon class="st3" points="780.4,136.9 778.6,136.9 776.5,133.2 778.3,133.2 	"/>
	<polygon class="st3" points="766.9,136.9 765.2,136.9 763.1,133.2 764.8,133.2 	"/>
	<polygon class="st3" points="773.6,136.9 771.9,136.9 769.8,133.2 771.5,133.2 	"/>
	<polygon class="st3" points="760.2,136.9 758.4,136.9 756.3,133.2 758,133.2 	"/>
	<polygon class="st3" points="783.7,136.9 782,136.9 779.9,133.2 781.6,133.2 	"/>
	<polygon class="st3" points="790.5,136.9 788.8,136.9 786.6,133.2 788.4,133.2 	"/>
	<polygon class="st3" points="777,136.9 775.3,136.9 773.2,133.2 774.9,133.2 	"/>
	<polygon class="st3" points="763.5,136.9 761.8,136.9 759.7,133.2 761.4,133.2 	"/>
	<polygon class="st3" points="770.3,136.9 768.5,136.9 766.4,133.2 768.2,133.2 	"/>
	<polygon class="st3" points="756.8,136.9 755,136.9 752.9,133.2 754.7,133.2 	"/>
	<polygon class="st3" points="750,136.9 748.3,136.9 746.2,133.2 747.9,133.2 	"/>
	<polygon class="st3" points="753.4,136.9 751.7,136.9 749.6,133.2 751.3,133.2 	"/>
	<polygon class="st3" points="746.7,136.9 744.9,136.9 742.8,133.2 744.6,133.2 	"/>
	<polygon class="st3" points="739.9,136.9 738.2,136.9 736.1,133.2 737.8,133.2 	"/>
	<polygon class="st3" points="743.3,136.9 741.6,136.9 739.5,133.2 741.2,133.2 	"/>
	<polygon class="st3" points="736.6,136.9 734.8,136.9 732.7,133.2 734.5,133.2 	"/>
	<polygon class="st3" points="729.8,136.9 728.1,136.9 726,133.2 727.7,133.2 	"/>
	<polygon class="st3" points="733.2,136.9 731.4,136.9 729.3,133.2 731.1,133.2 	"/>
	<polygon class="st3" points="726.4,136.9 724.7,136.9 722.6,133.2 724.3,133.2 	"/>
	<polygon class="st3" points="719.7,136.9 718,136.9 715.9,133.2 717.6,133.2 	"/>
	<polygon class="st3" points="723.1,136.9 721.3,136.9 719.2,133.2 721,133.2 	"/>
	<polygon class="st3" points="716.3,136.9 714.6,136.9 712.5,133.2 714.2,133.2 	"/>
	<polygon class="st3" points="709.6,136.9 707.9,136.9 705.7,133.2 707.5,133.2 	"/>
	<polygon class="st3" points="713,136.9 711.2,136.9 709.1,133.2 710.9,133.2 	"/>
	<polygon class="st3" points="706.2,136.9 704.5,136.9 702.4,133.2 704.1,133.2 	"/>
	<polygon class="st3" points="699.5,136.9 697.7,136.9 695.6,133.2 697.4,133.2 	"/>
	<polygon class="st3" points="702.8,136.9 701.1,136.9 699,133.2 700.7,133.2 	"/>
	<polygon class="st3" points="696.1,136.9 694.4,136.9 692.3,133.2 694,133.2 	"/>
	<polygon class="st3" points="689.4,136.9 687.6,136.9 685.5,133.2 687.3,133.2 	"/>
	<polygon class="st3" points="692.7,136.9 691,136.9 688.9,133.2 690.6,133.2 	"/>
	<polygon class="st3" points="686,136.9 684.3,136.9 682.2,133.2 683.9,133.2 	"/>
	<polygon class="st3" points="679.3,136.9 677.5,136.9 675.4,133.2 677.1,133.2 	"/>
	<polygon class="st3" points="682.6,136.9 680.9,136.9 678.8,133.2 680.5,133.2 	"/>
	<polygon class="st3" points="675.9,136.9 674.1,136.9 672,133.2 673.8,133.2 	"/>
	<polygon class="st3" points="669.1,136.9 667.4,136.9 665.3,133.2 667,133.2 	"/>
	<polygon class="st3" points="672.5,136.9 670.8,136.9 668.7,133.2 670.4,133.2 	"/>
	<polygon class="st3" points="665.8,136.9 664,136.9 661.9,133.2 663.7,133.2 	"/>
	<polygon class="st3" points="659,136.9 657.3,136.9 655.2,133.2 656.9,133.2 	"/>
	<polygon class="st3" points="662.4,136.9 660.7,136.9 658.6,133.2 660.3,133.2 	"/>
	<polygon class="st3" points="655.7,136.9 653.9,136.9 651.8,133.2 653.6,133.2 	"/>
	<polygon class="st3" points="648.9,136.9 647.2,136.9 645.1,133.2 646.8,133.2 	"/>
	<polygon class="st3" points="652.3,136.9 650.5,136.9 648.4,133.2 650.2,133.2 	"/>
	<polygon class="st3" points="645.5,136.9 643.8,136.9 641.7,133.2 643.4,133.2 	"/>
	<polygon class="st3" points="638.8,136.9 637.1,136.9 635,133.2 636.7,133.2 	"/>
	<polygon class="st3" points="642.2,136.9 640.4,136.9 638.3,133.2 640.1,133.2 	"/>
	<polygon class="st3" points="635.4,136.9 633.7,136.9 631.6,133.2 633.3,133.2 	"/>
	<polygon class="st3" points="628.7,136.9 627,136.9 624.8,133.2 626.6,133.2 	"/>
	<polygon class="st3" points="632.1,136.9 630.3,136.9 628.2,133.2 630,133.2 	"/>
	<polygon class="st3" points="625.3,136.9 623.6,136.9 621.5,133.2 623.2,133.2 	"/>
	<polygon class="st3" points="618.6,136.9 616.8,136.9 614.7,133.2 616.5,133.2 	"/>
	<polygon class="st3" points="621.9,136.9 620.2,136.9 618.1,133.2 619.8,133.2 	"/>
	<polygon class="st3" points="615.2,136.9 613.5,136.9 611.4,133.2 613.1,133.2 	"/>
	<polygon class="st3" points="608.5,136.9 606.7,136.9 604.6,133.2 606.4,133.2 	"/>
	<polygon class="st3" points="611.8,136.9 610.1,136.9 608,133.2 609.7,133.2 	"/>
	<polygon class="st3" points="605.1,136.9 603.4,136.9 601.3,133.2 603,133.2 	"/>
	<polygon class="st3" points="598.4,136.9 596.6,136.9 594.5,133.2 596.2,133.2 	"/>
	<polygon class="st3" points="601.7,136.9 600,136.9 597.9,133.2 599.6,133.2 	"/>
	<polygon class="st3" points="595,136.9 593.2,136.9 591.1,133.2 592.9,133.2 	"/>
	<polygon class="st3" points="588.2,136.9 586.5,136.9 584.4,133.2 586.1,133.2 	"/>
	<polygon class="st3" points="591.6,136.9 589.9,136.9 587.8,133.2 589.5,133.2 	"/>
	<polygon class="st3" points="584.9,136.9 583.1,136.9 581,133.2 582.8,133.2 	"/>
	<polygon class="st3" points="578.1,136.9 576.4,136.9 574.3,133.2 576,133.2 	"/>
	<polygon class="st3" points="581.5,136.9 579.8,136.9 577.7,133.2 579.4,133.2 	"/>
	<polygon class="st3" points="574.8,136.9 573,136.9 570.9,133.2 572.7,133.2 	"/>
	<polygon class="st3" points="568,136.9 566.3,136.9 564.2,133.2 565.9,133.2 	"/>
	<polygon class="st3" points="571.4,136.9 569.6,136.9 567.5,133.2 569.3,133.2 	"/>
	<polygon class="st3" points="564.6,136.9 562.9,136.9 560.8,133.2 562.5,133.2 	"/>
	<polygon class="st3" points="557.9,136.9 556.2,136.9 554.1,133.2 555.8,133.2 	"/>
	<polygon class="st3" points="561.3,136.9 559.5,136.9 557.4,133.2 559.2,133.2 	"/>
	<polygon class="st3" points="554.5,136.9 552.8,136.9 550.7,133.2 552.4,133.2 	"/>
	<polygon class="st3" points="547.8,136.9 546.1,136.9 543.9,133.2 545.7,133.2 	"/>
	<polygon class="st3" points="551.2,136.9 549.4,136.9 547.3,133.2 549.1,133.2 	"/>
	<polygon class="st3" points="544.4,136.9 542.7,136.9 540.6,133.2 542.3,133.2 	"/>
	<polygon class="st3" points="537.7,136.9 535.9,136.9 533.8,133.2 535.6,133.2 	"/>
	<polygon class="st3" points="541.1,136.9 539.3,136.9 537.2,133.2 538.9,133.2 	"/>
	<polygon class="st3" points="534.3,136.9 532.6,136.9 530.5,133.2 532.2,133.2 	"/>
	<polygon class="st3" points="527.6,136.9 525.8,136.9 523.7,133.2 525.5,133.2 	"/>
	<polygon class="st3" points="530.9,136.9 529.2,136.9 527.1,133.2 528.8,133.2 	"/>
	<polygon class="st3" points="524.2,136.9 522.5,136.9 520.4,133.2 522.1,133.2 	"/>
	<polygon class="st3" points="517.5,136.9 515.7,136.9 513.6,133.2 515.4,133.2 	"/>
	<polygon class="st3" points="520.8,136.9 519.1,136.9 517,133.2 518.7,133.2 	"/>
	<polygon class="st3" points="514.1,136.9 512.3,136.9 510.2,133.2 512,133.2 	"/>
	<polygon class="st3" points="507.3,136.9 505.6,136.9 503.5,133.2 505.2,133.2 	"/>
	<polygon class="st3" points="510.7,136.9 509,136.9 506.9,133.2 508.6,133.2 	"/>
	<polygon class="st3" points="504,136.9 502.2,136.9 500.1,133.2 501.9,133.2 	"/>
	<polygon class="st3" points="497.2,136.9 495.5,136.9 493.4,133.2 495.1,133.2 	"/>
	<polygon class="st3" points="500.6,136.9 498.9,136.9 496.8,133.2 498.5,133.2 	"/>
	<polygon class="st3" points="493.9,136.9 492.1,136.9 490,133.2 491.8,133.2 	"/>
	<polygon class="st3" points="487.1,136.9 485.4,136.9 483.3,133.2 485,133.2 	"/>
	<polygon class="st3" points="490.5,136.9 488.7,136.9 486.6,133.2 488.4,133.2 	"/>
	<polygon class="st3" points="483.7,136.9 482,136.9 479.9,133.2 481.6,133.2 	"/>
	<polygon class="st3" points="477,136.9 475.3,136.9 473.2,133.2 474.9,133.2 	"/>
	<polygon class="st3" points="480.4,136.9 478.6,136.9 476.5,133.2 478.3,133.2 	"/>
	<polygon class="st3" points="473.6,136.9 471.9,136.9 469.8,133.2 471.5,133.2 	"/>
	<polygon class="st3" points="466.9,136.9 465.2,136.9 463,133.2 464.8,133.2 	"/>
	<polygon class="st3" points="470.3,136.9 468.5,136.9 466.4,133.2 468.2,133.2 	"/>
	<polygon class="st3" points="463.5,136.9 461.8,136.9 459.7,133.2 461.4,133.2 	"/>
	<polygon class="st3" points="456.8,136.9 455,136.9 452.9,133.2 454.7,133.2 	"/>
	<polygon class="st3" points="460.2,136.9 458.4,136.9 456.3,133.2 458,133.2 	"/>
	<polygon class="st3" points="453.4,136.9 451.7,136.9 449.6,133.2 451.3,133.2 	"/>
	<polygon class="st3" points="446.7,136.9 444.9,136.9 442.8,133.2 444.6,133.2 	"/>
	<polygon class="st3" points="450,136.9 448.3,136.9 446.2,133.2 447.9,133.2 	"/>
	<polygon class="st3" points="443.3,136.9 441.6,136.9 439.5,133.2 441.2,133.2 	"/>
	<polygon class="st3" points="436.6,136.9 434.8,136.9 432.7,133.2 434.5,133.2 	"/>
	<polygon class="st3" points="439.9,136.9 438.2,136.9 436.1,133.2 437.8,133.2 	"/>
	<polygon class="st3" points="433.2,136.9 431.4,136.9 429.3,133.2 431.1,133.2 	"/>
	<polygon class="st3" points="426.4,136.9 424.7,136.9 422.6,133.2 424.3,133.2 	"/>
	<polygon class="st3" points="429.8,136.9 428.1,136.9 426,133.2 427.7,133.2 	"/>
	<polygon class="st3" points="423.1,136.9 421.3,136.9 419.2,133.2 421,133.2 	"/>
	<polygon class="st3" points="416.3,136.9 414.6,136.9 412.5,133.2 414.2,133.2 	"/>
	<polygon class="st3" points="419.7,136.9 418,136.9 415.9,133.2 417.6,133.2 	"/>
	<polygon class="st3" points="413,136.9 411.2,136.9 409.1,133.2 410.9,133.2 	"/>
	<polygon class="st3" points="406.2,136.9 404.5,136.9 402.4,133.2 404.1,133.2 	"/>
	<polygon class="st3" points="409.6,136.9 407.9,136.9 405.7,133.2 407.5,133.2 	"/>
	<polygon class="st3" points="402.8,136.9 401.1,136.9 399,133.2 400.7,133.2 	"/>
	<polygon class="st3" points="396.1,136.9 394.4,136.9 392.3,133.2 394,133.2 	"/>
	<polygon class="st3" points="399.5,136.9 397.7,136.9 395.6,133.2 397.4,133.2 	"/>
	<polygon class="st3" points="392.7,136.9 391,136.9 388.9,133.2 390.6,133.2 	"/>
	<polygon class="st3" points="386,136.9 384.3,136.9 382.2,133.2 383.9,133.2 	"/>
	<polygon class="st3" points="389.4,136.9 387.6,136.9 385.5,133.2 387.3,133.2 	"/>
	<polygon class="st3" points="382.6,136.9 380.9,136.9 378.8,133.2 380.5,133.2 	"/>
	<polygon class="st3" points="375.9,136.9 374.1,136.9 372,133.2 373.8,133.2 	"/>
	<polygon class="st3" points="379.3,136.9 377.5,136.9 375.4,133.2 377.1,133.2 	"/>
	<polygon class="st3" points="372.5,136.9 370.8,136.9 368.7,133.2 370.4,133.2 	"/>
	<polygon class="st3" points="365.8,136.9 364,136.9 361.9,133.2 363.7,133.2 	"/>
	<polygon class="st3" points="369.1,136.9 367.4,136.9 365.3,133.2 367,133.2 	"/>
	<polygon class="st3" points="362.4,136.9 360.7,136.9 358.6,133.2 360.3,133.2 	"/>
	<polygon class="st3" points="355.7,136.9 353.9,136.9 351.8,133.2 353.6,133.2 	"/>
	<polygon class="st3" points="359,136.9 357.3,136.9 355.2,133.2 356.9,133.2 	"/>
	<polygon class="st3" points="352.3,136.9 350.5,136.9 348.4,133.2 350.2,133.2 	"/>
	<polygon class="st3" points="345.5,136.9 343.8,136.9 341.7,133.2 343.4,133.2 	"/>
	<polygon class="st3" points="348.9,136.9 347.2,136.9 345.1,133.2 346.8,133.2 	"/>
	<polygon class="st3" points="342.2,136.9 340.4,136.9 338.3,133.2 340.1,133.2 	"/>
	<polygon class="st3" points="335.4,136.9 333.7,136.9 331.6,133.2 333.3,133.2 	"/>
	<polygon class="st3" points="338.8,136.9 337.1,136.9 335,133.2 336.7,133.2 	"/>
	<polygon class="st3" points="332.1,136.9 330.3,136.9 328.2,133.2 330,133.2 	"/>
	<polygon class="st3" points="325.3,136.9 323.6,136.9 321.5,133.2 323.2,133.2 	"/>
	<polygon class="st3" points="328.7,136.9 327,136.9 324.8,133.2 326.6,133.2 	"/>
	<polygon class="st3" points="321.9,136.9 320.2,136.9 318.1,133.2 319.8,133.2 	"/>
	<polygon class="st3" points="315.2,136.9 313.5,136.9 311.4,133.2 313.1,133.2 	"/>
	<polygon class="st3" points="318.6,136.9 316.8,136.9 314.7,133.2 316.5,133.2 	"/>
	<polygon class="st3" points="311.8,136.9 310.1,136.9 308,133.2 309.7,133.2 	"/>
	<polygon class="st3" points="305.1,136.9 303.4,136.9 301.3,133.2 303,133.2 	"/>
	<polygon class="st3" points="308.5,136.9 306.7,136.9 304.6,133.2 306.4,133.2 	"/>
	<polygon class="st3" points="301.7,136.9 300,136.9 297.9,133.2 299.6,133.2 	"/>
	<polygon class="st3" points="295,136.9 293.2,136.9 291.1,133.2 292.9,133.2 	"/>
	<polygon class="st3" points="298.4,136.9 296.6,136.9 294.5,133.2 296.2,133.2 	"/>
	<polygon class="st3" points="291.6,136.9 289.9,136.9 287.8,133.2 289.5,133.2 	"/>
	<polygon class="st3" points="288.4,136.9 286.7,136.9 284.6,133.2 286.3,133.2 	"/>
	<polygon class="st3" points="285.1,136.9 283.3,136.9 281.2,133.2 283,133.2 	"/>
	<g>
		<g>
			<line class="st4" x1="863.1" y1="92.1" x2="863.1" y2="97.1"/>
			<line class="st4" x1="865.3" y1="94.2" x2="865.3" y2="97.1"/>
			<line class="st4" x1="867.6" y1="94.2" x2="867.6" y2="97.1"/>
			<line class="st4" x1="869.8" y1="94.2" x2="869.8" y2="97.1"/>
			<line class="st4" x1="872" y1="94.2" x2="872" y2="97.1"/>
			<line class="st4" x1="874.2" y1="94.2" x2="874.2" y2="97.1"/>
			<line class="st4" x1="876.4" y1="92.1" x2="876.4" y2="97.1"/>
			<line class="st4" x1="878.6" y1="94.2" x2="878.6" y2="97.1"/>
			<line class="st4" x1="880.8" y1="94.2" x2="880.8" y2="97.1"/>
			<line class="st4" x1="883" y1="94.2" x2="883" y2="97.1"/>
			<line class="st4" x1="885.2" y1="94.2" x2="885.2" y2="97.1"/>
			<line class="st4" x1="887.4" y1="94.2" x2="887.4" y2="97.1"/>
			<line class="st4" x1="889.6" y1="92.1" x2="889.6" y2="97.1"/>
			<line class="st4" x1="891.8" y1="94.2" x2="891.8" y2="97.1"/>
			<line class="st4" x1="894" y1="94.2" x2="894" y2="97.1"/>
			<line class="st4" x1="896.3" y1="94.2" x2="896.3" y2="97.1"/>
			<line class="st4" x1="898.5" y1="94.2" x2="898.5" y2="97.1"/>
			<line class="st4" x1="900.7" y1="94.2" x2="900.7" y2="97.1"/>
			<line class="st4" x1="902.9" y1="92.1" x2="902.9" y2="97.1"/>
			<line class="st4" x1="905.1" y1="94.2" x2="905.1" y2="97.1"/>
			<line class="st4" x1="907.3" y1="94.2" x2="907.3" y2="97.1"/>
			<line class="st4" x1="909.5" y1="94.2" x2="909.5" y2="97.1"/>
			<line class="st4" x1="911.7" y1="94.2" x2="911.7" y2="97.1"/>
			<line class="st4" x1="913.9" y1="94.2" x2="913.9" y2="97.1"/>
			<line class="st4" x1="916.1" y1="92.1" x2="916.1" y2="97.1"/>
			<line class="st4" x1="918.3" y1="94.2" x2="918.3" y2="97.1"/>
			<line class="st4" x1="920.5" y1="94.2" x2="920.5" y2="97.1"/>
			<line class="st4" x1="922.7" y1="94.2" x2="922.7" y2="97.1"/>
			<line class="st4" x1="924.9" y1="94.2" x2="924.9" y2="97.1"/>
			<line class="st4" x1="927.2" y1="94.2" x2="927.2" y2="97.1"/>
			<line class="st4" x1="929.3" y1="92.1" x2="929.3" y2="97.1"/>
			<line class="st4" x1="931.6" y1="94.2" x2="931.6" y2="97.1"/>
			<line class="st4" x1="933.8" y1="94.2" x2="933.8" y2="97.1"/>
			<line class="st4" x1="936" y1="94.2" x2="936" y2="97.1"/>
			<line class="st4" x1="938.2" y1="94.2" x2="938.2" y2="97.1"/>
			<line class="st4" x1="940.4" y1="94.2" x2="940.4" y2="97.1"/>
			<line class="st4" x1="942.6" y1="92.1" x2="942.6" y2="97.1"/>
			<line class="st4" x1="944.8" y1="94.2" x2="944.8" y2="97.1"/>
			<line class="st4" x1="947" y1="94.2" x2="947" y2="97.1"/>
			<line class="st4" x1="949.2" y1="94.2" x2="949.2" y2="97.1"/>
			<line class="st4" x1="951.4" y1="94.2" x2="951.4" y2="97.1"/>
			<line class="st4" x1="953.6" y1="94.2" x2="953.6" y2="97.1"/>
			<line class="st4" x1="955.8" y1="92.1" x2="955.8" y2="97.1"/>
			<line class="st4" x1="958" y1="94.2" x2="958" y2="97.1"/>
			<line class="st4" x1="960.2" y1="94.2" x2="960.2" y2="97.1"/>
			<line class="st4" x1="962.5" y1="94.2" x2="962.5" y2="97.1"/>
			<line class="st4" x1="964.7" y1="94.2" x2="964.7" y2="97.1"/>
			<line class="st4" x1="966.9" y1="94.2" x2="966.9" y2="97.1"/>
			<line class="st4" x1="969.1" y1="92.1" x2="969.1" y2="97.1"/>
			<line class="st4" x1="971.3" y1="94.2" x2="971.3" y2="97.1"/>
			<line class="st4" x1="973.5" y1="94.2" x2="973.5" y2="97.1"/>
			<line class="st4" x1="975.7" y1="94.2" x2="975.7" y2="97.1"/>
			<line class="st4" x1="977.9" y1="94.2" x2="977.9" y2="97.1"/>
			<line class="st4" x1="980.1" y1="94.2" x2="980.1" y2="97.1"/>
			<line class="st4" x1="982.3" y1="92.1" x2="982.3" y2="97.1"/>
			<line class="st4" x1="984.5" y1="94.2" x2="984.5" y2="97.1"/>
			<line class="st4" x1="986.7" y1="94.2" x2="986.7" y2="97.1"/>
			<line class="st4" x1="988.9" y1="94.2" x2="988.9" y2="97.1"/>
			<line class="st4" x1="991.1" y1="94.2" x2="991.1" y2="97.1"/>
			<line class="st4" x1="993.4" y1="94.2" x2="993.4" y2="97.1"/>
			<line class="st4" x1="995.5" y1="92.1" x2="995.5" y2="97.1"/>
			<line class="st4" x1="997.8" y1="94.2" x2="997.8" y2="97.1"/>
			<line class="st4" x1="1000" y1="94.2" x2="1000" y2="97.1"/>
			<line class="st4" x1="1002.2" y1="94.2" x2="1002.2" y2="97.1"/>
			<line class="st4" x1="1004.4" y1="94.2" x2="1004.4" y2="97.1"/>
			<line class="st4" x1="1006.6" y1="94.2" x2="1006.6" y2="97.1"/>
			<line class="st4" x1="1008.8" y1="92.1" x2="1008.8" y2="97.1"/>
			<line class="st4" x1="1011" y1="94.2" x2="1011" y2="97.1"/>
			<line class="st4" x1="1013.2" y1="94.2" x2="1013.2" y2="97.1"/>
			<line class="st4" x1="1015.4" y1="94.2" x2="1015.4" y2="97.1"/>
			<line class="st4" x1="1017.6" y1="94.2" x2="1017.6" y2="97.1"/>
			<line class="st4" x1="1019.8" y1="94.2" x2="1019.8" y2="97.1"/>
			<line class="st4" x1="1022" y1="92.1" x2="1022" y2="97.1"/>
			<line class="st4" x1="1024.2" y1="94.2" x2="1024.2" y2="97.1"/>
			<line class="st4" x1="1026.5" y1="94.2" x2="1026.5" y2="97.1"/>
			<line class="st4" x1="1028.7" y1="94.2" x2="1028.7" y2="97.1"/>
			<line class="st4" x1="1030.9" y1="94.2" x2="1030.9" y2="97.1"/>
			<line class="st4" x1="1033.1" y1="94.2" x2="1033.1" y2="97.1"/>
			<line class="st4" x1="1035.3" y1="92.1" x2="1035.3" y2="97.1"/>
			<line class="st4" x1="1037.5" y1="94.2" x2="1037.5" y2="97.1"/>
			<line class="st4" x1="1039.7" y1="94.2" x2="1039.7" y2="97.1"/>
			<line class="st4" x1="1041.9" y1="94.2" x2="1041.9" y2="97.1"/>
			<line class="st4" x1="1044.1" y1="94.2" x2="1044.1" y2="97.1"/>
			<line class="st4" x1="1046.3" y1="94.2" x2="1046.3" y2="97.1"/>
			<line class="st4" x1="1048.5" y1="92.1" x2="1048.5" y2="97.1"/>
			<line class="st4" x1="1050.7" y1="94.2" x2="1050.7" y2="97.1"/>
			<line class="st4" x1="1052.9" y1="94.2" x2="1052.9" y2="97.1"/>
			<line class="st4" x1="1055.1" y1="94.2" x2="1055.1" y2="97.1"/>
			<line class="st4" x1="1057.4" y1="94.2" x2="1057.4" y2="97.1"/>
			<line class="st4" x1="1059.6" y1="94.2" x2="1059.6" y2="97.1"/>
			<line class="st4" x1="1061.8" y1="92.1" x2="1061.8" y2="97.1"/>
			<line class="st4" x1="1064" y1="94.2" x2="1064" y2="97.1"/>
			<line class="st4" x1="1066.2" y1="94.2" x2="1066.2" y2="97.1"/>
			<line class="st4" x1="1068.4" y1="94.2" x2="1068.4" y2="97.1"/>
			<line class="st4" x1="1070.6" y1="94.2" x2="1070.6" y2="97.1"/>
			<line class="st4" x1="1072.8" y1="94.2" x2="1072.8" y2="97.1"/>
			<line class="st4" x1="1075" y1="92.1" x2="1075" y2="97.1"/>
			<line class="st4" x1="1077.2" y1="94.2" x2="1077.2" y2="97.1"/>
			<line class="st4" x1="1079.4" y1="94.2" x2="1079.4" y2="97.1"/>
			<line class="st4" x1="1081.6" y1="94.2" x2="1081.6" y2="97.1"/>
			<line class="st4" x1="1083.8" y1="94.2" x2="1083.8" y2="97.1"/>
			<line class="st4" x1="1086" y1="94.2" x2="1086" y2="97.1"/>
			<line class="st4" x1="1088.2" y1="92.1" x2="1088.2" y2="97.1"/>
			<line class="st4" x1="1090.4" y1="94.2" x2="1090.4" y2="97.1"/>
			<line class="st4" x1="1092.7" y1="94.2" x2="1092.7" y2="97.1"/>
			<line class="st4" x1="1094.9" y1="94.2" x2="1094.9" y2="97.1"/>
			<line class="st4" x1="1097.1" y1="94.2" x2="1097.1" y2="97.1"/>
			<line class="st4" x1="1099.3" y1="94.2" x2="1099.3" y2="97.1"/>
			<line class="st4" x1="1101.5" y1="92.1" x2="1101.5" y2="97.1"/>
			<line class="st4" x1="1103.7" y1="94.2" x2="1103.7" y2="97.1"/>
			<line class="st4" x1="1105.9" y1="94.2" x2="1105.9" y2="97.1"/>
			<line class="st4" x1="1108.1" y1="94.2" x2="1108.1" y2="97.1"/>
			<line class="st4" x1="1110.3" y1="94.2" x2="1110.3" y2="97.1"/>
			<line class="st4" x1="1112.5" y1="94.2" x2="1112.5" y2="97.1"/>
			<line class="st4" x1="1114.7" y1="92.1" x2="1114.7" y2="97.1"/>
			<line class="st4" x1="1116.9" y1="94.2" x2="1116.9" y2="97.1"/>
			<line class="st4" x1="1119.1" y1="94.2" x2="1119.1" y2="97.1"/>
			<line class="st4" x1="1121.4" y1="94.2" x2="1121.4" y2="97.1"/>
			<line class="st4" x1="1123.6" y1="94.2" x2="1123.6" y2="97.1"/>
			<line class="st4" x1="1125.8" y1="94.2" x2="1125.8" y2="97.1"/>
		</g>
		<g>
			<line class="st4" x1="1794.9" y1="92.5" x2="1794.9" y2="97.5"/>
			<line class="st4" x1="1797.2" y1="94.6" x2="1797.2" y2="97.5"/>
			<line class="st4" x1="1799.4" y1="94.6" x2="1799.4" y2="97.5"/>
			<line class="st4" x1="1801.6" y1="94.6" x2="1801.6" y2="97.5"/>
			<line class="st4" x1="1803.8" y1="94.6" x2="1803.8" y2="97.5"/>
			<line class="st4" x1="1806" y1="94.6" x2="1806" y2="97.5"/>
			<line class="st4" x1="1808.2" y1="92.5" x2="1808.2" y2="97.5"/>
			<line class="st4" x1="1810.4" y1="94.6" x2="1810.4" y2="97.5"/>
			<line class="st4" x1="1812.6" y1="94.6" x2="1812.6" y2="97.5"/>
			<line class="st4" x1="1814.8" y1="94.6" x2="1814.8" y2="97.5"/>
			<line class="st4" x1="1817" y1="94.6" x2="1817" y2="97.5"/>
			<line class="st4" x1="1819.2" y1="94.6" x2="1819.2" y2="97.5"/>
			<line class="st4" x1="1821.4" y1="92.5" x2="1821.4" y2="97.5"/>
			<line class="st4" x1="1823.6" y1="94.6" x2="1823.6" y2="97.5"/>
			<line class="st4" x1="1825.8" y1="94.6" x2="1825.8" y2="97.5"/>
			<line class="st4" x1="1828.1" y1="94.6" x2="1828.1" y2="97.5"/>
			<line class="st4" x1="1830.3" y1="94.6" x2="1830.3" y2="97.5"/>
			<line class="st4" x1="1832.5" y1="94.6" x2="1832.5" y2="97.5"/>
			<line class="st4" x1="1834.7" y1="92.5" x2="1834.7" y2="97.5"/>
			<line class="st4" x1="1836.9" y1="94.6" x2="1836.9" y2="97.5"/>
			<line class="st4" x1="1839.1" y1="94.6" x2="1839.1" y2="97.5"/>
			<line class="st4" x1="1841.3" y1="94.6" x2="1841.3" y2="97.5"/>
			<line class="st4" x1="1843.5" y1="94.6" x2="1843.5" y2="97.5"/>
			<line class="st4" x1="1845.7" y1="94.6" x2="1845.7" y2="97.5"/>
			<line class="st4" x1="1847.9" y1="92.5" x2="1847.9" y2="97.5"/>
			<line class="st4" x1="1850.1" y1="94.6" x2="1850.1" y2="97.5"/>
			<line class="st4" x1="1852.3" y1="94.6" x2="1852.3" y2="97.5"/>
			<line class="st4" x1="1854.5" y1="94.6" x2="1854.5" y2="97.5"/>
			<line class="st4" x1="1856.7" y1="94.6" x2="1856.7" y2="97.5"/>
			<line class="st4" x1="1859" y1="94.6" x2="1859" y2="97.5"/>
			<line class="st4" x1="1861.1" y1="92.5" x2="1861.1" y2="97.5"/>
			<line class="st4" x1="1863.4" y1="94.6" x2="1863.4" y2="97.5"/>
			<line class="st4" x1="1865.6" y1="94.6" x2="1865.6" y2="97.5"/>
			<line class="st4" x1="1867.8" y1="94.6" x2="1867.8" y2="97.5"/>
			<line class="st4" x1="1870" y1="94.6" x2="1870" y2="97.5"/>
			<line class="st4" x1="1872.2" y1="94.6" x2="1872.2" y2="97.5"/>
			<line class="st4" x1="1874.4" y1="92.5" x2="1874.4" y2="97.5"/>
			<line class="st4" x1="1876.6" y1="94.6" x2="1876.6" y2="97.5"/>
			<line class="st4" x1="1878.8" y1="94.6" x2="1878.8" y2="97.5"/>
			<line class="st4" x1="1881" y1="94.6" x2="1881" y2="97.5"/>
			<line class="st4" x1="1883.2" y1="94.6" x2="1883.2" y2="97.5"/>
			<line class="st4" x1="1885.4" y1="94.6" x2="1885.4" y2="97.5"/>
			<line class="st4" x1="1887.6" y1="92.5" x2="1887.6" y2="97.5"/>
			<line class="st4" x1="1889.8" y1="94.6" x2="1889.8" y2="97.5"/>
			<line class="st4" x1="1892.1" y1="94.6" x2="1892.1" y2="97.5"/>
			<line class="st4" x1="1894.3" y1="94.6" x2="1894.3" y2="97.5"/>
			<line class="st4" x1="1896.5" y1="94.6" x2="1896.5" y2="97.5"/>
			<line class="st4" x1="1898.7" y1="94.6" x2="1898.7" y2="97.5"/>
			<line class="st4" x1="1900.9" y1="92.5" x2="1900.9" y2="97.5"/>
			<line class="st4" x1="1903.1" y1="94.6" x2="1903.1" y2="97.5"/>
			<line class="st4" x1="1905.3" y1="94.6" x2="1905.3" y2="97.5"/>
			<line class="st4" x1="1907.5" y1="94.6" x2="1907.5" y2="97.5"/>
			<line class="st4" x1="1909.7" y1="94.6" x2="1909.7" y2="97.5"/>
			<line class="st4" x1="1911.9" y1="94.6" x2="1911.9" y2="97.5"/>
			<line class="st4" x1="1914.1" y1="92.5" x2="1914.1" y2="97.5"/>
			<line class="st4" x1="1916.3" y1="94.6" x2="1916.3" y2="97.5"/>
			<line class="st4" x1="1918.5" y1="94.6" x2="1918.5" y2="97.5"/>
			<line class="st4" x1="1920.7" y1="94.6" x2="1920.7" y2="97.5"/>
			<line class="st4" x1="1923" y1="94.6" x2="1923" y2="97.5"/>
			<line class="st4" x1="1925.2" y1="94.6" x2="1925.2" y2="97.5"/>
			<line class="st4" x1="1927.4" y1="92.5" x2="1927.4" y2="97.5"/>
			<line class="st4" x1="1929.6" y1="94.6" x2="1929.6" y2="97.5"/>
			<line class="st4" x1="1931.8" y1="94.6" x2="1931.8" y2="97.5"/>
			<line class="st4" x1="1934" y1="94.6" x2="1934" y2="97.5"/>
			<line class="st4" x1="1936.2" y1="94.6" x2="1936.2" y2="97.5"/>
			<line class="st4" x1="1938.4" y1="94.6" x2="1938.4" y2="97.5"/>
			<line class="st4" x1="1940.6" y1="92.5" x2="1940.6" y2="97.5"/>
			<line class="st4" x1="1942.8" y1="94.6" x2="1942.8" y2="97.5"/>
			<line class="st4" x1="1945" y1="94.6" x2="1945" y2="97.5"/>
			<line class="st4" x1="1947.2" y1="94.6" x2="1947.2" y2="97.5"/>
			<line class="st4" x1="1949.4" y1="94.6" x2="1949.4" y2="97.5"/>
			<line class="st4" x1="1951.6" y1="94.6" x2="1951.6" y2="97.5"/>
			<line class="st4" x1="1953.8" y1="92.5" x2="1953.8" y2="97.5"/>
			<line class="st4" x1="1956" y1="94.6" x2="1956" y2="97.5"/>
			<line class="st4" x1="1958.3" y1="94.6" x2="1958.3" y2="97.5"/>
			<line class="st4" x1="1960.5" y1="94.6" x2="1960.5" y2="97.5"/>
			<line class="st4" x1="1962.7" y1="94.6" x2="1962.7" y2="97.5"/>
			<line class="st4" x1="1964.9" y1="94.6" x2="1964.9" y2="97.5"/>
			<line class="st4" x1="1967.1" y1="92.5" x2="1967.1" y2="97.5"/>
			<line class="st4" x1="1969.3" y1="94.6" x2="1969.3" y2="97.5"/>
			<line class="st4" x1="1971.5" y1="94.6" x2="1971.5" y2="97.5"/>
			<line class="st4" x1="1973.7" y1="94.6" x2="1973.7" y2="97.5"/>
			<line class="st4" x1="1975.9" y1="94.6" x2="1975.9" y2="97.5"/>
			<line class="st4" x1="1978.1" y1="94.6" x2="1978.1" y2="97.5"/>
			<line class="st4" x1="1980.3" y1="92.5" x2="1980.3" y2="97.5"/>
			<line class="st4" x1="1982.5" y1="94.6" x2="1982.5" y2="97.5"/>
			<line class="st4" x1="1984.7" y1="94.6" x2="1984.7" y2="97.5"/>
			<line class="st4" x1="1986.9" y1="94.6" x2="1986.9" y2="97.5"/>
			<line class="st4" x1="1989.2" y1="94.6" x2="1989.2" y2="97.5"/>
			<line class="st4" x1="1991.4" y1="94.6" x2="1991.4" y2="97.5"/>
			<line class="st4" x1="1993.6" y1="92.5" x2="1993.6" y2="97.5"/>
			<line class="st4" x1="1995.8" y1="94.6" x2="1995.8" y2="97.5"/>
			<line class="st4" x1="1998" y1="94.6" x2="1998" y2="97.5"/>
			<line class="st4" x1="2000.2" y1="94.6" x2="2000.2" y2="97.5"/>
			<line class="st4" x1="2002.4" y1="94.6" x2="2002.4" y2="97.5"/>
			<line class="st4" x1="2004.6" y1="94.6" x2="2004.6" y2="97.5"/>
			<line class="st4" x1="2006.8" y1="92.5" x2="2006.8" y2="97.5"/>
			<line class="st4" x1="2009" y1="94.6" x2="2009" y2="97.5"/>
			<line class="st4" x1="2011.2" y1="94.6" x2="2011.2" y2="97.5"/>
			<line class="st4" x1="2013.4" y1="94.6" x2="2013.4" y2="97.5"/>
			<line class="st4" x1="2015.6" y1="94.6" x2="2015.6" y2="97.5"/>
			<line class="st4" x1="2017.9" y1="94.6" x2="2017.9" y2="97.5"/>
			<line class="st4" x1="2020" y1="92.5" x2="2020" y2="97.5"/>
			<line class="st4" x1="2022.3" y1="94.6" x2="2022.3" y2="97.5"/>
			<line class="st4" x1="2024.5" y1="94.6" x2="2024.5" y2="97.5"/>
			<line class="st4" x1="2026.7" y1="94.6" x2="2026.7" y2="97.5"/>
			<line class="st4" x1="2028.9" y1="94.6" x2="2028.9" y2="97.5"/>
			<line class="st4" x1="2031.1" y1="94.6" x2="2031.1" y2="97.5"/>
			<line class="st4" x1="2033.3" y1="92.5" x2="2033.3" y2="97.5"/>
			<line class="st4" x1="2035.5" y1="94.6" x2="2035.5" y2="97.5"/>
			<line class="st4" x1="2037.7" y1="94.6" x2="2037.7" y2="97.5"/>
			<line class="st4" x1="2039.9" y1="94.6" x2="2039.9" y2="97.5"/>
			<line class="st4" x1="2042.1" y1="94.6" x2="2042.1" y2="97.5"/>
			<line class="st4" x1="2044.3" y1="94.6" x2="2044.3" y2="97.5"/>
			<line class="st4" x1="2046.5" y1="92.5" x2="2046.5" y2="97.5"/>
			<line class="st4" x1="2048.7" y1="94.6" x2="2048.7" y2="97.5"/>
			<line class="st4" x1="2050.9" y1="94.6" x2="2050.9" y2="97.5"/>
			<line class="st4" x1="2053.2" y1="94.6" x2="2053.2" y2="97.5"/>
			<line class="st4" x1="2055.4" y1="94.6" x2="2055.4" y2="97.5"/>
			<line class="st4" x1="2057.6" y1="94.6" x2="2057.6" y2="97.5"/>
		</g>
		<g>
			<line class="st4" x1="1164.2" y1="105.7" x2="1164.2" y2="115.1"/>
			<line class="st4" x1="1166.4" y1="109.7" x2="1166.4" y2="115.1"/>
			<line class="st4" x1="1168.5" y1="109.7" x2="1168.5" y2="115.1"/>
			<line class="st4" x1="1170.7" y1="109.7" x2="1170.7" y2="115.1"/>
			<line class="st4" x1="1172.8" y1="109.7" x2="1172.8" y2="115.1"/>
			<line class="st4" x1="1155.5" y1="109.7" x2="1155.5" y2="115.1"/>
			<line class="st4" x1="1157.7" y1="109.7" x2="1157.7" y2="115.1"/>
			<line class="st4" x1="1159.8" y1="109.7" x2="1159.8" y2="115.1"/>
			<line class="st4" x1="1162" y1="109.7" x2="1162" y2="115.1"/>
			<line class="st4" x1="1175" y1="105.7" x2="1175" y2="115.1"/>
			<line class="st4" x1="1177.2" y1="109.7" x2="1177.2" y2="115.1"/>
			<line class="st4" x1="1179.3" y1="109.7" x2="1179.3" y2="115.1"/>
			<line class="st4" x1="1181.5" y1="109.7" x2="1181.5" y2="115.1"/>
			<line class="st4" x1="1183.6" y1="109.7" x2="1183.6" y2="115.1"/>
			<line class="st4" x1="1185.8" y1="105.7" x2="1185.8" y2="115.1"/>
			<line class="st4" x1="1187.9" y1="109.7" x2="1187.9" y2="115.1"/>
			<line class="st4" x1="1190.1" y1="109.7" x2="1190.1" y2="115.1"/>
			<line class="st4" x1="1192.2" y1="109.7" x2="1192.2" y2="115.1"/>
			<line class="st4" x1="1194.4" y1="109.7" x2="1194.4" y2="115.1"/>
			<line class="st4" x1="1196.5" y1="105.7" x2="1196.5" y2="115.1"/>
			<line class="st4" x1="1198.7" y1="109.7" x2="1198.7" y2="115.1"/>
			<line class="st4" x1="1200.8" y1="109.7" x2="1200.8" y2="115.1"/>
			<line class="st4" x1="1203" y1="109.7" x2="1203" y2="115.1"/>
			<line class="st4" x1="1205.1" y1="109.7" x2="1205.1" y2="115.1"/>
			<line class="st4" x1="1207.4" y1="105.7" x2="1207.4" y2="115.1"/>
			<line class="st4" x1="1209.6" y1="109.7" x2="1209.6" y2="115.1"/>
			<line class="st4" x1="1211.8" y1="109.7" x2="1211.8" y2="115.1"/>
			<line class="st4" x1="1214" y1="109.7" x2="1214" y2="115.1"/>
			<line class="st4" x1="1216.2" y1="109.7" x2="1216.2" y2="115.1"/>
			<line class="st4" x1="1218.4" y1="109.7" x2="1218.4" y2="115.1"/>
			<line class="st4" x1="1220.6" y1="105.7" x2="1220.6" y2="115.1"/>
			<line class="st4" x1="1222.8" y1="109.7" x2="1222.8" y2="115.1"/>
			<line class="st4" x1="1225" y1="109.7" x2="1225" y2="115.1"/>
			<line class="st4" x1="1227.2" y1="109.7" x2="1227.2" y2="115.1"/>
			<line class="st4" x1="1229.5" y1="109.7" x2="1229.5" y2="115.1"/>
			<line class="st4" x1="1231.7" y1="109.7" x2="1231.7" y2="115.1"/>
			<line class="st4" x1="1233.9" y1="105.7" x2="1233.9" y2="115.1"/>
			<line class="st4" x1="1236.1" y1="109.7" x2="1236.1" y2="115.1"/>
			<line class="st4" x1="1238.3" y1="109.7" x2="1238.3" y2="115.1"/>
			<line class="st4" x1="1240.5" y1="109.7" x2="1240.5" y2="115.1"/>
			<line class="st4" x1="1242.7" y1="109.7" x2="1242.7" y2="115.1"/>
			<line class="st4" x1="1244.9" y1="109.7" x2="1244.9" y2="115.1"/>
			<line class="st4" x1="1247.1" y1="105.7" x2="1247.1" y2="115.1"/>
			<line class="st4" x1="1249.3" y1="109.7" x2="1249.3" y2="115.1"/>
			<line class="st4" x1="1251.5" y1="109.7" x2="1251.5" y2="115.1"/>
			<line class="st4" x1="1253.8" y1="109.7" x2="1253.8" y2="115.1"/>
			<line class="st4" x1="1256" y1="109.7" x2="1256" y2="115.1"/>
			<line class="st4" x1="1258.2" y1="109.7" x2="1258.2" y2="115.1"/>
			<line class="st4" x1="1260.4" y1="105.7" x2="1260.4" y2="115.1"/>
			<line class="st4" x1="1262.6" y1="109.7" x2="1262.6" y2="115.1"/>
			<line class="st4" x1="1264.8" y1="109.7" x2="1264.8" y2="115.1"/>
			<line class="st4" x1="1267" y1="109.7" x2="1267" y2="115.1"/>
			<line class="st4" x1="1269.2" y1="109.7" x2="1269.2" y2="115.1"/>
			<line class="st4" x1="1271.4" y1="109.7" x2="1271.4" y2="115.1"/>
			<line class="st4" x1="1273.6" y1="105.7" x2="1273.6" y2="115.1"/>
			<line class="st4" x1="1275.8" y1="109.7" x2="1275.8" y2="115.1"/>
			<line class="st4" x1="1278.1" y1="109.7" x2="1278.1" y2="115.1"/>
			<line class="st4" x1="1280.3" y1="109.7" x2="1280.3" y2="115.1"/>
			<line class="st4" x1="1282.5" y1="109.7" x2="1282.5" y2="115.1"/>
			<line class="st4" x1="1284.7" y1="109.7" x2="1284.7" y2="115.1"/>
			<line class="st4" x1="1286.9" y1="105.7" x2="1286.9" y2="115.1"/>
			<line class="st4" x1="1289.1" y1="109.7" x2="1289.1" y2="115.1"/>
			<line class="st4" x1="1291.3" y1="109.7" x2="1291.3" y2="115.1"/>
			<line class="st4" x1="1293.5" y1="109.7" x2="1293.5" y2="115.1"/>
			<line class="st4" x1="1295.7" y1="109.7" x2="1295.7" y2="115.1"/>
			<line class="st4" x1="1297.9" y1="109.7" x2="1297.9" y2="115.1"/>
			<line class="st4" x1="1300.1" y1="105.7" x2="1300.1" y2="115.1"/>
			<line class="st4" x1="1302.4" y1="109.7" x2="1302.4" y2="115.1"/>
			<line class="st4" x1="1304.6" y1="109.7" x2="1304.6" y2="115.1"/>
			<line class="st4" x1="1306.8" y1="109.7" x2="1306.8" y2="115.1"/>
			<line class="st4" x1="1309" y1="109.7" x2="1309" y2="115.1"/>
			<line class="st4" x1="1311.2" y1="109.7" x2="1311.2" y2="115.1"/>
			<line class="st4" x1="1313.4" y1="105.7" x2="1313.4" y2="115.1"/>
			<line class="st4" x1="1315.6" y1="109.7" x2="1315.6" y2="115.1"/>
			<line class="st4" x1="1317.8" y1="109.7" x2="1317.8" y2="115.1"/>
			<line class="st4" x1="1320" y1="109.7" x2="1320" y2="115.1"/>
			<line class="st4" x1="1322.2" y1="109.7" x2="1322.2" y2="115.1"/>
			<line class="st4" x1="1324.5" y1="109.7" x2="1324.5" y2="115.1"/>
			<line class="st4" x1="1326.7" y1="105.7" x2="1326.7" y2="115.1"/>
			<line class="st4" x1="1328.9" y1="109.7" x2="1328.9" y2="115.1"/>
			<line class="st4" x1="1331.1" y1="109.7" x2="1331.1" y2="115.1"/>
			<line class="st4" x1="1333.3" y1="109.7" x2="1333.3" y2="115.1"/>
			<line class="st4" x1="1335.5" y1="109.7" x2="1335.5" y2="115.1"/>
			<line class="st4" x1="1337.7" y1="109.7" x2="1337.7" y2="115.1"/>
			<line class="st4" x1="1339.9" y1="105.7" x2="1339.9" y2="115.1"/>
			<line class="st4" x1="1342.1" y1="109.7" x2="1342.1" y2="115.1"/>
			<line class="st4" x1="1344.3" y1="109.7" x2="1344.3" y2="115.1"/>
			<line class="st4" x1="1346.5" y1="109.7" x2="1346.5" y2="115.1"/>
			<line class="st4" x1="1348.8" y1="109.7" x2="1348.8" y2="115.1"/>
			<line class="st4" x1="1351" y1="109.7" x2="1351" y2="115.1"/>
			<line class="st4" x1="1353.2" y1="105.7" x2="1353.2" y2="115.1"/>
			<line class="st4" x1="1355.4" y1="109.7" x2="1355.4" y2="115.1"/>
			<line class="st4" x1="1357.6" y1="109.7" x2="1357.6" y2="115.1"/>
			<line class="st4" x1="1359.8" y1="109.7" x2="1359.8" y2="115.1"/>
			<line class="st4" x1="1362" y1="109.7" x2="1362" y2="115.1"/>
			<line class="st4" x1="1364.2" y1="109.7" x2="1364.2" y2="115.1"/>
			<line class="st4" x1="1366.4" y1="105.7" x2="1366.4" y2="115.1"/>
			<line class="st4" x1="1368.6" y1="109.7" x2="1368.6" y2="115.1"/>
			<line class="st4" x1="1370.8" y1="109.7" x2="1370.8" y2="115.1"/>
			<line class="st4" x1="1373.1" y1="109.7" x2="1373.1" y2="115.1"/>
			<line class="st4" x1="1375.3" y1="109.7" x2="1375.3" y2="115.1"/>
			<line class="st4" x1="1377.5" y1="109.7" x2="1377.5" y2="115.1"/>
			<line class="st4" x1="1379.7" y1="105.7" x2="1379.7" y2="115.1"/>
			<line class="st4" x1="1381.9" y1="109.7" x2="1381.9" y2="115.1"/>
			<line class="st4" x1="1384.1" y1="109.7" x2="1384.1" y2="115.1"/>
			<line class="st4" x1="1386.3" y1="109.7" x2="1386.3" y2="115.1"/>
			<line class="st4" x1="1388.5" y1="109.7" x2="1388.5" y2="115.1"/>
			<line class="st4" x1="1390.7" y1="109.7" x2="1390.7" y2="115.1"/>
			<line class="st4" x1="1392.9" y1="105.7" x2="1392.9" y2="115.1"/>
			<line class="st4" x1="1395.1" y1="109.7" x2="1395.1" y2="115.1"/>
			<line class="st4" x1="1397.4" y1="109.7" x2="1397.4" y2="115.1"/>
			<line class="st4" x1="1399.6" y1="109.7" x2="1399.6" y2="115.1"/>
			<line class="st4" x1="1401.8" y1="109.7" x2="1401.8" y2="115.1"/>
			<line class="st4" x1="1404" y1="109.7" x2="1404" y2="115.1"/>
			<line class="st4" x1="1406.2" y1="105.7" x2="1406.2" y2="115.1"/>
			<line class="st4" x1="1408.4" y1="109.7" x2="1408.4" y2="115.1"/>
			<line class="st4" x1="1410.6" y1="109.7" x2="1410.6" y2="115.1"/>
			<line class="st4" x1="1412.8" y1="109.7" x2="1412.8" y2="115.1"/>
			<line class="st4" x1="1415" y1="109.7" x2="1415" y2="115.1"/>
			<line class="st4" x1="1417.2" y1="109.7" x2="1417.2" y2="115.1"/>
			<line class="st4" x1="1419.4" y1="105.7" x2="1419.4" y2="115.1"/>
			<line class="st4" x1="1421.7" y1="109.7" x2="1421.7" y2="115.1"/>
			<line class="st4" x1="1423.9" y1="109.7" x2="1423.9" y2="115.1"/>
			<line class="st4" x1="1426.1" y1="109.7" x2="1426.1" y2="115.1"/>
			<line class="st4" x1="1428.3" y1="109.7" x2="1428.3" y2="115.1"/>
			<line class="st4" x1="1430.5" y1="109.7" x2="1430.5" y2="115.1"/>
			<line class="st4" x1="1432.7" y1="105.7" x2="1432.7" y2="115.1"/>
			<line class="st4" x1="1434.9" y1="109.7" x2="1434.9" y2="115.1"/>
			<line class="st4" x1="1437.1" y1="109.7" x2="1437.1" y2="115.1"/>
			<line class="st4" x1="1439.3" y1="109.7" x2="1439.3" y2="115.1"/>
			<line class="st4" x1="1441.5" y1="109.7" x2="1441.5" y2="115.1"/>
			<line class="st4" x1="1443.7" y1="109.7" x2="1443.7" y2="115.1"/>
			<line class="st4" x1="1446" y1="105.7" x2="1446" y2="115.1"/>
			<line class="st4" x1="1448.2" y1="109.7" x2="1448.2" y2="115.1"/>
			<line class="st4" x1="1450.4" y1="109.7" x2="1450.4" y2="115.1"/>
			<line class="st4" x1="1452.6" y1="109.7" x2="1452.6" y2="115.1"/>
			<line class="st4" x1="1454.8" y1="109.7" x2="1454.8" y2="115.1"/>
			<line class="st4" x1="1457" y1="109.7" x2="1457" y2="115.1"/>
			<line class="st4" x1="1459.2" y1="105.7" x2="1459.2" y2="115.1"/>
			<line class="st4" x1="1461.4" y1="109.7" x2="1461.4" y2="115.1"/>
			<line class="st4" x1="1463.6" y1="109.7" x2="1463.6" y2="115.1"/>
			<line class="st4" x1="1465.8" y1="109.7" x2="1465.8" y2="115.1"/>
			<line class="st4" x1="1468" y1="109.7" x2="1468" y2="115.1"/>
			<line class="st4" x1="1470.3" y1="109.7" x2="1470.3" y2="115.1"/>
			<line class="st4" x1="1472.5" y1="105.7" x2="1472.5" y2="115.1"/>
			<line class="st4" x1="1474.7" y1="109.7" x2="1474.7" y2="115.1"/>
			<line class="st4" x1="1476.9" y1="109.7" x2="1476.9" y2="115.1"/>
			<line class="st4" x1="1479.1" y1="109.7" x2="1479.1" y2="115.1"/>
			<line class="st4" x1="1481.3" y1="109.7" x2="1481.3" y2="115.1"/>
			<line class="st4" x1="1483.5" y1="109.7" x2="1483.5" y2="115.1"/>
			<line class="st4" x1="1485.7" y1="105.7" x2="1485.7" y2="115.1"/>
			<line class="st4" x1="1487.9" y1="109.7" x2="1487.9" y2="115.1"/>
			<line class="st4" x1="1490.1" y1="109.7" x2="1490.1" y2="115.1"/>
			<line class="st4" x1="1492.3" y1="109.7" x2="1492.3" y2="115.1"/>
			<line class="st4" x1="1494.6" y1="109.7" x2="1494.6" y2="115.1"/>
			<line class="st4" x1="1496.8" y1="109.7" x2="1496.8" y2="115.1"/>
			<line class="st4" x1="1499" y1="105.7" x2="1499" y2="115.1"/>
			<line class="st4" x1="1501.2" y1="109.7" x2="1501.2" y2="115.1"/>
			<line class="st4" x1="1503.4" y1="109.7" x2="1503.4" y2="115.1"/>
			<line class="st4" x1="1505.6" y1="109.7" x2="1505.6" y2="115.1"/>
			<line class="st4" x1="1507.8" y1="109.7" x2="1507.8" y2="115.1"/>
			<line class="st4" x1="1510" y1="109.7" x2="1510" y2="115.1"/>
			<line class="st4" x1="1512.2" y1="105.7" x2="1512.2" y2="115.1"/>
			<line class="st4" x1="1514.4" y1="109.7" x2="1514.4" y2="115.1"/>
			<line class="st4" x1="1516.6" y1="109.7" x2="1516.6" y2="115.1"/>
			<line class="st4" x1="1518.9" y1="109.7" x2="1518.9" y2="115.1"/>
			<line class="st4" x1="1521.1" y1="109.7" x2="1521.1" y2="115.1"/>
			<line class="st4" x1="1523.3" y1="109.7" x2="1523.3" y2="115.1"/>
			<line class="st4" x1="1525.5" y1="105.7" x2="1525.5" y2="115.1"/>
			<line class="st4" x1="1527.7" y1="109.7" x2="1527.7" y2="115.1"/>
			<line class="st4" x1="1529.9" y1="109.7" x2="1529.9" y2="115.1"/>
			<line class="st4" x1="1532.1" y1="109.7" x2="1532.1" y2="115.1"/>
			<line class="st4" x1="1534.3" y1="109.7" x2="1534.3" y2="115.1"/>
			<line class="st4" x1="1536.5" y1="109.7" x2="1536.5" y2="115.1"/>
			<line class="st4" x1="1538.7" y1="105.7" x2="1538.7" y2="115.1"/>
			<line class="st4" x1="1540.9" y1="109.7" x2="1540.9" y2="115.1"/>
			<line class="st4" x1="1543.2" y1="109.7" x2="1543.2" y2="115.1"/>
			<line class="st4" x1="1545.4" y1="109.7" x2="1545.4" y2="115.1"/>
			<line class="st4" x1="1547.6" y1="109.7" x2="1547.6" y2="115.1"/>
			<line class="st4" x1="1549.8" y1="109.7" x2="1549.8" y2="115.1"/>
			<line class="st4" x1="1552" y1="105.7" x2="1552" y2="115.1"/>
			<line class="st4" x1="1554.2" y1="109.7" x2="1554.2" y2="115.1"/>
			<line class="st4" x1="1556.4" y1="109.7" x2="1556.4" y2="115.1"/>
			<line class="st4" x1="1558.6" y1="109.7" x2="1558.6" y2="115.1"/>
			<line class="st4" x1="1560.8" y1="109.7" x2="1560.8" y2="115.1"/>
			<line class="st4" x1="1563" y1="109.7" x2="1563" y2="115.1"/>
			<line class="st4" x1="1565.3" y1="105.7" x2="1565.3" y2="115.1"/>
			<line class="st4" x1="1567.5" y1="109.7" x2="1567.5" y2="115.1"/>
			<line class="st4" x1="1569.7" y1="109.7" x2="1569.7" y2="115.1"/>
			<line class="st4" x1="1571.9" y1="109.7" x2="1571.9" y2="115.1"/>
			<line class="st4" x1="1574.1" y1="109.7" x2="1574.1" y2="115.1"/>
			<line class="st4" x1="1576.3" y1="109.7" x2="1576.3" y2="115.1"/>
			<line class="st4" x1="1578.5" y1="105.7" x2="1578.5" y2="115.1"/>
			<line class="st4" x1="1580.7" y1="109.7" x2="1580.7" y2="115.1"/>
			<line class="st4" x1="1582.9" y1="109.7" x2="1582.9" y2="115.1"/>
			<line class="st4" x1="1585.1" y1="109.7" x2="1585.1" y2="115.1"/>
			<line class="st4" x1="1587.3" y1="109.7" x2="1587.3" y2="115.1"/>
			<line class="st4" x1="1589.6" y1="109.7" x2="1589.6" y2="115.1"/>
			<line class="st4" x1="1591.8" y1="105.7" x2="1591.8" y2="115.1"/>
			<line class="st4" x1="1594" y1="109.7" x2="1594" y2="115.1"/>
			<line class="st4" x1="1596.2" y1="109.7" x2="1596.2" y2="115.1"/>
			<line class="st4" x1="1598.4" y1="109.7" x2="1598.4" y2="115.1"/>
			<line class="st4" x1="1600.6" y1="109.7" x2="1600.6" y2="115.1"/>
			<line class="st4" x1="1602.8" y1="109.7" x2="1602.8" y2="115.1"/>
			<line class="st4" x1="1605" y1="105.7" x2="1605" y2="115.1"/>
			<line class="st4" x1="1607.2" y1="109.7" x2="1607.2" y2="115.1"/>
			<line class="st4" x1="1609.4" y1="109.7" x2="1609.4" y2="115.1"/>
			<line class="st4" x1="1611.6" y1="109.7" x2="1611.6" y2="115.1"/>
			<line class="st4" x1="1613.9" y1="109.7" x2="1613.9" y2="115.1"/>
			<line class="st4" x1="1616.1" y1="109.7" x2="1616.1" y2="115.1"/>
			<line class="st4" x1="1618.3" y1="105.7" x2="1618.3" y2="115.1"/>
			<line class="st4" x1="1620.5" y1="109.7" x2="1620.5" y2="115.1"/>
			<line class="st4" x1="1622.7" y1="109.7" x2="1622.7" y2="115.1"/>
			<line class="st4" x1="1624.9" y1="109.7" x2="1624.9" y2="115.1"/>
			<line class="st4" x1="1627.1" y1="109.7" x2="1627.1" y2="115.1"/>
			<line class="st4" x1="1629.3" y1="109.7" x2="1629.3" y2="115.1"/>
			<line class="st4" x1="1631.5" y1="105.7" x2="1631.5" y2="115.1"/>
			<line class="st4" x1="1633.7" y1="109.7" x2="1633.7" y2="115.1"/>
			<line class="st4" x1="1635.9" y1="109.7" x2="1635.9" y2="115.1"/>
			<line class="st4" x1="1638.2" y1="109.7" x2="1638.2" y2="115.1"/>
			<line class="st4" x1="1640.4" y1="109.7" x2="1640.4" y2="115.1"/>
			<line class="st4" x1="1642.6" y1="109.7" x2="1642.6" y2="115.1"/>
			<line class="st4" x1="1644.8" y1="105.7" x2="1644.8" y2="115.1"/>
			<line class="st4" x1="1647" y1="109.7" x2="1647" y2="115.1"/>
			<line class="st4" x1="1649.2" y1="109.7" x2="1649.2" y2="115.1"/>
			<line class="st4" x1="1651.4" y1="109.7" x2="1651.4" y2="115.1"/>
			<line class="st4" x1="1653.6" y1="109.7" x2="1653.6" y2="115.1"/>
			<line class="st4" x1="1655.8" y1="109.7" x2="1655.8" y2="115.1"/>
			<line class="st4" x1="1658" y1="105.7" x2="1658" y2="115.1"/>
			<line class="st4" x1="1660.2" y1="109.7" x2="1660.2" y2="115.1"/>
			<line class="st4" x1="1662.5" y1="109.7" x2="1662.5" y2="115.1"/>
			<line class="st4" x1="1664.7" y1="109.7" x2="1664.7" y2="115.1"/>
			<line class="st4" x1="1666.9" y1="109.7" x2="1666.9" y2="115.1"/>
			<line class="st4" x1="1669.1" y1="109.7" x2="1669.1" y2="115.1"/>
			<line class="st4" x1="1671.3" y1="105.7" x2="1671.3" y2="115.1"/>
			<line class="st4" x1="1673.5" y1="109.7" x2="1673.5" y2="115.1"/>
			<line class="st4" x1="1675.7" y1="109.7" x2="1675.7" y2="115.1"/>
			<line class="st4" x1="1677.9" y1="109.7" x2="1677.9" y2="115.1"/>
			<line class="st4" x1="1680.1" y1="109.7" x2="1680.1" y2="115.1"/>
			<line class="st4" x1="1682.3" y1="109.7" x2="1682.3" y2="115.1"/>
			<line class="st4" x1="1684.5" y1="105.7" x2="1684.5" y2="115.1"/>
			<line class="st4" x1="1686.8" y1="109.7" x2="1686.8" y2="115.1"/>
			<line class="st4" x1="1689" y1="109.7" x2="1689" y2="115.1"/>
			<line class="st4" x1="1691.2" y1="109.7" x2="1691.2" y2="115.1"/>
			<line class="st4" x1="1693.4" y1="109.7" x2="1693.4" y2="115.1"/>
			<line class="st4" x1="1695.6" y1="109.7" x2="1695.6" y2="115.1"/>
			<line class="st4" x1="1697.8" y1="105.7" x2="1697.8" y2="115.1"/>
			<line class="st4" x1="1700" y1="109.7" x2="1700" y2="115.1"/>
			<line class="st4" x1="1702.2" y1="109.7" x2="1702.2" y2="115.1"/>
			<line class="st4" x1="1704.4" y1="109.7" x2="1704.4" y2="115.1"/>
			<line class="st4" x1="1706.6" y1="109.7" x2="1706.6" y2="115.1"/>
			<line class="st4" x1="1708.8" y1="109.7" x2="1708.8" y2="115.1"/>
			<line class="st4" x1="1711.1" y1="105.7" x2="1711.1" y2="115.1"/>
			<line class="st4" x1="1713.3" y1="109.7" x2="1713.3" y2="115.1"/>
			<line class="st4" x1="1715.5" y1="109.7" x2="1715.5" y2="115.1"/>
			<line class="st4" x1="1717.7" y1="109.7" x2="1717.7" y2="115.1"/>
			<line class="st4" x1="1719.9" y1="109.7" x2="1719.9" y2="115.1"/>
			<line class="st4" x1="1722.1" y1="109.7" x2="1722.1" y2="115.1"/>
			<line class="st4" x1="1724.2" y1="105.7" x2="1724.2" y2="115.1"/>
			<line class="st4" x1="1726.5" y1="109.7" x2="1726.5" y2="115.1"/>
			<line class="st4" x1="1728.7" y1="109.7" x2="1728.7" y2="115.1"/>
			<line class="st4" x1="1730.9" y1="109.7" x2="1730.9" y2="115.1"/>
			<line class="st4" x1="1733.1" y1="109.7" x2="1733.1" y2="115.1"/>
			<line class="st4" x1="1735.3" y1="109.7" x2="1735.3" y2="115.1"/>
			<line class="st4" x1="1737.5" y1="105.7" x2="1737.5" y2="115.1"/>
			<line class="st4" x1="1739.7" y1="109.7" x2="1739.7" y2="115.1"/>
			<line class="st4" x1="1741.9" y1="109.7" x2="1741.9" y2="115.1"/>
			<line class="st4" x1="1744.1" y1="109.7" x2="1744.1" y2="115.1"/>
			<line class="st4" x1="1746.5" y1="109.7" x2="1746.5" y2="115.1"/>
			<line class="st4" x1="1748.7" y1="109.7" x2="1748.7" y2="115.1"/>
			<line class="st4" x1="1750.7" y1="105.7" x2="1750.7" y2="115.1"/>
			<line class="st4" x1="1752.9" y1="109.7" x2="1752.9" y2="115.1"/>
			<line class="st4" x1="1755.2" y1="109.7" x2="1755.2" y2="115.1"/>
			<line class="st4" x1="1757.4" y1="109.7" x2="1757.4" y2="115.1"/>
			<line class="st4" x1="1759.6" y1="109.7" x2="1759.6" y2="115.1"/>
			<line class="st4" x1="1761.8" y1="109.7" x2="1761.8" y2="115.1"/>
			<line class="st4" x1="1763.9" y1="105.7" x2="1763.9" y2="115.1"/>
			<line class="st4" x1="1766.1" y1="109.7" x2="1766.1" y2="115.1"/>
			<line class="st4" x1="1768.3" y1="109.7" x2="1768.3" y2="115.1"/>
			<line class="st4" x1="1770.6" y1="109.7" x2="1770.6" y2="115.1"/>
			<line class="st4" x1="1772.8" y1="109.7" x2="1772.8" y2="115.1"/>
		</g>
		<polygon class="st5" points="871.7,61.1 853.7,74.9 853.7,92.2 871.7,104 978.7,104 971.8,97.8 1125.8,97.8 1149.4,115.1 
			1776.7,115.1 1794.7,97.8 1952.2,97.9 1943.5,106.1 2050.1,105.4 2070.2,92.2 2070.2,77 2052.2,61.1 1990.3,61.1 1971.8,75.6 
			1794.7,74.9 1774.6,36.2 1148.7,36.2 1127.9,75.6 953.7,75.6 937.1,61.1 		"/>
		<polyline class="st6" points="872,97.9 1125.8,97.9 1149.4,115.2 1776.7,115.2 1794.7,97.9 2052.4,98.1 		"/>
		<polyline class="st7" points="1943.5,106.2 2050.1,105.5 2070.2,92.4 2070.2,77.1 2052.2,61.2 1990.3,61.2 1971.8,75.8 
			1794.7,75.1 1774.6,36.3 1148.7,36.3 1127.9,75.8 953.7,75.8 937.1,61.3 871.7,61.2 853.7,75.1 853.7,92.4 871.7,104.1 
			978.7,104.1 		"/>
		<path class="st2" d="M1943.5,106.2"/>
		<g>
			<text id="XMLID_66_" transform="matrix(1 0 0 1 1289.1034 88.284)" class="st8 st9 st10">十三项行动计划</text>
		</g>
		<polygon class="st3" points="2058,74.7 1982.9,74.7 1992.1,67 2048.5,67 		"/>
		<polygon class="st3" points="866,74.7 941.1,74.7 931.9,67 875.5,67 		"/>
	</g>
	<polyline class="st4" points="52.7,574.1 80.1,623.1 80.1,746.8 	"/>
	<path class="st4" d="M174.8,589.3"/>
	<path class="st4" d="M174.8,464"/>
	<polyline class="st4" points="80.1,286.6 80.1,394.3 52.7,448.7 	"/>
	<polyline class="st4" points="2871.9,577 2844.5,626 2844.5,749.7 	"/>
	<polyline class="st4" points="2844.5,284.4 2844.5,397.2 2871.9,451.6 	"/>
	<polygon class="st1" points="71.4,592.5 54,547.2 54,474.1 71.4,429 	"/>
	<polygon class="st1" points="2851.7,592.5 2868.9,547.2 2868.9,474.1 2851.7,429 	"/>
	<g>
		<line class="st4" x1="235" y1="123" x2="340.2" y2="123"/>
		<circle class="st4" cx="344.2" cy="123" r="4"/>
	</g>
	<g>
		<line class="st4" x1="2690.2" y1="123.3" x2="2584.9" y2="123.3"/>
		<circle class="st4" cx="2580.9" cy="123.3" r="4"/>
	</g>
	<g>
		<g>
			<circle class="st4" cx="2558.7" cy="923.5" r="2.1"/>
			<polyline class="st4" points="2645.3,903.5 2628.7,923.5 2560.8,923.5 			"/>
		</g>
		<g>
			<circle class="st4" cx="2579.3" cy="917.1" r="1.5"/>
			<polyline class="st4" points="2638.1,903.5 2626.9,917.1 2580.7,917.1 			"/>
		</g>
		<g>
			<polyline class="st4" points="2629.5,903.9 2623.4,911.3 2598.3,911.3 			"/>
			<circle class="st4" cx="2597.5" cy="911.3" r="0.8"/>
		</g>
	</g>
	<g>
		<g>
			<circle class="st4" cx="2880.8" cy="321.4" r="2.1"/>
			<polyline class="st4" points="2868.6,416.4 2880.8,391.4 2880.8,323.5 			"/>
		</g>
		<g>
			<circle class="st4" cx="2874.4" cy="342" r="1.5"/>
			<polyline class="st4" points="2864,408.2 2874.4,389.6 2874.4,343.4 			"/>
		</g>
		<g>
			<polyline class="st4" points="2860.8,401 2868.6,386.1 2868.6,360.9 			"/>
			<circle class="st4" cx="2868.6" cy="360.2" r="0.8"/>
		</g>
	</g>
	<g>
		<g>
			<circle class="st4" cx="2881.7" cy="708.8" r="2.1"/>
			<polyline class="st4" points="2869.5,613.8 2881.7,638.7 2881.7,706.7 			"/>
		</g>
		<g>
			<circle class="st4" cx="2875.3" cy="688.1" r="1.5"/>
			<polyline class="st4" points="2864.9,621.9 2875.3,640.6 2875.3,686.7 			"/>
		</g>
		<g>
			<polyline class="st4" points="2861.7,629.2 2869.5,644.1 2869.5,669.2 			"/>
			<circle class="st4" cx="2869.5" cy="670" r="0.8"/>
		</g>
	</g>
	<g>
		<g>
			<circle class="st4" cx="38.2" cy="320.2" r="2.1"/>
			<polyline class="st4" points="50.4,415.2 38.2,390.3 38.2,322.3 			"/>
		</g>
		<g>
			<circle class="st4" cx="44.6" cy="340.9" r="1.5"/>
			<polyline class="st4" points="55,407.1 44.6,388.4 44.6,342.3 			"/>
		</g>
		<g>
			<polyline class="st4" points="58.2,399.8 50.4,384.9 50.4,359.8 			"/>
			<circle class="st4" cx="50.4" cy="359" r="0.8"/>
		</g>
	</g>
	<g>
		<g>
			<circle class="st4" cx="39.9" cy="699.5" r="2.1"/>
			<polyline class="st4" points="52.1,604.5 39.9,629.4 39.9,697.4 			"/>
		</g>
		<g>
			<circle class="st4" cx="46.3" cy="678.8" r="1.5"/>
			<polyline class="st4" points="56.7,612.6 46.3,631.3 46.3,677.4 			"/>
		</g>
		<g>
			<polyline class="st4" points="59.9,619.9 52.1,634.8 52.1,659.9 			"/>
			<circle class="st4" cx="52.1" cy="660.7" r="0.8"/>
		</g>
	</g>
	<g>
		<g>
			<circle class="st4" cx="415.2" cy="925.8" r="2.1"/>
			<polyline class="st4" points="328.6,905.8 345.2,925.8 413.1,925.8 			"/>
		</g>
		<g>
			<circle class="st4" cx="394.6" cy="919.4" r="1.5"/>
			<polyline class="st4" points="335.8,905.8 347,919.4 393.2,919.4 			"/>
		</g>
		<g>
			<polyline class="st4" points="344.4,906.2 350.5,913.6 375.7,913.6 			"/>
			<circle class="st4" cx="376.4" cy="913.6" r="0.8"/>
		</g>
	</g>
</g>
</svg>
