<?xml version="1.0" encoding="utf-8"?>
<!-- Generator: Adobe Illustrator 19.0.0, SVG Export Plug-In . SVG Version: 6.00 Build 0)  -->
<svg version="1.1" id="图层_1" xmlns="http://www.w3.org/2000/svg" xmlns:xlink="http://www.w3.org/1999/xlink" x="0px" y="0px"
	 viewBox="0 0 815 114" style="enable-background:new 0 0 815 114;" xml:space="preserve">
<style type="text/css">
	.st0{fill:#00BEFF;fill-opacity:0.3;stroke:#05BCFE;stroke-width:0.5;stroke-miterlimit:10;}
	.st1{fill:none;stroke:#05BCFE;stroke-miterlimit:10;}
	.st2{fill:none;stroke:#F7F7F7;stroke-width:2;stroke-miterlimit:10;}
</style>
<g id="XMLID_3_">
	<polygon id="XMLID_137_" class="st0" points="130.3,10.6 126.3,14.2 46.7,14.2 45,10.9 14.4,10.9 14.4,23.3 11.6,26 11.6,33.2 
		11.6,35.8 11.6,89.9 9.9,93.5 9.9,108 4.9,108 4.9,18.3 7,16.1 7,10.9 11.6,6 108.5,6 116.7,10.6 	"/>
	<g id="XMLID_10_">
		<polygon id="XMLID_136_" class="st1" points="801.4,108 5,108 5,18.2 7,16.1 7,10.9 11.7,6 108.5,6 116.7,10.6 140.2,10.5 
			804.9,9.9 809.3,14.8 809.3,26.9 806.1,31.9 806.1,100.9 		"/>
		<polyline id="XMLID_11_" class="st2" points="806.1,85.8 806.1,100.9 801.4,108 776.2,108 		"/>
	</g>
</g>
</svg>
