<?xml version="1.0" encoding="utf-8"?>
<!-- Generator: Adobe Illustrator 19.0.0, SVG Export Plug-In . SVG Version: 6.00 Build 0)  -->
<svg version="1.1" id="图层_1" xmlns="http://www.w3.org/2000/svg" xmlns:xlink="http://www.w3.org/1999/xlink" x="0px" y="0px"
	 viewBox="0 0 826 366" shisanwutuopintuopinmubiao_style="enable-background:new 0 0 826 366;" xml:space="preserve">
<style type="text/css">
	.shisanwutuopintuopinmubiao_st0{opacity:0.5;fill:#132043;}
	.shisanwutuopintuopinmubiao_st1{opacity:0.5;fill:#1561C0;}
	.shisanwutuopintuopinmubiao_st2{fill:#58C7EE;}
	.shisanwutuopintuopinmubiao_st3{fill:#01AAE5;}
	.shisanwutuopintuopinmubiao_st4{opacity:0.2;}
	.shisanwutuopintuopinmubiao_st5{fill:none;stroke:#00BEFF;stroke-miterlimit:10;}
	.shisanwutuopintuopinmubiao_st6{opacity:0.8;fill:#58C7EE;}
</style>
<rect id="shisanwutuopintuopinmubiao_XMLID_114_" x="22.9" y="21.2" class="shisanwutuopintuopinmubiao_st0" width="769" height="326.5"/>
<polygon id="shisanwutuopintuopinmubiao_XMLID_21507_" class="shisanwutuopintuopinmubiao_st1" points="804.4,257.7 804.4,24.6 769.7,49.6 769.7,76 785.9,64.4 785.9,238.6 769.7,250.2 
	769.7,266.1 782.6,256.7 782.6,271.2 769.7,280.5 769.7,293.7 782.6,284.4 782.6,298.9 769.7,308.2 769.7,321.4 782.6,312.1 
	782.6,326.5 769.7,335.8 769.7,355.5 820.6,318.9 820.6,269.7 820.7,269.5 820.7,246 "/>
<g id="shisanwutuopintuopinmubiao_XMLID_21501_">
	<polygon id="shisanwutuopintuopinmubiao_XMLID_21506_" class="shisanwutuopintuopinmubiao_st2" points="781.7,24.5 781.7,14.5 774.9,9.2 774.9,19.2 	"/>
	<polygon id="shisanwutuopintuopinmubiao_XMLID_21505_" class="shisanwutuopintuopinmubiao_st2" points="781.7,61.4 781.7,51.4 774.9,46.1 774.9,56.1 	"/>
	<polygon id="shisanwutuopintuopinmubiao_XMLID_21504_" class="shisanwutuopintuopinmubiao_st2" points="781.7,98.3 781.7,88.3 774.9,82.9 774.9,92.9 	"/>
	<polygon id="shisanwutuopintuopinmubiao_XMLID_21503_" class="shisanwutuopintuopinmubiao_st3" points="778.6,84.8 778.6,59.9 777.6,59.1 777.6,84 	"/>
	<polygon id="shisanwutuopintuopinmubiao_XMLID_21502_" class="shisanwutuopintuopinmubiao_st3" points="778.6,47.9 778.6,23.1 777.6,22.3 777.6,47.1 	"/>
</g>
<polygon id="shisanwutuopintuopinmubiao_XMLID_21500_" class="shisanwutuopintuopinmubiao_st3" points="32.7,330 31.1,330.3 31.1,141.2 32.7,142.2 "/>
<g id="shisanwutuopintuopinmubiao_XMLID_30_" class="shisanwutuopintuopinmubiao_st4">
	<rect id="shisanwutuopintuopinmubiao_XMLID_100_" x="20.7" y="22.2" class="shisanwutuopintuopinmubiao_st5" width="771.8" height="326.5"/>
	<line id="shisanwutuopintuopinmubiao_XMLID_95_" class="shisanwutuopintuopinmubiao_st5" x1="20.7" y1="333.2" x2="792.6" y2="333.2"/>
	<line id="shisanwutuopintuopinmubiao_XMLID_94_" class="shisanwutuopintuopinmubiao_st5" x1="20.7" y1="317.6" x2="792.6" y2="317.6"/>
	<line id="shisanwutuopintuopinmubiao_XMLID_93_" class="shisanwutuopintuopinmubiao_st5" x1="20.7" y1="302.1" x2="792.6" y2="302.1"/>
	<line id="shisanwutuopintuopinmubiao_XMLID_92_" class="shisanwutuopintuopinmubiao_st5" x1="20.7" y1="286.5" x2="792.6" y2="286.5"/>
	<line id="shisanwutuopintuopinmubiao_XMLID_91_" class="shisanwutuopintuopinmubiao_st5" x1="20.7" y1="271" x2="792.6" y2="271"/>
	<line id="shisanwutuopintuopinmubiao_XMLID_90_" class="shisanwutuopintuopinmubiao_st5" x1="20.7" y1="255.4" x2="792.6" y2="255.4"/>
	<line id="shisanwutuopintuopinmubiao_XMLID_89_" class="shisanwutuopintuopinmubiao_st5" x1="20.7" y1="239.9" x2="792.6" y2="239.9"/>
	<line id="shisanwutuopintuopinmubiao_XMLID_88_" class="shisanwutuopintuopinmubiao_st5" x1="20.7" y1="224.3" x2="792.6" y2="224.3"/>
	<line id="shisanwutuopintuopinmubiao_XMLID_87_" class="shisanwutuopintuopinmubiao_st5" x1="20.7" y1="208.8" x2="792.6" y2="208.8"/>
	<line id="shisanwutuopintuopinmubiao_XMLID_86_" class="shisanwutuopintuopinmubiao_st5" x1="20.7" y1="193.2" x2="792.6" y2="193.2"/>
	<line id="shisanwutuopintuopinmubiao_XMLID_85_" class="shisanwutuopintuopinmubiao_st5" x1="20.7" y1="177.7" x2="792.6" y2="177.7"/>
	<line id="shisanwutuopintuopinmubiao_XMLID_84_" class="shisanwutuopintuopinmubiao_st5" x1="20.7" y1="162.1" x2="792.6" y2="162.1"/>
	<line id="shisanwutuopintuopinmubiao_XMLID_83_" class="shisanwutuopintuopinmubiao_st5" x1="20.7" y1="146.6" x2="792.6" y2="146.6"/>
	<line id="shisanwutuopintuopinmubiao_XMLID_82_" class="shisanwutuopintuopinmubiao_st5" x1="20.7" y1="131" x2="792.6" y2="131"/>
	<line id="shisanwutuopintuopinmubiao_XMLID_81_" class="shisanwutuopintuopinmubiao_st5" x1="20.7" y1="115.5" x2="792.6" y2="115.5"/>
	<line id="shisanwutuopintuopinmubiao_XMLID_80_" class="shisanwutuopintuopinmubiao_st5" x1="20.7" y1="99.9" x2="792.6" y2="99.9"/>
	<line id="shisanwutuopintuopinmubiao_XMLID_79_" class="shisanwutuopintuopinmubiao_st5" x1="20.7" y1="84.4" x2="792.6" y2="84.4"/>
	<line id="shisanwutuopintuopinmubiao_XMLID_78_" class="shisanwutuopintuopinmubiao_st5" x1="20.7" y1="68.8" x2="792.6" y2="68.8"/>
	<line id="shisanwutuopintuopinmubiao_XMLID_77_" class="shisanwutuopintuopinmubiao_st5" x1="20.7" y1="53.3" x2="792.6" y2="53.3"/>
	<line id="shisanwutuopintuopinmubiao_XMLID_76_" class="shisanwutuopintuopinmubiao_st5" x1="20.7" y1="37.7" x2="792.6" y2="37.7"/>
	<line id="shisanwutuopintuopinmubiao_XMLID_75_" class="shisanwutuopintuopinmubiao_st5" x1="775.8" y1="22.2" x2="775.8" y2="348.7"/>
	<line id="shisanwutuopintuopinmubiao_XMLID_74_" class="shisanwutuopintuopinmubiao_st5" x1="759" y1="22.2" x2="759" y2="348.7"/>
	<line id="shisanwutuopintuopinmubiao_XMLID_73_" class="shisanwutuopintuopinmubiao_st5" x1="742.2" y1="22.2" x2="742.2" y2="348.7"/>
	<line id="shisanwutuopintuopinmubiao_XMLID_72_" class="shisanwutuopintuopinmubiao_st5" x1="725.4" y1="22.2" x2="725.4" y2="348.7"/>
	<line id="shisanwutuopintuopinmubiao_XMLID_71_" class="shisanwutuopintuopinmubiao_st5" x1="708.7" y1="22.2" x2="708.7" y2="348.7"/>
	<line id="shisanwutuopintuopinmubiao_XMLID_70_" class="shisanwutuopintuopinmubiao_st5" x1="691.9" y1="22.2" x2="691.9" y2="348.7"/>
	<line id="shisanwutuopintuopinmubiao_XMLID_69_" class="shisanwutuopintuopinmubiao_st5" x1="675.1" y1="22.2" x2="675.1" y2="348.7"/>
	<line id="shisanwutuopintuopinmubiao_XMLID_68_" class="shisanwutuopintuopinmubiao_st5" x1="658.3" y1="22.2" x2="658.3" y2="348.7"/>
	<line id="shisanwutuopintuopinmubiao_XMLID_67_" class="shisanwutuopintuopinmubiao_st5" x1="641.6" y1="22.2" x2="641.6" y2="348.7"/>
	<line id="shisanwutuopintuopinmubiao_XMLID_66_" class="shisanwutuopintuopinmubiao_st5" x1="624.8" y1="22.2" x2="624.8" y2="348.7"/>
	<line id="shisanwutuopintuopinmubiao_XMLID_65_" class="shisanwutuopintuopinmubiao_st5" x1="608" y1="22.2" x2="608" y2="348.7"/>
	<line id="shisanwutuopintuopinmubiao_XMLID_64_" class="shisanwutuopintuopinmubiao_st5" x1="591.2" y1="22.2" x2="591.2" y2="348.7"/>
	<line id="shisanwutuopintuopinmubiao_XMLID_63_" class="shisanwutuopintuopinmubiao_st5" x1="574.4" y1="22.2" x2="574.4" y2="348.7"/>
	<line id="shisanwutuopintuopinmubiao_XMLID_62_" class="shisanwutuopintuopinmubiao_st5" x1="557.7" y1="22.2" x2="557.7" y2="348.7"/>
	<line id="shisanwutuopintuopinmubiao_XMLID_61_" class="shisanwutuopintuopinmubiao_st5" x1="540.9" y1="22.2" x2="540.9" y2="348.7"/>
	<line id="shisanwutuopintuopinmubiao_XMLID_60_" class="shisanwutuopintuopinmubiao_st5" x1="524.1" y1="22.2" x2="524.1" y2="348.7"/>
	<line id="shisanwutuopintuopinmubiao_XMLID_59_" class="shisanwutuopintuopinmubiao_st5" x1="507.3" y1="22.2" x2="507.3" y2="348.7"/>
	<line id="shisanwutuopintuopinmubiao_XMLID_58_" class="shisanwutuopintuopinmubiao_st5" x1="490.5" y1="22.2" x2="490.5" y2="348.7"/>
	<line id="shisanwutuopintuopinmubiao_XMLID_57_" class="shisanwutuopintuopinmubiao_st5" x1="473.8" y1="22.2" x2="473.8" y2="348.7"/>
	<line id="shisanwutuopintuopinmubiao_XMLID_56_" class="shisanwutuopintuopinmubiao_st5" x1="457" y1="22.2" x2="457" y2="348.7"/>
	<line id="shisanwutuopintuopinmubiao_XMLID_55_" class="shisanwutuopintuopinmubiao_st5" x1="440.2" y1="22.2" x2="440.2" y2="348.7"/>
	<line id="shisanwutuopintuopinmubiao_XMLID_54_" class="shisanwutuopintuopinmubiao_st5" x1="423.4" y1="22.2" x2="423.4" y2="348.7"/>
	<line id="shisanwutuopintuopinmubiao_XMLID_53_" class="shisanwutuopintuopinmubiao_st5" x1="406.6" y1="22.2" x2="406.6" y2="348.7"/>
	<line id="shisanwutuopintuopinmubiao_XMLID_52_" class="shisanwutuopintuopinmubiao_st5" x1="389.9" y1="22.2" x2="389.9" y2="348.7"/>
	<line id="shisanwutuopintuopinmubiao_XMLID_51_" class="shisanwutuopintuopinmubiao_st5" x1="373.1" y1="22.2" x2="373.1" y2="348.7"/>
	<line id="shisanwutuopintuopinmubiao_XMLID_50_" class="shisanwutuopintuopinmubiao_st5" x1="356.3" y1="22.2" x2="356.3" y2="348.7"/>
	<line id="shisanwutuopintuopinmubiao_XMLID_49_" class="shisanwutuopintuopinmubiao_st5" x1="339.5" y1="22.2" x2="339.5" y2="348.7"/>
	<line id="shisanwutuopintuopinmubiao_XMLID_48_" class="shisanwutuopintuopinmubiao_st5" x1="322.7" y1="22.2" x2="322.7" y2="348.7"/>
	<line id="shisanwutuopintuopinmubiao_XMLID_47_" class="shisanwutuopintuopinmubiao_st5" x1="306" y1="22.2" x2="306" y2="348.7"/>
	<line id="shisanwutuopintuopinmubiao_XMLID_46_" class="shisanwutuopintuopinmubiao_st5" x1="289.2" y1="22.2" x2="289.2" y2="348.7"/>
	<line id="shisanwutuopintuopinmubiao_XMLID_45_" class="shisanwutuopintuopinmubiao_st5" x1="272.4" y1="22.2" x2="272.4" y2="348.7"/>
	<line id="shisanwutuopintuopinmubiao_XMLID_44_" class="shisanwutuopintuopinmubiao_st5" x1="255.6" y1="22.2" x2="255.6" y2="348.7"/>
	<line id="shisanwutuopintuopinmubiao_XMLID_43_" class="shisanwutuopintuopinmubiao_st5" x1="238.9" y1="22.2" x2="238.9" y2="348.7"/>
	<line id="shisanwutuopintuopinmubiao_XMLID_42_" class="shisanwutuopintuopinmubiao_st5" x1="222.1" y1="22.2" x2="222.1" y2="348.7"/>
	<line id="shisanwutuopintuopinmubiao_XMLID_41_" class="shisanwutuopintuopinmubiao_st5" x1="205.3" y1="22.2" x2="205.3" y2="348.7"/>
	<line id="shisanwutuopintuopinmubiao_XMLID_40_" class="shisanwutuopintuopinmubiao_st5" x1="188.5" y1="22.2" x2="188.5" y2="348.7"/>
	<line id="shisanwutuopintuopinmubiao_XMLID_39_" class="shisanwutuopintuopinmubiao_st5" x1="171.7" y1="22.2" x2="171.7" y2="348.7"/>
	<line id="shisanwutuopintuopinmubiao_XMLID_38_" class="shisanwutuopintuopinmubiao_st5" x1="155" y1="22.2" x2="155" y2="348.7"/>
	<line id="shisanwutuopintuopinmubiao_XMLID_37_" class="shisanwutuopintuopinmubiao_st5" x1="138.2" y1="22.2" x2="138.2" y2="348.7"/>
	<line id="shisanwutuopintuopinmubiao_XMLID_36_" class="shisanwutuopintuopinmubiao_st5" x1="121.4" y1="22.2" x2="121.4" y2="348.7"/>
	<line id="shisanwutuopintuopinmubiao_XMLID_35_" class="shisanwutuopintuopinmubiao_st5" x1="104.6" y1="22.2" x2="104.6" y2="348.7"/>
	<line id="shisanwutuopintuopinmubiao_XMLID_34_" class="shisanwutuopintuopinmubiao_st5" x1="87.8" y1="22.2" x2="87.8" y2="348.7"/>
	<line id="shisanwutuopintuopinmubiao_XMLID_33_" class="shisanwutuopintuopinmubiao_st5" x1="71.1" y1="22.2" x2="71.1" y2="348.7"/>
	<line id="shisanwutuopintuopinmubiao_XMLID_32_" class="shisanwutuopintuopinmubiao_st5" x1="54.3" y1="22.2" x2="54.3" y2="348.7"/>
	<line id="shisanwutuopintuopinmubiao_XMLID_31_" class="shisanwutuopintuopinmubiao_st5" x1="37.5" y1="22.2" x2="37.5" y2="348.7"/>
</g>
<polygon id="shisanwutuopintuopinmubiao_XMLID_136_" class="shisanwutuopintuopinmubiao_st3" points="21.4,220.7 15.7,216.5 15.7,15.5 21.4,19.6 "/>
<path id="shisanwutuopintuopinmubiao_XMLID_133_" class="shisanwutuopintuopinmubiao_st2" d="M15.7,15.5v192.9l-3.1-2.4V11.2l-5.1-4v212.2l6.4,4.6l0,119.3l7.4,8.4l0-179.9l9.7,8.4V259
	l7.2-5V33.2L15.7,15.5z M37.6,253.6l-5.8,4v-77.7l-11.2-9.7v179.4l-6-6.9l0-119.1l-6.4-4.6V8.7l3.6,2.8v194.8l4.6,3.5V17l21.1,16.6
	V253.6z"/>
<polygon id="shisanwutuopintuopinmubiao_XMLID_124_" class="shisanwutuopintuopinmubiao_st1" points="14.7,321.6 14.7,332.5 14.7,223.7 8.3,219.1 8.3,8.7 11.9,11.6 11.9,206.4 16.5,209.9 
	16.5,17 37.6,33.6 37.6,253.6 31.8,257.6 31.8,179.9 20.6,170.3 20.6,349.7 14.7,342.9 "/>
<polygon id="shisanwutuopintuopinmubiao_XMLID_117_" class="shisanwutuopintuopinmubiao_st6" points="798.5,13.8 791.9,10.2 791.9,360.8 798.5,356.1 "/>
<polygon id="shisanwutuopintuopinmubiao_XMLID_106_" class="shisanwutuopintuopinmubiao_st2" points="61.6,25.6 60.3,24.6 66.5,24.6 67.8,25.6 "/>
<polygon id="shisanwutuopintuopinmubiao_XMLID_105_" class="shisanwutuopintuopinmubiao_st2" points="46.2,9.2 47.6,10.2 41.4,10.2 40.1,9.2 "/>
<polygon id="shisanwutuopintuopinmubiao_XMLID_104_" class="shisanwutuopintuopinmubiao_st2" points="55.5,17.1 56.8,18.1 50.6,18.1 49.3,17.1 "/>
<polygon id="shisanwutuopintuopinmubiao_XMLID_103_" class="shisanwutuopintuopinmubiao_st2" points="35.8,10.2 28.7,10.2 28.7,9.2 34.5,9.2 "/>
<polygon id="shisanwutuopintuopinmubiao_XMLID_101_" class="shisanwutuopintuopinmubiao_st2" points="45,18.1 38.1,18.1 38.1,17.1 43.7,17.1 "/>
<polygon id="shisanwutuopintuopinmubiao_XMLID_99_" class="shisanwutuopintuopinmubiao_st2" points="56,25.6 49.2,25.6 49.2,24.6 54.7,24.6 "/>
<polygon id="shisanwutuopintuopinmubiao_XMLID_98_" class="shisanwutuopintuopinmubiao_st2" points="68.9,24.6 101.2,24.6 101.2,25.6 70.2,25.6 "/>
<polygon id="shisanwutuopintuopinmubiao_XMLID_97_" class="shisanwutuopintuopinmubiao_st2" points="57.9,17.1 63.5,17.1 63.5,18.1 59.2,18.1 "/>
<polygon id="shisanwutuopintuopinmubiao_XMLID_96_" class="shisanwutuopintuopinmubiao_st2" points="43.1,23.8 50,28.8 42.1,28.8 35.3,23.8 "/>
<polygon id="shisanwutuopintuopinmubiao_XMLID_3_" class="shisanwutuopintuopinmubiao_st2" points="32.9,16.3 39.7,21.2 31.9,21.2 25.1,16.3 "/>
<polygon id="shisanwutuopintuopinmubiao_XMLID_2_" class="shisanwutuopintuopinmubiao_st2" points="23.7,8.5 30.5,13.4 22.7,13.4 15.8,8.5 "/>
</svg>
