<?xml version="1.0" encoding="utf-8"?>
<!-- Generator: Adobe Illustrator 19.0.0, SVG Export Plug-In . SVG Version: 6.00 Build 0)  -->
<svg version="1.1" id="图层_1" xmlns="http://www.w3.org/2000/svg" xmlns:xlink="http://www.w3.org/1999/xlink" x="0px" y="0px"
	 viewBox="0 0 329.3 159" style="enable-background:new 0 0 329.3 159;" xml:space="preserve">
<style type="text/css">
	.tongyong_st0{opacity:0.61;fill:none;stroke:#F4BC1B;stroke-miterlimit:10;}
	.tongyong_st1{opacity:0.5;fill:#132043;}
	.tongyong_st2{fill:#05BCFE;fill-opacity:0.3;stroke:#05BCFE;stroke-miterlimit:10;stroke-opacity:0.6;}
	.tongyong_st3{fill:#05BCFE;}
	.tongyong_st4{fill:none;stroke:#05BCFE;stroke-miterlimit:10;stroke-opacity:0.6;}
</style>
<path class="tongyong_st0" d="M266.5,113.4"/>
<rect x="39.6" y="4.9" class="tongyong_st1" width="266" height="148.6"/>
<g>
	<g class='tongyong_svg_left_group'>
		<polygon class="tongyong_st2" points="316.6,96.2 316.6,44 316.6,42 316.6,8 306.6,0 306.6,36 314.6,42.4 314.6,82 305.6,88.8 305.6,131 
			297.6,139 297.6,154.9 306,154.9 314.5,154.9 316,154.9 316.5,154.9 324.6,145 324.6,104.2 		"/>
		<polygon class="tongyong_st3" points="314,82 308,86.9 308,37.4 314,42.4 		"/>
	</g>
	<g>
		<polygon class="tongyong_st2" points="87.6,134.9 50.1,134.9 40.1,144.9 23.6,144.9 23.6,55.1 33.6,45.8 33.6,23.9 23.6,15.1 23.6,5.1 
			15.6,14.5 15.6,88.3 7.6,97.1 7.6,146.4 15.6,154.9 15.6,154.9 24.1,154.9 40.1,154.9 50.1,144.9 97.6,144.9 		"/>
		<polygon id="XMLID_54_" class="tongyong_st3" points="35,98.8 35,64.3 28,71.3 28,140.3 32,140.3 32,127.9 32,127.9 32,131.7 40,124.7 
			40,103.2 		"/>
		<polygon id="XMLID_8_" class="tongyong_st3" points="32,11.8 32,5.3 28,5.3 28,14.3 27.6,14.3 27.6,14 35.1,20.2 37.9,17.1 		"/>
		<rect x="44.6" y="6.8" class="tongyong_st3" width="4" height="3.7"/>
		<rect x="44.7" y="21.8" class="tongyong_st3" width="2" height="16.7"/>
		<rect x="53" y="127" class="tongyong_st3" width="16" height="2"/>
		<polyline class="tongyong_st4" points="45.1,6.9 45.1,77.9 39.1,83.9 39.1,94.9 44.1,99.7 44.1,128.4 53.6,128.4 		"/>
	</g>
</g>
</svg>
