<?xml version="1.0" encoding="utf-8"?>
<!-- Generator: Adobe Illustrator 19.0.0, SVG Export Plug-In . SVG Version: 6.00 Build 0)  -->
<svg version="1.1" id="图层_1" xmlns="http://www.w3.org/2000/svg" xmlns:xlink="http://www.w3.org/1999/xlink" x="0px" y="0px"
	 viewBox="0 0 60 70" style="enable-background:new 0 0 60 70;" xml:space="preserve">
<style type="text/css">
	.st0_glry{fill:#17E5E5;}
</style>
<g>
	<circle id="XMLID_92_" class="st0_glry" cx="14.1" cy="24.3" r="1"/>
	<path class="st0_glry" d="M58.6,31.1c-0.2-0.4-0.6-0.6-1.1-0.6c-0.1,0-0.1,0-0.1,0c-1.7-0.3-4.3,3.4-4.6,3.8c-0.4,0.4-0.6,0.5-0.7,0.5
		c-0.2,0-0.2-0.3-0.2-0.3l0,0c0-0.1,0-2-1.3-2.5c0,0-0.3-0.1-0.6-0.1c-0.2,0-0.4,0.1-0.6,0.2c-0.1,0.1-0.2,0.2-0.3,0.5
		c0,0.3,0.2,0.7,0.6,1.2c0.1,0.1,0.1,0.7,0.1,1c0,0.2-0.1,0.3-0.1,0.5c-0.1,0.2-0.2,0.4-0.2,0.7c0,0.3,0,0.6,0,0.9
		c0.1,0.8,0.5,1.6,1.1,2.2l-0.2,0.4l-1.3-0.7c-0.1-0.1-0.3,0-0.3,0.1C46,43,43.1,45.2,40,45.2h0c-4.6,0-8.2-5-9-6.2
		c-0.3-0.5-0.7-1.1-1.1-1.6h2.7c-2.7-5.5-0.7-18.3-0.7-18.3C31.9,12,26,6.3,18.7,6.2C11.4,6.3,5.5,12,5.5,19.1c0,0,2,12.8-0.7,18.3
		h3.5c-1.8,2.4-2.9,5.3-2.9,8.4v7.3c-0.1,0-0.3,0-0.4,0c0,0-0.1,0-0.1,0c-1,0-1.9,0.5-2.6,1.2c-0.7,0.7-1,1.7-1,2.7l0.1,2.1
		c0.1,2,1.8,3.6,3.8,3.6h0c0,0,0.1,0,0.1,0c0.1,0,0.1,0,0.2,0v0.8c0,0.1,0.1,0.3,0.3,0.3h26.9c0.1,0,0.3-0.1,0.3-0.3V47.6
		c2.4,1.6,4.9,2.4,7.4,2.4h0c6.4,0,11.4-5.1,13.9-8.1c0-0.1,0.1-0.1,0.1-0.2c0-0.1-0.1-0.1-0.1-0.2l-1.5-0.9l0.6-0.9
		c0,0,0.1,0,0.1,0c0.7,0,2.1-0.4,3.7-3.2C58.6,33.9,59.1,32,58.6,31.1z M11.4,46.1c2.2,0,3.5,0.3,3.9,0.5c-0.4,0.2-1.8,0.5-3.9,0.5
		s-3.5-0.3-3.9-0.5C7.9,46.4,9.2,46.1,11.4,46.1z M19.1,37.1c-0.5-0.2-3.5-1.5-5.4-2.6v-1.2c1.6,0.8,3.4,1.3,5.4,1.3
		c1.7,0,3.2-0.4,5-1.1v1.3C21.9,36,19.6,36.9,19.1,37.1z M14.1,35.3c1.6,0.8,3.5,1.7,4.4,2.1l-1.7,1.1l-0.2,0.1l-0.2,0.1l-1.3,0.9
		l-1.4-3.5v-1.1C13.8,35.2,14,35.3,14.1,35.3z M7.3,47.3c1.2,0.5,3.5,0.5,4.1,0.5s2.9,0,4.1-0.5l0,2.1c-0.2,0.2-1.6,0.6-4.1,0.6
		c-2.4,0-3.8-0.4-4.1-0.6V47.3z M5.4,62.2c-0.1,0-0.1,0-0.2,0l-0.1,0c-1.7,0-3.2-1.4-3.3-3.1L1.7,57c0-0.9,0.3-1.7,0.9-2.3
		c0.6-0.6,1.4-1,2.3-1l0.1,0c0.1,0,0.3,0,0.4,0c0.3,0,0.5,0.1,0.8,0.2c1.2,0.5,2,1.6,2.1,2.9l0.1,2.1c0.1,1.5-0.8,2.7-2.1,3.2
		C5.9,62.1,5.7,62.2,5.4,62.2z M16.6,63H6.2v-0.4c1.5-0.5,2.6-1.8,2.6-3.5c0.5,0.8,1.5,1.4,2.6,1.4c1.7,0,3.1-1.4,3.1-3.1
		s-1.4-3.1-3.1-3.1c-1.2,0-2.2,0.7-2.7,1.7c-0.3-1.3-1.3-2.3-2.5-2.7v-0.8c0,0,0,0,0-0.1c0.1-0.5,0.6-1,1.6-1.3v-0.7
		c1.2,0.3,3.1,0.4,3.6,0.4s2.4,0,3.6-0.4v0.7c1,0.3,1.5,0.8,1.6,1.3c0,0,0,0,0,0.1V63z M13.5,56.9v1.2H12v1.5h-1.2v-1.5H9.4v-1.2
		h1.5v-1.5H12v1.5H13.5z M20.8,45.4L20.8,45.4l-0.6-4.1H18l-0.6,4.1l-2.1-5.1l1.5-1l0.2-0.1l0.1-0.1l0.9,1.5h2.2l0.8-1.4l0.1-0.2
		l0.2,0.1l0.2,0.1L23,40l0,0L20.8,45.4z M24.1,37.5l-0.8,2.1l-3.5-2.1l4.4-2V37.5z M23.7,32.6c-1.4,0.7-3,1.1-4.7,1.1
		c-2,0-3.8-0.5-5.4-1.5c-3.1-1.8-5.2-5.2-5.2-9.1c0-0.4,0-0.8,0.1-1.2c1.4-1,3.6-3,5-6.8c0,0,5.1,7.6,16.1,7.7c0,0.1,0,0.2,0,0.3
		C29.7,27.2,27.2,30.8,23.7,32.6z M56.6,36.3c-1.6,2.7-2.8,3-3.3,3c-0.1,0-0.2,0-0.2,0c-0.1,0-0.2,0-0.3,0.1l-0.7,1l-1.4-0.8
		l0.3-0.6c0.1-0.1,0-0.2,0-0.3c-0.6-0.6-0.9-1.3-1.1-2.1c0-0.2-0.1-0.5,0-0.8c0-0.2,0.1-0.4,0.2-0.5c0.1-0.2,0.1-0.4,0.2-0.5
		c0-0.2,0.1-1.1-0.2-1.5c-0.4-0.4-0.4-0.7-0.4-0.8c0-0.1,0-0.1,0.1-0.1c0.2-0.2,0.7,0,0.7,0c0.9,0.4,1,2,1,2.1
		c0,0.3,0.2,0.8,0.7,0.8c0.3,0,0.6-0.2,1.1-0.7c0.7-1,2.9-3.9,4.1-3.6c0,0,0.1,0,0.1,0c0,0,0,0,0.1,0c0.2,0,0.5,0.1,0.7,0.4
		C58.4,31.8,58.5,33,56.6,36.3z"/>
	<circle id="XMLID_79_" class="st0_glry" cx="23.6" cy="24.3" r="1"/>
</g>
</svg>
