<?xml version="1.0" encoding="utf-8"?>
<!-- Generator: Adobe Illustrator 19.0.0, SVG Export Plug-In . SVG Version: 6.00 Build 0)  -->
<svg version="1.1" id="图层_1" xmlns="http://www.w3.org/2000/svg" xmlns:xlink="http://www.w3.org/1999/xlink" x="0px" y="0px"
	 viewBox="0 0 58 58" style="enable-background:new 0 0 58 58;" xml:space="preserve">
<style type="text/css">
	.st0_wsjg{fill:#2EB4FF;}
</style>
<g>
	<path id="XMLID_98_" class="st0_wsjg" d="M23.2,31.9c0.4,0,0.7-0.1,0.9-0.4c0.2-0.3,0.4-0.7,0.4-1.2c0-0.3-0.1-0.6-0.2-0.8
		c-0.1-0.2-0.2-0.4-0.4-0.5c-0.2-0.1-0.4-0.2-0.7-0.2c-0.4,0-0.6,0.1-0.9,0.4c-0.2,0.2-0.4,0.7-0.4,1.3c0,0.5,0.1,0.8,0.4,1.1
		C22.5,31.8,22.8,31.9,23.2,31.9z"/>
	<path id="XMLID_97_" class="st0_wsjg" d="M32.7,29.8c0.1-0.1,0.2-0.2,0.2-0.4c0-0.1,0-0.2-0.1-0.3c-0.1-0.1-0.1-0.1-0.2-0.2
		c0,0-0.2,0-0.5,0h-0.9V30H32C32.4,30,32.6,29.9,32.7,29.8z"/>
	<path id="XMLID_96_" class="st0_wsjg" d="M41.1,29.5C41.1,29.5,41.1,29.5,41.1,29.5l-0.4,1h0.8l-0.3-0.9C41.1,29.6,41.1,29.5,41.1,29.5z
		"/>
	<path id="XMLID_95_" class="st0_wsjg" d="M29.9,8.7V5.4c0-0.1-0.1-0.2-0.2-0.2H4.9c-0.1,0-0.2,0.1-0.2,0.2v3.3c0,0.1,0.1,0.2,0.2,0.2
		h24.8C29.8,8.9,29.9,8.8,29.9,8.7z"/>
	<polygon id="XMLID_94_" class="st0_wsjg" points="20.8,16.2 18.1,16.2 18.1,13.8 15.5,13.8 15.5,16.2 12.8,16.2 12.8,18.8 15.5,18.8 
		15.5,21.2 18.1,21.2 18.1,18.8 20.8,18.8 	"/>
	<circle id="XMLID_93_" class="st0_wsjg" cx="27.2" cy="47.2" r="0.4"/>
	<circle id="XMLID_92_" class="st0_wsjg" cx="24.8" cy="47.2" r="0.4"/>
	<path class="st0_wsjg" d="M53.1,21.7H26.2V9.9c0-0.1-0.1-0.2-0.2-0.2H7.8c-0.1,0-0.2,0.1-0.2,0.2v42.7c0,0.1,0.1,0.2,0.2,0.2h45.3
		c0.1,0,0.2-0.1,0.2-0.2V21.9C53.3,21.8,53.2,21.7,53.1,21.7z M34.3,28.1c0-0.1,0.1-0.3,0.3-0.3h0.6c0.1,0,0.3,0.1,0.3,0.3v4.5
		c0,0.1-0.1,0.3-0.3,0.3h-0.6c-0.1,0-0.3-0.1-0.3-0.3V28.1z M30,28.1c0-0.1,0.1-0.3,0.3-0.3H32c0.3,0,0.6,0,0.7,0
		c0.3,0,0.5,0.1,0.7,0.3c0.2,0.1,0.3,0.3,0.4,0.5c0.1,0.2,0.2,0.5,0.2,0.7c0,0.4-0.1,0.8-0.4,1.1C33.2,30.9,32.7,31,32,31h-0.9v1.6
		c0,0.1-0.1,0.3-0.3,0.3h-0.6c-0.1,0-0.3-0.1-0.3-0.3V28.1z M25.9,30.9l0.6,0c0.1,0,0.3,0.1,0.3,0.2c0,0.2,0.1,0.3,0.1,0.4
		c0.1,0.1,0.2,0.2,0.3,0.3c0.2,0.1,0.4,0.1,0.6,0.1c0.2,0,0.4,0,0.5-0.1c0.1,0,0.2-0.1,0.3-0.2c0.1-0.1,0.1-0.1,0.1-0.2
		c0-0.1,0-0.1-0.1-0.2c0,0-0.1-0.1-0.3-0.2c-0.1,0-0.3-0.1-0.8-0.2c-0.4-0.1-0.7-0.2-0.9-0.3c-0.3-0.1-0.4-0.3-0.6-0.5
		c-0.1-0.2-0.2-0.4-0.2-0.7c0-0.3,0.1-0.5,0.2-0.8c0.2-0.2,0.4-0.4,0.7-0.5c0.3-0.1,0.6-0.2,0.9-0.2c0.4,0,0.7,0.1,1,0.2
		c0.3,0.1,0.5,0.3,0.7,0.6c0.2,0.2,0.3,0.5,0.3,0.8c0,0.1-0.1,0.3-0.2,0.3l-0.6,0c-0.1,0-0.3-0.1-0.3-0.2c0-0.2-0.1-0.4-0.2-0.5
		c-0.1-0.1-0.3-0.2-0.6-0.2c-0.4,0-0.5,0.1-0.6,0.1c-0.1,0.1-0.1,0.2-0.1,0.3c0,0.1,0,0.1,0.1,0.2c0,0,0.2,0.1,0.8,0.3
		c0.5,0.1,0.8,0.2,1,0.3c0.3,0.1,0.5,0.3,0.7,0.5c0.2,0.2,0.2,0.5,0.2,0.8c0,0.3-0.1,0.6-0.2,0.8c-0.2,0.3-0.4,0.4-0.7,0.6
		c-0.3,0.1-0.6,0.2-1,0.2c-0.4,0-0.8-0.1-1.1-0.2c-0.3-0.1-0.6-0.4-0.8-0.6c-0.2-0.3-0.3-0.6-0.3-0.9C25.6,31,25.7,30.9,25.9,30.9z
		 M24.5,28.1c0.4,0.2,0.7,0.5,0.9,0.9c0.2,0.4,0.3,0.8,0.3,1.3c0,0.5-0.1,0.9-0.3,1.3c-0.2,0.4-0.5,0.7-0.9,0.9
		c-0.4,0.2-0.8,0.3-1.2,0.3c-0.5,0-0.9-0.1-1.3-0.3c-0.4-0.2-0.7-0.5-0.9-0.9c-0.2-0.4-0.3-0.8-0.3-1.2c0-0.8,0.2-1.5,0.7-1.9
		c0.4-0.5,1-0.7,1.7-0.7C23.7,27.8,24.1,27.9,24.5,28.1z M11.1,17.5c0-3.1,2.6-5.7,5.7-5.7c3.1,0,5.7,2.6,5.7,5.7s-2.6,5.7-5.7,5.7
		C13.6,23.2,11.1,20.7,11.1,17.5z M17.6,30.7v1.9c0,0.1-0.1,0.3-0.3,0.3h-0.6c-0.1,0-0.3-0.1-0.3-0.3v-4.5c0-0.1,0.1-0.3,0.3-0.3
		h0.6c0.1,0,0.3,0.1,0.3,0.3v1.6h1.8v-1.6c0-0.1,0.1-0.3,0.3-0.3h0.6c0.1,0,0.3,0.1,0.3,0.3v4.5c0,0.1-0.1,0.3-0.3,0.3h-0.6
		c-0.1,0-0.3-0.1-0.3-0.3v-1.9H17.6z M30.9,52.4h-9.7v-0.8h9.7V52.4z M21.1,51v-8h4.4v8H21.1z M30.9,51h-4.4v-8h4.4V51z M37.6,40.7
		H14.4v-2.2h23.3V40.7z M38.2,32.6c0,0.1-0.1,0.3-0.3,0.3h-0.6c-0.1,0-0.3-0.1-0.3-0.3v-3.7h-1.2c-0.1,0-0.3-0.1-0.3-0.3v-0.5
		c0-0.1,0.1-0.3,0.3-0.3h3.6c0.1,0,0.3,0.1,0.3,0.3v0.5c0,0.1-0.1,0.3-0.3,0.3h-1.2V32.6z M46.8,32.6c0,0.1-0.1,0.3-0.3,0.3h-2.8
		c-0.1,0-0.2-0.1-0.2-0.1c0,0,0,0,0,0c0,0.1-0.1,0.1-0.2,0.1h-0.7c-0.1,0-0.2-0.1-0.2-0.2l-0.5-1.2h-1.5l-0.4,1.2
		c0,0.1-0.1,0.2-0.2,0.2h-0.6c-0.1,0-0.2,0-0.2-0.1c0-0.1-0.1-0.2,0-0.2l1.7-4.5c0-0.1,0.1-0.2,0.2-0.2h0.6c0.1,0,0.2,0.1,0.2,0.2
		l1.8,4.4v-4.3c0-0.1,0.1-0.3,0.3-0.3h0.6c0.1,0,0.3,0.1,0.3,0.3v3.7h1.9c0.1,0,0.3,0.1,0.3,0.3V32.6z"/>
</g>
</svg>
