<?xml version="1.0" encoding="utf-8"?>
<!-- Generator: Adobe Illustrator 19.0.0, SVG Export Plug-In . SVG Version: 6.00 Build 0)  -->
<svg version="1.1" id="图层_1" xmlns="http://www.w3.org/2000/svg" xmlns:xlink="http://www.w3.org/1999/xlink" x="0px" y="0px"
	 viewBox="0 0 58 58" style="enable-background:new 0 0 58 58;" xml:space="preserve">
<style type="text/css">
	.st0_qtjg{fill:#2EB4FF;}
</style>
<path class="st0_qtjg" d="M54.2,19.4H35.6v-8.8c0-0.2-0.1-0.3-0.3-0.3H22.7c-0.2,0-0.3,0.1-0.3,0.3v8.8H3.8c-0.2,0-0.3,0.1-0.3,0.3v27.7
	c0,0.2,0.1,0.3,0.3,0.3h50.4c0.2,0,0.3-0.1,0.3-0.3V19.7C54.5,19.5,54.4,19.4,54.2,19.4z M41.2,25.2h5.6v5.6h-5.6V25.2z M41.2,35.7
	h5.6v5.6h-5.6V35.7z M37.5,44.6c0.1-0.3,0.4-0.5,0.7-0.5c0.2,0,0.4,0.1,0.6,0.3c0.1-0.1,0.3-0.2,0.5-0.2c0.3,0,0.5,0.1,0.7,0.4
	c0.1,0,0.1,0.1,0.2,0.1c0.1,0,0.2,0,0.2,0.1c0.1-0.3,0.3-0.4,0.6-0.4c0.3,0,0.6,0.2,0.6,0.5c0.1,0,0.3,0,0.4,0
	c0.1-0.3,0.3-0.6,0.7-0.6c0.2,0,0.3,0.1,0.5,0.2c0.4-0.2,0.8-0.1,1,0.2c0.3-0.1,0.6-0.1,0.8,0.1c0.2-0.2,0.4-0.3,0.6-0.3
	c0.1,0,0.3,0,0.4,0.1c0.1-0.3,0.4-0.5,0.8-0.5c0.4,0,0.8,0.3,0.8,0.8c0.2,0,0.3,0,0.5,0c0.2-0.2,0.4-0.3,0.6-0.3
	c0.1,0,0.2,0,0.3,0.1c0.1-0.3,0.3-0.4,0.6-0.4c0.3,0,0.6,0.2,0.6,0.5c0.1,0,0.2,0,0.3,0c0.2,0,0.3,0,0.5,0c0.1-0.3,0.3-0.4,0.6-0.4
	c0.3,0,0.6,0.2,0.6,0.5c0.1,0,0.1,0,0.2,0c0.4,0,0.7,0.3,0.7,0.7c0,0,0,0,0,0.1l0,0.1H36.8l0-0.1c0-0.1,0-0.2,0-0.2
	C36.7,45,37.1,44.6,37.5,44.6z M25.2,14h2.5v-2.2h2.5V14h2.5v2.5h-2.5v2.2h-2.5v-2.2h-2.5V14z M31.8,25.2v5.6h-5.6v-5.6H31.8z
	 M11.3,25.2h5.6v5.6h-5.6V25.2z M11.3,35.7h5.6v5.6h-5.6V35.7z M5.6,44.6c0.1-0.3,0.4-0.5,0.7-0.5c0.2,0,0.4,0.1,0.6,0.3
	c0.1-0.1,0.3-0.2,0.5-0.2c0.3,0,0.5,0.1,0.7,0.4c0.1,0,0.1,0.1,0.2,0.1c0.1,0,0.2,0,0.2,0.1c0.1-0.3,0.3-0.4,0.6-0.4
	c0.3,0,0.6,0.2,0.6,0.5c0.1,0,0.3,0,0.4,0c0.1-0.3,0.3-0.6,0.7-0.6c0.2,0,0.3,0.1,0.5,0.2c0.4-0.2,0.8-0.1,1,0.2
	c0.3-0.1,0.6-0.1,0.8,0.1c0.2-0.2,0.4-0.3,0.6-0.3c0.1,0,0.3,0,0.4,0.1c0.1-0.3,0.4-0.5,0.8-0.5c0.4,0,0.8,0.3,0.8,0.8
	c0.2,0,0.3,0,0.5,0c0.2-0.2,0.4-0.3,0.6-0.3c0.1,0,0.2,0,0.3,0.1c0.1-0.3,0.3-0.4,0.6-0.4c0.3,0,0.6,0.2,0.6,0.5c0.1,0,0.2,0,0.3,0
	c0.2,0,0.3,0,0.5,0c0.1-0.3,0.3-0.4,0.6-0.4c0.3,0,0.6,0.2,0.6,0.5c0.1,0,0.1,0,0.2,0c0.4,0,0.7,0.3,0.7,0.7c0,0,0,0,0,0.1l0,0.1
	H4.9l0-0.1c0-0.1,0-0.2,0-0.2C4.8,45,5.2,44.6,5.6,44.6z M22,47.3H3.9v-1.2H22V47.3z M33.1,47.4h-8.3v-0.7h8.3V47.4z M33.1,46.2
	h-8.3v-0.7h8.3V46.2z M24.9,45v-6.8h3.8V45H24.9z M33.1,45h-3.8v-6.8h3.8V45z M35.4,47.4H34v-9.8H24v9.8h-1.5v-9.8h-0.9v-2h14.7v2
	h-0.9V47.4z M53.9,47.3H35.7v-1.2h18.2V47.3z"/>
</svg>
