<?xml version="1.0" encoding="utf-8"?>
<!-- Generator: Adobe Illustrator 19.0.0, SVG Export Plug-In . SVG Version: 6.00 Build 0)  -->
<svg version="1.1" id="图层_1" xmlns="http://www.w3.org/2000/svg" xmlns:xlink="http://www.w3.org/1999/xlink" x="0px" y="0px"
	 viewBox="0 0 118 96" style="enable-background:new 0 0 118 96;" xml:space="preserve">
<style type="text/css">
	.stchu{fill:#99F3FF;}
</style>
<g>
	<path class="stchu" d="M114.5,5c1.4,0,2.5-1.1,2.5-2.5h-0.8c0,0.9-0.7,1.6-1.6,1.6h-8.7V0.8h-2.5v3.4h-6.3c-0.2-0.5-0.5-0.9-0.9-0.9
		c-0.4,0-0.8,0.3-0.9,0.9h-0.6c-0.9,0-1.6-0.7-1.6-1.6H92C92,3.9,93.1,5,94.5,5h0.4c0,0.1,0,0.2,0,0.3c0,0.2,0,0.3,0,0.5h-1.5
		c-1,0-1.9,0.9-1.9,1.9v9.1c0,1,0.8,1.9,1.9,1.9h0.6v2.6h0.2c-0.3,7.9-3.6,11.4-12,12.6c-1.3,0.2-2.9,0.2-4.6,0.1
		c-3.2-0.1-6.9-0.1-9.2,1.3c-2,1.2-2.6,3.1-3.1,4.8C64.6,41.6,64.2,43,63,44c-0.6,0.6-1.4,1-2.1,1.3c-14.5-1.6-14.5-1.6-14.5-1.6v1
		c-9.5,1.8-14.2-2.6-14.5-2.8c-1.3-1.3-3.3-1.3-4.5,0c-1.3,1.3-1.3,3.3,0,4.6c0.2,0.3,5.2,5.2,14.7,5.2c1.4,0,2.8-0.1,4.4-0.3v1.5
		c-1.5,0.2-3,0.3-4.4,0.3c-9.6,0-14.6-4.9-15.2-5.4c-0.5-0.5-0.8-1.1-1-1.8c0-0.1,0-0.1-0.1-0.2c-0.1-0.2-0.1-0.4-0.1-0.6
		c0,0,0-0.1,0-0.1c0-0.1,0-0.2,0-0.2c0-0.1,0-0.2,0-0.3c0-0.1,0-0.1,0-0.2c0-0.1,0-0.3,0-0.4c0-0.2,0-0.3,0.1-0.5
		c0-0.1,0.1-0.2,0.1-0.2c0.2-0.7,0.6-1.3,1.1-1.9c0.8-0.8,2-1.3,3.1-1.3c1.2,0,2.3,0.5,3.2,1.3c0.1,0.1,3,2.8,8.8,2.8
		c0.1,0,0.3,0,0.4,0c-5.1-1.7-10.4-4.6-10.4-4.6c-2.4-1.6-5.4-0.5-7.2,1.2c0,0-0.6,0.5-1,1.2c-0.4,0.6-0.7,1.4-0.7,1.4l0,0
		c-0.6,1.7-0.6,3.9,0.4,5.5c0,0,0.7,1,1.5,1.5c0,0,11.6,8,18.9,8.2c0.9,0,1.7,0,2.6,0v1.5h-6.3L17,47.9c0.3-0.1,0.6-0.3,0.8-0.7
		c0.4-0.7,0.1-1.6-0.6-1.9l-7.9-4.1c-0.7-0.4-1.6-0.1-1.9,0.6c-0.1,0.3-0.2,0.6-0.1,0.9l-1-0.5c-1.8-0.9-3.9-0.2-4.8,1.6
		c-0.9,1.8-0.2,3.9,1.6,4.8l31.7,16.9H11.6c-1.2,0-2.1,1-2.1,2.1v1.2c0,1.2,1,2.1,2.1,2.1H19c0,0.2,0,0.3,0,0.5v18.2
		c-0.7,0.6-1.2,1.5-1.2,2.5c0,1.8,1.4,3.2,3.2,3.2c1.8,0,3.2-1.4,3.2-3.2c0-0.9-0.4-1.7-0.9-2.3v-4h64.4v3.7
		c-0.8,0.6-1.2,1.5-1.2,2.5c0,1.8,1.4,3.2,3.2,3.2c1.8,0,3.2-1.4,3.2-3.2c0-0.9-0.3-1.6-0.9-2.2V71.3c0-2.3-1.8-4.1-4-4.2
		c1.4-0.5,2.3-1.8,2.3-3.3c0-1.9-1.5-3.4-3.4-3.5c0.8-4.5-0.4-12.1-16.8-13.9c-2.7-0.3-5.1-0.6-7.2-0.8c0.3-0.2,0.6-0.4,0.9-0.7
		c1.4-1.3,1.9-2.8,2.4-4.4c0.5-1.6,1-3.2,2.7-4.2c2-1.3,5.6-1.2,8.6-1.2c1.8,0,3.4,0.1,4.8-0.1c9-1.3,12.6-5.1,13-13.7h0.2v-2.6h1.2
		v1.1H98v-1.1h0.5c1,0,1.9-0.9,1.9-1.9V7.7c0-1-0.8-1.9-1.9-1.9h-1.5c0-0.1,0-0.3,0-0.5c0-0.1,0-0.2,0-0.3h6.2l0,81.4h-1.5
		c-2.7,0-5,1.7-5.9,4c-1,0.3-1.7,1.2-1.7,2.3c0,1.4,1.1,2.5,2.5,2.5c1.4,0,2.5-1.1,2.5-2.5c0-0.7-0.3-1.2-0.7-1.7
		c0.6-1.3,1.9-2.2,3.4-2.2h5.7c1.5,0,2.8,0.9,3.4,2.2c-0.4,0.4-0.7,1-0.7,1.7c0,1.4,1.1,2.5,2.5,2.5c1.4,0,2.5-1.1,2.5-2.5
		c0-1.1-0.7-2-1.7-2.3c-0.9-2.4-3.2-4-5.9-4h-1.7l0-81.4H114.5z M87.7,71.3v11.6H23.3V71.3H87.7z M95.7,5h0.5c0,0.1,0,0.2,0,0.3
		c0,0.2,0,0.3,0,0.5h-0.5c0-0.1,0-0.3,0-0.5C95.7,5.2,95.7,5.1,95.7,5z M97.9,12.6c0,1.1-0.9,2-2,2c-1.1,0-2-0.9-2-2
		c0-1.1,2-4.2,2-4.2S97.9,11.5,97.9,12.6z"/>
	<circle id="XMLID_157_" class="stchu" cx="17.8" cy="37" r="7.1"/>
</g>
</svg>
