<?xml version="1.0" encoding="utf-8"?>
<!-- Generator: Adobe Illustrator 19.0.0, SVG Export Plug-In . SVG Version: 6.00 Build 0)  -->
<svg version="1.1" id="图层_1" xmlns="http://www.w3.org/2000/svg" xmlns:xlink="http://www.w3.org/1999/xlink" x="0px" y="0px"
	 viewBox="0 0 58 58" style="enable-background:new 0 0 58 58;" xml:space="preserve">
<style type="text/css">
	.st0_yy{fill:#2EB4FF;}
</style>
<g>
	<path class="st0_yy" d="M47.6,1.3H10.4c-0.2,0-0.3,0.1-0.3,0.3v54.7c0,0.2,0.1,0.3,0.3,0.3h37.1c0.2,0,0.3-0.1,0.3-0.3V1.6
		C47.9,1.5,47.7,1.3,47.6,1.3z M21.3,49.3h-6v-6h6V49.3z M21.3,39.6h-6v-6h6V39.6z M21.3,30h-6v-6h6V30z M32,49.3h-6v-6h6V49.3z
		 M32,39.6h-6v-6h6V39.6z M32,30h-6v-6h6V30z M35,20.8H23v-12h12V20.8z M42.8,49.3h-6v-6h6V49.3z M42.8,39.6h-6v-6h6V39.6z M42.8,30
		h-6v-6h6V30z"/>
	<polygon id="XMLID_79_" class="st0_yy" points="27.5,19 30.5,19 30.5,16.2 33.7,16.2 33.7,13.1 30.5,13.1 30.5,10.3 27.5,10.3 
		27.5,13.1 24.3,13.1 24.3,16.2 27.5,16.2 	"/>
</g>
</svg>
