<?xml version="1.0" encoding="utf-8"?>
<!-- Generator: Adobe Illustrator 19.0.0, SVG Export Plug-In . SVG Version: 6.00 Build 0)  -->
<svg version="1.1" id="图层_1" xmlns="http://www.w3.org/2000/svg" xmlns:xlink="http://www.w3.org/1999/xlink" x="0px" y="0px"
	 viewBox="0 0 60 70" style="enable-background:new 0 0 60 70;" xml:space="preserve">
<style type="text/css">
	.st0_ys{fill:#17E5E5;}
</style>
<g>
	<path class="st0_ys" d="M50.8,16.8c-0.2-0.3-0.4-0.4-0.8-0.4c0,0-0.1,0-0.1,0c-1.2-0.2-2.9,2.3-3.1,2.6c-0.3,0.3-0.4,0.3-0.5,0.3
		c-0.1,0-0.1-0.2-0.1-0.2c0-0.1,0-1.3-0.9-1.7c0,0-0.2-0.1-0.4-0.1c-0.2,0-0.3,0-0.4,0.1c-0.1,0-0.2,0.2-0.2,0.3
		c0,0.2,0.1,0.5,0.4,0.8c0.1,0.1,0.1,0.5,0.1,0.7c0,0.1-0.1,0.2-0.1,0.3c-0.1,0.1-0.1,0.3-0.1,0.4c0,0.2,0,0.4,0,0.6
		c0.1,0.6,0.3,1.1,0.7,1.5l-0.2,0.3L44.3,22c-0.1,0-0.2,0-0.2,0.1c-1.9,3-3.9,4.5-6,4.5h0c-2.6,0-4.8-2.3-5.7-3.6
		c-0.5-0.8-1.1-1.6-1.9-2.2v0.2v0.2V25c0.5,0,1,0.1,1.3,0.4c0.1,0.1,0.1,0.1,0.2,0.2c0,0,0.1,0.1,0.1,0.1c0,0,0,0.1,0.1,0.1
		c0.3,0.4,0.5,1,0.5,1.6c0,0.1,0,0.2,0,0.2c0,0.1,0,0.1,0,0.2c0.1,1.8-0.6,3.9-0.6,4.1c0,0-0.1,0.4-0.4,0.5c0,0-0.1,0-0.2,0
		c-0.1,0-0.1,0-0.2,0c-0.1,0.1-0.3,0.2-0.4,0.1c-0.1-0.1-0.2-0.4,0-0.6c0.1-0.3,0.4-0.4,0.5-0.4c0.1,0.1,0.2,0.3,0.1,0.5
		c0,0,0.1,0,0.1,0c0.1,0,0.2-0.2,0.2-0.3c0,0,0.8-2.4,0.6-4.3c0-0.1,0-0.2,0-0.2c0-0.3-0.1-0.6-0.2-0.9c-0.1-0.1-0.1-0.3-0.2-0.4
		c0,0,0,0,0-0.1c-0.3-0.4-0.8-0.6-1.5-0.5c-0.7,0.1-1.2,0.3-1.6,0.9c-1.1,1.7,0.3,5.4,0.3,5.5c0,0,0.1,0.2,0.2,0.3
		c0.1,0,0.1,0,0.2,0c-0.1-0.2,0-0.4,0.1-0.5c0.1-0.1,0.4,0.1,0.5,0.4c0.1,0.3,0.1,0.6,0,0.6c-0.1,0.1-0.3,0-0.4-0.2
		c-0.2,0.1-0.4,0.1-0.6,0c-0.3-0.1-0.4-0.5-0.4-0.5c-0.1-0.1-1.5-3.9-0.3-5.8c0.4-0.6,0.9-0.9,1.7-1v-4.3v-0.2v-0.1c0,0,0-0.1,0-0.1
		c-0.4-0.3-0.8-0.6-1.2-0.8l0,0h0c0,0,0,0,0,0c0,0,0,0-0.1,0c0,0,0,0,0,0c0,0-0.1,0-0.1,0c-1.2,0.8-4,2-4.4,2.2
		c-0.4-0.2-3.3-1.4-4.4-2.2c0,0,0,0,0,0c0,0,0,0,0,0c-0.1,0-0.1,0-0.2,0c-0.4,0.3-0.9,0.5-1.3,0.9c0,0,0,0,0,0.1v0.1v0.2V28
		c0.6,0.1,1,0.6,1,1.2c0,0.7-0.5,1.2-1.2,1.2c-0.7,0-1.2-0.5-1.2-1.2c0-0.6,0.4-1.1,1-1.2v-6.8v-0.2v-0.2c-0.3,0.2-0.5,0.5-0.8,0.8
		c0,0,0,0,0,0c0,0-0.1,0.1-0.2,0.2c-0.4,0.4-0.7,0.9-1,1.4c-0.5,0.8-1.1,1.9-1.7,3.3c-1.4,3.2-3.3,8.9-4.2,17.5c0,0,0,0.1,0,0.1
		c0,0,0.1,0.1,0.1,0.1l0.6,0.1l-0.1,0.6c-0.3,0.1-1.2,0.6-1.5,2.8C9,49.4,9.1,50.5,9.5,51c0.2,0.2,0.4,0.3,0.6,0.3
		c0.2,0,0.4-0.1,0.4-0.1c1.1-0.2,1.7-3,1.8-3.3c0.1-0.3,0.3-0.4,0.3-0.4c0.1,0,0.1,0.1,0.2,0.1c0,0,0.5,1.2,1.3,1.2
		c0.1,0,0.5,0,0.7-0.3c0,0,0,0,0-0.1v9.2c0,0.1,0.1,0.2,0.2,0.2h4v8.4h4.9v-8.4h1.8v8.4h4.9v-8.4h2.9c0.1,0,0.2-0.1,0.2-0.2V28.5
		c1.5,0.9,3,1.3,4.5,1.3c4.4,0,7.8-3.5,9.5-5.6c0,0,0-0.1,0-0.1c0,0,0-0.1-0.1-0.1l-1-0.6l0.4-0.6c0,0,0,0,0.1,0
		c0.5,0,1.4-0.3,2.5-2.2C50.8,18.7,51.1,17.5,50.8,16.8z M14.5,48.3c-0.1,0.1-0.3,0.2-0.4,0.2h0c-0.6,0-1-1-1-1c0,0-0.2-0.3-0.5-0.3
		c-0.2,0-0.4,0.2-0.6,0.7c-0.2,1.1-0.9,2.9-1.6,3c0,0,0,0-0.1,0c0,0-0.1,0.1-0.3,0.1c-0.1,0-0.2-0.1-0.3-0.2
		c-0.2-0.3-0.5-1.1-0.1-3.2c0.4-2.4,1.3-2.5,1.3-2.5c0.1,0,0.1-0.1,0.2-0.1l0.2-0.8l1,0.1l-0.1,0.5c0,0.1,0,0.1,0.1,0.2
		c0.5,0.2,0.8,0.5,1.1,1c0.1,0.1,0.2,0.3,0.2,0.4c0,0.1,0,0.2,0,0.3c0,0.1,0,0.2,0,0.4c0,0.1,0.2,0.7,0.5,0.8
		C14.4,48.1,14.4,48.2,14.5,48.3C14.5,48.3,14.5,48.3,14.5,48.3z M14.8,48.1c-0.1-0.2-0.3-0.4-0.6-0.5c-0.1,0-0.2-0.3-0.3-0.6
		c0-0.1,0-0.2,0-0.3c0-0.1,0-0.3,0-0.4c0-0.2-0.1-0.4-0.2-0.5c-0.3-0.5-0.6-0.8-1.1-1.1l0-0.4l0.7,0.1c0,0,0,0,0,0c0,0,0.1,0,0.1,0
		c0,0,0.1-0.1,0.1-0.1c0-0.1,0.3-4.3,1.4-8.5V48.1z M27.7,20.5c0.2-0.1,0.3-0.2,0.4-0.2c0.1-0.1,0.2-0.1,0.3-0.2l-0.1,0.2l-1.3,3.1
		l-0.9-0.5L26,22.8l-0.2-0.1l-1.2-0.7C25.3,21.7,26.6,21.1,27.7,20.5z M20.4,20.3c0.1,0.1,0.3,0.2,0.4,0.2c1.1,0.6,2.4,1.2,3.1,1.5
		l-1.2,0.8l-0.1,0.1l-0.1,0.1l-0.9,0.6l-1.3-3.2l-0.1-0.2C20.2,20.2,20.3,20.2,20.4,20.3z M21.7,49.7h-5.3v-0.9h5.3V49.7z
		 M25.4,27.4L25,24.6h-1.5l-0.4,2.9v0l-1.5-3.6l0,0l1-0.7l0.1-0.1l0.1-0.1l0.6,1H25l0.6-1l0.1-0.1l0.1,0.1l0.2,0.1l1,0.6L25.4,27.4z
		 M31.8,49.7h-5.3v-0.9h5.3V49.7z M49.4,20.4c-1.1,1.8-1.9,2-2.2,2c-0.1,0-0.1,0-0.1,0c-0.1,0-0.2,0-0.2,0.1l-0.5,0.7l-0.9-0.5
		l0.2-0.4c0-0.1,0-0.1,0-0.2c-0.4-0.4-0.6-0.9-0.7-1.4c0-0.2,0-0.3,0-0.5c0-0.1,0.1-0.2,0.1-0.4c0-0.1,0.1-0.2,0.1-0.4
		c0-0.2,0.1-0.8-0.1-1c-0.3-0.3-0.3-0.5-0.3-0.5c0-0.1,0-0.1,0-0.1c0.1-0.1,0.4,0,0.5,0c0.6,0.3,0.7,1.4,0.7,1.4
		c0,0.2,0.1,0.5,0.5,0.5c0.2,0,0.4-0.1,0.7-0.5c0.5-0.7,2-2.6,2.8-2.5c0,0,0,0,0.1,0c0,0,0,0,0.1,0c0.2,0,0.4,0,0.5,0.2
		C50.6,17.3,50.7,18.1,49.4,20.4z"/>
	<path id="XMLID_86_" class="st0_ys" d="M18.9,66.6c0,0-2.6,0.3-2.6,2.6h8c0,0,0.2-1.5-0.3-2.6H18.9z"/>
	<path id="XMLID_85_" class="st0_ys" d="M30.7,66.6h-5c-0.5,1.1-0.3,2.6-0.3,2.6h8C33.3,67,30.7,66.6,30.7,66.6z"/>
	<circle id="XMLID_84_" class="st0_ys" cx="20.9" cy="12.9" r="0.7"/>
	<circle id="XMLID_83_" class="st0_ys" cx="27.3" cy="12.9" r="0.7"/>
	<path class="st0_ys" d="M17.5,29.2c0,0.4,0.3,0.7,0.7,0.7c0.4,0,0.7-0.3,0.7-0.7c0-0.4-0.3-0.7-0.7-0.7C17.8,28.5,17.5,28.8,17.5,29.2
		z M18.2,28.7c0.3,0,0.5,0.2,0.5,0.5c0,0.3-0.2,0.5-0.5,0.5c-0.3,0-0.5-0.2-0.5-0.5C17.7,28.9,17.9,28.7,18.2,28.7z"/>
	<path class="st0_ys" d="M16.8,14.8c1.1,3.1,4.1,5.2,7.5,5.2c3.4,0,6.3-2.1,7.5-5.2c0.8-0.1,1.5-0.8,1.5-1.7c0-0.7-0.4-1.3-1-1.6
		c0.1-0.6,0.2-1.3,0.2-1.9c0-0.1,0-0.3,0-0.4c1.4-0.7,2.7-1.8,4-3.2l-2.4,0.5l0.4-1.2c0,0-1.4,1.4-3.5-0.9c-1.5-2.1-3.9-3.5-6.5-3.5
		c-4.5,0-8.1,3.9-8.1,8.7c0,0.6,0.1,1.3,0.2,1.9c-0.7,0.2-1.1,0.9-1.1,1.6C15.2,14,15.9,14.7,16.8,14.8z M16.5,12.1
		c0.1,0,0.1-0.1,0.2-0.1c0,0,0,0,0.1,0c0.2,0,0.3-0.2,0.3-0.3c0,0,0,0,0,0c0.1-1.2,0.4-2.4,1-3.4c2.1,1.1,7.6,3.5,13,1.4
		c0.2,0.6,0.3,1.3,0.4,2c0,0,0,0,0,0c0,0.2,0.1,0.3,0.3,0.3c0,0,0.1,0,0.1,0c0.1,0,0.1,0,0.2,0.1c0.3,0.2,0.5,0.5,0.5,0.9
		c0,0.6-0.4,1-1,1c0,0,0,0,0,0c0,0,0,0,0,0c0,0,0,0-0.1,0c-0.2,0-0.3,0.1-0.4,0.2c0,0,0,0,0,0c-1,3-3.7,5-6.9,5c-3.1,0-5.9-2-6.9-5
		c0,0,0,0,0,0c0-0.1-0.2-0.2-0.3-0.2c0,0,0,0,0,0l0,0c0,0,0,0,0,0c0,0,0,0-0.1,0c-0.5,0-1-0.5-1-1C15.9,12.6,16.1,12.3,16.5,12.1z"
		/>
</g>
</svg>
