<?xml version="1.0" encoding="utf-8"?>
<!-- Generator: Adobe Illustrator 19.0.0, SVG Export Plug-In . SVG Version: 6.00 Build 0)  -->
<svg version="1.1" id="图层_1" xmlns="http://www.w3.org/2000/svg" xmlns:xlink="http://www.w3.org/1999/xlink" x="0px" y="0px"
	 viewBox="0 0 60 70" style="enable-background:new 0 0 60 70;" xml:space="preserve">
<style type="text/css">
	.st0_hs{fill:#17E5E5;}
</style>
<g>
	<circle id="XMLID_129_" class="st0_hs" cx="28.2" cy="16.6" r="0.8"/>
	<circle id="XMLID_128_" class="st0_hs" cx="35" cy="16.6" r="0.8"/>
	<path class="st0_hs" d="M23.5,7.9c-1,1.5-1.6,3.2-1.6,5.1c0,0,0,4.4,2.5,6.9c1.4,2.5,4.2,4.2,7.3,4.2c3.5,0,6.5-2.2,7.8-5.3
		c0.8-1.3,1.5-3.1,1.5-5.9c0-2-0.6-3.8-1.7-5.3l2-4.7c0.1-0.2,0-0.4-0.2-0.5C41,2.4,37,0.2,31.3,0.2c-3.3,0-6.5,0.8-9.5,2.3
		c-0.2,0.1-0.2,0.3-0.2,0.5L23.5,7.9z M31.3,1c4.6,0,8.2,1.5,9.2,2l-1.8,4l-0.6,1.4l-0.1,0.2c-2.2-0.9-4.4-1.3-6.8-1.3
		c-2.5,0-4.4,0.5-5.7,0.9c-0.5,0.2-0.8,0.3-1.1,0.4L24,7.2L22.4,3C25.2,1.6,28.2,1,31.3,1z M31.7,23.4c-2.1,0-4-0.8-5.4-2.2
		c-1.4-1.4-2.3-3.3-2.3-5.4c0-0.3,0-0.6,0-0.8c1-0.7,2.6-2.2,3.6-4.9c0,0,3.7,5.5,11.6,5.5c0,0.1,0,0.1,0,0.2c0,2-0.8,3.8-2.1,5.2
		C35.9,22.4,33.9,23.4,31.7,23.4z"/>
	<path class="st0_hs" d="M31.5,6.6c0.8,0,1.5-0.4,2-1c0.3-0.4,0.5-1,0.5-1.6c0,0,0-0.1,0-0.1c-0.1-1.3-1.2-2.4-2.5-2.4
		c-1.4,0-2.5,1.1-2.5,2.4c0,0,0,0.1,0,0.1c0,0.7,0.2,1.2,0.6,1.7C30.1,6.3,30.7,6.6,31.5,6.6z M29.8,3.6H31V2.4h1v1.2h1.2v0.2v0.8
		H32v0.9v0.3h-1V5.5V4.6h-1.2V3.8V3.6z"/>
	<path class="st0_hs" d="M38,38.9c0.7-0.3,1.3-0.8,1.8-1.4c1.2-1.4,1.7-3.3,1.6-5.7l0.7-0.1c0.1,0,0.2-0.1,0.2-0.2
		c0.4-3.9-3-6.5-3.6-6.9c-0.3-0.3-0.7-0.5-1.1-0.6c-0.5-0.2-1-0.4-1.4-0.5l0,0c0,0,0,0,0,0c0,0,0,0,0,0c0,0-0.1,0-0.1,0c0,0,0,0,0,0
		c0,0,0,0,0,0c-1.1,0.8-3.7,1.9-4.2,2.1c-0.4-0.2-3.1-1.3-4.1-2.1c0,0,0,0,0,0c0,0,0,0,0,0c0,0-0.1,0-0.1,0
		c-0.5,0.1-1.1,0.3-1.7,0.6c0,0,0,0,0,0c-0.3,0.1-0.5,0.3-0.8,0.5c-0.3,0.2-2.8,2-3.5,4.9l-0.1,0.1l-0.1-0.2c0-0.1-0.1-0.1-0.1-0.1
		c-0.1,0-0.1,0-0.2,0l-0.3,0.2l0,0c0.2-0.3,0.2-0.5,0.1-0.7c-0.1-0.1-0.3-0.2-0.5-0.2c-0.2,0-0.4,0.1-0.6,0.2
		c-0.4,0.3-0.7,0.8-0.5,1.1c0.1,0.2,0.4,0.2,0.6,0.2l0,0l-0.4,0.3c0,0-0.1,0.1-0.1,0.1c0,0.1,0,0.1,0.1,0.1l0.1,0.1l-2.7,1.7
		l2.5,3.7L19,36.6c0,0,0,0,0,0c-0.3,0.3,0,0.7,0,0.8c0.1,0.1,0.2,0.2,0.3,0.2c-0.1,0.2,0,0.4,0.1,0.6c0.1,0.2,0.3,0.3,0.4,0.3
		c0,0.2,0.1,0.5,0.1,0.6c0.1,0.2,0.3,0.2,0.4,0.2c0,0.2,0.1,0.3,0.1,0.4c0.1,0.2,0.3,0.2,0.4,0.2c0.2,0,0.3-0.1,0.3-0.1h0l0.5-0.3
		l1.8,2.6c-1.3,2.4-2.5,5.9-2.8,11.1c0,0,0,0.1,0,0.1c0,0,0.1,0.1,0.1,0.1h22.2c0,0,0.1,0,0.1-0.1c0,0,0.1-0.1,0-0.1
		C42.7,44.8,39.9,40.7,38,38.9z M39.5,37.3c-0.5,0.6-1.2,1-1.8,1.4c-0.1,0-0.1,0.1-0.2,0.1c-0.1,0-0.1,0.1-0.2,0.1
		c-0.2,0.1-0.4,0.2-0.7,0.2c-0.1,0-0.1,0-0.2,0.1c-0.1,0-0.1,0-0.2,0.1c-1.1,0.3-2.1,0.4-3.1,0.4c-1,0-1.9-0.1-2.4-0.2
		c-0.1,0-0.1,0-0.2,0c-0.2,0.2-0.5,0.3-0.9,0.3c-0.5,0-0.9-0.1-0.9-0.2c-0.1,0-0.2-0.1-0.3-0.1c-0.3-0.1-0.5-0.3-0.6-0.5
		c-0.1-0.1-0.1-0.2-0.1-0.3c-0.1-0.2-0.1-0.5,0-0.7c0-0.1,0-0.1,0-0.2c0-0.1,0-0.1,0.1-0.2c0.2-0.5,0.5-0.8,0.5-0.8c0,0,0-0.1,0-0.1
		c0,0,0,0,0-0.1c0,0,0-0.1-0.1-0.1c0,0-0.1,0-0.1,0c0,0,0,0,0,0c-0.4,0-0.7,0.1-1,0.1c-0.2,0-0.3,0-0.5,0c-0.1,0-0.1,0-0.2,0
		c-0.1,0-0.1,0-0.2,0C26,36.4,26,36.4,26,36.4c0,0,0,0,0,0c0-0.1,0.1-0.1,0.2-0.2c0,0,0.1,0,0.2-0.1c0.1,0,0.1,0,0.2,0
		c0.2,0,0.4-0.1,0.7-0.1c0.2,0,0.4,0,0.6,0c0,0,0.1,0,0.1,0c0.3,0,0.6,0,0.8,0.1c1.6,0.2,2.1,1.1,2.3,1.7c0,0.1,0,0.1,0.1,0.2
		c0,0,0,0,0,0c0,0.1,0.1,0.1,0.1,0.1c0.1,0,0.2,0,0.3,0c1.1,0.1,2.1,0.1,3,0c0.3,0,0.6-0.1,0.8-0.2c0.2-0.1,0.4-0.1,0.5-0.2
		c0.3-0.1,0.5-0.2,0.8-0.4c0.1,0,0.2-0.1,0.2-0.1c0.1-0.1,0.2-0.1,0.2-0.2c0.2-0.2,0.4-0.4,0.6-0.6c1.2-1.4,1.2-3.3,1.2-4.3l2.1-0.2
		C41.2,34.2,40.7,36,39.5,37.3z M29,47.1v1.2h-6v-1.2H29z M40.4,48.3h-6v-1.2h6V48.3z M26.2,24.4c0.3-0.2,0.7-0.3,1.2-0.5
		c0,0,0,0,0,0c0,0,0,0,0,0c0,0.2,0.1,0.5,0.3,0.8c0.1,0.1,0.1,0.3,0.2,0.4c0.4,0.6,1,1.2,2,1.6l0.7,2.2l0.4,1.1l-0.4-0.7l-1.3-2.3
		c0,0-0.1-0.1-0.1-0.1c0,0-0.1,0-0.1,0C28.7,26.9,27.2,26.4,26.2,24.4C26.2,24.4,26.2,24.4,26.2,24.4z M31.7,33
		c0.3,0,0.5,0.2,0.5,0.5c0,0.3-0.2,0.5-0.5,0.5c-0.3,0-0.5-0.2-0.5-0.5C31.2,33.2,31.5,33,31.7,33z M31.7,36.8
		c0.3,0,0.5,0.2,0.5,0.5c0,0.2-0.1,0.3-0.2,0.4c0,0,0,0-0.1,0c-0.1,0-0.2,0-0.3,0c-0.1,0-0.1,0-0.2,0c0-0.1-0.1-0.3-0.2-0.5
		C31.3,36.9,31.5,36.8,31.7,36.8z M37.4,24.4c-1.2,2.1-3.1,2.6-3.1,2.6c0,0-0.1,0-0.1,0.1l-0.8,1.6l-0.8,1.4l0.1-0.4l0.7-2.1
		l0.3-0.9c1.1-0.4,1.7-1.2,2.1-1.8c0.1-0.2,0.2-0.3,0.2-0.4c0.1-0.2,0.2-0.5,0.2-0.6c0,0,0,0,0,0c0,0,0,0,0,0
		C36.6,24.1,37.1,24.2,37.4,24.4C37.5,24.4,37.5,24.4,37.4,24.4z M19.8,30.6l0.1-0.1l0,0l0.2,0.4L19.8,30.6L19.8,30.6z M21.1,29.8
		L21.1,29.8l0.1,0.4L21.1,29.8L21,29.9L21.1,29.8z M20.8,30l0.5,0.6l0,0l-0.8,0.6l0,0l-0.3-0.7l0,0L20.8,30L20.8,30z M20.7,39.5
		C20.7,39.5,20.7,39.4,20.7,39.5c-0.1-0.1-0.1-0.2-0.1-0.2l0.6-0.3l0.4-0.2c0,0,0.1-0.1,0.2-0.1c0,0,0.1,0,0.1,0c0,0,0,0,0,0.1
		c0,0,0,0.1-0.1,0.1l-0.5,0.3L20.7,39.5C20.8,39.4,20.7,39.5,20.7,39.5z M20.2,38.8c-0.1-0.1-0.1-0.2-0.1-0.3l0.6-0.3l0.7-0.4l0.1,0
		c0,0,0.2-0.1,0.3-0.1c0.1,0,0.1,0,0.1,0.1c0,0,0.1,0.1,0,0.1c0,0.1-0.1,0.1-0.2,0.1l-0.2,0.1l-0.6,0.4l-0.5,0.3c0,0-0.1,0-0.1,0
		C20.3,38.9,20.2,38.9,20.2,38.8z M19.6,37.7l0.5-0.3l0.6-0.4l0.5-0.3c0.1,0,0.2-0.1,0.4-0.1c0.1,0,0.2,0.1,0.2,0.1c0,0,0,0.1,0,0.1
		c0,0.1-0.1,0.2-0.2,0.2l-0.6,0.3l-0.6,0.4L20,38.1c0,0-0.1,0-0.1,0c-0.1,0-0.2,0-0.2-0.1C19.6,38,19.5,37.8,19.6,37.7z M19.2,37.2
		c-0.1-0.1-0.1-0.3-0.1-0.4l0.4-0.3l0.6-0.4l0.3-0.2c0,0,0.2-0.1,0.3-0.1c0.1,0,0.1,0,0.2,0.1c0,0,0.1,0.1,0.1,0.2
		c0,0.1-0.1,0.1-0.2,0.2l-0.4,0.3L19.9,37l-0.4,0.2c0,0-0.1,0-0.1,0C19.4,37.3,19.3,37.3,19.2,37.2z M22.1,39c0-0.1,0.1-0.1,0.1-0.2
		c0-0.2-0.1-0.4-0.1-0.4c0-0.1-0.1-0.1-0.1-0.1c0.2-0.1,0.2-0.3,0.3-0.3c0-0.2-0.1-0.4-0.1-0.4c-0.1-0.1-0.1-0.2-0.2-0.2
		c0.2-0.1,0.3-0.3,0.3-0.4c0-0.2-0.1-0.4-0.1-0.4c-0.1-0.2-0.3-0.3-0.5-0.3c-0.1,0-0.1,0-0.2,0c0,0,0,0,0,0c0.1-0.3-0.1-0.5-0.1-0.5
		c-0.1-0.2-0.3-0.2-0.5-0.2c-0.2,0-0.5,0.1-0.5,0.1l-0.4,0.2l-2.1-3.1l2.2-1.4l0.2,0.2c0,0,0.1,0,0.1,0c0,0,0.1,0,0.1,0l0.8-0.6
		l0.2-0.1l0.2-0.1c0,0,0,0,0,0c0-0.1,0.1-0.1,0-0.2l0,0l-0.1-0.2l0.1-0.1l1.6-1l1.7,2.5l0.1,0.2l0,0l0.1,0.2l0.2,0.2l0.3,0.4
		l1.9,2.8c-0.1,0-0.3,0-0.4,0c-0.1,0-0.4,0-0.8,0.1c-0.1,0-0.1,0-0.2,0c-0.1,0-0.1,0-0.2,0.1c-0.2,0.1-0.4,0.3-0.5,0.5
		c0,0.1,0,0.2,0.1,0.3c0.1,0.2,0.3,0.3,0.7,0.3c0.1,0,0.1,0,0.2,0c0.1,0,0.1,0,0.2,0c0.3,0,0.6,0,1.1,0c-0.1,0.2-0.3,0.5-0.4,0.7
		c0,0.1,0,0.1-0.1,0.2c0,0.1,0,0.2,0,0.2c0,0.2,0,0.5,0,0.7c0,0.1,0.1,0.3,0.2,0.4l-0.2,0.2l-0.2,0.1L27,39.6l-3.1,2.1l0,0l-0.1-0.2
		l-0.1-0.2L22.1,39z"/>
	<polygon id="XMLID_80_" class="st0_hs" points="28.2,64.8 28.5,67 25.6,69.8 30.7,69.8 30.7,67.8 30.7,67.5 30.8,64.7 31,54.5 
		27,54.5 	"/>
	<polygon id="XMLID_79_" class="st0_hs" points="35.4,64.8 36.6,54.5 32.6,54.5 32.9,64.7 32.9,67.5 32.9,67.8 32.9,69.8 38.1,69.8 
		35.1,67 	"/>
</g>
</svg>
