<?xml version="1.0" encoding="utf-8"?>
<!-- Generator: Adobe Illustrator 19.0.0, SVG Export Plug-In . SVG Version: 6.00 Build 0)  -->
<svg version="1.1" id="图层_1" xmlns="http://www.w3.org/2000/svg" xmlns:xlink="http://www.w3.org/1999/xlink" x="0px" y="0px"
	 viewBox="0 0 92 65" style="enable-background:new 0 0 92 65;" xml:space="preserve">
<style type="text/css">
	.st0_sr{fill:#78C5FF;}
</style>
<g>
	<g>
		<path id="XMLID_145_" class="st0_sr" d="M62.4,50.6c2.2,0.3,4.8,0.5,7.5,0.5c8.6,0,15.5-1.7,15.5-3.8v-3.8c0-0.2-0.1-0.4-0.2-0.6
			c-1.2,1.8-7.6,3.2-15.3,3.2c-2.7,0-5.3-0.2-7.5-0.5v3.4V50.6z"/>
		<path id="XMLID_144_" class="st0_sr" d="M69.9,44.4c8.6,0,15.5-1.7,15.5-3.8v-3.8c0-0.2-0.1-0.4-0.1-0.5c-1,1.9-7.5,3.3-15.4,3.3
			c-2.7,0-5.3-0.2-7.5-0.5V44C64.6,44.3,67.2,44.4,69.9,44.4z"/>
		<path id="XMLID_143_" class="st0_sr" d="M69.9,37.9c8.6,0,15.5-1.7,15.5-3.8v-3.8c0-0.2,0-0.3-0.1-0.5c-0.9,1.9-7.5,3.4-15.4,3.4
			c-2.7,0-5.3-0.2-7.5-0.5v4.8C64.6,37.8,67.2,37.9,69.9,37.9z"/>
		<path id="XMLID_142_" class="st0_sr" d="M69.9,31.6c8.6,0,15.5-1.7,15.5-3.8v-3.8c0-0.1,0-0.1,0-0.2c-0.4,2-7.2,3.7-15.5,3.7
			c-2.7,0-5.3-0.2-7.5-0.5v4.2C64.6,31.4,67.2,31.6,69.9,31.6z"/>
		<path id="XMLID_141_" class="st0_sr" d="M69.9,21.3c-8.1,0-14.8-1.5-15.5-3.5c0,0.1-0.1,0.2-0.1,0.3v2.2c4.8,0.7,8.1,1.9,8.1,3.4v1.6
			v0.1c2.2,0.3,4.8,0.5,7.5,0.5c8.6,0,15.5-1.7,15.5-3.8v-3.8c0-0.1,0-0.2-0.1-0.3C84.7,19.8,78.1,21.3,69.9,21.3z"/>
		<path id="XMLID_140_" class="st0_sr" d="M69.9,14.8c-7.9,0-14.4-1.4-15.4-3.3c-0.1,0.2-0.1,0.3-0.1,0.5v3.8c0,2.1,7,3.8,15.5,3.8
			c8.6,0,15.5-1.7,15.5-3.8v-3.8c0-0.2-0.1-0.4-0.1-0.5C84.3,13.4,77.8,14.8,69.9,14.8z"/>
		<path id="XMLID_139_" class="st0_sr" d="M69.9,1.7c-8.6,0-15.5,1.7-15.5,3.8v3.8c0,2.1,7,3.8,15.5,3.8c8.6,0,15.5-1.7,15.5-3.8V5.5
			C85.5,3.4,78.5,1.7,69.9,1.7z"/>
	</g>
	<g>
		<path id="XMLID_138_" class="st0_sr" d="M39.6,58.3c1.7,0.2,3.5,0.2,5.4,0.2c8.6,0,15.5-1.7,15.5-3.8v-3.8c0-0.2-0.1-0.4-0.2-0.6
			c-1.2,1.8-7.6,3.2-15.3,3.2c-1.9,0-3.7-0.1-5.4-0.2v1.3V58.3z"/>
		<path id="XMLID_137_" class="st0_sr" d="M39.6,49.2v2.4v0.1c1.7,0.2,3.5,0.2,5.4,0.2c8.6,0,15.5-1.7,15.5-3.8v-3.8
			c0-0.2-0.1-0.4-0.1-0.5c-1,1.9-7.5,3.3-15.4,3.3c-1.9,0-3.7-0.1-5.4-0.2v0.8V49.2z"/>
		<path id="XMLID_136_" class="st0_sr" d="M39.6,42.4v2.3v0.4c1.7,0.2,3.5,0.2,5.4,0.2c8.6,0,15.5-1.7,15.5-3.8v-3.8
			c0-0.2,0-0.3-0.1-0.5c-0.9,1.9-7.5,3.4-15.4,3.4c-1.9,0-3.8-0.1-5.5-0.2c0,0.1,0.1,0.2,0.1,0.4V42.4z"/>
		<path id="XMLID_135_" class="st0_sr" d="M45,34.9c-8.3,0-15.2-1.6-15.5-3.7c0,0.1,0,0.1,0,0.2v3.8c0,0.8,0.9,1.5,2.4,2.1
			c2,0.3,3.8,0.7,5.1,1.2c2.3,0.4,5.1,0.6,8,0.6c8.6,0,15.5-1.7,15.5-3.8v-3.8c0-0.1,0-0.1,0-0.2C60.1,33.2,53.3,34.9,45,34.9z"/>
		<path id="XMLID_134_" class="st0_sr" d="M45,21.7c-8.6,0-15.5,1.7-15.5,3.8v3.8c0,2.1,7,3.8,15.5,3.8c8.6,0,15.5-1.7,15.5-3.8v-3.8
			C60.5,23.4,53.5,21.7,45,21.7z"/>
	</g>
	<g>
		<path id="XMLID_133_" class="st0_sr" d="M22.1,58.2c-7.7,0-14.2-1.4-15.3-3.2c-0.1,0.2-0.2,0.4-0.2,0.6v3.8c0,2.1,7,3.8,15.5,3.8
			c8.6,0,15.5-1.7,15.5-3.8v-3.8c0-0.2-0.1-0.4-0.2-0.6C36.3,56.8,29.8,58.2,22.1,58.2z"/>
		<path id="XMLID_132_" class="st0_sr" d="M22.1,51.8c-7.9,0-14.4-1.4-15.4-3.3c-0.1,0.2-0.1,0.3-0.1,0.5v3.8c0,2.1,7,3.8,15.5,3.8
			c8.6,0,15.5-1.7,15.5-3.8V49c0-0.2-0.1-0.4-0.1-0.5C36.5,50.3,30,51.8,22.1,51.8z"/>
		<path id="XMLID_131_" class="st0_sr" d="M6.5,46.3c0,2.1,7,3.8,15.5,3.8c8.6,0,15.5-1.7,15.5-3.8v-3.8c0-2.1-7-3.8-15.5-3.8
			c-8.6,0-15.5,1.7-15.5,3.8V46.3z"/>
	</g>
</g>
</svg>
