<?xml version="1.0" encoding="utf-8"?>
<!-- Generator: Adobe Illustrator 19.0.0, SVG Export Plug-In . SVG Version: 6.00 Build 0)  -->
<svg version="1.1" id="图层_1" xmlns="http://www.w3.org/2000/svg" xmlns:xlink="http://www.w3.org/1999/xlink" x="0px" y="0px"
	 viewBox="0 0 92 65" style="enable-background:new 0 0 92 65;" xml:space="preserve">
<style type="text/css">
	.st0_zc{fill:#97FFE1;}
</style>
<g>
	<path class="st0_zc" d="M15.5,18.8v42.3H91V18.8H15.5z M53.2,57.2c-8.3,0-15.1-7.8-15.1-17.3c0-9.6,6.7-17.3,15.1-17.3
		c8.3,0,15.1,7.8,15.1,17.3C68.3,49.5,61.6,57.2,53.2,57.2z"/>
	<polygon id="XMLID_133_" class="st0_zc" points="13.1,16 83.8,16 83.8,11.2 8.2,11.2 8.2,53.5 13.1,53.5 	"/>
	<polygon id="XMLID_132_" class="st0_zc" points="5.8,8.8 76.5,8.8 76.5,3.9 1,3.9 1,46.2 5.8,46.2 	"/>
	<g>
		<path class="st0_zc" d="M52,50.4v-5.6h-4.7v-1.6H52v-2.3h-4.7v-1.6h3.9l-5.1-9.7H49l3.1,6.6c0.5,1.1,0.8,2,1.2,2.9h0.1
			c0.3-0.9,0.7-1.9,1.2-3l3.3-6.6h2.8l-5.4,9.7h3.9v1.6h-4.7v2.3h4.7v1.6h-4.7v5.6H52z"/>
	</g>
</g>
</svg>
