<?xml version="1.0" encoding="utf-8"?>
<!-- Generator: Adobe Illustrator 19.0.0, SVG Export Plug-In . SVG Version: 6.00 Build 0)  -->
<svg version="1.1" id="图层_1" xmlns="http://www.w3.org/2000/svg" xmlns:xlink="http://www.w3.org/1999/xlink" x="0px" y="0px"
	 viewBox="0 0 930 408" style="enable-background:new 0 0 930 408;" xml:space="preserve">
<style type="text/css">
	.st0_hns{opacity:0.6;fill:#1561C0;fill-opacity:0.6;stroke:#1561C0;stroke-miterlimit:10;}
	.st1_hns{fill:#1561C0;}
	.st2_hns{fill:#00BEFF;}
	.st3_hns{clip-path:url(#XMLID_9_);}
</style>
<g id="左侧">
	<polygon id="XMLID_325_" class="st0_hns" points="11.2,16 22.1,7.8 42.5,7.8 45.2,6.3 513.9,6.3 516.7,7.8 537.4,7.8 566.6,51.8 
		11.2,51.8 	"/>
	<g id="XMLID_324_">
		<polygon id="XMLID_12694_" class="st1_hns" points="591.6,52 569.7,52 539.2,5.6 516.7,5.6 516.7,1.6 541,1.6 571.5,48 591.6,48 		"/>
	</g>
	<g id="XMLID_323_">
		<polygon id="XMLID_12690_" class="st1_hns" points="68.8,397.9 63.9,401.5 76.7,401.5 81.6,397.9 		"/>
		<polygon id="XMLID_12691_" class="st1_hns" points="47.9,397.9 43,401.5 55.8,401.5 60.8,397.9 		"/>
		<polygon id="XMLID_12692_" class="st1_hns" points="110.6,397.9 105.7,401.5 118.5,401.5 123.4,397.9 		"/>
		<polygon id="XMLID_12693_" class="st1_hns" points="89.7,397.9 84.8,401.5 97.6,401.5 102.5,397.9 		"/>
	</g>
	<polygon id="XMLID_322_" class="st1_hns" points="919.9,54.8 919.7,384.7 900.4,401.5 7.2,401.5 7.2,13.9 19.4,4.5 539.4,4.5 570.1,51 
		761,51.3 780.9,28.3 903.4,28.6 905.7,26.6 779.9,26.6 759.4,48.6 570.3,48.6 539.6,3.6 18.7,3.6 2.2,15.5 2.2,404 2.2,405.8 
		40.2,405.8 39.9,406 52.7,406 53,405.8 61,405.8 60.8,406 73.6,406 73.9,405.8 81.9,405.8 81.6,406 94.4,406 94.7,405.8 
		102.8,405.8 102.5,406 115.3,406 115.6,405.8 898.6,406 924.9,385.1 925,49.6 	"/>
	<g id="XMLID_321_">
		<polygon id="XMLID_12699_" class="st2_hns" points="928.4,67.4 926.4,69.9 926.4,47.7 907.4,24.6 881.4,24.6 883.9,22.6 908.4,22.6 
			928.4,47.1 		"/>
	</g>
	<g id="XMLID_189_">
		
			<rect id="XMLID_320_" x="914.4" y="38.5" transform="matrix(0.624 0.7814 -0.7814 0.624 375.0313 -699.7667)" class="st1_hns" width="0.6" height="2.6"/>
		
			<rect id="XMLID_319_" x="905.1" y="27" transform="matrix(0.624 0.7814 -0.7814 0.624 362.5506 -696.8456)" class="st1_hns" width="0.6" height="2.6"/>
		
			<rect id="XMLID_318_" x="905.8" y="28" transform="matrix(0.624 0.7814 -0.7814 0.624 363.5907 -697.0891)" class="st1_hns" width="0.6" height="2.6"/>
		
			<rect id="XMLID_317_" x="906.6" y="28.9" transform="matrix(0.624 0.7814 -0.7814 0.624 364.6307 -697.3325)" class="st1_hns" width="0.6" height="2.6"/>
		
			<rect id="XMLID_316_" x="907.4" y="29.9" transform="matrix(0.624 0.7814 -0.7814 0.624 365.6708 -697.5759)" class="st1_hns" width="0.6" height="2.6"/>
		
			<rect id="XMLID_315_" x="908.2" y="30.9" transform="matrix(0.624 0.7814 -0.7814 0.624 366.7108 -697.8193)" class="st1_hns" width="0.6" height="2.6"/>
		
			<rect id="XMLID_214_" x="908.9" y="31.8" transform="matrix(0.624 0.7814 -0.7814 0.624 367.7509 -698.0627)" class="st1_hns" width="0.6" height="2.6"/>
		
			<rect id="XMLID_213_" x="909.7" y="32.8" transform="matrix(0.624 0.7814 -0.7814 0.624 368.791 -698.3062)" class="st1_hns" width="0.6" height="2.6"/>
		
			<rect id="XMLID_212_" x="910.5" y="33.7" transform="matrix(0.624 0.7814 -0.7814 0.624 369.831 -698.5496)" class="st1_hns" width="0.6" height="2.6"/>
		
			<rect id="XMLID_211_" x="911.3" y="34.7" transform="matrix(0.624 0.7814 -0.7814 0.624 370.8711 -698.793)" class="st1_hns" width="0.6" height="2.6"/>
		
			<rect id="XMLID_210_" x="912" y="35.7" transform="matrix(0.624 0.7814 -0.7814 0.624 371.9111 -699.0364)" class="st1_hns" width="0.6" height="2.6"/>
		
			<rect id="XMLID_209_" x="912.8" y="36.6" transform="matrix(0.624 0.7814 -0.7814 0.624 372.9512 -699.2798)" class="st1_hns" width="0.6" height="2.6"/>
		
			<rect id="XMLID_208_" x="913.6" y="37.6" transform="matrix(0.624 0.7814 -0.7814 0.624 373.9912 -699.5232)" class="st1_hns" width="0.6" height="2.6"/>
		
			<rect id="XMLID_207_" x="915.1" y="39.5" transform="matrix(0.624 0.7814 -0.7814 0.624 376.0713 -700.0101)" class="st1_hns" width="0.6" height="2.6"/>
		
			<rect id="XMLID_206_" x="915.9" y="40.4" transform="matrix(0.624 0.7814 -0.7814 0.624 377.1114 -700.2535)" class="st1_hns" width="0.6" height="2.6"/>
		
			<rect id="XMLID_205_" x="916.7" y="41.4" transform="matrix(0.624 0.7814 -0.7814 0.624 378.1514 -700.4969)" class="st1_hns" width="0.6" height="2.6"/>
		
			<rect id="XMLID_204_" x="917.3" y="42.3" transform="matrix(0.619 0.7854 -0.7854 0.619 383.9054 -704.1177)" class="st1_hns" width="0.6" height="2.6"/>
		
			<rect id="XMLID_203_" x="918.1" y="43.3" transform="matrix(0.619 0.7854 -0.7854 0.619 384.9547 -704.3527)" class="st1_hns" width="0.6" height="2.6"/>
		
			<rect id="XMLID_201_" x="918.9" y="44.2" transform="matrix(0.619 0.7854 -0.7854 0.619 386.004 -704.5876)" class="st1_hns" width="0.6" height="2.6"/>
		
			<rect id="XMLID_197_" x="919.6" y="45.2" transform="matrix(0.619 0.7854 -0.7854 0.619 387.0533 -704.8225)" class="st1_hns" width="0.6" height="2.6"/>
		
			<rect id="XMLID_193_" x="920.4" y="46.2" transform="matrix(0.619 0.7854 -0.7854 0.619 388.1027 -705.0574)" class="st1_hns" width="0.6" height="2.6"/>
		
			<rect id="XMLID_192_" x="921.2" y="47.1" transform="matrix(0.619 0.7854 -0.7854 0.619 389.152 -705.2924)" class="st1_hns" width="0.6" height="2.6"/>
	</g>
	<g id="XMLID_168_">
		<polygon id="XMLID_169_" class="st2_hns" points="870.6,400.8 870.6,406.4 901,406.4 925,386.2 925,364.1 919.4,364.1 919.4,385.1 
			900.5,400.8 		"/>
	</g>
	<g id="XMLID_46_">
		<defs>
			<polygon id="XMLID_56_" points="921.2,54.3 761.7,54.3 782.7,29.9 925,29.9 			"/>
		</defs>
		<clipPath id="XMLID_9_">
			<use xlink:href="#XMLID_56_"  style="overflow:visible;"/>
		</clipPath>
		<g id="XMLID_12700_" class="st3_hns">
			<polygon id="XMLID_164_" class="st1_hns" points="800.2,51 797.7,51 782.8,31.6 785.3,31.6 			"/>
			<polygon id="XMLID_160_" class="st1_hns" points="804.5,51 802.1,51 787.2,31.6 789.6,31.6 			"/>
			<polygon id="XMLID_159_" class="st1_hns" points="808.9,51 806.5,51 791.6,31.6 794,31.6 			"/>
			<polygon id="XMLID_158_" class="st1_hns" points="813.3,51 810.8,51 795.9,31.6 798.4,31.6 			"/>
			<polygon id="XMLID_157_" class="st1_hns" points="817.7,51 815.2,51 800.3,31.6 802.8,31.6 			"/>
			<polygon id="XMLID_156_" class="st1_hns" points="822.1,51 819.6,51 804.7,31.6 807.2,31.6 			"/>
			<polygon id="XMLID_155_" class="st1_hns" points="826.5,51 824,51 809.1,31.6 811.5,31.6 			"/>
			<polygon id="XMLID_154_" class="st1_hns" points="830.8,51 828.4,51 813.5,31.6 815.9,31.6 			"/>
			<polygon id="XMLID_153_" class="st1_hns" points="765.1,51 762.7,51 747.8,31.6 750.2,31.6 			"/>
			<polygon id="XMLID_152_" class="st1_hns" points="769.5,51 767,51 752.1,31.6 754.6,31.6 			"/>
			<polygon id="XMLID_150_" class="st1_hns" points="773.9,51 771.4,51 756.5,31.6 759,31.6 			"/>
			<polygon id="XMLID_149_" class="st1_hns" points="778.3,51 775.8,51 760.9,31.6 763.4,31.6 			"/>
			<polygon id="XMLID_146_" class="st1_hns" points="782.6,51 780.2,51 765.3,31.6 767.7,31.6 			"/>
			<polygon id="XMLID_145_" class="st1_hns" points="787,51 784.6,51 769.7,31.6 772.1,31.6 			"/>
			<polygon id="XMLID_144_" class="st1_hns" points="791.4,51 788.9,51 774,31.6 776.5,31.6 			"/>
			<polygon id="XMLID_139_" class="st1_hns" points="795.8,51 793.3,51 778.4,31.6 780.9,31.6 			"/>
			<polygon id="XMLID_137_" class="st1_hns" points="835.2,51 832.8,51 817.8,31.6 820.3,31.6 			"/>
			<polygon id="XMLID_135_" class="st1_hns" points="839.6,51 837.1,51 822.2,31.6 824.7,31.6 			"/>
			<polygon id="XMLID_134_" class="st1_hns" points="848.4,51 845.9,51 831,31.6 833.5,31.6 			"/>
			<polygon id="XMLID_133_" class="st1_hns" points="844,51 841.5,51 826.6,31.6 829.1,31.6 			"/>
			<polygon id="XMLID_132_" class="st1_hns" points="857.1,51 854.7,51 839.8,31.6 842.2,31.6 			"/>
			<polygon id="XMLID_130_" class="st1_hns" points="865.9,51 863.4,51 848.5,31.6 851,31.6 			"/>
			<polygon id="XMLID_127_" class="st1_hns" points="883.4,51 880.9,51 866,31.6 868.5,31.6 			"/>
			<polygon id="XMLID_125_" class="st1_hns" points="900.9,51 898.5,51 883.6,31.6 886,31.6 			"/>
			<polygon id="XMLID_124_" class="st1_hns" points="874.6,51 872.2,51 857.3,31.6 859.7,31.6 			"/>
			<polygon id="XMLID_121_" class="st1_hns" points="892.2,51 889.7,51 874.8,31.6 877.3,31.6 			"/>
			<polygon id="XMLID_120_" class="st1_hns" points="909.7,51 907.2,51 892.3,31.6 894.8,31.6 			"/>
			<polygon id="XMLID_119_" class="st1_hns" points="918.4,51 916,51 901.1,31.6 903.5,31.6 			"/>
			<polygon id="XMLID_118_" class="st1_hns" points="852.7,51 850.3,51 835.4,31.6 837.8,31.6 			"/>
			<polygon id="XMLID_117_" class="st1_hns" points="861.5,51 859,51 844.1,31.6 846.6,31.6 			"/>
			<polygon id="XMLID_116_" class="st1_hns" points="870.3,51 867.8,51 852.9,31.6 855.4,31.6 			"/>
			<polygon id="XMLID_107_" class="st1_hns" points="887.8,51 885.3,51 870.4,31.6 872.9,31.6 			"/>
			<polygon id="XMLID_105_" class="st1_hns" points="879,51 876.6,51 861.7,31.6 864.1,31.6 			"/>
			<polygon id="XMLID_102_" class="st1_hns" points="896.5,51 894.1,51 879.2,31.6 881.6,31.6 			"/>
			<polygon id="XMLID_100_" class="st1_hns" points="905.3,51 902.8,51 887.9,31.6 890.4,31.6 			"/>
			<polygon id="XMLID_58_" class="st1_hns" points="914.1,51 911.6,51 896.7,31.6 899.2,31.6 			"/>
		</g>
	</g>
	<g id="XMLID_41_">
		<polygon id="XMLID_12695_" class="st2_hns" points="8,56.8 1.6,56.8 1.6,15.1 18.5,2.4 42.5,2.4 42.5,5.4 19.5,5.4 8,14.1 		"/>
	</g>
</g>
</svg>
