<?xml version="1.0" encoding="utf-8"?>
<!-- Generator: Adobe Illustrator 19.0.0, SVG Export Plug-In . SVG Version: 6.00 Build 0)  -->
<svg version="1.1" id="图层_1" xmlns="http://www.w3.org/2000/svg" xmlns:xlink="http://www.w3.org/1999/xlink" x="0px" y="0px"
	 viewBox="0 0 930 454" style="enable-background:new 0 0 930 454;" xml:space="preserve">
<style type="text/css">
	.st0_nns{opacity:0.6;fill:#1561C0;fill-opacity:0.6;stroke:#1561C0;stroke-miterlimit:10;}
	.st1_nns{fill:#1561C0;}
	.st2_nns{fill:#00BEFF;}
	.st3_nns{clip-path:url(#XMLID_10_);}
</style>
<g id="XMLID_1_">
	<polygon id="XMLID_325_" class="st0_nns" points="11.2,16.4 22.1,8.2 42.5,8.2 45.2,6.7 513.9,6.7 516.7,8.2 537.4,8.2 566.6,52.2 
		11.2,52.2 	"/>
	<g id="XMLID_324_">
		<polygon id="XMLID_12694_" class="st1_nns" points="591.6,52.4 569.7,52.4 539.2,6 516.7,6 516.7,2 541,2 571.5,48.4 591.6,48.4 		"/>
	</g>
	<g id="XMLID_323_">
		<polygon id="XMLID_12690_" class="st1_nns" points="68.8,443.6 63.9,447.1 76.7,447.1 81.6,443.6 		"/>
		<polygon id="XMLID_12691_" class="st1_nns" points="47.9,443.6 43,447.1 55.8,447.1 60.8,443.6 		"/>
		<polygon id="XMLID_12692_" class="st1_nns" points="110.6,443.6 105.7,447.1 118.5,447.1 123.4,443.6 		"/>
		<polygon id="XMLID_12693_" class="st1_nns" points="89.7,443.6 84.8,447.1 97.6,447.1 102.5,443.6 		"/>
	</g>
	<polygon id="XMLID_322_" class="st1_nns" points="919.9,55.2 919.7,430.3 900.4,447.1 7.2,447.1 7.2,14.3 19.4,4.9 539.4,4.9 
		570.1,51.3 761,51.7 780.9,28.7 903.4,29 905.7,27 779.9,27 759.4,49 570.3,49 539.6,4 18.7,4 2.2,15.9 2.2,449.6 2.2,451.4 
		40.2,451.4 39.9,451.6 52.7,451.6 53,451.4 61,451.4 60.8,451.6 73.6,451.6 73.9,451.4 81.9,451.4 81.6,451.6 94.4,451.6 
		94.7,451.4 102.8,451.4 102.5,451.6 115.3,451.6 115.6,451.4 898.6,451.6 924.9,430.7 925,50 	"/>
	<g id="XMLID_321_">
		<polygon id="XMLID_12699_" class="st2_nns" points="928.4,67.8 926.4,70.3 926.4,48.1 907.4,25 881.4,25 883.9,23 908.4,23 
			928.4,47.4 		"/>
	</g>
	<g id="XMLID_189_">
		
			<rect id="XMLID_320_" x="914.4" y="38.9" transform="matrix(0.624 0.7814 -0.7814 0.624 375.3369 -699.6196)" class="st1_nns" width="0.6" height="2.6"/>
		
			<rect id="XMLID_319_" x="905.1" y="27.4" transform="matrix(0.624 0.7814 -0.7814 0.624 362.8562 -696.6986)" class="st1_nns" width="0.6" height="2.6"/>
		
			<rect id="XMLID_318_" x="905.8" y="28.4" transform="matrix(0.624 0.7814 -0.7814 0.624 363.8963 -696.942)" class="st1_nns" width="0.6" height="2.6"/>
		
			<rect id="XMLID_317_" x="906.6" y="29.3" transform="matrix(0.624 0.7814 -0.7814 0.624 364.9363 -697.1854)" class="st1_nns" width="0.6" height="2.6"/>
		
			<rect id="XMLID_316_" x="907.4" y="30.3" transform="matrix(0.624 0.7814 -0.7814 0.624 365.9764 -697.4288)" class="st1_nns" width="0.6" height="2.6"/>
		
			<rect id="XMLID_315_" x="908.2" y="31.2" transform="matrix(0.624 0.7814 -0.7814 0.624 367.0164 -697.6722)" class="st1_nns" width="0.6" height="2.6"/>
		
			<rect id="XMLID_214_" x="908.9" y="32.2" transform="matrix(0.624 0.7814 -0.7814 0.624 368.0565 -697.9156)" class="st1_nns" width="0.6" height="2.6"/>
		
			<rect id="XMLID_213_" x="909.7" y="33.2" transform="matrix(0.624 0.7814 -0.7814 0.624 369.0965 -698.1591)" class="st1_nns" width="0.6" height="2.6"/>
		
			<rect id="XMLID_212_" x="910.5" y="34.1" transform="matrix(0.624 0.7814 -0.7814 0.624 370.1366 -698.4025)" class="st1_nns" width="0.6" height="2.6"/>
		
			<rect id="XMLID_211_" x="911.3" y="35.1" transform="matrix(0.624 0.7814 -0.7814 0.624 371.1766 -698.6459)" class="st1_nns" width="0.6" height="2.6"/>
		
			<rect id="XMLID_210_" x="912" y="36" transform="matrix(0.624 0.7814 -0.7814 0.624 372.2167 -698.8893)" class="st1_nns" width="0.6" height="2.6"/>
		
			<rect id="XMLID_209_" x="912.8" y="37" transform="matrix(0.624 0.7814 -0.7814 0.624 373.2567 -699.1328)" class="st1_nns" width="0.6" height="2.6"/>
		
			<rect id="XMLID_208_" x="913.6" y="38" transform="matrix(0.624 0.7814 -0.7814 0.624 374.2968 -699.3762)" class="st1_nns" width="0.6" height="2.6"/>
		
			<rect id="XMLID_207_" x="915.1" y="39.9" transform="matrix(0.624 0.7814 -0.7814 0.624 376.3769 -699.863)" class="st1_nns" width="0.6" height="2.6"/>
		
			<rect id="XMLID_206_" x="915.9" y="40.8" transform="matrix(0.624 0.7814 -0.7814 0.624 377.417 -700.1064)" class="st1_nns" width="0.6" height="2.6"/>
		
			<rect id="XMLID_205_" x="916.7" y="41.8" transform="matrix(0.624 0.7814 -0.7814 0.624 378.457 -700.3499)" class="st1_nns" width="0.6" height="2.6"/>
		
			<rect id="XMLID_204_" x="917.3" y="42.7" transform="matrix(0.619 0.7854 -0.7854 0.619 384.2125 -703.9688)" class="st1_nns" width="0.6" height="2.6"/>
		
			<rect id="XMLID_203_" x="918.1" y="43.7" transform="matrix(0.619 0.7854 -0.7854 0.619 385.2618 -704.2037)" class="st1_nns" width="0.6" height="2.6"/>
		
			<rect id="XMLID_201_" x="918.9" y="44.6" transform="matrix(0.619 0.7854 -0.7854 0.619 386.3112 -704.4386)" class="st1_nns" width="0.6" height="2.6"/>
		
			<rect id="XMLID_197_" x="919.6" y="45.6" transform="matrix(0.619 0.7854 -0.7854 0.619 387.3605 -704.6735)" class="st1_nns" width="0.6" height="2.6"/>
		
			<rect id="XMLID_193_" x="920.4" y="46.6" transform="matrix(0.619 0.7854 -0.7854 0.619 388.4098 -704.9084)" class="st1_nns" width="0.6" height="2.6"/>
		
			<rect id="XMLID_192_" x="921.2" y="47.5" transform="matrix(0.619 0.7854 -0.7854 0.619 389.4591 -705.1434)" class="st1_nns" width="0.6" height="2.6"/>
	</g>
	<g id="XMLID_168_">
		<polygon id="XMLID_169_" class="st2_nns" points="870.6,446.4 870.6,452 901,452 925,431.9 925,409.7 919.4,409.7 919.4,430.8 
			900.5,446.4 		"/>
	</g>
	<g id="XMLID_25_">
		<defs>
			<polygon id="XMLID_56_" points="921.2,54.7 761.7,54.7 782.7,30.3 925,30.3 			"/>
		</defs>
		<clipPath id="XMLID_10_">
			<use xlink:href="#XMLID_56_"  style="overflow:visible;"/>
		</clipPath>
		<g id="XMLID_12700_" class="st3_nns">
			<polygon id="XMLID_164_" class="st1_nns" points="800.2,51.4 797.7,51.4 782.8,32 785.3,32 			"/>
			<polygon id="XMLID_160_" class="st1_nns" points="804.5,51.4 802.1,51.4 787.2,32 789.6,32 			"/>
			<polygon id="XMLID_159_" class="st1_nns" points="808.9,51.4 806.5,51.4 791.6,32 794,32 			"/>
			<polygon id="XMLID_158_" class="st1_nns" points="813.3,51.4 810.8,51.4 795.9,32 798.4,32 			"/>
			<polygon id="XMLID_157_" class="st1_nns" points="817.7,51.4 815.2,51.4 800.3,32 802.8,32 			"/>
			<polygon id="XMLID_156_" class="st1_nns" points="822.1,51.4 819.6,51.4 804.7,32 807.2,32 			"/>
			<polygon id="XMLID_155_" class="st1_nns" points="826.5,51.4 824,51.4 809.1,32 811.5,32 			"/>
			<polygon id="XMLID_154_" class="st1_nns" points="830.8,51.4 828.4,51.4 813.5,32 815.9,32 			"/>
			<polygon id="XMLID_153_" class="st1_nns" points="765.1,51.4 762.7,51.4 747.8,32 750.2,32 			"/>
			<polygon id="XMLID_152_" class="st1_nns" points="769.5,51.4 767,51.4 752.1,32 754.6,32 			"/>
			<polygon id="XMLID_150_" class="st1_nns" points="773.9,51.4 771.4,51.4 756.5,32 759,32 			"/>
			<polygon id="XMLID_149_" class="st1_nns" points="778.3,51.4 775.8,51.4 760.9,32 763.4,32 			"/>
			<polygon id="XMLID_146_" class="st1_nns" points="782.6,51.4 780.2,51.4 765.3,32 767.7,32 			"/>
			<polygon id="XMLID_145_" class="st1_nns" points="787,51.4 784.6,51.4 769.7,32 772.1,32 			"/>
			<polygon id="XMLID_144_" class="st1_nns" points="791.4,51.4 788.9,51.4 774,32 776.5,32 			"/>
			<polygon id="XMLID_139_" class="st1_nns" points="795.8,51.4 793.3,51.4 778.4,32 780.9,32 			"/>
			<polygon id="XMLID_137_" class="st1_nns" points="835.2,51.4 832.8,51.4 817.8,32 820.3,32 			"/>
			<polygon id="XMLID_135_" class="st1_nns" points="839.6,51.4 837.1,51.4 822.2,32 824.7,32 			"/>
			<polygon id="XMLID_134_" class="st1_nns" points="848.4,51.4 845.9,51.4 831,32 833.5,32 			"/>
			<polygon id="XMLID_133_" class="st1_nns" points="844,51.4 841.5,51.4 826.6,32 829.1,32 			"/>
			<polygon id="XMLID_132_" class="st1_nns" points="857.1,51.4 854.7,51.4 839.8,32 842.2,32 			"/>
			<polygon id="XMLID_130_" class="st1_nns" points="865.9,51.4 863.4,51.4 848.5,32 851,32 			"/>
			<polygon id="XMLID_127_" class="st1_nns" points="883.4,51.4 880.9,51.4 866,32 868.5,32 			"/>
			<polygon id="XMLID_125_" class="st1_nns" points="900.9,51.4 898.5,51.4 883.6,32 886,32 			"/>
			<polygon id="XMLID_124_" class="st1_nns" points="874.6,51.4 872.2,51.4 857.3,32 859.7,32 			"/>
			<polygon id="XMLID_121_" class="st1_nns" points="892.2,51.4 889.7,51.4 874.8,32 877.3,32 			"/>
			<polygon id="XMLID_120_" class="st1_nns" points="909.7,51.4 907.2,51.4 892.3,32 894.8,32 			"/>
			<polygon id="XMLID_119_" class="st1_nns" points="918.4,51.4 916,51.4 901.1,32 903.5,32 			"/>
			<polygon id="XMLID_118_" class="st1_nns" points="852.7,51.4 850.3,51.4 835.4,32 837.8,32 			"/>
			<polygon id="XMLID_117_" class="st1_nns" points="861.5,51.4 859,51.4 844.1,32 846.6,32 			"/>
			<polygon id="XMLID_116_" class="st1_nns" points="870.3,51.4 867.8,51.4 852.9,32 855.4,32 			"/>
			<polygon id="XMLID_107_" class="st1_nns" points="887.8,51.4 885.3,51.4 870.4,32 872.9,32 			"/>
			<polygon id="XMLID_105_" class="st1_nns" points="879,51.4 876.6,51.4 861.7,32 864.1,32 			"/>
			<polygon id="XMLID_102_" class="st1_nns" points="896.5,51.4 894.1,51.4 879.2,32 881.6,32 			"/>
			<polygon id="XMLID_100_" class="st1_nns" points="905.3,51.4 902.8,51.4 887.9,32 890.4,32 			"/>
			<polygon id="XMLID_58_" class="st1_nns" points="914.1,51.4 911.6,51.4 896.7,32 899.2,32 			"/>
		</g>
	</g>
	<g id="XMLID_24_">
		<polygon id="XMLID_12695_" class="st2_nns" points="8,57.2 1.6,57.2 1.6,15.5 18.5,2.8 42.5,2.8 42.5,5.8 19.5,5.8 8,14.4 		"/>
	</g>
</g>
</svg>
