<?xml version="1.0" encoding="utf-8"?>
<!-- Generator: Adobe Illustrator 19.0.0, SVG Export Plug-In . SVG Version: 6.00 Build 0)  -->
<svg version="1.1" id="图层_1" xmlns="http://www.w3.org/2000/svg" xmlns:xlink="http://www.w3.org/1999/xlink" x="0px" y="0px"
	 viewBox="0 0 930 895" style="enable-background:new 0 0 930 895;" xml:space="preserve">
<style type="text/css">
	.st0_nnb{opacity:0.6;fill:#1561C0;fill-opacity:0.6;stroke:#1561C0;stroke-miterlimit:10;}
	.st1_nnb{fill:#1561C0;}
	.st2_nnb{fill:#00BEFF;}
	.st3_nnb{clip-path:url(#XMLID_81_);}
</style>
<g id="左侧">
	<polygon id="XMLID_325_" class="st0_nnb" points="11.2,15.2 22.1,7 42.5,7 45.2,5.5 513.9,5.5 516.7,7 537.4,7 566.6,51 11.2,51 	"/>
	<g id="XMLID_324_">
		<polygon id="XMLID_12694_" class="st1_nnb" points="591.6,51.1 569.7,51.1 539.2,4.8 516.7,4.8 516.7,0.8 541,0.8 571.5,47.1 
			591.6,47.1 		"/>
	</g>
	<g id="XMLID_323_">
		<polygon id="XMLID_12690_" class="st1_nnb" points="68.8,885.8 63.9,889.3 76.7,889.3 81.6,885.8 		"/>
		<polygon id="XMLID_12691_" class="st1_nnb" points="47.9,885.8 43,889.3 55.8,889.3 60.8,885.8 		"/>
		<polygon id="XMLID_12692_" class="st1_nnb" points="110.6,885.8 105.7,889.3 118.5,889.3 123.4,885.8 		"/>
		<polygon id="XMLID_12693_" class="st1_nnb" points="89.7,885.8 84.8,889.3 97.6,889.3 102.5,885.8 		"/>
	</g>
	<polygon id="XMLID_322_" class="st1_nnb" points="919.9,53.9 919.7,872.5 900.4,889.3 7.2,889.3 7.2,13.1 19.4,3.7 539.4,3.7 
		570.1,50.1 761,50.5 780.9,27.5 903.4,27.8 905.7,25.7 779.9,25.8 759.4,47.8 570.3,47.8 539.6,2.8 18.7,2.8 2.2,14.7 2.2,891.8 
		2.2,893.6 40.2,893.6 39.9,893.8 52.7,893.8 53,893.6 61,893.6 60.8,893.8 73.6,893.8 73.9,893.6 81.9,893.6 81.6,893.8 
		94.4,893.8 94.7,893.6 102.8,893.6 102.5,893.8 115.3,893.8 115.6,893.6 898.6,893.8 924.9,872.9 925,48.8 	"/>
	<g id="XMLID_321_">
		<polygon id="XMLID_12699_" class="st2_nnb" points="928.4,66.6 926.4,69.1 926.4,46.9 907.4,23.8 881.4,23.7 883.9,21.8 908.4,21.8 
			928.4,46.2 		"/>
	</g>
	<g id="XMLID_189_">
		
			<rect id="XMLID_320_" x="914.4" y="37.7" transform="matrix(0.624 0.7814 -0.7814 0.624 374.3843 -700.0779)" class="st1_nnb" width="0.6" height="2.6"/>
		
			<rect id="XMLID_319_" x="905.1" y="26.2" transform="matrix(0.624 0.7814 -0.7814 0.624 361.9037 -697.1569)" class="st1_nnb" width="0.6" height="2.6"/>
		
			<rect id="XMLID_318_" x="905.8" y="27.2" transform="matrix(0.624 0.7814 -0.7814 0.624 362.9437 -697.4003)" class="st1_nnb" width="0.6" height="2.6"/>
		
			<rect id="XMLID_317_" x="906.6" y="28.1" transform="matrix(0.624 0.7814 -0.7814 0.624 363.9838 -697.6437)" class="st1_nnb" width="0.6" height="2.6"/>
		
			<rect id="XMLID_316_" x="907.4" y="29.1" transform="matrix(0.624 0.7814 -0.7814 0.624 365.0238 -697.8871)" class="st1_nnb" width="0.6" height="2.6"/>
		
			<rect id="XMLID_315_" x="908.2" y="30" transform="matrix(0.624 0.7814 -0.7814 0.624 366.0639 -698.1306)" class="st1_nnb" width="0.6" height="2.6"/>
		
			<rect id="XMLID_214_" x="908.9" y="31" transform="matrix(0.624 0.7814 -0.7814 0.624 367.1039 -698.374)" class="st1_nnb" width="0.6" height="2.6"/>
		
			<rect id="XMLID_213_" x="909.7" y="31.9" transform="matrix(0.624 0.7814 -0.7814 0.624 368.144 -698.6174)" class="st1_nnb" width="0.6" height="2.6"/>
		
			<rect id="XMLID_212_" x="910.5" y="32.9" transform="matrix(0.624 0.7814 -0.7814 0.624 369.184 -698.8608)" class="st1_nnb" width="0.6" height="2.6"/>
		
			<rect id="XMLID_211_" x="911.3" y="33.9" transform="matrix(0.624 0.7814 -0.7814 0.624 370.2241 -699.1042)" class="st1_nnb" width="0.6" height="2.6"/>
		
			<rect id="XMLID_210_" x="912" y="34.8" transform="matrix(0.624 0.7814 -0.7814 0.624 371.2641 -699.3477)" class="st1_nnb" width="0.6" height="2.6"/>
		
			<rect id="XMLID_209_" x="912.8" y="35.8" transform="matrix(0.624 0.7814 -0.7814 0.624 372.3042 -699.5911)" class="st1_nnb" width="0.6" height="2.6"/>
		
			<rect id="XMLID_208_" x="913.6" y="36.7" transform="matrix(0.624 0.7814 -0.7814 0.624 373.3442 -699.8345)" class="st1_nnb" width="0.6" height="2.6"/>
		
			<rect id="XMLID_207_" x="915.1" y="38.7" transform="matrix(0.624 0.7814 -0.7814 0.624 375.4243 -700.3214)" class="st1_nnb" width="0.6" height="2.6"/>
		
			<rect id="XMLID_206_" x="915.9" y="39.6" transform="matrix(0.624 0.7814 -0.7814 0.624 376.4644 -700.5648)" class="st1_nnb" width="0.6" height="2.6"/>
		
			<rect id="XMLID_205_" x="916.7" y="40.6" transform="matrix(0.624 0.7814 -0.7814 0.624 377.5045 -700.8082)" class="st1_nnb" width="0.6" height="2.6"/>
		
			<rect id="XMLID_204_" x="917.3" y="41.5" transform="matrix(0.619 0.7854 -0.7854 0.619 383.2551 -704.4332)" class="st1_nnb" width="0.6" height="2.6"/>
		
			<rect id="XMLID_203_" x="918.1" y="42.4" transform="matrix(0.619 0.7854 -0.7854 0.619 384.3044 -704.6682)" class="st1_nnb" width="0.6" height="2.6"/>
		
			<rect id="XMLID_201_" x="918.9" y="43.4" transform="matrix(0.619 0.7854 -0.7854 0.619 385.3537 -704.9031)" class="st1_nnb" width="0.6" height="2.6"/>
		
			<rect id="XMLID_197_" x="919.6" y="44.4" transform="matrix(0.619 0.7854 -0.7854 0.619 386.403 -705.138)" class="st1_nnb" width="0.6" height="2.6"/>
		
			<rect id="XMLID_193_" x="920.4" y="45.3" transform="matrix(0.619 0.7854 -0.7854 0.619 387.4524 -705.3729)" class="st1_nnb" width="0.6" height="2.6"/>
		
			<rect id="XMLID_192_" x="921.2" y="46.3" transform="matrix(0.619 0.7854 -0.7854 0.619 388.5017 -705.6078)" class="st1_nnb" width="0.6" height="2.6"/>
	</g>
	<g id="XMLID_168_">
		<polygon id="XMLID_169_" class="st2_nnb" points="870.6,888.7 870.6,894.2 901,894.2 925,874.1 925,851.9 919.4,851.9 919.4,873 
			900.5,888.7 		"/>
	</g>
	<g id="XMLID_56_">
		<defs>
			<polygon id="XMLID_60_" points="921.2,53.5 761.7,53.5 782.7,29.1 925,29.1 			"/>
		</defs>
		<clipPath id="XMLID_81_">
			<use xlink:href="#XMLID_60_"  style="overflow:visible;"/>
		</clipPath>
		<g id="XMLID_12700_" class="st3_nnb">
			<polygon id="XMLID_164_" class="st1_nnb" points="800.2,50.2 797.7,50.2 782.8,30.8 785.3,30.8 			"/>
			<polygon id="XMLID_160_" class="st1_nnb" points="804.5,50.2 802.1,50.2 787.2,30.8 789.6,30.8 			"/>
			<polygon id="XMLID_159_" class="st1_nnb" points="808.9,50.2 806.5,50.2 791.6,30.8 794,30.8 			"/>
			<polygon id="XMLID_158_" class="st1_nnb" points="813.3,50.2 810.8,50.2 795.9,30.8 798.4,30.8 			"/>
			<polygon id="XMLID_157_" class="st1_nnb" points="817.7,50.2 815.2,50.2 800.3,30.8 802.8,30.8 			"/>
			<polygon id="XMLID_156_" class="st1_nnb" points="822.1,50.2 819.6,50.2 804.7,30.8 807.2,30.8 			"/>
			<polygon id="XMLID_155_" class="st1_nnb" points="826.5,50.2 824,50.2 809.1,30.8 811.5,30.8 			"/>
			<polygon id="XMLID_154_" class="st1_nnb" points="830.8,50.2 828.4,50.2 813.5,30.8 815.9,30.8 			"/>
			<polygon id="XMLID_153_" class="st1_nnb" points="765.1,50.2 762.7,50.2 747.8,30.8 750.2,30.8 			"/>
			<polygon id="XMLID_152_" class="st1_nnb" points="769.5,50.2 767,50.2 752.1,30.8 754.6,30.8 			"/>
			<polygon id="XMLID_150_" class="st1_nnb" points="773.9,50.2 771.4,50.2 756.5,30.8 759,30.8 			"/>
			<polygon id="XMLID_149_" class="st1_nnb" points="778.3,50.2 775.8,50.2 760.9,30.8 763.4,30.8 			"/>
			<polygon id="XMLID_146_" class="st1_nnb" points="782.6,50.2 780.2,50.2 765.3,30.8 767.7,30.8 			"/>
			<polygon id="XMLID_145_" class="st1_nnb" points="787,50.2 784.6,50.2 769.7,30.8 772.1,30.8 			"/>
			<polygon id="XMLID_144_" class="st1_nnb" points="791.4,50.2 788.9,50.2 774,30.8 776.5,30.8 			"/>
			<polygon id="XMLID_139_" class="st1_nnb" points="795.8,50.2 793.3,50.2 778.4,30.8 780.9,30.8 			"/>
			<polygon id="XMLID_137_" class="st1_nnb" points="835.2,50.2 832.8,50.2 817.8,30.8 820.3,30.8 			"/>
			<polygon id="XMLID_135_" class="st1_nnb" points="839.6,50.2 837.1,50.2 822.2,30.8 824.7,30.8 			"/>
			<polygon id="XMLID_134_" class="st1_nnb" points="848.4,50.2 845.9,50.2 831,30.8 833.5,30.8 			"/>
			<polygon id="XMLID_133_" class="st1_nnb" points="844,50.2 841.5,50.2 826.6,30.8 829.1,30.8 			"/>
			<polygon id="XMLID_132_" class="st1_nnb" points="857.1,50.2 854.7,50.2 839.8,30.8 842.2,30.8 			"/>
			<polygon id="XMLID_130_" class="st1_nnb" points="865.9,50.2 863.4,50.2 848.5,30.8 851,30.8 			"/>
			<polygon id="XMLID_127_" class="st1_nnb" points="883.4,50.2 880.9,50.2 866,30.8 868.5,30.8 			"/>
			<polygon id="XMLID_125_" class="st1_nnb" points="900.9,50.2 898.5,50.2 883.6,30.8 886,30.8 			"/>
			<polygon id="XMLID_124_" class="st1_nnb" points="874.6,50.2 872.2,50.2 857.3,30.8 859.7,30.8 			"/>
			<polygon id="XMLID_121_" class="st1_nnb" points="892.2,50.2 889.7,50.2 874.8,30.8 877.3,30.8 			"/>
			<polygon id="XMLID_120_" class="st1_nnb" points="909.7,50.2 907.2,50.2 892.3,30.8 894.8,30.8 			"/>
			<polygon id="XMLID_119_" class="st1_nnb" points="918.4,50.2 916,50.2 901.1,30.8 903.5,30.8 			"/>
			<polygon id="XMLID_118_" class="st1_nnb" points="852.7,50.2 850.3,50.2 835.4,30.8 837.8,30.8 			"/>
			<polygon id="XMLID_117_" class="st1_nnb" points="861.5,50.2 859,50.2 844.1,30.8 846.6,30.8 			"/>
			<polygon id="XMLID_116_" class="st1_nnb" points="870.3,50.2 867.8,50.2 852.9,30.8 855.4,30.8 			"/>
			<polygon id="XMLID_63_" class="st1_nnb" points="887.8,50.2 885.3,50.2 870.4,30.8 872.9,30.8 			"/>
			<polygon id="XMLID_105_" class="st1_nnb" points="879,50.2 876.6,50.2 861.7,30.8 864.1,30.8 			"/>
			<polygon id="XMLID_102_" class="st1_nnb" points="896.5,50.2 894.1,50.2 879.2,30.8 881.6,30.8 			"/>
			<polygon id="XMLID_62_" class="st1_nnb" points="905.3,50.2 902.8,50.2 887.9,30.8 890.4,30.8 			"/>
			<polygon id="XMLID_61_" class="st1_nnb" points="914.1,50.2 911.6,50.2 896.7,30.8 899.2,30.8 			"/>
		</g>
	</g>
	<g id="XMLID_36_">
		<polygon id="XMLID_12695_" class="st2_nnb" points="8,55.9 1.6,55.9 1.6,14.3 18.5,1.6 42.5,1.6 42.5,4.6 19.5,4.6 8,13.2 		"/>
	</g>
</g>
</svg>
