<?xml version="1.0" encoding="utf-8"?>
<!-- Generator: Adobe Illustrator 19.0.0, SVG Export Plug-In . SVG Version: 6.00 Build 0)  -->
<svg version="1.1" id="图层_1" xmlns="http://www.w3.org/2000/svg" xmlns:xlink="http://www.w3.org/1999/xlink" x="0px" y="0px"
	 viewBox="-289 -170 380 900" style="enable-background:new -289 -170 380 900;" xml:space="preserve">
<style type="text/css">
	.map_yc_st0{fill:#162763;fill-opacity:0.45;stroke:#FEAB01;stroke-miterlimit:10;}
	.map_yc_st1{fill:#F9E4AF;}
	.map_yc_st2{font-family:'MicrosoftYaHei';}
	.map_yc_st3{font-size:10px;}
	.map_yc_st4{fill:#FFA801;}
	.map_yc_st5{font-family:'MicrosoftYaHeiLight';}
	.map_yc_st6{font-size:12px;}
	.map_yc_st7{opacity:0.5;fill:none;stroke:#F9E4AF;stroke-miterlimit:10;}
	.map_yc_st8{opacity:0.5;fill:#F9E4AF;}
</style>
<g id="XMLID_13_">
	<g id="XMLID_11_">
		<path id="XMLID_9_" class="map_yc_st0" d="M-142.9,38.2c-9,0.6-28.6,0.6-28.6,0.6s-7.3,21.5-13.3,15.1c-6-6.5-17.6-9.5-17.6-9.5
			c-9-3.4-37.9,7.7-37.2-2.8c0.7-10.5-13.8-21.9-13.8-21.9s-0.5-0.4-1.1-1v16.5l-3.9,2.5v15l-11.7,20v12.5l3.9,10l-3.9,5v22.5
			l-3.9,10l-1.7,7.4c8.5,8,30.5,27.5,47.3,31.6c0,0,5.7,0.4,24.2,43.3c0,0,32.4-50.2,39.1-77.4s21.1-69.1,21.1-69.1
			c-1.7-2.9-2.1-6.3,0.8-9.9C-135.4,48.6-133.9,37.6-142.9,38.2z"/>
		<path id="XMLID_17_" class="map_yc_st0" d="M-129.4,167c-12-15.6-5-31.1-5-31.1c1.8-4.3,10.1-12.1,10.1-12.1c-10.2,3.5-7.2-7.6-7.2-7.6
			c11-7.5,11.6-14.8,11.6-14.8s-11-7.3-9.5-12.7c1.5-5.4-0.6-10.5-2.8-11c-1.4-0.3-8.8-3.8-11.9-9c0,0-14.4,41.9-21.1,69.1
			s-39.1,77.4-39.1,77.4c1.2,2.9,2.5,5.9,3.9,9.1c0,0,3.3,7.6,11.4-8.6c0,0,13.8-2.9,23.3-17.6c0,0-1.4-18.6,5.2-19
			c0,0,15.7,6.2,23.3-2.4c0,0,2,1.2,4.9,2.1C-123.9,172.6-129.4,167-129.4,167z"/>
		<path id="XMLID_37_" class="map_yc_st0" d="M3.4,75.3l3.9-7.5H-8.4l-6.8-6.5c-24.5,21.2-20.6,30.9-20.6,30.9s19.6,21.9-6.2,21.7
			c-25.8-0.2-22.2,19.1-22.2,19.1s1.5,10.1-15.1,14.6c-16.6,4.5-15.5-8-16.4-14.4c-0.9-6.5,1.7-28.8-19.4-14.6c-4,2.7-7,4.2-9.4,5
			c0,0-8.3,7.8-10.1,12.1c0,0-6.9,15.6,5,31.1c0,0,5.5,5.7-2.9,11.9c6.3,2.2,16.9,3.5,19.9-10.2c0,0,16.7,1,28.1,20.9
			c0,0-16.7,17.6-8.6,17.1c0,0,29-4.3,27.6,8.6c0,0-0.4,20.4,16.7,10.9l-6.7-8.6v-7.5l46.9-39.9l11.7-27.4v-7.5l7.8-52.5L3.4,75.3z"
			/>
		<path id="XMLID_20_" class="map_yc_st0" d="M-84.3,189.5c-11.4-20-28.1-20.9-28.1-20.9c-2.9,13.7-13.5,12.4-19.9,10.2
			c-2.9-1-4.9-2.1-4.9-2.1c-7.6,8.6-23.3,2.4-23.3,2.4c-6.7,0.5-5.2,19-5.2,19c-9.5,14.7-23.3,17.6-23.3,17.6
			c-8.1,16.2-11.4,8.6-11.4,8.6c-1.3-3.2-2.6-6.3-3.9-9.1c-18.4-42.9-24.2-43.3-24.2-43.3c-16.9-4.2-38.8-23.6-47.3-31.6l-2.3,10.1
			l3.9,17.4l-7.8,5l3.9,20l-3.9,9.9v10l11.7,15l-3.9,17.4h11.7l7.8,10l19.5,7.5v5l-11.7,32.3h11.7l3.9-17.4l3.9-10h3.9l3.9,7.5
			l11.7,5l15.7-17.4l3.9,2.4l-3.9,5h-3.9v5h11.7v2.5l3.9,7.5v5h19.6l0.9,0.9c5.1-3.8,11.7-13.7,11.7-13.7c-5.3-14.9,11-36.4,11-36.4
			c10.6,0,37.5-30,45.4-39c-0.7,0.1-1.1,0.1-1.1,0.1C-101,207.1-84.3,189.5-84.3,189.5z"/>
		<path id="XMLID_26_" class="map_yc_st0" d="M62,391.5l-3.9-5h-3.9l-3.9-12.4l-3.9-12.4l3.9-9.9l11.7-7.5l11.7,2.5l11.7-7.4l-19.5-34.8
			l-3.9-7.4l3.9-7.5l-97.7-42.3l-16.7-21.3c-17.1,9.5-16.7-10.9-16.7-10.9c1.3-11.3-21.2-9.3-26.5-8.7c-7.8,9-34.8,39-45.4,39
			c0,0-16.3,21.5-11,36.4c0,0-6.6,10-11.7,13.7l10.8,11.5l3.9,9.9l-3.9,17.4l7.8,9.9l11.7,24.8l7.8-2.5l7.8,5v4.9l-7.8,9.9l3.9,2.5
			l7.8,2.5l3.9,5l7.8,2.5v17.3l-3.9,2.5h-15.7l-3.9,2.5v17.3v5l3.9,2.5l3.9,9.9l-7.8,5l-11.7-2.5l-3.9,5l3.9,9.9l7.8,9.9l3.9,12.3
			l-3.9,12.4l3.9,7.4v12.3l7.7,8.1h0h0l4,4.2v7.4l3.9,2.5l11.7,2.5v7.4l3.9,17.3l23.4,12.3l11.7,2.5l7.8-2.5l3.9-4.9v-2.5l7.8-4.9
			l11.7-4.9l3.9-9.9l-3.9-14.8l27.4-24.7l19.5,4.9l23.4,2.5l-3.9-29.6v-9.9l27.4-27.2l11.7-14.8v-22.3H65.9L62,391.5z"/>
		<path id="XMLID_22_" class="map_yc_st0" d="M-15.2,61.3l-1-1v-5l-35.2-12.5h-7.8v5l-7.8,2.5l-3.9-5l3.9-7.5h-7.8l-11.7-15v-2.5l-3.9-2.5
			l3.9-7.5V7.7h-15.6l-7.8,5v-10l-11.7,5l-15.6-12.6L-153,2.7l-27.4-5l-3.9-5v-5l-3.9-2.5l-15.7-12.5l-15.6-5l-3.9,7.5l-15.7,15
			l-3.9,12.6l-11.7,10v6.1c0.7,0.5,1.1,1,1.1,1s14.5,11.4,13.8,21.9c-0.7,10.5,28.2-0.6,37.2,2.8c0,0,11.6,3,17.6,9.5
			c6,6.5,13.3-15.1,13.3-15.1s19.6,0,28.6-0.6c9-0.6,7.5,10.3-0.4,20.4c-2.9,3.6-2.5,7-0.8,9.9c3.1,5.2,10.6,8.7,11.9,9
			c2.2,0.4,4.3,5.6,2.8,11c-1.5,5.4,9.5,12.7,9.5,12.7s-0.6,7.3-11.6,14.8c0,0-3,11.1,7.2,7.6l0,0l0,0c2.4-0.8,5.4-2.4,9.4-5
			c21.1-14.2,18.5,8.2,19.4,14.6c0.9,6.5-0.2,18.9,16.4,14.4c16.6-4.5,15.1-14.6,15.1-14.6S-67.8,113.7-42,114
			c25.8,0.2,6.2-21.7,6.2-21.7S-39.6,82.5-15.2,61.3z"/>
		<g id="XMLID_284_">
			<text id="XMLID_288_" transform="matrix(1 0 0 1 -48.9199 321.2976)" class="map_yc_st1 map_yc_st2 map_yc_st3">河</text>
			<text id="XMLID_287_" transform="matrix(1 0 0 1 -70.944 327.4346)" class="map_yc_st1 map_yc_st2 map_yc_st3">大</text>
			<text id="XMLID_286_" transform="matrix(1 0 0 1 20.006 333.6603)" class="map_yc_st1 map_yc_st2 map_yc_st3">沟</text>
			<text id="XMLID_285_" transform="matrix(1 0 0 1 -15.816 339.085)" class="map_yc_st1 map_yc_st2 map_yc_st3">子</text>
		</g>
		<g id="XMLID_282_">
			<text transform="matrix(1 0 0 1 -128.8877 154.8069)" class="map_yc_st4 map_yc_st5 map_yc_st6">兴庆区</text>
		</g>
		<g id="XMLID_280_">
			<text transform="matrix(1 0 0 1 -105.3722 85.5652)" class="map_yc_st4 map_yc_st5 map_yc_st6">贺兰县</text>
		</g>
		<g id="XMLID_278_">
			<text transform="matrix(1 0 0 1 -204.2654 111.4943)" class="map_yc_st4 map_yc_st5 map_yc_st6">西夏区</text>
		</g>
		<g id="XMLID_274_">
			<text transform="matrix(1 0 0 1 -169.1772 169.2865)" class="map_yc_st4 map_yc_st5 map_yc_st6">金凤区</text>
		</g>
		<g id="XMLID_270_">
			<text transform="matrix(1 0 0 1 -100.0482 354.8263)" class="map_yc_st4 map_yc_st5 map_yc_st6">灵武市</text>
		</g>
		<path id="XMLID_263_" class="map_yc_st7" d="M-140.1,306.3c11.9,5.2,24.9,6.9,37.8,8.4c10.7,1.3,21.9,2.6,31.9-1.4
			c6-2.4,11.2-6.6,17.1-9.4c4.2-2,8.8-3.1,13.4-3.5c1.9-0.1,3.8-0.1,5.6,0.5c4.3,1.4,6.9,5.6,9.7,9.1c7.6,9.4,19.5,15.1,31.6,15.3
			c2.5,0,5.1-0.2,7.4-1c6-2.2,9.7-8.1,12.9-13.7"/>
		<path id="XMLID_31_" class="map_yc_st8" d="M-9.7,103.4c-2.1-2-8.5-2.8-10.4-5.1c-2.7-3.5-2.2-8-1.6-12.4c0.2-1.8,4.7-8.7,10.9-20.8
			l-5.5-4.8l-0.2-2.2C-26.6,72-36.5,84-32.7,90.9c4.8,8.4,8,15.6,13.4,21.5c7.2,7.7-7.2,25-14.5,32.6
			c-15.6,16.1-27.7,35.5-44.8,51.4c-6.7,6.2-12.2,7.3-19.2,13.2c-31.1,26-37.3,77.3-48.6,116.2c-0.7,2.5-1.5,4.8-2.5,6.9
			c-0.2,0.5-0.4,0.9-0.6,1.3l0,0.1l7,8.8c9.9-16.4,10.1-39.9,13.9-59.3c2.2-10.8,7.4-21.2,10.7-31.7c15.1-47.4,72.4-61.5,92.9-102
			c3.3-6.5,4.5-13.9,8.3-20.1C-11.4,121.2-2.5,110.2-9.7,103.4z"/>
	</g>
	<g id="XMLID_272_">
		<text transform="matrix(1 0 0 1 -204.2658 244.6547)" class="map_yc_st4 map_yc_st5 map_yc_st6">永宁县</text>
	</g>
</g>
</svg>
