<?xml version="1.0" encoding="utf-8"?>
<!-- Generator: Adobe Illustrator 19.0.0, SVG Export Plug-In . SVG Version: 6.00 Build 0)  -->
<svg version="1.1" id="图层_1" xmlns="http://www.w3.org/2000/svg" xmlns:xlink="http://www.w3.org/1999/xlink" x="0px" y="0px"
	 viewBox="0 0 472 510" style="enable-background:new 0 0 472 510;" xml:space="preserve">
<style type="text/css">
	.st0{fill:#162763;fill-opacity:0.45;stroke:#FEAB01;stroke-miterlimit:10;}
	.st1{fill:#F9E4AF;}
	.st2{font-family:'MicrosoftYaHei';}
	.st3{font-size:7px;}
	.st4{fill:#FFA801;}
	.st5{font-family:'MicrosoftYaHeiLight';}
	.st6{font-size:12px;}
	.st7{opacity:0.5;fill:none;stroke:#F9E4AF;stroke-miterlimit:10;}
	.st8{opacity:0.5;fill:#F9E4AF;}
</style>
<path id="XMLID_102_" class="st0" d="M376.2,144.6l34.7,1.7l2.6-3.4l-2.6-1.7l-18.7-10l-2.7-5l10.7-5l-5.3-3.4l2.7-3.4l16-5l-2.6-5
	l2.6-1.7h8l-5.3-8.4l13.4-1.7l5.3-3.4v-3.3l10.7-10.1l-2.7-5.1l-8-1.7l-8-6.7v-5.1l5.3-15.2l-2.7-1.7l2.7-10.1l-8-16.9V6.8l-5.3-1.7
	v10.1l-8,15.2h-2.7v5.1l-2.7,8.4l-5.3,1.7l-2.7-1.7l2.7-8.4l-2.7-3.4l2.7-8.4V13.5h-10.7l-5.3,3.4h-10.7l-5.3,1.7l-13.4-1.7l-16,5.1
	h-13.3h-19.6c0.4,3.8,1.1,11.6-0.3,14.6c-1.7,4,1.9,1.9,5.2,9.7c0,0,3.3-4.8-7.4,26c0,0-3,17.1,14.1,9.3c0,0,18.2-1.5-4.5,27.1
	c0,0-5.9,7.8,17.5,19.7c0,0,6.7,17.5-31.2,71.8c0,0-7.1,2.2-26-1.1c0,0-16.7,5.9-23.4,17.1c-6.7,11.2,24.9,35,24.9,35
	s-9.7,24.2-4.1,25.3c5.6,1.1,11.5-4.8,18.2-1.5c6.7,3.3,5.6,5.9,15.6,0.4c10-5.6,17.1,5.9,17.5,11.2c0.4,5.2,10,10,20.5,8.9
	c0,0,2.3,0.9,3.2,3.1c4.3-2.5,11-5.6,15.9-4.3c7.8,2,20.3,6.2,22.8,3.4c2.5-2.9,12.5-2.9,23.5-6.9c4.2-1.5,8-3.1,11.2-4.4l2.5-6.2
	v-5l-2.7-1.7l-2.7-5l-2.7-1.7l2.7-3.3h-2.7l-5.3-5l-2.7-1.7v-3.3l-2.7-5h-8l-8-6.7l-16-31.8l-2.7-1.6h-8l-10.7-11.7l-5.3-16.7v-8.4
	l-8-8.4l10.7-5l5.3,11.7l-2.7,5l8,8.4l13.4-6.7l-2.7-7.8c-1-0.6-2-1.3-2.8-2c0.9,0.7,1.9,1.3,2.8,2l-5.4-15.7L376.2,144.6z"/>
<path id="XMLID_89_" class="st0" d="M461.6,361.6v-9.9l-8-8.3l-2.6-13.3l-8-10v-10l-8-10v-3.3l-2.6-6.7l-5.3-3.3h-8l0.2-0.5
	c-3.1,1.4-7,2.9-11.2,4.4c-11,4-21,4-23.5,6.9c-2.5,2.9-15-1.4-22.8-3.4c-4.9-1.3-11.6,1.8-15.9,4.3c0.5,1.3,0.4,3.1-0.9,5.5
	c-3.7,6.3-15.2,8.6-15.2,8.6s-10.4-6.3-14.5-2.2c0,0,2.6,5.9-0.7,7.4c-3.3,1.5-10.4-0.4-11.5-1.5c-1.1-1.1-8.6,6.7-9.3,11.5
	l-16.7,1.9c0,0-2.2,2.6-9.7,11.9c0,0-7.1-0.4-13-9.3c0,0-4.5,0-6.3,6.3c0,0-6-0.8-12.1-3.9l2,3.7v10l2.6,6.7l5.3,1.6l2.7,6.7v5
	l-5.3,3.3v1.7l5.3,6.6h8l5.3-3.3l8,11.6l2.7,18.2l2.7-1.7l5.3,3.3v11.6l2.7,3.3l-5.3,1.7l2.7,4.9l5.3,8.3l8,3.3l5.3,8.3v4.9
	l-5.3,3.3l2.7,5l-2.7,3.3l8,16.5l2.7-6.6h5.3l13.3-8.3l5.3,1.7l8,14.9l8,6.6h2.7l8-8.3l5.3,1.7l2.7-3.3l5.3,1.7l2.7,1.7v3.3l-8,9.9
	l8-1.7l5.3,5l10.7-8.3l2.7-5h2.7l5.3-13.2h13.4l13.3,4.9V461l-5.3-6.6l2.7-13.2l5.3,1.7l2.7-5l-2.7-5v-3.3l5.3-8.3l2.6-1.7l2.7-5
	v-8.3l-2.7-9.9l-8-5l2.7-5h2.7l2.6-6.6l5.3-1.7v-1.7v-3.3h5.3l18.7-8.3L461.6,361.6z"/>
<path id="XMLID_85_" class="st0" d="M254,332.2c5.9,8.9,13,9.3,13,9.3c7.4-9.3,9.7-11.9,9.7-11.9l16.7-1.9
	c0.7-4.8,8.2-12.6,9.3-11.5c1.1,1.1,8.2,3,11.5,1.5c3.3-1.5,0.7-7.4,0.7-7.4c4.1-4.1,14.5,2.2,14.5,2.2s11.5-2.2,15.2-8.6
	c3.7-6.3-2.2-8.6-2.2-8.6c-10.4,1.1-20.1-3.7-20.5-8.9c-0.4-5.2-7.4-16.7-17.5-11.2c-10,5.6-8.9,3-15.6-0.4
	c-6.7-3.3-12.6,2.6-18.2,1.5c-5.6-1.1,4.1-25.3,4.1-25.3s-31.6-23.8-24.9-35c6.7-11.2,23.4-17.1,23.4-17.1c19,3.3,26,1.1,26,1.1
	c37.9-54.3,31.2-71.8,31.2-71.8c-23.4-11.9-17.5-19.7-17.5-19.7c22.7-28.6,4.5-27.1,4.5-27.1c-17.1,7.8-14.1-9.3-14.1-9.3
	c10.8-30.9,7.4-26,7.4-26c-3.3-7.8-7-5.6-5.2-9.7c1.3-3,0.7-10.9,0.3-14.6h-1.7l-32-5.1L245.5,27l-64,32l-32,8.4l-18.7,8.4
	l-90.7,5.1L37.5,96l-8,1.7l-2.7,5h-5.3l-2.7-3.4l-8,6.7l2.7,3.4l8-1.7l24-8.4v1.7l2.7,5l2.7,1.7l10.7-1.7l5.3-3.4l5.3,3.4l18.7,3.4
	l5.3-1.7l8,1.7v1.7l-5.3,10.1l2.6,5l8,3.4h5.3v3.4l-10.7,6.7l-5.3,6.7l-8-1.7v6.7h-2.7l-2.7,8.4l5.3,10l5.3,3.4h2.7v-1.7l2.6,1.7
	h13.4l10.7-11.7h2.7l8,5l10.7,5l2.7,10.1l8,6.7v8.4l5.3,5v5l8,3.3v13.4v1.7h13.3l5.3,3.3l2.7,5l5.3-5l10.7,6.7l16,3.3l2.7,6.7
	l2.7,23.4h8l5.3,3.3h2.7l5.3,3.3v6.7l2.7,1.6l5.3,5l-2.6,5l2.6,1.7l5.3-1.7v1.7v13.3l-2.7,3.3l-5.3,1.7l-5.3-1.7l-2.7,3.3l-10.7,1.7
	l-5.3,8.3v3.3l3.3,6.2c6.1,3.1,12.1,3.9,12.1,3.9C249.5,332.2,254,332.2,254,332.2z"/>
<g id="XMLID_76_">
	<text id="XMLID_84_" transform="matrix(1 0 0 1 374.3807 73.3784)" class="st1 st2 st3">红</text>
	<text id="XMLID_83_" transform="matrix(1 0 0 1 386.496 84.813)" class="st1 st2 st3">柳</text>
	<text id="XMLID_82_" transform="matrix(1 0 0 1 401.3397 94.3981)" class="st1 st2 st3">沟</text>
</g>
<g id="XMLID_241_">
	<text id="XMLID_296_" transform="matrix(1 0 0 1 337.92 107.1075)" class="st4 st5 st6">中宁县</text>
</g>
<g id="XMLID_9_">
	<text id="XMLID_297_" transform="matrix(1 0 0 1 226.1914 139.223)" class="st4 st5 st6">沙坡头区</text>
</g>
<g id="XMLID_6_">
	<text id="XMLID_298_" transform="matrix(1 0 0 1 361.5734 375.0624)" class="st4 st5 st6">海原县</text>
</g>
<path id="XMLID_5_" class="st7" d="M395.7,55c0.5,12.6,7.5,23.8,14.4,34.4c3,4.6,6,9.3,9.4,13.7"/>
<path id="XMLID_4_" class="st8" d="M303.4,76.9c-0.6,0-1.2,0.1-1.8,0.1c-9.2,0.6-18.5,0.5-27.7-0.2c-7.9-0.6-16.2-1.5-23.4,1.8
	c-2.2,1-4.2,2.4-6.1,3.8c-5.8,3.7-12.7,5.8-19.6,6c-1,0-2,0-3,0c-2.7,0-5.5,0-8.2,0.7c-2.5,0.6-4.9,1.8-7.3,2.9
	c-4,1.9-7.8,3.7-11.2,2.5c0.1-1.1-0.4-2.2-1.3-3.1c-1.7-1.6-4.8-2.3-7-0.8c-2.2,1.5-3.3,3.8-4.3,6.1c-0.3,0.7-0.7,1.5-1,2.2
	c-4.9,9-17.2,10.2-28,11.2l-2.2,0.2c-3.1,0.3-6.6,1-8.5,3.8c-0.6,0.8-0.9,1.7-1.2,2.5c-0.2,0.6-0.4,1.2-0.7,1.6
	c-1.7,2.9-5.4,2.9-9.8,2.8c-3.9,0-7.9-0.1-11.2,2c-1.7,1.1-2.8,2.6-3.9,4c-0.4,0.5-0.7,0.9-1.1,1.4c-4,4.8-10.2,7.7-15.6,10.3
	l-36.4,17.1c-1.5,0.7-3.5,1.6-4.8,3.2c-1.2,1.5-1.7,3.2-2.1,4.8c-0.4,1.4-0.8,2.8-1.6,3.8c-1.6,1.9-4.7,2.2-7.7,2.3l-28.1,0.8
	l-0.4,0.8c-1.5,2.9-1.1,6.7,0.9,9.8c1.8,2.7,4.5,4.4,7.4,4.7c0.2,1.5-0.2,3.1-1.2,4.2l2.4,1.9c1.8-2.2,2.3-5.3,1.4-8l-0.4-1.1
	l-1.2,0.1c-2.2,0.1-4.5-1.1-6-3.4c-1.3-1.9-1.7-4.2-1.1-6l26.3-0.7c3.5-0.1,7.5-0.4,9.9-3.3c1.2-1.5,1.7-3.2,2.2-4.9
	c0.4-1.4,0.8-2.8,1.6-3.8c0.9-1.1,2.3-1.8,3.7-2.4l36.4-17.1c5.7-2.7,12.2-5.7,16.6-11c0.4-0.5,0.8-1,1.2-1.5c1-1.3,2-2.6,3.2-3.4
	c2.5-1.6,6-1.6,9.5-1.5c4.8,0.1,9.9,0.1,12.4-4.4c0.4-0.7,0.7-1.4,0.9-2.1c0.3-0.7,0.5-1.4,0.8-1.9c1.2-1.7,3.8-2.2,6.3-2.5l2.2-0.2
	c11.6-1.1,24.8-2.4,30.4-12.8c0.4-0.8,0.8-1.6,1.1-2.4c0.9-1.9,1.7-3.8,3.2-4.8c0.9-0.6,2.5-0.2,3.3,0.5c0.5,0.5,0.4,0.8,0.3,1
	l-0.7,1.3l1.3,0.7c5,2.8,10,0.3,15-2c2.2-1.1,4.5-2.1,6.7-2.7c2.4-0.6,4.9-0.6,7.5-0.6c1,0,2.1,0,3.1,0c8.2-0.3,16.5-3,23.2-7.8
	l-0.1-0.1c10.6-0.5,26.9,3.6,36.5,0.9c8.3-2.3,12.9-2.6,16.4-2.4c2.1,0.1,3.9,0.5,5.9,0.8C304.5,81.7,303.6,79.2,303.4,76.9z"/>
<path id="XMLID_3_" class="st8" d="M421.4,6.1l-2.5-1l0.3,9.9l-4.7,8.7l-5,6.4l-3.5-0.5v5.8l-1.8,8.3l-4.6,1.8l-1.5-1.2
	c-2.2,2.5-4.8,4.6-7.6,6.5c-2.9,1.9-5.9,3.5-9,5c-16.1,8.6-34.1,14.6-52.5,17.6c-8.5,1.7-17,2.8-25.7,3.4c0.3,2.3,1.1,4.8,3.4,6
	c1.3,0.2,2.7,0.4,4.4,0.5c0.4,0,0.9-0.1,1.3-0.1c1.4-0.3,3.1-0.9,5-1.7c0,0,2.5-0.2,4.5,1c24.4-3,46.9-13.2,70.4-22
	c5.8-2.3,11.1-5.3,14.5-10.1c5.1-7.4,5.3-8.7,7.5-13.3c2.1-4.5,5-10.5,6.2-15.4C421.7,16.9,421.5,11.6,421.4,6.1z"/>
</svg>
