<?xml version="1.0" encoding="utf-8"?>
<!-- Generator: Adobe Illustrator 19.0.0, SVG Export Plug-In . SVG Version: 6.00 Build 0)  -->
<svg version="1.1" id="图层_1" xmlns="http://www.w3.org/2000/svg" xmlns:xlink="http://www.w3.org/1999/xlink" x="0px" y="0px"
	 viewBox="0 0 560 880" style="enable-background:new 0 0 560 880;" xml:space="preserve">
<style type="text/css">
	.st0{opacity:0.45;fill:#1E3580;}
	.st1{fill:none;stroke:#FEAB01;stroke-miterlimit:10;}
	.st2{fill:none;stroke:#FEAB01;stroke-miterlimit:10;stroke-dasharray:1.1944,1.1944,1.1944,1.1944;}
	.st3{fill:none;stroke:#FEAB01;stroke-miterlimit:10;stroke-dasharray:2.8682,2.8682,2.8682,2.8682;}
	.st4{fill:none;stroke:#FEAB01;stroke-miterlimit:10;stroke-dasharray:4.4551,4.4551,4.4551,4.4551;}
	.st5{fill:none;stroke:#FEAB01;stroke-miterlimit:10;stroke-dasharray:0.7346,0.7346,0.7346,0.7346;}
	.st6{fill:none;stroke:#FEAB01;stroke-miterlimit:10;stroke-dasharray:7.1353,7.1353,7.1353,7.1353;}
	.st7{fill:none;stroke:#FEAB01;stroke-miterlimit:10;stroke-dasharray:1.0559,1.0559,1.0559,1.0559;}
	.st8{fill:none;stroke:#FEAB01;stroke-miterlimit:10;stroke-dasharray:1.5803,1.5803,1.5803,1.5803;}
	.st9{fill:none;stroke:#FEAB01;stroke-miterlimit:10;stroke-dasharray:0.5981,0.5981,0.5981,0.5981;}
	.st10{fill:none;stroke:#FEAB01;stroke-miterlimit:10;stroke-dasharray:0.1284,0.1284,0.1284,0.1284;}
	.st11{fill:none;stroke:#FEAB01;stroke-miterlimit:10;stroke-dasharray:2.1467,2.1467,2.1467,2.1467;}
	.st12{fill:none;stroke:#FEAB01;stroke-miterlimit:10;stroke-dasharray:1.6475,1.6475,1.6475,1.6475;}
	.st13{fill:none;stroke:#FEAB01;stroke-miterlimit:10;stroke-dasharray:0.4877,0.4877,0.4877,0.4877;}
	.st14{fill:none;stroke:#FEAB01;stroke-miterlimit:10;stroke-dasharray:0.2647,0.2647,0.2647,0.2647;}
	.st15{fill:none;stroke:#FEAB01;stroke-miterlimit:10;stroke-dasharray:2.919194e-002,2.919194e-002,2.919194e-002,2.919194e-002;}
	.st16{fill:none;stroke:#FEAB01;stroke-miterlimit:10;stroke-dasharray:2.4714,2.4714,2.4714,2.4714;}
	.st17{fill:none;stroke:#FEAB01;stroke-miterlimit:10;stroke-dasharray:2.108,2.108,2.108,2.108;}
	.st18{fill:none;stroke:#FEAB01;stroke-miterlimit:10;stroke-dasharray:0.2815,0.2815,0.2815,0.2815;}
	.st19{fill:none;stroke:#FEAB01;stroke-miterlimit:10;stroke-dasharray:3.0461,3.0461,3.0461,3.0461;}
	.st20{fill:none;stroke:#FEAB01;stroke-miterlimit:10;stroke-dasharray:0.3564,0.3564,0.3564,0.3564;}
	.st21{fill:none;stroke:#FEAB01;stroke-miterlimit:10;stroke-dasharray:1.354,1.354,1.354,1.354;}
	.st22{fill:none;stroke:#FEAB01;stroke-miterlimit:10;stroke-dasharray:1.9783,1.9783,1.9783,1.9783;}
	.st23{fill:none;stroke:#FEAB01;stroke-miterlimit:10;stroke-dasharray:1.618,1.618,1.618,1.618;}
	.st24{fill:none;stroke:#FEAB01;stroke-miterlimit:10;stroke-dasharray:5.2554,5.2554,5.2554,5.2554;}
	.st25{fill:none;stroke:#FEAB01;stroke-miterlimit:10;stroke-dasharray:1.7497,1.7497,1.7497,1.7497;}
	.st26{fill:none;stroke:#FEAB01;stroke-miterlimit:10;stroke-dasharray:4.9531,4.9531,4.9531,4.9531;}
	.st27{fill:none;stroke:#FEAB01;stroke-miterlimit:10;stroke-dasharray:2.3948,2.3948,2.3948,2.3948;}
	.st28{fill:none;stroke:#FEAB01;stroke-miterlimit:10;stroke-dasharray:5.3495,5.3495,5.3495,5.3495;}
	.st29{fill:none;stroke:#FEAB01;stroke-miterlimit:10;stroke-dasharray:0.7559,0.7559,0.7559,0.7559;}
	.st30{fill:none;stroke:#FEAB01;stroke-miterlimit:10;stroke-dasharray:10.0567,10.0567,10.0567,10.0567;}
	.st31{fill:none;stroke:#FEAB01;stroke-miterlimit:10;stroke-dasharray:0.1501,0.1501,0.1501,0.1501;}
	.st32{fill:none;stroke:#FEAB01;stroke-miterlimit:10;stroke-dasharray:6.271,6.271,6.271,6.271;}
	.st33{fill:none;stroke:#FEAB01;stroke-miterlimit:10;stroke-dasharray:0.9512,0.9512,0.9512,0.9512;}
	.st34{fill:none;stroke:#FEAB01;stroke-miterlimit:10;stroke-dasharray:0.8998,0.8998,0.8998,0.8998;}
	.st35{fill:none;stroke:#FEAB01;stroke-miterlimit:10;stroke-dasharray:0.2915,0.2915,0.2915,0.2915;}
	.st36{fill:none;stroke:#FEAB01;stroke-miterlimit:10;stroke-dasharray:2.2098,2.2098,2.2098,2.2098;}
	.st37{fill:none;stroke:#FEAB01;stroke-miterlimit:10;stroke-dasharray:7.661,7.661,7.661,7.661;}
	.st38{fill:none;stroke:#FEAB01;stroke-miterlimit:10;stroke-dasharray:1.4555,1.4555,1.4555,1.4555;}
	.st39{fill:none;stroke:#FEAB01;stroke-miterlimit:10;stroke-dasharray:0.6844,0.6844,0.6844,0.6844;}
	.st40{fill:none;stroke:#FEAB01;stroke-miterlimit:10;stroke-dasharray:0.5198,0.5198,0.5198,0.5198;}
	.st41{fill:none;stroke:#FEAB01;stroke-miterlimit:10;stroke-dasharray:0.8311,0.8311,0.8311,0.8311;}
	.st42{fill:none;stroke:#FEAB01;stroke-miterlimit:10;stroke-dasharray:1.4599,1.4599,1.4599,1.4599;}
	.st43{fill:none;stroke:#FEAB01;stroke-miterlimit:10;stroke-dasharray:1.0642,1.0642,1.0642,1.0642;}
	.st44{fill:none;stroke:#FEAB01;stroke-miterlimit:10;stroke-dasharray:1.0789,1.0789,1.0789,1.0789;}
	.st45{fill:none;stroke:#FEAB01;stroke-miterlimit:10;stroke-dasharray:5.3483,5.3483,5.3483,5.3483;}
	.st46{fill:none;stroke:#FEAB01;stroke-miterlimit:10;stroke-dasharray:0.3383,0.3383,0.3383,0.3383;}
	.st47{fill:none;stroke:#FEAB01;stroke-miterlimit:10;stroke-dasharray:1.2934,1.2934,1.2934,1.2934;}
	.st48{fill:none;stroke:#FEAB01;stroke-miterlimit:10;stroke-dasharray:1.6975,1.6975,1.6975,1.6975;}
	.st49{fill:none;stroke:#FEAB01;stroke-miterlimit:10;stroke-dasharray:0.9338,0.9338,0.9338,0.9338;}
	.st50{fill:none;stroke:#FEAB01;stroke-miterlimit:10;stroke-dasharray:2.1118,2.1118,2.1118,2.1118;}
	.st51{fill:none;stroke:#FEAB01;stroke-miterlimit:10;stroke-dasharray:5.1354,5.1354,5.1354,5.1354;}
	.st52{fill:none;stroke:#FEAB01;stroke-miterlimit:10;stroke-dasharray:5.1354,5.1354,5.1354,5.1354,5.1354,5.1354;}
	.st53{fill:none;stroke:#FEAB01;stroke-miterlimit:10;stroke-dasharray:6.6841,6.6841,6.6841,6.6841;}
	.st54{fill:none;stroke:#FEAB01;stroke-miterlimit:10;stroke-dasharray:5.1171,5.1171,5.1171,5.1171;}
	.st55{fill:none;stroke:#FEAB01;stroke-miterlimit:10;stroke-dasharray:1.3041,1.3041,1.3041,1.3041;}
	.st56{fill:none;stroke:#FEAB01;stroke-miterlimit:10;stroke-dasharray:4.7314,4.7314,4.7314,4.7314;}
	.st57{fill:none;stroke:#FEAB01;stroke-miterlimit:10;stroke-dasharray:2.0051,2.0051,2.0051,2.0051;}
	.st58{fill:none;stroke:#FEAB01;stroke-miterlimit:10;stroke-dasharray:0.808,0.808,0.808,0.808;}
	.st59{fill:none;stroke:#FEAB01;stroke-miterlimit:10;stroke-dasharray:0.6335,0.6335,0.6335,0.6335;}
	.st60{fill:none;stroke:#FEAB01;stroke-miterlimit:10;stroke-dasharray:0.4823,0.4823,0.4823,0.4823;}
	.st61{fill:none;stroke:#FEAB01;stroke-miterlimit:10;stroke-dasharray:0.8184,0.8184,0.8184,0.8184;}
	.st62{fill:none;stroke:#FEAB01;stroke-miterlimit:10;stroke-dasharray:2.779,2.779,2.779,2.779;}
	.st63{fill:none;stroke:#FEAB01;stroke-miterlimit:10;stroke-dasharray:1.6349,1.6349,1.6349,1.6349;}
	.st64{fill:none;stroke:#FEAB01;stroke-miterlimit:10;stroke-dasharray:0.5302,0.5302,0.5302,0.5302;}
	.st65{fill:none;stroke:#FEAB01;stroke-miterlimit:10;stroke-dasharray:8.2411,8.2411,8.2411,8.2411;}
	.st66{opacity:0.45;fill:#162763;}
	.st67{fill:none;stroke:#FEAB01;stroke-miterlimit:10;stroke-dasharray:1.4371,1.4371,1.4371,1.4371;}
	.st68{fill:none;stroke:#FEAB01;stroke-miterlimit:10;stroke-dasharray:5.4088,5.4088,5.4088,5.4088;}
	.st69{fill:none;stroke:#FEAB01;stroke-miterlimit:10;stroke-dasharray:1.5584,1.5584,1.5584,1.5584;}
	.st70{fill:none;stroke:#FEAB01;stroke-miterlimit:10;stroke-dasharray:1.6755,1.6755,1.6755,1.6755;}
	.st71{fill:none;stroke:#FEAB01;stroke-miterlimit:10;stroke-dasharray:0.5524,0.5524,0.5524,0.5524;}
	.st72{fill:none;stroke:#FEAB01;stroke-miterlimit:10;stroke-dasharray:0.1415,0.1415,0.1415,0.1415;}
	.st73{fill:none;stroke:#FEAB01;stroke-miterlimit:10;stroke-dasharray:2.7369,2.7369,2.7369,2.7369;}
	.st74{fill:none;stroke:#FEAB01;stroke-miterlimit:10;stroke-dasharray:0.8041,0.8041,0.8041,0.8041;}
	.st75{fill:none;stroke:#FEAB01;stroke-miterlimit:10;stroke-dasharray:0.4466,0.4466,0.4466,0.4466;}
	.st76{fill:none;stroke:#FEAB01;stroke-miterlimit:10;stroke-dasharray:3.1915,3.1915,3.1915,3.1915;}
	.st77{fill:none;stroke:#FEAB01;stroke-miterlimit:10;stroke-dasharray:0.1165,0.1165,0.1165,0.1165;}
	.st78{fill:none;stroke:#FEAB01;stroke-miterlimit:10;stroke-dasharray:2.337,2.337,2.337,2.337;}
	.st79{fill:none;stroke:#FEAB01;stroke-miterlimit:10;stroke-dasharray:3.5566,3.5566,3.5566,3.5566;}
	.st80{fill:none;stroke:#FEAB01;stroke-miterlimit:10;stroke-dasharray:7.824516e-003,7.824516e-003,7.824516e-003,7.824516e-003;}
	.st81{fill:none;stroke:#FEAB01;stroke-miterlimit:10;stroke-dasharray:2.0552,2.0552,2.0552,2.0552;}
	.st82{fill:none;stroke:#FEAB01;stroke-miterlimit:10;stroke-dasharray:1.1013,1.1013,1.1013,1.1013;}
	.st83{fill:none;stroke:#FEAB01;stroke-miterlimit:10;stroke-dasharray:2.0945,2.0945,2.0945,2.0945;}
	.st84{fill:none;stroke:#FEAB01;stroke-miterlimit:10;stroke-dasharray:1.855,1.855,1.855,1.855;}
	.st85{fill:none;stroke:#FEAB01;stroke-miterlimit:10;stroke-dasharray:1.3754,1.3754,1.3754,1.3754;}
	.st86{fill:none;stroke:#FEAB01;stroke-miterlimit:10;stroke-dasharray:8.001239e-003,8.001239e-003,8.001239e-003,8.001239e-003;}
	.st87{fill:none;stroke:#FEAB01;stroke-miterlimit:10;stroke-dasharray:0.7777,0.7777,0.7777,0.7777;}
	.st88{fill:none;stroke:#FEAB01;stroke-miterlimit:10;stroke-dasharray:1.189,1.189,1.189,1.189;}
	.st89{fill:none;stroke:#FEAB01;stroke-miterlimit:10;stroke-dasharray:0.1141,0.1141,0.1141,0.1141;}
	.st90{fill:none;stroke:#FEAB01;stroke-miterlimit:10;stroke-dasharray:0.1982,0.1982,0.1982,0.1982;}
	.st91{fill:none;stroke:#FEAB01;stroke-miterlimit:10;stroke-dasharray:0.7124,0.7124,0.7124,0.7124;}
	.st92{fill:none;stroke:#FEAB01;stroke-miterlimit:10;stroke-dasharray:0.8224,0.8224,0.8224,0.8224;}
	.st93{fill:none;stroke:#FEAB01;stroke-miterlimit:10;stroke-dasharray:0.6296,0.6296,0.6296,0.6296;}
	.st94{fill:none;stroke:#FEAB01;stroke-miterlimit:10;stroke-dasharray:3.206,3.206,3.206,3.206;}
	.st95{fill:none;stroke:#FEAB01;stroke-miterlimit:10;stroke-dasharray:1.6869,1.6869,1.6869,1.6869;}
	.st96{fill:none;stroke:#FEAB01;stroke-miterlimit:10;stroke-dasharray:2.4807,2.4807,2.4807,2.4807;}
	.st97{fill:none;stroke:#FEAB01;stroke-miterlimit:10;stroke-dasharray:4.645079e-002,4.645079e-002,4.645079e-002,4.645079e-002;}
	.st98{fill:none;stroke:#FEAB01;stroke-miterlimit:10;stroke-dasharray:10.4362,10.4362,10.4362,10.4362;}
	.st99{fill:none;stroke:#FEAB01;stroke-miterlimit:10;stroke-dasharray:10.4362,10.4362,10.4362,10.4362,10.4362,10.4362;}
	.st100{opacity:0.45;}
	.st101{fill:#3050AA;}
	.st102{fill:none;stroke:#FEAB01;stroke-miterlimit:10;stroke-dasharray:2.6928,2.6928,2.6928,2.6928;}
	.st103{fill:none;stroke:#FEAB01;stroke-miterlimit:10;stroke-dasharray:3.941722e-002,3.941722e-002,3.941722e-002,3.941722e-002;}
	.st104{fill:none;stroke:#FEAB01;stroke-miterlimit:10;stroke-dasharray:0.7083,0.7083,0.7083,0.7083;}
	.st105{fill:none;stroke:#FEAB01;stroke-miterlimit:10;stroke-dasharray:1.8428,1.8428,1.8428,1.8428;}
	.st106{fill:none;stroke:#FEAB01;stroke-miterlimit:10;stroke-dasharray:0.1044,0.1044,0.1044,0.1044;}
	.st107{fill:none;stroke:#FEAB01;stroke-miterlimit:10;stroke-dasharray:0.269,0.269,0.269,0.269;}
	.st108{fill:none;stroke:#FEAB01;stroke-miterlimit:10;stroke-dasharray:3.4449,3.4449,3.4449,3.4449;}
	.st109{fill:none;stroke:#FEAB01;stroke-miterlimit:10;stroke-dasharray:1.6048,1.6048,1.6048,1.6048;}
	.st110{fill:none;stroke:#FEAB01;stroke-miterlimit:10;stroke-dasharray:1.9444,1.9444,1.9444,1.9444;}
	.st111{fill:none;stroke:#FEAB01;stroke-miterlimit:10;stroke-dasharray:1.1294,1.1294,1.1294,1.1294;}
	.st112{fill:none;stroke:#FEAB01;stroke-miterlimit:10;stroke-dasharray:0.2325,0.2325,0.2325,0.2325;}
	.st113{fill:none;stroke:#FEAB01;stroke-miterlimit:10;stroke-dasharray:1.6265,1.6265,1.6265,1.6265;}
	.st114{fill:none;stroke:#FEAB01;stroke-miterlimit:10;stroke-dasharray:2.8131,2.8131,2.8131,2.8131;}
	.st115{fill:none;stroke:#FEAB01;stroke-miterlimit:10;stroke-dasharray:2.6998,2.6998,2.6998,2.6998;}
	.st116{fill:none;stroke:#FEAB01;stroke-miterlimit:10;stroke-dasharray:0.2973,0.2973,0.2973,0.2973;}
	.st117{fill:none;stroke:#FEAB01;stroke-miterlimit:10;stroke-dasharray:1.3062,1.3062,1.3062,1.3062;}
	.st118{fill:none;stroke:#FEAB01;stroke-miterlimit:10;stroke-dasharray:2.2171,2.2171,2.2171,2.2171;}
	.st119{fill:none;stroke:#FEAB01;stroke-miterlimit:10;stroke-dasharray:0.2219,0.2219,0.2219,0.2219;}
	.st120{fill:none;stroke:#FEAB01;stroke-miterlimit:10;stroke-dasharray:0.3987,0.3987,0.3987,0.3987;}
	.st121{fill:none;stroke:#FEAB01;stroke-miterlimit:10;stroke-dasharray:0.5494,0.5494,0.5494,0.5494;}
	.st122{fill:none;stroke:#FEAB01;stroke-miterlimit:10;stroke-dasharray:0.1972,0.1972,0.1972,0.1972;}
	.st123{fill:none;stroke:#FEAB01;stroke-miterlimit:10;stroke-dasharray:0.3235,0.3235,0.3235,0.3235;}
	.st124{fill:none;stroke:#FEAB01;stroke-miterlimit:10;stroke-dasharray:2.1175,2.1175,2.1175,2.1175;}
	.st125{fill:none;stroke:#FEAB01;stroke-miterlimit:10;stroke-dasharray:2.9625,2.9625,2.9625,2.9625;}
	.st126{fill:none;stroke:#FEAB01;stroke-miterlimit:10;stroke-dasharray:0.1399,0.1399,0.1399,0.1399;}
	.st127{fill:none;stroke:#FEAB01;stroke-miterlimit:10;stroke-dasharray:1.737,1.737,1.737,1.737;}
	.st128{fill:none;stroke:#FEAB01;stroke-miterlimit:10;stroke-dasharray:3.148,3.148,3.148,3.148;}
	.st129{fill:none;stroke:#FEAB01;stroke-miterlimit:10;stroke-dasharray:0.265,0.265,0.265,0.265;}
	.st130{fill:none;stroke:#FEAB01;stroke-miterlimit:10;stroke-dasharray:2.1094,2.1094,2.1094,2.1094;}
	.st131{fill:none;stroke:#FEAB01;stroke-miterlimit:10;stroke-dasharray:0.4095,0.4095,0.4095,0.4095;}
	.st132{fill:none;stroke:#FEAB01;stroke-miterlimit:10;stroke-dasharray:5.3755,5.3755,5.3755,5.3755;}
	.st133{fill:none;stroke:#FEAB01;stroke-miterlimit:10;stroke-dasharray:5.3755,5.3755,5.3755,5.3755,5.3755,5.3755;}
	.st134{fill:none;stroke:#FEAB01;stroke-miterlimit:10;stroke-dasharray:5.3751,5.3751,5.3751,5.3751;}
	.st135{fill:none;stroke:#FEAB01;stroke-miterlimit:10;stroke-dasharray:5.3751,5.3751,5.3751,5.3751,5.3751,5.3751;}
	.st136{fill:none;stroke:#FEAB01;stroke-miterlimit:10;stroke-dasharray:3.4603,3.4603,3.4603,3.4603;}
	.st137{fill:none;stroke:#FEAB01;stroke-miterlimit:10;stroke-dasharray:4.8576,4.8576,4.8576,4.8576;}
	.st138{fill:none;stroke:#FEAB01;stroke-miterlimit:10;stroke-dasharray:3.5923,3.5923,3.5923,3.5923;}
	.st139{fill:none;stroke:#FEAB01;stroke-miterlimit:10;stroke-dasharray:5.455003e-002,5.455003e-002,5.455003e-002,5.455003e-002;}
	.st140{fill:none;stroke:#FEAB01;stroke-miterlimit:10;stroke-dasharray:3.3444,3.3444,3.3444,3.3444;}
	.st141{fill:none;stroke:#FEAB01;stroke-miterlimit:10;stroke-dasharray:3.0646,3.0646,3.0646,3.0646;}
	.st142{fill:none;stroke:#FEAB01;stroke-miterlimit:10;stroke-dasharray:0.544,0.544,0.544,0.544;}
	.st143{fill:none;stroke:#FEAB01;stroke-miterlimit:10;stroke-dasharray:2.1626,2.1626,2.1626,2.1626;}
	.st144{fill:none;stroke:#FEAB01;stroke-miterlimit:10;stroke-dasharray:1.6946,1.6946,1.6946,1.6946;}
	.st145{fill:none;stroke:#FEAB01;stroke-miterlimit:10;stroke-dasharray:0.886,0.886,0.886,0.886;}
	.st146{fill:none;stroke:#FEAB01;stroke-miterlimit:10;stroke-dasharray:1.3955,1.3955,1.3955,1.3955;}
	.st147{fill:none;stroke:#FEAB01;stroke-miterlimit:10;stroke-dasharray:5.1384,5.1384,5.1384,5.1384;}
	.st148{fill:none;stroke:#FEAB01;stroke-miterlimit:10;stroke-dasharray:10.0064,10.0064,10.0064,10.0064;}
	.st149{fill:none;stroke:#FEAB01;stroke-miterlimit:10;stroke-dasharray:0.7859,0.7859,0.7859,0.7859;}
	.st150{fill:none;stroke:#FEAB01;stroke-miterlimit:10;stroke-dasharray:0.4019,0.4019,0.4019,0.4019;}
	.st151{fill:none;stroke:#FEAB01;stroke-miterlimit:10;stroke-dasharray:8.0536,8.0536,8.0536,8.0536;}
	.st152{fill:none;stroke:#FEAB01;stroke-miterlimit:10;stroke-dasharray:0.3771,0.3771,0.3771,0.3771;}
	.st153{fill:none;stroke:#FEAB01;stroke-miterlimit:10;stroke-dasharray:1.7287,1.7287,1.7287,1.7287;}
	.st154{fill:none;stroke:#FEAB01;stroke-miterlimit:10;stroke-dasharray:9.0054,9.0054,9.0054,9.0054;}
	.st155{fill:none;stroke:#FEAB01;stroke-miterlimit:10;stroke-dasharray:9.0054,9.0054,9.0054,9.0054,9.0054,9.0054;}
	.st156{fill:#F9E4AF;}
	.st157{font-family:'MicrosoftYaHei';}
	.st158{font-size:7px;}
	.st159{font-size:11px;}
	.st160{fill:#19488C;fill-opacity:0.45;stroke:#FEAB01;stroke-miterlimit:10;}
	.st161{fill:#2659AA;fill-opacity:0.45;stroke:#FEAB01;stroke-miterlimit:10;}
	.st162{fill:#0F477A;fill-opacity:0.45;stroke:#FEAB01;stroke-miterlimit:10;}
	.st163{font-size:6.9994px;}
	.st164{opacity:0.5;fill:none;stroke:#F9E4AF;stroke-miterlimit:10;}
	.st165{fill:#FFFFFF;}
	.st166{font-family:'MicrosoftYaHeiLight';}
	.st167{font-size:12px;}
	.st168{opacity:0.5;fill:#F9E4AF;}
	.st169{opacity:0.5;fill:none;stroke:#F9E4AF;stroke-width:2;stroke-miterlimit:10;}
</style>
<g id="XMLID_9_">
	<g id="XMLID_1016_">
		<polygon id="XMLID_706_" class="st0" points="217.8,364.8 221.3,363.7 223.1,357 223.1,348 224.9,346.9 232,350.2 244.4,346.9 
			248,346.9 248,342.4 255.1,333.3 255.1,330 253.3,322.1 255.1,317.6 253.3,315.3 258.7,309.7 260.4,304 253.3,293.9 249.8,278.1 
			251.5,261.1 258.7,258.9 262.2,249.8 267.6,249.8 271.1,254.3 280,257.7 280,260 274.7,274.7 280,274.7 281.8,266.8 283.6,262.2 
			285.3,262.2 287.1,265.6 292.4,267.9 299.6,260 301.3,261.1 299.6,263.4 297.8,263.4 297.8,265.6 303.1,265.6 303.1,266.8 
			304.9,270.2 304.9,272.4 313.8,272.4 319.1,278.1 320.9,282.6 319.1,290.5 322.7,295 328,306.3 331.6,305.2 335.1,307.4 
			335.1,309.7 331.6,314.2 333.3,315.3 336.9,316.4 338.7,318.7 342.2,319.8 342.2,327.7 340.5,328.8 333.3,328.8 331.6,330 
			331.6,337.9 331.6,340.1 333.3,341.2 335.1,345.7 331.6,348 326.2,346.9 324.5,349.1 326.2,353.6 329.8,358.1 331.6,363.7 
			329.8,369.3 331.6,372.7 331.6,378.3 336.9,383.9 336.9,387.3 338.7,388.4 344,389.6 344,392.9 345.8,400.8 356.5,406.4 
			361.8,407.5 365.4,406.4 367.1,404.1 367.1,403 370.7,400.8 376,398.5 377.8,394 376,387.3 388.5,376.1 397.4,378.3 408,379.4 
			406.3,366 406.3,361.5 418.7,349.1 424,342.4 424,332.2 416.9,332.2 415.2,316.4 413.4,314.2 411.6,314.2 409.8,308.6 408,302.9 
			409.8,298.4 415.2,295 420.5,296.1 425.8,292.8 416.9,276.9 415.2,273.6 416.9,270.2 450.7,279.2 452.5,279.2 454.3,276.9 
			464.9,274.7 466.7,270.2 475.6,271.3 479.2,275.8 482.7,278.1 497,284.9 505.8,296.1 511.2,299.5 514.7,302.9 511.2,313.1 
			518.3,315.3 520.1,313.1 525.4,314.2 527.2,318.7 534.3,323.2 548.5,326.6 550.3,328.8 550.3,335.6 552.1,339 548.5,339 
			548.5,344.6 545,348 539.6,343.5 539.6,344.6 539.6,346.9 527.2,349.1 525.4,350.2 527.2,352.5 521.8,366 516.5,366 514.7,367.1 
			507.6,363.7 507.6,367.1 511.2,369.3 511.2,372.7 507.6,371.6 505.8,372.7 507.6,372.7 507.6,375 504.1,380.6 495.2,381.7 
			502.3,390.7 505.8,389.6 505.8,394 502.3,399.6 498.7,401.9 495.2,406.4 495.2,405.3 493.4,406.4 488.1,436.6 489.8,441.1 
			493.4,448.9 497,451.1 497,455.6 497,457.8 491.6,458.9 497,466.8 498.7,467.9 502.3,472.4 500.5,477.9 497,484.6 491.6,480.2 
			493.4,488 491.6,489.1 488.1,485.7 484.5,486.8 475.6,477.9 468.5,479 463.2,483.5 459.6,481.3 456.1,482.4 450.7,479 
			450.7,481.3 450.7,484.6 445.4,482.4 441.8,484.6 438.3,480.2 431.2,476.8 427.6,477.9 431.2,481.3 429.4,482.4 429.4,484.6 
			427.6,485.7 424,482.4 422.3,483.5 409.8,474.6 408,477.9 408,482.4 406.3,485.7 406.3,489.1 400.9,482.4 397.4,482.4 
			395.6,484.6 393.8,483.5 392,484.6 392,481.3 388.5,482.4 384.9,479 383.1,480.2 383.1,482.4 384.9,488 388.5,492.4 390.3,499.1 
			388.5,502.4 388.5,506.9 388.5,514.7 384.9,515.8 379.6,514.7 381.4,519.1 377.8,520.3 377.8,519.1 377.8,518 376,515.8 
			372.5,510.2 370.7,511.3 374.3,516.9 372.5,519.1 376,521.4 383.1,531.4 384.9,529.1 388.5,530.3 386.7,535.8 388.5,538 
			388.5,541.4 390.3,542.5 390.3,545.8 388.5,549.1 386.7,554.7 386.7,556.9 386.7,560.2 390.3,563.6 386.7,563.6 377.8,556.9 
			376,561.3 374.3,559.1 370.7,561.3 368.9,564.7 367.1,564.7 370.7,570.2 367.1,569.1 363.6,571.3 365.4,578 361.8,580.2 
			363.6,582.4 360,584.6 356.5,583.5 356.5,584.6 352.9,581.3 351.1,584.6 345.8,584.6 345.8,586.9 335.1,590.2 331.6,589.1 
			328,584.6 324.5,587.9 320.9,587.9 320.9,592.4 315.6,590.2 310.2,593.5 308.5,591.3 308.5,584.6 303.1,579.1 301.3,570.2 
			296,563.6 296,556.9 290.7,550.3 290.7,548 288.9,543.6 285.3,541.4 280,541.4 281.8,536.9 281.8,533.6 280,532.5 278.2,529.1 
			276.4,528 278.2,525.8 276.4,525.8 272.9,522.5 271.1,521.4 271.1,519.1 269.3,515.8 264,515.8 258.7,511.3 248,490.2 
			246.2,489.1 240.9,489.1 233.8,481.3 230.2,470.1 230.2,464.5 224.9,458.9 232,455.6 235.6,463.4 233.8,466.8 239.1,472.4 
			248,467.9 242.7,452.2 251.5,446.7 274.7,447.8 276.4,445.5 274.7,444.4 262.2,437.7 260.4,434.4 267.6,431 264,428.8 
			265.8,426.5 276.4,423.2 274.7,419.8 276.4,418.7 281.8,418.7 278.2,413.1 287.1,412 290.7,409.7 290.7,407.5 297.8,400.8 
			296,397.4 290.7,396.3 285.3,391.8 285.3,388.4 288.9,378.3 287.1,377.2 288.9,370.5 283.6,359.2 283.6,354.7 280,353.6 
			280,360.3 274.7,370.5 272.9,370.5 272.9,373.8 271.1,379.4 267.6,380.6 265.8,379.4 267.6,373.8 265.8,371.6 267.6,366 
			267.6,359.2 260.4,359.2 256.9,361.5 249.8,361.5 246.2,362.6 237.3,361.5 226.7,364.8 		"/>
		<g id="XMLID_568_">
			<polyline id="XMLID_705_" class="st1" points="222.8,364.8 217.8,364.8 221.3,363.7 222.6,358.9 			"/>
			<polyline id="XMLID_704_" class="st2" points="222.9,357.7 223.1,357 223.1,353.6 			"/>
			<polyline id="XMLID_703_" class="st1" points="223.1,353 223.1,348 224.9,346.9 229.4,349 			"/>
			<polyline id="XMLID_702_" class="st3" points="232,350.2 232,350.2 241.7,347.6 			"/>
			<polyline id="XMLID_701_" class="st1" points="243.1,347.2 244.4,346.9 248,346.9 248,342.4 248.3,342 			"/>
			<polyline id="XMLID_700_" class="st4" points="251.1,338.5 255.1,333.3 255.1,330 253.8,324.4 			"/>
			<polyline id="XMLID_699_" class="st1" points="253.4,322.2 253.3,322.1 255.1,317.6 253.3,315.3 256.8,311.7 			"/>
			<polyline id="XMLID_698_" class="st5" points="257.3,311.2 258.7,309.7 258.8,309.2 			"/>
			<polyline id="XMLID_697_" class="st1" points="258.9,308.8 260.4,304 257.6,300 			"/>
			<polyline id="XMLID_696_" class="st6" points="253.5,294.1 253.3,293.9 249.8,278.1 250.7,269.6 			"/>
			<polyline id="XMLID_695_" class="st1" points="251,266.1 251.5,261.1 258.7,258.9 262.2,249.8 267.6,249.8 270.6,253.7 			"/>
			<line id="XMLID_694_" class="st7" x1="271.4" y1="254.4" x2="274.8" y2="255.7"/>
			<polyline id="XMLID_693_" class="st1" points="275.3,255.9 280,257.7 280,260 279.1,262.6 			"/>
			<line id="XMLID_692_" class="st8" x1="278.5" y1="264" x2="276.6" y2="269.2"/>
			<polyline id="XMLID_691_" class="st1" points="276.4,270 274.7,274.7 280,274.7 281.1,269.8 			"/>
			<line id="XMLID_690_" class="st9" x1="281.2" y1="269.2" x2="281.7" y2="267.2"/>
			<polyline id="XMLID_689_" class="st1" points="281.8,266.9 281.8,266.8 283.6,262.2 285.3,262.2 287.1,265.6 292.4,267.9 
				295.8,264.2 			"/>
			<line id="XMLID_688_" class="st10" x1="295.9" y1="264.1" x2="296.2" y2="263.8"/>
			<polyline id="XMLID_687_" class="st1" points="296.2,263.7 299.6,260 301.3,261.1 299.6,263.4 297.8,263.4 297.8,265.6 
				303.1,265.6 303.1,266.8 304.9,270.2 304.9,272.4 313.8,272.4 317.2,276.1 			"/>
			<polyline id="XMLID_686_" class="st11" points="318.7,277.6 319.1,278.1 320.9,282.6 320.5,284.6 			"/>
			<polyline id="XMLID_685_" class="st1" points="320.2,285.6 319.1,290.5 322.2,294.4 			"/>
			<line id="XMLID_684_" class="st12" x1="323.1" y1="295.8" x2="325.5" y2="301"/>
			<polyline id="XMLID_683_" class="st1" points="325.9,301.8 328,306.3 331.6,305.2 335.1,307.4 335.1,309.7 331.6,314.2 
				333.3,315.3 336.1,316.2 			"/>
			<polyline id="XMLID_682_" class="st13" points="336.6,316.3 336.9,316.4 337.7,317.5 			"/>
			<polyline id="XMLID_681_" class="st1" points="337.9,317.7 338.7,318.7 342.2,319.8 342.2,327.7 340.5,328.8 337.6,328.8 			"/>
			<line id="XMLID_680_" class="st14" x1="337.3" y1="328.8" x2="336.4" y2="328.8"/>
			<polyline id="XMLID_679_" class="st1" points="336.2,328.8 333.3,328.8 331.6,330 331.6,335 			"/>
			<line id="XMLID_678_" class="st15" x1="331.6" y1="335" x2="331.6" y2="335.1"/>
			<polyline id="XMLID_677_" class="st1" points="331.6,335.1 331.6,337.9 331.6,340.1 333.3,341.2 335.1,345.7 331.6,348 
				326.2,346.9 324.5,349.1 326.2,353.6 326.3,353.7 			"/>
			<polyline id="XMLID_676_" class="st16" points="327.9,355.7 329.8,358.1 331.5,363.4 			"/>
			<polyline id="XMLID_675_" class="st1" points="331.3,364.6 329.8,369.3 331.6,372.7 331.6,373.9 			"/>
			<polyline id="XMLID_674_" class="st17" points="331.6,376 331.6,378.3 335.1,382 			"/>
			<polyline id="XMLID_673_" class="st1" points="335.8,382.8 336.9,383.9 336.9,387.3 338.7,388.4 344,389.6 344,392.9 
				344.4,394.5 			"/>
			<line id="XMLID_672_" class="st18" x1="344.4" y1="394.8" x2="344.7" y2="395.8"/>
			<polyline id="XMLID_671_" class="st1" points="344.7,395.9 345.8,400.8 350.2,403.1 			"/>
			<polyline id="XMLID_670_" class="st19" points="352.9,404.5 356.5,406.4 361.8,407.5 362.9,407.1 			"/>
			<polyline id="XMLID_669_" class="st1" points="364.4,406.7 365.4,406.4 367.1,404.1 367.1,403 370.7,400.8 376,398.5 377.8,394 
				377.8,393.9 			"/>
			<line id="XMLID_668_" class="st20" x1="377.7" y1="393.5" x2="377.4" y2="392.3"/>
			<polyline id="XMLID_667_" class="st1" points="377.3,392.1 376,387.3 379.7,384 			"/>
			<line id="XMLID_666_" class="st21" x1="380.7" y1="383.1" x2="384.3" y2="379.9"/>
			<polyline id="XMLID_665_" class="st1" points="384.8,379.4 388.5,376.1 393.3,377.3 			"/>
			<polyline id="XMLID_664_" class="st22" points="395.2,377.8 397.4,378.3 402.1,378.8 			"/>
			<polyline id="XMLID_663_" class="st1" points="403.1,378.9 408,379.4 407.4,374.5 			"/>
			<line id="XMLID_662_" class="st23" x1="407.2" y1="372.9" x2="406.4" y2="367.3"/>
			<polyline id="XMLID_661_" class="st1" points="406.3,366.5 406.3,366 406.3,361.5 409.8,357.9 			"/>
			<polyline id="XMLID_660_" class="st24" points="413.5,354.2 418.7,349.1 424,342.4 424,339.8 			"/>
			<polyline id="XMLID_659_" class="st1" points="424,337.2 424,332.2 416.9,332.2 416.4,327.3 			"/>
			<line id="XMLID_658_" class="st25" x1="416.2" y1="325.5" x2="415.5" y2="319.4"/>
			<polyline id="XMLID_657_" class="st1" points="415.4,318.6 415.2,316.4 413.4,314.2 411.6,314.2 410.1,309.4 			"/>
			<polyline id="XMLID_656_" class="st26" points="408.6,304.7 408,302.9 409.8,298.4 415.2,295 419.3,295.9 			"/>
			<polyline id="XMLID_655_" class="st1" points="421.6,295.4 425.8,292.8 423.4,288.4 			"/>
			<line id="XMLID_654_" class="st27" x1="422.2" y1="286.3" x2="418.1" y2="279"/>
			<polyline id="XMLID_653_" class="st1" points="417.5,278 416.9,276.9 415.2,273.6 416.9,270.2 421.8,271.5 			"/>
			<line id="XMLID_652_" class="st28" x1="426.9" y1="272.8" x2="445" y2="277.7"/>
			<polyline id="XMLID_651_" class="st1" points="447.6,278.4 450.7,279.2 452.5,279.2 454.3,276.9 456.3,276.5 			"/>
			<line id="XMLID_650_" class="st29" x1="457.1" y1="276.3" x2="459.7" y2="275.8"/>
			<polyline id="XMLID_649_" class="st1" points="460,275.7 464.9,274.7 466.7,270.2 471.7,270.8 			"/>
			<polyline id="XMLID_648_" class="st30" points="479.5,276 482.7,278.1 497,284.9 505.8,296.1 506.9,296.8 			"/>
			<polyline id="XMLID_647_" class="st1" points="511.1,299.5 511.2,299.5 514.7,302.9 513.1,307.6 			"/>
			<line id="XMLID_646_" class="st31" x1="513" y1="307.8" x2="512.8" y2="308.3"/>
			<polyline id="XMLID_645_" class="st1" points="512.8,308.3 511.2,313.1 518.3,315.3 520.1,313.1 525.4,314.2 527.2,318.7 
				527.3,318.8 			"/>
			<polyline id="XMLID_644_" class="st32" points="532.6,322.1 534.3,323.2 548.5,326.6 550.3,328.8 550.3,331.3 			"/>
			<polyline id="XMLID_643_" class="st1" points="550.3,334.4 550.3,335.6 552.1,339 548.5,339 548.5,344.6 545,348 539.6,343.5 
				539.6,344.6 539.6,346.9 534.7,347.7 			"/>
			<line id="XMLID_642_" class="st33" x1="533.8" y1="347.9" x2="530.5" y2="348.5"/>
			<polyline id="XMLID_641_" class="st1" points="530,348.6 527.2,349.1 525.4,350.2 527.2,352.5 525.3,357.1 			"/>
			<line id="XMLID_640_" class="st34" x1="525" y1="358" x2="523.9" y2="360.9"/>
			<polyline id="XMLID_639_" class="st1" points="523.7,361.3 521.8,366 516.5,366 514.7,367.1 507.6,363.7 507.6,367.1 
				511.2,369.3 511.2,372.7 507.6,371.6 505.8,372.7 507.6,372.7 507.6,375 504.1,380.6 495.2,381.7 498.3,385.6 			"/>
			<line id="XMLID_638_" class="st35" x1="498.5" y1="385.8" x2="499.1" y2="386.6"/>
			<polyline id="XMLID_637_" class="st1" points="499.2,386.8 502.3,390.7 505.8,389.6 505.8,394 505.6,394.5 			"/>
			<polyline id="XMLID_636_" class="st36" points="504.4,396.3 502.3,399.6 499,401.7 			"/>
			<polyline id="XMLID_635_" class="st1" points="498.3,402.5 495.2,406.4 495.2,405.3 493.4,406.4 492.5,411.3 			"/>
			<polyline id="XMLID_634_" class="st37" points="491.2,418.8 488.1,436.6 489.8,441.1 491.5,444.7 			"/>
			<polyline id="XMLID_633_" class="st1" points="493.1,448.2 493.4,448.9 497,451.1 497,455.6 497,457.8 491.6,458.9 494.4,463.1 
							"/>
			<polyline id="XMLID_632_" class="st38" points="495.3,464.3 497,466.8 498.7,467.9 			"/>
			<polyline id="XMLID_631_" class="st1" points="499.2,468.4 502.3,472.4 500.8,477.1 			"/>
			<polyline id="XMLID_630_" class="st39" points="500.5,477.8 500.5,477.9 499.5,479.9 			"/>
			<polyline id="XMLID_629_" class="st1" points="499.3,480.2 497,484.6 491.6,480.2 493.4,488 491.6,489.1 488.1,485.7 
				484.5,486.8 481,483.3 			"/>
			<line id="XMLID_628_" class="st40" x1="480.6" y1="482.9" x2="479.3" y2="481.6"/>
			<polyline id="XMLID_627_" class="st1" points="479.1,481.5 475.6,477.9 470.7,478.7 			"/>
			<polyline id="XMLID_626_" class="st41" points="469.8,478.8 468.5,479 467.3,480 			"/>
			<polyline id="XMLID_625_" class="st1" points="467,480.3 463.2,483.5 459.6,481.3 456.1,482.4 450.7,479 450.7,481.3 
				450.7,484.6 445.4,482.4 441.8,484.6 438.7,480.7 			"/>
			<line id="XMLID_624_" class="st42" x1="437.6" y1="479.8" x2="433" y2="477.7"/>
			<polyline id="XMLID_623_" class="st1" points="432.3,477.3 431.2,476.8 427.6,477.9 431.2,481.3 429.4,482.4 429.4,484.6 
				427.6,485.7 424,482.4 422.3,483.5 418.2,480.6 			"/>
			<line id="XMLID_622_" class="st43" x1="417.3" y1="480" x2="414.3" y2="477.8"/>
			<polyline id="XMLID_621_" class="st1" points="413.9,477.5 409.8,474.6 408,477.9 408,479.1 			"/>
			<polyline id="XMLID_620_" class="st44" points="408,480.2 408,482.4 407.3,483.8 			"/>
			<polyline id="XMLID_619_" class="st1" points="407,484.3 406.3,485.7 406.3,489.1 400.9,482.4 397.4,482.4 395.6,484.6 
				393.8,483.5 392,484.6 392,481.3 388.5,482.4 384.9,479 383.1,480.2 383.1,482.4 384,485 			"/>
			<polyline id="XMLID_618_" class="st45" points="386.3,489.7 388.5,492.4 390.3,499.1 388.5,502.4 388.5,506.9 388.5,507 			"/>
			<polyline id="XMLID_617_" class="st1" points="388.5,509.7 388.5,514.7 384.9,515.8 379.6,514.7 381.4,519.1 377.8,520.3 
				377.8,519.1 377.8,518 376.1,515.9 			"/>
			<line id="XMLID_616_" class="st46" x1="375.9" y1="515.6" x2="375.3" y2="514.6"/>
			<polyline id="XMLID_615_" class="st1" points="375.2,514.4 372.5,510.2 370.7,511.3 374.3,516.9 372.5,519.1 376,521.4 
				376.5,522 			"/>
			<line id="XMLID_614_" class="st47" x1="377.2" y1="523.1" x2="379.9" y2="526.8"/>
			<polyline id="XMLID_613_" class="st1" points="380.2,527.3 383.1,531.4 384.9,529.1 388.5,530.3 386.7,535.8 388.5,538 
				388.5,541.4 390.3,542.5 390.3,545.8 389.5,547.3 			"/>
			<polyline id="XMLID_612_" class="st48" points="388.7,548.8 388.5,549.1 386.8,554.4 			"/>
			<polyline id="XMLID_611_" class="st1" points="386.7,555.2 386.7,556.9 386.7,560.2 390.3,563.6 386.7,563.6 385.5,562.7 			"/>
			<line id="XMLID_610_" class="st49" x1="384.8" y1="562.1" x2="382.2" y2="560.2"/>
			<polyline id="XMLID_609_" class="st1" points="381.8,559.9 377.8,556.9 376,561.3 374.3,559.1 370.7,561.3 368.9,564.7 
				367.1,564.7 370.7,570.2 367.1,569.1 363.6,571.3 365.4,578 361.8,580.2 363.6,582.4 360,584.6 356.5,583.5 356.5,584.6 
				352.9,581.3 351.1,584.6 345.8,584.6 345.8,586.9 341,588.3 			"/>
			<polyline id="XMLID_608_" class="st50" points="339,589 335.1,590.2 331.9,589.2 			"/>
			<polyline id="XMLID_607_" class="st1" points="331.2,588.5 328,584.6 324.5,587.9 320.9,587.9 320.9,592.4 315.6,590.2 
				310.2,593.5 308.5,591.3 308.5,589.1 			"/>
			<polyline id="XMLID_606_" class="st51" points="308,584.2 303.1,579.1 301.3,570.2 300.2,568.8 			"/>
			<polyline id="XMLID_605_" class="st52" points="298.6,566.7 296,563.6 296,556.9 290.7,550.3 290.7,548 288.9,543.6 287.2,542.5 
							"/>
			<polyline id="XMLID_604_" class="st1" points="285,541.4 280,541.4 281.8,536.9 281.8,533.6 280,532.5 278.2,529.1 276.4,528 
				278.2,525.8 276.4,525.8 272.9,522.5 271.1,521.4 271.1,519.1 269.3,515.8 264.3,515.8 			"/>
			<polyline id="XMLID_603_" class="st53" points="259.1,511.7 258.7,511.3 248.4,491 			"/>
			<polyline id="XMLID_602_" class="st1" points="245.9,489.1 240.9,489.1 237.5,485.4 			"/>
			<polyline id="XMLID_601_" class="st54" points="234.1,481.6 233.8,481.3 230.2,470.1 230.2,464.5 230.1,464.4 			"/>
			<polyline id="XMLID_600_" class="st1" points="228.3,462.6 224.9,458.9 232,455.6 235.6,463.4 233.8,466.8 239.1,472.4 
				248,467.9 246.4,463.2 			"/>
			<line id="XMLID_599_" class="st55" x1="246" y1="461.9" x2="244.5" y2="457.6"/>
			<polyline id="XMLID_598_" class="st1" points="244.3,457 242.7,452.2 246.9,449.6 			"/>
			<polyline id="XMLID_597_" class="st56" points="250.9,447.1 251.5,446.7 267.3,447.4 			"/>
			<polyline id="XMLID_596_" class="st1" points="269.7,447.5 274.7,447.8 276.4,445.5 274.7,444.4 272.1,443 			"/>
			<line id="XMLID_595_" class="st57" x1="270.3" y1="442.1" x2="264.2" y2="438.8"/>
			<polyline id="XMLID_594_" class="st1" points="263.3,438.3 262.2,437.7 260.4,434.4 267.6,431 264,428.8 265.8,426.5 
				267.8,425.9 			"/>
			<line id="XMLID_593_" class="st58" x1="268.6" y1="425.6" x2="271.3" y2="424.8"/>
			<polyline id="XMLID_592_" class="st1" points="271.7,424.7 276.4,423.2 274.7,419.8 276.4,418.7 281.8,418.7 278.2,413.1 
				283.2,412.5 			"/>
			<line id="XMLID_591_" class="st59" x1="283.8" y1="412.4" x2="286" y2="412.1"/>
			<polyline id="XMLID_590_" class="st1" points="286.3,412.1 287.1,412 290.7,409.7 290.7,407.5 297.8,400.8 296,397.4 
				291.1,396.4 			"/>
			<line id="XMLID_589_" class="st60" x1="290.6" y1="396.3" x2="289.4" y2="395.2"/>
			<polyline id="XMLID_588_" class="st1" points="289.2,395 285.3,391.8 285.3,388.4 285.9,386.9 			"/>
			<line id="XMLID_587_" class="st61" x1="286.2" y1="386.1" x2="287.1" y2="383.4"/>
			<polyline id="XMLID_586_" class="st1" points="287.2,383 288.9,378.3 287.1,377.2 288.4,372.4 			"/>
			<line id="XMLID_585_" class="st62" x1="288.6" y1="369.7" x2="284.4" y2="360.9"/>
			<polyline id="XMLID_584_" class="st1" points="283.8,359.7 283.6,359.2 283.6,354.7 280,353.6 280,358.6 			"/>
			<polyline id="XMLID_583_" class="st63" points="280,360.2 280,360.3 277.4,365.3 			"/>
			<polyline id="XMLID_582_" class="st1" points="277,366 274.7,370.5 272.9,370.5 272.9,373.8 271.1,379.4 267.6,380.6 
				265.8,379.4 267.6,373.8 265.8,371.6 267.3,366.8 			"/>
			<polyline id="XMLID_581_" class="st64" points="267.4,366.3 267.6,366 267.6,364.5 			"/>
			<polyline id="XMLID_580_" class="st1" points="267.6,364.2 267.6,359.2 262.6,359.2 			"/>
			<polyline id="XMLID_579_" class="st65" points="255,361.5 249.8,361.5 246.2,362.6 237.3,361.5 226.9,364.8 			"/>
		</g>
	</g>
	<g id="XMLID_920_">
		<polygon id="XMLID_521_" class="st66" points="217.8,364.8 226.7,364.8 237.3,361.5 246.2,362.6 249.8,361.5 256.9,361.5 
			260.4,359.2 267.6,359.2 267.6,366 265.8,371.6 267.6,373.8 265.8,379.4 267.6,380.6 271.1,379.4 272.9,373.8 272.9,370.5 
			274.7,370.5 280,360.3 280,353.6 283.6,354.7 283.6,359.2 288.9,370.5 287.1,377.2 288.9,378.3 285.3,388.4 285.3,391.8 
			290.7,396.3 296,397.4 297.8,400.8 290.7,407.5 290.7,409.7 287.1,412 278.2,413.1 281.8,418.7 276.4,418.7 274.7,419.8 
			276.4,423.2 265.8,426.5 264,428.8 267.6,431 260.4,434.4 262.2,437.7 274.7,444.4 276.4,445.5 274.7,447.8 251.5,446.7 
			242.7,452.2 248,467.9 239.1,472.4 233.8,466.8 235.6,463.4 232,455.6 224.9,458.9 230.2,464.5 230.2,470.1 233.8,481.3 
			240.9,489.1 246.2,489.1 248,490.2 258.7,511.3 264,515.8 269.3,515.8 271.1,519.1 271.1,521.4 272.9,522.5 276.4,525.8 
			278.2,525.8 276.4,528 278.2,529.1 280,532.5 281.8,533.6 281.8,536.9 280,541.4 285.3,541.4 288.9,543.6 290.7,548 290.7,550.3 
			296,556.9 296,563.6 301.3,570.2 303.1,579.1 308.5,584.6 308.5,591.3 310.2,593.5 297.8,599 294.2,599 294.2,601.2 294.2,602.4 
			290.7,603.5 288.9,607.9 287.1,607.9 285.3,611.2 290.7,614.5 292.4,621.1 292.4,626.7 290.7,630 288.9,631.1 285.3,636.6 
			285.3,638.8 287.1,642.1 285.3,645.4 281.8,644.3 280,653.2 283.6,657.6 283.6,669.7 274.7,666.4 265.8,666.4 262.2,675.2 
			260.4,675.2 258.7,678.5 251.5,684 248,680.7 242.7,681.8 248,675.2 248,673 246.2,671.9 242.7,670.8 240.9,673 237.3,671.9 
			232,677.4 230.2,677.4 224.9,673 219.5,663.1 216,662 207.1,667.5 203.5,667.5 201.8,671.9 196.4,660.9 198.2,658.7 196.4,655.4 
			200,653.2 200,649.9 196.4,644.3 191.1,642.1 187.5,636.6 185.7,633.3 189.3,632.2 187.5,630 187.5,622.2 184,620 182.2,621.1 
			180.4,609 175.1,601.2 171.5,603.5 166.2,603.5 162.6,599 162.6,597.9 166.2,595.7 166.2,592.4 164.4,587.9 160.9,586.9 
			159.1,582.4 159.1,575.8 155.5,569.1 155.5,566.9 159.1,561.3 166.2,560.2 168,558 171.5,559.1 175.1,558 176.9,555.8 
			176.9,546.9 176.9,545.8 173.3,546.9 171.5,545.8 173.3,542.5 169.8,539.1 168,538 168,533.6 164.4,531.4 162.6,531.4 
			159.1,529.1 153.8,529.1 152,513.6 150.2,509.1 139.5,506.9 132.4,502.4 128.9,505.8 127.1,502.4 123.5,500.2 114.6,500.2 
			114.6,499.1 114.6,490.2 109.3,488 109.3,484.6 105.7,481.3 105.7,475.7 100.4,471.2 98.6,464.5 91.5,461.2 86.2,457.8 
			84.4,457.8 77.3,465.6 68.4,465.6 66.6,464.5 66.6,465.6 64.8,465.6 61.3,463.4 57.7,456.7 59.5,451.1 61.3,451.1 61.3,446.7 
			66.6,447.8 70.2,443.3 77.3,438.8 77.3,436.6 73.7,436.6 68.4,434.4 66.6,431 70.2,424.3 70.2,423.2 64.8,422.1 61.3,423.2 
			48.8,420.9 45.3,418.7 41.7,420.9 34.6,422.1 32.8,420.9 31,417.6 31,416.5 15.1,422.1 9.7,423.2 7.9,420.9 13.3,416.5 
			15.1,418.7 18.6,418.7 20.4,415.3 25.7,414.2 27.5,404.1 88,400.8 100.4,395.2 121.7,389.6 164.4,368.2 182.2,361.5 203.5,364.8 
					"/>
		<g id="XMLID_412_">
			<polyline id="XMLID_520_" class="st1" points="262.6,359.2 267.6,359.2 267.6,364.2 			"/>
			<polyline id="XMLID_519_" class="st64" points="267.6,364.7 267.6,366 267.4,366.6 			"/>
			<polyline id="XMLID_518_" class="st1" points="267.3,366.8 265.8,371.6 267.6,373.8 265.8,379.4 267.6,380.6 271.1,379.4 
				272.9,373.8 272.9,370.5 274.7,370.5 277,366 			"/>
			<polyline id="XMLID_517_" class="st63" points="277.8,364.6 280,360.3 280,359.4 			"/>
			<polyline id="XMLID_516_" class="st1" points="280,358.6 280,353.6 283.6,354.7 283.6,359.2 283.8,359.7 			"/>
			<polyline id="XMLID_515_" class="st62" points="285,362.2 288.9,370.5 288.8,371 			"/>
			<polyline id="XMLID_514_" class="st1" points="288.4,372.4 287.1,377.2 288.9,378.3 287.2,383 			"/>
			<line id="XMLID_513_" class="st61" x1="287" y1="383.8" x2="286" y2="386.5"/>
			<polyline id="XMLID_512_" class="st1" points="285.9,386.9 285.3,388.4 285.3,391.8 289.2,395 			"/>
			<polyline id="XMLID_496_" class="st60" points="289.5,395.3 290.7,396.3 290.9,396.3 			"/>
			<polyline id="XMLID_495_" class="st1" points="291.1,396.4 296,397.4 297.8,400.8 290.7,407.5 290.7,409.7 287.1,412 
				286.3,412.1 			"/>
			<line id="XMLID_494_" class="st59" x1="285.7" y1="412.1" x2="283.5" y2="412.4"/>
			<polyline id="XMLID_493_" class="st1" points="283.2,412.5 278.2,413.1 281.8,418.7 276.4,418.7 274.7,419.8 276.4,423.2 
				271.7,424.7 			"/>
			<line id="XMLID_492_" class="st58" x1="270.9" y1="424.9" x2="268.2" y2="425.8"/>
			<polyline id="XMLID_491_" class="st1" points="267.8,425.9 265.8,426.5 264,428.8 267.6,431 260.4,434.4 262.2,437.7 
				263.3,438.3 			"/>
			<line id="XMLID_490_" class="st57" x1="265" y1="439.2" x2="271.2" y2="442.6"/>
			<polyline id="XMLID_488_" class="st1" points="272.1,443 274.7,444.4 276.4,445.5 274.7,447.8 269.7,447.5 			"/>
			<polyline id="XMLID_487_" class="st56" points="265,447.3 251.5,446.7 248.9,448.3 			"/>
			<polyline id="XMLID_486_" class="st1" points="246.9,449.6 242.7,452.2 244.3,457 			"/>
			<line id="XMLID_485_" class="st55" x1="244.7" y1="458.2" x2="246.2" y2="462.5"/>
			<polyline id="XMLID_484_" class="st1" points="246.4,463.2 248,467.9 239.1,472.4 233.8,466.8 235.6,463.4 232,455.6 
				224.9,458.9 228.3,462.6 			"/>
			<polyline id="XMLID_483_" class="st54" points="230.2,466.9 230.2,470.1 233.8,481.3 235.8,483.5 			"/>
			<polyline id="XMLID_482_" class="st1" points="237.5,485.4 240.9,489.1 245.9,489.1 			"/>
			<polyline id="XMLID_481_" class="st53" points="249.9,494 258.7,511.3 261.7,513.9 			"/>
			<polyline id="XMLID_480_" class="st1" points="264.3,515.8 269.3,515.8 271.1,519.1 271.1,521.4 272.9,522.5 276.4,525.8 
				278.2,525.8 276.4,528 278.2,529.1 280,532.5 281.8,533.6 281.8,536.9 280,541.4 285,541.4 			"/>
			<polyline id="XMLID_479_" class="st51" points="289.1,544.1 290.7,548 290.7,550.3 296,556.9 296,559.9 			"/>
			<polyline id="XMLID_478_" class="st52" points="296,562.5 296,563.6 301.3,570.2 303.1,579.1 308.5,584.6 308.5,586.5 			"/>
			<polyline id="XMLID_477_" class="st1" points="308.5,589.1 308.5,591.3 310.2,593.5 305.7,595.5 			"/>
			<line id="XMLID_476_" class="st67" x1="304.4" y1="596.1" x2="299.8" y2="598.2"/>
			<polyline id="XMLID_475_" class="st1" points="299.1,598.4 297.8,599 294.2,599 294.2,601.2 294.2,602.4 290.7,603.5 
				288.9,607.9 287.1,607.9 285.3,611.2 289.6,613.8 			"/>
			<polyline id="XMLID_474_" class="st68" points="291.7,618.5 292.4,621.1 292.4,626.7 290.7,630 288.9,631.1 286.3,635.1 			"/>
			<polyline id="XMLID_473_" class="st1" points="285.3,637.6 285.3,638.8 287.1,642.1 285.3,645.4 281.8,644.3 280,653.2 
				283.1,657 			"/>
			<line id="XMLID_472_" class="st69" x1="283.6" y1="658.5" x2="283.6" y2="663.9"/>
			<polyline id="XMLID_471_" class="st1" points="283.6,664.7 283.6,669.7 278.9,668 			"/>
			<polyline id="XMLID_470_" class="st70" points="277.3,667.4 274.7,666.4 271.6,666.4 			"/>
			<polyline id="XMLID_469_" class="st1" points="270.8,666.4 265.8,666.4 262.2,675.2 260.4,675.2 258.7,678.5 257.7,679.3 			"/>
			<line id="XMLID_468_" class="st71" x1="257.2" y1="679.6" x2="255.7" y2="680.8"/>
			<polyline id="XMLID_467_" class="st1" points="255.5,681 251.5,684 248,680.7 242.7,681.8 245.8,677.9 			"/>
			<line id="XMLID_466_" class="st72" x1="245.9" y1="677.8" x2="246.2" y2="677.4"/>
			<polyline id="XMLID_465_" class="st1" points="246.2,677.4 248,675.2 248,673 246.2,671.9 242.7,670.8 240.9,673 237.3,671.9 
				232,677.4 230.2,677.4 227.7,675.4 			"/>
			<polyline id="XMLID_464_" class="st73" points="225.6,673.6 224.9,673 220.8,665.4 			"/>
			<polyline id="XMLID_463_" class="st1" points="220.1,664.2 219.5,663.1 216,662 211.7,664.6 			"/>
			<line id="XMLID_462_" class="st74" x1="211.1" y1="665" x2="208.7" y2="666.5"/>
			<polyline id="XMLID_461_" class="st1" points="208.3,666.7 207.1,667.5 203.5,667.5 201.8,671.9 199.6,667.4 			"/>
			<line id="XMLID_460_" class="st75" x1="199.4" y1="667" x2="198.7" y2="665.6"/>
			<polyline id="XMLID_459_" class="st1" points="198.6,665.4 196.4,660.9 198.2,658.7 196.4,655.4 200,653.2 200,649.9 
				199.1,648.4 			"/>
			<polyline id="XMLID_458_" class="st76" points="197.3,645.7 196.4,644.3 191.1,642.1 189.1,639 			"/>
			<polyline id="XMLID_457_" class="st1" points="188.2,637.7 187.5,636.6 185.7,633.3 189.3,632.2 187.5,630 187.5,627.8 			"/>
			<line id="XMLID_456_" class="st77" x1="187.5" y1="627.7" x2="187.5" y2="627.3"/>
			<polyline id="XMLID_455_" class="st1" points="187.5,627.2 187.5,622.2 184,620 182.2,621.1 181.5,616.2 			"/>
			<polyline id="XMLID_454_" class="st78" points="181.1,613.9 180.4,609 178.6,606.3 			"/>
			<polyline id="XMLID_453_" class="st1" points="177.9,605.4 175.1,601.2 171.5,603.5 166.2,603.5 162.6,599 162.6,597.9 
				166.2,595.7 166.2,592.4 164.4,587.9 160.9,586.9 159.1,582.4 159.1,582.2 			"/>
			<polyline id="XMLID_452_" class="st79" points="159.1,578.6 159.1,575.8 155.5,569.1 155.5,567.1 			"/>
			<polyline id="XMLID_451_" class="st1" points="156.4,565.6 159.1,561.3 164,560.6 			"/>
			<line id="XMLID_450_" class="st80" x1="164" y1="560.6" x2="164.1" y2="560.6"/>
			<polyline id="XMLID_449_" class="st1" points="164.1,560.6 166.2,560.2 168,558 171.5,559.1 172.8,558.7 			"/>
			<polyline id="XMLID_448_" class="st81" points="174.7,558.1 175.1,558 176.9,555.8 176.9,551.8 			"/>
			<polyline id="XMLID_447_" class="st1" points="176.9,550.8 176.9,546.9 176.9,545.8 173.3,546.9 171.5,545.8 173.3,542.5 
				169.8,539.1 168,538 168,533.6 164.4,531.4 163.6,531.4 			"/>
			<line id="XMLID_446_" class="st82" x1="162.5" y1="531.3" x2="159.3" y2="529.3"/>
			<polyline id="XMLID_445_" class="st1" points="158.8,529.1 153.8,529.1 153.2,524.2 			"/>
			<line id="XMLID_444_" class="st83" x1="152.9" y1="522.1" x2="152.1" y2="514.8"/>
			<polyline id="XMLID_443_" class="st1" points="152,513.8 152,513.6 150.2,509.1 145.3,508.1 			"/>
			<polyline id="XMLID_442_" class="st84" points="143.5,507.7 139.5,506.9 137.4,505.6 			"/>
			<polyline id="XMLID_441_" class="st1" points="136.7,505.1 132.4,502.4 128.9,505.8 127.1,502.4 126,501.8 			"/>
			<polyline id="XMLID_440_" class="st85" points="124.9,501.1 123.5,500.2 120.3,500.2 			"/>
			<polyline id="XMLID_439_" class="st1" points="119.6,500.2 114.6,500.2 114.6,499.1 114.6,495.2 			"/>
			<line id="XMLID_438_" class="st86" x1="114.6" y1="495.2" x2="114.6" y2="495.2"/>
			<polyline id="XMLID_437_" class="st1" points="114.6,495.2 114.6,490.2 109.3,488 109.3,484.6 105.7,481.3 105.7,475.7 
				101.9,472.5 			"/>
			<polyline id="XMLID_436_" class="st87" points="101.3,472 100.4,471.2 100,469.7 			"/>
			<polyline id="XMLID_435_" class="st1" points="99.9,469.4 98.6,464.5 94.1,462.4 			"/>
			<polyline id="XMLID_434_" class="st88" points="93,461.9 91.5,461.2 89.4,459.8 			"/>
			<polyline id="XMLID_433_" class="st1" points="88.9,459.5 86.2,457.8 84.4,457.8 81,461.5 			"/>
			<line id="XMLID_432_" class="st89" x1="81" y1="461.6" x2="80.7" y2="461.9"/>
			<polyline id="XMLID_431_" class="st1" points="80.6,461.9 77.3,465.6 72.3,465.6 			"/>
			<line id="XMLID_430_" class="st90" x1="72.1" y1="465.6" x2="71.4" y2="465.6"/>
			<polyline id="XMLID_429_" class="st1" points="71.3,465.6 68.4,465.6 66.6,464.5 66.6,465.6 64.8,465.6 62.1,463.9 			"/>
			<polyline id="XMLID_428_" class="st91" points="61.5,463.6 61.3,463.4 60.2,461.5 			"/>
			<polyline id="XMLID_427_" class="st1" points="60.1,461.1 57.7,456.7 59.5,451.1 61.3,451.1 61.3,446.7 66.6,447.8 69.7,443.9 
							"/>
			<line id="XMLID_426_" class="st92" x1="70.3" y1="443.2" x2="72.7" y2="441.7"/>
			<polyline id="XMLID_425_" class="st1" points="73.1,441.5 77.3,438.8 77.3,436.6 73.7,436.6 72.4,436 			"/>
			<line id="XMLID_424_" class="st93" x1="71.8" y1="435.8" x2="69.8" y2="434.9"/>
			<polyline id="XMLID_423_" class="st1" points="69.5,434.8 68.4,434.4 66.6,431 70.2,424.3 70.2,423.2 65.3,422.1 			"/>
			<polyline id="XMLID_422_" class="st94" points="62.2,422.9 61.3,423.2 51.2,421.4 			"/>
			<polyline id="XMLID_421_" class="st1" points="49.6,421.1 48.8,420.9 45.3,418.7 41.7,420.9 40.9,421.1 			"/>
			<polyline id="XMLID_420_" class="st95" points="39.3,421.3 34.6,422.1 33.6,421.4 			"/>
			<polyline id="XMLID_419_" class="st1" points="32.9,421 32.8,420.9 31,417.6 31,416.5 26.3,418.1 			"/>
			<line id="XMLID_418_" class="st96" x1="24" y1="418.9" x2="15.8" y2="421.8"/>
			<polyline id="XMLID_417_" class="st1" points="14.6,422.2 9.7,423.2 7.9,420.9 13.3,416.5 15.1,418.7 18.6,418.7 20.4,415.3 
				25.7,414.2 26.6,409.3 			"/>
			<line id="XMLID_416_" class="st97" x1="26.6" y1="409.2" x2="26.6" y2="409.1"/>
			<polyline id="XMLID_415_" class="st1" points="26.6,409.1 27.5,404.1 32.5,403.9 			"/>
			<line id="XMLID_414_" class="st98" x1="42.9" y1="403.3" x2="79.4" y2="401.2"/>
			<polyline id="XMLID_413_" class="st99" points="84.6,401 88,400.8 100.4,395.2 121.7,389.6 164.4,368.2 182.2,361.5 203.5,364.8 
				217.8,364.8 226.7,364.8 237.3,361.5 246.2,362.6 249.8,361.5 256.9,361.5 257.8,360.9 			"/>
		</g>
	</g>
	<g id="XMLID_846_">
		<g id="XMLID_815_" class="st100">
			<path id="XMLID_816_" class="st101" d="M201.8,671.9l1.8-4.4h3.6l8.9-5.5l3.6,1.1l5.3,9.9l5.3,4.4h1.8l5.3-5.5l3.6,1.1l1.8-2.2
				l3.6,1.1l1.8,1.1v2.2l-5.3,6.6l5.3-1.1l3.5,3.3l7.1-5.5l1.8-3.3h1.8l3.5-8.8h8.9l8.9,3.3v-12.1l-3.6-4.4l1.8-8.8l3.6,1.1l1.8-3.3
				l-1.8-3.3v-2.2l3.6-5.5l1.8-1.1l1.8-3.3v-5.5l-1.8-6.6l-5.3-3.3l1.8-3.3h1.8l1.8-4.4l3.6-1.1v-1.1V599h3.6l12.4-5.5l5.3-3.3
				l5.3,2.2v-4.4h3.6l3.6-3.3l3.5,4.4l3.6,1.1l10.7-3.3v-2.2h5.3l1.8-3.3l3.5,3.3v3.3l1.8,2.2l-1.8,2.2l1.8,4.4h-5.3l-3.6-3.3
				l-1.8,3.3l-3.6-3.3h-1.8l1.8,5.5l7.1,2.2v3.3h3.5l3.6,4.4h3.6v3.3l3.6-2.2l3.5,4.4v2.2l-3.5,4.4l1.8,3.3h-3.6v3.3l5.3,2.2
				l1.8,3.3l-5.3-1.1v11v1.1l1.8,3.3v3.3l-5.3-5.5l-1.8,1.1v1.1l3.6,4.4l1.8,3.3l1.8-1.1l3.5,3.3l3.6-1.1v-6.6h1.8l5.3,4.4v-4.4
				l1.8,3.3l3.6,2.2l1.8-3.3v4.4l1.8-1.1l3.5-1.1l5.3,6.6l1.8,2.2l3.6-1.1l3.5,3.3l5.3-2.2l1.8,3.3l1.8-2.2v1.1l1.8-2.2l1.8,4.4
				l1.8,1.1l3.6,4.4l3.6,1.1l1.8,3.3v3.3l1.8,2.2v1.1l1.8-3.3v4.4l3.6-1.1l-1.8,4.4l3.6,2.2l-3.6,6.6v1.1v3.3l-1.8,2.2v3.3l3.6,1.1
				l-1.8,3.3l-3.6,3.3l-1.8,11l-3.6-1.1L424,728v1.1l-1.8,1.1v2.2h5.3v2.2h-1.8v3.3l1.8-1.1l1.8,6.6l1.8-1.1l1.8,3.3l1.8,1.1
				l-5.3,1.1l3.5,3.3l-1.8,4.4l-1.8-2.2v3.3l-3.6-3.3l-1.8,7.7l-1.8-1.1l-3.5,1.1l-1.8-1.1v5.5l-1.8,1.1l-7.1-2.2v-1.1h-1.8
				l-1.8,5.5h1.8v2.2h-3.6l-7.1-4.4l-1.8-3.3v2.2l-3.5,2.2l-3.6-2.2l-1.8-5.5l-1.8,2.2l-1.8-2.2v3.3l-10.7-3.3v3.3l-1.8-2.2
				l-3.5,1.1l-1.8,2.2l-5.3,2.2l-1.8,3.3l-1.8,1.1v5.5l3.6,4.4v1.1l1.8,2.2v3.3l1.8,5.5h-3.6l-1.8,4.4l1.8,3.3l-1.8,3.3l3.6,4.4v3.3
				l3.6,1.1l-1.8,5.4l3.6,6.6l-1.8,5.4l3.6,6.6l-3.6,1.1v5.5l-3.6,3.3l-5.3,2.2l-3.5,4.4l-3.6,1.1H344l1.8,4.4l-3.6,2.2l-1.8-3.3
				h-1.8l-1.8-2.2l-1.8-4.4h-1.8l-3.6-2.2v-5.4l-3.5-2.2l-3.6-3.3l1.8-4.4l-1.8-6.5h-7.1l-1.8-3.3L312,821v3.3l-7.1,4.4v4.3
				l-3.5,2.2v-6.5l-3.6-1.1l-1.8-9.8v-6.5l3.6-2.2v-2.2h-1.8l-1.8,3.3l-1.8-2.2l-7.1,2.2l-1.8-3.3l1.8-1.1l-1.8-2.2v1.1l-1.8-2.2
				l-14.2-2.2l-1.8-1.1h-1.8l-1.8,2.2l-1.8-1.1v5.5l-3.6,4.4l-1.8-1.1v-8.8l-1.8,1.1V797v-3.3l-3.6,1.1l-3.5-3.3l1.8-2.2l-5.3-3.3
				l1.8-3.3l-1.8-1.1v2.2l-1.8-1.1v-2.2h-3.6v-1.1V774l-5.3-3.3l1.8-2.2l1.8-1.1l1.8-4.4l1.8,5.5h1.8l1.8-3.3V762l-3.6,2.2l-3.6-3.3
				h-3.5v-1.1l-1.8,1.1l-1.8-2.2l-10.7,5.5v1.1H216l-1.8,4.4l-1.8,1.1l1.8-5.5l-1.8-1.1h-10.7L200,762l-1.8-4.4l-1.8,1.1v-5.5
				l-3.6-2.2l-1.8-6.6v1.1l-1.8-1.1l-5.3,5.5l-1.8-2.2l1.8-2.2l-1.8-5.5l1.8-2.2l1.8,1.1l1.8-2.2l-3.5-2.2l-7.1-2.2v-2.2l-1.8-3.3
				h1.8l-1.8-6.6l1.8-2.2v-8.8v-1.1l1.8-5.5l1.8-1.1v-2.2l5.3-3.3l5.3-7.7l5.3-1.1l3.5,1.1l1.8-1.1l1.8-5.5l1.8-2.2l-3.6-3.3V671.9z
				"/>
		</g>
		<g id="XMLID_746_">
			<g id="XMLID_747_">
				<polyline id="XMLID_814_" class="st1" points="202.9,683.9 203.5,681.8 205.3,679.6 201.8,676.3 201.8,671.9 203.5,667.5 
					207.1,667.5 208.3,666.7 				"/>
				<line id="XMLID_813_" class="st74" x1="209" y1="666.3" x2="211.4" y2="664.8"/>
				<polyline id="XMLID_812_" class="st1" points="211.7,664.6 216,662 219.5,663.1 220.1,664.2 				"/>
				<polyline id="XMLID_811_" class="st73" points="221.4,666.6 224.9,673 226.7,674.5 				"/>
				<polyline id="XMLID_810_" class="st1" points="227.7,675.4 230.2,677.4 232,677.4 237.3,671.9 240.9,673 242.7,670.8 
					246.2,671.9 248,673 248,675.2 246.2,677.4 				"/>
				<line id="XMLID_809_" class="st72" x1="246.2" y1="677.5" x2="245.8" y2="677.9"/>
				<polyline id="XMLID_808_" class="st1" points="245.8,677.9 242.7,681.8 248,680.7 251.5,684 255.5,681 				"/>
				<line id="XMLID_807_" class="st71" x1="255.9" y1="680.6" x2="257.5" y2="679.4"/>
				<polyline id="XMLID_806_" class="st1" points="257.7,679.3 258.7,678.5 260.4,675.2 262.2,675.2 265.8,666.4 270.8,666.4 				
					"/>
				<polyline id="XMLID_805_" class="st70" points="272.4,666.4 274.7,666.4 278.1,667.7 				"/>
				<polyline id="XMLID_804_" class="st1" points="278.9,668 283.6,669.7 283.6,664.7 				"/>
				<line id="XMLID_803_" class="st69" x1="283.6" y1="663.1" x2="283.6" y2="657.7"/>
				<polyline id="XMLID_802_" class="st1" points="283.1,657 280,653.2 281.8,644.3 285.3,645.4 287.1,642.1 285.3,638.8 
					285.3,637.6 				"/>
				<polyline id="XMLID_801_" class="st68" points="287.7,632.9 288.9,631.1 290.7,630 292.4,626.7 292.4,621.1 291,615.9 				"/>
				<polyline id="XMLID_800_" class="st1" points="289.6,613.8 285.3,611.2 287.1,607.9 288.9,607.9 290.7,603.5 294.2,602.4 
					294.2,601.2 294.2,599 297.8,599 299.1,598.4 				"/>
				<line id="XMLID_799_" class="st102" x1="301.6" y1="597.3" x2="310.2" y2="593.5"/>
				<polyline id="XMLID_798_" class="st1" points="311.3,592.8 315.6,590.2 320.9,592.4 320.9,587.9 324.5,587.9 328,584.6 
					331.2,588.5 				"/>
				<polyline id="XMLID_797_" class="st50" points="333,589.5 335.1,590.2 340,588.6 				"/>
				<polyline id="XMLID_796_" class="st1" points="341,588.3 345.8,586.9 345.8,584.6 351.1,584.6 352.9,581.3 356.5,584.6 
					356.5,587.9 358.2,590.2 356.5,592.4 358.2,596.8 353.2,596.8 				"/>
				<line id="XMLID_795_" class="st103" x1="353.2" y1="596.8" x2="353.1" y2="596.8"/>
				<polyline id="XMLID_794_" class="st1" points="353,596.8 352.9,596.8 349.4,593.5 347.6,596.8 344,593.5 342.2,593.5 344,599 
					351.1,601.2 351.1,604.5 354.7,604.5 358.2,609 361.8,609 361.8,612.3 365.4,610.1 368.5,614 				"/>
				<polyline id="XMLID_793_" class="st104" points="368.9,614.6 368.9,616.7 368.7,617 				"/>
				<polyline id="XMLID_792_" class="st1" points="368.5,617.2 365.4,621.1 367.1,624.5 363.6,624.5 363.6,627.8 368.9,630 
					370.7,633.3 365.4,632.2 365.4,637.2 				"/>
				<polyline id="XMLID_791_" class="st105" points="365.4,639 365.4,643.2 365.4,644.3 365.9,645.4 				"/>
				<polyline id="XMLID_790_" class="st1" points="366.3,646.2 367.1,647.7 367.1,651 361.8,645.4 360,646.5 360,647.7 362.5,650.7 
									"/>
				<line id="XMLID_789_" class="st106" x1="362.5" y1="650.8" x2="362.8" y2="651"/>
				<polyline id="XMLID_788_" class="st1" points="362.8,651.1 363.6,652.1 365.4,655.4 367.1,654.3 370.7,657.6 374.3,656.5 
					374.3,649.9 376,649.9 381.4,654.3 381.4,649.9 383.1,653.2 386.7,655.4 388.5,652.1 388.5,656.5 390.3,655.4 393.8,654.3 
					396.9,658.1 				"/>
				<line id="XMLID_787_" class="st107" x1="397.1" y1="658.4" x2="397.7" y2="659.1"/>
				<polyline id="XMLID_786_" class="st1" points="397.8,659.2 399.1,660.9 400.9,663.1 404.5,662 408,665.3 413.4,663.1 
					415.2,666.4 416.9,664.2 416.9,665.3 418.7,663.1 420.5,667.5 420.7,667.6 				"/>
				<polyline id="XMLID_785_" class="st108" points="423.3,669.8 425.8,673 429.4,674.1 431.2,677.4 431.2,677.9 				"/>
				<polyline id="XMLID_784_" class="st1" points="431.2,679.6 431.2,680.7 432.9,682.9 432.9,684 434.7,680.7 434.7,685.1 
					438.3,684 436.5,688.4 440,690.6 437.7,695 				"/>
				<polyline id="XMLID_783_" class="st109" points="436.9,696.4 436.5,697.2 436.5,698.3 436.5,701.6 436.3,701.9 				"/>
				<polyline id="XMLID_782_" class="st1" points="435.8,702.5 434.7,703.8 434.7,707.1 438.3,708.2 436.5,711.5 435.6,712.4 				
					"/>
				<polyline id="XMLID_781_" class="st110" points="434.1,713.7 432.9,714.8 432.1,719.9 				"/>
				<polyline id="XMLID_780_" class="st1" points="432,720.8 431.2,725.8 427.6,724.7 424,728 424,729.1 422.3,730.2 422.3,732.4 
					427.6,732.4 427.6,734.6 425.8,734.6 425.8,737.9 427.6,736.8 429.4,743.3 431.2,742.2 432.9,745.5 434.7,746.6 429.4,747.7 
					432.9,751 431.2,755.4 429.4,753.2 429.4,756.5 425.8,753.2 424,760.9 422.3,759.8 418.7,760.9 416.9,759.8 416.9,765.2 
					415.2,766.3 408,764.2 408,763.1 406.3,763.1 404.5,768.5 406.3,768.5 406.3,770.7 402.7,770.7 401.5,770 				"/>
				<line id="XMLID_779_" class="st111" x1="400.5" y1="769.4" x2="397.2" y2="767.3"/>
				<polyline id="XMLID_778_" class="st1" points="396.7,767 395.6,766.3 393.8,763.1 393.8,765.2 390.3,767.4 386.7,765.2 
					384.9,759.8 383.1,762 381.4,759.8 381.4,763.1 376.6,761.6 				"/>
				<line id="XMLID_777_" class="st112" x1="376.4" y1="761.5" x2="375.6" y2="761.3"/>
				<polyline id="XMLID_776_" class="st1" points="375.5,761.3 370.7,759.8 370.7,763.1 368.9,760.9 365.4,762 364.6,763 				"/>
				<polyline id="XMLID_775_" class="st113" points="363.5,764.2 358.2,766.3 358.2,766.4 				"/>
				<polyline id="XMLID_773_" class="st1" points="357.8,767.1 356.5,769.6 354.7,770.7 354.7,775.7 				"/>
				<polyline id="XMLID_772_" class="st114" points="356.2,778 358.2,780.6 358.2,781.7 360,783.9 360,786.5 				"/>
				<polyline id="XMLID_771_" class="st1" points="360.3,787.9 361.8,792.6 358.2,792.6 356.5,797 358.2,800.3 356.5,803.5 
					360,807.9 360,811.2 363.6,812.3 361.8,817.7 365.4,824.3 363.6,829.7 367.1,836.3 363.6,837.4 363.6,842.8 360,846.1 
					359.9,846.1 				"/>
				<polyline id="XMLID_770_" class="st115" points="357.4,847.2 354.7,848.3 351.1,852.6 350.2,852.9 				"/>
				<polyline id="XMLID_769_" class="st1" points="349,853.3 347.6,853.7 344,853.7 345.8,858.1 342.2,860.3 340.5,857 338.7,857 
					336.9,854.8 335.1,850.4 333.3,850.4 329.8,848.3 329.8,842.8 326.2,840.6 322.7,837.4 324.5,833 324.4,832.7 				"/>
				<line id="XMLID_768_" class="st116" x1="324.3" y1="832.4" x2="324" y2="831.4"/>
				<polyline id="XMLID_767_" class="st1" points="324,831.3 322.7,826.5 315.6,826.5 313.8,823.2 312,821 312,824.3 304.9,828.7 
					304.9,833 301.3,835.2 301.3,828.7 297.8,827.6 296.9,822.6 				"/>
				<polyline id="XMLID_766_" class="st117" points="296.7,821.4 296,817.7 296,816.8 				"/>
				<polyline id="XMLID_765_" class="st1" points="296,816.2 296,811.2 299.6,809 299.6,806.8 297.8,806.8 296,810.1 294.2,807.9 
					287.1,810.1 285.3,806.8 287.1,805.7 285.3,803.5 285.3,804.6 283.6,802.4 281.4,802.1 				"/>
				<line id="XMLID_764_" class="st118" x1="279.2" y1="801.8" x2="271.5" y2="800.6"/>
				<polyline id="XMLID_763_" class="st1" points="270.5,800.4 269.3,800.3 267.6,799.2 265.8,799.2 264,801.3 262.2,800.3 
					262.2,805.3 				"/>
				<polyline id="XMLID_762_" class="st119" points="262.2,805.5 262.2,805.7 261.9,806.1 				"/>
				<polyline id="XMLID_761_" class="st1" points="261.8,806.2 258.7,810.1 256.9,809 256.9,800.3 255.1,801.3 255.1,797 
					255.1,793.7 251.5,794.8 248,791.5 249.8,789.3 244.4,786 246.2,782.8 244.4,781.7 244.4,783.9 242.7,782.8 242.7,780.6 
					239.1,780.6 239.1,779.5 239.1,774 233.8,770.7 235.6,768.5 237.3,767.4 239.1,763.1 240.9,768.5 242.7,768.5 244.4,765.2 
					244.4,762 240.9,764.2 237.3,760.9 233.8,760.9 233.8,759.8 232,760.9 230.2,758.7 225.8,761 				"/>
				<line id="XMLID_760_" class="st120" x1="225.4" y1="761.2" x2="224.2" y2="761.8"/>
				<polyline id="XMLID_759_" class="st1" points="224,761.9 219.5,764.2 219.5,765.2 216,765.2 214.2,769.6 212.4,770.7 
					214.2,765.2 212.4,764.2 209.5,764.2 				"/>
				<line id="XMLID_758_" class="st121" x1="209" y1="764.2" x2="207" y2="764.2"/>
				<polyline id="XMLID_757_" class="st1" points="206.8,764.2 201.8,764.2 200,762 198.2,757.6 196.4,758.7 196.4,753.2 192.9,751 
					192.7,750.2 				"/>
				<line id="XMLID_756_" class="st122" x1="192.6" y1="750" x2="192.4" y2="749.4"/>
				<polyline id="XMLID_755_" class="st1" points="192.4,749.3 191.1,744.4 191.1,745.5 189.3,744.4 184,749.9 182.2,747.7 
					184,745.5 182.2,740 184,737.9 185.7,739 187.5,736.8 184,734.6 183.2,734.3 				"/>
				<line id="XMLID_754_" class="st123" x1="182.9" y1="734.2" x2="181.8" y2="733.9"/>
				<polyline id="XMLID_753_" class="st1" points="181.6,733.8 176.9,732.4 176.9,730.2 175.1,726.9 176.9,726.9 175.1,720.3 
					176.9,718.1 176.9,715.9 				"/>
				<polyline id="XMLID_752_" class="st124" points="176.9,713.8 176.9,709.3 176.9,708.2 177.4,706.5 				"/>
				<polyline id="XMLID_751_" class="st1" points="177.7,705.5 178.6,702.7 180.4,701.6 180.4,699.4 184.7,696.8 				"/>
				<polyline id="XMLID_750_" class="st125" points="186.7,694.7 191.1,688.4 193.7,687.9 				"/>
				<polyline id="XMLID_749_" class="st1" points="195.2,687.6 196.4,687.3 200,688.4 201.8,687.3 202.7,684.5 				"/>
				<line id="XMLID_748_" class="st126" x1="202.7" y1="684.4" x2="202.8" y2="683.9"/>
			</g>
		</g>
	</g>
	<g id="XMLID_774_">
		<polygon id="XMLID_344_" class="st66" points="287.1,123.6 294.2,125.9 301.3,131.6 303.1,132.7 303.1,135 304.9,137.3 
			317.3,139.6 324.5,136.1 331.6,141.8 336.9,139.6 336.9,144.1 340.5,141.8 347.6,141.8 347.6,143 345.8,146.4 347.6,147.5 
			347.6,148.7 352.9,155.5 356.5,155.5 354.7,158.9 356.5,161.2 360,160.1 360,157.8 363.6,157.8 379.6,163.5 379.6,165.8 
			383.1,169.2 390.3,169.2 388.5,172.6 392,176 388.5,199.9 388.5,203.3 383.1,215.8 361.8,233.9 361.8,237.3 372.5,250.9 
			416.9,270.2 415.2,273.6 416.9,276.9 425.8,292.8 420.5,296.1 415.2,295 409.8,298.4 408,302.9 409.8,308.6 411.6,314.2 
			413.4,314.2 415.2,316.4 416.9,332.2 424,332.2 424,342.4 418.7,349.1 406.3,361.5 406.3,366 408,379.4 397.4,378.3 388.5,376.1 
			376,387.3 377.8,394 376,398.5 370.7,400.8 367.1,403 367.1,404.1 365.4,406.4 361.8,407.5 356.5,406.4 345.8,400.8 344,392.9 
			344,389.6 338.7,388.4 336.9,387.3 336.9,383.9 331.6,378.3 331.6,372.7 329.8,369.3 331.6,363.7 329.8,358.1 326.2,353.6 
			324.5,349.1 326.2,346.9 331.6,348 335.1,345.7 333.3,341.2 331.6,340.1 331.6,337.9 331.6,330 333.3,328.8 340.5,328.8 
			342.2,327.7 342.2,319.8 338.7,318.7 336.9,316.4 333.3,315.3 331.6,314.2 335.1,309.7 335.1,307.4 331.6,305.2 328,306.3 
			322.7,295 319.1,290.5 320.9,282.6 319.1,278.1 313.8,272.4 304.9,272.4 304.9,270.2 303.1,266.8 303.1,265.6 297.8,265.6 
			297.8,263.4 299.6,263.4 301.3,261.1 299.6,260 292.4,267.9 287.1,265.6 285.3,262.2 283.6,262.2 281.8,266.8 280,274.7 
			274.7,274.7 280,260 280,257.7 271.1,254.3 267.6,249.8 262.2,249.8 264,241.9 258.7,235.1 258.7,230.5 260.4,226 258.7,216.9 
			262.2,214.6 260.4,206.7 262.2,198.7 264,194.2 264,184 265.8,181.7 264,177.1 264,171.5 269.3,162.3 269.3,155.5 271.1,154.4 
			271.1,144.1 276.4,139.6 278.2,133.8 285.3,127 		"/>
		<g id="XMLID_275_">
			<polyline id="XMLID_343_" class="st1" points="284.5,127.8 285.3,127 287.1,123.6 291.9,125.1 			"/>
			<polyline id="XMLID_342_" class="st127" points="293.5,125.6 294.2,125.9 298.4,129.2 			"/>
			<polyline id="XMLID_341_" class="st1" points="299.1,129.7 301.3,131.6 303.1,132.7 303.1,135 304.8,137.1 			"/>
			<polyline id="XMLID_340_" class="st128" points="307.8,137.8 317.3,139.6 318.5,139 			"/>
			<polyline id="XMLID_339_" class="st1" points="320,138.3 324.5,136.1 331.6,141.8 336.9,139.6 336.9,144.1 340.5,141.8 
				341.3,141.8 			"/>
			<line id="XMLID_338_" class="st129" x1="341.5" y1="141.8" x2="342.4" y2="141.8"/>
			<polyline id="XMLID_337_" class="st1" points="342.6,141.8 347.6,141.8 347.6,143 345.8,146.4 347.6,147.5 347.6,148.7 
				352.9,155.5 356.5,155.5 354.7,158.9 356.5,161.2 360,160.1 360,157.8 363.6,157.8 364.9,158.3 			"/>
			<line id="XMLID_336_" class="st130" x1="366.9" y1="159" x2="373.9" y2="161.5"/>
			<polyline id="XMLID_335_" class="st1" points="374.9,161.8 379.6,163.5 379.6,165.8 383.1,169.2 383.2,169.2 			"/>
			<line id="XMLID_334_" class="st131" x1="383.6" y1="169.2" x2="385.1" y2="169.2"/>
			<polyline id="XMLID_333_" class="st1" points="385.3,169.2 390.3,169.2 388.5,172.6 392,176 391.3,181 			"/>
			<polyline id="XMLID_332_" class="st132" points="390.5,186.3 388.5,199.9 388.5,203.3 387.8,204.8 			"/>
			<polyline id="XMLID_331_" class="st133" points="386.8,207.3 383.1,215.8 367.7,228.9 			"/>
			<polyline id="XMLID_330_" class="st1" points="365.6,230.7 361.8,233.9 361.8,237.3 362.8,238.6 			"/>
			<polyline id="XMLID_329_" class="st134" points="366.1,242.8 372.5,250.9 380.3,254.3 			"/>
			<line id="XMLID_328_" class="st135" x1="382.7" y1="255.4" x2="409.9" y2="267.1"/>
			<polyline id="XMLID_327_" class="st1" points="412.3,268.2 416.9,270.2 415.2,273.6 416.9,276.9 417.5,278 			"/>
			<line id="XMLID_326_" class="st27" x1="418.7" y1="280.1" x2="422.8" y2="287.4"/>
			<polyline id="XMLID_325_" class="st1" points="423.4,288.4 425.8,292.8 421.6,295.4 			"/>
			<polyline id="XMLID_324_" class="st26" points="416.9,295.4 415.2,295 409.8,298.4 408,302.9 409.3,307.1 			"/>
			<polyline id="XMLID_323_" class="st1" points="410.1,309.4 411.6,314.2 413.4,314.2 415.2,316.4 415.4,318.6 			"/>
			<line id="XMLID_322_" class="st25" x1="415.6" y1="320.3" x2="416.3" y2="326.4"/>
			<polyline id="XMLID_321_" class="st1" points="416.4,327.3 416.9,332.2 424,332.2 424,337.2 			"/>
			<polyline id="XMLID_320_" class="st24" points="424,342.5 418.7,349.1 411.7,356.1 			"/>
			<polyline id="XMLID_319_" class="st1" points="409.8,357.9 406.3,361.5 406.3,366 406.3,366.5 			"/>
			<line id="XMLID_318_" class="st23" x1="406.5" y1="368.1" x2="407.3" y2="373.7"/>
			<polyline id="XMLID_317_" class="st1" points="407.4,374.5 408,379.4 403.1,378.9 			"/>
			<polyline id="XMLID_316_" class="st22" points="401.1,378.7 397.4,378.3 394.3,377.5 			"/>
			<polyline id="XMLID_315_" class="st1" points="393.3,377.3 388.5,376.1 384.8,379.4 			"/>
			<line id="XMLID_314_" class="st21" x1="383.8" y1="380.3" x2="380.2" y2="383.5"/>
			<polyline id="XMLID_313_" class="st1" points="379.7,384 376,387.3 377.3,392.1 			"/>
			<line id="XMLID_312_" class="st20" x1="377.4" y1="392.5" x2="377.7" y2="393.7"/>
			<polyline id="XMLID_311_" class="st1" points="377.8,393.9 377.8,394 376,398.5 370.7,400.8 367.1,403 367.1,404.1 365.4,406.4 
				364.4,406.7 			"/>
			<polyline id="XMLID_310_" class="st19" points="361.5,407.4 356.5,406.4 351.6,403.8 			"/>
			<polyline id="XMLID_309_" class="st1" points="350.2,403.1 345.8,400.8 344.7,395.9 			"/>
			<line id="XMLID_308_" class="st18" x1="344.6" y1="395.6" x2="344.4" y2="394.7"/>
			<polyline id="XMLID_307_" class="st1" points="344.4,394.5 344,392.9 344,389.6 338.7,388.4 336.9,387.3 336.9,383.9 
				335.8,382.8 			"/>
			<polyline id="XMLID_306_" class="st17" points="334.3,381.2 331.6,378.3 331.6,375 			"/>
			<polyline id="XMLID_305_" class="st1" points="331.6,373.9 331.6,372.7 329.8,369.3 331.3,364.6 			"/>
			<polyline id="XMLID_304_" class="st16" points="331.1,362.2 329.8,358.1 327.1,354.7 			"/>
			<polyline id="XMLID_303_" class="st1" points="326.3,353.7 326.2,353.6 324.5,349.1 326.2,346.9 331.6,348 335.1,345.7 
				333.3,341.2 331.6,340.1 331.6,337.9 331.6,335.1 			"/>
			<line id="XMLID_302_" class="st15" x1="331.6" y1="335.1" x2="331.6" y2="335"/>
			<polyline id="XMLID_301_" class="st1" points="331.6,335 331.6,330 333.3,328.8 336.2,328.8 			"/>
			<line id="XMLID_300_" class="st14" x1="336.5" y1="328.8" x2="337.4" y2="328.8"/>
			<polyline id="XMLID_299_" class="st1" points="337.6,328.8 340.5,328.8 342.2,327.7 342.2,319.8 338.7,318.7 337.9,317.7 			"/>
			<polyline id="XMLID_298_" class="st13" points="337.6,317.3 336.9,316.4 336.3,316.3 			"/>
			<polyline id="XMLID_297_" class="st1" points="336.1,316.2 333.3,315.3 331.6,314.2 335.1,309.7 335.1,307.4 331.6,305.2 
				328,306.3 325.9,301.8 			"/>
			<line id="XMLID_296_" class="st12" x1="325.2" y1="300.3" x2="322.7" y2="295.1"/>
			<polyline id="XMLID_295_" class="st1" points="322.2,294.4 319.1,290.5 320.2,285.6 			"/>
			<polyline id="XMLID_294_" class="st11" points="320.7,283.5 320.9,282.6 319.1,278.1 318,276.8 			"/>
			<polyline id="XMLID_293_" class="st1" points="317.2,276.1 313.8,272.4 304.9,272.4 304.9,270.2 303.1,266.8 303.1,265.6 
				297.8,265.6 297.8,263.4 299.6,263.4 301.3,261.1 299.6,260 296.2,263.7 			"/>
			<line id="XMLID_292_" class="st10" x1="296.1" y1="263.8" x2="295.8" y2="264.1"/>
			<polyline id="XMLID_291_" class="st1" points="295.8,264.2 292.4,267.9 287.1,265.6 285.3,262.2 283.6,262.2 281.8,266.8 
				281.8,266.9 			"/>
			<line id="XMLID_290_" class="st9" x1="281.6" y1="267.5" x2="281.2" y2="269.5"/>
			<polyline id="XMLID_289_" class="st1" points="281.1,269.8 280,274.7 274.7,274.7 276.4,270 			"/>
			<line id="XMLID_288_" class="st8" x1="276.9" y1="268.5" x2="278.8" y2="263.3"/>
			<polyline id="XMLID_287_" class="st1" points="279.1,262.6 280,260 280,257.7 275.3,255.9 			"/>
			<polyline id="XMLID_286_" class="st7" points="274.3,255.6 271.1,254.3 271,254.1 			"/>
			<polyline id="XMLID_285_" class="st1" points="270.6,253.7 267.6,249.8 262.2,249.8 264,241.9 260.9,237.9 			"/>
			<polyline id="XMLID_284_" class="st136" points="258.8,235.2 258.7,235.1 258.7,230.5 260.4,226 260,223.5 			"/>
			<polyline id="XMLID_283_" class="st1" points="259.6,221.8 258.7,216.9 262.2,214.6 261.1,209.8 			"/>
			<polyline id="XMLID_282_" class="st137" points="260.8,205 262.2,198.7 264,194.2 264,188.5 			"/>
			<polyline id="XMLID_281_" class="st1" points="264,186.1 264,184 265.8,181.7 264,177.1 264,177 			"/>
			<polyline id="XMLID_280_" class="st138" points="264,173.4 264,171.5 269.3,162.3 269.3,162.3 			"/>
			<polyline id="XMLID_279_" class="st1" points="269.3,160.5 269.3,155.5 271.1,154.4 271.1,149.4 			"/>
			<line id="XMLID_278_" class="st139" x1="271.1" y1="149.3" x2="271.1" y2="149.1"/>
			<polyline id="XMLID_277_" class="st1" points="271.1,149.1 271.1,144.1 274.9,140.9 			"/>
			<polyline id="XMLID_276_" class="st140" points="276.8,138.3 278.2,133.8 283.3,129 			"/>
		</g>
	</g>
	<g id="XMLID_733_">
		<polygon id="XMLID_511_" class="st0" points="441.8,96.1 440,107.6 420.5,125.9 411.6,139.6 399.1,151 392,176 388.5,172.6 
			390.3,169.2 383.1,169.2 379.6,165.8 379.6,163.5 363.6,157.8 360,157.8 360,160.1 356.5,161.2 354.7,158.9 356.5,155.5 
			352.9,155.5 347.6,148.7 347.6,147.5 345.8,146.4 347.6,143 347.6,141.8 340.5,141.8 336.9,144.1 336.9,139.6 331.6,141.8 
			324.5,136.1 317.3,139.6 304.9,137.3 303.1,135 303.1,132.7 301.3,131.6 294.2,125.9 287.1,123.6 283.6,122.4 281.8,120.1 
			288.9,111 288.9,109.9 294.2,105.3 296,104.1 297.8,101.9 301.3,93.8 299.6,91.6 299.6,85.8 303.1,79 304.9,77.8 304.9,75.5 
			304.9,72.1 310.2,65.2 313.8,65.2 317.3,67.5 326.2,69.8 328,68.7 331.6,67.5 333.3,64.1 331.6,56 333.3,50.3 331.6,44.6 
			331.6,38.8 361.8,37.7 368.9,31.9 383.1,17 390.3,21.6 395.6,22.7 404.5,14.7 406.3,18.1 411.6,20.4 411.6,26.2 413.4,29.6 
			413.4,37.7 411.6,46.9 422.3,67.5 420.5,70.9 420.5,79 425.8,75.5 436.5,80.1 441.8,84.7 		"/>
		<g id="XMLID_357_">
			<polyline id="XMLID_510_" class="st1" points="393.4,171.2 392,176 388.5,172.6 390.3,169.2 385.3,169.2 			"/>
			<line id="XMLID_509_" class="st131" x1="384.8" y1="169.2" x2="383.4" y2="169.2"/>
			<polyline id="XMLID_508_" class="st1" points="383.2,169.2 383.1,169.2 379.6,165.8 379.6,163.5 374.9,161.8 			"/>
			<line id="XMLID_507_" class="st130" x1="372.9" y1="161.1" x2="365.9" y2="158.6"/>
			<polyline id="XMLID_506_" class="st1" points="364.9,158.3 363.6,157.8 360,157.8 360,160.1 356.5,161.2 354.7,158.9 
				356.5,155.5 352.9,155.5 347.6,148.7 347.6,147.5 345.8,146.4 347.6,143 347.6,141.8 342.6,141.8 			"/>
			<line id="XMLID_505_" class="st129" x1="342.3" y1="141.8" x2="341.4" y2="141.8"/>
			<polyline id="XMLID_504_" class="st1" points="341.3,141.8 340.5,141.8 336.9,144.1 336.9,139.6 331.6,141.8 324.5,136.1 
				320,138.3 			"/>
			<line id="XMLID_503_" class="st128" x1="317.1" y1="139.5" x2="306.3" y2="137.5"/>
			<polyline id="XMLID_502_" class="st1" points="304.8,137.1 303.1,135 303.1,132.7 301.3,131.6 299.1,129.7 			"/>
			<polyline id="XMLID_501_" class="st141" points="296.7,127.8 294.2,125.9 287.1,123.6 287,123.5 			"/>
			<polyline id="XMLID_500_" class="st1" points="285.6,123.1 283.6,122.4 281.8,120.1 284.9,116.2 			"/>
			<line id="XMLID_499_" class="st142" x1="285.2" y1="115.8" x2="286.4" y2="114.3"/>
			<polyline id="XMLID_498_" class="st1" points="286.5,114.1 288.9,111 288.9,109.9 292.7,106.6 			"/>
			<polyline id="XMLID_497_" class="st143" points="294.3,105.2 296,104.1 297.8,101.9 298.9,99.4 			"/>
			<polyline id="XMLID_489_" class="st1" points="299.3,98.4 301.3,93.8 299.6,91.6 299.6,89.5 			"/>
			<polyline id="XMLID_393_" class="st144" points="299.6,87.8 299.6,85.8 301.4,82.3 			"/>
			<polyline id="XMLID_392_" class="st1" points="301.8,81.5 303.1,79 304.9,77.8 304.9,75.5 304.9,72.8 			"/>
			<line id="XMLID_391_" class="st145" x1="305" y1="72" x2="306.9" y2="69.5"/>
			<polyline id="XMLID_390_" class="st1" points="307.2,69.2 310.2,65.2 313.8,65.2 315,66 			"/>
			<polyline id="XMLID_389_" class="st146" points="316.2,66.8 317.3,67.5 320.7,68.4 			"/>
			<polyline id="XMLID_388_" class="st1" points="321.4,68.6 326.2,69.8 328,68.7 330.8,67.8 			"/>
			<polyline id="XMLID_387_" class="st147" points="333.3,63.7 331.6,56 333.3,50.3 332.1,46.3 			"/>
			<polyline id="XMLID_386_" class="st1" points="331.6,43.8 331.6,38.8 336.6,38.6 			"/>
			<polyline id="XMLID_385_" class="st148" points="346.6,38.3 361.8,37.7 368.9,31.9 376.2,24.2 			"/>
			<polyline id="XMLID_384_" class="st1" points="379.7,20.6 383.1,17 387.3,19.7 			"/>
			<polyline id="XMLID_383_" class="st149" points="388,20.1 390.3,21.6 390.3,21.6 			"/>
			<polyline id="XMLID_382_" class="st1" points="390.7,21.7 395.6,22.7 399.3,19.4 			"/>
			<line id="XMLID_381_" class="st150" x1="399.6" y1="19.1" x2="400.6" y2="18.2"/>
			<polyline id="XMLID_380_" class="st1" points="400.8,18 404.5,14.7 406.3,18.1 411.6,20.4 411.6,25.4 			"/>
			<polyline id="XMLID_379_" class="st151" points="413.4,33.1 413.4,37.7 411.6,46.9 418.1,59.5 			"/>
			<polyline id="XMLID_378_" class="st1" points="420,63.1 422.3,67.5 420.5,70.9 420.5,72.1 			"/>
			<line id="XMLID_377_" class="st152" x1="420.5" y1="72.4" x2="420.5" y2="73.8"/>
			<polyline id="XMLID_364_" class="st1" points="420.5,74 420.5,79 425.8,75.5 430.4,77.5 			"/>
			<polyline id="XMLID_363_" class="st153" points="432,78.2 436.5,80.1 437.4,80.9 			"/>
			<polyline id="XMLID_361_" class="st1" points="438,81.4 441.8,84.7 441.8,89.7 			"/>
			<polyline id="XMLID_360_" class="st154" points="441.4,98.7 440,107.6 423.6,122.9 			"/>
			<polyline id="XMLID_358_" class="st155" points="420.4,126 411.6,139.6 399.1,151 394.6,166.9 			"/>
		</g>
	</g>
	<g id="XMLID_729_">
		<text id="XMLID_732_" transform="matrix(1 0 0 1 269.0119 422.4945)" class="st156 st157 st158">红</text>
		<text id="XMLID_731_" transform="matrix(1 0 0 1 277.0887 430.1177)" class="st156 st157 st158">柳</text>
		<text id="XMLID_730_" transform="matrix(1 0 0 1 286.9843 436.5078)" class="st156 st157 st158">沟</text>
	</g>
	<g id="XMLID_725_">
		<text id="XMLID_728_" transform="matrix(1 0 0 1 270.5397 492.0997)" class="st156 st157 st159">清</text>
		<text id="XMLID_727_" transform="matrix(1 0 0 1 296.6956 538.4943)" class="st156 st157 st159">水</text>
		<text id="XMLID_726_" transform="matrix(1 0 0 1 314.013 579.4432)" class="st156 st157 st159">河</text>
	</g>
	<g id="XMLID_721_">
		<text id="XMLID_724_" transform="matrix(1 0 0 1 250.3119 743.5537)" class="st156 st157 st158">葫</text>
		<text id="XMLID_723_" transform="matrix(1 0 0 1 245.5824 768.5804)" class="st156 st157 st158">芦</text>
		<text id="XMLID_722_" transform="matrix(1 0 0 1 241.6529 797.6226)" class="st156 st157 st158">河</text>
	</g>
	<g id="XMLID_718_">
		<text id="XMLID_720_" transform="matrix(1 0 0 1 374.8144 788.4789)" class="st156 st157 st158">泾</text>
		<text id="XMLID_719_" transform="matrix(1 0 0 1 390.4529 801.5952)" class="st156 st157 st158">河</text>
	</g>
	<g id="XMLID_715_">
		<text id="XMLID_717_" transform="matrix(1 0 0 1 352.3271 691.7869)" class="st156 st157 st158">小</text>
		<text id="XMLID_716_" transform="matrix(1 0 0 1 352.3266 710.3739)" class="st156 st157 st158">河</text>
	</g>
	<g id="XMLID_712_">
		<text id="XMLID_714_" transform="matrix(1 0 0 1 421.1017 751.1775)" class="st156 st157 st158">河</text>
		<text id="XMLID_713_" transform="matrix(1 0 0 1 401.0032 744.6338)" class="st156 st157 st158">茹</text>
	</g>
	<g id="XMLID_578_">
		<text id="XMLID_711_" transform="matrix(1 0 0 1 325.4759 412.8382)" class="st156 st157 st158">河</text>
		<text id="XMLID_710_" transform="matrix(1 0 0 1 320.2365 370.7086)" class="st156 st157 st158">苦</text>
		<text id="XMLID_709_" transform="matrix(1 0 0 1 322.711 391.7821)" class="st156 st157 st158">水</text>
	</g>
	<g id="XMLID_574_">
		<text id="XMLID_577_" transform="matrix(1 0 0 1 314.4154 564.8735)" class="st156 st157 st158">折</text>
		<text id="XMLID_576_" transform="matrix(1 0 0 1 335.9539 554.127)" class="st156 st157 st158">死</text>
		<text id="XMLID_575_" transform="matrix(1 0 0 1 359.0926 534.3063)" class="st156 st157 st158">沟</text>
	</g>
	<g id="XMLID_569_">
		<text id="XMLID_573_" transform="matrix(1 0 0 1 364.6952 284.5109)" class="st156 st157 st158">河</text>
		<text id="XMLID_572_" transform="matrix(1 0 0 1 354.6748 287.3035)" class="st156 st157 st158">大</text>
		<text id="XMLID_571_" transform="matrix(1 0 0 1 396.0559 290.1359)" class="st156 st157 st158">沟</text>
		<text id="XMLID_570_" transform="matrix(1 0 0 1 379.7571 292.6042)" class="st156 st157 st158">子</text>
	</g>
	<g id="XMLID_365_">
		<path id="XMLID_565_" class="st160" d="M315.7,827.2l-1.8-3.3l-1.8-2.2v3.3l-7.1,4.4v4.3l-3.5,2.2v-6.5l-3.6-1.1l-1.8-9.8v-6.5
			l3.6-2.2v-2.2h-1.8l-1.8,3.3l-1.8-2.2l-7.1,2.2l-1.8-3.3l1.8-1.1l-1.8-2.2v1.1l-1.8-2.2l-14.2-2.2l-1.8-1.1H266l-1.8,2.2l-1.8-1.1
			v5.5l-3.6,4.4l-1.8-1.1V801l-1.8,1.1v-4.4v-3.3l-3.6,1.1l-3.5-3.3l1.5-2.3l0.2-2.7l5.2-3l6.4-4.5v-8.9l2.1-4.2l9.2,3.5l7.1-8h7.8
			l8.5-2.9c0,0-3.2-3.6-7.1-4.1c-3.9-0.5,0-5.5,0-5.5l0.2-0.1l6.9,0.1l9.2,2.6l5.2-0.8l5.2,5.1v5.6l4.5,6.6l1.7,5.1l2.6,5l-2.6,11.1
			l-3.8,5.9l2.1,5.5l7.7,6.1l-1.4,7.5l-2,2.2l-0.5,5.9l-2.1,3.3L315.7,827.2z"/>
		<path id="XMLID_561_" class="st161" d="M366,662.7l-2.3,9.2l-1.4,9.1l-0.7,8.9l3.9,8.8l3.1,3.4l7.5,3.7l-4.8,11.6l-3.6,4.6
			l-3.7-4.2h-5.5l-7,9.6l-3.9-3.6l-9.4,1.6c0,0,3.3,3.5,4.1,5.2c0.7,1.7-10.4,4.6-10.4,4.6l-2.2,3.2l7.1,7.9l-0.3,4.3l-6.8-0.4
			l-7.9-2l-9.1,2.8l-7.2,1.3l-9.2-2.6h-7.1l-5.7-3.9v-11.1l8.2-7.8l3.2-5.1l-8.4-9.2v-7.6l3-15.3v-9.1l-5.9-10.1l0.3,0.1v-12.1
			l-3.6-4.4l1.8-8.8l3.6,1.1l1.8-3.3l-1.8-3.3v-2.2l3.6-5.5l1.8-1.1l1.8-3.3v-5.5l-1.8-6.6l-5.3-3.3l1.8-3.3h1.8l1.8-4.4l3.6-1.1
			V602v-2.2h3.6l12.4-5.5l5.3-3.3l5.3,2.2v-4.4h3.6l3.6-3.3l3.5,4.4l3.6,1.1l10.7-3.3v-2.2h5.3l1.8-3.3l3.5,3.3v3.3l1.8,2.2
			l-1.8,2.2l1.8,4.4H353l-3.6-3.3l-1.8,3.3l-3.6-3.3h-1.8l1.8,5.5l7.1,2.2v3.3h3.5l3.6,4.4h3.6v3.3l3.6-2.2l3.5,4.4v2.2l-3.5,4.4
			l1.8,3.3h-3.6v3.3l5.3,2.2l1.8,3.3l-5.3-1.1v11v1.1l1.8,3.3v3.3l-5.3-5.5l-1.8,1.1v1.1l3.6,4.4l1.8,3.3l1.8-1.1L366,662.7z"/>
		<path id="XMLID_557_" class="st162" d="M283.4,670.4l5.9,10.1v9.1l-3,15.3v7.6l8.4,9.2l-3.2,5.1l-8.2,7.8v11.1l5.7,3.9
			c0,0-3.9,5,0,5.5s7.1,4.1,7.1,4.1l-8.5,2.9h-7.8l-7.1,8l-9.2-3.5l-2.1,4.2v8.9l-6.4,4.5l-5.2,3l-0.2,2.5l-5-3.1l1.8-3.3l-1.8-1.1
			v2.2l-1.8-1.1v-2.2h-3.6v-1.1v-5.5l-5.3-3.3l1.8-2.2l1.8-1.1l1.8-4.4l1.8,5.5h1.8l1.8-3.3v-3.3l-3.6,2.2l-3.6-3.3H234v-1.1
			l-1.8,1.1l-1.8-2.2l-10.7,5.5v1.1h-3.6l-1.8,4.4l-1.8,1.1l1.8-5.5l-1.8-1.1H202l-1.8-2.2l-1.8-4.4l-1.8,1.1v-5.5l-3.6-2.2
			l-1.8-6.6v1.1l-1.8-1.1l-5.3,5.5l-1.8-2.2l1.8-2.2l-1.8-5.5l1.8-2.2l1.8,1.1l1.8-2.2l-3.5-2.2l-7.1-2.2v-2.2l-1.8-3.3h1.8
			l-1.8-6.6l1.8-2.2V710v-1.1l1.8-5.5l1.8-1.1v-2.2l5.3-3.3l5.3-7.7l5.3-1.1l3.5,1.1l1.8-1.1l1.8-5.5l1.8-2.2L202,677v-4.4l1.8-4.4
			h3.6l8.9-5.5l3.6,1.1l5.3,9.9l5.3,4.4h1.8l5.3-5.5l3.6,1.1l1.8-2.2l3.6,1.1l1.8,1.1v2.2l-5.3,6.6l5.3-1.1l3.5,3.3l7.1-5.5l1.8-3.3
			h1.8l3.5-8.8h8.9l8.9,3.3"/>
		<polygon id="XMLID_553_" class="st160" points="315.4,755.8 315.4,761.4 319.9,768 321.6,773.1 324.6,778.8 323.4,784 322,789.9 
			318.4,795.8 319.9,800.6 328,807.2 326.6,814.9 324.6,817 324.2,822.8 322.1,826.3 324.6,827.5 323.1,829 323.1,829 324.2,833 
			322.4,837.4 326,840.6 329.5,842.8 329.5,848.3 333.1,850.4 334.8,850.4 336.6,854.8 338.4,857 340.2,857 341.9,860.3 
			345.5,858.1 343.7,853.7 347.3,853.7 350.8,852.6 354.4,848.3 359.7,846.1 363.3,842.8 363.3,837.4 366.8,836.3 363.3,829.7 
			365,824.3 361.5,817.7 363.3,812.3 359.7,811.2 359.7,807.9 356.2,803.5 357.9,800.3 356.2,797 357.9,792.6 361.5,792.6 
			359.7,787.1 359.7,783.9 357.9,781.7 357.9,780.6 354.4,776.2 354.4,770.7 356.2,769.6 357.9,766.4 363.3,764.2 365,762 
			368.6,760.9 365.5,760.4 362.5,759.6 358.2,754.9 354.2,755.3 350.4,754.7 347.3,755.7 344.2,758.4 342.5,760.3 337.9,760.2 
			335.7,758.3 334.5,753.9 336.5,750.5 331.6,750.5 326.2,749.4 321.8,748.1 314,750.5 310.7,751.4 		"/>
		<path id="XMLID_549_" class="st160" d="M337.5,749.6l-3,3.4l1.5,5.3l2.2,1.9h5.1l2.3-3.5c0,0,4.8-2.6,5.9-1.8s7,0,7,0l4.8,5.3
			l5.3,0.5l0.2,0.2l1.8,2.2v-3.3l10.7,3.3v-3.3l1.8,2.2l1.8-2.2l1.8,5.5l3.6,2.2l3.5-2.2V763l1.8,3.3l7.1,4.4h3.6v-2.2h-1.8l1.8-5.5
			h1.8v1.1l7.1,2.2l1.8-1.1v-5.5l1.8,1.1l3.5-1.1l1.8,1.1l1.8-7.7l3.6,3.3v-3.3l1.8,2.2l1.8-4.4l-3.5-3.3l5.3-1.1l-1.8-1.1l-1.8-3.3
			l-1.8,1.1l-1.8-6.6l-1.8,1.1v-3.3h1.8v-2.2h-5.3v-2.2l1.8-1.1v-1.1l3.6-3.3l3.6,1.1l1.8-11l3.6-3.3l1.8-3.3l-3.6-1.1v-3.3l1.8-2.2
			v-3.3v-1.1l3.6-6.6l-3.6-2.2l1.8-4.4l-3.6,1.1v-4.4l-1.8,3.3v-1.1l-1.8-2.2v-3.3l-1.8-3.3l-3.6-1.1l-3.6-4.4l-1.8-1.1l-1.8-4.4
			l-1.8,2.2v-1.1l-1.8,2.2l-1.8-3.3l-5.3,2.2l-3.5-3.3l-3.6,1.1l-1.8-2.2l-5.3-6.6l-3.5,1.1l-1.8,1.1V652l-1.8,3.3l-3.6-2.2
			l-1.8-3.3v4.4l-5.3-4.4h-1.8v6.6l-3.6,1.1l-3.5-3.3v0.8l-1,8.4c0,0-1.1,4.8-2.2,8c-1.1,3.2-1.1,7.1-1.4,9.1c-0.4,2-0.7,7.3-0.7,10
			s6.2,10.7,6.2,10.7l8.1,3.7l-2.6,7.6l-2.6,4.7c0,0-2.1,2.8-2.9,4.2c-0.9,1.4-3.7-4.2-3.7-4.2h-5.5l-7,9.6l-3.9-3.6l-9.4,1.6
			c0,0,2,2,3.8,4.1c1.8,2.1-4.5,4.4-4.5,4.4l-5.6,1.3L330,738l7.1,8.4L337.5,749.6z"/>
		<g id="XMLID_546_">
			<text id="XMLID_548_" transform="matrix(0.9991 0 0 1 339.8683 786.1553)" class="st156 st157 st163">泾</text>
			<text id="XMLID_547_" transform="matrix(0.9991 0 0 1 355.4923 799.2715)" class="st156 st157 st163">河</text>
		</g>
		<g id="XMLID_376_">
			<text id="XMLID_545_" transform="matrix(0.9991 0 0 1 329.7179 693.8965)" class="st156 st157 st163">小</text>
			<text id="XMLID_544_" transform="matrix(0.9991 0 0 1 329.7169 712.4814)" class="st156 st157 st163">河</text>
		</g>
		<g id="XMLID_367_">
			<text id="XMLID_375_" transform="matrix(0.9991 0 0 1 398.425 753.2822)" class="st156 st157 st163">河</text>
			<text id="XMLID_374_" transform="matrix(0.9991 0 0 1 378.3468 746.7383)" class="st156 st157 st163">茹</text>
		</g>
		<path id="XMLID_366_" class="st164" d="M301.6,784.2c7.1,0.2,14.3,0.4,21.4,0.7c2.2,0.1,4.5,0.2,6.6,1c3.2,1.4,5.4,4.5,8.5,6
			c3.7,1.8,8.1,1,12.1,0.6c1-0.1,2.1-0.2,3,0.2c2,0.7,3,3,4,4.9c2,4,5,7.4,8.7,9.9"/>
	</g>
	<g id="XMLID_362_">
		<text id="XMLID_67_" transform="matrix(1 0 0 1 422.111 36.7886)" class="st165 st166 st167">惠农区</text>
	</g>
	<g id="XMLID_359_">
		<text id="XMLID_65_" transform="matrix(1 0 0 1 333.3482 87.7886)" class="st165 st166 st167">大武口区</text>
	</g>
	<g id="XMLID_356_">
		<text id="XMLID_63_" transform="matrix(1 0 0 1 379.4372 206.4437)" class="st165 st166 st167">兴庆区</text>
	</g>
	<g id="XMLID_353_">
		<text id="XMLID_61_" transform="matrix(1 0 0 1 394.357 131.3745)" class="st165 st166 st167">平罗县</text>
	</g>
	<g id="XMLID_350_">
		<text id="XMLID_59_" transform="matrix(1 0 0 1 359.9052 176.0168)" class="st165 st166 st167">贺兰县</text>
	</g>
	<g id="XMLID_347_">
		<text id="XMLID_57_" transform="matrix(1 0 0 1 287.5061 184.5002)" class="st165 st166 st167">西夏区</text>
	</g>
	<g id="XMLID_209_">
		<text id="XMLID_55_" transform="matrix(1 0 0 1 313.1947 197.017)" class="st165 st166 st167">银川市</text>
	</g>
	<g id="XMLID_206_">
		<text id="XMLID_53_" transform="matrix(1 0 0 1 322.7774 212.9585)" class="st165 st166 st167">金凤区</text>
	</g>
	<g id="XMLID_203_">
		<text id="XMLID_51_" transform="matrix(1 0 0 1 336.3479 237.8005)" class="st165 st166 st167">永宁县</text>
	</g>
	<g id="XMLID_200_">
		<text id="XMLID_49_" transform="matrix(1 0 0 1 396.2121 275.0038)" class="st165 st166 st167">灵武市</text>
	</g>
	<g id="XMLID_197_">
		<text id="XMLID_47_" transform="matrix(1 0 0 1 369.2382 370.7087)" class="st165 st166 st167">利通区</text>
	</g>
	<g id="XMLID_194_">
		<text id="XMLID_144_" transform="matrix(1 0 0 1 274.5194 393.6216)" class="st165 st166 st167">中宁县</text>
	</g>
	<g id="XMLID_191_">
		<text id="XMLID_159_" transform="matrix(1 0 0 1 162.5193 462.7101)" class="st165 st166 st167">沙坡头区</text>
	</g>
	<g id="XMLID_188_">
		<text id="XMLID_160_" transform="matrix(1 0 0 1 292.5193 456.7102)" class="st165 st166 st167">红寺堡区</text>
	</g>
	<g id="XMLID_185_">
		<text id="XMLID_162_" transform="matrix(1 0 0 1 333.8902 514.3831)" class="st165 st166 st167">同心县</text>
	</g>
	<g id="XMLID_182_">
		<text id="XMLID_163_" transform="matrix(1 0 0 1 219.2094 608.2758)" class="st165 st166 st167">海原县</text>
	</g>
	<g id="XMLID_179_">
		<text id="XMLID_165_" transform="matrix(1 0 0 1 208.7779 701.3546)" class="st165 st166 st167">西吉县</text>
	</g>
	<g id="XMLID_176_">
		<text id="XMLID_166_" transform="matrix(1 0 0 1 306.491 672.6879)" class="st165 st166 st167">原州区</text>
	</g>
	<g id="XMLID_173_">
		<text id="XMLID_168_" transform="matrix(1 0 0 1 271.7155 792.0497)" class="st165 st166 st167">隆德县</text>
	</g>
	<g id="XMLID_170_">
		<text id="XMLID_169_" transform="matrix(1 0 0 1 325.6704 824.5001)" class="st165 st166 st167">泾源县</text>
	</g>
	<g id="XMLID_167_">
		<text id="XMLID_171_" transform="matrix(1 0 0 1 388.7406 710.3741)" class="st165 st166 st167">彭阳县</text>
	</g>
	<g id="XMLID_164_">
		<text id="XMLID_172_" transform="matrix(1 0 0 1 479.0204 357.6093)" class="st165 st166 st167">盐池县</text>
	</g>
	<g id="XMLID_161_">
		<text id="XMLID_174_" transform="matrix(1 0 0 1 306.2832 258.8005)" class="st165 st166 st167">青铜峡市</text>
	</g>
	<g id="XMLID_158_">
		<text id="XMLID_175_" transform="matrix(1 0 0 1 322.7773 327.8005)" class="st165 st166 st167">农垦集团</text>
	</g>
	<g id="XMLID_10_">
		<path id="XMLID_157_" class="st164" d="M264.5,386.9c0.3,8.4,5,15.9,9.6,22.9c4,6.2,8.1,12.5,14,16.9c3.6,2.7,7.7,4.6,11.8,6.4
			c7.3,3.3,14.6,6.6,21.9,9.9"/>
		<path id="XMLID_156_" class="st164" d="M234.9,818.2c0.5-3,1.8-5.9,3.7-8.3c2.8-3.6,6.8-6.1,9.5-9.8c1.9-2.6,3-5.7,4.1-8.8
			c0.7-1.8,1.3-3.7,1.6-5.7c0.4-3.4-0.5-6.8-0.9-10.2c-1-7.5,0.3-15.3,4-21.9c1.2-2.2,2.7-4.3,3.1-6.7c0.6-3.5-1.1-7-2.7-10.1
			c-1.5-2.9-2.9-5.7-4.4-8.6c-1.2-2.3-3.7-3.5-0.4-5.5c1-0.6,2.1-1,3.1-1.6c2.2-1.4,3.5-4,5.7-5.4c0.9-0.6,1.9-0.9,2.9-1.1
			c0.8-0.2,1.6-0.4,2.4-0.5c0.4-0.1,0.8-0.1,1.1,0c0.5,0.2,0.8,0.6,1.1,1.1c1.6,2.6,2.5,5.6,2.6,8.6"/>
		<path id="XMLID_155_" class="st164" d="M215.8,689.3c1.8,3.1,1,7.2,2.6,10.4c0.6,1.2,1.6,2.3,2.4,3.4c3.7,4.8,4.8,11.1,7.4,16.6
			c0.6,1.3,1.3,2.5,2.4,3.3c1,0.6,2.1,0.8,3.3,1c5.8,0.8,11.7,0.9,17.5,0.5"/>
		<path id="XMLID_154_" class="st164" d="M252,772.3c-1.2-2.7-2.3-5.4-3.5-8.1c-1.1-2.5-2.2-5.1-3.9-7.2c-3.4-4.4-8.8-6.6-14.1-8.4
			c-2.4-0.8-4.3-2.3-6.2-3.9c-4.2-3.6-7.6-8-10.2-12.8c-1.5-2.9-2.8-5.9-3.8-9"/>
		<path id="XMLID_153_" class="st164" d="M196.1,759.8c3.2-3,6.4-6,9.5-8.9c1.2-1.1,2.4-2.3,3.9-3.1c1.7-0.9,3.6-1.2,5.5-1.5
			c3.6-0.5,7.2-0.7,10.8-0.6"/>
		<path id="XMLID_152_" class="st164" d="M393.4,804.6c-9.2-0.1-18.3,3.6-24.8,10c-1.7,1.7-3.3,3.6-4.4,5.7
			c-1.1,2.1-1.8,4.3-2.9,6.3c-1.8,3.3-4.8,6-8.2,7.5c-2.1,0.9-4.4,1.4-6.5,2.4c-2.1,0.9-4.2,2.4-5,4.6c-0.5,1.4-0.5,3-0.5,4.5
			c0.1,3.2,0.1,6.3,0.2,9.5c0,2.1,0.1,4.2-0.4,6.2c-0.7,3.1-2.4,6-4.9,7.9"/>
		<path id="XMLID_151_" class="st164" d="M324.1,782.1c7.2,0.2,14.3,0.4,21.5,0.7c2.2,0.1,4.5,0.2,6.6,1c3.2,1.4,5.4,4.5,8.5,6
			c3.7,1.8,8.1,1,12.2,0.6c1-0.1,2.1-0.2,3,0.2c2,0.7,3,3,4,4.9c2,4,5.1,7.4,8.7,9.9"/>
		<path id="XMLID_150_" class="st164" d="M459.2,758.9c-7.1-3.2-15.4-0.9-23.1-1.6c-10.8-0.9-21.3-7.8-31.8-5
			c-1.2,0.3-2.4,0.8-3.7,0.6c-2.3-0.2-3.9-2.3-4.8-4.4s-1.5-4.4-3-6.1c-2.2-2.4-5.6-3.1-8.7-4.3c-4.9-1.9-9-5.3-12.8-9
			c-3.3-3.3-6.5-6.8-8.3-11.1c-2.1-5-2.1-10.6-2-16c0-3.8,0-7.7,1-11.3c0.6-2.1,1.5-4.1,1.6-6.3c0.1-2-0.3-4-1.3-5.6
			c-0.4-0.7-0.9-1.3-1.1-2.1c-0.4-1.6,0.5-3.2,1.4-4.5c3.6-5.3,7.6-10.8,7.8-17.2"/>
		<path id="XMLID_149_" class="st164" d="M393.4,743.6c-11.3-0.4-22.7-0.2-34,0.5c-4.1,0.3-8.2,0.6-12.2,1.6"/>
		<path id="XMLID_148_" class="st164" d="M306.3,564.2c5,2,2.3,3.7,7.7,3.8c8.1,0.2,15.9-3.1,23.4-6.3c2.8-1.2,5.7-2.5,7.2-5.1
			c1.2-2,1.4-4.4,1.8-6.6c0.9-4.3,3.2-8.3,6.7-10.9c3.5-2.6,8.3-3.6,12.4-2c1.1,0.4,2.1,1,2.9,1.8c1.7,1.9,1.7,4.8,2,7.3
			c1.3,10.2,9.2,18.8,10.1,29.1c0.2,2.1,0.1,4.3,0,6.4c-0.3,6.1-0.7,12.1-1,18.2c-0.1,2.5-0.3,5-1.2,7.3c-0.9,2.3-2.7,4.4-5.1,4.9"
			/>
		<path id="XMLID_147_" class="st164" d="M320.5,295c7.6,4,10,13.7,10.1,22.3s-1.1,17.6,2.4,25.5c0.4,0.8,0.8,1.6,0.7,2.4
			c-0.3,2.4-3.7,2.6-6.1,2c0.5,4.3,1,8.6,1.5,12.9c0.2,1.6,0.4,3.1,0.6,4.7c0.4,11.5,7.4,21.5,0.4,33.5c0,2,1,5,2,6
			c7.1,5.6,14.5,11.8,20.7,18.7c2.1,2.3,4,4.7,5.8,7.2c7.5,9.1,11.5,23.1,6.5,34.1c-4,9-9,19-12,29c-1,3-3,3-4.7,3.3
			c-3.4,0.4-7-0.2-10.1-1.7"/>
		<path id="XMLID_146_" class="st164" d="M323.2,277.7c5.4,2.4,11.3,3.1,17.2,3.8c4.9,0.6,10,1.2,14.5-0.7c2.7-1.1,5.1-3,7.8-4.3
			c1.9-0.9,4-1.4,6.1-1.6c0.9-0.1,1.7-0.1,2.6,0.2c2,0.6,3.1,2.6,4.4,4.1c3.5,4.3,8.9,6.9,14.4,7c1.1,0,2.3-0.1,3.4-0.5
			c2.7-1,4.4-3.7,5.9-6.2"/>
		<g id="XMLID_11_">
			<g id="XMLID_13_">
				<path id="XMLID_145_" class="st168" d="M421.6,99.1c-2.4,2.5-3.5,5.4-4.8,8.7c-0.8,2-2.2,4.3-3.2,6.2
					c-2.6,4.8-9.5,6.5-13.4,10.3c-3,3-4.9,7.1-6,11.3c-6.6,26.3-16.9,40-17.1,41.9c-0.2,2-0.5,4.1,0.8,5.6c0.8,1,3.7,1.4,4.7,2.3
					c3.3,3.1-0.8,8.1-3.2,12c-1.7,2.8-2.3,6.2-3.8,9.2c-9.3,18.5-35.4,24.9-42.3,46.4c-1.5,4.8-3.9,9.5-4.9,14.4
					c-2.2,11.1-1.7,25.2-10.8,32c-26.2,19.8-23.5,18.3-25.5,23c-4.9,11.5-9.6,14-10.5,26.1c-0.4,5.6,0.5,11.4-0.6,16.3
					c-0.8,3.3-2.7,7.2-4.1,10.3c-1.5,3.1-1.6,4-5,8.9c-2.2,3.2-5.7,5.2-9.6,6.8c-18,6.7-35,14.7-54.1,15.2c-2.8-0.1-4.5-0.7-6.9-0.8
					c-2.4-0.2-5.4,0.1-11,1.6c-8.6,2.4-25.4-3.4-30,1.1c0,0-9,6.3,0,0c2.4-1.7,4.6-3.8,7.3-5c4.8-2.2,10.3-1.6,15.6-1.2
					c6.2,0.5,12.3,0.5,18.5,0.1c6.2-0.4,12.3-1.2,18.3-2.3c12.3-2,24.3-6,35-11.8c2.1-1,4.1-2.1,6-3.4c1.9-1.3,3.7-2.7,5.2-4.4
					c5.6-6.4,6.5-15.4,7.1-23.8c0.4-5.1,2.1-7.8,2-14.6c-0.1-7.3,5.5-7.1,7.8-9.7c6.9-7.6,9.7-20.3,23.4-29.1
					c6.8-4.4,11.3-8,13.6-16c5.2-17.7,8-41,22.1-52.9c3.2-2.7,5.7-3.2,8.7-6c7.8-7.3,13.3-16.1,20.4-23.4c3.3-3.4,9.9-11.3,6.6-14.8
					c-2.5-2.7-3.9-5.9-6.1-9.8c-2.3-4.1,6.2-12.2,11.7-21.1c1.9-3,0.1-9.5,1.5-12.8c4.4-10.6,11.5-25.1,15-25.6
					c1.3-0.2,3.9-3.4,5.1-4.6c2-1.9,0.8-2.4,2.6-4.5c5.2-6.2,11.1-13,14.2-19.9c0.9-2,1.8-3.8,2.6-5.9c0.8-1.9-0.1-3.6-0.9-5.5
					c-4.4-11,1.8-15.8-1.1-20.7c-1.1-2-1.4-4.8-3.1-6.3c-1.3-1.2-2.3-1.4-3.6-2.7c-1.4-1.5-1.4-3.8-1.3-5.8
					c0.6-10.2,3.2-9.5,0.7-33.6c3.6,2.3,6,10.7,4.9,14.8c-1.2,4.1-1.4,10-1.6,14.3c-0.2,4.2,1.5,5.8,3.3,9.9
					C428.3,63.7,432.8,87.7,421.6,99.1z"/>
				<path id="XMLID_14_" class="st169" d="M165.3,405.2c-4.3,3.1-9.6,4.9-14.9,5c-2.4,0.1-4.9-0.2-7.3,0.4
					c-4.7,1.2-9.5,5.6-13.7,3.2c1-1.8-2.1-3.4-3.8-2.3s-2.3,3.3-3.2,5.1c-3.7,6.9-13.1,7.3-20.9,8.1c-1.8,0.2-3.9,0.6-4.9,2.1
					c-0.6,0.8-0.7,1.8-1.2,2.7c-2.5,4.4-10,0.8-14.3,3.6c-1.3,0.9-2.1,2.2-3.1,3.4c-2.8,3.3-6.8,5.3-10.7,7.1
					c-8.1,3.8-16.2,7.6-24.3,11.4c-1,0.5-2.1,1-2.8,1.9c-1.3,1.6-1.1,4.1-2.5,5.8c-1.4,1.6-3.8,1.8-5.9,1.9
					c-6.1,0.2-12.1,0.3-18.2,0.5c-1.8,3.6,1.5,8.5,5.4,8.2c0.5,1.5,0.2,3.2-0.8,4.4"/>
			</g>
			<path id="XMLID_12_" class="st169" d="M219.1,406.3c-0.7,7,8.3,8,10.3,13c7,20.1,17.8,38,28.9,56c1.6,2.6,3.4,5.1,4.8,7.8
				c28.7,56.6,40.5,44.3,47.2,112.2c0.4,4.1,0.8,7.8,0.8,10.1c0,3.4,0.2,6.8,0.2,10.2c0.7,3.5,1.4,6.9,2.3,10.3
				c5.1,20.5,13,40.6,19.3,61.9c0.6,3,1.1,6,1.6,9.1c0.5,3,1,6,1.6,9c0.2,2.7,0.3,5.4,0.2,8.1c-0.1,2.7-0.4,5.5-0.9,8.3c0,1,4,1,4,2
				c0,9-8,17-6,25c3,7-4,17,8.9,22.2c2.1,1.8,1.2,5.2,0.1,7.8c2.1,0.2,4.4,0.8,5.8,2.5s1.1,4.7-1,5.5c2.4,2.1,6.4,0.7,9.2,2.2
				c1.7,0.9,2.7,2.6,3.7,4.2"/>
		</g>
	</g>
</g>
</svg>
