<?xml version="1.0" encoding="utf-8"?>
<!-- Generator: Adobe Illustrator 19.0.0, SVG Export Plug-In . SVG Version: 6.00 Build 0)  -->
<svg version="1.1" id="图层_1" xmlns="http://www.w3.org/2000/svg" xmlns:xlink="http://www.w3.org/1999/xlink" x="0px" y="0px"
	 viewBox="-179 -170 600 900" style="enable-background:new -179 -170 600 900;" xml:space="preserve">
<style type="text/css">
	.map_wz_st0{fill:#1E3580;fill-opacity:0.45;stroke:#FEAB01;stroke-miterlimit:10;}
	.map_wz_st1{fill:#F9E4AF;}
	.map_wz_st2{font-family:'MicrosoftYaHei';}
	.map_wz_st3{font-size:10px;}
	.map_wz_st4{fill:#FFA801;}
	.map_wz_st5{font-family:'MicrosoftYaHeiLight';}
	.map_wz_st6{font-size:12px;}
	.map_wz_st7{opacity:0.5;fill:none;stroke:#F9E4AF;stroke-miterlimit:10;enable-background:new    ;}
	.map_wz_st8{opacity:0.5;fill:#F9E4AF;enable-background:new    ;}
</style>
<path id="XMLID_21_" class="map_wz_st0" d="M-34.3,201.8c7.4,0.8,17.3-2.1,35.2,9.7s15.4,11.3,17.3,9.1c2-2.2,9.5-14.8,15.1-10.5l-6.2-6.5
	v-9.9l-3.1-5.9l3.1-9.9L24,168l-6.2-7.9l-3.1-7.9l3.1-4l9.4,2l6.3-4l-3.1-7.9l-3.1-2v-4v-13.9l3.1-2H43l3.1-2v-13.9l-6.2-2l-3.1-4
	l-6.3-2l-3.1-2l6.3-8v-3.9l-6.3-4l-6.2,2l-9.4-19.9l-6.6-7.9l3.1-14l-3.1-7.9l-4.3-4.6c-1.6,0.8-4.5,1-9.5-1.2c0,0-7.2,6.4-5.2,13.6
	c0,0,0.8,4-6.8,5.2c0,0-8.8,8.4-10.8,17.5c0,0-6.4,10-13.2,10c0,0,0.8,10.4,16.7,15.1c10.1,3.8-3.6,13.6-3.6,13.6s1.9,4.7,11.2,12
	c6,4.7-13.9,30.9-13.9,30.9s6.8,25.2-2.4,38.4c-4.7,6.8-9.7,8.3-13.5,8.3l1.9,4.1l-3.1,11.9l3.1,2L-49,206
	C-48.1,205.3-41.3,201-34.3,201.8z"/>
<path id="XMLID_10_" class="map_wz_st0" d="M412.6,128.3v-11.9l-3.1-4l-25.1-5.9l-12.6-8l-3.1-8l-9.4-2l-3.1,4l-12.6-4l6.3-17.9l-6.3-6
	l-9.4-6l-15.7-19.9l-25.1-12l-6.3-4l-6.3-8l-15.7-2l-3.1,8l-18.8,4l-3.1,4h-2.9l-59.5-15.9l-3.1,6l3.1,5.9l15.7,27.9l-9.4,5.9
	l-9.4-2l-9.4,6l-3.1,8l3.1,10l3.1,9.9h3.1l3.1,4l3.1,27.8h12.5v17.9l-9.4,11.9l-21.9,21.9v7.9l3.1,23.7l-18.8-2l-15.7-4l-21.9,19.8
	l3.1,11.8l-3.1,7.9l-9.4,4l-4.8,3.1c-0.4,6.3,1.2,18.3,16.9,24.5c22,8.8,14.5,28.7,11.8,32.9c-2.7,4.2,29.6,26.9,30.5,26.3
	s6.3,1.8-7.5,15.4c-12.4,12.2-19.5,30.1-20.4,37l5,4.7l6.3-2v5.9l3.1-2l3.1,2l3.1-3.9h6.3l9.4,11.8v-5.8l3.1-5.9v-7.9l3.1-5.9
	l21.9,15.7l3.1-2l6.3,5.9l3.1-2v-3.9l3.1-2l-6.3-5.9l6.3-2l12.5,5.9l6.3,7.9l6.2-3.9l9.4,3.9v-5.9V381l9.4,5.9l6.2-2l6.3,3.9
	l9.4-7.9l12.5-2l15.7,15.7l6.3-2l6.3,5.9l3.1-2l-3.1-13.8l9.4,7.9l6.2-11.8l3.1-9.8l-6.3-7.9l-3.1-2l-9.4-13.8l9.4-2v-3.9v-7.5
	l-6.3-3.9l-6.3-13.8l-3.1-7.9l9.4-53.3l3.1-2v2l6.2-7.9l6.3-4l6.3-9.9v-7.9l-6.3,2l-12.5-15.8l15.7-2l6.3-9.9v-4h-3.1l3.1-2l6.2,2
	v-5.9l-6.2-4v-5.9l12.5,5.9l3.1-2h9.4l9.4-23.8l-3.1-4l3.1-2l21.9-4v-4v-2l9.4,7.9l6.3-6v-9.9h6.2L412.6,128.3z"/>
<path id="XMLID_24_" class="map_wz_st0" d="M-36.4,177.4C-27.2,164.2-34,139-34,139s19.9-26.2,13.9-30.9c-9.2-7.3-11.2-12-11.2-12
	s13.7-9.8,3.6-13.6c-15.9-4.8-16.7-15.1-16.7-15.1c6.8,0,13.2-10,13.2-10c2-9.2,10.8-17.5,10.8-17.5c7.6-1.2,6.8-5.2,6.8-5.2
	c-2-7.2,5.2-13.6,5.2-13.6c5,2.1,7.9,1.9,9.5,1.2l-5.2-5.4h-15.7v-4l-3.1-6v-2h-9.4v-4h3.1l3.1-4l-3.1-2L-41.8,9l-9.4-4l-3.1-6h-3.1
	l-3.1,8l-3.1,14H-73l9.4-25.9v-4l-15.7-6l-6.3-8H-95l-6.3,16l-12.6,4L-117,27l6.2,27.9l12.6,17.9l-3.1,9.9l-9.4,9.9l3.1,4l-3.1,8
	l3.1,13.9v6l-12.5,15.9v7.9h-6.3l-21.9,6l-12.6-6l-3.1,2v15.9l-3.1,11.9l-6.3,2h15.7l18.8-5.9l15.7,2l6.3-2h12.5l6.3-4h12.5v11.9
	l-3.1,9.9l3.1,4l-3.1,9.9l3.1,2l6.3-2l3.1-9.9v-5.9h3.1l9.4-17.8v-11.9l6.3,2v7.9l7.5,15.8C-46.1,185.7-41.1,184.1-36.4,177.4z"/>
<path id="XMLID_27_" class="map_wz_st0" d="M120,303.6c2.7-4.2,10.3-24.1-11.8-32.9c-15.8-6.3-17.3-18.2-16.9-24.5l-1.4,0.9v2l-3.1,4
	l-6.3,2l-9.4-2l-18.8-9.9l-3.1-13.9v-5.9l-9.4-2l-3.1-2v-5.9l-3.2-3.4c-5.6-4.3-13.1,8.2-15.1,10.5c-2,2.2,0.6,2.8-17.3-9.1
	s-27.8-8.9-35.2-9.7c-7-0.8-13.8,3.6-14.5,4.1l-5.5,15.5v5.9l9.4,7.9l9.4,2l3.1,5.9L-44.8,255v3.9l-6.2,4l-15.7,2l6.3,9.9h-9.4
	l-3.1,2l3.1,5.9l-18.8,5.9l-3.1,3.9l6.3,3.9l-12.5,5.9l3.1,5.9l21.9,11.8l3.1,2l-3.1,3.9l-40.8-2l-15.7,9.9l6.3,18.4
	c25,16,73.7,20.2,73.7,20.2c45.1-4.3,59.3,18,59.3,18c15.4,25.7,22,0,22,0c5.4-24.2-0.6-41.9-6.6-56.8c-6-14.8-1.4-33.7,20-31.1
	s26.2-9.7,26.2-9.7c2.6-27.7,20.5-10.6,20.5-10.6c8.3,22.6,21.5,25.5,29.5,24.9C120.1,305.6,119.5,304.3,120,303.6z"/>
<path id="XMLID_14_" class="map_wz_st0" d="M150.5,329.9c-0.7,0.5-22.9-14.9-29.1-22.6c-8,0.6-21.2-2.3-29.5-24.9c0,0-18-17.1-20.5,10.6
	c0,0-4.8,12.3-26.2,9.7c-21.4-2.6-26,16.3-20,31.1c6,14.8,12,32.5,6.6,56.8c0,0-6.6,25.7-22,0c0,0-14.3-22.2-59.3-18
	c0,0-48.7-4.2-73.7-20.2l3.1,9.1l-15.7,7.9l-9.4-9.8l3.1-5.9l-6.3-13.8l-12.6,5.9l9.4,9.9v9.8l6.3,19.6l12.5,13.8h9.4l3.1,1.9
	l18.8,37.3l9.4,7.9h9.4l3.1,5.9v3.9l3.1,2l6.2,5.9h3.1l-3.1,3.9l3.1,2l3.1,5.9l3.1,2v5.9l-3.1,7.8h9.4l6.3,3.9l3.1,7.8v3.9l9.4,11.7
	v11.7l9.4,11.7l3.1,15.6l9.4,9.8V579l3.1,3.9l9.4-5.9l9.4,3.9v-7.8h6.3l6.3-5.8l6.7,7.6l6.3,2l18.8-5.8v-3.9h9.4l3.1-5.9l6.2,5.9v-2
	l6.3,2l6.3-3.9l-3.1-3.9l6.3-3.9l-3.1-11.7l6.3-3.9l6.2,2l-6.2-9.8h3.1l3.1-5.9l6.3-3.9l3.1,3.9l3.1-7.8l15.7,11.7h6.3l-6.3-5.9
	v-5.9v-3.9l3.1-9.8l3.1-5.9v-5.9l-3.1-2V485l-3.1-3.9l3.1-9.8l-6.3-2l-3.1,3.9l-12.5-17.6l-6.3-3.9l3.1-3.9l-6.3-9.8l3.1-2l6.3,9.8
	l3.1,3.9v2v2l6.2-2l-3.1-7.9l9.4,2l6.3-2v-13.7v-7.8l3.1-5.9l-3.1-11.8l-6.3-7.8L118,387v-3.9l3.1-2l1.3,1.2c0.9-6.9,8-24.8,20.4-37
	C156.8,331.7,151.4,329.3,150.5,329.9z"/>
<g id="XMLID_255_">
	<text id="XMLID_258_" transform="matrix(1 0 0 1 -63.3958 289.8199)" class="map_wz_st1 map_wz_st2 map_wz_st3">红</text>
	<text id="XMLID_257_" transform="matrix(1 0 0 1 -49.1619 303.255)" class="map_wz_st1 map_wz_st2 map_wz_st3">柳</text>
	<text id="XMLID_256_" transform="matrix(1 0 0 1 -31.7234 314.5157)" class="map_wz_st1 map_wz_st2 map_wz_st3">沟</text>
</g>
<g id="XMLID_251_">
	<text id="XMLID_254_" transform="matrix(1 0 0 1 -80.366 404.0733)" class="map_wz_st1 map_wz_st2 map_wz_st3">清</text>
	<text id="XMLID_253_" transform="matrix(1 0 0 1 -34.2718 485.8341)" class="map_wz_st1 map_wz_st2 map_wz_st3">水</text>
	<text id="XMLID_252_" transform="matrix(1 0 0 1 -3.7537 557.9973)" class="map_wz_st1 map_wz_st2 map_wz_st3">河</text>
</g>
<g id="XMLID_243_">
	<text id="XMLID_246_" transform="matrix(1 0 0 1 -3.0447 532.3214)" class="map_wz_st1 map_wz_st2 map_wz_st3">折</text>
	<text id="XMLID_245_" transform="matrix(1 0 0 1 34.9133 513.3819)" class="map_wz_st1 map_wz_st2 map_wz_st3">死</text>
	<text id="XMLID_244_" transform="matrix(1 0 0 1 75.6902 478.4532)" class="map_wz_st1 map_wz_st2 map_wz_st3">沟</text>
</g>
<g id="XMLID_239_">
	<text transform="matrix(1 0 0 1 -38.9944 285.6451)" class="map_wz_st4 map_wz_st5 map_wz_st6">红寺堡区</text>
</g>
<g id="XMLID_237_">
	<text transform="matrix(1 0 0 1 -78.0794 433.0597)" class="map_wz_st4 map_wz_st5 map_wz_st6">同心县</text>
</g>
<g id="XMLID_235_">
	<text transform="matrix(1 0 0 1 283.5355 158.9888)" class="map_wz_st4 map_wz_st5 map_wz_st6">盐池县</text>
</g>
<path id="XMLID_234_" class="map_wz_st7" d="M-63,275.1c4,5.1,8.4,9.8,13.6,13.7c6.3,4.7,13.6,8,20.8,11.3c12.9,5.8,25.7,11.7,38.6,17.5"/>
<path id="XMLID_232_" class="map_wz_st7" d="M4.7,56.6c13.5,7,17.7,24.3,17.9,39.4s-0.1,30.8,6.2,44.6c0.6,1.4,1.7,3.6,1.6,5.1
	c-0.5,4.2-13,3-13,3s-4.9,3-4.6,5.4c0.6,5.1,6.7,12.2,7.3,17.3c0.3,2.7,0.7,5.5,1,8.2c0.7,20.3,13,37.9,0.7,59.1
	c0,3.5,1.8,8.8,3.5,10.6c12.6,9.9,25.6,20.8,36.5,33c3.6,4.1,7.1,8.3,10.1,12.6c13.2,16,20.3,40.7,11.5,60.1
	c-7,15.9-15.9,33.5-21.1,51.1c-1.8,5.3-5.3,5.3-8.3,5.9c-6,0.8-12.3-0.3-17.8-2.9"/>
<path id="XMLID_15_" class="map_wz_st8" d="M4.9,48.5L4.9,48.5C0.4,58.1-6.7,63.7-16.6,70c-5.6,3.5-10.1,7.4-13.9,11.5
	c0.9,0.3,1.8,0.7,2.8,1c1.8,0.7,2.9,1.6,3.4,2.6c6.2-4.9,14.8-11.5,27.1-20.7c3.3-2.5,5.8-5.5,7.8-8.8L4.9,48.5z"/>
<path id="XMLID_18_" class="map_wz_st8" d="M-42.2,104.8c2.6-6,0.7-6.2,17.8-19.7c-0.5-1-1.5-1.9-3.4-2.6c-1-0.3-1.9-0.6-2.8-1
	c-12.9,13.7-17.9,29.4-27.3,39.7c-4.1,4.5-13.9,4.2-13.8,17.1c0.1,12-2.8,16.9-3.5,25.8c-1.1,14.8-2.8,30.8-12.5,41.9
	c-0.1,0.1-0.1,0.1-0.2,0.2l2,1.5l5.4-2.2l2.7-9.8v-6.8l3.6,0.6l5.1-7.6l5.7-10.3l-0.3-11.6l2.9,1.2c-0.1-3.4-0.1-6.9,0.2-10.3
	C-59.1,129.5-50.8,125.1-42.2,104.8z"/>
<g id="XMLID_2_">
	<text transform="matrix(1 0 0 1 -101.7791 43.1622)" class="map_wz_st4 map_wz_st5 map_wz_st6">青铜峡市</text>
</g>
<g id="XMLID_247_">
	<text id="XMLID_250_" transform="matrix(1 0 0 1 16.4475 264.3907)" class="map_wz_st1 map_wz_st2 map_wz_st3">河</text>
	<text id="XMLID_249_" transform="matrix(1 0 0 1 7.2141 190.1461)" class="map_wz_st1 map_wz_st2 map_wz_st3">苦</text>
	<text id="XMLID_248_" transform="matrix(1 0 0 1 11.5754 227.2838)" class="map_wz_st1 map_wz_st2 map_wz_st3">水</text>
</g>
<path id="XMLID_233_" class="map_wz_st7" d="M-17.4,531.1c8.9,3.5,4,6.5,13.5,6.7c14.3,0.4,28-5.4,41.2-11.1c4.9-2.1,10-4.5,12.7-9
	c2.1-3.5,2.4-7.7,3.2-11.7c1.6-7.5,5.6-14.7,11.8-19.3c6.2-4.6,14.6-6.3,21.8-3.6c1.9,0.7,3.7,1.7,5,3.2c3,3.4,3,8.4,3.6,12.9
	c1.3,10.4,6.5,19.8,10.9,29.4"/>
<g id="XMLID_7_">
	<text transform="matrix(1 0 0 1 -26.4998 151.8204)" class="map_wz_st4 map_wz_st5 map_wz_st6">利通区</text>
</g>
</svg>
