<?xml version="1.0" encoding="utf-8"?>
<!-- Generator: Adobe Illustrator 19.0.0, SVG Export Plug-In . SVG Version: 6.00 Build 0)  -->
<svg version="1.1" id="图层_1" xmlns="http://www.w3.org/2000/svg" xmlns:xlink="http://www.w3.org/1999/xlink" x="0px" y="0px"
	 viewBox="0 0 608.5 735.2" style="enable-background:new 0 0 608.5 735.2;" xml:space="preserve">
<style type="text/css">
	.MAP_XHG_ST0{fill:#184C77;fill-opacity:0.45;stroke:#FEAB01;stroke-miterlimit:10;}
	.MAP_XHG_ST1{fill:#0F477A;fill-opacity:0.45;stroke:#FEAB01;stroke-miterlimit:10;}
	.MAP_XHG_ST2{fill:#F9E4AF;}
	.MAP_XHG_ST3{font-family:'MicrosoftYaHei';}
	.MAP_XHG_ST4{font-size:22.4216px;}
	.MAP_XHG_ST5{font-size:14.2683px;}
	.MAP_XHG_ST6{fill:none;stroke:#F9E4AF;stroke-miterlimit:10;}
	.MAP_XHG_ST7{opacity:0.5;fill:none;stroke:#F9E4AF;stroke-miterlimit:10;}
	.MAP_XHG_ST8{fill:#284E6B;stroke:#3090C6;stroke-miterlimit:10;}
	.MAP_XHG_ST9{fill:none;stroke:#00BEFF;stroke-width:0.75;stroke-miterlimit:10;}
	.MAP_XHG_ST10{fill:#FFA801;}
	.MAP_XHG_ST11{font-family:'MicrosoftYaHei-Bold';}
	.MAP_XHG_ST12{font-size:18px;}
	.MAP_XHG_ST13{fill:#1A3672;stroke:#FEAB01;stroke-miterlimit:10;stroke-dasharray:10,10,10;}
	.MAP_XHG_ST14{opacity:0.5;fill:none;stroke:#F9E4AF;stroke-width:2;stroke-miterlimit:10;}
	.MAP_XHG_ST15{opacity:0.6;fill:#2193D8;}
	.MAP_XHG_ST16{fill:#00FFDA;}
</style>
<path id="MAP_XHG_XMLID_166_" class="MAP_XHG_ST0" d="M340.7,649.2l-3.6-6.7l-3.6-4.5v6.7l-14.5,8.9v8.9l-7.2,4.5v-13.3l-7.3-2.2l-3.6-20v-13.3
	l7.3-4.5v-4.5h-3.6l-3.6,6.7l-3.6-4.5l-14.5,4.5l-3.6-6.7l3.6-2.2l-3.6-4.5v2.2l-3.6-4.5l-29-4.5l-3.6-2.2h-3.6l-3.6,4.5l-3.6-2.2
	v11.1l-7.3,8.9l-3.6-2.2v-17.8l-3.6,2.2v-8.9v-6.7l-7.3,2.2L203,578l3-4.7l0.4-5.6l10.6-6.1l13-9.3v-18.1l4.3-8.6l18.8,7.1
	l14.5-16.2h15.9l17.4-6c0,0-6.5-7.3-14.6-8.3c-8-1,0-11.1,0-11.1l0.5-0.1l14.1,0.1l18.8,5.4l10.6-1.7L341,505v11.4l9.2,13.5
	l3.4,10.4l5.3,10.3l-5.3,22.6l-7.7,11.9l4.2,11.2l15.6,12.5l-2.8,15.3l-4.1,4.4l-1,12l-4.2,6.7L340.7,649.2z"/>
<path id="MAP_XHG_XMLID_162_" class="MAP_XHG_ST0" d="M14.4,120v4.5l7.3,13.5v13.6l3.6,9l7.3,2.2l3.6,9v6.8l-7.3,4.5v2.3l7.3,9H47l7.2-4.5l10.9,15.8
	l3.6,24.8l3.6-2.3l7.2,4.5v15.8l3.6,4.5l-7.3,2.3l3.6,6.7l7.3,11.3l10.9,4.5l7.2,11.3v6.7l-7.2,4.5l3.6,6.8l-3.6,4.5l10.9,22.4
	l3.6-9h7.3l18.1-11.2l7.3,2.2l10.9,20.2l10.9,9h3.6l10.9-11.2l7.3,2.2l3.6-4.5l7.3,2.2l3.6,2.2v4.5L192,354.3l10.9-2.2l7.2,6.7
	l14.5-11.2l3.6-6.7h3.6l7.2-17.9h18.1l18.1,6.7v-24.7l-7.3-9l3.6-18l7.3,2.3l3.6-6.8l-3.6-6.8v-4.5l7.3-11.2l3.6-2.3l3.6-6.8v-11.3
	l-3.6-13.5l-10.9-6.8l3.6-6.8h3.6l3.6-9l7.3-2.3V190v-4.5h7.3l25.4-11.3l-3.6-4.5v-13.5l-10.9-11.3l-3.6-18.1l-10.9-13.6V99.6
	l-10.9-13.6v-4.5l-3.6-9.1L279,68h-10.9l3.6-9v-6.8l-3.6-2.3l-3.6-6.8l-3.6-2.3l3.6-4.5h-3.6l-7.2-6.8l-3.6-2.3h-0.2l-12.7-1.7v11.5
	l-29,37.8l-5.2-12.8l-14,6.9l-7.3-11.5l-7.6-1.1l-10.2,11l-26,15.1l-10.9,11.5h-12.2l-13.4,18.2l-19.2-6.9l-14.2,24.1l-13-13.4
	l-10.4,7.3l-27.4-6.2l-2.7,3.1v0.3"/>
<path id="MAP_XHG_XMLID_154_" class="MAP_XHG_ST1" d="M274.9,329.6l12.1,20.6v18.5L281,400v15.6l17.2,18.7l-6.5,10.4l-16.7,16v22.6l11.6,8
	c0,0-8,10.1,0,11.1c8,1,14.6,8.3,14.6,8.3l-17.4,6h-15.9L253.2,533l-18.8-7.1l-4.3,8.6v18.1l-13,9.3l-10.6,6.1l-0.4,5.2l-10.3-6.2
	l3.6-6.7l-3.6-2.2v4.5l-3.6-2.2v-4.4h-7.3v-2.2v-11.2l-10.9-6.7l3.6-4.5l3.6-2.2l3.6-8.9l3.6,11.1h3.6l3.6-6.7v-6.7l-7.3,4.5
	l-7.3-6.7H174v-2.2l-3.6,2.2l-3.6-4.5L145,522.2v2.2h-7.3l-3.6,8.9l-3.6,2.2l3.6-11.2l-3.6-2.2h-21.7l-3.6-4.5l-3.6-8.9l-3.6,2.2
	v-11.2l-7.3-4.5L87,482v2.2l-3.6-2.2l-10.9,11.1l-3.6-4.4l3.6-4.5L68.9,473l3.6-4.5l3.6,2.2l3.6-4.5l-7.2-4.5L58,457.4v-4.5
	l-3.6-6.7H58l-3.6-13.4l3.6-4.5v-17.9v-2.2l3.6-11.2l3.6-2.2v-4.4l10.9-6.7L87,367.8l10.9-2.2l7.2,2.2l3.6-2.2l3.6-11.2l3.6-4.5
	l-7.3-6.7v-9l3.6-9h7.3l18.1-11.2l7.3,2.2l10.9,20.2l10.9,9h3.6l10.9-11.2l7.3,2.2l3.6-4.5l7.3,2.2l3.6,2.2v4.5l-10.9,13.5l10.9-2.2
	l7.2,6.7l14.5-11.2l3.6-6.7h3.6l7.2-17.9h18.1l18.1,6.7"/>
<polygon id="MAP_XHG_XMLID_150_" class="MAP_XHG_ST0" points="341,505 341,516.5 349.4,528.5 352.8,538.9 359,550.6 356.5,561.2 353.6,573.2 
	346.2,585.2 349.4,594.9 365.8,608.4 363.1,624.1 359,628.5 358.1,640.3 353.8,647.5 358.8,649.8 355.8,652.9 355.8,652.9 
	358.1,661.1 354.4,670 361.7,676.6 368.9,681.1 368.9,692.2 376.2,696.6 379.8,696.6 383.4,705.5 387.1,709.9 390.7,709.9 
	394.3,716.6 401.6,712.2 397.9,703.3 405.2,703.3 412.4,701.1 419.7,692.2 430.6,687.7 437.8,681.1 437.8,670 445.1,667.7 
	437.8,654.4 441.4,643.3 434.2,629.9 437.8,618.8 430.6,616.6 430.6,609.9 423.3,601 426.9,594.3 423.3,587.6 426.9,578.7 
	434.2,578.7 430.6,567.6 430.6,560.9 426.9,556.4 426.9,554.2 419.7,545.3 419.7,534.1 423.3,531.9 426.9,525.2 437.8,520.8 
	441.4,516.3 448.9,513.4 442.3,512.4 436.3,511.5 427.5,501.9 419.2,502.6 411.6,501.5 405.2,503.5 398.8,508.9 395.3,512.9 
	386.1,512.6 381.6,508.8 379.2,498 385.3,491 369.6,492.1 362.2,490.6 353.2,488 337.3,492.9 330.5,494.7 "/>
<path id="MAP_XHG_XMLID_39_" class="MAP_XHG_ST0" d="M385.3,491l-6.1,6.8l2.4,10.8l4.5,3.8l10.3-0.5l8.8-8.6c0,0,6.4-3.5,8.7-1.7
	c2.4,1.8,14.3,0,14.3,0l8,9.7l12.6,2l0.5,0.5l3.6,4.5v-6.7l21.7,6.7v-6.7l3.6,4.5l3.6-4.5l3.6,11.1l7.3,4.5l7.2-4.5v-4.4l3.6,6.7
	l14.5,8.9h7.3v-4.5h-3.6l3.6-11.1h3.6v2.2l14.5,4.4l3.6-2.2v-11.1l3.6,2.2l7.2-2.2l3.6,2.2l3.6-15.7l7.3,6.7v-6.7l3.6,4.5l3.6-8.9
	l-7.2-6.7l10.9-2.2l-3.6-2.2l-3.6-6.7l-3.6,2.2l-3.6-13.4l-3.6,2.2v-6.7h3.6v-4.4h-10.9v-4.5l3.6-2.2v-2.2l7.3-6.7l7.3,2.2l3.6-22.4
	l7.3-6.7l3.6-6.7l-7.3-2.2v-6.7l3.6-4.5v-6.7V384l7.3-13.5l-7.3-4.5l3.6-8.9l-7.3,2.2v-8.9l-3.6,6.7v-2.2l-3.6-4.5v-6.7l-3.6-6.7
	l-7.3-2.2l-7.3-9l-3.6-2.2l-3.6-9l-3.6,4.5v-2.2l-3.6,4.5l-3.6-6.7l-10.9,4.5l-7.2-6.7l-7.3,2.2L511,310l-10.9-13.5l-7.2,2.3
	l-3.6,2.3v-9l-3.6,6.7l-7.3-4.5l-3.6-6.7v9l-10.9-9h-3.6V301l-7.3,2.3l-7.2-6.8v1.7l0,0.1l-2.1,17.2c0,0-2.3,9.8-4.5,16.4
	c-2.2,6.6-2.2,14.5-2.9,18.5c-0.3,1.6-1.9,17.9-1.9,17.9l8,17.9l6.5,6.6l15.1,7.4l-5.8,15.4l-3.9,8.9c0,0-5,6.7-6.8,9.5
	c-1.8,2.8-7.6-8.6-7.6-8.6h-11.2l-14.3,19.6l-7.9-7.2l-19.2,3.2c0,0,4.1,4,7.7,8.4s-9.2,9-9.2,9l-11.4,2.6l-4.6,6.5l14.4,17.2
	L385.3,491L385.3,491z"/>
<path id="MAP_XHG_XMLID_36_" class="MAP_XHG_ST0" d="M385.3,491l-1-6.5l-14.4-17.2l4.6-6.5l11.4-2.6c0,0,12.8-4.6,9.2-9c-3.6-4.3-7.7-8.4-7.7-8.4
	l19.2-3.2l7.9,7.2l14.3-19.6h11.2c0,0,5.8,11.4,7.6,8.6c1.8-2.8,6.8-9.5,6.8-9.5l3.9-8.9l5.8-15.4l-15.1-7.4l-6.5-6.6l-8-17.9
	c0,0,1.6-16.4,1.9-17.9c0.7-4,0.7-11.9,2.9-18.5s4.5-16.4,4.5-16.4l2.1-17.2l0.1-0.1l-3.6,2.3l-3.6-6.7l-7.3-9v-2.3l3.6-2.3
	l10.9,11.3v-6.8l-3.6-6.8v-2.3v-22.5l10.9,2.3l-3.6-6.8l-10.9-4.5v-6.8h7.3l-3.6-6.8l7.2-9v-4.5l-7.2-9l-7.3,4.5v-6.8h-7.3l-7.3-9
	h-7.2v-6.7l-14.5-4.5l-3.6-11.3h3.6l7.3,6.8l3.6-6.8l7.3,6.8h10.9l-3.6-9l3.6-4.5l-3.6-4.5v-6.7l-7.2-6.8l-3.6,6.8h-10.9v4.5
	l-21.7,6.7l-7.3-2.3l-7.2-9l-7.3,6.7h-7.3v9l-10.9-4.5l-10.9,6.8l-25.4,11.3h-7.3v4.5v2.3l-7.3,2.3l-3.6,9h-3.6l-3.6,6.8l10.9,6.8
	l3.6,13.5v11.3l-3.6,6.8l-3.6,2.3l-7.3,11.2v4.5l3.6,6.8l-3.6,6.8l-7.3-2.3l-3.6,18l7.3,9v24.7l-0.6-0.3L287,350v18.5l-6.1,31.3
	v15.6l17.2,18.7l-6.5,10.4l-16.7,16V483l11.6,8h14.6l18.8,5.4l14.7-2.7l18.6-5.7l16.2,4.1L385.3,491L385.3,491z"/>
<g id="MAP_XHG_XMLID_142_">
	<text id="MAP_XHG_XMLID_145_" transform="matrix(1 0 0 1 247.7711 122.4778)" class="MAP_XHG_ST2 MAP_XHG_ST3 MAP_XHG_ST4">清</text>
	<text id="MAP_XHG_XMLID_144_" transform="matrix(1 0 0 1 301.0861 217.0442)" class="MAP_XHG_ST2 MAP_XHG_ST3 MAP_XHG_ST4">水</text>
	<text id="MAP_XHG_XMLID_143_" transform="matrix(1 0 0 1 336.3834 300.512)" class="MAP_XHG_ST2 MAP_XHG_ST3 MAP_XHG_ST4">河</text>
</g>
<g id="MAP_XHG_XMLID_138_">
	<text id="MAP_XHG_XMLID_141_" transform="matrix(1 0 0 1 221.8455 410.4481)" class="MAP_XHG_ST2 MAP_XHG_ST3 MAP_XHG_ST5">葫</text>
	<text id="MAP_XHG_XMLID_140_" transform="matrix(1 0 0 1 212.2049 461.4608)" class="MAP_XHG_ST2 MAP_XHG_ST3 MAP_XHG_ST5">芦</text>
	<text id="MAP_XHG_XMLID_139_" transform="matrix(1 0 0 1 204.1955 520.6572)" class="MAP_XHG_ST2 MAP_XHG_ST3 MAP_XHG_ST5">河</text>
</g>
<g id="MAP_XHG_XMLID_135_">
	<text id="MAP_XHG_XMLID_137_" transform="matrix(1 0 0 1 390.064 565.5605)" class="MAP_XHG_ST2 MAP_XHG_ST3 MAP_XHG_ST5">泾</text>
	<text id="MAP_XHG_XMLID_136_" transform="matrix(1 0 0 1 421.941 592.2958)" class="MAP_XHG_ST2 MAP_XHG_ST3 MAP_XHG_ST5">河</text>
</g>
<path id="MAP_XHG_XMLID_134_" class="MAP_XHG_ST6" d="M350.2,493.7"/>
<g id="MAP_XHG_XMLID_131_">
	<text id="MAP_XHG_XMLID_133_" transform="matrix(1 0 0 1 369.3541 377.4895)" class="MAP_XHG_ST2 MAP_XHG_ST3 MAP_XHG_ST5">小</text>
	<text id="MAP_XHG_XMLID_132_" transform="matrix(1 0 0 1 369.3532 415.3738)" class="MAP_XHG_ST2 MAP_XHG_ST3 MAP_XHG_ST5">河</text>
</g>
<g id="MAP_XHG_XMLID_128_">
	<text id="MAP_XHG_XMLID_130_" transform="matrix(1 0 0 1 509.5386 498.5457)" class="MAP_XHG_ST2 MAP_XHG_ST3 MAP_XHG_ST5">河</text>
	<text id="MAP_XHG_XMLID_129_" transform="matrix(1 0 0 1 468.5739 485.2089)" class="MAP_XHG_ST2 MAP_XHG_ST3 MAP_XHG_ST5">茹</text>
</g>
<path id="MAP_XHG_XMLID_127_" class="MAP_XHG_ST7" d="M184.6,550.8c1.1-6.1,3.7-12,7.5-16.9c5.7-7.3,13.9-12.5,19.3-20c3.9-5.3,6.2-11.6,8.4-17.8
	c1.4-3.8,2.7-7.6,3.2-11.5c0.9-6.9-1-13.9-1.9-20.8c-2-15.3,0.7-31.2,8.2-44.7c2.5-4.4,5.5-8.7,6.4-13.7c1.2-7.1-2.2-14.2-5.5-20.6
	c-3-5.8-6-11.6-9-17.4c-2.4-4.8-7.5-7.1-0.9-11.2c2.1-1.3,4.4-2,6.4-3.3c4.5-2.9,7.1-8.3,11.7-11.1c1.8-1.1,3.9-1.8,6-2.3
	c1.6-0.4,3.2-0.7,4.8-1c0.7-0.1,1.5-0.2,2.3,0c1,0.3,1.7,1.3,2.2,2.2c3.2,5.3,5,11.4,5.4,17.6"/>
<path id="MAP_XHG_XMLID_126_" class="MAP_XHG_ST7" d="M86.7,371.5c3.7,6.3,2,14.7,5.4,21.2c1.3,2.5,3.3,4.6,5,6.9c7.5,9.9,9.9,22.5,15,33.8
	c1.2,2.6,2.6,5.2,4.9,6.7c2,1.3,4.3,1.6,6.6,1.9c11.8,1.6,23.8,1.9,35.6,1"/>
<path id="MAP_XHG_XMLID_125_" class="MAP_XHG_ST7" d="M217.9,502.5c-2.3-5.5-4.7-11-7-16.6c-2.2-5.1-4.4-10.4-7.9-14.8c-7-8.9-18-13.5-28.7-17.2
	c-4.8-1.7-8.7-4.7-12.6-8c-8.5-7.2-15.5-16.3-20.8-26.2c-3.2-5.9-5.8-12-7.7-18.4"/>
<path id="MAP_XHG_XMLID_124_" class="MAP_XHG_ST7" d="M118.6,485.2c6.5-6.1,12.9-12.2,19.4-18.2c2.5-2.3,5-4.7,8-6.2c3.4-1.8,7.3-2.5,11.1-3
	c7.3-0.9,14.7-1.3,22.1-1.1"/>
<path id="MAP_XHG_XMLID_123_" class="MAP_XHG_ST7" d="M455,604c-18.7-0.3-37.4,7.3-50.6,20.4c-3.5,3.5-6.6,7.3-9,11.7c-2.2,4.2-3.7,8.8-6,12.9
	c-3.7,6.7-9.7,12.2-16.7,15.3c-4.3,1.9-9,3-13.3,4.9c-4.3,1.9-8.5,4.9-10.2,9.3c-1.1,2.9-1.1,6.1-1,9.2c0.1,6.5,0.2,12.9,0.4,19.4
	c0.1,4.2,0.2,8.5-0.7,12.7c-1.3,6.3-4.9,12.1-9.9,16.2"/>
<path id="MAP_XHG_XMLID_122_" class="MAP_XHG_ST7" d="M311.9,561.5c14.6,0.5,29.2,0.9,43.7,1.4c4.5,0.1,9.2,0.3,13.4,2.1c6.5,2.8,10.9,9.1,17.3,12.2
	c7.6,3.6,16.4,2.1,24.8,1.3c2.1-0.2,4.2-0.4,6.1,0.3c4.1,1.5,6.1,6,8.1,10c4.1,8.1,10.3,15.1,17.8,20.1"/>
<path id="MAP_XHG_XMLID_121_" class="MAP_XHG_ST7" d="M587.1,514.3c-14.5-6.6-31.3-1.8-47.2-3.2c-22-1.9-43.4-15.8-64.8-10.2c-2.5,0.7-5,1.6-7.5,1.3
	c-4.6-0.5-7.9-4.7-9.9-9c-1.9-4.2-3.1-9-6.2-12.5c-4.4-5-11.5-6.4-17.7-8.8c-10-3.8-18.4-10.9-26-18.3c-6.8-6.6-13.3-13.9-17-22.7
	c-4.2-10.2-4.2-21.5-4.2-32.5c0-7.8,0.1-15.6,2.1-23.1c1.2-4.3,3-8.4,3.3-12.8c0.3-4-0.7-8.1-2.7-11.5c-0.8-1.4-1.8-2.7-2.2-4.2
	c-0.8-3.2,1.1-6.4,2.9-9.2c7.3-10.8,15.5-22.1,15.8-35.1"/>
<path id="MAP_XHG_XMLID_120_" class="MAP_XHG_ST7" d="M453,483.1c-23.1-0.7-46.2-0.4-69.2,1.1c-8.3,0.5-16.7,1.2-24.8,3.2"/>
<g id="MAP_XHG_XMLID_26_">
	<g id="MAP_XHG_XMLID_30_">
		<g id="MAP_XHG_XMLID_85_">
			<rect id="MAP_XHG_XMLID_95_" x="2812.5" y="569.8" class="MAP_XHG_ST8" width="149.2" height="38"/>
			<g id="MAP_XHG_XMLID_86_">
				<polyline id="MAP_XHG_XMLID_94_" class="MAP_XHG_ST9" points="2811.1,589.7 2811.1,567.2 2832.8,567.2 				"/>
				<polyline id="MAP_XHG_XMLID_93_" class="MAP_XHG_ST9" points="2818.4,605.2 2811.1,605.2 2811.1,595.3 				"/>
				<line id="MAP_XHG_XMLID_92_" class="MAP_XHG_ST9" x1="2872.8" y1="605.2" x2="2824.7" y2="605.2"/>
				<line id="MAP_XHG_XMLID_91_" class="MAP_XHG_ST9" x1="2931.4" y1="605.2" x2="2913.5" y2="605.2"/>
				<polyline id="MAP_XHG_XMLID_90_" class="MAP_XHG_ST9" points="2960.2,581.1 2960.2,605.2 2938.7,605.2 				"/>
				<polyline id="MAP_XHG_XMLID_89_" class="MAP_XHG_ST9" points="2945.1,567.2 2960.2,567.2 2960.2,576.3 				"/>
				<line id="MAP_XHG_XMLID_88_" class="MAP_XHG_ST9" x1="2875.6" y1="567.2" x2="2939.5" y2="567.2"/>
				<line id="MAP_XHG_XMLID_87_" class="MAP_XHG_ST9" x1="2838.1" y1="567.2" x2="2845.7" y2="567.2"/>
			</g>
		</g>
		<text id="MAP_XHG_XMLID_79_" transform="matrix(1 0 0 1 2855.0608 594.8015)" class="MAP_XHG_ST10 MAP_XHG_ST11" style="font-size:20.8844px;">固原市</text>
	</g>
	<circle id="MAP_XHG_XMLID_27_" class="MAP_XHG_ST10" cx="2791.6" cy="584.5" r="8.3"/>
</g>
<text id="MAP_XHG_XMLID_119_" transform="matrix(1 0 0 1 171.9183 222.2188)" class="MAP_XHG_ST10 MAP_XHG_ST11 MAP_XHG_ST12">海源县</text>
<text id="MAP_XHG_XMLID_118_" transform="matrix(1 0 0 1 368.5994 596.7969)" class="MAP_XHG_ST10 MAP_XHG_ST11 MAP_XHG_ST12">泾源县</text>
<text id="MAP_XHG_XMLID_117_" transform="matrix(1 0 0 1 468.5739 444.4773)" class="MAP_XHG_ST10 MAP_XHG_ST11 MAP_XHG_ST12">彭阳县</text>
<text id="MAP_XHG_XMLID_116_" transform="matrix(1 0 0 1 324.2928 326.3553)" class="MAP_XHG_ST10 MAP_XHG_ST11 MAP_XHG_ST12">原州区</text>
<text id="MAP_XHG_XMLID_115_" transform="matrix(1 0 0 1 144.5901 426.5527)" class="MAP_XHG_ST10 MAP_XHG_ST11 MAP_XHG_ST12">西吉县</text>
<text id="MAP_XHG_XMLID_114_" transform="matrix(1 0 0 1 270.6241 561.8992)" class="MAP_XHG_ST10 MAP_XHG_ST11 MAP_XHG_ST12">隆德县</text>
<circle id="MAP_XHG_XMLID_111_" class="MAP_XHG_ST10" cx="198.3" cy="232.6" r="3"/>
<circle id="MAP_XHG_XMLID_108_" class="MAP_XHG_ST10" cx="136.2" cy="419.2" r="3"/>
<circle id="MAP_XHG_XMLID_105_" class="MAP_XHG_ST10" cx="301.1" cy="538.5" r="3"/>
<circle id="MAP_XHG_XMLID_102_" class="MAP_XHG_ST10" cx="394.5" cy="608.8" r="3"/>
<circle id="MAP_XHG_XMLID_13_" class="MAP_XHG_ST10" cx="495.2" cy="455" r="3"/>
<circle id="MAP_XHG_XMLID_10_" class="MAP_XHG_ST10" cx="350.2" cy="338.2" r="3"/>
<path id="MAP_XHG_XMLID_9_" class="MAP_XHG_ST13" d="M355.4,649.3"/>
<path id="MAP_XHG_XMLID_8_" class="MAP_XHG_ST14" d="M241.9,38.5c24.1,35.1,37.3,56.2,46.2,145.8c0.8,8.3,1.6,15.8,1.6,20.6
	c0.1,6.9,0.5,13.9,0.5,20.9c1.4,7,2.9,14,4.7,21c10.4,41.8,26.6,82.7,39.4,126.1c1.1,6.2,2.2,12.3,3.3,18.4
	c1.1,6.1,2.1,12.3,3.2,18.4c0.4,5.4,0.6,10.9,0.4,16.5c-0.2,5.6-0.8,11.2-1.8,17c0,2,8.2,2,8.2,4.1c0,18.3-16.3,34.7-12.2,51
	c6.1,14.3-8.2,34.7,18.1,45.3c4.3,3.6,2.5,10.6,0.2,15.8c4.4,0.5,9.1,1.7,11.8,5.2c2.7,3.5,2.2,9.6-2,11.2c5,4.2,13,1.5,18.8,4.5
	c3.4,1.8,5.6,5.3,7.6,8.6"/>
<g id="MAP_XHG_XMLID_51_">
	<path id="MAP_XHG_XMLID_57_" class="MAP_XHG_ST15" d="M2798.6,478c4.7-5.8,7.5-13.3,7.5-21.4c0-18.8-15.3-34.1-34.1-34.1
		c-18.8,0-34.1,15.3-34.1,34.1c0,8.1,2.8,15.5,7.5,21.4l0,0l0,0c1.5,1.9,26.5,26.5,26.5,26.5S2797,479.9,2798.6,478L2798.6,478
		L2798.6,478z"/>
	<path id="MAP_XHG_XMLID_52_" class="MAP_XHG_ST16" d="M2782.9,460c-0.3-1.8-0.9-2.9-1.8-4.5c-0.8-1.3-2.3-2.9-3.4-3.8c-0.9-0.7-1.9-1.3-2.7-2h0.2
		l0.7,0c0.6,0,1.2,0,1.8,0c0.7-0.1,2.4-0.4,2.9-1.5c0.4-0.7,0.1-1.1-0.1-1.3c-0.4-0.3-1.2-0.3-2.2-0.1c0.4-0.3,0.7-0.6,0.7-0.9
		c0-0.1,0-0.1,0-0.2c0-0.2-0.1-0.3-0.2-0.5l-0.1-0.1l-0.2,0c-0.3,0-0.5,0-0.8,0c-0.6,0.1-1-0.6-0.7-1.1c0.4-0.5,0.7-0.9,0.9-1.3
		c0.2-0.4,0-1-0.5-1c-1.1-0.1-2.2-0.4-3.2-1c-1.1-0.7-1.7-1.3-3.1-1c-1.2,0.2-2.5,0.8-3.7,1.1c-1.2,0.3-2.2,0-3.3,0
		c-0.4,0-0.7,0.4-0.7,0.7c0.2,1.9,2.1,3.7,3.1,5.4c0.2,0.4,0,0.9-0.4,1c-0.1,0-0.2,0.1-0.3,0.1c0,0,0,0,0,0
		c-0.3,0.1-0.5,0.2-0.6,0.3l-0.2,0.2l0.2,0.3c0.2,0.3,0.6,0.5,1.1,0.6c-1.1,0.7-2.3,1.4-3.3,2.2c-1.1,1-2.9,3-3.9,4.2
		c-1.6,2-2.6,4.7-2.1,7.2c0.9,4.8,6.5,6.4,10.9,6.4c4.8,0,11,0.7,14.2-3.3C2783.6,464.5,2783.2,462,2782.9,460z M2780,447.5
		c0,0,0,0.1-0.1,0.3c-0.3,0.6-1.4,0.9-2.3,1.1c-0.5,0.1-1.1,0.1-1.7,0l-0.6,0v-0.1C2776.9,448,2779.6,447.2,2780,447.5z M2778.2,446
		c-0.4,0.4-1.5,1.1-2.2,1.4c-0.3,0.2-0.7,0.4-1,0.5l0,0C2775.7,447,2777.2,446,2778.2,446z M2775.1,460.3L2775.1,460.3
		c0,0.4-0.3,0.7-0.7,0.7h-2.4v0.8v1.4v1.6c0,0.4-0.3,0.7-0.7,0.7h-1.2c-0.4,0-0.7-0.3-0.7-0.7v-1.6v-1.4V461h-1.7
		c-0.4,0-0.7-0.3-0.7-0.7l0,0c0-0.4,0.3-0.7,0.7-0.7h1.7V459l-2.6-3.8c-0.3-0.5,0-1.1,0.6-1.1h1.2c0.2,0,0.5,0.1,0.6,0.3l0.9,1.5
		c0.3,0.4,0.9,0.5,1.2,0l0.9-1.5c0.1-0.2,0.4-0.3,0.6-0.3h1.2c0.6,0,0.9,0.6,0.6,1.1l-2.6,3.8v0.5h2.4
		C2774.8,459.6,2775.1,459.9,2775.1,460.3z"/>
</g>
<g id="MAP_XHG_XMLID_58_">
	<path id="MAP_XHG_XMLID_64_" class="MAP_XHG_ST15" d="M1741.6,611c4.7-5.8,7.5-13.3,7.5-21.4c0-18.8-15.3-34.1-34.1-34.1
		c-18.8,0-34.1,15.3-34.1,34.1c0,8.1,2.8,15.5,7.5,21.4l0,0l0,0c1.5,1.9,26.5,26.5,26.5,26.5S1740,612.9,1741.6,611L1741.6,611
		L1741.6,611z"/>
	<path id="MAP_XHG_XMLID_59_" class="MAP_XHG_ST16" d="M1725.9,593c-0.3-1.8-0.9-2.9-1.8-4.5c-0.8-1.3-2.3-2.9-3.4-3.8c-0.9-0.7-1.9-1.3-2.7-2h0.2
		l0.7,0c0.6,0,1.2,0,1.8,0c0.7-0.1,2.4-0.4,2.9-1.5c0.4-0.7,0.1-1.1-0.1-1.3c-0.4-0.3-1.2-0.3-2.2-0.1c0.4-0.3,0.7-0.6,0.7-0.9
		c0-0.1,0-0.1,0-0.2c0-0.2-0.1-0.3-0.2-0.5l-0.1-0.1l-0.2,0c-0.3,0-0.5,0-0.8,0c-0.6,0.1-1-0.6-0.7-1.1c0.4-0.5,0.7-0.9,0.9-1.3
		c0.2-0.4,0-1-0.5-1c-1.1-0.1-2.2-0.4-3.2-1c-1.1-0.7-1.7-1.3-3.1-1c-1.2,0.2-2.5,0.8-3.7,1.1c-1.2,0.3-2.2,0-3.3,0
		c-0.4,0-0.7,0.4-0.7,0.7c0.2,1.9,2.1,3.7,3.1,5.4c0.2,0.4,0,0.9-0.4,1c-0.1,0-0.2,0.1-0.3,0.1c0,0,0,0,0,0
		c-0.3,0.1-0.5,0.2-0.6,0.3l-0.2,0.2l0.2,0.3c0.2,0.3,0.6,0.5,1.1,0.6c-1.1,0.7-2.3,1.4-3.3,2.2c-1.1,1-2.9,3-3.9,4.2
		c-1.6,2-2.6,4.7-2.1,7.2c0.9,4.8,6.5,6.4,10.9,6.4c4.8,0,11,0.7,14.2-3.3C1726.6,597.5,1726.2,595,1725.9,593z M1723,580.5
		c0,0,0,0.1-0.1,0.3c-0.3,0.6-1.4,0.9-2.3,1.1c-0.5,0.1-1.1,0.1-1.7,0l-0.6,0v-0.1C1719.9,581,1722.6,580.2,1723,580.5z M1721.2,579
		c-0.4,0.4-1.5,1.1-2.2,1.4c-0.3,0.2-0.7,0.4-1,0.5l0,0C1718.7,580,1720.2,579,1721.2,579z M1718.1,593.3L1718.1,593.3
		c0,0.4-0.3,0.7-0.7,0.7h-2.4v0.8v1.4v1.6c0,0.4-0.3,0.7-0.7,0.7h-1.2c-0.4,0-0.7-0.3-0.7-0.7v-1.6v-1.4V594h-1.7
		c-0.4,0-0.7-0.3-0.7-0.7l0,0c0-0.4,0.3-0.7,0.7-0.7h1.7V592l-2.6-3.8c-0.3-0.5,0-1.1,0.6-1.1h1.2c0.2,0,0.5,0.1,0.6,0.3l0.9,1.5
		c0.3,0.4,0.9,0.5,1.2,0l0.9-1.5c0.1-0.2,0.4-0.3,0.6-0.3h1.2c0.6,0,0.9,0.6,0.6,1.1l-2.6,3.8v0.5h2.4
		C1717.8,592.6,1718.1,592.9,1718.1,593.3z"/>
</g>
<g id="MAP_XHG_XMLID_2_">
	<path id="MAP_XHG_XMLID_42_" class="MAP_XHG_ST15" d="M2769.6,515c4.7-5.8,7.5-13.3,7.5-21.4c0-18.8-15.3-34.1-34.1-34.1
		c-18.8,0-34.1,15.3-34.1,34.1c0,8.1,2.8,15.5,7.5,21.4l0,0l0,0c1.5,1.9,26.5,26.5,26.5,26.5S2768,516.9,2769.6,515L2769.6,515
		L2769.6,515z"/>
	<path id="MAP_XHG_XMLID_3_" class="MAP_XHG_ST16" d="M2753.9,497c-0.3-1.8-0.9-2.9-1.8-4.5c-0.8-1.3-2.3-2.9-3.4-3.8c-0.9-0.7-1.9-1.3-2.7-2h0.2
		l0.7,0c0.6,0,1.2,0,1.8,0c0.7-0.1,2.4-0.4,2.9-1.5c0.4-0.7,0.1-1.1-0.1-1.3c-0.4-0.3-1.2-0.3-2.2-0.1c0.4-0.3,0.7-0.6,0.7-0.9
		c0-0.1,0-0.1,0-0.2c0-0.2-0.1-0.3-0.2-0.5l-0.1-0.1l-0.2,0c-0.3,0-0.5,0-0.8,0c-0.6,0.1-1-0.6-0.7-1.1c0.4-0.5,0.7-0.9,0.9-1.3
		c0.2-0.4,0-1-0.5-1c-1.1-0.1-2.2-0.4-3.2-1c-1.1-0.7-1.7-1.3-3.1-1c-1.2,0.2-2.5,0.8-3.7,1.1c-1.2,0.3-2.2,0-3.3,0
		c-0.4,0-0.7,0.4-0.7,0.7c0.2,1.9,2.1,3.7,3.1,5.4c0.2,0.4,0,0.9-0.4,1c-0.1,0-0.2,0.1-0.3,0.1c0,0,0,0,0,0
		c-0.3,0.1-0.5,0.2-0.6,0.3l-0.2,0.2l0.2,0.3c0.2,0.3,0.6,0.5,1.1,0.6c-1.1,0.7-2.3,1.4-3.3,2.2c-1.1,1-2.9,3-3.9,4.2
		c-1.6,2-2.6,4.7-2.1,7.2c0.9,4.8,6.5,6.4,10.9,6.4c4.8,0,11,0.7,14.2-3.3C2754.6,501.5,2754.2,499,2753.9,497z M2751,484.5
		c0,0,0,0.1-0.1,0.3c-0.3,0.6-1.4,0.9-2.3,1.1c-0.5,0.1-1.1,0.1-1.7,0l-0.6,0v-0.1C2747.9,485,2750.6,484.2,2751,484.5z M2749.2,483
		c-0.4,0.4-1.5,1.1-2.2,1.4c-0.3,0.2-0.7,0.4-1,0.5l0,0C2746.7,484,2748.2,483,2749.2,483z M2746.1,497.3L2746.1,497.3
		c0,0.4-0.3,0.7-0.7,0.7h-2.4v0.8v1.4v1.6c0,0.4-0.3,0.7-0.7,0.7h-1.2c-0.4,0-0.7-0.3-0.7-0.7v-1.6v-1.4V498h-1.7
		c-0.4,0-0.7-0.3-0.7-0.7l0,0c0-0.4,0.3-0.7,0.7-0.7h1.7V496l-2.6-3.8c-0.3-0.5,0-1.1,0.6-1.1h1.2c0.2,0,0.5,0.1,0.6,0.3l0.9,1.5
		c0.3,0.4,0.9,0.5,1.2,0l0.9-1.5c0.1-0.2,0.4-0.3,0.6-0.3h1.2c0.6,0,0.9,0.6,0.6,1.1l-2.6,3.8v0.5h2.4
		C2745.8,496.6,2746.1,496.9,2746.1,497.3z"/>
</g>
<g id="MAP_XHG_XMLID_44_">
	<path id="MAP_XHG_XMLID_50_" class="MAP_XHG_ST15" d="M2764.6,620c4.7-5.8,7.5-13.3,7.5-21.4c0-18.8-15.3-34.1-34.1-34.1
		c-18.8,0-34.1,15.3-34.1,34.1c0,8.1,2.8,15.5,7.5,21.4l0,0l0,0c1.5,1.9,26.5,26.5,26.5,26.5S2763,621.9,2764.6,620L2764.6,620
		L2764.6,620z"/>
	<path id="MAP_XHG_XMLID_45_" class="MAP_XHG_ST16" d="M2748.9,602c-0.3-1.8-0.9-2.9-1.8-4.5c-0.8-1.3-2.3-2.9-3.4-3.8c-0.9-0.7-1.9-1.3-2.7-2h0.2
		l0.7,0c0.6,0,1.2,0,1.8,0c0.7-0.1,2.4-0.4,2.9-1.5c0.4-0.7,0.1-1.1-0.1-1.3c-0.4-0.3-1.2-0.3-2.2-0.1c0.4-0.3,0.7-0.6,0.7-0.9
		c0-0.1,0-0.1,0-0.2c0-0.2-0.1-0.3-0.2-0.5l-0.1-0.1l-0.2,0c-0.3,0-0.5,0-0.8,0c-0.6,0.1-1-0.6-0.7-1.1c0.4-0.5,0.7-0.9,0.9-1.3
		c0.2-0.4,0-1-0.5-1c-1.1-0.1-2.2-0.4-3.2-1c-1.1-0.7-1.7-1.3-3.1-1c-1.2,0.2-2.5,0.8-3.7,1.1c-1.2,0.3-2.2,0-3.3,0
		c-0.4,0-0.7,0.4-0.7,0.7c0.2,1.9,2.1,3.7,3.1,5.4c0.2,0.4,0,0.9-0.4,1c-0.1,0-0.2,0.1-0.3,0.1c0,0,0,0,0,0
		c-0.3,0.1-0.5,0.2-0.6,0.3l-0.2,0.2l0.2,0.3c0.2,0.3,0.6,0.5,1.1,0.6c-1.1,0.7-2.3,1.4-3.3,2.2c-1.1,1-2.9,3-3.9,4.2
		c-1.6,2-2.6,4.7-2.1,7.2c0.9,4.8,6.5,6.4,10.9,6.4c4.8,0,11,0.7,14.2-3.3C2749.6,606.5,2749.2,604,2748.9,602z M2746,589.5
		c0,0,0,0.1-0.1,0.3c-0.3,0.6-1.4,0.9-2.3,1.1c-0.5,0.1-1.1,0.1-1.7,0l-0.6,0v-0.1C2742.9,590,2745.6,589.2,2746,589.5z M2744.2,588
		c-0.4,0.4-1.5,1.1-2.2,1.4c-0.3,0.2-0.7,0.4-1,0.5l0,0C2741.7,589,2743.2,588,2744.2,588z M2741.1,602.3L2741.1,602.3
		c0,0.4-0.3,0.7-0.7,0.7h-2.4v0.8v1.4v1.6c0,0.4-0.3,0.7-0.7,0.7h-1.2c-0.4,0-0.7-0.3-0.7-0.7v-1.6v-1.4V603h-1.7
		c-0.4,0-0.7-0.3-0.7-0.7l0,0c0-0.4,0.3-0.7,0.7-0.7h1.7V601l-2.6-3.8c-0.3-0.5,0-1.1,0.6-1.1h1.2c0.2,0,0.5,0.1,0.6,0.3l0.9,1.5
		c0.3,0.4,0.9,0.5,1.2,0l0.9-1.5c0.1-0.2,0.4-0.3,0.6-0.3h1.2c0.6,0,0.9,0.6,0.6,1.1l-2.6,3.8v0.5h2.4
		C2740.8,601.6,2741.1,601.9,2741.1,602.3z"/>
</g>
<g id="MAP_XHG_XMLID_65_">
	<path id="MAP_XHG_XMLID_71_" class="MAP_XHG_ST15" d="M2701.6,1054c4.7-5.8,7.5-13.3,7.5-21.4c0-18.8-15.3-34.1-34.1-34.1
		c-18.8,0-34.1,15.3-34.1,34.1c0,8.1,2.8,15.5,7.5,21.4l0,0l0,0c1.5,1.9,26.5,26.5,26.5,26.5S2700,1055.9,2701.6,1054L2701.6,1054
		L2701.6,1054z"/>
	<path id="MAP_XHG_XMLID_66_" class="MAP_XHG_ST16" d="M2685.9,1036c-0.3-1.8-0.9-2.9-1.8-4.5c-0.8-1.3-2.3-2.9-3.4-3.8c-0.9-0.7-1.9-1.3-2.7-2h0.2
		l0.7,0c0.6,0,1.2,0,1.8,0c0.7-0.1,2.4-0.4,2.9-1.5c0.4-0.7,0.1-1.1-0.1-1.3c-0.4-0.3-1.2-0.3-2.2-0.1c0.4-0.3,0.7-0.6,0.7-0.9
		c0-0.1,0-0.1,0-0.2c0-0.2-0.1-0.3-0.2-0.5l-0.1-0.1l-0.2,0c-0.3,0-0.5,0-0.8,0c-0.6,0.1-1-0.6-0.7-1.1c0.4-0.5,0.7-0.9,0.9-1.3
		c0.2-0.4,0-1-0.5-1c-1.1-0.1-2.2-0.4-3.2-1c-1.1-0.7-1.7-1.3-3.1-1c-1.2,0.2-2.5,0.8-3.7,1.1c-1.2,0.3-2.2,0-3.3,0
		c-0.4,0-0.7,0.4-0.7,0.7c0.2,1.9,2.1,3.7,3.1,5.4c0.2,0.4,0,0.9-0.4,1c-0.1,0-0.2,0.1-0.3,0.1c0,0,0,0,0,0
		c-0.3,0.1-0.5,0.2-0.6,0.3l-0.2,0.2l0.2,0.3c0.2,0.3,0.6,0.5,1.1,0.6c-1.1,0.7-2.3,1.4-3.3,2.2c-1.1,1-2.9,3-3.9,4.2
		c-1.6,2-2.6,4.7-2.1,7.2c0.9,4.8,6.5,6.4,10.9,6.4c4.8,0,11,0.7,14.2-3.3C2686.6,1040.5,2686.2,1038,2685.9,1036z M2683,1023.5
		c0,0,0,0.1-0.1,0.3c-0.3,0.6-1.4,0.9-2.3,1.1c-0.5,0.1-1.1,0.1-1.7,0l-0.6,0v-0.1C2679.9,1024,2682.6,1023.2,2683,1023.5z
		 M2681.2,1022c-0.4,0.4-1.5,1.1-2.2,1.4c-0.3,0.2-0.7,0.4-1,0.5l0,0C2678.7,1023,2680.2,1022,2681.2,1022z M2678.1,1036.3
		L2678.1,1036.3c0,0.4-0.3,0.7-0.7,0.7h-2.4v0.8v1.4v1.6c0,0.4-0.3,0.7-0.7,0.7h-1.2c-0.4,0-0.7-0.3-0.7-0.7v-1.6v-1.4v-0.8h-1.7
		c-0.4,0-0.7-0.3-0.7-0.7l0,0c0-0.4,0.3-0.7,0.7-0.7h1.7v-0.5l-2.6-3.8c-0.3-0.5,0-1.1,0.6-1.1h1.2c0.2,0,0.5,0.1,0.6,0.3l0.9,1.5
		c0.3,0.4,0.9,0.5,1.2,0l0.9-1.5c0.1-0.2,0.4-0.3,0.6-0.3h1.2c0.6,0,0.9,0.6,0.6,1.1l-2.6,3.8v0.5h2.4
		C2677.8,1035.6,2678.1,1035.9,2678.1,1036.3z"/>
</g>
<g id="MAP_XHG_XMLID_72_">
	<path id="MAP_XHG_XMLID_78_" class="MAP_XHG_ST15" d="M2696.6,776c4.7-5.8,7.5-13.3,7.5-21.4c0-18.8-15.3-34.1-34.1-34.1
		c-18.8,0-34.1,15.3-34.1,34.1c0,8.1,2.8,15.5,7.5,21.4l0,0l0,0c1.5,1.9,26.5,26.5,26.5,26.5S2695,777.9,2696.6,776L2696.6,776
		L2696.6,776z"/>
	<path id="MAP_XHG_XMLID_73_" class="MAP_XHG_ST16" d="M2680.9,758c-0.3-1.8-0.9-2.9-1.8-4.5c-0.8-1.3-2.3-2.9-3.4-3.8c-0.9-0.7-1.9-1.3-2.7-2h0.2
		l0.7,0c0.6,0,1.2,0,1.8,0c0.7-0.1,2.4-0.4,2.9-1.5c0.4-0.7,0.1-1.1-0.1-1.3c-0.4-0.3-1.2-0.3-2.2-0.1c0.4-0.3,0.7-0.6,0.7-0.9
		c0-0.1,0-0.1,0-0.2c0-0.2-0.1-0.3-0.2-0.5l-0.1-0.1l-0.2,0c-0.3,0-0.5,0-0.8,0c-0.6,0.1-1-0.6-0.7-1.1c0.4-0.5,0.7-0.9,0.9-1.3
		c0.2-0.4,0-1-0.5-1c-1.1-0.1-2.2-0.4-3.2-1c-1.1-0.7-1.7-1.3-3.1-1c-1.2,0.2-2.5,0.8-3.7,1.1c-1.2,0.3-2.2,0-3.3,0
		c-0.4,0-0.7,0.4-0.7,0.7c0.2,1.9,2.1,3.7,3.1,5.4c0.2,0.4,0,0.9-0.4,1c-0.1,0-0.2,0.1-0.3,0.1c0,0,0,0,0,0
		c-0.3,0.1-0.5,0.2-0.6,0.3l-0.2,0.2l0.2,0.3c0.2,0.3,0.6,0.5,1.1,0.6c-1.1,0.7-2.3,1.4-3.3,2.2c-1.1,1-2.9,3-3.9,4.2
		c-1.6,2-2.6,4.7-2.1,7.2c0.9,4.8,6.5,6.4,10.9,6.4c4.8,0,11,0.7,14.2-3.3C2681.6,762.5,2681.2,760,2680.9,758z M2678,745.5
		c0,0,0,0.1-0.1,0.3c-0.3,0.6-1.4,0.9-2.3,1.1c-0.5,0.1-1.1,0.1-1.7,0l-0.6,0v-0.1C2674.9,746,2677.6,745.2,2678,745.5z M2676.2,744
		c-0.4,0.4-1.5,1.1-2.2,1.4c-0.3,0.2-0.7,0.4-1,0.5l0,0C2673.7,745,2675.2,744,2676.2,744z M2673.1,758.3L2673.1,758.3
		c0,0.4-0.3,0.7-0.7,0.7h-2.4v0.8v1.4v1.6c0,0.4-0.3,0.7-0.7,0.7h-1.2c-0.4,0-0.7-0.3-0.7-0.7v-1.6v-1.4V759h-1.7
		c-0.4,0-0.7-0.3-0.7-0.7l0,0c0-0.4,0.3-0.7,0.7-0.7h1.7V757l-2.6-3.8c-0.3-0.5,0-1.1,0.6-1.1h1.2c0.2,0,0.5,0.1,0.6,0.3l0.9,1.5
		c0.3,0.4,0.9,0.5,1.2,0l0.9-1.5c0.1-0.2,0.4-0.3,0.6-0.3h1.2c0.6,0,0.9,0.6,0.6,1.1l-2.6,3.8v0.5h2.4
		C2672.8,757.6,2673.1,757.9,2673.1,758.3z"/>
</g>
</svg>
