<?xml version="1.0" encoding="utf-8"?>
<!-- Generator: Adobe Illustrator 19.0.0, SVG Export Plug-In . SVG Version: 6.00 Build 0)  -->
<svg version="1.1" id="图层_1" xmlns="http://www.w3.org/2000/svg" xmlns:xlink="http://www.w3.org/1999/xlink" x="0px" y="0px"
	 viewBox="0 0 558.8 861.2" style="enable-background:new 0 0 558.8 861.2;" xml:space="preserve">
<style type="text/css">
	.MAP_NX_ST0{opacity:0.45;fill:#1E3580;}
	.MAP_NX_ST1{fill:none;stroke:#FEAB01;stroke-miterlimit:10;}
	.MAP_NX_ST2{fill:none;stroke:#FEAB01;stroke-miterlimit:10;stroke-dasharray:1.1944,1.1944,1.1944,1.1944;}
	.MAP_NX_ST3{fill:none;stroke:#FEAB01;stroke-miterlimit:10;stroke-dasharray:2.8682,2.8682,2.8682,2.8682;}
	.MAP_NX_ST4{fill:none;stroke:#FEAB01;stroke-miterlimit:10;stroke-dasharray:4.4551,4.4551,4.4551,4.4551;}
	.MAP_NX_ST5{fill:none;stroke:#FEAB01;stroke-miterlimit:10;stroke-dasharray:0.7346,0.7346,0.7346,0.7346;}
	.MAP_NX_ST6{fill:none;stroke:#FEAB01;stroke-miterlimit:10;stroke-dasharray:7.1353,7.1353,7.1353,7.1353;}
	.MAP_NX_ST7{fill:none;stroke:#FEAB01;stroke-miterlimit:10;stroke-dasharray:1.0559,1.0559,1.0559,1.0559;}
	.MAP_NX_ST8{fill:none;stroke:#FEAB01;stroke-miterlimit:10;stroke-dasharray:1.5803,1.5803,1.5803,1.5803;}
	.MAP_NX_ST9{fill:none;stroke:#FEAB01;stroke-miterlimit:10;stroke-dasharray:0.5981,0.5981,0.5981,0.5981;}
	.MAP_NX_ST10{fill:none;stroke:#FEAB01;stroke-miterlimit:10;stroke-dasharray:0.1284,0.1284,0.1284,0.1284;}
	.MAP_NX_ST11{fill:none;stroke:#FEAB01;stroke-miterlimit:10;stroke-dasharray:2.1467,2.1467,2.1467,2.1467;}
	.MAP_NX_ST12{fill:none;stroke:#FEAB01;stroke-miterlimit:10;stroke-dasharray:1.6475,1.6475,1.6475,1.6475;}
	.MAP_NX_ST13{fill:none;stroke:#FEAB01;stroke-miterlimit:10;stroke-dasharray:0.4877,0.4877,0.4877,0.4877;}
	.MAP_NX_ST14{fill:none;stroke:#FEAB01;stroke-miterlimit:10;stroke-dasharray:0.2647,0.2647,0.2647,0.2647;}
	.MAP_NX_ST15{fill:none;stroke:#FEAB01;stroke-miterlimit:10;stroke-dasharray:2.919194e-002,2.919194e-002,2.919194e-002,2.919194e-002;}
	.MAP_NX_ST16{fill:none;stroke:#FEAB01;stroke-miterlimit:10;stroke-dasharray:2.4714,2.4714,2.4714,2.4714;}
	.MAP_NX_ST17{fill:none;stroke:#FEAB01;stroke-miterlimit:10;stroke-dasharray:2.108,2.108,2.108,2.108;}
	.MAP_NX_ST18{fill:none;stroke:#FEAB01;stroke-miterlimit:10;stroke-dasharray:0.2815,0.2815,0.2815,0.2815;}
	.MAP_NX_ST19{fill:none;stroke:#FEAB01;stroke-miterlimit:10;stroke-dasharray:3.0461,3.0461,3.0461,3.0461;}
	.MAP_NX_ST20{fill:none;stroke:#FEAB01;stroke-miterlimit:10;stroke-dasharray:0.3564,0.3564,0.3564,0.3564;}
	.MAP_NX_ST21{fill:none;stroke:#FEAB01;stroke-miterlimit:10;stroke-dasharray:1.354,1.354,1.354,1.354;}
	.MAP_NX_ST22{fill:none;stroke:#FEAB01;stroke-miterlimit:10;stroke-dasharray:1.9783,1.9783,1.9783,1.9783;}
	.MAP_NX_ST23{fill:none;stroke:#FEAB01;stroke-miterlimit:10;stroke-dasharray:1.618,1.618,1.618,1.618;}
	.MAP_NX_ST24{fill:none;stroke:#FEAB01;stroke-miterlimit:10;stroke-dasharray:5.2554,5.2554,5.2554,5.2554;}
	.MAP_NX_ST25{fill:none;stroke:#FEAB01;stroke-miterlimit:10;stroke-dasharray:1.7497,1.7497,1.7497,1.7497;}
	.MAP_NX_ST26{fill:none;stroke:#FEAB01;stroke-miterlimit:10;stroke-dasharray:4.9531,4.9531,4.9531,4.9531;}
	.MAP_NX_ST27{fill:none;stroke:#FEAB01;stroke-miterlimit:10;stroke-dasharray:2.3948,2.3948,2.3948,2.3948;}
	.MAP_NX_ST28{fill:none;stroke:#FEAB01;stroke-miterlimit:10;stroke-dasharray:5.3495,5.3495,5.3495,5.3495;}
	.MAP_NX_ST29{fill:none;stroke:#FEAB01;stroke-miterlimit:10;stroke-dasharray:0.7559,0.7559,0.7559,0.7559;}
	.MAP_NX_ST30{fill:none;stroke:#FEAB01;stroke-miterlimit:10;stroke-dasharray:10.0567,10.0567,10.0567,10.0567;}
	.MAP_NX_ST31{fill:none;stroke:#FEAB01;stroke-miterlimit:10;stroke-dasharray:0.1501,0.1501,0.1501,0.1501;}
	.MAP_NX_ST32{fill:none;stroke:#FEAB01;stroke-miterlimit:10;stroke-dasharray:6.271,6.271,6.271,6.271;}
	.MAP_NX_ST33{fill:none;stroke:#FEAB01;stroke-miterlimit:10;stroke-dasharray:0.9512,0.9512,0.9512,0.9512;}
	.MAP_NX_ST34{fill:none;stroke:#FEAB01;stroke-miterlimit:10;stroke-dasharray:0.8998,0.8998,0.8998,0.8998;}
	.MAP_NX_ST35{fill:none;stroke:#FEAB01;stroke-miterlimit:10;stroke-dasharray:0.2915,0.2915,0.2915,0.2915;}
	.MAP_NX_ST36{fill:none;stroke:#FEAB01;stroke-miterlimit:10;stroke-dasharray:2.2098,2.2098,2.2098,2.2098;}
	.MAP_NX_ST37{fill:none;stroke:#FEAB01;stroke-miterlimit:10;stroke-dasharray:7.661,7.661,7.661,7.661;}
	.MAP_NX_ST38{fill:none;stroke:#FEAB01;stroke-miterlimit:10;stroke-dasharray:1.4555,1.4555,1.4555,1.4555;}
	.MAP_NX_ST39{fill:none;stroke:#FEAB01;stroke-miterlimit:10;stroke-dasharray:0.6844,0.6844,0.6844,0.6844;}
	.MAP_NX_ST40{fill:none;stroke:#FEAB01;stroke-miterlimit:10;stroke-dasharray:0.5198,0.5198,0.5198,0.5198;}
	.MAP_NX_ST41{fill:none;stroke:#FEAB01;stroke-miterlimit:10;stroke-dasharray:0.8311,0.8311,0.8311,0.8311;}
	.MAP_NX_ST42{fill:none;stroke:#FEAB01;stroke-miterlimit:10;stroke-dasharray:1.4599,1.4599,1.4599,1.4599;}
	.MAP_NX_ST43{fill:none;stroke:#FEAB01;stroke-miterlimit:10;stroke-dasharray:1.0642,1.0642,1.0642,1.0642;}
	.MAP_NX_ST44{fill:none;stroke:#FEAB01;stroke-miterlimit:10;stroke-dasharray:1.0789,1.0789,1.0789,1.0789;}
	.MAP_NX_ST45{fill:none;stroke:#FEAB01;stroke-miterlimit:10;stroke-dasharray:5.3483,5.3483,5.3483,5.3483;}
	.MAP_NX_ST46{fill:none;stroke:#FEAB01;stroke-miterlimit:10;stroke-dasharray:0.3383,0.3383,0.3383,0.3383;}
	.MAP_NX_ST47{fill:none;stroke:#FEAB01;stroke-miterlimit:10;stroke-dasharray:1.2934,1.2934,1.2934,1.2934;}
	.MAP_NX_ST48{fill:none;stroke:#FEAB01;stroke-miterlimit:10;stroke-dasharray:1.6975,1.6975,1.6975,1.6975;}
	.MAP_NX_ST49{fill:none;stroke:#FEAB01;stroke-miterlimit:10;stroke-dasharray:0.9338,0.9338,0.9338,0.9338;}
	.MAP_NX_ST50{fill:none;stroke:#FEAB01;stroke-miterlimit:10;stroke-dasharray:2.1118,2.1118,2.1118,2.1118;}
	.MAP_NX_ST51{fill:none;stroke:#FEAB01;stroke-miterlimit:10;stroke-dasharray:5.1354,5.1354,5.1354,5.1354;}
	.MAP_NX_ST52{fill:none;stroke:#FEAB01;stroke-miterlimit:10;stroke-dasharray:5.1354,5.1354,5.1354,5.1354,5.1354,5.1354;}
	.MAP_NX_ST53{fill:none;stroke:#FEAB01;stroke-miterlimit:10;stroke-dasharray:6.6841,6.6841,6.6841,6.6841;}
	.MAP_NX_ST54{fill:none;stroke:#FEAB01;stroke-miterlimit:10;stroke-dasharray:5.1171,5.1171,5.1171,5.1171;}
	.MAP_NX_ST55{fill:none;stroke:#FEAB01;stroke-miterlimit:10;stroke-dasharray:1.3041,1.3041,1.3041,1.3041;}
	.MAP_NX_ST56{fill:none;stroke:#FEAB01;stroke-miterlimit:10;stroke-dasharray:4.7314,4.7314,4.7314,4.7314;}
	.MAP_NX_ST57{fill:none;stroke:#FEAB01;stroke-miterlimit:10;stroke-dasharray:2.0051,2.0051,2.0051,2.0051;}
	.MAP_NX_ST58{fill:none;stroke:#FEAB01;stroke-miterlimit:10;stroke-dasharray:0.808,0.808,0.808,0.808;}
	.MAP_NX_ST59{fill:none;stroke:#FEAB01;stroke-miterlimit:10;stroke-dasharray:0.6335,0.6335,0.6335,0.6335;}
	.MAP_NX_ST60{fill:none;stroke:#FEAB01;stroke-miterlimit:10;stroke-dasharray:0.4823,0.4823,0.4823,0.4823;}
	.MAP_NX_ST61{fill:none;stroke:#FEAB01;stroke-miterlimit:10;stroke-dasharray:0.8184,0.8184,0.8184,0.8184;}
	.MAP_NX_ST62{fill:none;stroke:#FEAB01;stroke-miterlimit:10;stroke-dasharray:2.779,2.779,2.779,2.779;}
	.MAP_NX_ST63{fill:none;stroke:#FEAB01;stroke-miterlimit:10;stroke-dasharray:1.6349,1.6349,1.6349,1.6349;}
	.MAP_NX_ST64{fill:none;stroke:#FEAB01;stroke-miterlimit:10;stroke-dasharray:0.5302,0.5302,0.5302,0.5302;}
	.MAP_NX_ST65{fill:none;stroke:#FEAB01;stroke-miterlimit:10;stroke-dasharray:8.2411,8.2411,8.2411,8.2411;}
	.MAP_NX_ST66{opacity:0.45;fill:#162763;}
	.MAP_NX_ST67{fill:none;stroke:#FEAB01;stroke-miterlimit:10;stroke-dasharray:1.4371,1.4371,1.4371,1.4371;}
	.MAP_NX_ST68{fill:none;stroke:#FEAB01;stroke-miterlimit:10;stroke-dasharray:5.4088,5.4088,5.4088,5.4088;}
	.MAP_NX_ST69{fill:none;stroke:#FEAB01;stroke-miterlimit:10;stroke-dasharray:1.5584,1.5584,1.5584,1.5584;}
	.MAP_NX_ST70{fill:none;stroke:#FEAB01;stroke-miterlimit:10;stroke-dasharray:1.6755,1.6755,1.6755,1.6755;}
	.MAP_NX_ST71{fill:none;stroke:#FEAB01;stroke-miterlimit:10;stroke-dasharray:0.5524,0.5524,0.5524,0.5524;}
	.MAP_NX_ST72{fill:none;stroke:#FEAB01;stroke-miterlimit:10;stroke-dasharray:0.1415,0.1415,0.1415,0.1415;}
	.MAP_NX_ST73{fill:none;stroke:#FEAB01;stroke-miterlimit:10;stroke-dasharray:2.7369,2.7369,2.7369,2.7369;}
	.MAP_NX_ST74{fill:none;stroke:#FEAB01;stroke-miterlimit:10;stroke-dasharray:0.8041,0.8041,0.8041,0.8041;}
	.MAP_NX_ST75{fill:none;stroke:#FEAB01;stroke-miterlimit:10;stroke-dasharray:0.4466,0.4466,0.4466,0.4466;}
	.MAP_NX_ST76{fill:none;stroke:#FEAB01;stroke-miterlimit:10;stroke-dasharray:3.1915,3.1915,3.1915,3.1915;}
	.MAP_NX_ST77{fill:none;stroke:#FEAB01;stroke-miterlimit:10;stroke-dasharray:0.1165,0.1165,0.1165,0.1165;}
	.MAP_NX_ST78{fill:none;stroke:#FEAB01;stroke-miterlimit:10;stroke-dasharray:2.337,2.337,2.337,2.337;}
	.MAP_NX_ST79{fill:none;stroke:#FEAB01;stroke-miterlimit:10;stroke-dasharray:3.5566,3.5566,3.5566,3.5566;}
	.MAP_NX_ST80{fill:none;stroke:#FEAB01;stroke-miterlimit:10;stroke-dasharray:7.824516e-003,7.824516e-003,7.824516e-003,7.824516e-003;}
	.MAP_NX_ST81{fill:none;stroke:#FEAB01;stroke-miterlimit:10;stroke-dasharray:2.0552,2.0552,2.0552,2.0552;}
	.MAP_NX_ST82{fill:none;stroke:#FEAB01;stroke-miterlimit:10;stroke-dasharray:1.1013,1.1013,1.1013,1.1013;}
	.MAP_NX_ST83{fill:none;stroke:#FEAB01;stroke-miterlimit:10;stroke-dasharray:2.0945,2.0945,2.0945,2.0945;}
	.MAP_NX_ST84{fill:none;stroke:#FEAB01;stroke-miterlimit:10;stroke-dasharray:1.855,1.855,1.855,1.855;}
	.MAP_NX_ST85{fill:none;stroke:#FEAB01;stroke-miterlimit:10;stroke-dasharray:1.3754,1.3754,1.3754,1.3754;}
	.MAP_NX_ST86{fill:none;stroke:#FEAB01;stroke-miterlimit:10;stroke-dasharray:8.001239e-003,8.001239e-003,8.001239e-003,8.001239e-003;}
	.MAP_NX_ST87{fill:none;stroke:#FEAB01;stroke-miterlimit:10;stroke-dasharray:0.7777,0.7777,0.7777,0.7777;}
	.MAP_NX_ST88{fill:none;stroke:#FEAB01;stroke-miterlimit:10;stroke-dasharray:1.189,1.189,1.189,1.189;}
	.MAP_NX_ST89{fill:none;stroke:#FEAB01;stroke-miterlimit:10;stroke-dasharray:0.1141,0.1141,0.1141,0.1141;}
	.MAP_NX_ST90{fill:none;stroke:#FEAB01;stroke-miterlimit:10;stroke-dasharray:0.1982,0.1982,0.1982,0.1982;}
	.MAP_NX_ST91{fill:none;stroke:#FEAB01;stroke-miterlimit:10;stroke-dasharray:0.7124,0.7124,0.7124,0.7124;}
	.MAP_NX_ST92{fill:none;stroke:#FEAB01;stroke-miterlimit:10;stroke-dasharray:0.8224,0.8224,0.8224,0.8224;}
	.MAP_NX_ST93{fill:none;stroke:#FEAB01;stroke-miterlimit:10;stroke-dasharray:0.6296,0.6296,0.6296,0.6296;}
	.MAP_NX_ST94{fill:none;stroke:#FEAB01;stroke-miterlimit:10;stroke-dasharray:3.206,3.206,3.206,3.206;}
	.MAP_NX_ST95{fill:none;stroke:#FEAB01;stroke-miterlimit:10;stroke-dasharray:1.6869,1.6869,1.6869,1.6869;}
	.MAP_NX_ST96{fill:none;stroke:#FEAB01;stroke-miterlimit:10;stroke-dasharray:2.4807,2.4807,2.4807,2.4807;}
	.MAP_NX_ST97{fill:none;stroke:#FEAB01;stroke-miterlimit:10;stroke-dasharray:4.645079e-002,4.645079e-002,4.645079e-002,4.645079e-002;}
	.MAP_NX_ST98{fill:none;stroke:#FEAB01;stroke-miterlimit:10;stroke-dasharray:10.4362,10.4362,10.4362,10.4362;}
	.MAP_NX_ST99{fill:none;stroke:#FEAB01;stroke-miterlimit:10;stroke-dasharray:10.4362,10.4362,10.4362,10.4362,10.4362,10.4362;}
	.MAP_NX_ST100{opacity:0.45;}
	.MAP_NX_ST101{fill:#3050AA;}
	.MAP_NX_ST102{fill:none;stroke:#FEAB01;stroke-miterlimit:10;stroke-dasharray:2.6928,2.6928,2.6928,2.6928;}
	.MAP_NX_ST103{fill:none;stroke:#FEAB01;stroke-miterlimit:10;stroke-dasharray:3.941722e-002,3.941722e-002,3.941722e-002,3.941722e-002;}
	.MAP_NX_ST104{fill:none;stroke:#FEAB01;stroke-miterlimit:10;stroke-dasharray:0.7083,0.7083,0.7083,0.7083;}
	.MAP_NX_ST105{fill:none;stroke:#FEAB01;stroke-miterlimit:10;stroke-dasharray:1.8428,1.8428,1.8428,1.8428;}
	.MAP_NX_ST106{fill:none;stroke:#FEAB01;stroke-miterlimit:10;stroke-dasharray:0.1044,0.1044,0.1044,0.1044;}
	.MAP_NX_ST107{fill:none;stroke:#FEAB01;stroke-miterlimit:10;stroke-dasharray:0.269,0.269,0.269,0.269;}
	.MAP_NX_ST108{fill:none;stroke:#FEAB01;stroke-miterlimit:10;stroke-dasharray:3.4449,3.4449,3.4449,3.4449;}
	.MAP_NX_ST109{fill:none;stroke:#FEAB01;stroke-miterlimit:10;stroke-dasharray:1.6048,1.6048,1.6048,1.6048;}
	.MAP_NX_ST110{fill:none;stroke:#FEAB01;stroke-miterlimit:10;stroke-dasharray:1.9444,1.9444,1.9444,1.9444;}
	.MAP_NX_ST111{fill:none;stroke:#FEAB01;stroke-miterlimit:10;stroke-dasharray:1.1294,1.1294,1.1294,1.1294;}
	.MAP_NX_ST112{fill:none;stroke:#FEAB01;stroke-miterlimit:10;stroke-dasharray:0.2325,0.2325,0.2325,0.2325;}
	.MAP_NX_ST113{fill:none;stroke:#FEAB01;stroke-miterlimit:10;stroke-dasharray:1.6265,1.6265,1.6265,1.6265;}
	.MAP_NX_ST114{fill:none;stroke:#FEAB01;stroke-miterlimit:10;stroke-dasharray:2.8131,2.8131,2.8131,2.8131;}
	.MAP_NX_ST115{fill:none;stroke:#FEAB01;stroke-miterlimit:10;stroke-dasharray:2.6998,2.6998,2.6998,2.6998;}
	.MAP_NX_ST116{fill:none;stroke:#FEAB01;stroke-miterlimit:10;stroke-dasharray:0.2973,0.2973,0.2973,0.2973;}
	.MAP_NX_ST117{fill:none;stroke:#FEAB01;stroke-miterlimit:10;stroke-dasharray:1.3062,1.3062,1.3062,1.3062;}
	.MAP_NX_ST118{fill:none;stroke:#FEAB01;stroke-miterlimit:10;stroke-dasharray:2.2171,2.2171,2.2171,2.2171;}
	.MAP_NX_ST119{fill:none;stroke:#FEAB01;stroke-miterlimit:10;stroke-dasharray:0.2219,0.2219,0.2219,0.2219;}
	.MAP_NX_ST120{fill:none;stroke:#FEAB01;stroke-miterlimit:10;stroke-dasharray:0.3987,0.3987,0.3987,0.3987;}
	.MAP_NX_ST121{fill:none;stroke:#FEAB01;stroke-miterlimit:10;stroke-dasharray:0.5494,0.5494,0.5494,0.5494;}
	.MAP_NX_ST122{fill:none;stroke:#FEAB01;stroke-miterlimit:10;stroke-dasharray:0.1972,0.1972,0.1972,0.1972;}
	.MAP_NX_ST123{fill:none;stroke:#FEAB01;stroke-miterlimit:10;stroke-dasharray:0.3235,0.3235,0.3235,0.3235;}
	.MAP_NX_ST124{fill:none;stroke:#FEAB01;stroke-miterlimit:10;stroke-dasharray:2.1175,2.1175,2.1175,2.1175;}
	.MAP_NX_ST125{fill:none;stroke:#FEAB01;stroke-miterlimit:10;stroke-dasharray:2.9625,2.9625,2.9625,2.9625;}
	.MAP_NX_ST126{fill:none;stroke:#FEAB01;stroke-miterlimit:10;stroke-dasharray:0.1399,0.1399,0.1399,0.1399;}
	.MAP_NX_ST127{fill:none;stroke:#FEAB01;stroke-miterlimit:10;stroke-dasharray:1.737,1.737,1.737,1.737;}
	.MAP_NX_ST128{fill:none;stroke:#FEAB01;stroke-miterlimit:10;stroke-dasharray:3.148,3.148,3.148,3.148;}
	.MAP_NX_ST129{fill:none;stroke:#FEAB01;stroke-miterlimit:10;stroke-dasharray:0.265,0.265,0.265,0.265;}
	.MAP_NX_ST130{fill:none;stroke:#FEAB01;stroke-miterlimit:10;stroke-dasharray:2.1094,2.1094,2.1094,2.1094;}
	.MAP_NX_ST131{fill:none;stroke:#FEAB01;stroke-miterlimit:10;stroke-dasharray:0.4095,0.4095,0.4095,0.4095;}
	.MAP_NX_ST132{fill:none;stroke:#FEAB01;stroke-miterlimit:10;stroke-dasharray:5.3755,5.3755,5.3755,5.3755;}
	.MAP_NX_ST133{fill:none;stroke:#FEAB01;stroke-miterlimit:10;stroke-dasharray:5.3755,5.3755,5.3755,5.3755,5.3755,5.3755;}
	.MAP_NX_ST134{fill:none;stroke:#FEAB01;stroke-miterlimit:10;stroke-dasharray:5.3751,5.3751,5.3751,5.3751;}
	.MAP_NX_ST135{fill:none;stroke:#FEAB01;stroke-miterlimit:10;stroke-dasharray:5.3751,5.3751,5.3751,5.3751,5.3751,5.3751;}
	.MAP_NX_ST136{fill:none;stroke:#FEAB01;stroke-miterlimit:10;stroke-dasharray:3.4603,3.4603,3.4603,3.4603;}
	.MAP_NX_ST137{fill:none;stroke:#FEAB01;stroke-miterlimit:10;stroke-dasharray:4.8576,4.8576,4.8576,4.8576;}
	.MAP_NX_ST138{fill:none;stroke:#FEAB01;stroke-miterlimit:10;stroke-dasharray:3.5923,3.5923,3.5923,3.5923;}
	.MAP_NX_ST139{fill:none;stroke:#FEAB01;stroke-miterlimit:10;stroke-dasharray:5.455003e-002,5.455003e-002,5.455003e-002,5.455003e-002;}
	.MAP_NX_ST140{fill:none;stroke:#FEAB01;stroke-miterlimit:10;stroke-dasharray:3.3444,3.3444,3.3444,3.3444;}
	.MAP_NX_ST141{fill:none;stroke:#FEAB01;stroke-miterlimit:10;stroke-dasharray:3.0646,3.0646,3.0646,3.0646;}
	.MAP_NX_ST142{fill:none;stroke:#FEAB01;stroke-miterlimit:10;stroke-dasharray:0.544,0.544,0.544,0.544;}
	.MAP_NX_ST143{fill:none;stroke:#FEAB01;stroke-miterlimit:10;stroke-dasharray:2.1626,2.1626,2.1626,2.1626;}
	.MAP_NX_ST144{fill:none;stroke:#FEAB01;stroke-miterlimit:10;stroke-dasharray:1.6946,1.6946,1.6946,1.6946;}
	.MAP_NX_ST145{fill:none;stroke:#FEAB01;stroke-miterlimit:10;stroke-dasharray:0.886,0.886,0.886,0.886;}
	.MAP_NX_ST146{fill:none;stroke:#FEAB01;stroke-miterlimit:10;stroke-dasharray:1.3955,1.3955,1.3955,1.3955;}
	.MAP_NX_ST147{fill:none;stroke:#FEAB01;stroke-miterlimit:10;stroke-dasharray:5.1384,5.1384,5.1384,5.1384;}
	.MAP_NX_ST148{fill:none;stroke:#FEAB01;stroke-miterlimit:10;stroke-dasharray:10.0064,10.0064,10.0064,10.0064;}
	.MAP_NX_ST149{fill:none;stroke:#FEAB01;stroke-miterlimit:10;stroke-dasharray:0.7859,0.7859,0.7859,0.7859;}
	.MAP_NX_ST150{fill:none;stroke:#FEAB01;stroke-miterlimit:10;stroke-dasharray:0.4019,0.4019,0.4019,0.4019;}
	.MAP_NX_ST151{fill:none;stroke:#FEAB01;stroke-miterlimit:10;stroke-dasharray:8.0536,8.0536,8.0536,8.0536;}
	.MAP_NX_ST152{fill:none;stroke:#FEAB01;stroke-miterlimit:10;stroke-dasharray:0.3771,0.3771,0.3771,0.3771;}
	.MAP_NX_ST153{fill:none;stroke:#FEAB01;stroke-miterlimit:10;stroke-dasharray:1.7287,1.7287,1.7287,1.7287;}
	.MAP_NX_ST154{fill:none;stroke:#FEAB01;stroke-miterlimit:10;stroke-dasharray:9.0054,9.0054,9.0054,9.0054;}
	.MAP_NX_ST155{fill:none;stroke:#FEAB01;stroke-miterlimit:10;stroke-dasharray:9.0054,9.0054,9.0054,9.0054,9.0054,9.0054;}
	.MAP_NX_ST156{fill:#F9E4AF;}
	.MAP_NX_ST157{font-family:'MicrosoftYaHei';}
	.MAP_NX_ST158{font-size:7px;}
	.MAP_NX_ST159{font-size:11px;}
	.MAP_NX_ST160{fill:none;stroke:#F9E4AF;stroke-miterlimit:10;}
	.MAP_NX_ST161{opacity:0.5;fill:none;stroke:#F9E4AF;stroke-miterlimit:10;}
	.MAP_NX_ST162{opacity:0.5;fill:#F9E4AF;}
	.MAP_NX_ST163{opacity:0.5;fill:none;stroke:#F9E4AF;stroke-width:2;stroke-miterlimit:10;}
</style>
<g id="MAP_NX_XMLID_55_" transform="translate(0,0)">
	<g id="MAP_NX_XMLID_3274_">
		<g id="MAP_NX_XMLID_3553_">
			<polygon id="MAP_NX_XMLID_3682_" class="MAP_NX_ST0" points="217.4,356.7 220.9,355.6 222.7,348.9 222.7,339.9 224.5,338.7 231.6,342.1 
				244,338.7 247.6,338.7 247.6,334.3 254.7,325.2 254.7,321.9 252.9,314 254.7,309.5 252.9,307.2 258.3,301.6 260,295.9 
				252.9,285.8 249.4,270 251.1,253 258.3,250.7 261.8,241.7 267.1,241.7 270.7,246.2 279.6,249.6 279.6,251.9 274.3,266.6 
				279.6,266.6 281.4,258.7 283.2,254.1 284.9,254.1 286.7,257.5 292,259.8 299.2,251.9 300.9,253 299.2,255.3 297.4,255.3 
				297.4,257.5 302.7,257.5 302.7,258.7 304.5,262.1 304.5,264.3 313.4,264.3 318.7,270 320.5,274.5 318.7,282.4 322.3,286.9 
				327.6,298.2 331.2,297.1 334.7,299.3 334.7,301.6 331.2,306.1 332.9,307.2 336.5,308.3 338.3,310.6 341.8,311.7 341.8,319.6 
				340.1,320.7 332.9,320.7 331.2,321.9 331.2,329.7 331.2,332 332.9,333.1 334.7,337.6 331.2,339.9 325.8,338.7 324.1,341 
				325.8,345.5 329.4,350 331.2,355.6 329.4,361.2 331.2,364.6 331.2,370.2 336.5,375.8 336.5,379.2 338.3,380.3 343.6,381.4 
				343.6,384.8 345.4,392.7 356.1,398.3 361.4,399.4 365,398.3 366.7,396 366.7,394.9 370.3,392.7 375.6,390.4 377.4,385.9 
				375.6,379.2 388.1,368 397,370.2 407.6,371.3 405.9,357.9 405.9,353.4 418.3,341 423.6,334.3 423.6,324.1 416.5,324.1 
				414.7,308.3 413,306.1 411.2,306.1 409.4,300.5 407.6,294.8 409.4,290.3 414.7,286.9 420.1,288 425.4,284.7 416.5,268.8 
				414.7,265.4 416.5,262.1 450.3,271.1 452.1,271.1 453.9,268.8 464.5,266.6 466.3,262.1 475.2,263.2 478.8,267.7 482.3,270 
				496.5,276.7 505.4,288 510.8,291.4 514.3,294.8 510.8,305 517.9,307.2 519.7,305 525,306.1 526.8,310.6 533.9,315.1 548.1,318.5 
				549.9,320.7 549.9,327.5 551.7,330.9 548.1,330.9 548.1,336.5 544.6,339.9 539.2,335.4 539.2,336.5 539.2,338.7 526.8,341 
				525,342.1 526.8,344.4 521.4,357.9 516.1,357.9 514.3,359 507.2,355.6 507.2,359 510.8,361.2 510.8,364.6 507.2,363.5 
				505.4,364.6 507.2,364.6 507.2,366.9 503.7,372.5 494.8,373.6 501.9,382.6 505.4,381.4 505.4,385.9 501.9,391.5 498.3,393.8 
				494.8,398.3 494.8,397.1 493,398.3 487.6,428.5 489.4,433 493,440.8 496.5,443 496.5,447.5 496.5,449.7 491.2,450.8 496.5,458.7 
				498.3,459.8 501.9,464.2 500.1,469.8 496.5,476.5 491.2,472 493,479.9 491.2,481 487.6,477.6 484.1,478.7 475.2,469.8 
				468.1,470.9 462.8,475.4 459.2,473.2 455.6,474.3 450.3,470.9 450.3,473.2 450.3,476.5 445,474.3 441.4,476.5 437.9,472 
				430.8,468.7 427.2,469.8 430.8,473.2 429,474.3 429,476.5 427.2,477.6 423.6,474.3 421.9,475.4 409.4,466.5 407.6,469.8 
				407.6,474.3 405.9,477.6 405.9,481 400.5,474.3 397,474.3 395.2,476.5 393.4,475.4 391.6,476.5 391.6,473.2 388.1,474.3 
				384.5,470.9 382.7,472 382.7,474.3 384.5,479.9 388.1,484.3 389.9,491 388.1,494.3 388.1,498.8 388.1,506.6 384.5,507.7 
				379.2,506.6 380.9,511 377.4,512.1 377.4,511 377.4,509.9 375.6,507.7 372.1,502.1 370.3,503.2 373.8,508.8 372.1,511 
				375.6,513.3 382.7,523.3 384.5,521 388.1,522.1 386.3,527.7 388.1,529.9 388.1,533.3 389.9,534.4 389.9,537.7 388.1,541 
				386.3,546.6 386.3,548.8 386.3,552.1 389.9,555.5 386.3,555.5 377.4,548.8 375.6,553.2 373.8,551 370.3,553.2 368.5,556.6 
				366.7,556.6 370.3,562.1 366.7,561 363.2,563.2 365,569.9 361.4,572.1 363.2,574.3 359.6,576.5 356.1,575.4 356.1,576.5 
				352.5,573.2 350.7,576.5 345.4,576.5 345.4,578.7 334.7,582.1 331.2,580.9 327.6,576.5 324.1,579.8 320.5,579.8 320.5,584.3 
				315.2,582.1 309.8,585.4 308,583.2 308,576.5 302.7,571 300.9,562.1 295.6,555.5 295.6,548.8 290.3,542.1 290.3,539.9 
				288.5,535.5 284.9,533.3 279.6,533.3 281.4,528.8 281.4,525.5 279.6,524.4 277.8,521 276,519.9 277.8,517.7 276,517.7 
				272.5,514.4 270.7,513.3 270.7,511 268.9,507.7 263.6,507.7 258.3,503.2 247.6,482.1 245.8,481 240.5,481 233.4,473.2 229.8,462 
				229.8,456.4 224.5,450.8 231.6,447.5 235.1,455.3 233.4,458.7 238.7,464.2 247.6,459.8 242.3,444.1 251.1,438.5 274.3,439.7 
				276,437.4 274.3,436.3 261.8,429.6 260,426.2 267.1,422.9 263.6,420.6 265.4,418.4 276,415.1 274.3,411.7 276,410.6 281.4,410.6 
				277.8,405 286.7,403.9 290.3,401.6 290.3,399.4 297.4,392.7 295.6,389.3 290.3,388.2 284.9,383.7 284.9,380.3 288.5,370.2 
				286.7,369.1 288.5,362.4 283.2,351.1 283.2,346.6 279.6,345.5 279.6,352.2 274.3,362.4 272.5,362.4 272.5,365.7 270.7,371.3 
				267.1,372.5 265.4,371.3 267.1,365.7 265.4,363.5 267.1,357.9 267.1,351.1 260,351.1 256.5,353.4 249.4,353.4 245.8,354.5 
				236.9,353.4 226.2,356.7 			"/>
			<g id="MAP_NX_XMLID_3554_">
				<polyline id="MAP_NX_XMLID_3681_" class="MAP_NX_ST1" points="222.4,356.7 217.4,356.7 220.9,355.6 222.2,350.8 				"/>
				<polyline id="MAP_NX_XMLID_3680_" class="MAP_NX_ST2" points="222.5,349.6 222.7,348.9 222.7,345.5 				"/>
				<polyline id="MAP_NX_XMLID_3679_" class="MAP_NX_ST1" points="222.7,344.9 222.7,339.9 224.5,338.7 229,340.9 				"/>
				<polyline id="MAP_NX_XMLID_3678_" class="MAP_NX_ST3" points="231.6,342.1 231.6,342.1 241.3,339.5 				"/>
				<polyline id="MAP_NX_XMLID_3677_" class="MAP_NX_ST1" points="242.6,339.1 244,338.7 247.6,338.7 247.6,334.3 247.9,333.9 				"/>
				<polyline id="MAP_NX_XMLID_3676_" class="MAP_NX_ST4" points="250.7,330.4 254.7,325.2 254.7,321.9 253.4,316.3 				"/>
				<polyline id="MAP_NX_XMLID_3675_" class="MAP_NX_ST1" points="253,314.1 252.9,314 254.7,309.5 252.9,307.2 256.4,303.6 				"/>
				<polyline id="MAP_NX_XMLID_3674_" class="MAP_NX_ST5" points="256.9,303 258.3,301.6 258.4,301.1 				"/>
				<polyline id="MAP_NX_XMLID_3673_" class="MAP_NX_ST1" points="258.5,300.7 260,295.9 257.2,291.8 				"/>
				<polyline id="MAP_NX_XMLID_3672_" class="MAP_NX_ST6" points="253.1,286 252.9,285.8 249.4,270 250.3,261.5 				"/>
				<polyline id="MAP_NX_XMLID_3671_" class="MAP_NX_ST1" points="250.6,258 251.1,253 258.3,250.7 261.8,241.7 267.1,241.7 270.2,245.6 				"/>
				<line id="MAP_NX_XMLID_3670_" class="MAP_NX_ST7" x1="271" y1="246.3" x2="274.4" y2="247.6"/>
				<polyline id="MAP_NX_XMLID_3669_" class="MAP_NX_ST1" points="274.9,247.8 279.6,249.6 279.6,251.9 278.7,254.4 				"/>
				<line id="MAP_NX_XMLID_3668_" class="MAP_NX_ST8" x1="278.1" y1="255.9" x2="276.2" y2="261.1"/>
				<polyline id="MAP_NX_XMLID_3667_" class="MAP_NX_ST1" points="276,261.9 274.3,266.6 279.6,266.6 280.7,261.7 				"/>
				<line id="MAP_NX_XMLID_3666_" class="MAP_NX_ST9" x1="280.8" y1="261.1" x2="281.3" y2="259.1"/>
				<polyline id="MAP_NX_XMLID_3665_" class="MAP_NX_ST1" points="281.3,258.8 281.4,258.7 283.2,254.1 284.9,254.1 286.7,257.5 292,259.8 
					295.4,256.1 				"/>
				<line id="MAP_NX_XMLID_3664_" class="MAP_NX_ST10" x1="295.5" y1="256" x2="295.8" y2="255.6"/>
				<polyline id="MAP_NX_XMLID_3663_" class="MAP_NX_ST1" points="295.8,255.6 299.2,251.9 300.9,253 299.2,255.3 297.4,255.3 297.4,257.5 
					302.7,257.5 302.7,258.7 304.5,262.1 304.5,264.3 313.4,264.3 316.8,268 				"/>
				<polyline id="MAP_NX_XMLID_3662_" class="MAP_NX_ST11" points="318.3,269.5 318.7,270 320.5,274.5 320,276.5 				"/>
				<polyline id="MAP_NX_XMLID_3661_" class="MAP_NX_ST1" points="319.8,277.5 318.7,282.4 321.8,286.3 				"/>
				<line id="MAP_NX_XMLID_3660_" class="MAP_NX_ST12" x1="322.7" y1="287.7" x2="325.1" y2="292.9"/>
				<polyline id="MAP_NX_XMLID_3659_" class="MAP_NX_ST1" points="325.5,293.7 327.6,298.2 331.2,297.1 334.7,299.3 334.7,301.6 331.2,306.1 
					332.9,307.2 335.7,308.1 				"/>
				<polyline id="MAP_NX_XMLID_3658_" class="MAP_NX_ST13" points="336.2,308.2 336.5,308.3 337.3,309.4 				"/>
				<polyline id="MAP_NX_XMLID_3657_" class="MAP_NX_ST1" points="337.5,309.6 338.3,310.6 341.8,311.7 341.8,319.6 340.1,320.7 337.2,320.7 				
					"/>
				<line id="MAP_NX_XMLID_3656_" class="MAP_NX_ST14" x1="336.9" y1="320.7" x2="336" y2="320.7"/>
				<polyline id="MAP_NX_XMLID_3655_" class="MAP_NX_ST1" points="335.8,320.7 332.9,320.7 331.2,321.9 331.2,326.9 				"/>
				<line id="MAP_NX_XMLID_3654_" class="MAP_NX_ST15" x1="331.2" y1="326.9" x2="331.2" y2="327"/>
				<polyline id="MAP_NX_XMLID_3653_" class="MAP_NX_ST1" points="331.2,327 331.2,329.7 331.2,332 332.9,333.1 334.7,337.6 331.2,339.9 
					325.8,338.7 324.1,341 325.8,345.5 325.9,345.6 				"/>
				<polyline id="MAP_NX_XMLID_3652_" class="MAP_NX_ST16" points="327.5,347.6 329.4,350 331.1,355.3 				"/>
				<polyline id="MAP_NX_XMLID_3651_" class="MAP_NX_ST1" points="330.9,356.5 329.4,361.2 331.2,364.6 331.2,365.8 				"/>
				<polyline id="MAP_NX_XMLID_3650_" class="MAP_NX_ST17" points="331.2,367.9 331.2,370.2 334.7,373.9 				"/>
				<polyline id="MAP_NX_XMLID_3649_" class="MAP_NX_ST1" points="335.4,374.6 336.5,375.8 336.5,379.2 338.3,380.3 343.6,381.4 343.6,384.8 
					344,386.4 				"/>
				<line id="MAP_NX_XMLID_3648_" class="MAP_NX_ST18" x1="344" y1="386.7" x2="344.3" y2="387.6"/>
				<polyline id="MAP_NX_XMLID_3647_" class="MAP_NX_ST1" points="344.3,387.8 345.4,392.7 349.8,395 				"/>
				<polyline id="MAP_NX_XMLID_3646_" class="MAP_NX_ST19" points="352.5,396.4 356.1,398.3 361.4,399.4 362.5,399 				"/>
				<polyline id="MAP_NX_XMLID_3645_" class="MAP_NX_ST1" points="364,398.6 365,398.3 366.7,396 366.7,394.9 370.3,392.7 375.6,390.4 
					377.4,385.9 377.4,385.8 				"/>
				<line id="MAP_NX_XMLID_3644_" class="MAP_NX_ST20" x1="377.3" y1="385.4" x2="377" y2="384.2"/>
				<polyline id="MAP_NX_XMLID_3643_" class="MAP_NX_ST1" points="376.9,384 375.6,379.2 379.3,375.8 				"/>
				<line id="MAP_NX_XMLID_3642_" class="MAP_NX_ST21" x1="380.3" y1="374.9" x2="383.9" y2="371.8"/>
				<polyline id="MAP_NX_XMLID_3641_" class="MAP_NX_ST1" points="384.4,371.3 388.1,368 392.9,369.2 				"/>
				<polyline id="MAP_NX_XMLID_3640_" class="MAP_NX_ST22" points="394.8,369.7 397,370.2 401.7,370.7 				"/>
				<polyline id="MAP_NX_XMLID_3639_" class="MAP_NX_ST1" points="402.7,370.8 407.6,371.3 407,366.4 				"/>
				<line id="MAP_NX_XMLID_3638_" class="MAP_NX_ST23" x1="406.8" y1="364.8" x2="406" y2="359.2"/>
				<polyline id="MAP_NX_XMLID_3637_" class="MAP_NX_ST1" points="405.9,358.4 405.9,357.9 405.9,353.4 409.4,349.8 				"/>
				<polyline id="MAP_NX_XMLID_3636_" class="MAP_NX_ST24" points="413.1,346.1 418.3,341 423.6,334.3 423.6,331.7 				"/>
				<polyline id="MAP_NX_XMLID_3635_" class="MAP_NX_ST1" points="423.6,329.1 423.6,324.1 416.5,324.1 416,319.1 				"/>
				<line id="MAP_NX_XMLID_3634_" class="MAP_NX_ST25" x1="415.8" y1="317.4" x2="415.1" y2="311.3"/>
				<polyline id="MAP_NX_XMLID_3633_" class="MAP_NX_ST1" points="415,310.4 414.7,308.3 413,306.1 411.2,306.1 409.7,301.3 				"/>
				<polyline id="MAP_NX_XMLID_3632_" class="MAP_NX_ST26" points="408.2,296.6 407.6,294.8 409.4,290.3 414.7,286.9 418.9,287.8 				"/>
				<polyline id="MAP_NX_XMLID_3631_" class="MAP_NX_ST1" points="421.2,287.3 425.4,284.7 423,280.3 				"/>
				<line id="MAP_NX_XMLID_3630_" class="MAP_NX_ST27" x1="421.8" y1="278.2" x2="417.7" y2="270.9"/>
				<polyline id="MAP_NX_XMLID_3629_" class="MAP_NX_ST1" points="417.1,269.9 416.5,268.8 414.7,265.4 416.5,262.1 421.4,263.3 				"/>
				<line id="MAP_NX_XMLID_3628_" class="MAP_NX_ST28" x1="426.5" y1="264.7" x2="444.6" y2="269.6"/>
				<polyline id="MAP_NX_XMLID_3627_" class="MAP_NX_ST1" points="447.2,270.3 450.3,271.1 452.1,271.1 453.9,268.8 455.9,268.4 				"/>
				<line id="MAP_NX_XMLID_3626_" class="MAP_NX_ST29" x1="456.7" y1="268.2" x2="459.3" y2="267.7"/>
				<polyline id="MAP_NX_XMLID_3625_" class="MAP_NX_ST1" points="459.6,267.6 464.5,266.6 466.3,262.1 471.3,262.7 				"/>
				<polyline id="MAP_NX_XMLID_3624_" class="MAP_NX_ST30" points="479,267.9 482.3,270 496.5,276.7 505.4,288 506.4,288.7 				"/>
				<polyline id="MAP_NX_XMLID_3623_" class="MAP_NX_ST1" points="510.7,291.4 510.8,291.4 514.3,294.8 512.7,299.5 				"/>
				<line id="MAP_NX_XMLID_3622_" class="MAP_NX_ST31" x1="512.6" y1="299.7" x2="512.4" y2="300.2"/>
				<polyline id="MAP_NX_XMLID_3621_" class="MAP_NX_ST1" points="512.4,300.2 510.8,305 517.9,307.2 519.7,305 525,306.1 526.8,310.6 
					526.9,310.7 				"/>
				<polyline id="MAP_NX_XMLID_3620_" class="MAP_NX_ST32" points="532.2,314 533.9,315.1 548.1,318.5 549.9,320.7 549.9,323.2 				"/>
				<polyline id="MAP_NX_XMLID_3619_" class="MAP_NX_ST1" points="549.9,326.3 549.9,327.5 551.7,330.9 548.1,330.9 548.1,336.5 544.6,339.9 
					539.2,335.4 539.2,336.5 539.2,338.7 534.3,339.6 				"/>
				<line id="MAP_NX_XMLID_3618_" class="MAP_NX_ST33" x1="533.4" y1="339.8" x2="530.1" y2="340.4"/>
				<polyline id="MAP_NX_XMLID_3617_" class="MAP_NX_ST1" points="529.6,340.5 526.8,341 525,342.1 526.8,344.4 524.9,349 				"/>
				<line id="MAP_NX_XMLID_3616_" class="MAP_NX_ST34" x1="524.6" y1="349.9" x2="523.4" y2="352.8"/>
				<polyline id="MAP_NX_XMLID_3615_" class="MAP_NX_ST1" points="523.3,353.2 521.4,357.9 516.1,357.9 514.3,359 507.2,355.6 507.2,359 
					510.8,361.2 510.8,364.6 507.2,363.5 505.4,364.6 507.2,364.6 507.2,366.9 503.7,372.5 494.8,373.6 497.9,377.5 				"/>
				<line id="MAP_NX_XMLID_3614_" class="MAP_NX_ST35" x1="498" y1="377.7" x2="498.7" y2="378.5"/>
				<polyline id="MAP_NX_XMLID_3613_" class="MAP_NX_ST1" points="498.8,378.6 501.9,382.6 505.4,381.4 505.4,385.9 505.2,386.4 				"/>
				<polyline id="MAP_NX_XMLID_3612_" class="MAP_NX_ST36" points="504,388.2 501.9,391.5 498.6,393.6 				"/>
				<polyline id="MAP_NX_XMLID_3611_" class="MAP_NX_ST1" points="497.9,394.3 494.8,398.3 494.8,397.1 493,398.3 492.1,403.2 				"/>
				<polyline id="MAP_NX_XMLID_3610_" class="MAP_NX_ST37" points="490.8,410.7 487.6,428.5 489.4,433 491.1,436.6 				"/>
				<polyline id="MAP_NX_XMLID_3609_" class="MAP_NX_ST1" points="492.7,440.1 493,440.8 496.5,443 496.5,447.5 496.5,449.7 491.2,450.8 494,455 
									"/>
				<polyline id="MAP_NX_XMLID_3608_" class="MAP_NX_ST38" points="494.8,456.2 496.5,458.7 498.3,459.8 				"/>
				<polyline id="MAP_NX_XMLID_3607_" class="MAP_NX_ST1" points="498.8,460.3 501.9,464.2 500.4,469 				"/>
				<polyline id="MAP_NX_XMLID_3606_" class="MAP_NX_ST39" points="500.1,469.7 500.1,469.8 499,471.8 				"/>
				<polyline id="MAP_NX_XMLID_3605_" class="MAP_NX_ST1" points="498.9,472.1 496.5,476.5 491.2,472 493,479.9 491.2,481 487.6,477.6 
					484.1,478.7 480.6,475.2 				"/>
				<line id="MAP_NX_XMLID_3604_" class="MAP_NX_ST40" x1="480.2" y1="474.8" x2="478.9" y2="473.5"/>
				<polyline id="MAP_NX_XMLID_3603_" class="MAP_NX_ST1" points="478.7,473.4 475.2,469.8 470.3,470.6 				"/>
				<polyline id="MAP_NX_XMLID_3602_" class="MAP_NX_ST41" points="469.4,470.7 468.1,470.9 466.9,471.9 				"/>
				<polyline id="MAP_NX_XMLID_3601_" class="MAP_NX_ST1" points="466.6,472.2 462.8,475.4 459.2,473.2 455.6,474.3 450.3,470.9 450.3,473.2 
					450.3,476.5 445,474.3 441.4,476.5 438.3,472.6 				"/>
				<line id="MAP_NX_XMLID_3600_" class="MAP_NX_ST42" x1="437.2" y1="471.7" x2="432.6" y2="469.5"/>
				<polyline id="MAP_NX_XMLID_3599_" class="MAP_NX_ST1" points="431.9,469.2 430.8,468.7 427.2,469.8 430.8,473.2 429,474.3 429,476.5 
					427.2,477.6 423.6,474.3 421.9,475.4 417.8,472.5 				"/>
				<line id="MAP_NX_XMLID_3598_" class="MAP_NX_ST43" x1="416.9" y1="471.9" x2="413.9" y2="469.7"/>
				<polyline id="MAP_NX_XMLID_3597_" class="MAP_NX_ST1" points="413.5,469.4 409.4,466.5 407.6,469.8 407.6,471 				"/>
				<polyline id="MAP_NX_XMLID_3596_" class="MAP_NX_ST44" points="407.6,472.1 407.6,474.3 406.9,475.7 				"/>
				<polyline id="MAP_NX_XMLID_3595_" class="MAP_NX_ST1" points="406.6,476.2 405.9,477.6 405.9,481 400.5,474.3 397,474.3 395.2,476.5 
					393.4,475.4 391.6,476.5 391.6,473.2 388.1,474.3 384.5,470.9 382.7,472 382.7,474.3 383.6,476.9 				"/>
				<polyline id="MAP_NX_XMLID_3594_" class="MAP_NX_ST45" points="385.9,481.6 388.1,484.3 389.9,491 388.1,494.3 388.1,498.8 388.1,498.9 				
					"/>
				<polyline id="MAP_NX_XMLID_3593_" class="MAP_NX_ST1" points="388.1,501.6 388.1,506.6 384.5,507.7 379.2,506.6 380.9,511 377.4,512.1 
					377.4,511 377.4,509.9 375.7,507.8 				"/>
				<line id="MAP_NX_XMLID_3592_" class="MAP_NX_ST46" x1="375.5" y1="507.5" x2="374.8" y2="506.5"/>
				<polyline id="MAP_NX_XMLID_3591_" class="MAP_NX_ST1" points="374.8,506.3 372.1,502.1 370.3,503.2 373.8,508.8 372.1,511 375.6,513.3 
					376.1,513.9 				"/>
				<line id="MAP_NX_XMLID_3590_" class="MAP_NX_ST47" x1="376.8" y1="515" x2="379.5" y2="518.7"/>
				<polyline id="MAP_NX_XMLID_3589_" class="MAP_NX_ST1" points="379.8,519.2 382.7,523.3 384.5,521 388.1,522.1 386.3,527.7 388.1,529.9 
					388.1,533.3 389.9,534.4 389.9,537.7 389.1,539.2 				"/>
				<polyline id="MAP_NX_XMLID_3588_" class="MAP_NX_ST48" points="388.3,540.7 388.1,541 386.4,546.3 				"/>
				<polyline id="MAP_NX_XMLID_3587_" class="MAP_NX_ST1" points="386.3,547.1 386.3,548.8 386.3,552.1 389.9,555.5 386.3,555.5 385.1,554.6 				
					"/>
				<line id="MAP_NX_XMLID_3586_" class="MAP_NX_ST49" x1="384.4" y1="554" x2="381.8" y2="552.1"/>
				<polyline id="MAP_NX_XMLID_3585_" class="MAP_NX_ST1" points="381.4,551.8 377.4,548.8 375.6,553.2 373.8,551 370.3,553.2 368.5,556.6 
					366.7,556.6 370.3,562.1 366.7,561 363.2,563.2 365,569.9 361.4,572.1 363.2,574.3 359.6,576.5 356.1,575.4 356.1,576.5 
					352.5,573.2 350.7,576.5 345.4,576.5 345.4,578.7 340.6,580.2 				"/>
				<polyline id="MAP_NX_XMLID_3584_" class="MAP_NX_ST50" points="338.6,580.9 334.7,582.1 331.5,581.1 				"/>
				<polyline id="MAP_NX_XMLID_3583_" class="MAP_NX_ST1" points="330.7,580.4 327.6,576.5 324.1,579.8 320.5,579.8 320.5,584.3 315.2,582.1 
					309.8,585.4 308,583.2 308,581 				"/>
				<polyline id="MAP_NX_XMLID_3582_" class="MAP_NX_ST51" points="307.6,576.1 302.7,571 300.9,562.1 299.8,560.6 				"/>
				<polyline id="MAP_NX_XMLID_3581_" class="MAP_NX_ST52" points="298.1,558.6 295.6,555.5 295.6,548.8 290.3,542.1 290.3,539.9 288.5,535.5 
					286.8,534.4 				"/>
				<polyline id="MAP_NX_XMLID_3580_" class="MAP_NX_ST1" points="284.6,533.3 279.6,533.3 281.4,528.8 281.4,525.5 279.6,524.4 277.8,521 
					276,519.9 277.8,517.7 276,517.7 272.5,514.4 270.7,513.3 270.7,511 268.9,507.7 263.9,507.7 				"/>
				<polyline id="MAP_NX_XMLID_3579_" class="MAP_NX_ST53" points="258.7,503.6 258.3,503.2 248,482.9 				"/>
				<polyline id="MAP_NX_XMLID_3578_" class="MAP_NX_ST1" points="245.5,481 240.5,481 237.1,477.3 				"/>
				<polyline id="MAP_NX_XMLID_3577_" class="MAP_NX_ST54" points="233.7,473.5 233.4,473.2 229.8,462 229.8,456.4 229.7,456.3 				"/>
				<polyline id="MAP_NX_XMLID_3576_" class="MAP_NX_ST1" points="227.9,454.4 224.5,450.8 231.6,447.5 235.1,455.3 233.4,458.7 238.7,464.2 
					247.6,459.8 246,455 				"/>
				<line id="MAP_NX_XMLID_3575_" class="MAP_NX_ST55" x1="245.6" y1="453.8" x2="244.1" y2="449.5"/>
				<polyline id="MAP_NX_XMLID_3574_" class="MAP_NX_ST1" points="243.9,448.9 242.3,444.1 246.5,441.5 				"/>
				<polyline id="MAP_NX_XMLID_3573_" class="MAP_NX_ST56" points="250.5,439 251.1,438.5 266.9,439.3 				"/>
				<polyline id="MAP_NX_XMLID_3572_" class="MAP_NX_ST1" points="269.3,439.4 274.3,439.7 276,437.4 274.3,436.3 271.7,434.9 				"/>
				<line id="MAP_NX_XMLID_3571_" class="MAP_NX_ST57" x1="269.9" y1="434" x2="263.8" y2="430.7"/>
				<polyline id="MAP_NX_XMLID_3570_" class="MAP_NX_ST1" points="262.9,430.2 261.8,429.6 260,426.2 267.1,422.9 263.6,420.6 265.4,418.4 
					267.4,417.8 				"/>
				<line id="MAP_NX_XMLID_3569_" class="MAP_NX_ST58" x1="268.2" y1="417.5" x2="270.9" y2="416.7"/>
				<polyline id="MAP_NX_XMLID_3568_" class="MAP_NX_ST1" points="271.3,416.6 276,415.1 274.3,411.7 276,410.6 281.4,410.6 277.8,405 
					282.8,404.4 				"/>
				<line id="MAP_NX_XMLID_3567_" class="MAP_NX_ST59" x1="283.4" y1="404.3" x2="285.6" y2="404"/>
				<polyline id="MAP_NX_XMLID_3566_" class="MAP_NX_ST1" points="285.9,404 286.7,403.9 290.3,401.6 290.3,399.4 297.4,392.7 295.6,389.3 
					290.7,388.3 				"/>
				<line id="MAP_NX_XMLID_3565_" class="MAP_NX_ST60" x1="290.2" y1="388.1" x2="288.9" y2="387.1"/>
				<polyline id="MAP_NX_XMLID_3564_" class="MAP_NX_ST1" points="288.8,386.9 284.9,383.7 284.9,380.3 285.5,378.8 				"/>
				<line id="MAP_NX_XMLID_3563_" class="MAP_NX_ST61" x1="285.7" y1="378" x2="286.7" y2="375.3"/>
				<polyline id="MAP_NX_XMLID_3562_" class="MAP_NX_ST1" points="286.8,374.9 288.5,370.2 286.7,369.1 288,364.3 				"/>
				<line id="MAP_NX_XMLID_3561_" class="MAP_NX_ST62" x1="288.1" y1="361.6" x2="284" y2="352.8"/>
				<polyline id="MAP_NX_XMLID_3560_" class="MAP_NX_ST1" points="283.4,351.6 283.2,351.1 283.2,346.6 279.6,345.5 279.6,350.5 				"/>
				<polyline id="MAP_NX_XMLID_3559_" class="MAP_NX_ST63" points="279.6,352.1 279.6,352.2 277,357.2 				"/>
				<polyline id="MAP_NX_XMLID_3558_" class="MAP_NX_ST1" points="276.6,357.9 274.3,362.4 272.5,362.4 272.5,365.7 270.7,371.3 267.1,372.5 
					265.4,371.3 267.1,365.7 265.4,363.5 266.9,358.7 				"/>
				<polyline id="MAP_NX_XMLID_3557_" class="MAP_NX_ST64" points="267,358.2 267.1,357.9 267.1,356.4 				"/>
				<polyline id="MAP_NX_XMLID_3556_" class="MAP_NX_ST1" points="267.1,356.1 267.1,351.1 262.1,351.1 				"/>
				<polyline id="MAP_NX_XMLID_3555_" class="MAP_NX_ST65" points="254.6,353.4 249.4,353.4 245.8,354.5 236.9,353.4 226.5,356.7 				"/>
			</g>
		</g>
		<g id="MAP_NX_XMLID_3458_">
			<polygon id="MAP_NX_XMLID_3552_" class="MAP_NX_ST66" points="217.4,356.7 226.2,356.7 236.9,353.4 245.8,354.5 249.4,353.4 256.5,353.4 
				260,351.1 267.1,351.1 267.1,357.9 265.4,363.5 267.1,365.7 265.4,371.3 267.1,372.5 270.7,371.3 272.5,365.7 272.5,362.4 
				274.3,362.4 279.6,352.2 279.6,345.5 283.2,346.6 283.2,351.1 288.5,362.4 286.7,369.1 288.5,370.2 284.9,380.3 284.9,383.7 
				290.3,388.2 295.6,389.3 297.4,392.7 290.3,399.4 290.3,401.6 286.7,403.9 277.8,405 281.4,410.6 276,410.6 274.3,411.7 
				276,415.1 265.4,418.4 263.6,420.6 267.1,422.9 260,426.2 261.8,429.6 274.3,436.3 276,437.4 274.3,439.7 251.1,438.5 
				242.3,444.1 247.6,459.8 238.7,464.2 233.4,458.7 235.1,455.3 231.6,447.5 224.5,450.8 229.8,456.4 229.8,462 233.4,473.2 
				240.5,481 245.8,481 247.6,482.1 258.3,503.2 263.6,507.7 268.9,507.7 270.7,511 270.7,513.3 272.5,514.4 276,517.7 277.8,517.7 
				276,519.9 277.8,521 279.6,524.4 281.4,525.5 281.4,528.8 279.6,533.3 284.9,533.3 288.5,535.5 290.3,539.9 290.3,542.1 
				295.6,548.8 295.6,555.5 300.9,562.1 302.7,571 308,576.5 308,583.2 309.8,585.4 297.4,590.9 293.8,590.9 293.8,593.1 
				293.8,594.2 290.3,595.4 288.5,599.8 286.7,599.8 284.9,603.1 290.3,606.4 292,613 292,618.6 290.3,621.9 288.5,623 284.9,628.5 
				284.9,630.7 286.7,634 284.9,637.3 281.4,636.2 279.6,645 283.2,649.5 283.2,661.6 274.3,658.3 265.4,658.3 261.8,667.1 
				260,667.1 258.3,670.4 251.1,675.9 247.6,672.6 242.3,673.7 247.6,667.1 247.6,664.9 245.8,663.8 242.3,662.7 240.5,664.9 
				236.9,663.8 231.6,669.3 229.8,669.3 224.5,664.9 219.1,655 215.6,653.9 206.7,659.4 203.1,659.4 201.4,663.8 196,652.8 
				197.8,650.6 196,647.3 199.6,645 199.6,641.7 196,636.2 190.7,634 187.1,628.5 185.3,625.2 188.9,624.1 187.1,621.9 187.1,614.1 
				183.6,611.9 181.8,613 180,600.9 174.7,593.1 171.1,595.4 165.8,595.4 162.2,590.9 162.2,589.8 165.8,587.6 165.8,584.3 
				164,579.8 160.4,578.7 158.7,574.3 158.7,567.7 155.1,561 155.1,558.8 158.7,553.2 165.8,552.1 167.6,549.9 171.1,551 
				174.7,549.9 176.5,547.7 176.5,538.8 176.5,537.7 172.9,538.8 171.1,537.7 172.9,534.4 169.4,531 167.6,529.9 167.6,525.5 
				164,523.3 162.2,523.3 158.7,521 153.3,521 151.6,505.5 149.8,501 139.1,498.8 132,494.3 128.4,497.7 126.7,494.3 123.1,492.1 
				114.2,492.1 114.2,491 114.2,482.1 108.9,479.9 108.9,476.5 105.3,473.2 105.3,467.6 100,463.1 98.2,456.4 91.1,453.1 
				85.8,449.7 84,449.7 76.9,457.5 68,457.5 66.2,456.4 66.2,457.5 64.4,457.5 60.9,455.3 57.3,448.6 59.1,443 60.9,443 60.9,438.5 
				66.2,439.7 69.8,435.2 76.9,430.7 76.9,428.5 73.3,428.5 68,426.2 66.2,422.9 69.8,416.2 69.8,415.1 64.4,413.9 60.9,415.1 
				48.4,412.8 44.9,410.6 41.3,412.8 34.2,413.9 32.4,412.8 30.6,409.5 30.6,408.3 14.6,413.9 9.3,415.1 7.5,412.8 12.9,408.3 
				14.6,410.6 18.2,410.6 20,407.2 25.3,406.1 27.1,396 87.5,392.7 100,387 121.3,381.4 164,360.1 181.8,353.4 203.1,356.7 			"/>
			<g id="MAP_NX_XMLID_3459_">
				<polyline id="MAP_NX_XMLID_3551_" class="MAP_NX_ST1" points="262.1,351.1 267.1,351.1 267.1,356.1 				"/>
				<polyline id="MAP_NX_XMLID_3550_" class="MAP_NX_ST64" points="267.1,356.6 267.1,357.9 267,358.5 				"/>
				<polyline id="MAP_NX_XMLID_3549_" class="MAP_NX_ST1" points="266.9,358.7 265.4,363.5 267.1,365.7 265.4,371.3 267.1,372.5 270.7,371.3 
					272.5,365.7 272.5,362.4 274.3,362.4 276.6,357.9 				"/>
				<polyline id="MAP_NX_XMLID_3548_" class="MAP_NX_ST63" points="277.4,356.5 279.6,352.2 279.6,351.3 				"/>
				<polyline id="MAP_NX_XMLID_3547_" class="MAP_NX_ST1" points="279.6,350.5 279.6,345.5 283.2,346.6 283.2,351.1 283.4,351.6 				"/>
				<polyline id="MAP_NX_XMLID_3546_" class="MAP_NX_ST62" points="284.6,354.1 288.5,362.4 288.4,362.9 				"/>
				<polyline id="MAP_NX_XMLID_3545_" class="MAP_NX_ST1" points="288,364.3 286.7,369.1 288.5,370.2 286.8,374.9 				"/>
				<line id="MAP_NX_XMLID_3544_" class="MAP_NX_ST61" x1="286.6" y1="375.7" x2="285.6" y2="378.4"/>
				<polyline id="MAP_NX_XMLID_3543_" class="MAP_NX_ST1" points="285.5,378.8 284.9,380.3 284.9,383.7 288.8,386.9 				"/>
				<polyline id="MAP_NX_XMLID_3542_" class="MAP_NX_ST60" points="289.1,387.2 290.3,388.2 290.5,388.2 				"/>
				<polyline id="MAP_NX_XMLID_3541_" class="MAP_NX_ST1" points="290.7,388.3 295.6,389.3 297.4,392.7 290.3,399.4 290.3,401.6 286.7,403.9 
					285.9,404 				"/>
				<line id="MAP_NX_XMLID_3540_" class="MAP_NX_ST59" x1="285.3" y1="404" x2="283.1" y2="404.3"/>
				<polyline id="MAP_NX_XMLID_3539_" class="MAP_NX_ST1" points="282.8,404.4 277.8,405 281.4,410.6 276,410.6 274.3,411.7 276,415.1 
					271.3,416.6 				"/>
				<line id="MAP_NX_XMLID_3538_" class="MAP_NX_ST58" x1="270.5" y1="416.8" x2="267.8" y2="417.6"/>
				<polyline id="MAP_NX_XMLID_3537_" class="MAP_NX_ST1" points="267.4,417.8 265.4,418.4 263.6,420.6 267.1,422.9 260,426.2 261.8,429.6 
					262.9,430.2 				"/>
				<line id="MAP_NX_XMLID_3536_" class="MAP_NX_ST57" x1="264.6" y1="431.1" x2="270.8" y2="434.5"/>
				<polyline id="MAP_NX_XMLID_3535_" class="MAP_NX_ST1" points="271.7,434.9 274.3,436.3 276,437.4 274.3,439.7 269.3,439.4 				"/>
				<polyline id="MAP_NX_XMLID_3534_" class="MAP_NX_ST56" points="264.5,439.2 251.1,438.5 248.5,440.2 				"/>
				<polyline id="MAP_NX_XMLID_3533_" class="MAP_NX_ST1" points="246.5,441.5 242.3,444.1 243.9,448.9 				"/>
				<line id="MAP_NX_XMLID_3532_" class="MAP_NX_ST55" x1="244.3" y1="450.1" x2="245.8" y2="454.4"/>
				<polyline id="MAP_NX_XMLID_3531_" class="MAP_NX_ST1" points="246,455 247.6,459.8 238.7,464.2 233.4,458.7 235.1,455.3 231.6,447.5 
					224.5,450.8 227.9,454.4 				"/>
				<polyline id="MAP_NX_XMLID_3530_" class="MAP_NX_ST54" points="229.8,458.8 229.8,462 233.4,473.2 235.4,475.4 				"/>
				<polyline id="MAP_NX_XMLID_3529_" class="MAP_NX_ST1" points="237.1,477.3 240.5,481 245.5,481 				"/>
				<polyline id="MAP_NX_XMLID_3528_" class="MAP_NX_ST53" points="249.5,485.9 258.3,503.2 261.3,505.8 				"/>
				<polyline id="MAP_NX_XMLID_3527_" class="MAP_NX_ST1" points="263.9,507.7 268.9,507.7 270.7,511 270.7,513.3 272.5,514.4 276,517.7 
					277.8,517.7 276,519.9 277.8,521 279.6,524.4 281.4,525.5 281.4,528.8 279.6,533.3 284.6,533.3 				"/>
				<polyline id="MAP_NX_XMLID_3526_" class="MAP_NX_ST51" points="288.7,536 290.3,539.9 290.3,542.1 295.6,548.8 295.6,551.8 				"/>
				<polyline id="MAP_NX_XMLID_3525_" class="MAP_NX_ST52" points="295.6,554.4 295.6,555.5 300.9,562.1 302.7,571 308,576.5 308,578.4 				"/>
				<polyline id="MAP_NX_XMLID_3524_" class="MAP_NX_ST1" points="308,581 308,583.2 309.8,585.4 305.3,587.4 				"/>
				<line id="MAP_NX_XMLID_3523_" class="MAP_NX_ST67" x1="303.9" y1="588" x2="299.4" y2="590"/>
				<polyline id="MAP_NX_XMLID_3522_" class="MAP_NX_ST1" points="298.7,590.3 297.4,590.9 293.8,590.9 293.8,593.1 293.8,594.2 290.3,595.4 
					288.5,599.8 286.7,599.8 284.9,603.1 289.2,605.7 				"/>
				<polyline id="MAP_NX_XMLID_3521_" class="MAP_NX_ST68" points="291.3,610.4 292,613 292,618.6 290.3,621.9 288.5,623 285.9,627 				"/>
				<polyline id="MAP_NX_XMLID_3520_" class="MAP_NX_ST1" points="284.9,629.5 284.9,630.7 286.7,634 284.9,637.3 281.4,636.2 279.6,645 
					282.7,648.9 				"/>
				<line id="MAP_NX_XMLID_3519_" class="MAP_NX_ST69" x1="283.2" y1="650.3" x2="283.2" y2="655.8"/>
				<polyline id="MAP_NX_XMLID_3518_" class="MAP_NX_ST1" points="283.2,656.6 283.2,661.6 278.5,659.8 				"/>
				<polyline id="MAP_NX_XMLID_3517_" class="MAP_NX_ST70" points="276.9,659.3 274.3,658.3 271.2,658.3 				"/>
				<polyline id="MAP_NX_XMLID_3516_" class="MAP_NX_ST1" points="270.4,658.3 265.4,658.3 261.8,667.1 260,667.1 258.3,670.4 257.3,671.2 				"/>
				<line id="MAP_NX_XMLID_3515_" class="MAP_NX_ST71" x1="256.8" y1="671.5" x2="255.3" y2="672.7"/>
				<polyline id="MAP_NX_XMLID_3514_" class="MAP_NX_ST1" points="255.1,672.9 251.1,675.9 247.6,672.6 242.3,673.7 245.4,669.8 				"/>
				<line id="MAP_NX_XMLID_3513_" class="MAP_NX_ST72" x1="245.5" y1="669.7" x2="245.8" y2="669.3"/>
				<polyline id="MAP_NX_XMLID_3512_" class="MAP_NX_ST1" points="245.8,669.3 247.6,667.1 247.6,664.9 245.8,663.8 242.3,662.7 240.5,664.9 
					236.9,663.8 231.6,669.3 229.8,669.3 227.3,667.2 				"/>
				<polyline id="MAP_NX_XMLID_3511_" class="MAP_NX_ST73" points="225.2,665.5 224.5,664.9 220.4,657.3 				"/>
				<polyline id="MAP_NX_XMLID_3510_" class="MAP_NX_ST1" points="219.7,656.1 219.1,655 215.6,653.9 211.3,656.5 				"/>
				<line id="MAP_NX_XMLID_3509_" class="MAP_NX_ST74" x1="210.6" y1="656.9" x2="208.3" y2="658.4"/>
				<polyline id="MAP_NX_XMLID_3508_" class="MAP_NX_ST1" points="207.9,658.6 206.7,659.4 203.1,659.4 201.4,663.8 199.2,659.3 				"/>
				<line id="MAP_NX_XMLID_3507_" class="MAP_NX_ST75" x1="199" y1="658.9" x2="198.3" y2="657.5"/>
				<polyline id="MAP_NX_XMLID_3506_" class="MAP_NX_ST1" points="198.2,657.3 196,652.8 197.8,650.6 196,647.3 199.6,645 199.6,641.7 
					198.6,640.3 				"/>
				<polyline id="MAP_NX_XMLID_3505_" class="MAP_NX_ST76" points="196.9,637.6 196,636.2 190.7,634 188.7,630.9 				"/>
				<polyline id="MAP_NX_XMLID_3504_" class="MAP_NX_ST1" points="187.8,629.5 187.1,628.5 185.3,625.2 188.9,624.1 187.1,621.9 187.1,619.7 				
					"/>
				<line id="MAP_NX_XMLID_3503_" class="MAP_NX_ST77" x1="187.1" y1="619.6" x2="187.1" y2="619.2"/>
				<polyline id="MAP_NX_XMLID_3502_" class="MAP_NX_ST1" points="187.1,619.1 187.1,614.1 183.6,611.9 181.8,613 181.1,608.1 				"/>
				<polyline id="MAP_NX_XMLID_3501_" class="MAP_NX_ST78" points="180.7,605.8 180,600.9 178.2,598.2 				"/>
				<polyline id="MAP_NX_XMLID_3500_" class="MAP_NX_ST1" points="177.5,597.3 174.7,593.1 171.1,595.4 165.8,595.4 162.2,590.9 162.2,589.8 
					165.8,587.6 165.8,584.3 164,579.8 160.4,578.7 158.7,574.3 158.7,574.1 				"/>
				<polyline id="MAP_NX_XMLID_3499_" class="MAP_NX_ST79" points="158.7,570.5 158.7,567.7 155.1,561 155.1,559 				"/>
				<polyline id="MAP_NX_XMLID_3498_" class="MAP_NX_ST1" points="156,557.4 158.7,553.2 163.6,552.5 				"/>
				<line id="MAP_NX_XMLID_3497_" class="MAP_NX_ST80" x1="163.6" y1="552.5" x2="163.7" y2="552.5"/>
				<polyline id="MAP_NX_XMLID_3496_" class="MAP_NX_ST1" points="163.7,552.5 165.8,552.1 167.6,549.9 171.1,551 172.3,550.6 				"/>
				<polyline id="MAP_NX_XMLID_3495_" class="MAP_NX_ST81" points="174.3,550 174.7,549.9 176.5,547.7 176.5,543.7 				"/>
				<polyline id="MAP_NX_XMLID_3494_" class="MAP_NX_ST1" points="176.5,542.7 176.5,538.8 176.5,537.7 172.9,538.8 171.1,537.7 172.9,534.4 
					169.4,531 167.6,529.9 167.6,525.5 164,523.3 163.2,523.3 				"/>
				<line id="MAP_NX_XMLID_3493_" class="MAP_NX_ST82" x1="162.1" y1="523.2" x2="158.9" y2="521.1"/>
				<polyline id="MAP_NX_XMLID_3492_" class="MAP_NX_ST1" points="158.3,521 153.3,521 152.8,516.1 				"/>
				<line id="MAP_NX_XMLID_3491_" class="MAP_NX_ST83" x1="152.5" y1="514" x2="151.7" y2="506.7"/>
				<polyline id="MAP_NX_XMLID_3490_" class="MAP_NX_ST1" points="151.6,505.7 151.6,505.5 149.8,501 144.9,500 				"/>
				<polyline id="MAP_NX_XMLID_3489_" class="MAP_NX_ST84" points="143.1,499.6 139.1,498.8 137,497.5 				"/>
				<polyline id="MAP_NX_XMLID_3488_" class="MAP_NX_ST1" points="136.3,497 132,494.3 128.4,497.7 126.7,494.3 125.6,493.7 				"/>
				<polyline id="MAP_NX_XMLID_3487_" class="MAP_NX_ST85" points="124.5,493 123.1,492.1 119.9,492.1 				"/>
				<polyline id="MAP_NX_XMLID_3486_" class="MAP_NX_ST1" points="119.2,492.1 114.2,492.1 114.2,491 114.2,487.1 				"/>
				<line id="MAP_NX_XMLID_3485_" class="MAP_NX_ST86" x1="114.2" y1="487.1" x2="114.2" y2="487.1"/>
				<polyline id="MAP_NX_XMLID_3484_" class="MAP_NX_ST1" points="114.2,487.1 114.2,482.1 108.9,479.9 108.9,476.5 105.3,473.2 105.3,467.6 
					101.5,464.4 				"/>
				<polyline id="MAP_NX_XMLID_3483_" class="MAP_NX_ST87" points="100.9,463.9 100,463.1 99.6,461.6 				"/>
				<polyline id="MAP_NX_XMLID_3482_" class="MAP_NX_ST1" points="99.5,461.3 98.2,456.4 93.7,454.3 				"/>
				<polyline id="MAP_NX_XMLID_3481_" class="MAP_NX_ST88" points="92.6,453.8 91.1,453.1 89,451.7 				"/>
				<polyline id="MAP_NX_XMLID_3480_" class="MAP_NX_ST1" points="88.5,451.4 85.8,449.7 84,449.7 80.6,453.4 				"/>
				<line id="MAP_NX_XMLID_3479_" class="MAP_NX_ST89" x1="80.5" y1="453.5" x2="80.3" y2="453.8"/>
				<polyline id="MAP_NX_XMLID_3478_" class="MAP_NX_ST1" points="80.2,453.8 76.9,457.5 71.9,457.5 				"/>
				<line id="MAP_NX_XMLID_3477_" class="MAP_NX_ST90" x1="71.7" y1="457.5" x2="71" y2="457.5"/>
				<polyline id="MAP_NX_XMLID_3476_" class="MAP_NX_ST1" points="70.9,457.5 68,457.5 66.2,456.4 66.2,457.5 64.4,457.5 61.7,455.8 				"/>
				<polyline id="MAP_NX_XMLID_3475_" class="MAP_NX_ST91" points="61.1,455.4 60.9,455.3 59.8,453.3 				"/>
				<polyline id="MAP_NX_XMLID_3474_" class="MAP_NX_ST1" points="59.7,453 57.3,448.6 59.1,443 60.9,443 60.9,438.5 66.2,439.7 69.3,435.7 				
					"/>
				<line id="MAP_NX_XMLID_3473_" class="MAP_NX_ST92" x1="69.9" y1="435.1" x2="72.3" y2="433.6"/>
				<polyline id="MAP_NX_XMLID_3472_" class="MAP_NX_ST1" points="72.6,433.4 76.9,430.7 76.9,428.5 73.3,428.5 72,427.9 				"/>
				<line id="MAP_NX_XMLID_3471_" class="MAP_NX_ST93" x1="71.4" y1="427.7" x2="69.4" y2="426.8"/>
				<polyline id="MAP_NX_XMLID_3470_" class="MAP_NX_ST1" points="69.1,426.7 68,426.2 66.2,422.9 69.8,416.2 69.8,415.1 64.9,414 				"/>
				<polyline id="MAP_NX_XMLID_3469_" class="MAP_NX_ST94" points="61.8,414.8 60.9,415.1 50.8,413.2 				"/>
				<polyline id="MAP_NX_XMLID_3468_" class="MAP_NX_ST1" points="49.2,413 48.4,412.8 44.9,410.6 41.3,412.8 40.5,412.9 				"/>
				<polyline id="MAP_NX_XMLID_3467_" class="MAP_NX_ST95" points="38.9,413.2 34.2,413.9 33.2,413.3 				"/>
				<polyline id="MAP_NX_XMLID_3466_" class="MAP_NX_ST1" points="32.5,412.9 32.4,412.8 30.6,409.5 30.6,408.3 25.9,410 				"/>
				<line id="MAP_NX_XMLID_3465_" class="MAP_NX_ST96" x1="23.6" y1="410.8" x2="15.4" y2="413.7"/>
				<polyline id="MAP_NX_XMLID_3464_" class="MAP_NX_ST1" points="14.2,414 9.3,415.1 7.5,412.8 12.9,408.3 14.6,410.6 18.2,410.6 20,407.2 
					25.3,406.1 26.2,401.2 				"/>
				<line id="MAP_NX_XMLID_3463_" class="MAP_NX_ST97" x1="26.2" y1="401.1" x2="26.2" y2="401"/>
				<polyline id="MAP_NX_XMLID_3462_" class="MAP_NX_ST1" points="26.2,400.9 27.1,396 32.1,395.7 				"/>
				<line id="MAP_NX_XMLID_3461_" class="MAP_NX_ST98" x1="42.5" y1="395.2" x2="79" y2="393.1"/>
				<polyline id="MAP_NX_XMLID_3460_" class="MAP_NX_ST99" points="84.2,392.8 87.5,392.7 100,387 121.3,381.4 164,360.1 181.8,353.4 203.1,356.7 
					217.4,356.7 226.2,356.7 236.9,353.4 245.8,354.5 249.4,353.4 256.5,353.4 257.4,352.8 				"/>
			</g>
		</g>
		<g id="MAP_NX_XMLID_3386_">
			<g id="MAP_NX_XMLID_3455_" class="MAP_NX_ST100">
				<path id="MAP_NX_XMLID_3456_" class="MAP_NX_ST101" d="M201.4,663.8l1.8-4.4h3.6l8.9-5.5l3.6,1.1l5.3,9.9l5.3,4.4h1.8l5.3-5.5l3.6,1.1l1.8-2.2
					l3.6,1.1l1.8,1.1v2.2l-5.3,6.6l5.3-1.1l3.5,3.3l7.1-5.5l1.8-3.3h1.8l3.5-8.8h8.9l8.9,3.3v-12.1l-3.6-4.4l1.8-8.8l3.6,1.1
					l1.8-3.3l-1.8-3.3v-2.2l3.6-5.5l1.8-1.1l1.8-3.3V613l-1.8-6.6l-5.3-3.3l1.8-3.3h1.8l1.8-4.4l3.6-1.1v-1.1v-2.2h3.6l12.4-5.5
					l5.3-3.3l5.3,2.2v-4.4h3.6l3.6-3.3l3.5,4.4l3.6,1.1l10.7-3.3v-2.2h5.3l1.8-3.3l3.5,3.3v3.3l1.8,2.2l-1.8,2.2l1.8,4.4h-5.3
					l-3.6-3.3l-1.8,3.3l-3.6-3.3h-1.8l1.8,5.5l7.1,2.2v3.3h3.5l3.6,4.4h3.6v3.3l3.6-2.2l3.5,4.4v2.2L365,613l1.8,3.3h-3.6v3.3
					l5.3,2.2l1.8,3.3l-5.3-1.1v11v1.1l1.8,3.3v3.3l-5.3-5.5l-1.8,1.1v1.1l3.6,4.4l1.8,3.3l1.8-1.1l3.5,3.3l3.6-1.1v-6.6h1.8l5.3,4.4
					v-4.4l1.8,3.3l3.6,2.2l1.8-3.3v4.4l1.8-1.1l3.5-1.1l5.3,6.6l1.8,2.2l3.6-1.1l3.5,3.3l5.3-2.2l1.8,3.3l1.8-2.2v1.1l1.8-2.2
					l1.8,4.4l1.8,1.1l3.6,4.4l3.6,1.1l1.8,3.3v3.3l1.8,2.2v1.1l1.8-3.3v4.4l3.6-1.1l-1.8,4.4l3.6,2.2l-3.6,6.6v1.1v3.3l-1.8,2.2v3.3
					l3.6,1.1l-1.8,3.3l-3.6,3.3l-1.8,11l-3.6-1.1l-3.6,3.3v1.1l-1.8,1.1v2.2h5.3v2.2h-1.8v3.3l1.8-1.1l1.8,6.6l1.8-1.1l1.8,3.3
					l1.8,1.1l-5.3,1.1l3.5,3.3l-1.8,4.4l-1.8-2.2v3.3l-3.6-3.3l-1.8,7.7l-1.8-1.1l-3.5,1.1l-1.8-1.1v5.5l-1.8,1.1l-7.1-2.2V755h-1.8
					l-1.8,5.5h1.8v2.2h-3.6l-7.1-4.4l-1.8-3.3v2.2l-3.5,2.2l-3.6-2.2l-1.8-5.5l-1.8,2.2l-1.8-2.2v3.3l-10.7-3.3v3.3l-1.8-2.2
					l-3.5,1.1l-1.8,2.2l-5.3,2.2l-1.8,3.3l-1.8,1.1v5.5l3.6,4.4v1.1l1.8,2.2v3.3l1.8,5.5h-3.6l-1.8,4.4l1.8,3.3l-1.8,3.3l3.6,4.4
					v3.3l3.6,1.1l-1.8,5.4l3.6,6.6l-1.8,5.4l3.6,6.6l-3.6,1.1v5.5l-3.6,3.3l-5.3,2.2l-3.5,4.4l-3.6,1.1h-3.6l1.8,4.4l-3.6,2.2
					l-1.8-3.3h-1.8l-1.8-2.2l-1.8-4.4h-1.8l-3.6-2.2v-5.4l-3.5-2.2l-3.6-3.3l1.8-4.4l-1.8-6.5h-7.1l-1.8-3.3l-1.8-2.2v3.3l-7.1,4.4
					v4.3l-3.5,2.2v-6.5l-3.6-1.1l-1.8-9.8v-6.5l3.6-2.2v-2.2h-1.8l-1.8,3.3l-1.8-2.2l-7.1,2.2l-1.8-3.3l1.8-1.1l-1.8-2.2v1.1
					l-1.8-2.2l-14.2-2.2l-1.8-1.1h-1.8l-1.8,2.2l-1.8-1.1v5.5l-3.6,4.4l-1.8-1.1v-8.7l-1.8,1.1v-4.4v-3.3l-3.6,1.1l-3.5-3.3l1.8-2.2
					l-5.3-3.3l1.8-3.3l-1.8-1.1v2.2l-1.8-1.1v-2.2h-3.6v-1.1v-5.5l-5.3-3.3l1.8-2.2l1.8-1.1l1.8-4.4l1.8,5.5h1.8l1.8-3.3v-3.3
					l-3.6,2.2l-3.6-3.3h-3.5v-1.1l-1.8,1.1l-1.8-2.2l-10.7,5.5v1.1h-3.6l-1.8,4.4l-1.8,1.1l1.8-5.5l-1.8-1.1h-10.7l-1.8-2.2
					l-1.8-4.4l-1.8,1.1v-5.5l-3.6-2.2l-1.8-6.6v1.1l-1.8-1.1l-5.3,5.5l-1.8-2.2l1.8-2.2l-1.8-5.5l1.8-2.2l1.8,1.1l1.8-2.2l-3.5-2.2
					l-7.1-2.2v-2.2l-1.8-3.3h1.8l-1.8-6.6l1.8-2.2v-8.8v-1.1l1.8-5.5l1.8-1.1v-2.2l5.3-3.3l5.3-7.7l5.3-1.1l3.5,1.1l1.8-1.1l1.8-5.5
					l1.8-2.2l-3.6-3.3V663.8z"/>
			</g>
			<g id="MAP_NX_XMLID_3387_">
				<g id="MAP_NX_XMLID_3388_">
					<polyline id="MAP_NX_XMLID_3454_" class="MAP_NX_ST1" points="202.5,675.8 203.1,673.7 204.9,671.5 201.4,668.2 201.4,663.8 203.1,659.4 
						206.7,659.4 207.9,658.6 					"/>
					<line id="MAP_NX_XMLID_3453_" class="MAP_NX_ST74" x1="208.6" y1="658.2" x2="211" y2="656.7"/>
					<polyline id="MAP_NX_XMLID_3452_" class="MAP_NX_ST1" points="211.3,656.5 215.6,653.9 219.1,655 219.7,656.1 					"/>
					<polyline id="MAP_NX_XMLID_3451_" class="MAP_NX_ST73" points="221,658.5 224.5,664.9 226.3,666.4 					"/>
					<polyline id="MAP_NX_XMLID_3450_" class="MAP_NX_ST1" points="227.3,667.2 229.8,669.3 231.6,669.3 236.9,663.8 240.5,664.9 242.3,662.7 
						245.8,663.8 247.6,664.9 247.6,667.1 245.8,669.3 					"/>
					<line id="MAP_NX_XMLID_3449_" class="MAP_NX_ST72" x1="245.7" y1="669.4" x2="245.4" y2="669.8"/>
					<polyline id="MAP_NX_XMLID_3448_" class="MAP_NX_ST1" points="245.4,669.8 242.3,673.7 247.6,672.6 251.1,675.9 255.1,672.9 					"/>
					<line id="MAP_NX_XMLID_3447_" class="MAP_NX_ST71" x1="255.5" y1="672.5" x2="257.1" y2="671.3"/>
					<polyline id="MAP_NX_XMLID_3446_" class="MAP_NX_ST1" points="257.3,671.2 258.3,670.4 260,667.1 261.8,667.1 265.4,658.3 270.4,658.3 					
						"/>
					<polyline id="MAP_NX_XMLID_3445_" class="MAP_NX_ST70" points="272,658.3 274.3,658.3 277.7,659.6 					"/>
					<polyline id="MAP_NX_XMLID_3444_" class="MAP_NX_ST1" points="278.5,659.8 283.2,661.6 283.2,656.6 					"/>
					<line id="MAP_NX_XMLID_3443_" class="MAP_NX_ST69" x1="283.2" y1="655" x2="283.2" y2="649.6"/>
					<polyline id="MAP_NX_XMLID_3442_" class="MAP_NX_ST1" points="282.7,648.9 279.6,645 281.4,636.2 284.9,637.3 286.7,634 284.9,630.7 
						284.9,629.5 					"/>
					<polyline id="MAP_NX_XMLID_3441_" class="MAP_NX_ST68" points="287.3,624.8 288.5,623 290.3,621.9 292,618.6 292,613 290.6,607.8 					"/>
					<polyline id="MAP_NX_XMLID_3440_" class="MAP_NX_ST1" points="289.2,605.7 284.9,603.1 286.7,599.8 288.5,599.8 290.3,595.4 293.8,594.2 
						293.8,593.1 293.8,590.9 297.4,590.9 298.7,590.3 					"/>
					<line id="MAP_NX_XMLID_3439_" class="MAP_NX_ST102" x1="301.2" y1="589.2" x2="309.8" y2="585.4"/>
					<polyline id="MAP_NX_XMLID_3438_" class="MAP_NX_ST1" points="310.9,584.7 315.2,582.1 320.5,584.3 320.5,579.8 324.1,579.8 327.6,576.5 
						330.7,580.4 					"/>
					<polyline id="MAP_NX_XMLID_3437_" class="MAP_NX_ST50" points="332.5,581.4 334.7,582.1 339.6,580.5 					"/>
					<polyline id="MAP_NX_XMLID_3436_" class="MAP_NX_ST1" points="340.6,580.2 345.4,578.7 345.4,576.5 350.7,576.5 352.5,573.2 356.1,576.5 
						356.1,579.8 357.8,582.1 356.1,584.3 357.8,588.7 352.8,588.7 					"/>
					<line id="MAP_NX_XMLID_3435_" class="MAP_NX_ST103" x1="352.8" y1="588.7" x2="352.7" y2="588.7"/>
					<polyline id="MAP_NX_XMLID_3434_" class="MAP_NX_ST1" points="352.6,588.7 352.5,588.7 348.9,585.4 347.2,588.7 343.6,585.4 341.8,585.4 
						343.6,590.9 350.7,593.1 350.7,596.4 354.3,596.4 357.8,600.9 361.4,600.9 361.4,604.2 365,602 368.1,605.9 					"/>
					<polyline id="MAP_NX_XMLID_3433_" class="MAP_NX_ST104" points="368.5,606.4 368.5,608.6 368.3,608.9 					"/>
					<polyline id="MAP_NX_XMLID_3432_" class="MAP_NX_ST1" points="368.1,609.1 365,613 366.7,616.3 363.2,616.3 363.2,619.7 368.5,621.9 
						370.3,625.2 365,624.1 365,629.1 					"/>
					<polyline id="MAP_NX_XMLID_3431_" class="MAP_NX_ST105" points="365,630.9 365,635.1 365,636.2 365.5,637.2 					"/>
					<polyline id="MAP_NX_XMLID_3430_" class="MAP_NX_ST1" points="365.9,638.1 366.7,639.5 366.7,642.9 361.4,637.3 359.6,638.4 359.6,639.5 
						362.1,642.6 					"/>
					<line id="MAP_NX_XMLID_3429_" class="MAP_NX_ST106" x1="362.1" y1="642.7" x2="362.4" y2="642.9"/>
					<polyline id="MAP_NX_XMLID_3428_" class="MAP_NX_ST1" points="362.4,643 363.2,644 365,647.3 366.7,646.1 370.3,649.5 373.8,648.4 
						373.8,641.7 375.6,641.7 380.9,646.1 380.9,641.7 382.7,645 386.3,647.3 388.1,644 388.1,648.4 389.9,647.3 393.4,646.1 
						396.5,650 					"/>
					<line id="MAP_NX_XMLID_3427_" class="MAP_NX_ST107" x1="396.7" y1="650.2" x2="397.3" y2="651"/>
					<polyline id="MAP_NX_XMLID_3426_" class="MAP_NX_ST1" points="397.4,651.1 398.7,652.8 400.5,655 404.1,653.9 407.6,657.2 413,655 
						414.7,658.3 416.5,656.1 416.5,657.2 418.3,655 420.1,659.4 420.3,659.5 					"/>
					<polyline id="MAP_NX_XMLID_3425_" class="MAP_NX_ST108" points="422.9,661.7 425.4,664.9 429,666 430.8,669.3 430.8,669.8 					"/>
					<polyline id="MAP_NX_XMLID_3424_" class="MAP_NX_ST1" points="430.8,671.5 430.8,672.6 432.5,674.8 432.5,675.9 434.3,672.6 434.3,677 
						437.9,675.9 436.1,680.3 439.6,682.5 437.3,686.9 					"/>
					<polyline id="MAP_NX_XMLID_3423_" class="MAP_NX_ST109" points="436.5,688.3 436.1,689.1 436.1,690.2 436.1,693.5 435.9,693.8 					"/>
					<polyline id="MAP_NX_XMLID_3422_" class="MAP_NX_ST1" points="435.4,694.4 434.3,695.7 434.3,699 437.9,700.1 436.1,703.4 435.2,704.2 					
						"/>
					<polyline id="MAP_NX_XMLID_3421_" class="MAP_NX_ST110" points="433.7,705.6 432.5,706.7 431.7,711.8 					"/>
					<polyline id="MAP_NX_XMLID_3420_" class="MAP_NX_ST1" points="431.5,712.7 430.8,717.7 427.2,716.6 423.6,719.9 423.6,721 421.9,722.1 
						421.9,724.3 427.2,724.3 427.2,726.4 425.4,726.4 425.4,729.7 427.2,728.6 429,735.2 430.8,734.1 432.5,737.4 434.3,738.5 
						429,739.6 432.5,742.9 430.8,747.3 429,745.1 429,748.4 425.4,745.1 423.6,752.8 421.9,751.7 418.3,752.8 416.5,751.7 
						416.5,757.1 414.7,758.2 407.6,756.1 407.6,755 405.9,755 404.1,760.4 405.9,760.4 405.9,762.6 402.3,762.6 401.1,761.9 					
						"/>
					<line id="MAP_NX_XMLID_3419_" class="MAP_NX_ST111" x1="400.1" y1="761.3" x2="396.7" y2="759.2"/>
					<polyline id="MAP_NX_XMLID_3418_" class="MAP_NX_ST1" points="396.3,758.9 395.2,758.2 393.4,755 393.4,757.1 389.9,759.3 386.3,757.1 
						384.5,751.7 382.7,753.9 380.9,751.7 380.9,755 376.2,753.5 					"/>
					<line id="MAP_NX_XMLID_3417_" class="MAP_NX_ST112" x1="375.9" y1="753.4" x2="375.2" y2="753.2"/>
					<polyline id="MAP_NX_XMLID_3416_" class="MAP_NX_ST1" points="375.1,753.1 370.3,751.7 370.3,755 368.5,752.8 365,753.9 364.1,754.9 					"/>
					<polyline id="MAP_NX_XMLID_3415_" class="MAP_NX_ST113" points="363.1,756.1 357.8,758.2 357.8,758.2 					"/>
					<polyline id="MAP_NX_XMLID_3414_" class="MAP_NX_ST1" points="357.4,759 356.1,761.5 354.3,762.6 354.3,767.6 					"/>
					<polyline id="MAP_NX_XMLID_3413_" class="MAP_NX_ST114" points="355.7,769.9 357.8,772.5 357.8,773.6 359.6,775.7 359.6,778.4 					"/>
					<polyline id="MAP_NX_XMLID_3412_" class="MAP_NX_ST1" points="359.9,779.7 361.4,784.5 357.8,784.5 356.1,788.9 357.8,792.1 356.1,795.4 
						359.6,799.8 359.6,803.1 363.2,804.2 361.4,809.6 365,816.2 363.2,821.6 366.7,828.2 363.2,829.3 363.2,834.7 359.6,838 
						359.5,838 					"/>
					<polyline id="MAP_NX_XMLID_3411_" class="MAP_NX_ST115" points="357,839.1 354.3,840.2 350.7,844.5 349.8,844.8 					"/>
					<polyline id="MAP_NX_XMLID_3410_" class="MAP_NX_ST1" points="348.5,845.2 347.2,845.6 343.6,845.6 345.4,850 341.8,852.1 340.1,848.9 
						338.3,848.9 336.5,846.7 334.7,842.3 332.9,842.3 329.4,840.2 329.4,834.7 325.8,832.5 322.3,829.3 324.1,824.9 324,824.6 
											"/>
					<line id="MAP_NX_XMLID_3409_" class="MAP_NX_ST116" x1="323.9" y1="824.3" x2="323.6" y2="823.3"/>
					<polyline id="MAP_NX_XMLID_3408_" class="MAP_NX_ST1" points="323.6,823.2 322.3,818.4 315.2,818.4 313.4,815.1 311.6,812.9 311.6,816.2 
						304.5,820.5 304.5,824.9 300.9,827.1 300.9,820.5 297.4,819.5 296.5,814.5 					"/>
					<polyline id="MAP_NX_XMLID_3407_" class="MAP_NX_ST117" points="296.3,813.2 295.6,809.6 295.6,808.7 					"/>
					<polyline id="MAP_NX_XMLID_3406_" class="MAP_NX_ST1" points="295.6,808.1 295.6,803.1 299.2,800.9 299.2,798.7 297.4,798.7 295.6,802 
						293.8,799.8 286.7,802 284.9,798.7 286.7,797.6 284.9,795.4 284.9,796.5 283.2,794.3 281,794 					"/>
					<line id="MAP_NX_XMLID_3405_" class="MAP_NX_ST118" x1="278.8" y1="793.7" x2="271.1" y2="792.5"/>
					<polyline id="MAP_NX_XMLID_3404_" class="MAP_NX_ST1" points="270,792.3 268.9,792.1 267.1,791.1 265.4,791.1 263.6,793.2 261.8,792.1 
						261.8,797.1 					"/>
					<polyline id="MAP_NX_XMLID_3403_" class="MAP_NX_ST119" points="261.8,797.4 261.8,797.6 261.5,798 					"/>
					<polyline id="MAP_NX_XMLID_3402_" class="MAP_NX_ST1" points="261.4,798.1 258.3,802 256.5,800.9 256.5,792.1 254.7,793.2 254.7,788.9 
						254.7,785.6 251.1,786.7 247.6,783.4 249.4,781.2 244,777.9 245.8,774.7 244,773.6 244,775.7 242.3,774.7 242.3,772.5 
						238.7,772.5 238.7,771.4 238.7,765.9 233.4,762.6 235.1,760.4 236.9,759.3 238.7,755 240.5,760.4 242.3,760.4 244,757.1 
						244,753.9 240.5,756.1 236.9,752.8 233.4,752.8 233.4,751.7 231.6,752.8 229.8,750.6 225.4,752.9 					"/>
					<line id="MAP_NX_XMLID_3401_" class="MAP_NX_ST120" x1="225" y1="753" x2="223.8" y2="753.7"/>
					<polyline id="MAP_NX_XMLID_3400_" class="MAP_NX_ST1" points="223.6,753.8 219.1,756.1 219.1,757.1 215.6,757.1 213.8,761.5 212,762.6 
						213.8,757.1 212,756.1 209.1,756.1 					"/>
					<line id="MAP_NX_XMLID_3399_" class="MAP_NX_ST121" x1="208.5" y1="756.1" x2="206.6" y2="756.1"/>
					<polyline id="MAP_NX_XMLID_3398_" class="MAP_NX_ST1" points="206.4,756.1 201.4,756.1 199.6,753.9 197.8,749.5 196,750.6 196,745.1 
						192.5,742.9 192.3,742.1 					"/>
					<line id="MAP_NX_XMLID_3397_" class="MAP_NX_ST122" x1="192.2" y1="741.9" x2="192" y2="741.3"/>
					<polyline id="MAP_NX_XMLID_3396_" class="MAP_NX_ST1" points="192,741.2 190.7,736.3 190.7,737.4 188.9,736.3 183.6,741.8 181.8,739.6 
						183.6,737.4 181.8,731.9 183.6,729.7 185.3,730.8 187.1,728.6 183.6,726.4 182.8,726.2 					"/>
					<line id="MAP_NX_XMLID_3395_" class="MAP_NX_ST123" x1="182.5" y1="726.1" x2="181.4" y2="725.8"/>
					<polyline id="MAP_NX_XMLID_3394_" class="MAP_NX_ST1" points="181.2,725.7 176.5,724.3 176.5,722.1 174.7,718.8 176.5,718.8 174.7,712.2 
						176.5,710 176.5,707.8 					"/>
					<polyline id="MAP_NX_XMLID_3393_" class="MAP_NX_ST124" points="176.5,705.7 176.5,701.2 176.5,700.1 177,698.4 					"/>
					<polyline id="MAP_NX_XMLID_3392_" class="MAP_NX_ST1" points="177.3,697.4 178.2,694.6 180,693.5 180,691.3 184.3,688.7 					"/>
					<polyline id="MAP_NX_XMLID_3391_" class="MAP_NX_ST125" points="186.3,686.6 190.7,680.3 193.3,679.8 					"/>
					<polyline id="MAP_NX_XMLID_3390_" class="MAP_NX_ST1" points="194.8,679.5 196,679.2 199.6,680.3 201.4,679.2 202.2,676.4 					"/>
					<line id="MAP_NX_XMLID_3389_" class="MAP_NX_ST126" x1="202.3" y1="676.3" x2="202.4" y2="675.8"/>
				</g>
			</g>
		</g>
		<g id="MAP_NX_XMLID_3315_">
			<polygon id="MAP_NX_XMLID_3385_" class="MAP_NX_ST66" points="286.7,115.5 293.8,117.8 300.9,123.4 302.7,124.6 302.7,126.9 304.5,129.2 
				316.9,131.4 324.1,128 331.2,133.7 336.5,131.4 336.5,136 340.1,133.7 347.2,133.7 347.2,134.9 345.4,138.3 347.2,139.4 
				347.2,140.6 352.5,147.4 356.1,147.4 354.3,150.8 356.1,153.1 359.6,152 359.6,149.7 363.2,149.7 379.2,155.4 379.2,157.6 
				382.7,161.1 389.9,161.1 388.1,164.5 391.6,167.9 388.1,191.8 388.1,195.2 382.7,207.7 361.4,225.8 361.4,229.2 372.1,242.8 
				416.5,262.1 414.7,265.4 416.5,268.8 425.4,284.7 420.1,288 414.7,286.9 409.4,290.3 407.6,294.8 409.4,300.5 411.2,306.1 
				413,306.1 414.7,308.3 416.5,324.1 423.6,324.1 423.6,334.3 418.3,341 405.9,353.4 405.9,357.9 407.6,371.3 397,370.2 388.1,368 
				375.6,379.2 377.4,385.9 375.6,390.4 370.3,392.7 366.7,394.9 366.7,396 365,398.3 361.4,399.4 356.1,398.3 345.4,392.7 
				343.6,384.8 343.6,381.4 338.3,380.3 336.5,379.2 336.5,375.8 331.2,370.2 331.2,364.6 329.4,361.2 331.2,355.6 329.4,350 
				325.8,345.5 324.1,341 325.8,338.7 331.2,339.9 334.7,337.6 332.9,333.1 331.2,332 331.2,329.7 331.2,321.9 332.9,320.7 
				340.1,320.7 341.8,319.6 341.8,311.7 338.3,310.6 336.5,308.3 332.9,307.2 331.2,306.1 334.7,301.6 334.7,299.3 331.2,297.1 
				327.6,298.2 322.3,286.9 318.7,282.4 320.5,274.5 318.7,270 313.4,264.3 304.5,264.3 304.5,262.1 302.7,258.7 302.7,257.5 
				297.4,257.5 297.4,255.3 299.2,255.3 300.9,253 299.2,251.9 292,259.8 286.7,257.5 284.9,254.1 283.2,254.1 281.4,258.7 
				279.6,266.6 274.3,266.6 279.6,251.9 279.6,249.6 270.7,246.2 267.1,241.7 261.8,241.7 263.6,233.8 258.3,227 258.3,222.4 
				260,217.9 258.3,208.8 261.8,206.5 260,198.6 261.8,190.6 263.6,186.1 263.6,175.9 265.4,173.6 263.6,169 263.6,163.3 
				268.9,154.2 268.9,147.4 270.7,146.3 270.7,136 276,131.4 277.8,125.7 284.9,118.9 			"/>
			<g id="MAP_NX_XMLID_3316_">
				<polyline id="MAP_NX_XMLID_3384_" class="MAP_NX_ST1" points="284.1,119.7 284.9,118.9 286.7,115.5 291.5,117 				"/>
				<polyline id="MAP_NX_XMLID_3383_" class="MAP_NX_ST127" points="293.1,117.5 293.8,117.8 298,121.1 				"/>
				<polyline id="MAP_NX_XMLID_3382_" class="MAP_NX_ST1" points="298.7,121.6 300.9,123.4 302.7,124.6 302.7,126.9 304.4,129 				"/>
				<polyline id="MAP_NX_XMLID_3381_" class="MAP_NX_ST128" points="307.4,129.7 316.9,131.4 318.1,130.9 				"/>
				<polyline id="MAP_NX_XMLID_3380_" class="MAP_NX_ST1" points="319.6,130.2 324.1,128 331.2,133.7 336.5,131.4 336.5,136 340.1,133.7 
					340.8,133.7 				"/>
				<line id="MAP_NX_XMLID_3379_" class="MAP_NX_ST129" x1="341.1" y1="133.7" x2="342" y2="133.7"/>
				<polyline id="MAP_NX_XMLID_3378_" class="MAP_NX_ST1" points="342.2,133.7 347.2,133.7 347.2,134.9 345.4,138.3 347.2,139.4 347.2,140.6 
					352.5,147.4 356.1,147.4 354.3,150.8 356.1,153.1 359.6,152 359.6,149.7 363.2,149.7 364.5,150.2 				"/>
				<line id="MAP_NX_XMLID_3377_" class="MAP_NX_ST130" x1="366.5" y1="150.9" x2="373.5" y2="153.3"/>
				<polyline id="MAP_NX_XMLID_3376_" class="MAP_NX_ST1" points="374.5,153.7 379.2,155.4 379.2,157.6 382.7,161.1 382.8,161.1 				"/>
				<line id="MAP_NX_XMLID_3375_" class="MAP_NX_ST131" x1="383.2" y1="161.1" x2="384.6" y2="161.1"/>
				<polyline id="MAP_NX_XMLID_3374_" class="MAP_NX_ST1" points="384.9,161.1 389.9,161.1 388.1,164.5 391.6,167.9 390.9,172.9 				"/>
				<polyline id="MAP_NX_XMLID_3373_" class="MAP_NX_ST132" points="390.1,178.2 388.1,191.8 388.1,195.2 387.4,196.7 				"/>
				<polyline id="MAP_NX_XMLID_3372_" class="MAP_NX_ST133" points="386.4,199.2 382.7,207.7 367.3,220.8 				"/>
				<polyline id="MAP_NX_XMLID_3371_" class="MAP_NX_ST1" points="365.2,222.6 361.4,225.8 361.4,229.2 362.4,230.5 				"/>
				<polyline id="MAP_NX_XMLID_3370_" class="MAP_NX_ST134" points="365.7,234.7 372.1,242.8 379.9,246.2 				"/>
				<line id="MAP_NX_XMLID_3369_" class="MAP_NX_ST135" x1="382.3" y1="247.3" x2="409.5" y2="259"/>
				<polyline id="MAP_NX_XMLID_3368_" class="MAP_NX_ST1" points="411.9,260.1 416.5,262.1 414.7,265.4 416.5,268.8 417.1,269.9 				"/>
				<line id="MAP_NX_XMLID_3367_" class="MAP_NX_ST27" x1="418.3" y1="271.9" x2="422.4" y2="279.3"/>
				<polyline id="MAP_NX_XMLID_3366_" class="MAP_NX_ST1" points="423,280.3 425.4,284.7 421.2,287.3 				"/>
				<polyline id="MAP_NX_XMLID_3365_" class="MAP_NX_ST26" points="416.5,287.3 414.7,286.9 409.4,290.3 407.6,294.8 408.9,299 				"/>
				<polyline id="MAP_NX_XMLID_3364_" class="MAP_NX_ST1" points="409.7,301.3 411.2,306.1 413,306.1 414.7,308.3 415,310.4 				"/>
				<line id="MAP_NX_XMLID_3363_" class="MAP_NX_ST25" x1="415.2" y1="312.2" x2="415.9" y2="318.3"/>
				<polyline id="MAP_NX_XMLID_3362_" class="MAP_NX_ST1" points="416,319.1 416.5,324.1 423.6,324.1 423.6,329.1 				"/>
				<polyline id="MAP_NX_XMLID_3361_" class="MAP_NX_ST24" points="423.6,334.3 418.3,341 411.3,348 				"/>
				<polyline id="MAP_NX_XMLID_3360_" class="MAP_NX_ST1" points="409.4,349.8 405.9,353.4 405.9,357.9 405.9,358.4 				"/>
				<line id="MAP_NX_XMLID_3359_" class="MAP_NX_ST23" x1="406.1" y1="360" x2="406.9" y2="365.6"/>
				<polyline id="MAP_NX_XMLID_3358_" class="MAP_NX_ST1" points="407,366.4 407.6,371.3 402.7,370.8 				"/>
				<polyline id="MAP_NX_XMLID_3357_" class="MAP_NX_ST22" points="400.7,370.6 397,370.2 393.9,369.4 				"/>
				<polyline id="MAP_NX_XMLID_3356_" class="MAP_NX_ST1" points="392.9,369.2 388.1,368 384.4,371.3 				"/>
				<line id="MAP_NX_XMLID_3355_" class="MAP_NX_ST21" x1="383.4" y1="372.2" x2="379.8" y2="375.4"/>
				<polyline id="MAP_NX_XMLID_3354_" class="MAP_NX_ST1" points="379.3,375.8 375.6,379.2 376.9,384 				"/>
				<line id="MAP_NX_XMLID_3353_" class="MAP_NX_ST20" x1="377" y1="384.4" x2="377.3" y2="385.6"/>
				<polyline id="MAP_NX_XMLID_3352_" class="MAP_NX_ST1" points="377.4,385.8 377.4,385.9 375.6,390.4 370.3,392.7 366.7,394.9 366.7,396 
					365,398.3 364,398.6 				"/>
				<polyline id="MAP_NX_XMLID_3351_" class="MAP_NX_ST19" points="361.1,399.3 356.1,398.3 351.2,395.7 				"/>
				<polyline id="MAP_NX_XMLID_3350_" class="MAP_NX_ST1" points="349.8,395 345.4,392.7 344.3,387.8 				"/>
				<line id="MAP_NX_XMLID_3349_" class="MAP_NX_ST18" x1="344.2" y1="387.5" x2="344" y2="386.5"/>
				<polyline id="MAP_NX_XMLID_3348_" class="MAP_NX_ST1" points="344,386.4 343.6,384.8 343.6,381.4 338.3,380.3 336.5,379.2 336.5,375.8 
					335.4,374.6 				"/>
				<polyline id="MAP_NX_XMLID_3347_" class="MAP_NX_ST17" points="333.9,373.1 331.2,370.2 331.2,366.8 				"/>
				<polyline id="MAP_NX_XMLID_3346_" class="MAP_NX_ST1" points="331.2,365.8 331.2,364.6 329.4,361.2 330.9,356.5 				"/>
				<polyline id="MAP_NX_XMLID_3345_" class="MAP_NX_ST16" points="330.7,354.1 329.4,350 326.7,346.6 				"/>
				<polyline id="MAP_NX_XMLID_3344_" class="MAP_NX_ST1" points="325.9,345.6 325.8,345.5 324.1,341 325.8,338.7 331.2,339.9 334.7,337.6 
					332.9,333.1 331.2,332 331.2,329.7 331.2,327 				"/>
				<line id="MAP_NX_XMLID_3343_" class="MAP_NX_ST15" x1="331.2" y1="327" x2="331.2" y2="326.9"/>
				<polyline id="MAP_NX_XMLID_3342_" class="MAP_NX_ST1" points="331.2,326.9 331.2,321.9 332.9,320.7 335.8,320.7 				"/>
				<line id="MAP_NX_XMLID_3341_" class="MAP_NX_ST14" x1="336.1" y1="320.7" x2="337" y2="320.7"/>
				<polyline id="MAP_NX_XMLID_3340_" class="MAP_NX_ST1" points="337.2,320.7 340.1,320.7 341.8,319.6 341.8,311.7 338.3,310.6 337.5,309.6 				
					"/>
				<polyline id="MAP_NX_XMLID_3339_" class="MAP_NX_ST13" points="337.2,309.2 336.5,308.3 335.9,308.2 				"/>
				<polyline id="MAP_NX_XMLID_3338_" class="MAP_NX_ST1" points="335.7,308.1 332.9,307.2 331.2,306.1 334.7,301.6 334.7,299.3 331.2,297.1 
					327.6,298.2 325.5,293.7 				"/>
				<line id="MAP_NX_XMLID_3337_" class="MAP_NX_ST12" x1="324.8" y1="292.2" x2="322.3" y2="287"/>
				<polyline id="MAP_NX_XMLID_3336_" class="MAP_NX_ST1" points="321.8,286.3 318.7,282.4 319.8,277.5 				"/>
				<polyline id="MAP_NX_XMLID_3335_" class="MAP_NX_ST11" points="320.3,275.4 320.5,274.5 318.7,270 317.6,268.7 				"/>
				<polyline id="MAP_NX_XMLID_3334_" class="MAP_NX_ST1" points="316.8,268 313.4,264.3 304.5,264.3 304.5,262.1 302.7,258.7 302.7,257.5 
					297.4,257.5 297.4,255.3 299.2,255.3 300.9,253 299.2,251.9 295.8,255.6 				"/>
				<line id="MAP_NX_XMLID_3333_" class="MAP_NX_ST10" x1="295.7" y1="255.7" x2="295.4" y2="256"/>
				<polyline id="MAP_NX_XMLID_3332_" class="MAP_NX_ST1" points="295.4,256.1 292,259.8 286.7,257.5 284.9,254.1 283.2,254.1 281.4,258.7 
					281.3,258.8 				"/>
				<line id="MAP_NX_XMLID_3331_" class="MAP_NX_ST9" x1="281.2" y1="259.4" x2="280.8" y2="261.4"/>
				<polyline id="MAP_NX_XMLID_3330_" class="MAP_NX_ST1" points="280.7,261.7 279.6,266.6 274.3,266.6 276,261.9 				"/>
				<line id="MAP_NX_XMLID_3329_" class="MAP_NX_ST8" x1="276.5" y1="260.4" x2="278.4" y2="255.2"/>
				<polyline id="MAP_NX_XMLID_3328_" class="MAP_NX_ST1" points="278.7,254.4 279.6,251.9 279.6,249.6 274.9,247.8 				"/>
				<polyline id="MAP_NX_XMLID_3327_" class="MAP_NX_ST7" points="273.9,247.4 270.7,246.2 270.6,246 				"/>
				<polyline id="MAP_NX_XMLID_3326_" class="MAP_NX_ST1" points="270.2,245.6 267.1,241.7 261.8,241.7 263.6,233.8 260.5,229.8 				"/>
				<polyline id="MAP_NX_XMLID_3325_" class="MAP_NX_ST136" points="258.4,227.1 258.3,227 258.3,222.4 260,217.9 259.6,215.4 				"/>
				<polyline id="MAP_NX_XMLID_3324_" class="MAP_NX_ST1" points="259.2,213.7 258.3,208.8 261.8,206.5 260.7,201.7 				"/>
				<polyline id="MAP_NX_XMLID_3323_" class="MAP_NX_ST137" points="260.4,196.9 261.8,190.6 263.6,186.1 263.6,180.4 				"/>
				<polyline id="MAP_NX_XMLID_3322_" class="MAP_NX_ST1" points="263.6,178 263.6,175.9 265.4,173.6 263.6,169 263.6,168.9 				"/>
				<polyline id="MAP_NX_XMLID_3321_" class="MAP_NX_ST138" points="263.6,165.3 263.6,163.3 268.9,154.2 268.9,154.2 				"/>
				<polyline id="MAP_NX_XMLID_3320_" class="MAP_NX_ST1" points="268.9,152.4 268.9,147.4 270.7,146.3 270.7,141.3 				"/>
				<line id="MAP_NX_XMLID_3319_" class="MAP_NX_ST139" x1="270.7" y1="141.2" x2="270.7" y2="141"/>
				<polyline id="MAP_NX_XMLID_3318_" class="MAP_NX_ST1" points="270.7,141 270.7,136 274.5,132.7 				"/>
				<polyline id="MAP_NX_XMLID_3317_" class="MAP_NX_ST140" points="276.4,130.2 277.8,125.7 282.9,120.8 				"/>
			</g>
		</g>
		<g id="MAP_NX_XMLID_3275_">
			<polygon id="MAP_NX_XMLID_3314_" class="MAP_NX_ST0" points="441.4,88 439.6,99.5 420.1,117.8 411.2,131.4 398.7,142.8 391.6,167.9 
				388.1,164.5 389.9,161.1 382.7,161.1 379.2,157.6 379.2,155.4 363.2,149.7 359.6,149.7 359.6,152 356.1,153.1 354.3,150.8 
				356.1,147.4 352.5,147.4 347.2,140.6 347.2,139.4 345.4,138.3 347.2,134.9 347.2,133.7 340.1,133.7 336.5,136 336.5,131.4 
				331.2,133.7 324.1,128 316.9,131.4 304.5,129.2 302.7,126.9 302.7,124.6 300.9,123.4 293.8,117.8 286.7,115.5 283.2,114.3 
				281.4,112 288.5,102.9 288.5,101.8 293.8,97.2 295.6,96 297.4,93.7 300.9,85.7 299.2,83.5 299.2,77.7 302.7,70.8 304.5,69.7 
				304.5,67.4 304.5,64 309.8,57.1 313.4,57.1 316.9,59.4 325.8,61.7 327.6,60.5 331.2,59.4 332.9,56 331.2,47.9 332.9,42.2 
				331.2,36.4 331.2,30.7 361.4,29.6 368.5,23.8 382.7,8.9 389.9,13.5 395.2,14.6 404.1,6.6 405.9,10 411.2,12.3 411.2,18.1 
				413,21.5 413,29.6 411.2,38.7 421.9,59.4 420.1,62.8 420.1,70.8 425.4,67.4 436.1,72 441.4,76.6 			"/>
			<g id="MAP_NX_XMLID_3276_">
				<polyline id="MAP_NX_XMLID_3313_" class="MAP_NX_ST1" points="393,163.1 391.6,167.9 388.1,164.5 389.9,161.1 384.9,161.1 				"/>
				<line id="MAP_NX_XMLID_3312_" class="MAP_NX_ST131" x1="384.4" y1="161.1" x2="383" y2="161.1"/>
				<polyline id="MAP_NX_XMLID_3311_" class="MAP_NX_ST1" points="382.8,161.1 382.7,161.1 379.2,157.6 379.2,155.4 374.5,153.7 				"/>
				<line id="MAP_NX_XMLID_3310_" class="MAP_NX_ST130" x1="372.5" y1="153" x2="365.5" y2="150.5"/>
				<polyline id="MAP_NX_XMLID_3309_" class="MAP_NX_ST1" points="364.5,150.2 363.2,149.7 359.6,149.7 359.6,152 356.1,153.1 354.3,150.8 
					356.1,147.4 352.5,147.4 347.2,140.6 347.2,139.4 345.4,138.3 347.2,134.9 347.2,133.7 342.2,133.7 				"/>
				<line id="MAP_NX_XMLID_3308_" class="MAP_NX_ST129" x1="341.9" y1="133.7" x2="341" y2="133.7"/>
				<polyline id="MAP_NX_XMLID_3307_" class="MAP_NX_ST1" points="340.8,133.7 340.1,133.7 336.5,136 336.5,131.4 331.2,133.7 324.1,128 
					319.6,130.2 				"/>
				<line id="MAP_NX_XMLID_3306_" class="MAP_NX_ST128" x1="316.7" y1="131.4" x2="305.9" y2="129.4"/>
				<polyline id="MAP_NX_XMLID_3305_" class="MAP_NX_ST1" points="304.4,129 302.7,126.9 302.7,124.6 300.9,123.4 298.7,121.6 				"/>
				<polyline id="MAP_NX_XMLID_3304_" class="MAP_NX_ST141" points="296.3,119.7 293.8,117.8 286.7,115.5 286.6,115.4 				"/>
				<polyline id="MAP_NX_XMLID_3303_" class="MAP_NX_ST1" points="285.2,115 283.2,114.3 281.4,112 284.4,108.1 				"/>
				<line id="MAP_NX_XMLID_3302_" class="MAP_NX_ST142" x1="284.8" y1="107.7" x2="285.9" y2="106.2"/>
				<polyline id="MAP_NX_XMLID_3301_" class="MAP_NX_ST1" points="286.1,105.9 288.5,102.9 288.5,101.8 292.3,98.5 				"/>
				<polyline id="MAP_NX_XMLID_3300_" class="MAP_NX_ST143" points="293.9,97.1 295.6,96 297.4,93.7 298.5,91.3 				"/>
				<polyline id="MAP_NX_XMLID_3299_" class="MAP_NX_ST1" points="298.9,90.3 300.9,85.7 299.2,83.5 299.2,81.3 				"/>
				<polyline id="MAP_NX_XMLID_3298_" class="MAP_NX_ST144" points="299.2,79.6 299.2,77.7 301,74.2 				"/>
				<polyline id="MAP_NX_XMLID_3297_" class="MAP_NX_ST1" points="301.4,73.4 302.7,70.8 304.5,69.7 304.5,67.4 304.5,64.7 				"/>
				<line id="MAP_NX_XMLID_3296_" class="MAP_NX_ST145" x1="304.6" y1="63.9" x2="306.5" y2="61.4"/>
				<polyline id="MAP_NX_XMLID_3295_" class="MAP_NX_ST1" points="306.8,61 309.8,57.1 313.4,57.1 314.6,57.9 				"/>
				<polyline id="MAP_NX_XMLID_3294_" class="MAP_NX_ST146" points="315.8,58.6 316.9,59.4 320.3,60.3 				"/>
				<polyline id="MAP_NX_XMLID_3293_" class="MAP_NX_ST1" points="321,60.4 325.8,61.7 327.6,60.5 330.4,59.7 				"/>
				<polyline id="MAP_NX_XMLID_3292_" class="MAP_NX_ST147" points="332.9,55.5 331.2,47.9 332.9,42.2 331.7,38.2 				"/>
				<polyline id="MAP_NX_XMLID_3291_" class="MAP_NX_ST1" points="331.2,35.7 331.2,30.7 336.2,30.5 				"/>
				<polyline id="MAP_NX_XMLID_3290_" class="MAP_NX_ST148" points="346.2,30.1 361.4,29.6 368.5,23.8 375.8,16.1 				"/>
				<polyline id="MAP_NX_XMLID_3289_" class="MAP_NX_ST1" points="379.3,12.5 382.7,8.9 386.9,11.6 				"/>
				<polyline id="MAP_NX_XMLID_3288_" class="MAP_NX_ST149" points="387.6,12 389.9,13.5 389.9,13.5 				"/>
				<polyline id="MAP_NX_XMLID_3287_" class="MAP_NX_ST1" points="390.3,13.6 395.2,14.6 398.9,11.3 				"/>
				<line id="MAP_NX_XMLID_3286_" class="MAP_NX_ST150" x1="399.2" y1="11" x2="400.2" y2="10.1"/>
				<polyline id="MAP_NX_XMLID_3285_" class="MAP_NX_ST1" points="400.4,9.9 404.1,6.6 405.9,10 411.2,12.3 411.2,17.3 				"/>
				<polyline id="MAP_NX_XMLID_3284_" class="MAP_NX_ST151" points="413,24.9 413,29.6 411.2,38.7 417.7,51.4 				"/>
				<polyline id="MAP_NX_XMLID_3283_" class="MAP_NX_ST1" points="419.6,55 421.9,59.4 420.1,62.8 420.1,64 				"/>
				<line id="MAP_NX_XMLID_3282_" class="MAP_NX_ST152" x1="420.1" y1="64.3" x2="420.1" y2="65.7"/>
				<polyline id="MAP_NX_XMLID_3281_" class="MAP_NX_ST1" points="420.1,65.8 420.1,70.8 425.4,67.4 430,69.4 				"/>
				<polyline id="MAP_NX_XMLID_3280_" class="MAP_NX_ST153" points="431.6,70.1 436.1,72 437,72.8 				"/>
				<polyline id="MAP_NX_XMLID_3279_" class="MAP_NX_ST1" points="437.6,73.3 441.4,76.6 441.4,81.6 				"/>
				<polyline id="MAP_NX_XMLID_3278_" class="MAP_NX_ST154" points="441,90.6 439.6,99.5 423.2,114.8 				"/>
				<polyline id="MAP_NX_XMLID_3277_" class="MAP_NX_ST155" points="420,117.9 411.2,131.4 398.7,142.8 394.2,158.8 				"/>
			</g>
		</g>
	</g>
</g>
<g id="MAP_NX_XMLID_51_">
	<text id="MAP_NX_XMLID_54_" transform="matrix(1 0 0 1 268.6053 414.3839)" class="MAP_NX_ST156 MAP_NX_ST157 MAP_NX_ST158">红</text>
	<text id="MAP_NX_XMLID_53_" transform="matrix(1 0 0 1 276.6821 422.0071)" class="MAP_NX_ST156 MAP_NX_ST157 MAP_NX_ST158">柳</text>
	<text id="MAP_NX_XMLID_52_" transform="matrix(1 0 0 1 286.5777 428.3972)" class="MAP_NX_ST156 MAP_NX_ST157 MAP_NX_ST158">沟</text>
</g>
<g id="MAP_NX_XMLID_47_">
	<text id="MAP_NX_XMLID_50_" transform="matrix(1 0 0 1 270.1331 483.9891)" class="MAP_NX_ST156 MAP_NX_ST157 MAP_NX_ST159">清</text>
	<text id="MAP_NX_XMLID_49_" transform="matrix(1 0 0 1 296.289 530.3837)" class="MAP_NX_ST156 MAP_NX_ST157 MAP_NX_ST159">水</text>
	<text id="MAP_NX_XMLID_48_" transform="matrix(1 0 0 1 313.6064 571.3326)" class="MAP_NX_ST156 MAP_NX_ST157 MAP_NX_ST159">河</text>
</g>
<g id="MAP_NX_XMLID_43_">
	<text id="MAP_NX_XMLID_46_" transform="matrix(1 0 0 1 249.9053 735.4431)" class="MAP_NX_ST156 MAP_NX_ST157 MAP_NX_ST158">葫</text>
	<text id="MAP_NX_XMLID_45_" transform="matrix(1 0 0 1 245.1758 760.4698)" class="MAP_NX_ST156 MAP_NX_ST157 MAP_NX_ST158">芦</text>
	<text id="MAP_NX_XMLID_44_" transform="matrix(1 0 0 1 241.2463 789.512)" class="MAP_NX_ST156 MAP_NX_ST157 MAP_NX_ST158">河</text>
</g>
<g id="MAP_NX_XMLID_40_">
	<text id="MAP_NX_XMLID_42_" transform="matrix(1 0 0 1 374.4078 780.3683)" class="MAP_NX_ST156 MAP_NX_ST157 MAP_NX_ST158">泾</text>
	<text id="MAP_NX_XMLID_41_" transform="matrix(1 0 0 1 390.0463 793.4846)" class="MAP_NX_ST156 MAP_NX_ST157 MAP_NX_ST158">河</text>
</g>
<path id="MAP_NX_XMLID_39_" class="MAP_NX_ST160" d="M342.5,740.7"/>
<g id="MAP_NX_XMLID_36_">
	<text id="MAP_NX_XMLID_38_" transform="matrix(1 0 0 1 351.9205 683.6763)" class="MAP_NX_ST156 MAP_NX_ST157 MAP_NX_ST158">小</text>
	<text id="MAP_NX_XMLID_37_" transform="matrix(1 0 0 1 351.92 702.2633)" class="MAP_NX_ST156 MAP_NX_ST157 MAP_NX_ST158">河</text>
</g>
<g id="MAP_NX_XMLID_33_">
	<text id="MAP_NX_XMLID_35_" transform="matrix(1 0 0 1 420.6951 743.0669)" class="MAP_NX_ST156 MAP_NX_ST157 MAP_NX_ST158">河</text>
	<text id="MAP_NX_XMLID_34_" transform="matrix(1 0 0 1 400.5966 736.5232)" class="MAP_NX_ST156 MAP_NX_ST157 MAP_NX_ST158">茹</text>
</g>
<g id="MAP_NX_XMLID_29_">
	<text id="MAP_NX_XMLID_32_" transform="matrix(1 0 0 1 325.0693 404.7277)" class="MAP_NX_ST156 MAP_NX_ST157 MAP_NX_ST158">河</text>
	<text id="MAP_NX_XMLID_31_" transform="matrix(1 0 0 1 319.8299 362.598)" class="MAP_NX_ST156 MAP_NX_ST157 MAP_NX_ST158">苦</text>
	<text id="MAP_NX_XMLID_30_" transform="matrix(1 0 0 1 322.3044 383.6715)" class="MAP_NX_ST156 MAP_NX_ST157 MAP_NX_ST158">水</text>
</g>
<g id="MAP_NX_XMLID_25_">
	<text id="MAP_NX_XMLID_28_" transform="matrix(1 0 0 1 314.0089 556.7629)" class="MAP_NX_ST156 MAP_NX_ST157 MAP_NX_ST158">折</text>
	<text id="MAP_NX_XMLID_27_" transform="matrix(1 0 0 1 335.5473 546.0165)" class="MAP_NX_ST156 MAP_NX_ST157 MAP_NX_ST158">死</text>
	<text id="MAP_NX_XMLID_26_" transform="matrix(1 0 0 1 358.686 526.1957)" class="MAP_NX_ST156 MAP_NX_ST157 MAP_NX_ST158">沟</text>
</g>
<g id="MAP_NX_XMLID_20_">
	<text id="MAP_NX_XMLID_24_" transform="matrix(1 0 0 1 364.2886 276.4004)" class="MAP_NX_ST156 MAP_NX_ST157 MAP_NX_ST158">河</text>
	<text id="MAP_NX_XMLID_23_" transform="matrix(1 0 0 1 354.2682 279.1929)" class="MAP_NX_ST156 MAP_NX_ST157 MAP_NX_ST158">大</text>
	<text id="MAP_NX_XMLID_22_" transform="matrix(1 0 0 1 395.6494 282.0253)" class="MAP_NX_ST156 MAP_NX_ST157 MAP_NX_ST158">沟</text>
	<text id="MAP_NX_XMLID_21_" transform="matrix(1 0 0 1 379.3505 284.4937)" class="MAP_NX_ST156 MAP_NX_ST157 MAP_NX_ST158">子</text>
</g>
<g id="MAP_NX_XMLID_2_">
	<path id="MAP_NX_XMLID_19_" class="MAP_NX_ST161" d="M264.1,378.8c0.3,8.4,5,15.9,9.6,22.9c4,6.2,8.1,12.5,14,16.9c3.6,2.7,7.7,4.6,11.8,6.4
		c7.3,3.3,14.6,6.6,21.9,9.9"/>
	<path id="MAP_NX_XMLID_18_" class="MAP_NX_ST161" d="M234.5,810.1c0.5-3,1.8-5.9,3.7-8.3c2.8-3.6,6.8-6.1,9.5-9.8c1.9-2.6,3-5.7,4.1-8.8
		c0.7-1.8,1.3-3.7,1.6-5.7c0.4-3.4-0.5-6.8-0.9-10.2c-1-7.5,0.3-15.3,4-21.9c1.2-2.2,2.7-4.3,3.1-6.7c0.6-3.5-1.1-7-2.7-10.1
		c-1.5-2.9-2.9-5.7-4.4-8.6c-1.2-2.3-3.7-3.5-0.4-5.5c1-0.6,2.1-1,3.1-1.6c2.2-1.4,3.5-4,5.7-5.4c0.9-0.6,1.9-0.9,2.9-1.1
		c0.8-0.2,1.6-0.4,2.4-0.5c0.4-0.1,0.8-0.1,1.1,0c0.5,0.2,0.8,0.6,1.1,1.1c1.6,2.6,2.5,5.6,2.6,8.6"/>
	<path id="MAP_NX_XMLID_17_" class="MAP_NX_ST161" d="M215.4,681.2c1.8,3.1,1,7.2,2.6,10.4c0.6,1.2,1.6,2.3,2.4,3.4c3.7,4.8,4.8,11.1,7.4,16.6
		c0.6,1.3,1.3,2.5,2.4,3.3c1,0.6,2.1,0.8,3.3,1c5.8,0.8,11.7,0.9,17.5,0.5"/>
	<path id="MAP_NX_XMLID_16_" class="MAP_NX_ST161" d="M251.6,764.2c-1.2-2.7-2.3-5.4-3.5-8.1c-1.1-2.5-2.2-5.1-3.9-7.2c-3.4-4.4-8.8-6.6-14.1-8.4
		c-2.4-0.8-4.3-2.3-6.2-3.9c-4.2-3.6-7.6-8-10.2-12.8c-1.5-2.9-2.8-5.9-3.8-9"/>
	<path id="MAP_NX_XMLID_15_" class="MAP_NX_ST161" d="M195.7,751.7c3.2-3,6.4-6,9.5-8.9c1.2-1.1,2.4-2.3,3.9-3.1c1.7-0.9,3.6-1.2,5.5-1.5
		c3.6-0.5,7.2-0.7,10.8-0.6"/>
	<path id="MAP_NX_XMLID_14_" class="MAP_NX_ST161" d="M393,796.5c-9.2-0.1-18.3,3.6-24.8,10c-1.7,1.7-3.3,3.6-4.4,5.7c-1.1,2.1-1.8,4.3-2.9,6.3
		c-1.8,3.3-4.8,6-8.2,7.5c-2.1,0.9-4.4,1.4-6.5,2.4c-2.1,0.9-4.2,2.4-5,4.6c-0.5,1.4-0.5,3-0.5,4.5c0.1,3.2,0.1,6.3,0.2,9.5
		c0,2.1,0.1,4.2-0.4,6.2c-0.7,3.1-2.4,6-4.9,7.9"/>
	<path id="MAP_NX_XMLID_13_" class="MAP_NX_ST161" d="M323.7,774c7.2,0.2,14.3,0.4,21.5,0.7c2.2,0.1,4.5,0.2,6.6,1c3.2,1.4,5.4,4.5,8.5,6
		c3.7,1.8,8.1,1,12.2,0.6c1-0.1,2.1-0.2,3,0.2c2,0.7,3,3,4,4.9c2,4,5.1,7.4,8.7,9.9"/>
	<path id="MAP_NX_XMLID_12_" class="MAP_NX_ST161" d="M458.7,750.8c-7.1-3.2-15.4-0.9-23.1-1.6c-10.8-0.9-21.3-7.8-31.8-5
		c-1.2,0.3-2.4,0.8-3.7,0.6c-2.3-0.2-3.9-2.3-4.8-4.4c-0.9-2.1-1.5-4.4-3-6.1c-2.2-2.4-5.6-3.1-8.7-4.3c-4.9-1.9-9-5.3-12.8-9
		c-3.3-3.3-6.5-6.8-8.3-11.1c-2.1-5-2.1-10.6-2-16c0-3.8,0-7.7,1-11.3c0.6-2.1,1.5-4.1,1.6-6.3c0.1-2-0.3-4-1.3-5.6
		c-0.4-0.7-0.9-1.3-1.1-2.1c-0.4-1.6,0.5-3.2,1.4-4.5c3.6-5.3,7.6-10.8,7.8-17.2"/>
	<path id="MAP_NX_XMLID_11_" class="MAP_NX_ST161" d="M393,735.5c-11.3-0.4-22.7-0.2-34,0.5c-4.1,0.3-8.2,0.6-12.2,1.6"/>
	<path id="MAP_NX_XMLID_10_" class="MAP_NX_ST161" d="M305.9,556.1c5,2,2.3,3.7,7.7,3.8c8.1,0.2,15.9-3.1,23.4-6.3c2.8-1.2,5.7-2.5,7.2-5.1
		c1.2-2,1.4-4.4,1.8-6.6c0.9-4.3,3.2-8.3,6.7-10.9c3.5-2.6,8.3-3.6,12.4-2c1.1,0.4,2.1,1,2.9,1.8c1.7,1.9,1.7,4.8,2,7.3
		c1.3,10.2,9.2,18.8,10.1,29.1c0.2,2.1,0.1,4.3,0,6.4c-0.3,6.1-0.7,12.1-1,18.2c-0.1,2.5-0.3,5-1.2,7.3c-0.9,2.3-2.7,4.4-5.1,4.9"/>
	<path id="MAP_NX_XMLID_9_" class="MAP_NX_ST161" d="M320.1,286.8c7.6,4,10,13.7,10.1,22.3c0.1,8.6-1.1,17.6,2.4,25.5c0.4,0.8,0.8,1.6,0.7,2.4
		c-0.3,2.4-3.7,2.6-6.1,2c0.5,4.3,1,8.6,1.5,12.9c0.2,1.6,0.4,3.1,0.6,4.7c0.4,11.5,7.4,21.5,0.4,33.5c0,2,1,5,2,6
		c7.1,5.6,14.5,11.8,20.7,18.7c2.1,2.3,4,4.7,5.8,7.2c7.5,9.1,11.5,23.1,6.5,34.1c-4,9-9,19-12,29c-1,3-3,3-4.7,3.3
		c-3.4,0.4-7-0.2-10.1-1.7"/>
	<path id="MAP_NX_XMLID_8_" class="MAP_NX_ST161" d="M322.8,269.6c5.4,2.4,11.3,3.1,17.2,3.8c4.9,0.6,10,1.2,14.5-0.7c2.7-1.1,5.1-3,7.8-4.3
		c1.9-0.9,4-1.4,6.1-1.6c0.9-0.1,1.7-0.1,2.6,0.2c2,0.6,3.1,2.6,4.4,4.1c3.5,4.3,8.9,6.9,14.4,7c1.1,0,2.3-0.1,3.4-0.5
		c2.7-1,4.4-3.7,5.9-6.2"/>
	<g id="MAP_NX_XMLID_3_">
		<g id="MAP_NX_XMLID_5_">
			<path id="MAP_NX_XMLID_7_" class="MAP_NX_ST162" d="M421.2,91c-2.4,2.5-3.5,5.4-4.8,8.7c-0.8,2-2.2,4.3-3.2,6.2c-2.6,4.8-9.5,6.5-13.4,10.3
				c-3,3-4.9,7.1-6,11.3c-6.6,26.3-16.9,40-17.1,41.9c-0.2,2-0.5,4.1,0.8,5.6c0.8,1,3.7,1.4,4.7,2.3c3.3,3.1-0.8,8.1-3.2,12
				c-1.7,2.8-2.3,6.2-3.8,9.2c-9.3,18.5-35.4,24.9-42.3,46.4c-1.5,4.8-3.9,9.5-4.9,14.4c-2.2,11.1-1.7,25.2-10.8,32
				c-26.2,19.8-23.5,18.3-25.5,23c-4.9,11.5-9.6,14-10.5,26.1c-0.4,5.6,0.5,11.4-0.6,16.3c-0.8,3.3-2.7,7.2-4.1,10.3
				c-1.5,3.1-1.6,4-5,8.9c-2.2,3.2-5.7,5.2-9.6,6.8c-18,6.7-35,14.7-54.1,15.2c-2.8-0.1-4.5-0.7-6.9-0.8c-2.4-0.2-5.4,0.1-11,1.6
				c-8.6,2.4-25.4-3.4-30,1.1c0,0-9,6.3,0,0c2.4-1.7,4.6-3.8,7.3-5c4.8-2.2,10.3-1.6,15.6-1.2c6.2,0.5,12.3,0.5,18.5,0.1
				c6.2-0.4,12.3-1.2,18.3-2.3c12.3-2,24.3-6,35-11.8c2.1-1,4.1-2.1,6-3.4c1.9-1.3,3.7-2.7,5.2-4.4c5.6-6.4,6.5-15.4,7.1-23.8
				c0.4-5.1,2.1-7.8,2-14.6c-0.1-7.3,5.5-7.1,7.8-9.7c6.9-7.6,9.7-20.3,23.4-29.1c6.8-4.4,11.3-8,13.6-16c5.2-17.7,8-41,22.1-52.9
				c3.2-2.7,5.7-3.2,8.7-6c7.8-7.3,13.3-16.1,20.4-23.4c3.3-3.4,9.9-11.3,6.6-14.8c-2.5-2.7-3.9-5.9-6.1-9.8
				c-2.3-4.1,6.2-12.2,11.7-21.1c1.9-3,0.1-9.5,1.5-12.8c4.4-10.6,11.5-25.1,15-25.6c1.3-0.2,3.9-3.4,5.1-4.6c2-1.9,0.8-2.4,2.6-4.5
				c5.2-6.2,11.1-13,14.2-19.9c0.9-2,1.8-3.8,2.6-5.9c0.8-1.9-0.1-3.6-0.9-5.5c-4.4-11,1.8-15.8-1.1-20.7c-1.1-2-1.4-4.8-3.1-6.3
				c-1.3-1.2-2.3-1.4-3.6-2.7c-1.4-1.5-1.4-3.8-1.3-5.8c0.6-10.2,3.2-9.5,0.7-33.6c3.6,2.3,6,10.7,4.9,14.8
				c-1.2,4.1-1.4,10-1.6,14.3c-0.2,4.2,1.5,5.8,3.3,9.9C427.9,55.5,432.4,79.6,421.2,91z"/>
			<path id="MAP_NX_XMLID_6_" class="MAP_NX_ST163" d="M164.9,397c-4.3,3.1-9.6,4.9-14.9,5c-2.4,0.1-4.9-0.2-7.3,0.4c-4.7,1.2-9.5,5.6-13.7,3.2
				c1-1.8-2.1-3.4-3.8-2.3s-2.3,3.3-3.2,5.1c-3.7,6.9-13.1,7.3-20.9,8.1c-1.8,0.2-3.9,0.6-4.9,2.1c-0.6,0.8-0.7,1.8-1.2,2.7
				c-2.5,4.4-10,0.8-14.3,3.6c-1.3,0.9-2.1,2.2-3.1,3.4c-2.8,3.3-6.8,5.3-10.7,7.1c-8.1,3.8-16.2,7.6-24.3,11.4
				c-1,0.5-2.1,1-2.8,1.9c-1.3,1.6-1.1,4.1-2.5,5.8c-1.4,1.6-3.8,1.8-5.9,1.9c-6.1,0.2-12.1,0.3-18.2,0.5c-1.8,3.6,1.5,8.5,5.4,8.2
				c0.5,1.5,0.2,3.2-0.8,4.4"/>
		</g>
		<path id="MAP_NX_XMLID_4_" class="MAP_NX_ST163" d="M218.6,398.2c-0.7,7,8.3,8,10.3,13c7,20.1,17.8,38,28.9,56c1.6,2.6,3.4,5.1,4.8,7.8
			c28.7,56.6,40.5,44.3,47.2,112.2c0.4,4.1,0.8,7.8,0.8,10.1c0,3.4,0.2,6.8,0.2,10.2c0.7,3.5,1.4,6.9,2.3,10.3
			c5.1,20.5,13,40.6,19.3,61.9c0.6,3,1.1,6,1.6,9.1c0.5,3,1,6,1.6,9c0.2,2.7,0.3,5.4,0.2,8.1c-0.1,2.7-0.4,5.5-0.9,8.3c0,1,4,1,4,2
			c0,9-8,17-6,25c3,7-4,17,8.9,22.2c2.1,1.8,1.2,5.2,0.1,7.8c2.1,0.2,4.4,0.8,5.8,2.5c1.3,1.7,1.1,4.7-1,5.5
			c2.4,2.1,6.4,0.7,9.2,2.2c1.7,0.9,2.7,2.6,3.7,4.2"/>
	</g>
</g>
</svg>
