<?xml version="1.0" encoding="utf-8"?>
<!-- Generator: Adobe Illustrator 19.0.0, SVG Export Plug-In . SVG Version: 6.00 Build 0)  -->
<svg version="1.1" id="图层_1" xmlns="http://www.w3.org/2000/svg" xmlns:xlink="http://www.w3.org/1999/xlink" x="0px" y="0px"
	 viewBox="0 0 245 255" style="enable-background:new 0 0 245 255;" xml:space="preserve">
<style type="text/css">
	.st0{fill:#1E3580;fill-opacity:0.45;stroke:#FEAB01;stroke-miterlimit:10;}
	.st1{fill:#FFA801;}
	.st2{font-family:'MicrosoftYaHeiLight';}
	.st3{font-size:12px;}
	.st4{opacity:0.5;fill:#F9E4AF;}
</style>
<path id="XMLID_916_" class="st0" d="M234.7,107.5L222,102c-1.9,12.3-9.4,41.6-17.1,41.6c-8.5,0-12.6-9.5-12.6-9.5
	c2.9-2.9,5-20.8-3.9-21.3c-9-0.5-10,7.5-12.4,6.8c-8.4-7.4-12.7-3.2-12.4-0.8c0.2,2.3-3.7,17-8.3,11.4c-2.5-12.5-11-7-11-7
	c-2.9,10.6-8.3,6.8-10.3,9.1c-1.3,13.4-14.5,12-14.5,12c-10.6,8.3-21.7,26.5-21.7,26.5c-7.7,12.6-11.8,0.8-11.8,0.8
	c-16.8-3.9-16.3-7.9-16.3-7.9c-5.6-20.9-24-31.7-24-31.7c-7.9-6.6-14.9-11.2-14.9-11.2c-0.5-0.1-1-0.4-1.4-0.7v4.5l2.7,3.4l-5.3,12
	l-2.7,3.4l-2.7,1.7l-8,6.9v1.7L2.6,167.5l2.7,3.4l5.3,1.7l10.7,3.4l10.7,8.5l2.6,1.7v3.4l2.7,3.4l18.7,3.4l10.7-5.1l10.7,8.6l8-3.4
	v6.8l5.3-3.4h10.7v1.7l-2.7,5.1l2.7,1.7v1.7l8,10.3h5.3l-2.7,5.1l2.7,3.4l5.3-1.7V224h5.3l24,8.5v3.4l5.3,5.1h10.7l-2.7,5.1l5.3,5.1
	l10.7-37.6l18.7-17.1l13.3-20.5l29.4-27.4l2.7-17.2v-17.2L234.7,107.5z"/>
<path id="XMLID_818_" class="st0" d="M129,102c1.5-8.8-8.5-6.7-10.4-15.7s3-16.5,3-16.5s3.3-4,1-7.5c-1.4-2.1-1.1-11.5-0.6-18.5
	l-44.7,1.7v8.6l2.7,8.6l-2.7,8.6l2.7,12l-2.7,5.2L72,90.3L69.3,92L56,88.6l-5.3-3.4h-5.3l-8,10.3v5.2v3.4l-2.7,1.7l-5.3,10.3v4.1
	c0.4,0.3,0.9,0.6,1.4,0.7c0,0,7,4.6,14.9,11.2c0,0,18.4,10.8,24,31.7c0,0-0.4,3.9,16.3,7.9c0,0,4.1,11.8,11.8-0.8
	c0,0,11.2-18.2,21.7-26.5c0,0,13.2,1.4,14.5-12c0,0,0.1-0.1,0.1-0.1c-1.5-4.9-3.6-11.2-5-13.1C126.8,115.7,127.5,110.8,129,102z"/>
<path id="XMLID_774_" class="st0" d="M218.7,100.6l-8,5.1v-12l2.7-5.2l-16-31l2.7-13.8V31.7l-2.7-5.1V18l-8-3.5l-2.7-5.2l-13.4,12.1
	l-8-1.7l-10.7-6.9l-21.3,22.4l-10.7,8.6l-0.6,0c-0.5,7-0.8,16.3,0.6,18.5c2.3,3.5-1,7.5-1,7.5s-4.9,7.5-3,16.5s11.9,7,10.4,15.7
	s-2.2,13.6,0.2,17c1.4,1.9,3.5,8.2,5,13.1c2.1-2.1,7.4,1.4,10.2-9c0,0,8.4-5.5,11,7c4.6,5.7,8.5-9,8.3-11.4c-0.2-2.3,4-6.5,12.4,0.8
	c2.4,0.6,3.5-7.3,12.4-6.8c9,0.5,6.8,18.4,3.9,21.3c0,0,4.1,9.5,12.6,9.5c7.6,0,15.2-29.3,17.1-41.6L218.7,100.6z"/>
<g id="XMLID_766_">
	<text id="XMLID_1034_" transform="matrix(1 0 0 1 143.519 65.5571)" class="st1 st2 st3">惠农区</text>
</g>
<g id="XMLID_722_">
	<text id="XMLID_1035_" transform="matrix(1 0 0 1 56.1158 121.3145)" class="st1 st2 st3">大武口区</text>
</g>
<g id="XMLID_335_">
	<text id="XMLID_1036_" transform="matrix(1 0 0 1 111.9747 184.3751)" class="st1 st2 st3">平罗县</text>
</g>
<path id="XMLID_331_" class="st4" d="M213.2,61.8c-2.7-6.3-5.2-8.7-5-14.9c0.3-6.4,0.6-15.2,2.4-21.4c1.7-6.2-1.9-18.8-7.3-22.2
	c3.8,36.1-0.2,35.1-1.1,50.4c-0.2,3.1-0.2,6.5,1.9,8.7c1.9,1.9,3.3,2.3,5.4,4.1c2.6,2.2,2.9,6.5,4.6,9.4c4.2,7.4-5,14.5,1.6,31
	c1.1,2.8,2.5,5.4,1.3,8.2c-1.2,3.1-2.6,5.8-3.9,8.8c-4.6,10.4-13.5,20.6-21.3,29.9c-2.6,3.1-1,3.9-3.9,6.8c-1.8,1.7-5.7,6.6-7.7,6.9
	c-5.2,0.8-15.9,22.5-22.5,38.5c-2,4.9,0.6,14.6-2.2,19.1c-1.9,3.2-4.2,6.3-6.3,9.3l0.1,1.5l3.7,3.3c5.4-10.5,12.7-26.6,18.2-48.6
	c1.6-6.2,4.5-12.3,9-16.9c5.7-5.7,16.2-8.3,20-15.4c1.6-2.9,3.6-6.3,4.8-9.3c2-4.9,3.6-9.3,7.2-13
	C229.2,118.8,222.4,82.8,213.2,61.8z"/>
</svg>
