<?xml version="1.0" encoding="utf-8"?>
<!-- Generator: Adobe Illustrator 19.0.0, SVG Export Plug-In . SVG Version: 6.00 Build 0)  -->
<svg version="1.1" id="图层_1" xmlns="http://www.w3.org/2000/svg" xmlns:xlink="http://www.w3.org/1999/xlink" x="0px" y="0px"
	 viewBox="0 0 437.1 443" style="enable-background:new 0 0 437.1 443;" xml:space="preserve">
<style type="text/css">
	.st0{fill:#19488C;fill-opacity:0.45;stroke:#FEAB01;stroke-miterlimit:10;}
	.st1{fill:#2659AA;fill-opacity:0.45;stroke:#FEAB01;stroke-miterlimit:10;}
	.st2{fill:#0F477A;fill-opacity:0.45;stroke:#FEAB01;stroke-miterlimit:10;}
	.st3{fill:#F9E4AF;}
	.st4{font-family:'MicrosoftYaHei';}
	.st5{font-size:7px;}
	.st6{fill:#FFA801;}
	.st7{font-family:'MicrosoftYaHeiLight';}
	.st8{font-size:12px;}
	.st9{opacity:0.5;fill:none;stroke:#F9E4AF;stroke-miterlimit:10;}
</style>
<path id="XMLID_340_" class="st0" d="M215.9,372l-2.6-4.9l-2.7-3.3v4.9l-10.7,6.6v6.5l-5.3,3.3v-9.8l-5.3-1.6l-2.7-14.7v-9.8
	l5.3-3.3v-3.3h-2.7l-2.7,4.9l-2.7-3.3l-10.6,3.3l-2.7-4.9l2.7-1.6l-2.7-3.3v1.6L168,336l-21.3-3.3l-2.7-1.6h-2.7l-2.7,3.3l-2.6-1.6
	v8.2l-5.3,6.6l-2.7-1.6v-13.1l-2.7,1.6v-6.6v-4.9l-5.3,1.6l-5.3-4.9l2.2-3.5l0.3-4.1l7.8-4.5l9.6-6.8v-13.3l3.2-6.4l13.8,5.3
	l10.7-11.9H174l12.8-4.4c0,0-4.8-5.4-10.7-6.1c-5.9-0.8,0-8.2,0-8.2l0.4-0.1l10.3,0.1l13.8,4l7.8-1.3l7.7,7.6v8.4l6.8,9.9l2.5,7.6
	l3.9,7.6l-3.9,16.7l-5.6,8.8l3.1,8.2l11.5,9.2l-2.1,11.3l-3,3.3l-0.7,8.8l-3.1,4.9L215.9,372z"/>
<path id="XMLID_328_" class="st1" d="M291.3,125.1l-3.5,13.8l-2.1,13.6l-1,13.3l5.9,13.2l4.6,5.2l11.3,5.5l-7.2,17.4L294,214
	l-5.6-6.3h-8.3L269.6,222l-5.8-5.3l-14.1,2.4c0,0,5,5.3,6.1,7.8c1.1,2.5-15.5,6.9-15.5,6.9l-3.4,4.8l10.6,11.8l-0.5,6.4l-10.1-0.6
	l-11.9-3l-13.6,4.2l-10.8,2l-13.8-4h-10.7l-8.6-5.9v-16.6l12.3-11.8l4.8-7.7l-12.6-13.8v-11.5l4.5-23v-13.6l-8.9-15.2l0.5,0.2v-18.2
	l-5.3-6.6l2.7-13.2l5.3,1.7l2.7-5l-2.7-5V87l5.3-8.3l2.6-1.7l2.7-5v-8.3l-2.7-9.9l-8-5l2.7-5h2.7l2.6-6.6l5.3-1.7V34v-3.3h5.3
	l18.7-8.3l8-5l8,3.3v-6.7h5.3l5.3-5l5.3,6.6l5.3,1.7l16-5V9.1h8l2.7-5l5.3,5v5l2.7,3.3l-2.7,3.3l2.7,6.6h-8l-5.3-5l-2.7,5l-5.3-5
	h-2.7l2.7,8.3l10.7,3.3v5h5.3l5.3,6.6h5.3v5l5.3-3.3l5.3,6.6v3.3l-5.3,6.6l2.7,5h-5.3v5l8,3.3l2.7,5l-8-1.7V97v1.7l2.7,5v5l-8-8.3
	l-2.7,1.7v1.7l5.3,6.6l2.7,4.9l2.7-1.7L291.3,125.1z"/>
<path id="XMLID_302_" class="st2" d="M167.5,136.9l8.9,15.2v13.6l-4.5,23v11.5l12.6,13.8l-4.8,7.7l-12.3,11.8v16.6l8.6,5.9
	c0,0-5.9,7.4,0,8.2c5.9,0.8,10.7,6.1,10.7,6.1l-12.8,4.4h-11.7l-10.7,11.9l-13.8-5.3l-3.2,6.4v13.3l-9.6,6.8l-7.8,4.5l-0.3,3.8
	l-7.6-4.6l2.7-4.9l-2.7-1.6v3.3l-2.7-1.6v-3.3h-5.3v-1.6v-8.2l-8-4.9l2.7-3.3l2.6-1.6l2.7-6.5l2.7,8.2h2.7l2.7-4.9v-4.9l-5.3,3.3
	l-5.3-4.9h-5.3V272l-2.7,1.6l-2.7-3.3l-16,8.2v1.6h-5.3l-2.7,6.6l-2.7,1.6l2.7-8.2l-2.7-1.6h-16l-2.7-3.3l-2.6-6.6l-2.7,1.6v-8.2
	l-5.3-3.3l-2.7-9.8v1.6l-2.7-1.6l-8,8.2l-2.7-3.3l2.7-3.3l-2.7-8.2l2.7-3.3l2.6,1.6l2.7-3.3l-5.3-3.3l-10.7-3.3v-3.3l-2.7-4.9h2.7
	l-2.7-9.9l2.7-3.3v-13.2v-1.7l2.7-8.3l2.7-1.7v-3.3l8-5l8-11.6l8-1.7l5.3,1.7l2.7-1.7l2.7-8.2l2.7-3.3l-5.3-5v-6.6l2.7-6.6h5.3
	l13.3-8.3l5.3,1.7l8,14.9l8,6.6h2.7l8-8.3l5.3,1.7l2.7-3.3l5.3,1.7l2.7,1.7v3.3l-8,9.9l8-1.7l5.3,5l10.7-8.3l2.7-5h2.7l5.3-13.2
	h13.3l13.3,4.9"/>
<polygon id="XMLID_335_" class="st0" points="215.5,264.9 215.5,273.3 222.3,283.2 224.8,290.8 229.3,299.5 227.5,307.3 
	225.4,316.1 220,324.9 222.3,332.1 234.4,342 232.3,353.6 229.3,356.8 228.7,365.5 225.6,370.8 229.3,372.4 227,374.7 227,374.7 
	228.7,380.8 226,387.3 231.4,392.2 236.7,395.5 236.7,403.6 242,406.9 244.7,406.9 247.3,413.5 250,416.7 252.7,416.7 255.3,421.6 
	260.7,418.4 258,411.8 263.3,411.8 268.7,410.2 274,403.6 282,400.4 287.3,395.5 287.3,387.3 292.6,385.7 287.3,375.8 290,367.7 
	284.6,357.8 287.3,349.7 282,348 282,343.1 276.6,336.6 279.3,331.6 276.6,326.7 279.3,320.2 284.6,320.2 282,312 282,307 
	279.3,303.8 279.3,302.1 274,295.6 274,287.4 276.6,285.7 279.3,280.8 287.3,277.5 290,274.2 295.3,272.6 290.7,271.8 286.2,270.7 
	279.8,263.6 273.7,264.2 268,263.4 263.3,264.8 258.7,268.8 256.1,271.7 249.3,271.5 246,268.7 244.1,262.1 247.1,257 239.7,257 
	231.7,255.3 225.1,253.4 213.4,257 208.4,258.3 "/>
<path id="XMLID_294_" class="st0" d="M248.7,255.6l-4.5,5.1l2.2,7.9l3.3,2.8h7.6l3.4-5.3c0,0,7.2-3.9,8.9-2.6c1.7,1.3,10.5,0,10.5,0
	l7.2,7.9l8,0.7l0.3,0.4l2.7,3.3v-4.9l16,4.9v-4.9l2.7,3.3l2.7-3.3l2.7,8.2l5.3,3.3l5.3-3.3v-3.3l2.7,4.9l10.7,6.6h5.3v-3.3h-2.7
	l2.7-8.2h2.6v1.6l10.7,3.3l2.7-1.6v-8.2l2.7,1.6l5.3-1.6l2.7,1.6l2.7-11.5l5.3,4.9v-4.9l2.7,3.3l2.6-6.6l-5.3-4.9l8-1.6l-2.7-1.6
	l-2.6-4.9l-2.7,1.6l-2.7-9.9l-2.7,1.6V233h2.7v-3.3h-8v-3.3l2.7-1.6v-1.6l5.3-4.9l5.3,1.6l2.6-16.5l5.3-4.9l2.7-5l-5.3-1.7v-5
	l2.7-3.3v-4.9V177l5.3-9.9l-5.3-3.3l2.7-6.6l-5.3,1.6v-6.6l-2.7,5v-1.7l-2.6-3.3v-5l-2.7-5l-5.3-1.7l-5.3-6.6l-2.7-1.6l-2.6-6.6
	l-2.7,3.3v-1.7l-2.7,3.3l-2.7-5l-8,3.3l-5.3-5l-5.3,1.7l-2.7-3.3l-8-9.9l-5.3,1.7l-2.7,1.7v-6.6l-2.7,4.9l-5.3-3.3l-2.7-4.9v6.6
	l-8-6.6h-2.7v9.9l-5.3,1.7l-5.3-5v1.2l-1.5,12.6c0,0-1.7,7.2-3.3,12.1c-1.6,4.8-1.6,10.6-2.1,13.6c-0.5,3-1.1,10.9-1.1,15
	s9.3,16,9.3,16l12.1,5.6l-3.9,11.5l-3.8,7c0,0-3.1,4.3-4.4,6.3s-5.6-6.3-5.6-6.3h-8.3l-10.5,14.4l-5.8-5.3l-14.1,2.4
	c0,0,3,3,5.7,6.2s-6.8,6.6-6.8,6.6l-8.4,1.9l-3.4,4.8l10.6,12.7L248.7,255.6z"/>
<g id="XMLID_267_">
	<text id="XMLID_268_" transform="matrix(0.9991 0 0 1 353.0428 269.2133)" class="st3 st4 st5">河</text>
	<text id="XMLID_331_" transform="matrix(0.9991 0 0 1 322.9257 259.3969)" class="st3 st4 st5">茹</text>
</g>
<g id="XMLID_263_">
	<text id="XMLID_1035_" transform="matrix(1 0 0 1 208.3665 146.8909)" class="st6 st7 st8">原州区</text>
</g>
<g id="XMLID_241_">
	<text id="XMLID_1037_" transform="matrix(1 0 0 1 156.2032 325.9329)" class="st6 st7 st8">隆德县</text>
</g>
<g id="XMLID_160_">
	<text id="XMLID_1041_" transform="matrix(1 0 0 1 231.1952 368.6678)" class="st6 st7 st8">泾源县</text>
</g>
<g id="XMLID_153_">
	<text id="XMLID_1042_" transform="matrix(1 0 0 1 325.8007 197.4794)" class="st6 st7 st8">彭阳县</text>
</g>
<path id="XMLID_148_" class="st9" d="M95.1,359.3c0.8-4.5,2.7-8.8,5.5-12.5c4.2-5.4,10.2-9.2,14.2-14.7c2.8-3.9,4.5-8.6,6.2-13.1
	c1-2.8,2-5.6,2.4-8.5c0.6-5.1-0.7-10.2-1.4-15.3c-1.5-11.2,0.5-23,6-32.9c1.8-3.3,4.1-6.4,4.7-10.1c0.9-5.3-1.6-10.4-4-15.2
	c-2.2-4.3-4.4-8.6-6.6-12.8c-1.8-3.5-5.5-5.2-0.7-8.2c1.5-0.9,3.2-1.5,4.7-2.5c3.3-2.2,5.2-6.1,8.6-8.1c1.3-0.8,2.9-1.3,4.4-1.7
	c1.2-0.3,2.3-0.5,3.5-0.7c0.6-0.1,1.1-0.2,1.7,0c0.8,0.3,1.2,1,1.6,1.6c2.3,3.9,3.7,8.4,4,13"/>
<path id="XMLID_144_" class="st9" d="M66.4,165.9c2.8,4.6,1.5,10.8,4,15.6c1,1.9,2.4,3.4,3.7,5.1c5.5,7.3,7.3,16.6,11,24.8
	c0.9,1.9,1.9,3.8,3.6,4.9c1.4,0.9,3.2,1.2,4.9,1.4c8.7,1.1,17.5,1.4,26.2,0.7"/>
<path id="XMLID_143_" class="st9" d="M120.7,290.4c-1.7-4.1-3.5-8.1-5.2-12.2c-1.6-3.8-3.3-7.6-5.8-10.9
	c-5.1-6.6-13.2-9.9-21.1-12.7c-3.6-1.2-6.4-3.5-9.3-5.9c-6.3-5.3-11.4-12-15.3-19.3c-2.3-4.3-4.2-8.9-5.7-13.6"/>
<path id="XMLID_142_" class="st9" d="M36.9,271.6c4.8-4.5,9.5-8.9,14.3-13.4c1.8-1.7,3.7-3.4,5.9-4.6c2.5-1.3,5.4-1.8,8.2-2.2
	c5.4-0.7,10.8-1,16.3-0.8"/>
<path id="XMLID_102_" class="st9" d="M332.8,338.8c-13.7-0.2-27.5,5.4-37.2,15c-2.6,2.6-4.9,5.4-6.6,8.6c-1.7,3.1-2.7,6.5-4.4,9.5
	c-2.7,5-7.1,9-12.3,11.3c-3.2,1.4-6.6,2.2-9.8,3.6s-6.2,3.6-7.5,6.9c-0.8,2.1-0.8,4.5-0.7,6.8c0.1,4.8,0.2,9.5,0.3,14.3
	c0.1,3.1,0.1,6.3-0.5,9.3c-1,4.6-3.6,8.9-7.3,11.9"/>
<path id="XMLID_99_" class="st9" d="M228.9,305c10.7,0.3,21.5,0.7,32.2,1c3.3,0.1,6.8,0.2,9.9,1.5c4.8,2,8.1,6.7,12.8,8.9
	c5.6,2.7,12.1,1.5,18.2,0.9c1.5-0.1,3.1-0.3,4.5,0.2c3.1,1.1,4.5,4.4,6,7.3c3,5.9,7.6,11.1,13.1,14.8"/>
<path id="XMLID_91_" class="st9" d="M431.4,270.3c-10.7-4.8-23.1-1.3-34.7-2.4c-16.2-1.4-32-11.7-47.7-7.5c-1.8,0.5-3.7,1.2-5.6,1
	c-3.4-0.4-5.8-3.5-7.3-6.6s-2.3-6.6-4.6-9.2c-3.2-3.7-8.4-4.7-13-6.4c-7.3-2.8-13.5-8-19.2-13.5c-5-4.9-9.8-10.2-12.5-16.7
	c-3.1-7.5-3.1-15.8-3.1-23.9c0-5.7,0.1-11.5,1.5-17c0.9-3.1,2.2-6.2,2.4-9.5c0.2-2.9-0.5-5.9-2-8.5c-0.6-1-1.3-2-1.6-3.1
	c-0.6-2.4,0.8-4.7,2.2-6.8c5.4-7.9,11.4-16.3,11.6-25.8"/>
<path id="XMLID_90_" class="st9" d="M332.8,247.3c-17-0.5-34-0.3-51,0.8c-6.1,0.4-12.3,0.9-18.3,2.3"/>
<g id="XMLID_87_">
	<text id="XMLID_89_" transform="matrix(1 0 0 1 243.3435 296.3156)" class="st3 st4 st5">泾</text>
	<text id="XMLID_88_" transform="matrix(1 0 0 1 266.8007 315.9906)" class="st3 st4 st5">河</text>
</g>
<g id="XMLID_82_">
	<text id="XMLID_85_" transform="matrix(1 0 0 1 118.1581 247.25)" class="st3 st4 st5">葫</text>
	<text id="XMLID_84_" transform="matrix(1 0 0 1 111.0634 284.7892)" class="st3 st4 st5">芦</text>
	<text id="XMLID_83_" transform="matrix(1 0 0 1 105.1688 328.3527)" class="st3 st4 st5">河</text>
</g>
<text id="XMLID_76_" transform="matrix(1 0 0 1 271.1805 169.5995)" class="st3 st4 st5">小</text>
<text id="XMLID_9_" transform="matrix(1 0 0 1 271.1796 197.4805)" class="st3 st4 st5">河</text>
<g id="XMLID_3_">
	<text id="XMLID_1043_" transform="matrix(1 0 0 1 61.616 190.5217)" class="st6 st7 st8">西吉县</text>
</g>
</svg>
