<?xml version="1.0" encoding="utf-8"?>
<!-- Generator: Adobe Illustrator 19.0.0, SVG Export Plug-In . SVG Version: 6.00 Build 0)  -->
<svg version="1.1" id="description_frame" xmlns="http://www.w3.org/2000/svg" xmlns:xlink="http://www.w3.org/1999/xlink" x="0px" y="0px"
	 viewBox="0 0 264 180" style="enable-background:new 0 0 264 180;" xml:space="preserve">
<style type="text/css">
	.description_frame_st0{fill:none;stroke:#00BEFF;stroke-miterlimit:10;}
	.description_frame_st1{fill:#00BEFF;fill-opacity:0.3;stroke:#00BEFF;stroke-miterlimit:10;}
	.description_frame_st2{fill:#00BEFF;fill-opacity:0.4;}
	.description_frame_st3{fill-rule:evenodd;clip-rule:evenodd;fill:#1561C0;fill-opacity:0.3;stroke:#1561C0;stroke-width:3;stroke-miterlimit:10;}
	.description_frame_st4{fill:none;stroke:#00FFD4;stroke-width:2;stroke-miterlimit:10;}
	.description_frame_st5{opacity:0.4;}
	.description_frame_st6{fill:#00BEFF;}
	.description_frame_st7{fill:none;stroke:#009FE8;stroke-miterlimit:10;stroke-dasharray:1.9478,1.9478;}
	.description_frame_st8{fill:#009FE8;}
</style>
<g id="XMLID_947_">
	<polygon id="XMLID_984_" class="description_frame_st0" points="240.8,178 32.8,178 15.3,157.7 15.3,2 241,2 261.9,26.3 261.9,161.6 	"/>
	<polygon id="XMLID_982_" class="description_frame_st1" points="15.3,2.3 2.1,11.1 2.1,49.6 7.3,49.6 15.3,56.7 	"/>
	<polygon id="description_title" class="description_frame_st2" points="261.4,39.1 15.7,39.1 15.7,12.7 249.6,12.7 261.4,26.3 	"/>
	<polygon id="XMLID_978_" class="description_frame_st3" points="235.6,172.7 164.6,172.9 37.1,172.9 21,154.6 21,43.7 256.5,43.7 256.5,156.8 	"/>
	<polyline id="XMLID_4_" class="description_frame_st4" points="11.6,34.6 5.7,27.2 11.6,20.2 	"/>
	<polyline id="description_collapse_btn" fill="rgba(0,0,0,0)" points="11.6,34.6 5.7,27.2 11.6,20.2"/>
	<polygon id="XMLID_973_" class="description_frame_st2" points="25.9,11.1 22.9,11.1 20.9,3.8 23.8,3.8 	"/>
	<polygon id="XMLID_971_" class="description_frame_st2" points="37.1,11.1 34.2,11.1 32.1,3.8 35.1,3.8 	"/>
	<polygon id="XMLID_969_" class="description_frame_st2" points="31.5,11.1 28.5,11.1 26.5,3.8 29.5,3.8 	"/>
	<polygon id="XMLID_967_" class="description_frame_st2" points="42.7,11.1 39.8,11.1 37.8,3.8 40.7,3.8 	"/>
	<polygon id="XMLID_965_" class="description_frame_st2" points="48.4,11.1 45.4,11.1 43.4,3.8 46.3,3.8 	"/>
	<polygon id="XMLID_963_" class="description_frame_st2" points="59.6,11.1 56.7,11.1 54.6,3.8 57.6,3.8 	"/>
	<polygon id="XMLID_961_" class="description_frame_st2" points="54,11.1 51,11.1 49,3.8 52,3.8 	"/>
	<g id="XMLID_957_" class="description_frame_st5">
		<g id="XMLID_127_">
			<rect id="XMLID_128_" x="65.4" y="6.9" class="description_frame_st6" width="146.2" height="1.1"/>
		</g>
	</g>
	<g id="XMLID_955_">
		<circle id="XMLID_114_" class="description_frame_st7" cx="217.7" cy="7.5" r="3.1"/>
	</g>
	<circle id="XMLID_954_" class="description_frame_st8" cx="217.7" cy="7.5" r="2.2"/>
	<g id="XMLID_952_">
		<circle id="XMLID_115_" class="description_frame_st7" cx="226.8" cy="7.5" r="3.1"/>
	</g>
	<circle id="XMLID_951_" class="description_frame_st8" cx="226.8" cy="7.5" r="2.2"/>
	<g id="XMLID_949_">
		<circle id="XMLID_34_" class="description_frame_st7" cx="235.8" cy="7.5" r="3.1"/>
	</g>
	<circle id="XMLID_948_" class="description_frame_st8" cx="235.8" cy="7.5" r="2.2"/>
</g>
</svg>
