<?xml version="1.0" encoding="utf-8"?>
<!-- Generator: Adobe Illustrator 19.0.0, SVG Export Plug-In . SVG Version: 6.00 Build 0)  -->
<svg version="1.1" id="description_frame_edu" xmlns="http://www.w3.org/2000/svg" xmlns:xlink="http://www.w3.org/1999/xlink" x="0px" y="0px"
	 viewBox="0 0 210 120" style="enable-background:new 0 0 210 120;" xml:space="preserve">
<style type="text/css">
	.description_frame_edu_st0{opacity:0.61;fill:none;stroke:#F4BC1B;stroke-miterlimit:10;}
	.description_frame_edu_st1{opacity:0.5;}
	.description_frame_edu_st2{fill:#05BCFE;}
	.description_frame_edu_st3{fill:none;stroke:#05BCFE;stroke-miterlimit:10;stroke-opacity:0.6;}
	.description_frame_edu_st4{fill:#05BCFE;fill-opacity:0.5;stroke:#05BCFE;stroke-miterlimit:10;}
	.description_frame_edu_st5{fill:none;stroke:#05BCFE;stroke-miterlimit:10;}
</style>
<g id="XMLID_1_">
	<path id="XMLID_28_" class="description_frame_edu_st0" d="M200.5,94.4"/>
	<rect id="XMLID_27_" x="12.5" y="8.2" class="description_frame_edu_st1" width="184.2" height="102.9"/>
	<rect id="XMLID_26_" x="15.7" y="8.3" class="description_frame_edu_st2" width="4.6" height="1.6"/>
	<rect id="XMLID_25_" x="14.7" y="109.7" class="description_frame_edu_st2" width="5" height="1.4"/>
	<polyline id="XMLID_22_" class="description_frame_edu_st3" points="16.4,8.9 16.4,50.8 12.2,54.9 12.2,70.5 15.7,73.8 15.7,111.1 	"/>
	<polygon id="XMLID_16_" class="description_frame_edu_st4" points="14.7,3.9 7.5,3.9 3.8,7.3 3.8,109.7 8.5,115.4 11.6,115.4 11.6,102.3 10,102.2 
		10.4,89.2 7.6,86.6 7.8,47.2 11.7,43.9 11.7,31.4 9.3,31.4 9.3,17 11.7,17 11.7,8.3 13.5,8.3 	"/>
	<polygon id="XMLID_4_" class="description_frame_edu_st4" points="196.8,3.8 202.4,3.8 206.2,8.1 206.2,110.4 201.5,116.2 197.6,116.2 197.6,103.1 
		200.1,103.1 200.1,100.2 197.6,100.2 197.6,90 201.7,86.3 201.5,46.9 196.8,40.8 	"/>
	<polyline id="XMLID_3_" class="description_frame_edu_st5" points="186.7,8.2 190.3,8.2 190.3,15.9 193.4,15.9 193.4,46 196.8,49.7 196.8,70.7 194.1,74 
		194.1,96.8 192.1,96.8 192.1,111.1 183.8,111.1 	"/>
</g>
</svg>
