<?xml version="1.0" encoding="utf-8"?>
<!-- Generator: Adobe Illustrator 19.0.0, SVG Export Plug-In . SVG Version: 6.00 Build 0)  -->
<svg version="1.1" id="map_bg" xmlns="http://www.w3.org/2000/svg" xmlns:xlink="http://www.w3.org/1999/xlink" x="0px" y="0px"
	 viewBox="0 0 502.5 777.2" style="enable-background:new 0 0 502.5 777.2;" xml:space="preserve">
<style type="text/css">
	.map_bg_st0{fill:#007ECC;}
	.map_bg_st1{fill:none;stroke:#12B7FF;stroke-miterlimit:10;}
</style>
<polygon id="XMLID_1_" class="map_bg_st0" points="295.2,22.4 323,21.4 329.3,16.2 342.6,2.3 349.4,6.6 353.9,7.6 362.3,0 367.1,4.8 
	369.1,5.8 374.1,10.7 374.1,16.2 375.7,19.3 375.7,26.8 374.1,35.1 383.9,54 382.7,56.2 391.6,60.1 396.7,64.4 401.7,69.4 
	401.7,80.1 400,90.7 382.1,107.5 373.9,120 362.7,130.3 356.4,152.6 353,174.7 353,177.8 348.1,189.4 328.7,205.9 328.7,208.6 
	334.9,216.4 373.1,232.9 404.3,241.4 405.7,241.4 407.2,239.4 416.9,237.4 418.5,233.1 427.2,234.2 432.7,239.8 446.7,246.7 
	451.6,251.5 456.8,258 463.2,263.4 468.1,268.3 466.5,273.2 467.3,272.2 472.7,273.4 477.6,278.2 478.4,280.1 480.7,281.6 
	493.7,284.7 498.7,289.6 500.5,292 500.5,298.2 502.5,301.9 498.9,301.9 498.9,306.7 495.2,310.3 490.8,306.6 490.8,309 
	479.1,311.1 478.1,311.8 479.5,313.6 474.4,326.5 469.4,326.5 467.6,327.6 461.6,324.7 461.6,325.6 464.9,328.8 464.9,332.8 
	461.6,331.8 461.6,334.3 458.2,339.8 450.7,340.7 452.3,342.7 455,341.8 459.9,346.7 460,351.7 456.5,357.1 453.4,359.1 449.3,364 
	448.6,363.5 443.8,390.3 447.5,398.9 451.9,403.3 451.9,410.1 447.4,411.1 450.4,415.5 453.4,418.6 456.8,422.9 455.2,427.8 
	451.6,434.9 447.4,431.4 448.7,437.4 446.5,438.8 443.2,435.7 439.9,436.7 431.8,428.6 425.7,429.5 420.7,433.7 417.3,431.6 
	414.1,432.6 409.8,429.9 409.8,434.9 404.4,432.7 401.1,434.8 396,429.7 391.4,427.5 389.3,428.2 392.1,431 390.3,432.4 
	390.3,434.4 388.1,435.8 384.9,432.7 383.3,433.7 372.2,425.7 370.9,428.2 370.9,432.2 369.3,435.3 369.1,439.5 364.3,434.6 
	362.6,432.6 360.9,432.6 359.1,434.8 357.4,433.7 355.3,434.8 352.9,432.5 352.4,432.7 349.2,429.7 348.2,430.3 348.2,432 
	349.7,436.9 353,441.1 354.7,447.4 353,450.5 353,461.9 349.3,463.1 345.2,462.2 346.7,465.9 342.3,467.3 339.8,464.6 339.2,464.9 
	341.6,467.3 343.5,470 344.1,469.1 348.2,470.5 353,475.4 351.5,480.7 353,482.7 353.1,485.1 354.5,486.5 354.7,490 352.9,493.5 
	351.4,498.1 351.5,502.7 355.3,506.5 350.8,506.6 343,500.8 341.3,505.1 339.2,502.9 336.7,504.4 335,507.6 334,507.6 337.5,513.1 
	333.2,511.7 330.4,513.4 332.1,519.5 329,521.4 330.6,523.4 326.7,525.8 323.9,525.1 323.9,528.1 325.6,530.3 323.9,532.4 
	325.7,536.9 319.9,536.9 317,534.2 315.6,536.8 321,542 323.7,542.1 325.3,543.6 326.6,542.8 335.2,552.4 335.2,554.7 332.1,558.6 
	333.9,562.1 331,562.2 335,566.2 337.3,570.4 332,569.3 332,579.4 333.6,583 333.6,585.6 334.1,585.4 334.1,579.3 336.4,579.3 
	340.6,582.7 340.6,577.8 345.6,582.8 346,583.6 348,580.1 351.7,583.4 352.6,583.2 357.4,588.1 359.8,591 362.3,590.2 365.5,593.2 
	370.5,591.2 372.5,593.3 374,591.4 374.4,592 375.3,590.8 380.1,595.7 381.7,599.5 382.8,600.6 385.2,601.4 390,606.3 395.1,610.8 
	395.2,611.8 398.5,614.9 397.3,618.8 400.1,621.6 396.8,628 396.8,631.9 395.2,634.1 398.4,637.4 396.6,641.3 393.5,644.2 
	391.8,654.6 388.3,653.5 385.5,656.2 388.6,659.5 388.7,662.4 387.7,662.4 388.5,663.2 389.2,665.9 391.4,668 392.3,669.5 
	395.9,673.1 391.2,674.4 393.6,676.8 391.6,681.9 390.4,680.7 390.3,683.1 386.9,679.9 385.3,686.7 383.3,685.5 380,686.5 
	379,685.8 379,690.2 376.9,691.5 369.9,689.3 369.3,688.6 368.2,691.4 369.3,692.4 369.3,695.4 365.4,695.4 358.9,691.5 
	357.9,690.5 354.2,692.5 347.8,687.6 346.7,686.8 346.6,688.6 336.8,685.6 336.8,689.3 334.1,686.6 331.8,687.4 330.2,689.4 
	325.3,691.3 323.7,694.3 322.2,695.2 322.2,699.7 325.5,703.7 325.5,704.7 327.1,707 327.1,709.8 328.8,715 325.3,715.4 
	323.9,718.8 325.6,721.8 324,724.8 327.1,728.6 330.3,732.4 328.8,737.7 332,743.7 330.4,748.6 333.8,755 330.4,756 330.4,760.9 
	326.8,764.1 322,766 318.8,770 315.3,771.1 312.8,771.1 314.3,774.7 310.2,777.2 302.2,769.3 299.9,766.7 298.4,765.7 293.7,761 
	293.6,757.2 290,753.8 287.1,750.9 288.7,746.7 285.7,746.1 283.3,744 276.9,748 276.9,752 272.5,754.4 267.6,749.6 267.5,745.1 
	264.5,742.1 263.8,738.3 261.4,736.6 259.2,739.5 258.9,742 257.4,741.1 251.5,743.3 251.1,742.9 241.8,745.1 237,740.3 
	235.1,734.7 237.1,732.3 240.5,732.3 255.4,726.8 253.5,723.8 243.7,722.3 242.2,721.3 240.9,721.3 239.2,723.5 238,722.7 238,727 
	234.3,731.5 231.9,729.8 227.1,725.1 227.1,717.9 225.7,718.8 225.5,715.5 222.5,712.6 218.9,709 219.5,708 215.5,703.9 
	210.9,699.4 210.9,695.1 205.9,690.2 207.9,687.5 209.4,686.6 208.1,684.9 199.1,689.2 199.1,690.4 195.7,690.4 194.1,694.3 
	191.2,696.1 186.3,691.2 186.7,689.4 182.4,689.4 176.9,684.5 172.1,680 172,675.4 169.7,673.1 166.1,676.7 161.1,671.7 158.9,669 
	160.6,666.9 159,661.9 160,660.6 154.3,655.5 154.2,653.1 152.2,649.5 154,649.5 152.5,643.8 154.2,641.8 154.2,632.8 155.9,627.6 
	157.4,626.6 157.4,624.7 162.4,621.5 167.3,614.4 172.5,613.4 175.7,614.3 176.9,613.6 178.6,608.6 179.8,607 177,604.2 176.9,600 
	171.9,589.7 173.5,587.7 171.8,584.6 175.2,582.5 175.2,580.2 174.7,579.1 172.2,578 167.1,572.8 162,564.4 165.2,563.4 
	163.9,561.8 163.9,559.1 159.2,554.4 157.4,542.7 156.8,541.8 155,543 149.7,543 144.8,538.1 141.2,533.6 141.2,532.1 144.4,530.1 
	144.4,527.5 139.7,522.7 138,518.3 138,512.3 134.7,506.3 134.7,504 138.2,498.6 144.7,497.6 146.4,495.5 149.8,496.5 152.8,495.6 
	154.2,493.8 154.2,490.1 149.2,485.1 150.5,482.5 146.3,478.4 146.1,476.9 143.3,475.2 138.1,475.1 133.3,470.2 131.5,456.2 
	125.4,454.9 119.2,451 115.8,454.2 110.6,448.9 102.4,448.9 97.6,444 97.4,437.3 92.7,432.6 92.6,429.5 89.5,426.4 89.3,422 
	84.5,417.2 83.4,414.1 77,410.3 75.6,410.2 69.1,417.3 60.6,417.3 59.7,416.7 59.7,417.3 57.4,417.3 53.9,415.2 48.9,410.2 
	45.5,403.8 47.3,398.1 48.8,398.1 48.8,393.9 54,395 57.2,391.1 60.7,388.8 55.4,383.7 53.6,380.3 54.3,378.6 42.5,376.4 
	39.7,374.6 36.6,376.6 29.9,377.6 28,376.4 24.8,373.2 12.3,377.6 7,378.6 0,371 5.7,366.4 7.7,368.4 10.1,368.6 11.7,365.5 
	16.2,364.6 18.1,355.3 73.5,352.2 84.8,347.1 104.2,342 142.7,322.8 159.5,316.4 179.1,319.5 191.5,319.5 194.8,318.4 196.3,312.7 
	196.3,304.3 198.4,303 205,306.1 216.3,303.1 219,303.1 219,299.3 225.5,291.1 225.5,288.2 223.8,281 225.4,277 223.7,274.8 
	228.8,269.4 230.3,264.6 223.9,255.4 220.6,240.9 222.3,225 228.9,223 232,215 233.5,208 228.7,201.9 228.8,197.4 230.3,193.4 
	228.7,184.9 231.9,182.8 230.3,175.9 232,168.5 233.6,164.3 233.6,154.9 235.1,153 233.6,148.9 233.6,143.6 238.5,135.3 
	238.5,128.9 240.1,127.9 240.1,118.5 245,114.3 246.6,109.2 253.1,102.9 253.7,101.5 251.9,99.7 249.7,96.9 256.3,88.4 256.3,87.3 
	261.3,83 262.9,82 264.5,80 267.6,73 266,71.1 266,65.5 269.4,59 270.9,58.1 270.9,53 276,46.4 279.6,46.4 282.9,48.5 290.7,50.5 
	292.3,49.5 295.3,48.5 296.8,45.8 295.2,38.5 296.8,33.3 295.2,28 "/>
<path id="XMLID_17137_" class="map_bg_st1" d="M192,320.1l3.2-1l1.6-6.1v-8.2l1.6-1l6.5,3.1l11.3-3.1h3.2v-4.1l6.5-8.2v-3.1l-1.6-7.2
	l1.6-4.1l-1.6-2.1l4.9-5.1l1.6-5.1l-6.5-9.3l-3.2-14.4l1.6-15.5l6.5-2l3.2-8.3h4.9l3.2,4.1l8.1,3.1v2.1l-4.9,13.4h4.9l1.6-7.2
	l1.6-4.1h1.6l1.6,3.1l4.9,2.1l6.5-7.2l1.6,1l-1.6,2.1h-1.6v2.1h4.9v1l1.6,3.1v2.1h8.1l4.9,5.1l1.6,4.1l-1.6,7.2l3.2,4.1l4.9,10.3
	l3.2-1l3.2,2.1v2l-3.2,4.1l1.6,1l3.2,1l1.6,2.1l3.2,1v7.2l-1.6,1h-6.5l-1.6,1v7.2v2.1l1.6,1l1.6,4.1l-3.2,2.1l-4.9-1l-1.6,2.1
	l1.6,4.1l3.2,4.1l1.6,5.1l-1.6,5.1l1.6,3.1v5.1l4.9,5.1v3.1l1.6,1l4.9,1v3.1l1.6,7.2l9.7,5.1l4.9,1l3.2-1l1.6-2v-1l3.2-2l4.9-2
	l1.6-4.1l-1.6-6.1l11.3-10.2l8.1,2l9.7,1l-1.6-12.3V317l11.3-11.3l4.9-6.1v-9.2h-6.5l-1.6-14.4l-1.6-2.1h-1.6l-1.6-5.1l-1.6-5.1
	l1.6-4.1l4.9-3.1l4.9,1l4.9-3.1l-8.1-14.4l-1.6-3.1l1.6-3.1l30.8,8.2h1.6l1.6-2.1l9.7-2l1.6-4.1l8.1,1l3.2,4.1l3.2,2l13,6.2
	l8.1,10.3l4.9,3.1l3.2,3.1l-3.2,9.2l6.5,2.1l1.6-2.1l4.9,1l1.6,4.1l6.5,4.1l13,3.1l1.6,2.1v6.2l1.6,3.1h-3.2v5.1l-3.2,3.1l-4.9-4.1
	v1v2.1l-11.3,2.1l-1.6,1l1.6,2.1l-4.9,12.3h-4.9l-1.6,1l-6.5-3.1v3.1l3.2,2.1v3.1l-3.2-1l-1.6,1h1.6v2l-3.2,5.1l-8.1,1l6.5,8.2
	l3.2-1v4.1l-3.2,5.1l-3.2,2l-3.2,4.1v-1l-1.6,1l-4.9,27.5l1.6,4.1l3.2,7.1l3.2,2v4.1v2l-4.9,1l4.9,7.1l1.6,1l3.2,4.1l-1.6,5.1
	l-3.2,6.1l-4.9-4.1l1.6,7.1l-1.6,1l-3.2-3.1l-3.2,1l-8.1-8.1l-6.5,1l-4.9,4.1l-3.2-2l-3.2,1l-4.9-3.1v2v3.1l-4.9-2l-3.2,2l-3.2-4.1
	l-6.5-3.1l-3.2,1l3.2,3.1l-1.6,1v2l-1.6,1l-3.2-3.1l-1.6,1l-11.3-8.1l-1.6,3.1v4.1l-1.6,3.1v3.1l-4.9-6.1h-3.2l-1.6,2l-1.6-1l-1.6,1
	v-3.1l-3.2,1l-3.2-3.1l-1.6,1v2l1.6,5.1l3.2,4l1.6,6.1l-1.6,3v4v7.1l-3.2,1l-4.9-1l1.6,4.1l-3.2,1v-1v-1l-1.6-2l-3.2-5.1l-1.6,1
	l3.2,5.1l-1.6,2l3.2,2l6.5,9.1l1.6-2l3.2,1l-1.6,5.1l1.6,2v3l1.6,1v3l-1.6,3l-1.6,5.1v2v3l3.2,3h-3.2l-8.1-6.1l-1.6,4.1l-1.6-2
	l-3.2,2l-1.6,3h-1.6l3.2,5.1l-3.2-1l-3.2,2l1.6,6.1l-3.2,2l1.6,2l-3.2,2l-3.2-1v1l-3.2-3l-1.6,3h-4.9v2l-9.7,3l-3.2-1l-3.2-4l-3.2,3
	H286v4l-4.9-2l-4.9,3l-1.6-2v-6l-4.9-5.1l-1.6-8.1l-4.9-6.1v-6.1l-4.9-6.1v-2l-1.6-4.1l-3.2-2h-4.9l1.6-4v-3l-1.6-1l-1.6-3l-1.6-1
	l1.6-2h-1.6l-3.2-3l-1.6-1v-2l-1.6-3h-4.9l-4.9-4.1l-9.7-19.3l-1.6-1H213l-6.5-7.1l-3.2-10.2v-5.1l-4.9-5.1l6.5-3l3.2,7.1l-1.6,3.1
	l4.9,5.1l8.1-4.1l-4.9-14.2l8.1-5.1l21.1,1l1.6-2l-1.6-1l-11.3-6.1l-1.6-3.1l6.5-3.1l-3.2-2l1.6-2l9.7-3l-1.6-3.1l1.6-1h4.9
	l-3.2-5.1l8.1-1l3.2-2v-2l6.5-6.1l-1.6-3.1l-4.9-1l-4.9-4.1v-3.1l3.2-9.2l-1.6-1l1.6-6.1l-4.9-10.3v-4.1l-3.2-1v6.1l-4.9,9.2h-1.6
	v3.1l-1.6,5.1l-3.2,1l-1.6-1l1.6-5.1l-1.6-2l1.6-5.1V315h-6.5l-3.2,2.1h-6.5l-3.2,1l-8.1-1l-9.7,3.1H192z"/>
<path id="XMLID_17128_" class="map_bg_st1" d="M192,320.1h8.1l9.7-3.1l8.1,1l3.2-1h6.5l3.2-2.1h6.5v6.2l-1.6,5.1l1.6,2l-1.6,5.1l1.6,1
	l3.2-1l1.6-5.1v-3.1h1.6l4.9-9.2v-6.1l3.2,1v4.1l4.9,10.3l-1.6,6.1l1.6,1l-3.2,9.2v3.1l4.9,4.1l4.9,1l1.6,3.1l-6.5,6.1v2l-3.2,2
	l-8.1,1l3.2,5.1h-4.9l-1.6,1l1.6,3.1l-9.7,3l-1.6,2l3.2,2l-6.5,3.1l1.6,3.1l11.3,6.1l1.6,1l-1.6,2l-21.1-1l-8.1,5.1l4.9,14.2
	l-8.1,4.1l-4.9-5.1l1.6-3.1l-3.2-7.1l-6.5,3l4.9,5.1v5.1l3.2,10.2l6.5,7.1h4.9l1.6,1l9.7,19.3l4.9,4.1h4.9l1.6,3v2l1.6,1l3.2,3h1.6
	l-1.6,2l1.6,1l1.6,3l1.6,1v3l-1.6,4h4.9l3.2,2l1.6,4.1v2l4.9,6.1v6.1l4.9,6.1l1.6,8.1l4.9,5.1v6l1.6,2l-11.3,5.1h-3.2v2v1l-3.2,1
	l-1.6,4h-1.6l-1.6,3l4.9,3l1.6,6v5l-1.6,3l-1.6,1l-3.2,5v2l1.6,3l-1.6,3l-3.2-1l-1.6,8l3.2,4v11l-8.1-3h-8.1l-3.2,8h-1.6l-1.6,3
	l-6.5,5l-3.2-3l-4.9,1l4.9-6v-2l-1.6-1l-3.2-1l-1.6,2l-3.2-1l-4.9,5h-1.6l-4.9-4l-4.9-9l-3.2-1l-8.1,5H179l-1.6,4l-4.9-10l1.6-2
	l-1.6-3l3.2-2v-3l-3.2-5l-4.9-2l-3.2-5l-1.6-3l3.2-1l-1.6-2v-7.1l-3.2-2l-1.6,1l-1.6-11.1l-4.9-7l-3.2,2h-4.9l-3.2-4v-1l3.2-2v-3
	l-1.6-4l-3.2-1l-1.6-4v-6.1l-3.2-6.1v-2l3.2-5.1l6.5-1l1.6-2l3.2,1l3.2-1l1.6-2V486v-1l-3.2,1l-1.6-1l1.6-3l-3.2-3l-1.6-1v-4.1
	l-3.2-2h-1.6l-3.2-2h-4.9l-1.6-14.2l-1.6-4.1l-9.7-2l-6.5-4l-3.2,3l-1.6-3l-3.2-2h-8.1v-1v-8.1l-4.9-2v-3.1l-3.2-3.1v-5.1l-4.9-4.1
	l-1.6-6.1l-6.5-3.1l-4.9-3.1h-1.6l-6.5,7.1h-8.1l-1.6-1v1h-1.6l-3.2-2l-3.2-6.1l1.6-5.1h1.6v-4.1l4.9,1l3.2-4.1l6.5-4.1v-2h-3.2
	l-4.9-2l-1.6-3.1l3.2-6.1v-1l-4.9-1l-3.2,1l-11.3-2l-3.2-2l-3.2,2l-6.5,1l-1.6-1l-1.6-3.1v-1l-14.6,5.1l-4.9,1l-1.6-2l4.9-4.1l1.6,2
	h3.2l1.6-3.1l4.9-1l1.6-9.2l55.1-3.1l11.3-5.1l19.4-5.1l38.9-19.4l16.2-6.2l19.4,3.1H192z"/>
<path id="XMLID_17117_" class="map_bg_st1" d="M177.4,599.9l1.6-4h3.2l8.1-5l3.2,1l4.9,9l4.9,4h1.6l4.9-5l3.2,1l1.6-2l3.2,1l1.6,1v2l-4.9,6
	l4.9-1l3.2,3l6.5-5l1.6-3h1.6l3.2-8h8.1l8.1,3v-11l-3.2-4l1.6-8l3.2,1l1.6-3l-1.6-3v-2l3.2-5l1.6-1l1.6-3v-5l-1.6-6l-4.9-3l1.6-3
	h1.6l1.6-4l3.2-1v-1v-2h3.2l11.3-5.1l4.9-3l4.9,2v-4h3.2l3.2-3l3.2,4l3.2,1l9.7-3v-2h4.9l1.6-3l3.2,3v3l1.6,2l-1.6,2l1.6,4h-4.9
	l-3.2-3l-1.6,3l-3.2-3h-1.6l1.6,5.1l6.5,2v3h3.2l3.2,4h3.2v3l3.2-2l3.2,4v2l-3.2,4l1.6,3h-3.2v3l4.9,2l1.6,3l-4.9-1v10.1v1l1.6,3v3
	l-4.9-5l-1.6,1v1l3.2,4l1.6,3l1.6-1l3.2,3l3.2-1v-6h1.6l4.9,4v-4l1.6,3l3.2,2l1.6-3v4l1.6-1l3.2-1l4.9,6l1.6,2l3.2-1l3.2,3l4.9-2
	l1.6,3l1.6-2v1l1.6-2l1.6,4l1.6,1l3.2,4l3.2,1l1.6,3v3l1.6,2v1l1.6-3v4l3.2-1l-1.6,4l3.2,2l-3.2,6v1v3l-1.6,2v3l3.2,1l-1.6,3l-3.2,3
	l-1.6,10l-3.2-1l-3.2,3v1l-1.6,1v2h4.9v2h-1.6v3l1.6-1l1.6,6l1.6-1l1.6,3l1.6,1l-4.9,1l3.2,3l-1.6,4l-1.6-2v3l-3.2-3l-1.6,7l-1.6-1
	l-3.2,1l-1.6-1v5l-1.6,1l-6.5-2v-1h-1.6l-1.6,5h1.6v2h-3.2l-6.5-4l-1.6-3v2l-3.2,2l-3.2-2l-1.6-5l-1.6,2l-1.6-2v3l-9.7-3v3l-1.6-2
	l-3.2,1l-1.6,2l-4.9,2l-1.6,3l-1.6,1v5l3.2,4v1l1.6,2v3l1.6,5H320l-1.6,4l1.6,3l-1.6,3l3.2,4v3l3.2,1l-1.6,5l3.2,6l-1.6,5l3.2,6
	l-3.2,1v5l-3.2,3l-4.9,2l-3.2,4l-3.2,1H307l1.6,4l-3.2,2l-1.6-3h-1.6l-1.6-2l-1.6-4h-1.6l-3.2-2v-5l-3.2-2l-3.2-3l1.6-4l-1.6-6h-6.5
	l-1.6-3l-1.6-2v3l-6.5,4v4l-3.2,2v-6l-3.2-1l-1.6-9v-6l3.2-2v-2h-1.6l-1.6,3l-1.6-2l-6.5,2l-1.6-3l1.6-1l-1.6-2v1l-1.6-2l-13-2
	l-1.6-1h-1.6l-1.6,2l-1.6-1v5l-3.2,4l-1.6-1v-8l-1.6,1v-4v-3l-3.2,1l-3.2-3l1.6-2l-4.9-3l1.6-3l-1.6-1v2l-1.6-1v-2h-3.2v-1v-5
	l-4.9-3l1.6-2l1.6-1l1.6-4l1.6,5h1.6l1.6-3v-3l-3.2,2l-3.2-3h-3.2v-1l-1.6,1l-1.6-2l-9.7,5v1h-3.2l-1.6,4l-1.6,1l1.6-5l-1.6-1h-9.7
	l-1.6-2l-1.6-4l-1.6,1v-5l-3.2-2l-1.6-6v1l-1.6-1l-4.9,5l-1.6-2l1.6-2l-1.6-5l1.6-2l1.6,1l1.6-2l-3.2-2l-6.5-2v-2l-1.6-3h1.6l-1.6-6
	l1.6-2v-8v-1l1.6-5l1.6-1v-2l4.9-3l4.9-7l4.9-1l3.2,1l1.6-1l1.6-5l1.6-2l-3.2-3V599.9z M251.9,733.9v-1v3l-4.9,2v-1l-1.6,1l-8.1,2
	l-1.6-5l1.6-2h3.2l16.2-6l4.9-1l-1.6,7h-1.6l-1.6-3l-1.6,2l-1.6,3v1L251.9,733.9z"/>
<path id="XMLID_16809_" class="map_bg_st1" d="M255.2,100.2l6.5,2.1l6.5,5.2l1.6,1v2.1l1.6,2.1l11.3,2.1l6.5-3.1l6.5,5.2l4.9-2.1v4.1
	l3.2-2.1h6.5v1l-1.6,3.1l1.6,1v1l4.9,6.2h3.2l-1.6,3.1l1.6,2.1l3.2-1v-2.1h3.2l14.6,5.2v2.1l3.2,3.1h6.5l-1.6,3.1l3.2,3.1l-3.2,21.8
	v3.1l-4.9,11.4l-19.4,16.5v3.1l9.7,12.4l40.5,17.5l-1.6,3.1l1.6,3.1l8.1,14.4l-4.9,3.1l-4.9-1l-4.9,3.1l-1.6,4.1l1.6,5.1l1.6,5.1
	h1.6l1.6,2.1l1.6,14.4h6.5v9.2l-4.9,6.1L363.8,317v4.1l1.6,12.3l-9.7-1l-8.1-2l-11.3,10.2l1.6,6.1l-1.6,4.1l-4.9,2l-3.2,2v1l-1.6,2
	l-3.2,1l-4.9-1l-9.7-5.1l-1.6-7.2v-3.1l-4.9-1l-1.6-1v-3.1l-4.9-5.1v-5.1l-1.6-3.1l1.6-5.1l-1.6-5.1l-3.2-4.1l-1.6-4.1l1.6-2.1
	l4.9,1l3.2-2.1l-1.6-4.1l-1.6-1v-2.1v-7.2l1.6-1h6.5l1.6-1v-7.2l-3.2-1l-1.6-2.1l-3.2-1l-1.6-1l3.2-4.1v-2l-3.2-2.1l-3.2,1
	l-4.9-10.3l-3.2-4.1l1.6-7.2l-1.6-4.1l-4.9-5.1h-8.1v-2.1l-1.6-3.1v-1h-4.9v-2.1h1.6l1.6-2.1l-1.6-1l-6.5,7.2l-4.9-2.1l-1.6-3.1
	h-1.6l-1.6,4.1l-1.6,7.2h-4.9l4.9-13.4v-2.1l-8.1-3.1l-3.2-4.1h-4.9l1.6-7.2l-4.9-6.2v-4.1l1.6-4.1l-1.6-8.3l3.2-2.1l-1.6-7.2
	l1.6-7.3l1.6-4.1v-9.3l1.6-2.1l-1.6-4.2v-5.2l4.9-8.3v-6.2l1.6-1v-9.4l4.9-4.1l1.6-5.2l6.5-6.2L255.2,100.2z"/>
<path id="XMLID_16801_" class="map_bg_st1" d="M396.2,75.2l-1.6,10.4l-17.8,16.7l-8.1,12.5l-11.3,10.4l-6.5,22.8l-3.2-3.1l1.6-3.1h-6.5
	l-3.2-3.1v-2.1l-14.6-5.2h-3.2v2.1l-3.2,1l-1.6-2.1l1.6-3.1h-3.2l-4.9-6.2v-1l-1.6-1l1.6-3.1v-1h-6.5l-3.2,2.1v-4.1l-4.9,2.1
	l-6.5-5.2l-6.5,3.1l-11.3-2.1l-1.6-2.1v-2.1l-1.6-1l-6.5-5.2l-6.5-2.1l-3.2-1l-1.6-2.1l6.5-8.3v-1l4.9-4.2l1.6-1l1.6-2.1l3.2-7.3
	l-1.6-2.1v-5.2l3.2-6.3l1.6-1v-2.1v-3.1l4.9-6.3h3.2l3.2,2.1l8.1,2.1l1.6-1l3.2-1l1.6-3.1l-1.6-7.3l1.6-5.2l-1.6-5.2v-5.2l27.6-1
	l6.5-5.2l13-13.6l6.5,4.2l4.9,1l8.1-7.3l1.6,3.1l4.9,2.1v5.2l1.6,3.1v7.3l-1.6,8.4l9.7,18.8l-1.6,3.1v7.3l4.9-3.1l9.7,4.2l4.9,4.2
	V75.2z"/>
</svg>
