<?xml version="1.0" encoding="utf-8"?>
<!-- Generator: Adobe Illustrator 19.0.0, SVG Export Plug-In . SVG Version: 6.00 Build 0)  -->
<svg version="1.1" id="center_map_frame" xmlns="http://www.w3.org/2000/svg" xmlns:xlink="http://www.w3.org/1999/xlink" x="0px" y="0px"
	 viewBox="-111 -190 736 940" style="enable-background:new -111 -190 736 940;" xml:space="preserve">
<style type="text/css">
	.center_map_frame_st0{fill:#00BEFF;}
</style>
<g>
	<path class="center_map_frame_st0" d="M622.7-28.5v-111.2l-4.2-10.7v-14l-1.7-1.7v-8.4l-12.2-12.2H596l-2.2-2.2l-0.1-0.1H427.4l-10.8,6.3h-316
		l-10.8-6.3H-79.8l-2,2h-7.8l-12.2,12.2v7.9l-2.7,2.7v13.9l-4.2,10.7v111.2l4.2,10.9v590.1l-4.2,10.7v111.2l4.2,10.9v13.1l2.1,2.1
		v8.7l12.2,12.2h8.7l1.7,1.7h12.3l5.7,5.8h57.6l5.8-5.8h507l5.7,5.8h57.6l5.8-5.8h15.9l2-2h8.3l12.2-12.2v-8.3l2.1-2.1l0.1-0.1
		v-13.1l4.2-10.9V583.3l-4.2-10.7V-17.6L622.7-28.5z M617.5,718.1l-24.2,24.2H379l-18.9-9.3H156.9l-21.7,9.3H-79.3l-24.2-24.2v-882
		l24.2-24.2h11.3l11.3,5.8H54.4l11.1-5.8h24l10.8,6.3h316.5l10.8-6.3h24l11.3,5.8h111.2l11.1-5.8h8l24.2,24.1V718.1z"/>
</g>
</svg>
