<?xml version="1.0" encoding="utf-8"?>
<!-- Generator: Adobe Illustrator 19.0.0, SVG Export Plug-In . SVG Version: 6.00 Build 0)  -->
<svg version="1.1" id="map_frame_short" xmlns="http://www.w3.org/2000/svg" xmlns:xlink="http://www.w3.org/1999/xlink" x="0px" y="0px"
	 viewBox="0 0 734 896" style="enable-background:new 0 0 734 896;" xml:space="preserve">
<style type="text/css">
	.map_frame_short_st0{fill:#00BEFF;}
</style>
<path id="XMLID_14131_" class="map_frame_short_st0" d="M732.7,162.5V51.3l-4.2-10.7v-14l-1.7-1.7v-8.4L714.6,4.2H706L703.8,2l-0.1-0.1H537.4
	l-10.8,6.3h-316l-10.8-6.3H30.2l-2,2h-7.8L8.2,16.1v7.9l-2.7,2.7v13.9L1.3,51.3v111.2l4.2,10.9v544.2l-4.2,10.7v111.2l4.2,10.9v13.1
	l2.1,2.1v8.7l12.2,12.2h8.7l1.7,1.7h12.3l5.7,5.8h57.6l5.8-5.8h507l5.7,5.8h57.6l5.8-5.8h15.9l2-2h8.3l12.2-12.2v-8.3l2.1-2.1
	l0.1-0.1v-13.1l4.2-10.9V728.3l-4.2-10.7V173.4L732.7,162.5z M727.5,863.1l-24.2,24.2H489l-18.9-9.3H266.9l-21.7,9.3H30.7L6.5,863.1
	V27.1L30.7,2.9h11.3l11.3,5.8h111.2l11.1-5.8h24l10.8,6.3h316.5l10.8-6.3h24L573,8.7h111.2l11.1-5.8h8l24.2,24.1V863.1z"/>
</svg>
