<?xml version="1.0" encoding="utf-8"?>
<!-- Generator: Adobe Illustrator 19.0.0, SVG Export Plug-In . SVG Version: 6.00 Build 0)  -->
<svg version="1.1" id="precipitation_rain" xmlns="http://www.w3.org/2000/svg" xmlns:xlink="http://www.w3.org/1999/xlink" x="0px" y="0px"
	 viewBox="0 0 10 8" style="enable-background:new 0 0 10 8;" xml:space="preserve">
<style type="text/css">
	.precipitation_rain_st0{fill:#FFFFFF;}
</style>
<path class="precipitation_rain_st0" d="M0.7,3.1C0.3,2.5,0.5,1.7,1.1,1.4l0,0l1.6-0.9c0.1,0,0.1,0,0.1,0.1l0,1.8v0c0,0.7-0.6,1.3-1.3,1.2
	C1.2,3.6,0.9,3.4,0.7,3.1L0.7,3.1z M2.9,6.9C3.1,7.2,3.5,7.5,4,7.5C4.8,7.6,5.6,6.8,5.5,6v0l0-2.2c0-0.1-0.1-0.1-0.1-0.1L3.4,4.8
	c0,0,0,0,0,0C2.7,5.2,2.4,6.1,2.9,6.9L2.9,6.9z M7.4,3.1C7,2.5,7.2,1.7,7.8,1.4l0,0l1.6-0.9c0.1,0,0.1,0,0.1,0.1l0,1.8v0
	c0,0.7-0.6,1.3-1.3,1.2C7.9,3.6,7.6,3.4,7.4,3.1L7.4,3.1z"/>
</svg>
