<?xml version="1.0" encoding="utf-8"?>
<!-- Generator: Adobe Illustrator 19.0.0, SVG Export Plug-In . SVG Version: 6.00 Build 0)  -->
<svg version="1.1" id="图层_1" xmlns="http://www.w3.org/2000/svg" xmlns:xlink="http://www.w3.org/1999/xlink" x="0px" y="0px"
	 viewBox="0 0 320 6" style="enable-background:new 0 0 320 6;" xml:space="preserve">
<style type="text/css">
	.ruler_top_st0{fill:#00BEFF;}
</style>
<g id="XMLID_14134_">
	<rect id="XMLID_15275_" x="0.1" y="3.4" class="ruler_top_st0" width="1" height="2.4"/>
	<rect id="XMLID_15274_" x="2.1" y="3.4" class="ruler_top_st0" width="1" height="2.4"/>
	<rect id="XMLID_15273_" x="4" y="3.4" class="ruler_top_st0" width="1" height="2.4"/>
	<rect id="XMLID_15272_" x="6" y="3.4" class="ruler_top_st0" width="1" height="2.4"/>
	<rect id="XMLID_15271_" x="7.9" y="0.2" class="ruler_top_st0" width="1" height="5.6"/>
	<rect id="XMLID_15270_" x="9.8" y="3.4" class="ruler_top_st0" width="1" height="2.4"/>
	<rect id="XMLID_15269_" x="11.8" y="3.4" class="ruler_top_st0" width="1" height="2.4"/>
	<rect id="XMLID_15268_" x="13.7" y="3.4" class="ruler_top_st0" width="1" height="2.4"/>
	<rect id="XMLID_15267_" x="15.7" y="3.4" class="ruler_top_st0" width="1" height="2.4"/>
	<rect id="XMLID_15266_" x="17.6" y="0.2" class="ruler_top_st0" width="1" height="5.6"/>
	<rect id="XMLID_15265_" x="19.6" y="3.4" class="ruler_top_st0" width="1" height="2.4"/>
	<rect id="XMLID_15264_" x="21.5" y="3.4" class="ruler_top_st0" width="1" height="2.4"/>
	<rect id="XMLID_15263_" x="23.4" y="3.4" class="ruler_top_st0" width="1" height="2.4"/>
	<rect id="XMLID_15262_" x="25.4" y="3.4" class="ruler_top_st0" width="1" height="2.4"/>
	<rect id="XMLID_15261_" x="27.3" y="0.2" class="ruler_top_st0" width="1" height="5.6"/>
	<rect id="XMLID_15260_" x="29.3" y="3.4" class="ruler_top_st0" width="1" height="2.4"/>
	<rect id="XMLID_15259_" x="31.2" y="3.4" class="ruler_top_st0" width="1" height="2.4"/>
	<rect id="XMLID_15258_" x="33.2" y="3.4" class="ruler_top_st0" width="1" height="2.4"/>
	<rect id="XMLID_15257_" x="35.1" y="3.4" class="ruler_top_st0" width="1" height="2.4"/>
	<rect id="XMLID_15256_" x="37.1" y="0.2" class="ruler_top_st0" width="1" height="5.6"/>
	<rect id="XMLID_15255_" x="39" y="3.4" class="ruler_top_st0" width="1" height="2.4"/>
	<rect id="XMLID_15254_" x="40.9" y="3.4" class="ruler_top_st0" width="1" height="2.4"/>
	<rect id="XMLID_15253_" x="42.9" y="3.4" class="ruler_top_st0" width="1" height="2.4"/>
	<rect id="XMLID_15252_" x="44.8" y="3.4" class="ruler_top_st0" width="1" height="2.4"/>
	<rect id="XMLID_15251_" x="46.8" y="0.2" class="ruler_top_st0" width="1" height="5.6"/>
	<rect id="XMLID_15250_" x="48.7" y="3.4" class="ruler_top_st0" width="1" height="2.4"/>
	<rect id="XMLID_15249_" x="50.7" y="3.4" class="ruler_top_st0" width="1" height="2.4"/>
	<rect id="XMLID_15248_" x="52.6" y="3.4" class="ruler_top_st0" width="1" height="2.4"/>
	<rect id="XMLID_15247_" x="54.5" y="3.4" class="ruler_top_st0" width="1" height="2.4"/>
	<rect id="XMLID_15246_" x="56.5" y="0.2" class="ruler_top_st0" width="1" height="5.6"/>
	<rect id="XMLID_15245_" x="58.4" y="3.4" class="ruler_top_st0" width="1" height="2.4"/>
	<rect id="XMLID_15244_" x="60.4" y="3.4" class="ruler_top_st0" width="1" height="2.4"/>
	<rect id="XMLID_15243_" x="62.3" y="3.4" class="ruler_top_st0" width="1" height="2.4"/>
	<rect id="XMLID_15242_" x="64.3" y="3.4" class="ruler_top_st0" width="1" height="2.4"/>
	<rect id="XMLID_15241_" x="66.2" y="0.2" class="ruler_top_st0" width="1" height="5.6"/>
	<rect id="XMLID_15240_" x="68.2" y="3.4" class="ruler_top_st0" width="1" height="2.4"/>
	<rect id="XMLID_15239_" x="70.1" y="3.4" class="ruler_top_st0" width="1" height="2.4"/>
	<rect id="XMLID_15238_" x="72" y="3.4" class="ruler_top_st0" width="1" height="2.4"/>
	<rect id="XMLID_15237_" x="74" y="3.4" class="ruler_top_st0" width="1" height="2.4"/>
	<rect id="XMLID_15236_" x="75.9" y="0.2" class="ruler_top_st0" width="1" height="5.6"/>
	<rect id="XMLID_15235_" x="77.9" y="3.4" class="ruler_top_st0" width="1" height="2.4"/>
	<rect id="XMLID_15234_" x="79.8" y="3.4" class="ruler_top_st0" width="1" height="2.4"/>
	<rect id="XMLID_15233_" x="81.8" y="3.4" class="ruler_top_st0" width="1" height="2.4"/>
	<rect id="XMLID_15232_" x="83.7" y="3.4" class="ruler_top_st0" width="1" height="2.4"/>
	<rect id="XMLID_15231_" x="85.6" y="0.2" class="ruler_top_st0" width="1" height="5.6"/>
	<rect id="XMLID_15230_" x="87.6" y="3.4" class="ruler_top_st0" width="1" height="2.4"/>
	<rect id="XMLID_15229_" x="89.5" y="3.4" class="ruler_top_st0" width="1" height="2.4"/>
	<rect id="XMLID_15228_" x="91.5" y="3.4" class="ruler_top_st0" width="1" height="2.4"/>
	<rect id="XMLID_15227_" x="93.4" y="3.4" class="ruler_top_st0" width="1" height="2.4"/>
	<rect id="XMLID_15226_" x="95.4" y="0.2" class="ruler_top_st0" width="1" height="5.6"/>
	<rect id="XMLID_15225_" x="97.3" y="3.4" class="ruler_top_st0" width="1" height="2.4"/>
	<rect id="XMLID_15224_" x="99.2" y="3.4" class="ruler_top_st0" width="1" height="2.4"/>
	<rect id="XMLID_15223_" x="101.2" y="3.4" class="ruler_top_st0" width="1" height="2.4"/>
	<rect id="XMLID_15222_" x="103.1" y="3.4" class="ruler_top_st0" width="1" height="2.4"/>
	<rect id="XMLID_15221_" x="105.1" y="0.2" class="ruler_top_st0" width="1" height="5.6"/>
	<rect id="XMLID_15220_" x="107" y="3.4" class="ruler_top_st0" width="1" height="2.4"/>
	<rect id="XMLID_15219_" x="109" y="3.4" class="ruler_top_st0" width="1" height="2.4"/>
	<rect id="XMLID_15218_" x="110.9" y="3.4" class="ruler_top_st0" width="1" height="2.4"/>
	<rect id="XMLID_15217_" x="112.9" y="3.4" class="ruler_top_st0" width="1" height="2.4"/>
	<rect id="XMLID_15216_" x="114.8" y="0.2" class="ruler_top_st0" width="1" height="5.6"/>
	<rect id="XMLID_15215_" x="116.7" y="3.4" class="ruler_top_st0" width="1" height="2.4"/>
	<rect id="XMLID_15214_" x="118.7" y="3.4" class="ruler_top_st0" width="1" height="2.4"/>
	<rect id="XMLID_15213_" x="120.6" y="3.4" class="ruler_top_st0" width="1" height="2.4"/>
	<rect id="XMLID_15212_" x="122.6" y="3.4" class="ruler_top_st0" width="1" height="2.4"/>
	<rect id="XMLID_15211_" x="124.5" y="0.2" class="ruler_top_st0" width="1" height="5.6"/>
	<rect id="XMLID_15210_" x="126.5" y="3.4" class="ruler_top_st0" width="1" height="2.4"/>
	<rect id="XMLID_15209_" x="128.4" y="3.4" class="ruler_top_st0" width="1" height="2.4"/>
	<rect id="XMLID_15208_" x="130.3" y="3.4" class="ruler_top_st0" width="1" height="2.4"/>
	<rect id="XMLID_15207_" x="132.3" y="3.4" class="ruler_top_st0" width="1" height="2.4"/>
	<rect id="XMLID_15206_" x="134.2" y="0.2" class="ruler_top_st0" width="1" height="5.6"/>
	<rect id="XMLID_15205_" x="136.2" y="3.4" class="ruler_top_st0" width="1" height="2.4"/>
	<rect id="XMLID_15204_" x="138.1" y="3.4" class="ruler_top_st0" width="1" height="2.4"/>
	<rect id="XMLID_15203_" x="140.1" y="3.4" class="ruler_top_st0" width="1" height="2.4"/>
	<rect id="XMLID_15202_" x="142" y="3.4" class="ruler_top_st0" width="1" height="2.4"/>
	<rect id="XMLID_15201_" x="144" y="0.2" class="ruler_top_st0" width="1" height="5.6"/>
	<rect id="XMLID_15200_" x="145.9" y="3.4" class="ruler_top_st0" width="1" height="2.4"/>
	<rect id="XMLID_15199_" x="147.8" y="3.4" class="ruler_top_st0" width="1" height="2.4"/>
	<rect id="XMLID_15198_" x="149.8" y="3.4" class="ruler_top_st0" width="1" height="2.4"/>
	<rect id="XMLID_15197_" x="151.7" y="3.4" class="ruler_top_st0" width="1" height="2.4"/>
	<rect id="XMLID_15196_" x="153.7" y="0.2" class="ruler_top_st0" width="1" height="5.6"/>
	<rect id="XMLID_15195_" x="155.6" y="3.4" class="ruler_top_st0" width="1" height="2.4"/>
	<rect id="XMLID_15194_" x="157.6" y="3.4" class="ruler_top_st0" width="1" height="2.4"/>
	<rect id="XMLID_15193_" x="159.5" y="3.4" class="ruler_top_st0" width="1" height="2.4"/>
	<rect id="XMLID_15192_" x="161.4" y="3.4" class="ruler_top_st0" width="1" height="2.4"/>
	<rect id="XMLID_15191_" x="163.4" y="0.2" class="ruler_top_st0" width="1" height="5.6"/>
	<rect id="XMLID_15190_" x="165.3" y="3.4" class="ruler_top_st0" width="1" height="2.4"/>
	<rect id="XMLID_15189_" x="167.3" y="3.4" class="ruler_top_st0" width="1" height="2.4"/>
	<rect id="XMLID_14299_" x="169.2" y="3.4" class="ruler_top_st0" width="1" height="2.4"/>
	<rect id="XMLID_14296_" x="171.2" y="3.4" class="ruler_top_st0" width="1" height="2.4"/>
	<rect id="XMLID_14293_" x="173.1" y="0.2" class="ruler_top_st0" width="1" height="5.6"/>
	<rect id="XMLID_14291_" x="175" y="3.4" class="ruler_top_st0" width="1" height="2.4"/>
	<rect id="XMLID_14290_" x="177" y="3.4" class="ruler_top_st0" width="1" height="2.4"/>
	<rect id="XMLID_14288_" x="178.9" y="3.4" class="ruler_top_st0" width="1" height="2.4"/>
	<rect id="XMLID_14287_" x="180.9" y="3.4" class="ruler_top_st0" width="1" height="2.4"/>
	<rect id="XMLID_14285_" x="182.8" y="0.2" class="ruler_top_st0" width="1" height="5.6"/>
	<rect id="XMLID_14284_" x="184.8" y="3.4" class="ruler_top_st0" width="1" height="2.4"/>
	<rect id="XMLID_14282_" x="186.7" y="3.4" class="ruler_top_st0" width="1" height="2.4"/>
	<rect id="XMLID_14281_" x="188.7" y="3.4" class="ruler_top_st0" width="1" height="2.4"/>
	<rect id="XMLID_14278_" x="190.6" y="3.4" class="ruler_top_st0" width="1" height="2.4"/>
	<rect id="XMLID_14277_" x="192.5" y="0.2" class="ruler_top_st0" width="1" height="5.6"/>
	<rect id="XMLID_14276_" x="194.5" y="3.4" class="ruler_top_st0" width="1" height="2.4"/>
	<rect id="XMLID_14275_" x="196.4" y="3.4" class="ruler_top_st0" width="1" height="2.4"/>
	<rect id="XMLID_14274_" x="198.4" y="3.4" class="ruler_top_st0" width="1" height="2.4"/>
	<rect id="XMLID_14273_" x="200.3" y="3.4" class="ruler_top_st0" width="1" height="2.4"/>
	<rect id="XMLID_14272_" x="202.3" y="0.2" class="ruler_top_st0" width="1" height="5.6"/>
	<rect id="XMLID_14271_" x="204.2" y="3.4" class="ruler_top_st0" width="1" height="2.4"/>
	<rect id="XMLID_14270_" x="206.1" y="3.4" class="ruler_top_st0" width="1" height="2.4"/>
	<rect id="XMLID_14269_" x="208.1" y="3.4" class="ruler_top_st0" width="1" height="2.4"/>
	<rect id="XMLID_14268_" x="210" y="3.4" class="ruler_top_st0" width="1" height="2.4"/>
	<rect id="XMLID_14267_" x="212" y="0.2" class="ruler_top_st0" width="1" height="5.6"/>
	<rect id="XMLID_14266_" x="213.9" y="3.4" class="ruler_top_st0" width="1" height="2.4"/>
	<rect id="XMLID_14265_" x="215.9" y="3.4" class="ruler_top_st0" width="1" height="2.4"/>
	<rect id="XMLID_14264_" x="217.8" y="3.4" class="ruler_top_st0" width="1" height="2.4"/>
	<rect id="XMLID_14263_" x="219.8" y="3.4" class="ruler_top_st0" width="1" height="2.4"/>
	<rect id="XMLID_14262_" x="221.7" y="0.2" class="ruler_top_st0" width="1" height="5.6"/>
	<rect id="XMLID_14260_" x="223.6" y="3.4" class="ruler_top_st0" width="1" height="2.4"/>
	<rect id="XMLID_14259_" x="225.6" y="3.4" class="ruler_top_st0" width="1" height="2.4"/>
	<rect id="XMLID_14230_" x="227.5" y="3.4" class="ruler_top_st0" width="1" height="2.4"/>
	<rect id="XMLID_14229_" x="229.5" y="3.4" class="ruler_top_st0" width="1" height="2.4"/>
	<rect id="XMLID_14228_" x="231.4" y="0.2" class="ruler_top_st0" width="1" height="5.6"/>
	<rect id="XMLID_14227_" x="233.4" y="3.4" class="ruler_top_st0" width="1" height="2.4"/>
	<rect id="XMLID_14222_" x="235.3" y="3.4" class="ruler_top_st0" width="1" height="2.4"/>
	<rect id="XMLID_14221_" x="237.2" y="3.4" class="ruler_top_st0" width="1" height="2.4"/>
	<rect id="XMLID_14220_" x="239.2" y="3.4" class="ruler_top_st0" width="1" height="2.4"/>
	<rect id="XMLID_14219_" x="241.1" y="0.2" class="ruler_top_st0" width="1" height="5.6"/>
	<rect id="XMLID_14217_" x="243.1" y="3.4" class="ruler_top_st0" width="1" height="2.4"/>
	<rect id="XMLID_14216_" x="245" y="3.4" class="ruler_top_st0" width="1" height="2.4"/>
	<rect id="XMLID_14215_" x="247" y="3.4" class="ruler_top_st0" width="1" height="2.4"/>
	<rect id="XMLID_14214_" x="248.9" y="3.4" class="ruler_top_st0" width="1" height="2.4"/>
	<rect id="XMLID_14213_" x="250.8" y="0.2" class="ruler_top_st0" width="1" height="5.6"/>
	<rect id="XMLID_14211_" x="252.8" y="3.4" class="ruler_top_st0" width="1" height="2.4"/>
	<rect id="XMLID_14210_" x="254.7" y="3.4" class="ruler_top_st0" width="1" height="2.4"/>
	<rect id="XMLID_14204_" x="256.7" y="3.4" class="ruler_top_st0" width="1" height="2.4"/>
	<rect id="XMLID_14203_" x="258.6" y="3.4" class="ruler_top_st0" width="1" height="2.4"/>
	<rect id="XMLID_14165_" x="260.6" y="0.2" class="ruler_top_st0" width="1" height="5.6"/>
	<rect id="XMLID_14164_" x="262.5" y="3.4" class="ruler_top_st0" width="1" height="2.4"/>
	<rect id="XMLID_14163_" x="264.5" y="3.4" class="ruler_top_st0" width="1" height="2.4"/>
	<rect id="XMLID_14162_" x="266.4" y="3.4" class="ruler_top_st0" width="1" height="2.4"/>
	<rect id="XMLID_14161_" x="268.3" y="3.4" class="ruler_top_st0" width="1" height="2.4"/>
	<rect id="XMLID_14160_" x="270.3" y="0.2" class="ruler_top_st0" width="1" height="5.6"/>
	<rect id="XMLID_14159_" x="272.2" y="3.4" class="ruler_top_st0" width="1" height="2.4"/>
	<rect id="XMLID_14158_" x="274.2" y="3.4" class="ruler_top_st0" width="1" height="2.4"/>
	<rect id="XMLID_14157_" x="276.1" y="3.4" class="ruler_top_st0" width="1" height="2.4"/>
	<rect id="XMLID_14156_" x="278.1" y="3.4" class="ruler_top_st0" width="1" height="2.4"/>
	<rect id="XMLID_14155_" x="280" y="0.2" class="ruler_top_st0" width="1" height="5.6"/>
	<rect id="XMLID_14154_" x="281.9" y="3.4" class="ruler_top_st0" width="1" height="2.4"/>
	<rect id="XMLID_14153_" x="283.9" y="3.4" class="ruler_top_st0" width="1" height="2.4"/>
	<rect id="XMLID_14152_" x="285.8" y="3.4" class="ruler_top_st0" width="1" height="2.4"/>
	<rect id="XMLID_14151_" x="287.8" y="3.4" class="ruler_top_st0" width="1" height="2.4"/>
	<rect id="XMLID_14150_" x="289.7" y="0.2" class="ruler_top_st0" width="1" height="5.6"/>
	<rect id="XMLID_14149_" x="291.7" y="3.4" class="ruler_top_st0" width="1" height="2.4"/>
	<rect id="XMLID_14148_" x="293.6" y="3.4" class="ruler_top_st0" width="1" height="2.4"/>
	<rect id="XMLID_14147_" x="295.6" y="3.4" class="ruler_top_st0" width="1" height="2.4"/>
	<rect id="XMLID_14146_" x="297.5" y="3.4" class="ruler_top_st0" width="1" height="2.4"/>
	<rect id="XMLID_14145_" x="299.4" y="0.2" class="ruler_top_st0" width="1" height="5.6"/>
	<rect id="XMLID_14144_" x="301.4" y="3.4" class="ruler_top_st0" width="1" height="2.4"/>
	<rect id="XMLID_14143_" x="303.3" y="3.4" class="ruler_top_st0" width="1" height="2.4"/>
	<rect id="XMLID_14142_" x="305.3" y="3.4" class="ruler_top_st0" width="1" height="2.4"/>
	<rect id="XMLID_14141_" x="307.2" y="3.4" class="ruler_top_st0" width="1" height="2.4"/>
	<rect id="XMLID_14140_" x="309.2" y="0.2" class="ruler_top_st0" width="1" height="5.6"/>
	<rect id="XMLID_14139_" x="311.1" y="3.4" class="ruler_top_st0" width="1" height="2.4"/>
	<rect id="XMLID_14138_" x="313" y="3.4" class="ruler_top_st0" width="1" height="2.4"/>
	<rect id="XMLID_14137_" x="315" y="3.4" class="ruler_top_st0" width="1" height="2.4"/>
	<rect id="XMLID_14136_" x="316.9" y="3.4" class="ruler_top_st0" width="1" height="2.4"/>
	<rect id="XMLID_14135_" x="318.9" y="0.2" class="ruler_top_st0" width="1" height="5.6"/>
</g>
</svg>
