<?xml version="1.0" encoding="utf-8"?>
<!-- Generator: Adobe Illustrator 19.0.0, SVG Export Plug-In . SVG Version: 6.00 Build 0)  -->
<svg version="1.1" id="ruler_bottom" xmlns="http://www.w3.org/2000/svg" xmlns:xlink="http://www.w3.org/1999/xlink" x="0px" y="0px"
	 viewBox="0 0 214 6" style="enable-background:new 0 0 214 6;" xml:space="preserve">
<style type="text/css">
	.ruler_bottom_st0{fill:#00BEFF;}
</style>
<g id="XMLID_14020_">
	<rect id="XMLID_14130_" x="0.6" y="3.4" class="ruler_bottom_st0" width="1" height="2.4"/>
	<rect id="XMLID_14129_" x="2.5" y="3.4" class="ruler_bottom_st0" width="1" height="2.4"/>
	<rect id="XMLID_14128_" x="4.4" y="3.4" class="ruler_bottom_st0" width="1" height="2.4"/>
	<rect id="XMLID_14127_" x="6.4" y="3.4" class="ruler_bottom_st0" width="1" height="2.4"/>
	<rect id="XMLID_14126_" x="8.3" y="0.2" class="ruler_bottom_st0" width="1" height="5.6"/>
	<rect id="XMLID_14125_" x="10.3" y="3.4" class="ruler_bottom_st0" width="1" height="2.4"/>
	<rect id="XMLID_14124_" x="12.2" y="3.4" class="ruler_bottom_st0" width="1" height="2.4"/>
	<rect id="XMLID_14123_" x="14.2" y="3.4" class="ruler_bottom_st0" width="1" height="2.4"/>
	<rect id="XMLID_14122_" x="16.1" y="3.4" class="ruler_bottom_st0" width="1" height="2.4"/>
	<rect id="XMLID_14121_" x="18.1" y="0.2" class="ruler_bottom_st0" width="1" height="5.6"/>
	<rect id="XMLID_14120_" x="20" y="3.4" class="ruler_bottom_st0" width="1" height="2.4"/>
	<rect id="XMLID_14119_" x="21.9" y="3.4" class="ruler_bottom_st0" width="1" height="2.4"/>
	<rect id="XMLID_14118_" x="23.9" y="3.4" class="ruler_bottom_st0" width="1" height="2.4"/>
	<rect id="XMLID_14117_" x="25.8" y="3.4" class="ruler_bottom_st0" width="1" height="2.4"/>
	<rect id="XMLID_14116_" x="27.8" y="0.2" class="ruler_bottom_st0" width="1" height="5.6"/>
	<rect id="XMLID_14115_" x="29.7" y="3.4" class="ruler_bottom_st0" width="1" height="2.4"/>
	<rect id="XMLID_14114_" x="31.7" y="3.4" class="ruler_bottom_st0" width="1" height="2.4"/>
	<rect id="XMLID_14113_" x="33.6" y="3.4" class="ruler_bottom_st0" width="1" height="2.4"/>
	<rect id="XMLID_14112_" x="35.5" y="3.4" class="ruler_bottom_st0" width="1" height="2.4"/>
	<rect id="XMLID_14111_" x="37.5" y="0.2" class="ruler_bottom_st0" width="1" height="5.6"/>
	<rect id="XMLID_14110_" x="39.4" y="3.4" class="ruler_bottom_st0" width="1" height="2.4"/>
	<rect id="XMLID_14109_" x="41.4" y="3.4" class="ruler_bottom_st0" width="1" height="2.4"/>
	<rect id="XMLID_14108_" x="43.3" y="3.4" class="ruler_bottom_st0" width="1" height="2.4"/>
	<rect id="XMLID_14107_" x="45.3" y="3.4" class="ruler_bottom_st0" width="1" height="2.4"/>
	<rect id="XMLID_14106_" x="47.2" y="0.2" class="ruler_bottom_st0" width="1" height="5.6"/>
	<rect id="XMLID_14105_" x="49.2" y="3.4" class="ruler_bottom_st0" width="1" height="2.4"/>
	<rect id="XMLID_14104_" x="51.1" y="3.4" class="ruler_bottom_st0" width="1" height="2.4"/>
	<rect id="XMLID_14103_" x="53" y="3.4" class="ruler_bottom_st0" width="1" height="2.4"/>
	<rect id="XMLID_14102_" x="55" y="3.4" class="ruler_bottom_st0" width="1" height="2.4"/>
	<rect id="XMLID_14101_" x="56.9" y="0.2" class="ruler_bottom_st0" width="1" height="5.6"/>
	<rect id="XMLID_14100_" x="58.9" y="3.4" class="ruler_bottom_st0" width="1" height="2.4"/>
	<rect id="XMLID_14099_" x="60.8" y="3.4" class="ruler_bottom_st0" width="1" height="2.4"/>
	<rect id="XMLID_14098_" x="62.8" y="3.4" class="ruler_bottom_st0" width="1" height="2.4"/>
	<rect id="XMLID_14097_" x="64.7" y="3.4" class="ruler_bottom_st0" width="1" height="2.4"/>
	<rect id="XMLID_14096_" x="66.6" y="0.2" class="ruler_bottom_st0" width="1" height="5.6"/>
	<rect id="XMLID_14095_" x="68.6" y="3.4" class="ruler_bottom_st0" width="1" height="2.4"/>
	<rect id="XMLID_14094_" x="70.5" y="3.4" class="ruler_bottom_st0" width="1" height="2.4"/>
	<rect id="XMLID_14093_" x="72.5" y="3.4" class="ruler_bottom_st0" width="1" height="2.4"/>
	<rect id="XMLID_14092_" x="74.4" y="3.4" class="ruler_bottom_st0" width="1" height="2.4"/>
	<rect id="XMLID_14091_" x="76.4" y="0.2" class="ruler_bottom_st0" width="1" height="5.6"/>
	<rect id="XMLID_14090_" x="78.3" y="3.4" class="ruler_bottom_st0" width="1" height="2.4"/>
	<rect id="XMLID_14089_" x="80.2" y="3.4" class="ruler_bottom_st0" width="1" height="2.4"/>
	<rect id="XMLID_14088_" x="82.2" y="3.4" class="ruler_bottom_st0" width="1" height="2.4"/>
	<rect id="XMLID_14087_" x="84.1" y="3.4" class="ruler_bottom_st0" width="1" height="2.4"/>
	<rect id="XMLID_14086_" x="86.1" y="0.2" class="ruler_bottom_st0" width="1" height="5.6"/>
	<rect id="XMLID_14085_" x="88" y="3.4" class="ruler_bottom_st0" width="1" height="2.4"/>
	<rect id="XMLID_14084_" x="90" y="3.4" class="ruler_bottom_st0" width="1" height="2.4"/>
	<rect id="XMLID_14083_" x="91.9" y="3.4" class="ruler_bottom_st0" width="1" height="2.4"/>
	<rect id="XMLID_14082_" x="93.9" y="3.4" class="ruler_bottom_st0" width="1" height="2.4"/>
	<rect id="XMLID_14081_" x="95.8" y="0.2" class="ruler_bottom_st0" width="1" height="5.6"/>
	<rect id="XMLID_14080_" x="97.7" y="3.4" class="ruler_bottom_st0" width="1" height="2.4"/>
	<rect id="XMLID_14079_" x="99.7" y="3.4" class="ruler_bottom_st0" width="1" height="2.4"/>
	<rect id="XMLID_14078_" x="101.6" y="3.4" class="ruler_bottom_st0" width="1" height="2.4"/>
	<rect id="XMLID_14077_" x="103.6" y="3.4" class="ruler_bottom_st0" width="1" height="2.4"/>
	<rect id="XMLID_14076_" x="105.5" y="0.2" class="ruler_bottom_st0" width="1" height="5.6"/>
	<rect id="XMLID_14075_" x="107.5" y="3.4" class="ruler_bottom_st0" width="1" height="2.4"/>
	<rect id="XMLID_14074_" x="109.4" y="3.4" class="ruler_bottom_st0" width="1" height="2.4"/>
	<rect id="XMLID_14073_" x="111.3" y="3.4" class="ruler_bottom_st0" width="1" height="2.4"/>
	<rect id="XMLID_14072_" x="113.3" y="3.4" class="ruler_bottom_st0" width="1" height="2.4"/>
	<rect id="XMLID_14071_" x="115.2" y="0.2" class="ruler_bottom_st0" width="1" height="5.6"/>
	<rect id="XMLID_14070_" x="117.2" y="3.4" class="ruler_bottom_st0" width="1" height="2.4"/>
	<rect id="XMLID_14069_" x="119.1" y="3.4" class="ruler_bottom_st0" width="1" height="2.4"/>
	<rect id="XMLID_14068_" x="121.1" y="3.4" class="ruler_bottom_st0" width="1" height="2.4"/>
	<rect id="XMLID_14067_" x="123" y="3.4" class="ruler_bottom_st0" width="1" height="2.4"/>
	<rect id="XMLID_14066_" x="125" y="0.2" class="ruler_bottom_st0" width="1" height="5.6"/>
	<rect id="XMLID_14065_" x="126.9" y="3.4" class="ruler_bottom_st0" width="1" height="2.4"/>
	<rect id="XMLID_14064_" x="128.8" y="3.4" class="ruler_bottom_st0" width="1" height="2.4"/>
	<rect id="XMLID_14063_" x="130.8" y="3.4" class="ruler_bottom_st0" width="1" height="2.4"/>
	<rect id="XMLID_14062_" x="132.7" y="3.4" class="ruler_bottom_st0" width="1" height="2.4"/>
	<rect id="XMLID_14061_" x="134.7" y="0.2" class="ruler_bottom_st0" width="1" height="5.6"/>
	<rect id="XMLID_14060_" x="136.6" y="3.4" class="ruler_bottom_st0" width="1" height="2.4"/>
	<rect id="XMLID_14059_" x="138.6" y="3.4" class="ruler_bottom_st0" width="1" height="2.4"/>
	<rect id="XMLID_14058_" x="140.5" y="3.4" class="ruler_bottom_st0" width="1" height="2.4"/>
	<rect id="XMLID_14057_" x="142.4" y="3.4" class="ruler_bottom_st0" width="1" height="2.4"/>
	<rect id="XMLID_14056_" x="144.4" y="0.2" class="ruler_bottom_st0" width="1" height="5.6"/>
	<rect id="XMLID_14055_" x="146.3" y="3.4" class="ruler_bottom_st0" width="1" height="2.4"/>
	<rect id="XMLID_14054_" x="148.3" y="3.4" class="ruler_bottom_st0" width="1" height="2.4"/>
	<rect id="XMLID_14053_" x="150.2" y="3.4" class="ruler_bottom_st0" width="1" height="2.4"/>
	<rect id="XMLID_14052_" x="152.2" y="3.4" class="ruler_bottom_st0" width="1" height="2.4"/>
	<rect id="XMLID_14051_" x="154.1" y="0.2" class="ruler_bottom_st0" width="1" height="5.6"/>
	<rect id="XMLID_14050_" x="156" y="3.4" class="ruler_bottom_st0" width="1" height="2.4"/>
	<rect id="XMLID_14049_" x="158" y="3.4" class="ruler_bottom_st0" width="1" height="2.4"/>
	<rect id="XMLID_14048_" x="159.9" y="3.4" class="ruler_bottom_st0" width="1" height="2.4"/>
	<rect id="XMLID_14047_" x="161.9" y="3.4" class="ruler_bottom_st0" width="1" height="2.4"/>
	<rect id="XMLID_14046_" x="163.8" y="0.2" class="ruler_bottom_st0" width="1" height="5.6"/>
	<rect id="XMLID_14045_" x="165.8" y="3.4" class="ruler_bottom_st0" width="1" height="2.4"/>
	<rect id="XMLID_14044_" x="167.7" y="3.4" class="ruler_bottom_st0" width="1" height="2.4"/>
	<rect id="XMLID_14043_" x="169.7" y="3.4" class="ruler_bottom_st0" width="1" height="2.4"/>
	<rect id="XMLID_14042_" x="171.6" y="3.4" class="ruler_bottom_st0" width="1" height="2.4"/>
	<rect id="XMLID_14041_" x="173.5" y="0.2" class="ruler_bottom_st0" width="1" height="5.6"/>
	<rect id="XMLID_14040_" x="175.5" y="3.4" class="ruler_bottom_st0" width="1" height="2.4"/>
	<rect id="XMLID_14039_" x="177.4" y="3.4" class="ruler_bottom_st0" width="1" height="2.4"/>
	<rect id="XMLID_14038_" x="179.4" y="3.4" class="ruler_bottom_st0" width="1" height="2.4"/>
	<rect id="XMLID_14037_" x="181.3" y="3.4" class="ruler_bottom_st0" width="1" height="2.4"/>
	<rect id="XMLID_14036_" x="183.3" y="0.2" class="ruler_bottom_st0" width="1" height="5.6"/>
	<rect id="XMLID_14035_" x="185.2" y="3.4" class="ruler_bottom_st0" width="1" height="2.4"/>
	<rect id="XMLID_14034_" x="187.1" y="3.4" class="ruler_bottom_st0" width="1" height="2.4"/>
	<rect id="XMLID_14033_" x="189.1" y="3.4" class="ruler_bottom_st0" width="1" height="2.4"/>
	<rect id="XMLID_14032_" x="191" y="3.4" class="ruler_bottom_st0" width="1" height="2.4"/>
	<rect id="XMLID_14031_" x="193" y="0.2" class="ruler_bottom_st0" width="1" height="5.6"/>
	<rect id="XMLID_14030_" x="194.9" y="3.4" class="ruler_bottom_st0" width="1" height="2.4"/>
	<rect id="XMLID_14029_" x="196.9" y="3.4" class="ruler_bottom_st0" width="1" height="2.4"/>
	<rect id="XMLID_14028_" x="198.8" y="3.4" class="ruler_bottom_st0" width="1" height="2.4"/>
	<rect id="XMLID_14027_" x="200.8" y="3.4" class="ruler_bottom_st0" width="1" height="2.4"/>
	<rect id="XMLID_14026_" x="202.7" y="0.2" class="ruler_bottom_st0" width="1" height="5.6"/>
	<rect id="XMLID_14025_" x="212.4" y="0.2" class="ruler_bottom_st0" width="1" height="5.6"/>
	<rect id="XMLID_14024_" x="204.6" y="3.4" class="ruler_bottom_st0" width="1" height="2.4"/>
	<rect id="XMLID_14023_" x="206.6" y="3.4" class="ruler_bottom_st0" width="1" height="2.4"/>
	<rect id="XMLID_14022_" x="208.5" y="3.4" class="ruler_bottom_st0" width="1" height="2.4"/>
	<rect id="XMLID_14021_" x="210.5" y="3.4" class="ruler_bottom_st0" width="1" height="2.4"/>
</g>
</svg>
