<?xml version="1.0" encoding="utf-8"?>
<!-- Generator: Adobe Illustrator 19.0.0, SVG Export Plug-In . SVG Version: 6.00 Build 0)  -->
<svg version="1.1" id="weathervanes" xmlns="http://www.w3.org/2000/svg" xmlns:xlink="http://www.w3.org/1999/xlink" x="0px" y="0px"
	 viewBox="-383 206 192 150" style="enable-background:new -383 206 192 150;" xml:space="preserve">
<style type="text/css">
	.weathervanes_st0{enable-background:new    ;}
	.weathervanes_st1{fill:#FFFFFF;}
	.weathervanes_st2{fill:#1AADFF;}
</style>
<g>
	<g class="weathervanes_st0">
		<path class="weathervanes_st1" d="M-299.6,346.6h0.4v0.9h3.6v0.4h-3.6v1h3.1v4.4c0,0.6-0.3,0.9-0.9,0.9c0,0,0,0-0.1,0c-0.4,0-0.8,0-1.1,0
			c0-0.2-0.1-0.3-0.1-0.5c0.4,0,0.7,0,1.1,0c0.4,0,0.6-0.1,0.6-0.5v-4h-5.8v5h-0.4v-5.3h3.1v-1h-3.6v-0.4h3.6V346.6z M-301.8,352.1
			h2.1v-1h-1.9v-0.4h2.4c0.3-0.4,0.6-0.8,0.9-1.2l0.4,0.2c-0.2,0.3-0.5,0.7-0.8,1h1.4v0.4h-1.9v1h2.1v0.4h-2.1v1.5h-0.4v-1.5h-2.1
			V352.1z M-300.9,349.8l0.3-0.2c0.3,0.3,0.5,0.5,0.7,0.8l-0.4,0.2C-300.5,350.3-300.7,350-300.9,349.8z"/>
		<path class="weathervanes_st1" d="M-293.9,347.4v2.3c0,1.2-0.1,2.1-0.2,2.7c-0.1,0.6-0.3,1.2-0.7,1.8c-0.1-0.1-0.2-0.2-0.3-0.3
			c0.3-0.6,0.6-1.1,0.6-1.6c0.1-0.5,0.1-1.3,0.1-2.4V347h5.7v3.6c0,1.5,0.1,2.4,0.3,2.7c0.1,0.2,0.2,0.3,0.3,0.3
			c0.1,0,0.2-0.1,0.2-0.3c0.1-0.3,0.1-0.8,0.2-1.3c0.1,0,0.2,0.1,0.4,0.1c0,0.5-0.1,0.9-0.2,1.3c-0.1,0.5-0.3,0.7-0.7,0.7
			c-0.3,0-0.5-0.2-0.6-0.5c-0.1-0.3-0.2-0.6-0.2-1c0-0.4-0.1-1.1-0.1-2v-3.2H-293.9z M-293.4,348.3l0.4-0.2c0.6,0.7,1.2,1.5,1.7,2.2
			c0.5-0.7,0.9-1.5,1.4-2.3l0.4,0.2c-0.4,0.9-0.9,1.7-1.5,2.5c0.3,0.4,0.8,1,1.3,1.8c0.2,0.3,0.3,0.5,0.4,0.6l-0.4,0.3
			c-0.5-0.8-1.1-1.5-1.6-2.2c-0.6,0.8-1.3,1.6-2,2.3c-0.1-0.1-0.2-0.2-0.4-0.3c0.9-0.8,1.6-1.6,2.1-2.4
			C-292.2,350-292.8,349.2-293.4,348.3z"/>
		<path class="weathervanes_st1" d="M-286.7,353v-0.5c0.5,0.3,0.9,0.4,1.3,0.4c0.5,0,0.9-0.1,1.2-0.4c0.3-0.3,0.4-0.6,0.4-1c0-0.5-0.2-0.8-0.5-1
			c-0.3-0.2-0.8-0.4-1.4-0.4h-0.5v-0.4h0.4c0.5,0,1-0.1,1.3-0.4c0.3-0.2,0.4-0.6,0.4-1c0-0.4-0.1-0.7-0.3-0.9
			c-0.2-0.2-0.5-0.3-0.9-0.3c-0.4,0-0.8,0.1-1.2,0.4v-0.4c0.5-0.2,0.9-0.3,1.3-0.3c0.5,0,0.9,0.1,1.2,0.4c0.3,0.3,0.4,0.6,0.4,1
			c0,0.8-0.4,1.4-1.2,1.6v0c0.4,0,0.8,0.2,1,0.5c0.3,0.3,0.4,0.6,0.4,1c0,0.5-0.2,1-0.6,1.3c-0.4,0.3-0.9,0.5-1.4,0.5
			C-285.8,353.3-286.3,353.2-286.7,353z"/>
		<path class="weathervanes_st1" d="M-281.7,351c0.6-0.1,1.2-0.1,1.7-0.1c0,0.2-0.1,0.3-0.1,0.4c-0.9,0.1-1.6,0.1-2.1,0.2l-0.2-0.4
			c0.1-0.1,0.3-0.3,0.5-0.6c0.2-0.3,0.5-0.6,0.8-1.1c-0.6,0-1,0-1.3,0.1l-0.2-0.4c0.1-0.1,0.3-0.3,0.5-0.6c0.4-0.7,0.7-1.3,1-1.8
			l0.5,0.2c-0.4,0.8-0.9,1.5-1.4,2.3c0,0,0.1,0,0.1,0c0.5,0,0.8,0,1.1,0c0.2-0.3,0.4-0.6,0.6-1l0.4,0.2
			C-280.2,349-280.9,350-281.7,351z M-282.3,353.3l-0.1-0.4c0.6-0.1,1.4-0.3,2.4-0.5c0,0.1,0,0.2,0,0.4
			C-280.8,352.9-281.5,353.1-282.3,353.3z M-280.4,353.8c0.6-0.7,1-1.5,1.2-2.2c0.2-0.7,0.3-1.9,0.3-3.4v-0.7h-0.7V347h3.8v0.4
			l-0.8,1.8h1.4v0.4c-0.3,1.1-0.8,2-1.3,2.7c0.5,0.5,1.1,0.9,1.8,1.3c-0.1,0.1-0.2,0.3-0.3,0.4c-0.8-0.5-1.4-1-1.8-1.4
			c-0.5,0.6-1.2,1.1-1.9,1.5c-0.1-0.1-0.2-0.2-0.3-0.4c0.8-0.5,1.5-1,1.9-1.5c-0.6-0.7-1.1-1.7-1.4-2.8c0,1.9-0.5,3.4-1.5,4.6
			C-280.1,354-280.3,353.9-280.4,353.8z M-277.1,349.2l0.8-1.8h-2.2v0.7v0.4c0.5,1.5,1,2.7,1.7,3.4c0.5-0.6,0.8-1.4,1.2-2.4h-1.4
			V349.2z"/>
	</g>
	<g>
		<g>
			<path class="weathervanes_st2" d="M-286.6,264.8h-1.6v-26.9v-0.8v-12l19.8,2.5l-15.6,8.9h11.7l-0.1,1.6l-14.2-0.1V264.8z M-286.6,227v9.2
				l13.2-7.5L-286.6,227z"/>
		</g>
		<path class="weathervanes_st2" d="M-232.5,256.2l-11-16.2l-8.5,8.5l-0.5,0.5l-19.1,19.1l1.1,1.1l18.9-18.9L-232.5,256.2z M-243.7,242.5
			l7.3,10.8l-13.8-4.3L-243.7,242.5z"/>
		<polygon id="XMLID_52_" class="weathervanes_st2" points="-265.9,281.7 -265.9,283.3 -240.7,283.3 -240.7,294.8 -239.1,294.8 -239.1,283.3 
			-236.4,283.3 -236.4,294.8 -234.8,294.8 -234.8,283.3 -232.1,283.3 -232.1,294.8 -230.5,294.8 -230.5,283.3 -227.8,283.3 
			-227.8,294.8 -226.2,294.8 -226.2,281.7 		"/>
		<polygon id="XMLID_51_" class="weathervanes_st2" points="-270.4,296.1 -271.5,297.3 -250.4,318.4 -258.7,326.7 -257.6,327.8 -249.3,319.5 
			-247.3,321.4 -255.7,329.8 -254.5,330.9 -246.2,322.6 -244.6,324.2 -252.7,332.3 -251.5,333.5 -242.3,324.2 		"/>
		<polygon id="XMLID_50_" class="weathervanes_st2" points="-283.9,302.6 -283.9,335.9 -290.7,335.9 -290.7,337.5 -283.9,337.5 -283.9,340.7 
			-295.4,340.7 -295.4,342.3 -282.3,342.3 -282.3,302.6 		"/>
		<g>
			<polygon id="XMLID_49_" class="weathervanes_st2" points="-327.4,325.6 -336.8,316.5 -335.6,315.3 -327.4,323.3 -300.8,296.1 -299.6,297.3 			
				"/>
		</g>
		<g>
			<polygon id="XMLID_48_" class="weathervanes_st2" points="-303.5,287 -341.5,287 -341.5,285.4 -339.4,285.4 -339.4,279.7 -337.8,279.7 
				-337.8,285.4 -339.9,285.4 -303.5,285.4 			"/>
		</g>
		<g>
			
				<rect id="XMLID_47_" x="-332.1" y="257.6" transform="matrix(-0.7071 -0.7071 0.7071 -0.7071 -717.8625 219.5064)" class="weathervanes_st2" width="37.2" height="1.6"/>
		</g>
		<g class="weathervanes_st0">
			<path class="weathervanes_st1" d="M-241.1,335.9l0.4,0.3c-0.6,0.7-1.2,1.4-2,2.1c-0.1-0.1-0.2-0.2-0.4-0.3
				C-242.4,337.2-241.7,336.6-241.1,335.9z M-242.3,335.1v-0.5c0.4-0.6,0.8-1.3,1.2-2.1h-1.9v-0.4h2.1c0.2-0.4,0.4-0.8,0.6-1.2
				l0.5,0.1c-0.2,0.4-0.4,0.8-0.5,1.1h4.9v0.4h-5.1c-0.4,0.8-0.8,1.5-1.2,2.2h2.7v-1.6h0.5v1.6h2.8v0.4h-2.8v2.2
				c0,0.7-0.3,1.1-1.1,1.1c-0.1,0-0.2,0-0.4,0c-0.1,0-0.2,0-0.3,0c-0.1,0-0.2,0-0.4,0c0-0.2,0-0.3-0.1-0.5c0.2,0,0.3,0,0.5,0
				c0.1,0,0.2,0,0.2,0c0.1,0,0.2,0,0.3,0c0.3,0,0.5-0.1,0.6-0.2c0.1-0.1,0.2-0.3,0.2-0.6v-2.2H-242.3z M-237.7,336.2l0.3-0.3
				c0.7,0.5,1.3,1.1,2.1,1.8l-0.3,0.3C-236.4,337.4-237,336.8-237.7,336.2z"/>
			<path class="weathervanes_st1" d="M-231.3,331h0.4v0.9h3.6v0.4h-3.6v1h3.1v4.4c0,0.6-0.3,0.9-0.9,0.9c0,0,0,0-0.1,0c-0.4,0-0.8,0-1.1,0
				c0-0.2-0.1-0.3-0.1-0.5c0.4,0,0.7,0,1.1,0c0.4,0,0.6-0.1,0.6-0.5v-4h-5.8v5h-0.4v-5.3h3.1v-1h-3.6v-0.4h3.6V331z M-233.4,336.5
				h2.1v-1h-1.9v-0.4h2.4c0.3-0.4,0.6-0.8,0.9-1.2l0.4,0.2c-0.2,0.3-0.5,0.7-0.8,1h1.4v0.4h-1.9v1h2.1v0.4h-2.1v1.5h-0.4v-1.5h-2.1
				V336.5z M-232.6,334.2l0.3-0.2c0.3,0.3,0.5,0.5,0.7,0.8l-0.4,0.2C-232.1,334.7-232.3,334.4-232.6,334.2z"/>
			<path class="weathervanes_st1" d="M-225.5,331.9v2.3c0,1.2-0.1,2.1-0.2,2.7c-0.1,0.6-0.3,1.2-0.7,1.8c-0.1-0.1-0.2-0.2-0.3-0.3
				c0.3-0.6,0.6-1.1,0.6-1.6c0.1-0.5,0.1-1.3,0.1-2.4v-2.8h5.7v3.6c0,1.5,0.1,2.4,0.3,2.7c0.1,0.2,0.2,0.3,0.3,0.3
				c0.1,0,0.2-0.1,0.2-0.3c0.1-0.3,0.1-0.8,0.2-1.3c0.1,0,0.2,0.1,0.4,0.1c0,0.5-0.1,0.9-0.2,1.3c-0.1,0.5-0.3,0.7-0.7,0.7
				c-0.3,0-0.5-0.2-0.6-0.5c-0.1-0.3-0.2-0.6-0.2-1c0-0.4-0.1-1.1-0.1-2v-3.2H-225.5z M-225.1,332.8l0.4-0.2
				c0.6,0.7,1.2,1.5,1.7,2.2c0.5-0.7,0.9-1.5,1.4-2.3l0.4,0.2c-0.4,0.9-0.9,1.7-1.5,2.5c0.3,0.4,0.8,1,1.3,1.8
				c0.2,0.3,0.3,0.5,0.4,0.6l-0.4,0.3c-0.5-0.8-1.1-1.5-1.6-2.2c-0.6,0.8-1.3,1.6-2,2.3c-0.1-0.1-0.2-0.2-0.4-0.3
				c0.9-0.8,1.6-1.6,2.1-2.4C-223.8,334.4-224.4,333.6-225.1,332.8z"/>
			<path class="weathervanes_st1" d="M-215,331.5v0.4c-0.3-0.1-0.6-0.2-0.9-0.2c-0.3,0-0.6,0.1-0.8,0.2c-0.2,0.1-0.5,0.4-0.6,0.6
				c-0.2,0.3-0.3,0.6-0.4,1c-0.1,0.4-0.1,0.8-0.1,1.2h0c0.3-0.7,0.8-1,1.5-1c0.3,0,0.5,0,0.7,0.1c0.2,0.1,0.4,0.2,0.5,0.4
				c0.1,0.2,0.3,0.4,0.3,0.6c0.1,0.2,0.1,0.5,0.1,0.7c0,0.3,0,0.6-0.1,0.8c-0.1,0.3-0.2,0.5-0.4,0.7c-0.2,0.2-0.4,0.3-0.6,0.4
				c-0.2,0.1-0.5,0.2-0.7,0.2c-0.3,0-0.5-0.1-0.8-0.2s-0.4-0.3-0.6-0.5s-0.3-0.5-0.4-0.9c-0.1-0.4-0.1-0.8-0.1-1.2
				c0-0.5,0.1-1,0.2-1.5c0.1-0.4,0.3-0.8,0.5-1.1c0.2-0.3,0.5-0.6,0.8-0.7c0.3-0.2,0.6-0.3,1-0.3
				C-215.5,331.4-215.2,331.4-215,331.5z M-216.4,334.1c-0.2,0-0.4,0-0.6,0.1s-0.3,0.2-0.5,0.3c-0.1,0.1-0.2,0.3-0.3,0.5
				c-0.1,0.2-0.1,0.4-0.1,0.5c0,0.2,0,0.5,0.1,0.7s0.2,0.4,0.3,0.6c0.1,0.2,0.3,0.3,0.4,0.4s0.4,0.1,0.6,0.1c0.2,0,0.4,0,0.6-0.1
				s0.3-0.2,0.4-0.3c0.1-0.1,0.2-0.3,0.3-0.5c0.1-0.2,0.1-0.4,0.1-0.6c0-0.2,0-0.5-0.1-0.7s-0.2-0.4-0.3-0.5
				c-0.1-0.1-0.3-0.3-0.4-0.3C-216,334.2-216.2,334.1-216.4,334.1z"/>
			<path class="weathervanes_st1" d="M-213.3,335.4c0.6-0.1,1.2-0.1,1.7-0.1c0,0.2-0.1,0.3-0.1,0.4c-0.9,0.1-1.6,0.1-2.1,0.2l-0.2-0.4
				c0.1-0.1,0.3-0.3,0.5-0.6c0.2-0.3,0.5-0.6,0.8-1.1c-0.6,0-1,0-1.3,0.1l-0.2-0.4c0.1-0.1,0.3-0.3,0.5-0.6c0.4-0.7,0.7-1.3,1-1.8
				l0.5,0.2c-0.4,0.8-0.9,1.5-1.4,2.3c0,0,0.1,0,0.1,0c0.5,0,0.8,0,1.1,0c0.2-0.3,0.4-0.6,0.6-1l0.4,0.2
				C-211.8,333.4-212.5,334.4-213.3,335.4z M-213.9,337.7l-0.1-0.4c0.6-0.1,1.4-0.3,2.4-0.5c0,0.1,0,0.2,0,0.4
				C-212.4,337.4-213.2,337.5-213.9,337.7z M-212.1,338.2c0.6-0.7,1-1.5,1.2-2.2c0.2-0.7,0.3-1.9,0.3-3.4v-0.7h-0.7v-0.4h3.8v0.4
				l-0.8,1.8h1.4v0.4c-0.3,1.1-0.8,2-1.3,2.7c0.5,0.5,1.1,0.9,1.8,1.3c-0.1,0.1-0.2,0.3-0.3,0.4c-0.8-0.5-1.4-1-1.8-1.4
				c-0.5,0.6-1.2,1.1-1.9,1.5c-0.1-0.1-0.2-0.2-0.3-0.4c0.8-0.5,1.5-1,1.9-1.5c-0.6-0.7-1.1-1.7-1.4-2.8c0,1.9-0.5,3.4-1.5,4.6
				C-211.8,338.4-211.9,338.3-212.1,338.2z M-208.7,333.6l0.8-1.8h-2.2v0.7v0.4c0.5,1.5,1,2.7,1.7,3.4c0.5-0.6,0.8-1.4,1.2-2.4h-1.4
				V333.6z"/>
		</g>
		<g class="weathervanes_st0">
			<path class="weathervanes_st1" d="M-218.4,288.4l0.4,0.3c-0.6,0.7-1.2,1.4-2,2.1c-0.1-0.1-0.2-0.2-0.4-0.3C-219.6,289.7-219,289-218.4,288.4z
				 M-219.6,287.6v-0.5c0.4-0.6,0.8-1.3,1.2-2.1h-1.9v-0.4h2.1c0.2-0.4,0.4-0.8,0.6-1.2l0.5,0.1c-0.2,0.4-0.4,0.8-0.5,1.1h4.9v0.4
				h-5.1c-0.4,0.8-0.8,1.5-1.2,2.2h2.7v-1.6h0.5v1.6h2.8v0.4h-2.8v2.2c0,0.7-0.3,1.1-1.1,1.1c-0.1,0-0.2,0-0.4,0c-0.1,0-0.2,0-0.3,0
				c-0.1,0-0.2,0-0.4,0c0-0.2,0-0.3-0.1-0.5c0.2,0,0.3,0,0.5,0c0.1,0,0.2,0,0.2,0c0.1,0,0.2,0,0.3,0c0.3,0,0.5-0.1,0.6-0.2
				c0.1-0.1,0.2-0.3,0.2-0.6v-2.2H-219.6z M-215,288.7l0.3-0.3c0.7,0.5,1.3,1.1,2.1,1.8l-0.3,0.3
				C-213.6,289.9-214.3,289.3-215,288.7z"/>
			<path class="weathervanes_st1" d="M-211,284.3v2.3c0,1.2-0.1,2.1-0.2,2.7c-0.1,0.6-0.3,1.2-0.7,1.8c-0.1-0.1-0.2-0.2-0.3-0.3
				c0.3-0.6,0.6-1.1,0.6-1.6c0.1-0.5,0.1-1.3,0.1-2.4v-2.8h5.7v3.6c0,1.5,0.1,2.4,0.3,2.7c0.1,0.2,0.2,0.3,0.3,0.3
				c0.1,0,0.2-0.1,0.2-0.3c0.1-0.3,0.1-0.8,0.2-1.3c0.1,0,0.2,0.1,0.4,0.1c0,0.5-0.1,0.9-0.2,1.3c-0.1,0.5-0.3,0.7-0.7,0.7
				c-0.3,0-0.5-0.2-0.6-0.5c-0.1-0.3-0.2-0.6-0.2-1c0-0.4-0.1-1.1-0.1-2v-3.2H-211z M-210.5,285.2l0.4-0.2c0.6,0.7,1.2,1.5,1.7,2.2
				c0.5-0.7,0.9-1.5,1.4-2.3l0.4,0.2c-0.4,0.9-0.9,1.7-1.5,2.5c0.3,0.4,0.8,1,1.3,1.8c0.2,0.3,0.3,0.5,0.4,0.6l-0.4,0.3
				c-0.5-0.8-1.1-1.5-1.7-2.2c-0.6,0.8-1.3,1.6-2,2.3c-0.1-0.1-0.2-0.2-0.4-0.3c0.9-0.8,1.6-1.6,2.1-2.4
				C-209.3,286.8-209.9,286-210.5,285.2z"/>
			<path class="weathervanes_st1" d="M-203.8,288.4c0-0.2,0-0.3,0.1-0.5c0-0.2,0.1-0.3,0.2-0.4s0.2-0.3,0.4-0.4s0.3-0.2,0.5-0.3
				c-0.1-0.1-0.3-0.2-0.4-0.3c-0.1-0.1-0.2-0.2-0.3-0.3c-0.1-0.1-0.1-0.2-0.2-0.4c0-0.1-0.1-0.3-0.1-0.4c0-0.2,0-0.4,0.1-0.6
				c0.1-0.2,0.2-0.4,0.3-0.5c0.1-0.1,0.3-0.3,0.5-0.3c0.2-0.1,0.4-0.1,0.6-0.1c0.2,0,0.4,0,0.6,0.1s0.4,0.2,0.5,0.3
				c0.1,0.1,0.3,0.3,0.3,0.5c0.1,0.2,0.1,0.4,0.1,0.6c0,0.2,0,0.3-0.1,0.4c0,0.1-0.1,0.3-0.2,0.4s-0.2,0.2-0.3,0.3
				c-0.1,0.1-0.2,0.2-0.4,0.2c0.2,0.1,0.4,0.2,0.5,0.3s0.3,0.2,0.4,0.4c0.1,0.1,0.2,0.3,0.2,0.4c0,0.2,0.1,0.3,0.1,0.5
				c0,0.3,0,0.5-0.1,0.8c-0.1,0.2-0.2,0.4-0.4,0.6c-0.2,0.2-0.4,0.3-0.6,0.4c-0.2,0.1-0.5,0.1-0.7,0.1c-0.3,0-0.5,0-0.7-0.1
				c-0.2-0.1-0.4-0.2-0.6-0.4c-0.2-0.2-0.3-0.3-0.4-0.6C-203.7,288.9-203.8,288.7-203.8,288.4z M-203.3,288.4c0,0.2,0,0.4,0.1,0.6
				c0.1,0.2,0.2,0.3,0.3,0.5s0.3,0.2,0.4,0.3s0.4,0.1,0.6,0.1c0.2,0,0.4,0,0.6-0.1c0.2-0.1,0.3-0.2,0.4-0.3s0.2-0.3,0.3-0.5
				c0.1-0.2,0.1-0.4,0.1-0.6c0-0.2,0-0.4-0.1-0.5c-0.1-0.2-0.2-0.3-0.3-0.5c-0.1-0.1-0.3-0.2-0.4-0.3c-0.2-0.1-0.4-0.1-0.6-0.1
				c-0.2,0-0.4,0-0.6,0.1c-0.2,0.1-0.3,0.2-0.4,0.3c-0.1,0.1-0.2,0.3-0.3,0.5C-203.3,288-203.3,288.2-203.3,288.4z M-203.1,285.4
				c0,0.2,0,0.3,0.1,0.5s0.1,0.3,0.3,0.4c0.1,0.1,0.2,0.2,0.4,0.3c0.1,0.1,0.3,0.1,0.5,0.1c0.2,0,0.3,0,0.5-0.1
				c0.1-0.1,0.3-0.2,0.4-0.3s0.2-0.2,0.3-0.4s0.1-0.3,0.1-0.5c0-0.2,0-0.3-0.1-0.5c-0.1-0.1-0.1-0.3-0.3-0.4s-0.2-0.2-0.4-0.3
				c-0.1-0.1-0.3-0.1-0.5-0.1c-0.2,0-0.3,0-0.5,0.1c-0.1,0.1-0.3,0.2-0.4,0.3c-0.1,0.1-0.2,0.2-0.2,0.4
				C-203.1,285.1-203.1,285.2-203.1,285.4z"/>
			<path class="weathervanes_st1" d="M-198.7,287.9c0.6-0.1,1.2-0.1,1.7-0.1c0,0.2-0.1,0.3-0.1,0.4c-0.9,0.1-1.6,0.1-2.1,0.2l-0.2-0.4
				c0.1-0.1,0.3-0.3,0.5-0.6c0.2-0.3,0.5-0.6,0.8-1.1c-0.6,0-1,0-1.3,0.1l-0.2-0.4c0.1-0.1,0.3-0.3,0.5-0.6c0.4-0.7,0.7-1.3,1-1.8
				l0.5,0.2c-0.4,0.8-0.9,1.5-1.4,2.3c0,0,0.1,0,0.1,0c0.5,0,0.8,0,1.1,0c0.2-0.3,0.4-0.6,0.6-1l0.4,0.2
				C-197.2,285.9-197.9,286.9-198.7,287.9z M-199.3,290.2l-0.1-0.4c0.6-0.1,1.4-0.3,2.4-0.5c0,0.1,0,0.2,0,0.4
				C-197.8,289.8-198.6,290-199.3,290.2z M-197.5,290.7c0.6-0.7,1-1.5,1.2-2.2c0.2-0.7,0.3-1.9,0.3-3.4v-0.8h-0.7v-0.4h3.8v0.4
				l-0.8,1.8h1.4v0.4c-0.3,1.1-0.8,2-1.3,2.7c0.5,0.5,1.1,0.9,1.8,1.3c-0.1,0.1-0.2,0.3-0.3,0.4c-0.8-0.5-1.4-1-1.8-1.4
				c-0.5,0.6-1.2,1.1-1.9,1.5c-0.1-0.1-0.2-0.2-0.3-0.4c0.8-0.5,1.5-1,1.9-1.5c-0.6-0.7-1.1-1.7-1.4-2.8c0,1.9-0.5,3.4-1.5,4.6
				C-197.2,290.9-197.3,290.8-197.5,290.7z M-194.1,286l0.8-1.8h-2.2v0.7v0.4c0.5,1.5,1,2.7,1.7,3.4c0.5-0.6,0.8-1.4,1.2-2.4h-1.4
				V286z"/>
		</g>
		<g class="weathervanes_st0">
			<path class="weathervanes_st1" d="M-230.4,247.3l0.4,0.3c-0.6,0.7-1.2,1.4-2,2.1c-0.1-0.1-0.2-0.2-0.4-0.3C-231.6,248.7-230.9,248-230.4,247.3
				z M-231.5,246.6v-0.5c0.4-0.6,0.8-1.3,1.2-2.1h-1.9v-0.4h2.1c0.2-0.4,0.4-0.8,0.6-1.2l0.5,0.1c-0.2,0.4-0.4,0.8-0.5,1.1h4.9v0.4
				h-5.1c-0.4,0.8-0.8,1.5-1.2,2.2h2.7v-1.6h0.5v1.6h2.8v0.4h-2.8v2.2c0,0.7-0.3,1.1-1.1,1.1c-0.1,0-0.2,0-0.4,0c-0.1,0-0.2,0-0.3,0
				c-0.1,0-0.2,0-0.4,0c0-0.2,0-0.3-0.1-0.5c0.2,0,0.3,0,0.5,0c0.1,0,0.2,0,0.2,0c0.1,0,0.2,0,0.3,0c0.3,0,0.5-0.1,0.6-0.2
				c0.1-0.1,0.2-0.3,0.2-0.6v-2.2H-231.5z M-226.9,247.6l0.3-0.3c0.7,0.5,1.3,1.1,2.1,1.8l-0.3,0.3
				C-225.6,248.8-226.2,248.2-226.9,247.6z"/>
			<path class="weathervanes_st1" d="M-224,244.7h2.3v-2.2h0.5v7.5h-0.5v-1.7c-0.9,0.4-1.6,0.7-2.2,0.9l-0.2-0.5c0.6-0.2,1.5-0.5,2.4-0.9v-2.7
				h-2.3V244.7z M-216.5,244.4c-0.8,0.5-1.6,0.9-2.4,1.3v2.9c0,0.5,0.2,0.7,0.7,0.7h0.5c0.5,0,0.8-0.2,0.9-0.7
				c0-0.3,0.1-0.6,0.1-1.1c0.2,0.1,0.3,0.1,0.4,0.2c0,0.3-0.1,0.6-0.1,1c-0.1,0.7-0.5,1.1-1.2,1.1h-0.6c-0.7,0-1-0.3-1-1.1v-6.2h0.5
				v2.8c0.8-0.4,1.5-0.8,2.1-1.2L-216.5,244.4z"/>
			<path class="weathervanes_st1" d="M-214.7,243.3v2.3c0,1.2-0.1,2.1-0.2,2.7c-0.1,0.6-0.3,1.2-0.7,1.8c-0.1-0.1-0.2-0.2-0.3-0.3
				c0.3-0.6,0.6-1.1,0.6-1.6c0.1-0.5,0.1-1.3,0.1-2.4v-2.8h5.7v3.6c0,1.5,0.1,2.4,0.3,2.7c0.1,0.2,0.2,0.3,0.3,0.3
				c0.1,0,0.2-0.1,0.2-0.3c0.1-0.3,0.1-0.8,0.2-1.3c0.1,0,0.2,0.1,0.4,0.1c0,0.5-0.1,0.9-0.2,1.3c-0.1,0.5-0.3,0.7-0.7,0.7
				c-0.3,0-0.5-0.2-0.6-0.5c-0.1-0.3-0.2-0.6-0.2-1c0-0.4-0.1-1.1-0.1-2v-3.2H-214.7z M-214.3,244.2l0.4-0.2
				c0.6,0.7,1.2,1.5,1.7,2.2c0.5-0.7,0.9-1.5,1.4-2.3l0.4,0.2c-0.4,0.9-0.9,1.7-1.5,2.5c0.3,0.4,0.8,1,1.3,1.8
				c0.2,0.3,0.3,0.5,0.4,0.6l-0.4,0.3c-0.5-0.8-1.1-1.5-1.6-2.2c-0.6,0.8-1.3,1.6-2,2.3c-0.1-0.1-0.2-0.2-0.4-0.3
				c0.9-0.8,1.6-1.6,2.1-2.4C-213,245.8-213.6,245-214.3,244.2z"/>
			<path class="weathervanes_st1" d="M-205.7,242.8v6.3h-0.4v-5.7c-0.2,0.2-0.4,0.4-0.7,0.5s-0.5,0.3-0.8,0.4v-0.4c0.2-0.1,0.3-0.1,0.5-0.2
				s0.3-0.2,0.4-0.3c0.1-0.1,0.3-0.2,0.4-0.3c0.1-0.1,0.3-0.2,0.4-0.4H-205.7z"/>
			<path class="weathervanes_st1" d="M-202.6,249.2c-0.6,0-1-0.3-1.3-0.8c-0.3-0.5-0.5-1.3-0.5-2.3c0-1.1,0.2-1.9,0.5-2.5s0.8-0.8,1.4-0.8
				c1.2,0,1.8,1.1,1.8,3.2c0,1-0.2,1.8-0.5,2.4C-201.6,248.9-202,249.2-202.6,249.2z M-202.5,243.1c-0.5,0-0.8,0.2-1.1,0.7
				c-0.3,0.5-0.4,1.2-0.4,2.2c0,0.9,0.1,1.6,0.4,2c0.3,0.5,0.6,0.7,1.1,0.7c0.5,0,0.8-0.2,1.1-0.7c0.3-0.5,0.4-1.2,0.4-2.1
				C-201.1,244.1-201.6,243.1-202.5,243.1z"/>
			<path class="weathervanes_st1" d="M-199.3,246.9c0.6-0.1,1.2-0.1,1.7-0.1c0,0.2-0.1,0.3-0.1,0.4c-0.9,0.1-1.6,0.1-2.1,0.2l-0.2-0.4
				c0.1-0.1,0.3-0.3,0.5-0.6c0.2-0.3,0.5-0.6,0.8-1.1c-0.6,0-1,0-1.3,0.1l-0.2-0.4c0.1-0.1,0.3-0.3,0.5-0.6c0.4-0.7,0.7-1.3,1-1.8
				l0.5,0.2c-0.4,0.8-0.9,1.5-1.4,2.3c0,0,0.1,0,0.1,0c0.5,0,0.8,0,1.1,0c0.2-0.3,0.4-0.6,0.6-1l0.4,0.2
				C-197.9,244.9-198.6,245.8-199.3,246.9z M-200,249.2l-0.1-0.4c0.6-0.1,1.4-0.3,2.4-0.5c0,0.1,0,0.2,0,0.4
				C-198.5,248.8-199.2,249-200,249.2z M-198.1,249.6c0.6-0.7,1-1.5,1.2-2.2c0.2-0.7,0.3-1.9,0.3-3.4v-0.7h-0.7v-0.4h3.8v0.4
				l-0.8,1.8h1.4v0.4c-0.3,1.1-0.8,2-1.3,2.7c0.5,0.5,1.1,0.9,1.8,1.3c-0.1,0.1-0.2,0.3-0.3,0.4c-0.8-0.5-1.4-1-1.8-1.4
				c-0.5,0.6-1.2,1.1-1.9,1.5c-0.1-0.1-0.2-0.2-0.3-0.4c0.8-0.5,1.5-1,1.9-1.5c-0.6-0.7-1.1-1.7-1.4-2.8c0,1.9-0.5,3.4-1.5,4.6
				C-197.8,249.8-198,249.7-198.1,249.6z M-194.8,245l0.8-1.8h-2.2v0.7v0.4c0.5,1.5,1,2.7,1.7,3.4c0.5-0.6,0.8-1.4,1.2-2.4h-1.4V245
				z"/>
		</g>
		<g class="weathervanes_st0">
			<path class="weathervanes_st1" d="M-296.2,209.3h2.3v-2.2h0.5v7.5h-0.5v-1.7c-0.9,0.4-1.6,0.7-2.2,0.9l-0.2-0.5c0.6-0.2,1.5-0.5,2.4-0.9v-2.7
				h-2.3V209.3z M-288.7,209c-0.8,0.5-1.6,0.9-2.4,1.3v2.9c0,0.5,0.2,0.7,0.7,0.7h0.5c0.5,0,0.8-0.2,0.9-0.7c0-0.3,0.1-0.6,0.1-1.1
				c0.2,0.1,0.3,0.1,0.4,0.2c0,0.3-0.1,0.6-0.1,1c-0.1,0.7-0.5,1.1-1.2,1.1h-0.6c-0.7,0-1-0.3-1-1.1V207h0.5v2.8
				c0.8-0.4,1.5-0.8,2.1-1.2L-288.7,209z"/>
			<path class="weathervanes_st1" d="M-287,207.9v2.3c0,1.2-0.1,2.1-0.2,2.7c-0.1,0.6-0.3,1.2-0.7,1.8c-0.1-0.1-0.2-0.2-0.3-0.3
				c0.3-0.6,0.6-1.1,0.6-1.6c0.1-0.5,0.1-1.3,0.1-2.4v-2.8h5.7v3.6c0,1.5,0.1,2.4,0.3,2.7c0.1,0.2,0.2,0.3,0.3,0.3
				c0.1,0,0.2-0.1,0.2-0.3c0.1-0.3,0.1-0.8,0.2-1.3c0.1,0,0.2,0.1,0.4,0.1c0,0.5-0.1,0.9-0.2,1.3c-0.1,0.5-0.3,0.7-0.7,0.7
				c-0.3,0-0.5-0.2-0.6-0.5c-0.1-0.3-0.2-0.6-0.2-1c0-0.4-0.1-1.1-0.1-2v-3.2H-287z M-286.5,208.8l0.4-0.2c0.6,0.7,1.2,1.5,1.7,2.2
				c0.5-0.7,0.9-1.5,1.4-2.3l0.4,0.2c-0.4,0.9-0.9,1.7-1.5,2.5c0.3,0.4,0.8,1,1.3,1.8c0.2,0.3,0.3,0.5,0.4,0.6l-0.4,0.3
				c-0.5-0.8-1.1-1.5-1.6-2.2c-0.6,0.8-1.3,1.6-2,2.3c-0.1-0.1-0.2-0.2-0.4-0.3c0.9-0.8,1.6-1.6,2.1-2.4
				C-285.3,210.4-285.9,209.6-286.5,208.8z"/>
			<path class="weathervanes_st1" d="M-278,207.3v6.3h-0.4V208c-0.2,0.2-0.4,0.4-0.7,0.5c-0.3,0.1-0.5,0.3-0.8,0.4v-0.4c0.2-0.1,0.3-0.1,0.5-0.2
				s0.3-0.2,0.4-0.3c0.1-0.1,0.3-0.2,0.4-0.3c0.1-0.1,0.3-0.2,0.4-0.4H-278z"/>
			<path class="weathervanes_st1" d="M-276.7,213.6v-0.3c0-0.2,0-0.4,0-0.5s0.1-0.3,0.1-0.4s0.1-0.3,0.2-0.4s0.2-0.2,0.3-0.3
				c0.1-0.1,0.3-0.2,0.4-0.3s0.3-0.2,0.5-0.4c0.2-0.1,0.4-0.3,0.5-0.4s0.3-0.3,0.4-0.4c0.1-0.2,0.2-0.3,0.3-0.5
				c0.1-0.2,0.1-0.4,0.1-0.6c0-0.4-0.1-0.7-0.3-0.9c-0.2-0.2-0.5-0.3-0.9-0.3c-0.3,0-0.5,0.1-0.8,0.2s-0.5,0.3-0.7,0.5v-0.5
				c0.2-0.2,0.5-0.3,0.8-0.4c0.3-0.1,0.6-0.2,0.9-0.2c0.2,0,0.5,0,0.7,0.1c0.2,0.1,0.4,0.2,0.5,0.3c0.1,0.1,0.3,0.3,0.3,0.5
				c0.1,0.2,0.1,0.4,0.1,0.7c0,0.3,0,0.5-0.1,0.8s-0.2,0.4-0.3,0.6c-0.1,0.2-0.3,0.3-0.5,0.5c-0.2,0.2-0.4,0.3-0.6,0.5
				c-0.3,0.2-0.5,0.4-0.7,0.5c-0.2,0.2-0.3,0.3-0.5,0.5c-0.1,0.1-0.2,0.3-0.3,0.5c-0.1,0.2-0.1,0.3-0.1,0.5v0.1h3.1v0.4H-276.7z"/>
			<path class="weathervanes_st1" d="M-271.6,211.4c0.6-0.1,1.2-0.1,1.7-0.1c0,0.2-0.1,0.3-0.1,0.4c-0.9,0.1-1.6,0.1-2.1,0.2l-0.2-0.4
				c0.1-0.1,0.3-0.3,0.5-0.6c0.2-0.3,0.5-0.6,0.8-1.1c-0.6,0-1,0-1.3,0.1l-0.2-0.4c0.1-0.1,0.3-0.3,0.5-0.6c0.4-0.7,0.7-1.3,1-1.8
				l0.5,0.2c-0.4,0.8-0.9,1.5-1.4,2.3c0,0,0.1,0,0.1,0c0.5,0,0.8,0,1.1,0c0.2-0.3,0.4-0.6,0.6-1l0.4,0.2
				C-270.1,209.4-270.8,210.4-271.6,211.4z M-272.2,213.7l-0.1-0.4c0.6-0.1,1.4-0.3,2.4-0.5c0,0.1,0,0.2,0,0.4
				C-270.7,213.4-271.5,213.5-272.2,213.7z M-270.4,214.2c0.6-0.7,1-1.5,1.2-2.2c0.2-0.7,0.3-1.9,0.3-3.4v-0.7h-0.7v-0.4h3.8v0.4
				l-0.8,1.8h1.4v0.4c-0.3,1.1-0.8,2-1.3,2.7c0.5,0.5,1.1,0.9,1.8,1.3c-0.1,0.1-0.2,0.3-0.3,0.4c-0.8-0.5-1.4-1-1.8-1.4
				c-0.5,0.6-1.2,1.1-1.9,1.5c-0.1-0.1-0.2-0.2-0.3-0.4c0.8-0.5,1.5-1,1.9-1.5c-0.6-0.7-1.1-1.7-1.4-2.8c0,1.9-0.5,3.4-1.5,4.6
				C-270.1,214.4-270.2,214.3-270.4,214.2z M-267,209.6l0.8-1.8h-2.2v0.7v0.4c0.5,1.5,1,2.7,1.7,3.4c0.5-0.6,0.8-1.4,1.2-2.4h-1.4
				V209.6z"/>
		</g>
		<g class="weathervanes_st0">
			<path class="weathervanes_st1" d="M-381.7,280.8h2.2v-0.2v-1.2h-2.7V279h7.6v0.4h-2.6v1.3h2.3v5.4h-0.4v-0.5h-5.8v0.5h-0.4V280.8z
				 M-376.8,283.8c-0.6,0-0.9-0.3-0.9-0.8v-1.8h-1.4c0,1.3-0.5,2.3-1.5,3c-0.1-0.1-0.2-0.2-0.4-0.3c1-0.6,1.4-1.5,1.4-2.7h-1.7v4.1
				h5.8v-4.1h-1.8v1.8c0,0.3,0.2,0.4,0.5,0.4c0.2,0,0.4,0,0.5,0c0.1,0,0.3,0,0.5,0c0,0.2-0.1,0.3-0.1,0.4c-0.1,0-0.3,0-0.4,0
				c-0.1,0-0.1,0-0.2,0C-376.5,283.8-376.7,283.8-376.8,283.8z M-379.1,280.6v0.2h1.4v-1.3h-1.4V280.6z"/>
			<path class="weathervanes_st1" d="M-374,280.9h2.3v-2.2h0.5v7.5h-0.5v-1.7c-0.9,0.4-1.6,0.7-2.2,0.9l-0.2-0.5c0.6-0.2,1.5-0.5,2.4-0.9v-2.7
				h-2.3V280.9z M-366.5,280.6c-0.8,0.5-1.6,0.9-2.4,1.3v2.9c0,0.5,0.2,0.7,0.7,0.7h0.5c0.5,0,0.8-0.2,0.9-0.7
				c0-0.3,0.1-0.6,0.1-1.1c0.2,0.1,0.3,0.1,0.4,0.2c0,0.3-0.1,0.6-0.1,1c-0.1,0.7-0.5,1.1-1.2,1.1h-0.6c-0.7,0-1-0.3-1-1.1v-6.2h0.5
				v2.8c0.8-0.4,1.5-0.8,2.1-1.2L-366.5,280.6z"/>
			<path class="weathervanes_st1" d="M-364.7,279.5v2.3c0,1.2-0.1,2.1-0.2,2.7c-0.1,0.6-0.3,1.2-0.7,1.8c-0.1-0.1-0.2-0.2-0.3-0.3
				c0.3-0.6,0.6-1.1,0.6-1.6c0.1-0.5,0.1-1.3,0.1-2.4v-2.8h5.7v3.6c0,1.5,0.1,2.4,0.3,2.7c0.1,0.2,0.2,0.3,0.3,0.3
				c0.1,0,0.2-0.1,0.2-0.3c0.1-0.3,0.1-0.8,0.2-1.3c0.1,0,0.2,0.1,0.4,0.1c0,0.5-0.1,0.9-0.2,1.3c-0.1,0.5-0.3,0.7-0.7,0.7
				c-0.3,0-0.5-0.2-0.6-0.5c-0.1-0.3-0.2-0.6-0.2-1c0-0.4-0.1-1.1-0.1-2v-3.2H-364.7z M-364.3,280.4l0.4-0.2
				c0.6,0.7,1.2,1.5,1.7,2.2c0.5-0.7,0.9-1.5,1.4-2.3l0.4,0.2c-0.4,0.9-0.9,1.7-1.5,2.5c0.3,0.4,0.8,1,1.3,1.8
				c0.2,0.3,0.3,0.5,0.4,0.6l-0.4,0.3c-0.5-0.8-1.1-1.5-1.6-2.2c-0.6,0.8-1.3,1.6-2,2.3c-0.1-0.1-0.2-0.2-0.4-0.3
				c0.9-0.8,1.6-1.6,2.1-2.4C-363,282-363.6,281.2-364.3,280.4z"/>
			<path class="weathervanes_st1" d="M-355.7,278.9v6.3h-0.4v-5.7c-0.2,0.2-0.4,0.4-0.7,0.5c-0.3,0.1-0.5,0.3-0.8,0.4v-0.4
				c0.2-0.1,0.3-0.1,0.5-0.2s0.3-0.2,0.4-0.3c0.1-0.1,0.3-0.2,0.4-0.3s0.3-0.2,0.4-0.4H-355.7z"/>
			<path class="weathervanes_st1" d="M-353.9,283c0.6-0.1,1.2-0.1,1.7-0.1c0,0.2-0.1,0.3-0.1,0.4c-0.9,0.1-1.6,0.1-2.1,0.2l-0.2-0.4
				c0.1-0.1,0.3-0.3,0.5-0.6c0.2-0.3,0.5-0.6,0.8-1.1c-0.6,0-1,0-1.3,0.1l-0.2-0.4c0.1-0.1,0.3-0.3,0.5-0.6c0.4-0.7,0.7-1.3,1-1.8
				l0.5,0.2c-0.4,0.8-0.9,1.5-1.4,2.3c0,0,0.1,0,0.1,0c0.5,0,0.8,0,1.1,0c0.2-0.3,0.4-0.6,0.6-1l0.4,0.2
				C-352.4,281.1-353.1,282-353.9,283z M-354.5,285.3l-0.1-0.4c0.6-0.1,1.4-0.3,2.4-0.5c0,0.1,0,0.2,0,0.4
				C-353,285-353.8,285.1-354.5,285.3z M-352.7,285.8c0.6-0.7,1-1.5,1.2-2.2c0.2-0.7,0.3-1.9,0.3-3.4v-0.7h-0.7V279h3.8v0.4
				l-0.8,1.8h1.4v0.4c-0.3,1.1-0.8,2-1.3,2.7c0.5,0.5,1.1,0.9,1.8,1.3c-0.1,0.1-0.2,0.3-0.3,0.4c-0.8-0.5-1.4-1-1.8-1.4
				c-0.5,0.6-1.2,1.1-1.9,1.5c-0.1-0.1-0.2-0.2-0.3-0.4c0.8-0.5,1.5-1,1.9-1.5c-0.6-0.7-1.1-1.7-1.4-2.8c0,1.9-0.5,3.4-1.5,4.6
				C-352.4,286-352.5,285.9-352.7,285.8z M-349.3,281.2l0.8-1.8h-2.2v0.7v0.4c0.5,1.5,1,2.7,1.7,3.4c0.5-0.6,0.8-1.4,1.2-2.4h-1.4
				V281.2z"/>
		</g>
		<g class="weathervanes_st0">
			<path class="weathervanes_st1" d="M-371.6,322.1h2.2v-0.2v-1.2h-2.7v-0.4h7.6v0.4h-2.6v1.3h2.3v5.4h-0.4V327h-5.8v0.5h-0.4V322.1z
				 M-366.7,325.1c-0.6,0-0.9-0.3-0.9-0.8v-1.8h-1.4c0,1.3-0.5,2.3-1.5,3c-0.1-0.1-0.2-0.2-0.4-0.3c1-0.6,1.4-1.5,1.4-2.7h-1.7v4.1
				h5.8v-4.1h-1.8v1.8c0,0.3,0.2,0.4,0.5,0.4c0.2,0,0.4,0,0.5,0c0.1,0,0.3,0,0.5,0c0,0.2-0.1,0.3-0.1,0.4c-0.1,0-0.3,0-0.4,0
				c-0.1,0-0.1,0-0.2,0C-366.4,325.1-366.5,325.1-366.7,325.1z M-368.9,321.9v0.2h1.4v-1.3h-1.4V321.9z"/>
			<path class="weathervanes_st1" d="M-360.3,319.9h0.4v0.9h3.6v0.4h-3.6v1h3.1v4.4c0,0.6-0.3,0.9-0.9,0.9c0,0,0,0-0.1,0c-0.4,0-0.8,0-1.1,0
				c0-0.2-0.1-0.3-0.1-0.5c0.4,0,0.7,0,1.1,0c0.4,0,0.6-0.1,0.6-0.5v-4h-5.8v5h-0.4v-5.3h3.1v-1h-3.6v-0.4h3.6V319.9z M-362.4,325.5
				h2.1v-1h-1.9v-0.4h2.4c0.3-0.4,0.6-0.8,0.9-1.2l0.4,0.2c-0.2,0.3-0.5,0.7-0.8,1h1.4v0.4h-1.9v1h2.1v0.4h-2.1v1.5h-0.4v-1.5h-2.1
				V325.5z M-361.6,323.1l0.3-0.2c0.3,0.3,0.5,0.5,0.7,0.8l-0.4,0.2C-361.2,323.6-361.4,323.3-361.6,323.1z"/>
			<path class="weathervanes_st1" d="M-354.6,320.8v2.3c0,1.2-0.1,2.1-0.2,2.7c-0.1,0.6-0.3,1.2-0.7,1.8c-0.1-0.1-0.2-0.2-0.3-0.3
				c0.3-0.6,0.6-1.1,0.6-1.6c0.1-0.5,0.1-1.3,0.1-2.4v-2.8h5.7v3.6c0,1.5,0.1,2.4,0.3,2.7c0.1,0.2,0.2,0.3,0.3,0.3
				c0.1,0,0.2-0.1,0.2-0.3c0.1-0.3,0.1-0.8,0.2-1.3c0.1,0,0.2,0.1,0.4,0.1c0,0.5-0.1,0.9-0.2,1.3c-0.1,0.5-0.3,0.7-0.7,0.7
				c-0.3,0-0.5-0.2-0.6-0.5c-0.1-0.3-0.2-0.6-0.2-1c0-0.4-0.1-1.1-0.1-2v-3.2H-354.6z M-354.1,321.7l0.4-0.2
				c0.6,0.7,1.2,1.5,1.7,2.2c0.5-0.7,0.9-1.5,1.4-2.3l0.4,0.2c-0.4,0.9-0.9,1.7-1.5,2.5c0.3,0.4,0.8,1,1.3,1.8
				c0.2,0.3,0.3,0.5,0.4,0.6l-0.4,0.3c-0.5-0.8-1.1-1.5-1.6-2.2c-0.6,0.8-1.3,1.6-2,2.3c-0.1-0.1-0.2-0.2-0.4-0.3
				c0.9-0.8,1.6-1.6,2.1-2.4C-352.9,323.3-353.5,322.5-354.1,321.7z"/>
			<path class="weathervanes_st1" d="M-347.5,326.6v-0.3c0-0.2,0-0.4,0-0.5c0-0.2,0.1-0.3,0.1-0.4c0.1-0.1,0.1-0.3,0.2-0.4s0.2-0.2,0.3-0.3
				s0.3-0.2,0.4-0.3c0.2-0.1,0.3-0.3,0.5-0.4c0.2-0.1,0.4-0.3,0.5-0.4c0.2-0.1,0.3-0.3,0.4-0.4c0.1-0.2,0.2-0.3,0.3-0.5
				c0.1-0.2,0.1-0.4,0.1-0.6c0-0.4-0.1-0.7-0.3-0.9c-0.2-0.2-0.5-0.3-0.9-0.3c-0.3,0-0.5,0.1-0.8,0.2s-0.5,0.3-0.7,0.5v-0.5
				c0.2-0.2,0.5-0.3,0.8-0.4c0.3-0.1,0.6-0.2,0.9-0.2c0.2,0,0.5,0,0.7,0.1c0.2,0.1,0.4,0.2,0.5,0.3c0.1,0.1,0.3,0.3,0.3,0.5
				c0.1,0.2,0.1,0.4,0.1,0.7c0,0.3,0,0.5-0.1,0.8c-0.1,0.2-0.2,0.4-0.3,0.6c-0.1,0.2-0.3,0.3-0.5,0.5c-0.2,0.2-0.4,0.3-0.6,0.5
				c-0.3,0.2-0.5,0.4-0.7,0.5c-0.2,0.2-0.3,0.3-0.5,0.5c-0.1,0.1-0.2,0.3-0.3,0.5c-0.1,0.2-0.1,0.3-0.1,0.5v0.1h3.1v0.4H-347.5z"/>
			<path class="weathervanes_st1" d="M-342.3,324.4c0.6-0.1,1.2-0.1,1.7-0.1c0,0.2-0.1,0.3-0.1,0.4c-0.9,0.1-1.6,0.1-2.1,0.2l-0.2-0.4
				c0.1-0.1,0.3-0.3,0.5-0.6c0.2-0.3,0.5-0.6,0.8-1.1c-0.6,0-1,0-1.3,0.1l-0.2-0.4c0.1-0.1,0.3-0.3,0.5-0.6c0.4-0.7,0.7-1.3,1-1.8
				l0.5,0.2c-0.4,0.8-0.9,1.5-1.4,2.3c0,0,0.1,0,0.1,0c0.5,0,0.8,0,1.1,0c0.2-0.3,0.4-0.6,0.6-1l0.4,0.2
				C-340.9,322.4-341.6,323.3-342.3,324.4z M-343,326.7l-0.1-0.4c0.6-0.1,1.4-0.3,2.4-0.5c0,0.1,0,0.2,0,0.4
				C-341.5,326.3-342.2,326.5-343,326.7z M-341.1,327.1c0.6-0.7,1-1.5,1.2-2.2c0.2-0.7,0.3-1.9,0.3-3.4v-0.7h-0.7v-0.4h3.8v0.4
				l-0.8,1.8h1.4v0.4c-0.3,1.1-0.8,2-1.3,2.7c0.5,0.5,1.1,0.9,1.8,1.3c-0.1,0.1-0.2,0.3-0.3,0.4c-0.8-0.5-1.4-1-1.8-1.4
				c-0.5,0.6-1.2,1.1-1.9,1.5c-0.1-0.1-0.2-0.2-0.3-0.4c0.8-0.5,1.5-1,1.9-1.5c-0.6-0.7-1.1-1.7-1.4-2.8c0,1.9-0.5,3.4-1.5,4.6
				C-340.8,327.3-341,327.2-341.1,327.1z M-337.8,322.5l0.8-1.8h-2.2v0.7v0.4c0.5,1.5,1,2.7,1.7,3.4c0.5-0.6,0.8-1.4,1.2-2.4h-1.4
				V322.5z"/>
		</g>
		<g class="weathervanes_st0">
			<path class="weathervanes_st1" d="M-361.4,237.1h2.2v-0.2v-1.2h-2.7v-0.4h7.6v0.4h-2.6v1.3h2.3v5.4h-0.4V242h-5.8v0.5h-0.4V237.1z
				 M-356.5,240.1c-0.6,0-0.9-0.3-0.9-0.8v-1.8h-1.4c0,1.3-0.5,2.3-1.5,3c-0.1-0.1-0.2-0.2-0.4-0.3c1-0.6,1.4-1.5,1.4-2.7h-1.7v4.1
				h5.8v-4.1h-1.8v1.8c0,0.3,0.2,0.4,0.5,0.4c0.2,0,0.4,0,0.5,0c0.1,0,0.3,0,0.5,0c0,0.2-0.1,0.3-0.1,0.4c-0.1,0-0.3,0-0.4,0
				c-0.1,0-0.1,0-0.2,0C-356.3,240.1-356.4,240.1-356.5,240.1z M-358.8,236.9v0.2h1.4v-1.3h-1.4V236.9z"/>
			<path class="weathervanes_st1" d="M-353.7,237.2h2.3v-2.2h0.5v7.5h-0.5v-1.7c-0.9,0.4-1.6,0.7-2.2,0.9l-0.2-0.5c0.6-0.2,1.5-0.5,2.4-0.9v-2.7
				h-2.3V237.2z M-346.2,236.9c-0.8,0.5-1.6,0.9-2.4,1.3v2.9c0,0.5,0.2,0.7,0.7,0.7h0.5c0.5,0,0.8-0.2,0.9-0.7
				c0-0.3,0.1-0.6,0.1-1.1c0.2,0.1,0.3,0.1,0.4,0.2c0,0.3-0.1,0.6-0.1,1c-0.1,0.7-0.5,1.1-1.2,1.1h-0.6c-0.7,0-1-0.3-1-1.1v-6.2h0.5
				v2.8c0.8-0.4,1.5-0.8,2.1-1.2L-346.2,236.9z"/>
			<path class="weathervanes_st1" d="M-344.5,235.7v2.3c0,1.2-0.1,2.1-0.2,2.7c-0.1,0.6-0.3,1.2-0.7,1.8c-0.1-0.1-0.2-0.2-0.3-0.3
				c0.3-0.6,0.6-1.1,0.6-1.6c0.1-0.5,0.1-1.3,0.1-2.4v-2.8h5.7v3.6c0,1.5,0.1,2.4,0.3,2.7c0.1,0.2,0.2,0.3,0.3,0.3
				c0.1,0,0.2-0.1,0.2-0.3c0.1-0.3,0.1-0.8,0.2-1.3c0.1,0,0.2,0.1,0.4,0.1c0,0.5-0.1,0.9-0.2,1.3c-0.1,0.5-0.3,0.7-0.7,0.7
				c-0.3,0-0.5-0.2-0.6-0.5c-0.1-0.3-0.2-0.6-0.2-1c0-0.4-0.1-1.1-0.1-2v-3.2H-344.5z M-344,236.7l0.4-0.2c0.6,0.7,1.2,1.5,1.7,2.2
				c0.5-0.7,0.9-1.5,1.4-2.3l0.4,0.2c-0.4,0.9-0.9,1.7-1.5,2.5c0.3,0.4,0.8,1,1.3,1.8c0.2,0.3,0.3,0.5,0.4,0.6l-0.4,0.3
				c-0.5-0.8-1.1-1.5-1.6-2.2c-0.6,0.8-1.3,1.6-2,2.3c-0.1-0.1-0.2-0.2-0.4-0.3c0.9-0.8,1.6-1.6,2.1-2.4
				C-342.8,238.3-343.4,237.5-344,236.7z"/>
			<path class="weathervanes_st1" d="M-335.5,241.6c-0.6,0-1-0.3-1.3-0.8c-0.3-0.5-0.5-1.3-0.5-2.3c0-1.1,0.2-1.9,0.5-2.5s0.8-0.8,1.4-0.8
				c1.2,0,1.8,1.1,1.8,3.2c0,1-0.2,1.8-0.5,2.4C-334.4,241.4-334.9,241.6-335.5,241.6z M-335.4,235.6c-0.5,0-0.8,0.2-1.1,0.7
				c-0.3,0.5-0.4,1.2-0.4,2.2c0,0.9,0.1,1.6,0.4,2c0.3,0.5,0.6,0.7,1.1,0.7c0.5,0,0.8-0.2,1.1-0.7c0.3-0.5,0.4-1.2,0.4-2.1
				C-334,236.6-334.5,235.6-335.4,235.6z"/>
			<path class="weathervanes_st1" d="M-332.2,239.3c0.6-0.1,1.2-0.1,1.7-0.1c0,0.2-0.1,0.3-0.1,0.4c-0.9,0.1-1.6,0.1-2.1,0.2l-0.2-0.4
				c0.1-0.1,0.3-0.3,0.5-0.6c0.2-0.3,0.5-0.6,0.8-1.1c-0.6,0-1,0-1.3,0.1l-0.2-0.4c0.1-0.1,0.3-0.3,0.5-0.6c0.4-0.7,0.7-1.3,1-1.8
				l0.5,0.2c-0.4,0.8-0.9,1.5-1.4,2.3c0,0,0.1,0,0.1,0c0.5,0,0.8,0,1.1,0c0.2-0.3,0.4-0.6,0.6-1l0.4,0.2
				C-330.7,237.3-331.4,238.3-332.2,239.3z M-332.8,241.6l-0.1-0.4c0.6-0.1,1.4-0.3,2.4-0.5c0,0.1,0,0.2,0,0.4
				C-331.3,241.3-332.1,241.4-332.8,241.6z M-331,242.1c0.6-0.7,1-1.5,1.2-2.2c0.2-0.7,0.3-1.9,0.3-3.4v-0.7h-0.7v-0.4h3.8v0.4
				l-0.8,1.8h1.4v0.4c-0.3,1.1-0.8,2-1.3,2.7c0.5,0.5,1.1,0.9,1.8,1.3c-0.1,0.1-0.2,0.3-0.3,0.4c-0.8-0.5-1.4-1-1.8-1.4
				c-0.5,0.6-1.2,1.1-1.9,1.5c-0.1-0.1-0.2-0.2-0.3-0.4c0.8-0.5,1.5-1,1.9-1.5c-0.6-0.7-1.1-1.7-1.4-2.8c0,1.9-0.5,3.4-1.5,4.6
				C-330.7,242.3-330.8,242.2-331,242.1z M-327.6,237.5l0.8-1.8h-2.2v0.7v0.4c0.5,1.5,1,2.7,1.7,3.4c0.5-0.6,0.8-1.4,1.2-2.4h-1.4
				V237.5z"/>
		</g>
	</g>
</g>
</svg>
