<?xml version="1.0" encoding="utf-8"?>
<!-- Generator: Adobe Illustrator 19.0.0, SVG Export Plug-In . SVG Version: 6.00 Build 0)  -->
<svg version="1.1" id="fuchijijin_svg" xmlns="http://www.w3.org/2000/svg" xmlns:xlink="http://www.w3.org/1999/xlink" x="0px" y="0px"
	 viewBox="0 0 14 14" style="enable-background:new 0 0 14 14;" xml:space="preserve">
<style type="text/css">
	.ico_fuchijijin_st0{fill:#F15A24;}
</style>
<g id="XMLID_352_">
	<g id="XMLID_353_" transform="scale(0.1953125, 0.1953125)">
		<path id="XMLID_354_" class="ico_fuchijijin_st0" d="M35.8,69.1c0,0-23.7-30.2-23.7-43.1C12.2,13,22.8,2.6,35.8,2.6C48.9,2.6,59.5,13,59.5,26
			C59.5,38.9,35.8,69.1,35.8,69.1L35.8,69.1L35.8,69.1z M35.6,16c-5.6,0-10.1,4.5-10.1,10c0,5.5,4.5,10,10.1,10
			c5.6,0,10.1-4.5,10.1-10C45.7,20.5,41.2,16,35.6,16L35.6,16z"/>
	</g>
</g>
</svg>
