<?xml version="1.0" encoding="utf-8"?>
<!-- Generator: Adobe Illustrator 19.0.0, SVG Export Plug-In . SVG Version: 6.00 Build 0)  -->
<svg version="1.1" id="图层_1" xmlns="http://www.w3.org/2000/svg" xmlns:xlink="http://www.w3.org/1999/xlink" x="0px" y="0px"
	 viewBox="0 0 14 14" style="enable-background:new 0 0 14 14;" xml:space="preserve">
<style type="text/css">
	.ico_getijingyingfuchi_st0{fill:#F93838;}
</style>
<path id="XMLID_25_" class="ico_getijingyingfuchi_st0" d="M1,5.9c0,0.7,0.5,1.3,1.1,1.4v4.9H1.4c-0.2,0-0.4,0.2-0.4,0.4C1,12.8,1.2,13,1.4,13h11.3
	c0.2,0,0.4-0.2,0.4-0.4c0-0.2-0.2-0.4-0.4-0.4h-0.8V7.3C12.5,7.2,13,6.6,13,5.9V5.5H1V5.9z M8.5,7.4c0.8,0,1.5-0.7,1.5-1.5
	c0,0.7,0.5,1.3,1.1,1.4v4.9H5.5V7.4C6.3,7.4,7,6.7,7,5.9C7,6.7,7.7,7.4,8.5,7.4z M5.1,7.3v4.9H2.9V7.3C3.5,7.2,4,6.6,4,5.9
	C4,6.6,4.5,7.2,5.1,7.3z M11.5,2.1h-9L1,5.1h12L11.5,2.1z M4.2,3L3.4,4.5c0,0.1-0.1,0.1-0.2,0.1c0,0-0.1,0-0.1,0
	C3.1,4.5,3,4.4,3.1,4.3l0.8-1.5c0-0.1,0.2-0.1,0.3-0.1C4.2,2.8,4.2,2.9,4.2,3z M5.7,3L4.9,4.5c0,0.1-0.1,0.1-0.2,0.1
	c0,0-0.1,0-0.1,0c-0.1,0-0.1-0.2-0.1-0.3l0.8-1.5c0-0.1,0.2-0.1,0.3-0.1C5.7,2.8,5.7,2.9,5.7,3z M7.2,4.4c0,0.1-0.1,0.2-0.2,0.2
	c-0.1,0-0.2-0.1-0.2-0.2V2.9c0-0.1,0.1-0.2,0.2-0.2c0.1,0,0.2,0.1,0.2,0.2V4.4z M9.3,4.5C9.3,4.6,9.3,4.6,9.3,4.5
	c-0.2,0-0.2,0-0.3-0.1L8.3,3c0-0.1,0-0.2,0.1-0.3c0.1,0,0.2,0,0.3,0.1l0.8,1.5C9.5,4.4,9.4,4.5,9.3,4.5z M10.8,4.5
	C10.8,4.6,10.8,4.6,10.8,4.5c-0.2,0-0.2,0-0.3-0.1L9.8,3c0-0.1,0-0.2,0.1-0.3c0.1,0,0.2,0,0.3,0.1l0.8,1.5C11,4.4,10.9,4.5,10.8,4.5
	z M4.2,10.1V9.2C4.1,9.1,4,9,4,8.9c0-0.2,0.2-0.4,0.4-0.4c0.2,0,0.4,0.2,0.4,0.4c0,0.1-0.1,0.3-0.2,0.3v0.9c0.1,0.1,0.2,0.2,0.2,0.3
	c0,0.2-0.2,0.4-0.4,0.4c-0.2,0-0.4-0.2-0.4-0.4C4,10.2,4.1,10.1,4.2,10.1z M2.5,1.4C2.5,1.2,2.7,1,2.9,1h8.3c0.2,0,0.4,0.2,0.4,0.4
	c0,0.2-0.2,0.4-0.4,0.4H2.9C2.7,1.7,2.5,1.6,2.5,1.4z M7.6,9.4L7.3,9.1l1.1-1.1l0.3,0.3L7.6,9.4z M7.6,10.4l-0.3-0.3l2.1-2.1
	l0.3,0.3L7.6,10.4z M9.4,9.1l0.3,0.3l-1.1,1.1l-0.3-0.3L9.4,9.1z"/>
</svg>
