<?xml version="1.0" encoding="utf-8"?>
<!-- Generator: Adobe Illustrator 19.0.0, SVG Export Plug-In . SVG Version: 6.00 Build 0)  -->
<svg version="1.1" id="图层_1" xmlns="http://www.w3.org/2000/svg" xmlns:xlink="http://www.w3.org/1999/xlink" x="0px" y="0px"
	 viewBox="0 0 14 14" style="enable-background:new 0 0 14 14;" xml:space="preserve">
<style type="text/css">
	.ico_guangbodianshi_st0{fill:#FBB03B;}
</style>
<g id="XMLID_352_">
	<g id="XMLID_353_" transform="scale(0.1953125, 0.1953125)">
		<path id="XMLID_354_" class="ico_guangbodianshi_st0" d="M61,10.2l-3.4,3.4c11.3,12.6,11.3,31.7,0,44.3l3.5,3.5C74.1,47.9,74.1,23.7,61,10.2z
			 M53.1,18.2l-3.5,3.5c6.9,8.1,6.9,20.1,0,28.3l3.5,3.5C61.8,43.3,61.8,28.2,53.1,18.2z M14.1,13.6l-3.4-3.4
			C-2.4,23.7-2.5,47.9,10.6,61.4l3.5-3.5C2.8,45.3,2.8,26.2,14.1,13.6z M18.6,18.2c-8.8,10-8.8,25.1,0,35.2l3.5-3.5
			c-6.8-8.2-6.8-20.1,0-28.3L18.6,18.2z M35.8,24.6c-6.2,0-11.3,5-11.3,11.3c0,6.2,5.1,11.3,11.3,11.3s11.3-5,11.3-11.3
			C47.1,29.7,42.1,24.6,35.8,24.6z"/>
	</g>
</g>
</svg>
