<?xml version="1.0" encoding="utf-8"?>
<!-- Generator: Adobe Illustrator 19.0.0, SVG Export Plug-In . SVG Version: 6.00 Build 0)  -->
<svg version="1.1" id="图层_1" xmlns="http://www.w3.org/2000/svg" xmlns:xlink="http://www.w3.org/1999/xlink" x="0px" y="0px"
	 viewBox="0 0 14 14" style="enable-background:new 0 0 14 14;" xml:space="preserve">
<style type="text/css">
	.ico_jiaotongtiaojianluohou_st0{fill:#25A2EF;}
</style>
<g id="XMLID_10_">
	<g id="XMLID_11_" transform="scale(0.1953125, 0.1953125)">
		<path id="XMLID_12_" class="ico_jiaotongtiaojianluohou_st0" d="M32.9,36.3l-2.6-7.3H9.5l-2.6,7.3l-1.8,4.3v9.9h1v2.9c0,0.5,0.5,1.1,1,1.1h2.5
			c0.5,0,0.8-0.6,0.8-1.1v-2.9h18.7v2.9c0,0.5,0.5,1.1,1,1.1h2.5c0.5,0,0.7-0.6,0.7-1.1v-2.9h1.1v-9.9L32.9,36.3z M10.8,30.7h18.2
			l3.3,10.1H7.4L10.8,30.7L10.8,30.7L10.8,30.7z M10.6,47.5c-1.1,0-2-0.9-2-2c0-1.1,0.9-2,2-2c1.1,0,2,0.9,2,2
			C12.6,46.6,11.7,47.5,10.6,47.5L10.6,47.5L10.6,47.5z M29.2,47.5c-1.1,0-2-0.9-2-2c0-1.1,0.9-2,2-2c1.1,0,2,0.9,2,2
			C31.2,46.6,30.3,47.5,29.2,47.5L29.2,47.5L29.2,47.5z M65.6,21.7c0-2.5-2.2-4.6-4.9-4.6H37.1c-2.7,0-4.9,2.1-4.9,4.6L32,25.4
			l3.4,8.5c0.7,1.9,2.2,5.6,2.2,5.6v14c0,0,2.1,0,2.2,0c1.2,0,2.1-1,2.1-2.1v-0.9c0-0.1,0-0.3,0-0.4h14c0,0.1,0,0.3,0,0.4v0.9
			c0,1.2,1,2.1,2.1,2.1h3.1c1.2,0,2.1-1,2.1-2.1v-0.9c0-0.1,0-0.3,0-0.4h3.4L65.6,21.7z M35.3,33.7c0.1-3.1,0.4-9.5,0.4-9.5
			c0-2.6,0.9-3.6,3.3-3.6h19.7c2.4,0,3.3,1,3.3,3.6l0.4,11.7H36.2C36.2,35.9,35.3,33.8,35.3,33.7z M60.5,45.7
			c-1.5,0-2.7-1.2-2.7-2.7c0-1.5,1.2-2.7,2.7-2.7c1.5,0,2.7,1.2,2.7,2.7C63.2,44.5,62,45.7,60.5,45.7z M37.6,45.8
			c1.5,0,2.7-1.2,2.7-2.7c0-1.5-1.2-2.7-2.7-2.7V45.8z"/>
	</g>
</g>
</svg>
