<?xml version="1.0" encoding="utf-8"?>
<!-- Generator: Adobe Illustrator 19.0.0, SVG Export Plug-In . SVG Version: 6.00 Build 0)  -->
<svg version="1.1" id="图层_1" xmlns="http://www.w3.org/2000/svg" xmlns:xlink="http://www.w3.org/1999/xlink" x="0px" y="0px"
	 viewBox="0 0 14 14" style="enable-background:new 0 0 14 14;" xml:space="preserve">
<style type="text/css">
	.ico_jiaoyufuchi_st0{fill:#FFE91D;}
</style>
<g id="XMLID_352_">
	<g id="XMLID_353_" transform="scale(0.1953125, 0.1953125)">
		<path id="XMLID_354_" class="ico_jiaoyufuchi_st0" d="M9.1,15.4v38.7c0,0,5.3-3.8,12.9-3.8c7.6,0,12.9,3.8,12.9,3.8V15.9c0,0-5.3-4.4-12.9-4.4
			C14.4,11.5,9.1,15.4,9.1,15.4z M36.8,15.4v38.7c0,0,5.3-3.8,12.9-3.8c7.6,0,12.9,3.8,12.9,3.8V15.9c0,0-5.3-4.4-12.9-4.4
			C42.2,11.5,36.8,15.4,36.8,15.4z M5.1,19.3h2v37h23.8v1.9h9.9v-1.9h23.8v-37h2v39H42.8l0.1,1.9h-14v-1.9H5.1V19.3z"/>
	</g>
</g>
</svg>
