<?xml version="1.0" encoding="utf-8"?>
<!-- Generator: Adobe Illustrator 19.0.0, SVG Export Plug-In . SVG Version: 6.00 Build 0)  -->
<svg version="1.1" id="图层_1" xmlns="http://www.w3.org/2000/svg" xmlns:xlink="http://www.w3.org/1999/xlink" x="0px" y="0px"
	 viewBox="0 0 14 14" style="enable-background:new 0 0 14 14;" xml:space="preserve">
<style type="text/css">
	.ico_jinfugongcheng_st0{fill-rule:evenodd;clip-rule:evenodd;fill:#FFE91D;}
</style>
<g id="XMLID_370_">
	<g id="XMLID_376_">
		<path id="XMLID_407_" class="ico_jinfugongcheng_st0" d="M6,7.9C6,7.9,5.9,7.9,6,7.9l-0.1,0H5.7v0.3h0.1h0c0,0,0.1,0,0.1,0c0,0,0,0,0,0c0,0,0,0,0-0.1
			C6.1,8,6.1,8,6,7.9C6,7.9,6,7.9,6,7.9z"/>
		<path id="XMLID_406_" class="ico_jinfugongcheng_st0" d="M6.8,7.7C6.8,7.6,6.8,7.6,6.8,7.7C6.8,7.6,6.8,7.6,6.8,7.7L6.8,7.7C6.8,7.6,6.8,7.6,6.8,7.7
			C6.8,7.6,6.7,7.6,6.8,7.7C6.7,7.7,6.7,7.7,6.8,7.7L6.7,8h0.1h0.1L6.8,7.7C6.8,7.7,6.8,7.7,6.8,7.7z"/>
		<polygon id="XMLID_405_" class="ico_jinfugongcheng_st0" points="8.9,11 8.9,11 8.8,11.1 8.6,11.1 8.6,11.4 8.8,11.4 8.9,11.5 8.9,11.5 8.9,11.4 
			9.1,11.4 9.1,11.1 8.9,11.1 		"/>
		<path id="XMLID_404_" class="ico_jinfugongcheng_st0" d="M5.9,7.7C5.9,7.7,5.9,7.7,5.9,7.7C6,7.7,6,7.7,5.9,7.7C6,7.7,6,7.6,6,7.6c0,0,0,0,0-0.1
			c0,0,0,0,0-0.1c0,0,0,0,0,0c0,0,0,0-0.1,0h0H5.7v0.2H5.9L5.9,7.7z"/>
		<path id="XMLID_379_" class="ico_jinfugongcheng_st0" d="M10.6,5.9H2.1C1.5,5.9,1,6.3,1,6.9v4.6c0,0.6,0.5,1.1,1.1,1.1h8.6c0.6,0,1.1-0.5,1.1-1.1V6.9
			C11.7,6.3,11.2,5.9,10.6,5.9z M7.3,7.4C7.3,7.3,7.3,7.3,7.3,7.4C7.3,7.3,7.3,7.3,7.3,7.4c0.1-0.1,0.1-0.1,0.1-0.1c0,0,0,0,0.1,0
			c0,0,0,0,0,0c0,0,0.1,0.1,0.1,0.1c0,0,0,0.1,0.1,0.1c0,0,0,0.1,0.1,0.1c0,0,0,0.1,0.1,0.1c0,0,0,0.1,0.1,0.1V7.4c0,0,0,0,0,0
			c0,0,0,0,0,0c0,0,0,0,0.1,0c0,0,0,0,0.1,0c0,0,0,0,0,0c0,0,0,0,0,0v0.9c0,0,0,0,0,0.1c0,0,0,0,0,0c0,0,0,0-0.1,0c0,0,0,0,0,0
			c0,0,0,0,0,0c0,0,0,0,0,0L7.5,7.7v0.6c0,0,0,0,0,0c0,0,0,0,0,0c0,0,0,0-0.1,0c0,0,0,0-0.1,0c0,0,0,0,0,0c0,0,0,0,0,0V7.4z
			 M4.3,7.3h0.2c0.2,0,0.4,0.2,0.4,0.4v0.1H4.1L4.3,7.3z M4.4,8.3V8c0,0,0,0,0,0h0.5v0.4H4.4z M4.9,8.5v0.4H4.4c0,0,0,0,0,0V8.5H4.9
			z M4.3,8.1v0.7c0,0.1-0.1,0.2-0.2,0.2H3.4c-0.1,0-0.2-0.1-0.2-0.2V8.1c0-0.1,0.1-0.2,0.2-0.2h0.7C4.2,7.9,4.3,8,4.3,8.1z M4.1,7.3
			L3.9,7.7H3.6L3.4,7.3H4.1z M2.6,7.6c0-0.2,0.2-0.4,0.4-0.4h0.2l0.2,0.5H2.6V7.6z M2.6,7.9h0.5c0,0,0,0,0,0v0.4H2.6V7.9z M2.6,8.5
			h0.5v0.4c0,0,0,0,0,0H2.6V8.5z M3.2,11.5H3l-0.1,0l0,0H2.7l-0.1-0.1l0.1-0.1h0.2v-0.3L3,11l0,0v-0.3H2.7l-0.1-0.1l0.1-0.1h0.2
			L3,10.6l0,0l0,0.1V11L3,11l0,0v0.3h0.2L3.2,11.5L3.2,11.5z M3.2,9.6H3c-0.2,0-0.4-0.2-0.4-0.4V9.1h0.8L3.2,9.6z M3.6,9.1h0.3
			l0.2,0.5H3.4L3.6,9.1z M4.2,11L4.2,11L4.2,11l-0.1,0.1H3.9l-0.1,0l0,0H3.6v0.3h0.2l0.1,0l0,0h0.2l0.1,0.1l-0.1,0.1H3.9l-0.1,0l0,0
			H3.6l-0.1-0.1l0,0l0-0.1v-0.3L3.5,11l0,0l0.1,0h0.2l0.1,0l0,0h0.2v-0.3H3.9l-0.1,0l0,0H3.6l-0.1-0.1l0.1-0.1h0.2l0.1,0l0,0h0.2
			l0.1,0.1l0,0l0,0.1V11z M4.1,9.1h0.8v0.1c0,0.2-0.2,0.4-0.4,0.4H4.3L4.1,9.1z M5,11L5,11v0.1v0.3L5,11.5l0,0l0,0H4.7l-0.1,0l0,0
			H4.4l-0.1-0.1l0.1-0.1h0.2l0.1,0l0,0h0.2v-0.3H4.7L4.7,11L4.7,11h0.2v-0.3H4.7l-0.1,0l0,0H4.4l-0.1-0.1l0.1-0.1h0.2l0.1,0l0,0h0.2
			L5,10.6l0,0l0,0.1V11z M5.9,11L5.9,11v0.1v0.3l-0.1,0.1l-0.1-0.1v-0.3H5.6l-0.1,0l0,0H5.3L5.2,11l0,0l0-0.1v-0.3l0.1-0.1l0.1,0.1
			V11h0.2l0.1,0l0,0h0.2v-0.3l0.1-0.1l0.1,0.1V11z M6.2,8.1C6.2,8.2,6.2,8.2,6.2,8.1C6.1,8.3,6.1,8.3,6.1,8.3c0,0-0.1,0-0.2,0h0H5.7
			c0,0,0,0-0.1,0c0,0,0,0,0,0c0,0,0,0,0-0.1V7.4c0,0,0,0,0-0.1c0,0,0,0,0,0c0,0,0,0,0.1,0h0.2h0c0.1,0,0.1,0,0.1,0
			c0,0,0.1,0,0.1,0.1c0,0,0,0.1,0.1,0.1c0,0,0,0.1,0,0.1c0,0,0,0.1,0,0.1c0,0,0,0-0.1,0.1c0,0-0.1,0-0.1,0.1c0,0,0,0,0.1,0
			c0,0,0,0,0.1,0c0,0,0,0,0,0.1c0,0,0,0.1,0,0.1C6.3,8.1,6.3,8.1,6.2,8.1z M6.6,8.1l0,0.2c0,0,0,0,0,0c0,0,0,0,0,0c0,0,0,0,0,0
			c0,0,0,0-0.1,0c0,0,0,0,0,0c0,0,0,0,0,0c0,0,0,0,0,0c0,0,0,0,0,0c0,0,0,0,0,0l0.3-0.8c0,0,0,0,0-0.1c0,0,0,0,0,0c0,0,0,0,0.1,0
			l0,0c0,0,0,0,0.1,0c0,0,0,0,0,0c0,0,0,0,0,0.1l0.3,0.8c0,0,0,0,0,0c0,0,0,0,0,0c0,0,0,0,0,0c0,0,0,0,0,0c0,0,0,0,0,0
			c0,0,0,0-0.1,0c0,0,0,0,0,0c0,0,0,0,0,0c0,0,0,0,0,0L6.9,8.1H6.8H6.6z M7.6,11L7.6,11v0.1v0.3l-0.1,0.1l-0.1-0.1v-0.3H7.2l-0.1,0
			l0,0H6.9L6.9,11l0,0l0-0.1v-0.3l0.1-0.1L7,10.6V11h0.2l0.1,0l0,0h0.2v-0.3l0.1-0.1l0.1,0.1V11z M8.4,11.4L8.4,11.4L8.4,11.4
			l-0.1,0.1H8.1l-0.1,0l0,0H7.8l-0.1-0.1l0.1-0.1H8l0.1,0l0,0h0.2v-0.3H8.1L8,11l0,0H7.8L7.7,11l0,0l0-0.1v-0.3l0.1-0.1l0,0l0.1,0H8
			l0.1,0l0,0h0.2l0.1,0.1l-0.1,0.1H8.1l-0.1,0l0,0H7.8V11H8L8,11l0,0h0.2L8.3,11l0,0l0,0.1V11.4z M8.5,7.9v0.3c0,0,0,0,0,0
			c0,0,0,0,0,0c0,0,0,0-0.1,0c0,0,0,0-0.1,0c0,0,0,0,0,0c0,0,0,0,0,0V7.4c0,0,0,0,0,0c0,0,0,0,0,0c0,0,0,0,0.1,0c0,0,0,0,0.1,0
			c0,0,0,0,0,0c0,0,0,0,0,0v0.3l0.3-0.3c0,0,0,0,0,0c0,0,0,0,0,0c0,0,0,0,0,0c0,0,0,0,0,0c0,0,0,0,0,0c0,0,0,0,0,0c0,0,0,0,0,0
			c0,0,0,0,0,0c0,0,0,0,0,0L8.6,7.8l0.3,0.4c0,0,0,0,0,0c0,0,0,0,0,0c0,0,0,0,0,0c0,0,0,0,0,0c0,0,0,0,0,0c0,0,0,0,0,0c0,0,0,0,0,0
			c0,0,0,0,0,0L8.5,7.9L8.5,7.9z M9.2,11.4L9.2,11.4L9.2,11.4l-0.1,0.1H8.9l0,0l0,0l0,0H8.6l-0.1-0.1l0,0l0-0.1v-0.3l0-0.1l0,0v-0.3
			l0.1-0.1l0,0l0.1,0h0.2l0,0l0,0l0,0h0.2l0.1,0.1l-0.1,0.1H8.9l0,0l0,0l0,0H8.6V11h0.2l0,0l0,0l0,0h0.2L9.2,11l0,0l0,0.1V11.4z
			 M10.1,11L10.1,11v0.1v0.3L10,11.5l0,0l0,0H9.8l0,0l0,0l0,0H9.5l-0.1-0.1l0,0l0-0.1v-0.3l0-0.1l0,0v-0.3l0.1-0.1l0,0l0.1,0h0.2
			l0.1,0l0,0l0,0H10l0.1,0.1l0,0l0,0.1V11z"/>
		<polygon id="XMLID_378_" class="ico_jinfugongcheng_st0" points="9.7,10.6 9.7,10.6 9.7,10.7 9.5,10.7 9.5,11 9.7,11 9.7,11 9.7,11 9.8,11 10,11 
			10,10.7 9.8,10.7 		"/>
		<polygon id="XMLID_377_" class="ico_jinfugongcheng_st0" points="9.7,11 9.7,11 9.7,11.1 9.5,11.1 9.5,11.4 9.7,11.4 9.7,11.5 9.7,11.5 9.8,11.4 
			10,11.4 10,11.1 9.8,11.1 		"/>
	</g>
	<path id="XMLID_371_" class="ico_jinfugongcheng_st0" d="M9.5,1.7l1.2-0.3c0.6-0.1,1.1,0.2,1.3,0.8l0.1,0.3L9.5,3.1V1.7L9.5,1.7z M9.5,5.4V4.9l2.9-0.6
		L13,6.8c0.1,0.6-0.2,1.1-0.8,1.3l0,0V6.6c0-0.7-0.5-1.2-1.2-1.2H9.5z M2.4,3.3l7.1-1.6v1.4L1.6,4.8L1.6,4.5
		C1.4,3.9,1.8,3.4,2.4,3.3L2.4,3.3z M9.5,4.9v0.6H7L9.5,4.9z"/>
</g>
</svg>
