<?xml version="1.0" encoding="utf-8"?>
<!-- Generator: Adobe Illustrator 19.0.0, SVG Export Plug-In . SVG Version: 6.00 Build 0)  -->
<svg version="1.1" id="图层_1" xmlns="http://www.w3.org/2000/svg" xmlns:xlink="http://www.w3.org/1999/xlink" x="0px" y="0px"
	 viewBox="0 0 14 14" style="enable-background:new 0 0 14 14;" xml:space="preserve">
<style type="text/css">
	.ico_jishujineng_st0{fill:#ED3845;}
</style>
<g id="XMLID_352_">
	<g id="XMLID_353_" transform="scale(0.1953125, 0.1953125)">
		<path id="XMLID_354_" class="ico_jishujineng_st0" d="M65.9,56.2l-18.7-19c-0.9-0.9-2.3-0.9-3.2,0l-1.4,1.3l-3.2-3.3c0,0,5.2-5.7,5.4-5.6
			c5.5,2.5,9.4,1.4,13.9-3c4-4,4.8-9.7,2.7-14.1L53.7,20c-0.8,0.8-2,0.8-2.8,0l-3.3-3.3c-0.8-0.8-0.8-2,0-2.8L55,6.6
			c-4.2-1.3-9.3-0.2-12.9,3.4c-5.9,5.6-5,9.6-2.9,14.1c0.1,0.2-5.2,5.8-5.2,5.8h-0.3L16.7,12.8c0,0,0.7-2.2-0.5-3.5l-2.7-2.6
			l-5.2,5.2l2.7,2.6c0,0,2.1,1.3,3.6,0.5l16.5,16.7l0.3,0.6L9.8,52L7,54.9c-2.5,2.5-2.5,6.5,0,8.9c2.5,2.5,6.5,2.5,8.9,0l2.8-2.8
			c0,0,12.7-16.4,18.3-23l3,3l-1.6,1.9c-0.9,0.9-0.9,2.3,0,3.2L57,64.8c0.9,0.9,2.3,0.9,3.2,0l5.7-5.4
			C66.8,58.5,66.8,57.1,65.9,56.2L65.9,56.2z M14.3,59.1c-0.8,0.8-2,0.8-2.8,0c-0.8-0.8-0.8-2,0-2.8c0.8-0.8,2-0.8,2.8,0
			C15.1,57.1,15.1,58.3,14.3,59.1z M59.5,62c-0.4,0.4-1,0.4-1.4,0L41.5,44.5c-0.4-0.4-0.4-1,0-1.4c0.4-0.4,1-0.4,1.4,0l16.7,17.5
			C59.9,61,59.9,61.6,59.5,62L59.5,62z M63,58.5c-0.4,0.4-1,0.4-1.4,0L44.9,41c-0.4-0.4-0.4-1,0-1.4c0.4-0.4,1-0.4,1.3,0L63,57.2
			C63.3,57.6,63.3,58.2,63,58.5L63,58.5z"/>
	</g>
</g>
</svg>
