<?xml version="1.0" encoding="utf-8"?>
<!-- Generator: Adobe Illustrator 19.0.0, SVG Export Plug-In . SVG Version: 6.00 Build 0)  -->
<svg version="1.1" id="图层_1" xmlns="http://www.w3.org/2000/svg" xmlns:xlink="http://www.w3.org/1999/xlink" x="0px" y="0px"
	 viewBox="0 0 14 14" style="enable-background:new 0 0 14 14;" xml:space="preserve">
<style type="text/css">
	.ico_kuandai_st0{fill:#F15A24;}
</style>
<g id="XMLID_352_">
	<g id="XMLID_353_" transform="scale(0.1953125, 0.1953125)">
		<path id="XMLID_354_" class="ico_kuandai_st0" d="M23.5,12.5c-3.3,2.9-5.5,7.2-5.5,12c0,4.8,2.1,9,5.4,12l0,0c0.6,0.4,1.7-0.2,2.6-1.3
			c0.8-1.1,1.1-2.2,0.7-2.8l0.1-0.1c-2.3-2-3.8-5-3.8-8.3c0-3.1,1.3-5.9,3.3-7.8c0,0,0,0,0.1,0c0.5-0.4,0.2-1.5-0.6-2.6
			C25.1,12.7,24,12.2,23.5,12.5L23.5,12.5L23.5,12.5z M18.7,6.3c0,0-0.1,0.1-0.2,0.1c0,0,0,0,0,0c0,0,0,0,0,0.1
			c-5,4.4-8.2,10.8-8.2,18c0,7.2,3.2,13.6,8.2,17.9c0,0,0.1,0.1,0.1,0.1c0.6,0.4,1.8-0.1,2.7-1.2c0.9-1.1,1.2-2.4,0.7-2.8l0,0
			c-3.9-3.4-6.3-8.4-6.3-13.9c0-5.6,2.5-10.6,6.4-14l0,0c0.4-0.5,0.1-1.7-0.8-2.7C20.3,6.7,19.3,6.2,18.7,6.3L18.7,6.3L18.7,6.3z
			 M48.2,36.6c3.3-2.9,5.5-7.2,5.5-12c0-4.8-2.1-9-5.4-12l0,0c-0.6-0.4-1.7,0.2-2.6,1.3c-0.8,1.1-1.1,2.2-0.7,2.8l-0.1,0.1
			c2.3,2,3.8,5,3.8,8.3c0,3.1-1.3,5.9-3.3,7.8c0,0,0,0-0.1,0c-0.5,0.4-0.2,1.5,0.6,2.6C46.6,36.4,47.6,36.9,48.2,36.6L48.2,36.6
			L48.2,36.6z M53,42.7c0,0,0.1-0.1,0.2-0.1c0,0,0,0,0,0c0,0,0,0,0-0.1c5-4.4,8.2-10.8,8.2-18c0-7.2-3.2-13.6-8.2-17.9
			c0,0-0.1-0.1-0.1-0.1c-0.6-0.4-1.8,0.1-2.7,1.2c-0.9,1.1-1.2,2.4-0.7,2.8l0,0c3.9,3.4,6.3,8.4,6.3,13.9c0,5.6-2.5,10.6-6.4,14l0,0
			c-0.4,0.5-0.1,1.7,0.8,2.7C51.3,42.3,52.4,42.9,53,42.7L53,42.7L53,42.7z M52.2,61.8L52.2,61.8l-13-31.4c1.2-1,2-2.5,2-4.2
			c0-3-2.4-5.4-5.4-5.4c-3,0-5.4,2.4-5.4,5.4c0,1.8,0.9,3.4,2.3,4.4l-13,31.3c0,0,0,0.1,0,0.1l-0.1,0.1l0,0
			c-0.1,0.2-0.1,0.5-0.1,0.8c0,1.3,1.1,2.4,2.4,2.4c1.3,0,2.4-1.1,2.4-2.4l3.1-7.7h17.3l3.1,7.2c0,0.2-0.1,0.3-0.1,0.5
			c0,1.3,1.1,2.4,2.4,2.4c1.3,0,2.4-1.1,2.4-2.4C52.4,62.5,52.3,62.1,52.2,61.8L52.2,61.8z M35.7,34.1l4,9.5h-7.8L35.7,34.1
			L35.7,34.1z M28.5,52.3l2.2-5.4h10.4l2.3,5.4H28.5L28.5,52.3z"/>
	</g>
</g>
</svg>
