<?xml version="1.0" encoding="utf-8"?>
<!-- Generator: Adobe Illustrator 19.0.0, SVG Export Plug-In . SVG Version: 6.00 Build 0)  -->
<svg version="1.1" id="图层_1" xmlns="http://www.w3.org/2000/svg" xmlns:xlink="http://www.w3.org/1999/xlink" x="0px" y="0px"
	 viewBox="0 0 14 14" style="enable-background:new 0 0 14 14;" xml:space="preserve">
<style type="text/css">
	.ico_nenglitisheng_st0{fill-rule:evenodd;clip-rule:evenodd;fill:#FBB03B;}
</style>
<g id="XMLID_1_">
	<path id="XMLID_369_" class="ico_nenglitisheng_st0" d="M1.1,12.6h0.6c0.1,0,0.1,0,0.1-0.1V5.3c0-0.1,0-0.1-0.1-0.1H1.1C1,5.2,1,5.2,1,5.3L1.1,12.6
		C1,12.6,1,12.6,1.1,12.6z"/>
	<path id="XMLID_368_" class="ico_nenglitisheng_st0" d="M12.1,12v0.6c0,0.1,0,0.1-0.1,0.1H1.1c-0.1,0-0.1,0-0.1-0.1V12c0-0.1,0-0.1,0.1-0.1L12.1,12
		C12,11.9,12.1,11.9,12.1,12z"/>
	<path id="XMLID_367_" class="ico_nenglitisheng_st0" d="M12.1,3.6v7.5c0,0.1,0,0.1-0.1,0.1h-0.6c-0.1,0-0.1,0-0.1-0.1V4.2c0,0,0-0.1,0-0.1l0.6-0.6
		C12,3.5,12.1,3.5,12.1,3.6z"/>
	<path id="XMLID_366_" class="ico_nenglitisheng_st0" d="M10.4,5.3v5.8c0,0.1,0,0.1-0.1,0.1H9.7c-0.1,0-0.1,0-0.1-0.1V5.9c0,0,0-0.1,0-0.1l0.6-0.6
		C10.3,5.2,10.4,5.2,10.4,5.3z"/>
	<path id="XMLID_365_" class="ico_nenglitisheng_st0" d="M8.7,7v4.1c0,0.1,0,0.1-0.1,0.1H8c-0.1,0-0.1,0-0.1-0.1V7.6c0,0,0-0.1,0-0.1l0.6-0.6
		C8.6,6.9,8.7,6.9,8.7,7z"/>
	<path id="XMLID_364_" class="ico_nenglitisheng_st0" d="M7,7.1v4c0,0.1,0,0.1-0.1,0.1H6.3c-0.1,0-0.1,0-0.1-0.1V6.5c0,0,0-0.1,0-0.1l0,0
		c0,0,0.1,0,0.1,0L7,7.1C6.9,7.1,7,7.1,7,7.1z"/>
	<path id="XMLID_363_" class="ico_nenglitisheng_st0" d="M5.2,7.6v3.5c0,0.1,0,0.1-0.1,0.1H4.6c-0.1,0-0.1,0-0.1-0.1V8.2c0,0,0-0.1,0-0.1l0.6-0.6
		C5.1,7.5,5.2,7.5,5.2,7.6z"/>
	<path id="XMLID_362_" class="ico_nenglitisheng_st0" d="M3.5,9.3v1.8c0,0.1,0,0.1-0.1,0.1H2.8c-0.1,0-0.1,0-0.1-0.1V9.9c0,0,0-0.1,0-0.1l0.6-0.6
		C3.4,9.2,3.5,9.2,3.5,9.3z"/>
	<path id="XMLID_361_" class="ico_nenglitisheng_st0" d="M6.2,5.9L2.9,9.2c-0.1,0.1-0.2,0-0.2-0.1V8.3c0,0,0-0.1,0-0.1l3.4-3.4c0,0,0.1,0,0.1,0
		l1.3,1.3c0,0,0.1,0,0.1,0l3.7-3.7c0,0,0-0.1,0-0.1l-0.3-0.3c-0.1-0.1,0-0.1,0-0.2l1.7-0.4c0.1,0,0.1,0,0.1,0.1l-0.4,1.7
		c0,0.1-0.1,0.1-0.2,0l-0.3-0.3c0,0-0.1,0-0.1,0L7.7,7.2c0,0-0.1,0-0.1,0L6.3,5.9C6.3,5.9,6.2,5.9,6.2,5.9z"/>
</g>
</svg>
