<?xml version="1.0" encoding="utf-8"?>
<!-- Generator: Adobe Illustrator 19.0.0, SVG Export Plug-In . SVG Version: 6.00 Build 0)  -->
<svg version="1.1" id="图层_1" xmlns="http://www.w3.org/2000/svg" xmlns:xlink="http://www.w3.org/1999/xlink" x="0px" y="0px"
	 viewBox="0 0 14 14" style="enable-background:new 0 0 14 14;" xml:space="preserve">
<style type="text/css">
	.ico_nongjijufuchi_st0{fill:#06F99B;}
</style>
<g id="XMLID_1_">
	<path id="XMLID_8_" class="ico_nongjijufuchi_st0" d="M9.5,9.2C9.6,8.5,10,8,10.6,7.8L9.4,7.4l0-0.2c0-0.4-0.3-0.8-0.7-0.8l-0.1,0l0-0.1
		c0-0.4-0.3-0.8-0.7-0.8L6.2,5.2c-0.4,0-0.7,0.2-0.8,0.6L3.1,2.5L1.4,2.3C1.2,2.3,1,2.5,1,2.7c0,0.2,0.1,0.4,0.3,0.4l1.4,0.1l2.1,3
		L3.3,6.8L3.1,8.1C3.3,8,3.5,8,3.8,8c1,0.1,1.7,1,1.6,2c0,0.2-0.1,0.4-0.1,0.5l4.7,0.2C9.6,10.3,9.4,9.7,9.5,9.2z"/>
	<path id="XMLID_5_" class="ico_nongjijufuchi_st0" d="M3.6,8.1c-1-0.1-1.9,0.6-2,1.6c-0.1,1,0.6,1.9,1.6,2c1,0.1,1.9-0.6,2-1.6
		C5.4,9.1,4.6,8.2,3.6,8.1z M3.3,11.2c-0.7-0.1-1.3-0.7-1.2-1.4C2.2,9,2.9,8.5,3.6,8.6C4.3,8.6,4.9,9.3,4.8,10
		C4.7,10.7,4.1,11.3,3.3,11.2z"/>
	<path id="XMLID_2_" class="ico_nongjijufuchi_st0" d="M11.5,7.8c-0.9-0.1-1.7,0.6-1.8,1.5c-0.1,0.9,0.6,1.7,1.5,1.8c0.9,0.1,1.7-0.6,1.8-1.5
		C13.1,8.7,12.4,7.8,11.5,7.8z M11.2,10.5c-0.6-0.1-1.1-0.6-1-1.2c0.1-0.6,0.6-1.1,1.2-1c0.6,0.1,1.1,0.6,1,1.2
		C12.4,10.1,11.8,10.6,11.2,10.5z"/>
</g>
</svg>
