<?xml version="1.0" encoding="utf-8"?>
<!-- Generator: Adobe Illustrator 19.0.0, SVG Export Plug-In . SVG Version: 6.00 Build 0)  -->
<svg version="1.1" id="图层_1" xmlns="http://www.w3.org/2000/svg" xmlns:xlink="http://www.w3.org/1999/xlink" x="0px" y="0px"
	 viewBox="0 0 65 65" style="enable-background:new 0 0 65 65;" xml:space="preserve">
<style type="text/css">
	.st0{opacity:0.7;}
	.st1{fill:#FFFFFF;}
</style>
<g>
	<g class="st0">
		<path id="XMLID_55_" class="st1" d="M32.5,64.6c-17.7,0-32.1-14.4-32.1-32.1S14.8,0.4,32.5,0.4c17.7,0,32.1,14.4,32.1,32.1
			S50.2,64.6,32.5,64.6z M32.5,4.4C17,4.4,4.4,17,4.4,32.5C4.4,48,17,60.6,32.5,60.6S60.6,48,60.6,32.5C60.6,17,48,4.4,32.5,4.4z"/>
	</g>
	<g>
		<polygon id="XMLID_82_" class="st1" points="47.5,32.5 45.8,30.8 45.8,30.9 25.8,10.8 25.8,16 42.8,32.5 25.8,49.4 25.8,54.2 
			45.8,34.1 45.8,34.2 47.5,32.5 47.5,32.5 		"/>
	</g>
</g>
</svg>
