<?xml version="1.0" encoding="utf-8"?>
<!-- Generator: Adobe Illustrator 19.0.0, SVG Export Plug-In . SVG Version: 6.00 Build 0)  -->
<svg version="1.1" id="图层_1" xmlns="http://www.w3.org/2000/svg" xmlns:xlink="http://www.w3.org/1999/xlink" x="0px" y="0px"
	 viewBox="0 0 65 65" style="enable-background:new 0 0 65 65;" xml:space="preserve">
<style type="text/css">
	.st0{opacity:0.7;}
	.st1{fill:#FFFFFF;}
</style>
<g id="XMLID_84_">
	<g id="XMLID_87_" class="st0">
		<path id="XMLID_55_" class="st1" d="M0.4,32.5c0-17.7,14.4-32.1,32.1-32.1c17.7,0,32.1,14.4,32.1,32.1S50.2,64.6,32.5,64.6
			C14.8,64.6,0.4,50.2,0.4,32.5z M4.4,32.5C4.4,48,17,60.6,32.5,60.6S60.6,48,60.6,32.5C60.6,17,48,4.4,32.5,4.4S4.4,17,4.4,32.5z"
			/>
	</g>
	<g id="XMLID_85_">
		<polygon id="XMLID_82_" class="st1" points="17.5,32.5 19.2,30.8 19.2,30.9 39.2,10.8 39.2,16 22.2,32.5 39.2,49.4 39.2,54.2 
			19.2,34.1 19.2,34.2 17.5,32.5 17.5,32.5 		"/>
	</g>
</g>
</svg>
