<?xml version="1.0" encoding="utf-8"?>
<!-- Generator: Adobe Illustrator 19.0.0, SVG Export Plug-In . SVG Version: 6.00 Build 0)  -->
<svg version="1.1" id="图层_1" xmlns="http://www.w3.org/2000/svg" xmlns:xlink="http://www.w3.org/1999/xlink" x="0px" y="0px"
	 viewBox="0 0 14 14" style="enable-background:new 0 0 14 14;" xml:space="preserve">
<style type="text/css">
	.pingkunrenkou_ren_st0{fill:#00FFDA;}
</style>
<path id="XMLID_12874_" class="pingkunrenkou_ren_st0" d="M12,10.3l-2.7-1c0,0-0.5-0.2-0.7-0.4c-0.1-0.1-0.1-0.4,0-0.8c0.1-0.4,1.5-1.9,1.5-3.3
	C10.1,2.7,8.7,1,7,1C5.3,1,3.9,2.7,3.9,4.9c0,1.3,1.2,2.9,1.4,3.2c0.1,0.3,0.1,0.7,0,0.9C5,9.1,4.4,9.3,4.4,9.3L2,10.4
	c-0.6,0.2-1,0.7-1,1.3V12c0,0.6,0.5,1,1.2,1h4h1.4h4.3c0.6,0,1.2-0.4,1.2-1v-0.3C13,11.1,12.6,10.5,12,10.3L12,10.3z"/>
</svg>
