<?xml version="1.0" encoding="utf-8"?>
<!-- Generator: Adobe Illustrator 19.0.0, SVG Export Plug-In . SVG Version: 6.00 Build 0)  -->
<svg version="1.1" id="图层_1" xmlns="http://www.w3.org/2000/svg" xmlns:xlink="http://www.w3.org/1999/xlink" x="0px" y="0px"
	 viewBox="0 0 14 14" style="enable-background:new 0 0 14 14;" xml:space="preserve">
<style type="text/css">
	.pingkunhu_hu_st0{fill:#FBB03B;}
</style>
<path id="XMLID_12877_" class="pingkunhu_hu_st0" d="M12.8,6.5L7.7,1.2c-0.3-0.3-0.8-0.3-1.1,0L4.4,3.4V3.1c0-0.3-0.2-0.5-0.5-0.5h-1
	c-0.3,0-0.5,0.2-0.5,0.5v2.3l-1.1,1c-0.3,0.3-0.3,0.8,0,1.1C1.4,7.8,1.8,7.8,2,7.7V12c0,0.6,0.5,1,1,1h1.8h0.3h0.5
	c0.3,0,0.5-0.2,0.5-0.5v-0.3V12v-1.8c0-0.1,0.1-0.3,0.3-0.3h1c0.1,0,0.3,0.1,0.3,0.3V12v0.3v0.3C7.8,12.8,8,13,8.3,13h0.5h0.3h1.8
	c0.6,0,1-0.5,1-1V7.7c0.1,0,0.2,0,0.3,0c0.2,0,0.4-0.1,0.6-0.2C13.1,7.3,13.1,6.8,12.8,6.5z M2.8,3.4c0-0.1,0.1-0.3,0.3-0.3h0.5
	c0.1,0,0.3,0.1,0.3,0.3v0.5l-1,1V3.4z M7,6.7c-0.6,0-1-0.5-1-1c0-0.6,0.5-1,1-1c0.6,0,1,0.5,1,1S7.6,6.7,7,6.7z M12.4,7.2
	c-0.1,0.1-0.1,0.1-0.2,0.1c0,0-0.1,0-0.2-0.1L12,7.1V7h-0.1L7.1,2.2L2.1,7H2v0.1L2,7.2c0,0-0.1,0.1-0.2,0.1c0,0-0.1,0-0.2-0.1
	c-0.1-0.1-0.1-0.3,0-0.4l5.3-5.2c0,0,0.1-0.1,0.2-0.1c0,0,0.1,0,0.2,0.1l5.1,5.2C12.5,6.9,12.5,7,12.5,7C12.5,7,12.5,7.1,12.4,7.2z
	 M6.5,5.7C6.5,6,6.7,6.2,7,6.2c0.3,0,0.5-0.2,0.5-0.5l0,0c0-0.3-0.2-0.5-0.5-0.5C6.7,5.2,6.5,5.4,6.5,5.7z"/>
</svg>
