<?xml version="1.0" encoding="utf-8"?>
<!-- Generator: Adobe Illustrator 19.0.0, SVG Export Plug-In . SVG Version: 6.00 Build 0)  -->
<svg version="1.1" id="图层_1" xmlns="http://www.w3.org/2000/svg" xmlns:xlink="http://www.w3.org/1999/xlink" x="0px" y="0px"
	 viewBox="0 0 14 14" style="enable-background:new 0 0 14 14;" xml:space="preserve">
<style type="text/css">
	.ico_pingkunrenkoushuliang_ren_st0{fill:#FFE91D;}
	.st1{opacity:0.7;}
</style>
<g id="XMLID_352_">
	<g id="XMLID_459_">
		<g id="XMLID_462_">
			<ellipse id="XMLID_463_" class="ico_pingkunrenkoushuliang_ren_st0" cx="6.9" cy="1.3" rx="1.4" ry="1.2"/>
		</g>
		<g id="XMLID_460_">
			<path id="XMLID_461_" class="ico_pingkunrenkoushuliang_ren_st0" d="M9.5,3.3c0,0,0-0.1,0-0.1V3.1c0-0.2-0.2-0.3-0.4-0.3c0,0,0,0-0.1,0c0,0-0.1,0-0.1,0L6.7,2.6
				L4.6,2.7c-0.1,0-0.1,0-0.2,0c0,0,0,0,0,0C4.2,2.8,4,2.9,4,3.1v5.1c0,0.2,0.2,0.3,0.4,0.3c0.2,0,0.4-0.1,0.4-0.3V3.9h0.2
				c0,1.2,0,3.9,0,4.2c0,0,0,0.1,0,0.1v5.4c0,0.3,0.3,0.5,0.6,0.5c0.3,0,0.6-0.2,0.6-0.5V8.6c0.4,0,0.8,0,1.2,0v4.9
				c0,0.3,0.3,0.5,0.6,0.5c0.3,0,0.6-0.2,0.6-0.5V7.8c0,0,0,0,0-0.1c0-0.8,0-2.9,0-3.9h0.2v4.3c0,0.2,0.2,0.3,0.4,0.3
				c0.2,0,0.4-0.1,0.4-0.3V3.4C9.5,3.4,9.5,3.3,9.5,3.3z"/>
		</g>
	</g>
	<g id="XMLID_454_" class="st1">
		<g id="XMLID_457_">
			<ellipse id="XMLID_458_" class="ico_pingkunrenkoushuliang_ren_st0" cx="10.7" cy="2.5" rx="1.2" ry="1"/>
		</g>
		<g id="XMLID_455_">
			<path id="XMLID_456_" class="ico_pingkunrenkoushuliang_ren_st0" d="M13,4.2c0,0,0-0.1,0-0.1V4c0-0.2-0.1-0.3-0.3-0.3c0,0,0,0-0.1,0c0,0-0.1,0-0.1,0l-1.9-0.1
				L8.8,3.7c-0.1,0-0.1,0-0.2,0c0,0,0,0,0,0C8.4,3.7,8.3,3.9,8.3,4v4.3c0,0.2,0.1,0.3,0.3,0.3c0.2,0,0.3-0.1,0.3-0.3V4.7h0.1
				c0,1,0,3.3,0,3.5c0,0,0,0.1,0,0.1v4.6c0,0.2,0.2,0.4,0.5,0.4c0.3,0,0.5-0.2,0.5-0.4V8.7c0.3,0,0.7,0,1,0v4.1
				c0,0.2,0.2,0.4,0.5,0.4c0.3,0,0.5-0.2,0.5-0.4V8c0,0,0,0,0-0.1c0-0.7,0-2.5,0-3.3h0.2v3.6c0,0.2,0.1,0.3,0.3,0.3
				c0.2,0,0.3-0.1,0.3-0.3v-4C13,4.3,13,4.2,13,4.2z"/>
		</g>
	</g>
	<g id="XMLID_449_" class="st1">
		<g id="XMLID_452_">
			<ellipse id="XMLID_453_" class="ico_pingkunrenkoushuliang_ren_st0" cx="3.4" cy="2.5" rx="1.2" ry="1"/>
		</g>
		<g id="XMLID_450_">
			<path id="XMLID_451_" class="ico_pingkunrenkoushuliang_ren_st0" d="M5.7,4.2c0,0,0-0.1,0-0.1V4c0-0.2-0.1-0.3-0.3-0.3c0,0,0,0-0.1,0c0,0-0.1,0-0.1,0L3.3,3.6
				L1.5,3.7c-0.1,0-0.1,0-0.2,0c0,0,0,0,0,0C1.1,3.7,1,3.9,1,4v4.3c0,0.2,0.1,0.3,0.3,0.3c0.2,0,0.3-0.1,0.3-0.3V4.7h0.1
				c0,1,0,3.3,0,3.5c0,0,0,0.1,0,0.1v4.6c0,0.2,0.2,0.4,0.5,0.4c0.3,0,0.5-0.2,0.5-0.4V8.7c0.3,0,0.7,0,1,0v4.1
				c0,0.2,0.2,0.4,0.5,0.4c0.3,0,0.5-0.2,0.5-0.4V8c0,0,0,0,0-0.1c0-0.7,0-2.5,0-3.3H5v3.6c0,0.2,0.1,0.3,0.3,0.3
				c0.2,0,0.3-0.1,0.3-0.3v-4C5.7,4.3,5.7,4.2,5.7,4.2z"/>
		</g>
	</g>
</g>
</svg>
