<?xml version="1.0" encoding="utf-8"?>
<!-- Generator: Adobe Illustrator 19.0.0, SVG Export Plug-In . SVG Version: 6.00 Build 0)  -->
<svg version="1.1" id="图层_1" xmlns="http://www.w3.org/2000/svg" xmlns:xlink="http://www.w3.org/1999/xlink" x="0px" y="0px"
	 viewBox="0 0 14 14" style="enable-background:new 0 0 14 14;" xml:space="preserve">
<style type="text/css">
	.pingkuncun_ge_st0{fill:#25A2EF;}
</style>
<g id="XMLID_20184_">
	<g id="XMLID_20185_" transform="scale(0.1953125, 0.1953125)">
		<path id="XMLID_20186_" class="pingkuncun_ge_st0" d="M27.3,47h6.1v-7.1h-6.1V47L27.3,47z M45.1,47h6.1v-7.1h-6.1V47L45.1,47z M56.2,26.5
			l1.3,9.6v1.8h-1.6v6.8c-0.7,0-1.4,0.2-2,0.6v-7.4h-9.3L39.2,31l-5.4,6.8h-9.3v13.4h11.8V39.9h5.8v11.3h7.5c0,0,0-0.1,0-0.1
			c0-1.9,1.5-3.4,3.4-3.5c0.9-1.3,2.4-2.2,4.1-2.2c1.9,0,3.5,1.1,4.4,2.6c0.1,0,0.2,0,0.2,0c1.9,0,3.5,1.4,3.9,3.1h1.1v2.1H9.9v-2.1
			h3.4l1.2-0.8l0.9-2.1l0.3-1.8L15.6,46c-2.2,0-4.8,0-5.6-2.2c-0.2-0.6-0.7-1-1.6-1.7c-1.8-1.4-2-2.5-2.5-4.5
			c-0.2-0.7-0.3-1.4-0.2-1.8c0.3-1.8-0.1-1.6-0.3-3C4.6,29.8,6.2,25.9,8,24c0.8-0.9,1.3-1,1.8-1.6c0.2-0.2,0.3-0.5,0.9-1.3
			c1.7-1.3,4.2-2.7,7.1-2.7c1.9,0,3.6,0.8,5.1,1.5c1.4,0.8,0.8,0.6,2.6,0.9c2.6,0.4,4.9,2.5,6.1,4.6h-9.5h-1.1L19.6,36v3h1.6v7
			c-0.5-0.1-1.1-0.2-1.6-0.3l-0.6,0l0,0.4l0,1.3l0.5,2.5l1.1,1.4h1.7V37.8h-1.6v-1.8l1.3-9.6C33.3,26.5,32.7,26.5,56.2,26.5z"/>
	</g>
</g>
</svg>
