<?xml version="1.0" encoding="utf-8"?>
<!-- Generator: Adobe Illustrator 19.0.0, SVG Export Plug-In . SVG Version: 6.00 Build 0)  -->
<svg version="1.1" id="图层_1" xmlns="http://www.w3.org/2000/svg" xmlns:xlink="http://www.w3.org/1999/xlink" x="0px" y="0px"
	 viewBox="0 0 14 14" style="enable-background:new 0 0 14 14;" xml:space="preserve">
<style type="text/css">
	.ico_quejishu_st0{fill:#00FFDA;}
</style>
<path id="XMLID_511_" class="ico_quejishu_st0" d="M12.3,3.9c0,0.8-0.3,1.6-0.8,2.2l0.4,0.6c0.9-0.9,1.3-2.2,1.1-3.4c0-0.1-0.1-0.2-0.2-0.3
	c-0.1,0-0.2,0-0.3,0l-2,1.2l0.3,0.6L12.3,3.9z"/>
<path id="XMLID_9_" class="ico_quejishu_st0" d="M9.7,3.5l2.2-1.4C12,2.1,12,2,12,1.9c0-0.1,0-0.2-0.1-0.3C11.3,1,10.5,0.7,9.7,0.7
	C8.9,0.7,8,1,7.3,1.5c-1.6,1-2.3,3-1.7,4.7l-4.1,4.2c-0.5,0.6-0.5,1.5,0,2l0.4,0.4c0.3,0.3,0.6,0.4,1,0.4c0.4,0,0.8-0.2,1-0.4
	l4.4-4.5C8.8,8.1,9.3,8,9.9,8c0.6,0,1.2,0.1,1.5,0.2l0,0c0.1,0,0.3,0,0.4-0.1c0.1-0.1,0.1-0.3,0-0.4L9.5,4C9.4,3.8,9.5,3.6,9.7,3.5z
	 M3.3,11.6c-0.2,0.1-0.5,0.1-0.7-0.2c-0.1-0.2-0.1-0.5,0.2-0.7C3,10.7,3.3,10.7,3.4,11C3.6,11.2,3.5,11.5,3.3,11.6z M7.2,5.3
	C7.1,5.3,7,5.2,6.9,5c0-0.2,0.1-0.3,0.2-0.3l1-0.3c0.2,0,0.3,0.1,0.3,0.2c0,0.2-0.1,0.3-0.2,0.3L7.2,5.3C7.3,5.2,7.2,5.3,7.2,5.3z
	 M7.7,6.1C7.6,6.1,7.5,6,7.4,5.9c0-0.2,0.1-0.3,0.2-0.3l1-0.3C8.8,5.2,9,5.3,9,5.5c0,0.2-0.1,0.3-0.2,0.3L7.7,6.1
	C7.8,6.1,7.7,6.1,7.7,6.1z M9.6,6.3c0,0.2-0.1,0.3-0.2,0.3l-1,0.3c0,0,0,0-0.1,0C8.2,6.9,8,6.8,8,6.7c0-0.2,0.1-0.3,0.2-0.3l1-0.3
	C9.4,6,9.5,6.1,9.6,6.3z"/>
</svg>
