<?xml version="1.0" encoding="utf-8"?>
<!-- Generator: Adobe Illustrator 19.0.0, SVG Export Plug-In . SVG Version: 6.00 Build 0)  -->
<svg version="1.1" id="图层_1" xmlns="http://www.w3.org/2000/svg" xmlns:xlink="http://www.w3.org/1999/xlink" x="0px" y="0px"
	 viewBox="0 0 14 14" style="enable-background:new 0 0 14 14;" xml:space="preserve">
<style type="text/css">
	.ico_quelaoli_st0{fill:#59C5EF;}
</style>
<g id="XMLID_1_">
	<g id="XMLID_2_" transform="scale(0.1953125, 0.1953125)">
		<path id="XMLID_3_" class="ico_quelaoli_st0" d="M38.4,9.8c-2.8,0-5.1,2.3-5.1,5.2c0,2.9,2.3,5.2,5.1,5.2c2.8,0,5.1-2.3,5.1-5.2
			C43.5,12.1,41.2,9.8,38.4,9.8z M14.9,11.9c-1.3,0-2.5,0.9-2.9,2.2l-2.3,8.6l-1.7-1.4c-0.2-0.2-0.5-0.3-0.8-0.2
			c-0.4,0.1-0.8,0.4-0.9,0.8c-0.1,0.4,0,0.9,0.4,1.2l2.5,2c0,0.8,0.3,1.6,0.8,2.2c0.2,0.2,0.4,0.4,0.7,0.5l-1.4,1.4
			c-0.6,0.6-0.9,1.4-0.9,2.3c0,0,0.1,12.5,0.1,13.3L5.3,57.6c-0.3,1.1,0,2.3,0.8,3.2c0.8,0.8,2,1.2,3.1,0.8c1.1-0.3,1.9-1.2,2.2-2.4
			l3.4-13c0.1-0.3,0.1-0.6,0.1-0.8c0,0,0-6.2-0.1-9.9l7.5,9.4L16,57.2c-0.8,1.6-0.2,3.5,1.4,4.3c1.6,0.8,3.5,0.2,4.3-1.4l7.3-14.3
			c0.6-1.1,0.4-2.5-0.4-3.5l-1.3-1.7c0.1-0.2,0.2-0.3,0.3-0.5l0,0L42.1,52l-13.6,9.6h38.1L48.9,47.2l-5.1,3.3L28.6,38l6.9-13.1
			c0.5-1,0.5-2.2-0.1-3.1l-5.6-8.5c-0.6-0.8-1.5-1.3-2.5-1.3L14.9,11.9L14.9,11.9z M17.1,17.5l3.9,0l-4.9,5L17.1,17.5z M27.6,28.3
			l-3.7,5.9l-2.5-2L27.6,28.3z"/>
	</g>
</g>
</svg>
