<?xml version="1.0" encoding="utf-8"?>
<!-- Generator: Adobe Illustrator 19.0.0, SVG Export Plug-In . SVG Version: 6.00 Build 0)  -->
<svg version="1.1" id="图层_1" xmlns="http://www.w3.org/2000/svg" xmlns:xlink="http://www.w3.org/1999/xlink" x="0px" y="0px"
	 viewBox="0 0 14 14" style="enable-background:new 0 0 14 14;" xml:space="preserve">
<style type="text/css">
	.ico_queshui_st0{fill:#06F99B;}
</style>
<g id="XMLID_513_">
	<g id="XMLID_514_" transform="scale(0.1953125, 0.1953125)">
		<path id="XMLID_515_" class="ico_queshui_st0" d="M33.6,5.6c-0.1-0.7-1.2-0.7-1.3,0C29.5,28.4,15,33.1,15,48.9c0,9.8,8.2,17.7,17.9,17.7
			c9.7,0,17.9-7.9,17.9-17.7C50.8,33.1,36.4,28.4,33.6,5.6z M36.6,62.4c-1,0-1.8-0.8-1.8-1.8s0.8-1.8,1.8-1.8c2.5,0,4.6-2,4.6-4.6
			c0-1,0.8-1.8,1.8-1.8c0.8,0,1.4,0.5,1.7,1.1c0.1,0.2,0.1,0.5,0.1,0.7C44.9,58.7,41.2,62.4,36.6,62.4z"/>
	</g>
</g>
</svg>
