<?xml version="1.0" encoding="utf-8"?>
<!-- Generator: Adobe Illustrator 19.0.0, SVG Export Plug-In . SVG Version: 6.00 Build 0)  -->
<svg version="1.1" id="图层_1" xmlns="http://www.w3.org/2000/svg" xmlns:xlink="http://www.w3.org/1999/xlink" x="0px" y="0px"
	 viewBox="0 0 14 14" style="enable-background:new 0 0 14 14;" xml:space="preserve">
<style type="text/css">
	.ico_quetudi_st0{fill:#9BDB09;}
</style>
<g id="XMLID_518_">
	<g id="XMLID_519_" transform="scale(0.1953125, 0.1953125)">
		<path id="XMLID_520_" class="ico_quetudi_st0" d="M47.2,5.9c0,0-16.8,7.1-10.1,19.3c5.4-1.2,10.9-2.1,16.2-2.6C35.5,16.4,47.2,5.9,47.2,5.9z
			 M23.4,41.8c5.9-2.2,12.2-4,18.7-5.3C20.1,15.6,43.4,5.9,43.4,5.9S12.5,14.3,23.4,41.8z M33.8,7.8c0,0-35,14-27.6,44.1
			c1.2,4.2,2.6,8.8,4.3,13.9c5.1-2.3,11-4.7,17.6-7c-2.6-5.2-4.8-9.8-6.7-13.8C9.1,20.1,33.8,7.8,33.8,7.8z M46,35.9
			c6.3-1,12.5-1.5,18.3-1.7c-3.5-3.7-6.9-7-10-10c-5.4,0.5-11,1.3-16.6,2.5C40.2,29.5,43,32.5,46,35.9z M24.8,43.8
			c2.2,4,4.7,8.6,7.5,13.8c6.9-2.2,14.1-3.8,21.1-4.8c0.1-0.8,0.2-1.6,0.4-2.3c-3.4-4.5-6.7-8.4-9.7-11.9
			C37.5,39.8,31,41.6,24.8,43.8z M66.6,36.8c-0.1-0.1-0.2-0.3-0.3-0.4c-5.8,0.1-12,0.5-18.5,1.5c2.3,2.7,4.9,5.6,7.5,8.8
			C57.4,42,61.5,38.4,66.6,36.8z"/>
	</g>
</g>
</svg>
