<?xml version="1.0" encoding="utf-8"?>
<!-- Generator: Adobe Illustrator 19.0.0, SVG Export Plug-In . SVG Version: 6.00 Build 0)  -->
<svg version="1.1" id="图层_1" xmlns="http://www.w3.org/2000/svg" xmlns:xlink="http://www.w3.org/1999/xlink" x="0px" y="0px"
	 viewBox="0 0 14 14" style="enable-background:new 0 0 14 14;" xml:space="preserve">
<style type="text/css">
	.ico_quezijin_st0{fill:#14B526;}
</style>
<g id="XMLID_4_">
	<g id="XMLID_5_" transform="scale(0.1953125, 0.1953125)">
		<path id="XMLID_6_" class="ico_quezijin_st0" d="M35.8,5.1c-17,0-30.7,13.8-30.7,30.7s13.7,30.7,30.7,30.7c17,0,30.7-13.8,30.7-30.7
			S52.8,5.1,35.8,5.1L35.8,5.1z M50.8,34.7v6h-12v2.9h12v6h-12v6.1h-6v-6.1h-12v-6h12v-2.9h-12v-6h11.2L19.6,22.2l4.2-4.2l12,12
			l12-12l4.2,4.2L39.6,34.7H50.8L50.8,34.7z"/>
	</g>
</g>
</svg>
