<?xml version="1.0" encoding="utf-8"?>
<!-- Generator: Adobe Illustrator 19.0.0, SVG Export Plug-In . SVG Version: 6.00 Build 0)  -->
<svg version="1.1" id="图层_1" xmlns="http://www.w3.org/2000/svg" xmlns:xlink="http://www.w3.org/1999/xlink" x="0px" y="0px"
	 viewBox="0 0 14 14" style="enable-background:new 0 0 14 14;" xml:space="preserve">
<style type="text/css">
	.ico_renjunzhipeishouru_yuan_st0{fill:#FFE91D;}
</style>
<path id="XMLID_12842_" class="ico_renjunzhipeishouru_yuan_st0" d="M12.9,9.5c-0.1-0.8-0.4-1.3-0.8-2.1c-0.4-0.6-1.1-1.3-1.6-1.7C10,5.4,9.6,5.1,9.2,4.8h0.1
	l0.3,0c0.3,0,0.6,0,0.8,0c0.3,0,1.1-0.2,1.4-0.7c0.2-0.3,0-0.5,0-0.6c-0.2-0.2-0.6-0.1-1,0c0.2-0.1,0.3-0.3,0.3-0.4c0,0,0,0,0-0.1
	c0-0.1,0-0.1-0.1-0.2l0-0.1l-0.1,0C10.4,2.6,9.6,3,9.1,3.5c0.5-0.7,1.5-1.6,1.7-2.4C10.2,1.1,9.5,1,9,0.7C8.4,0.4,8.2,0.1,7.5,0.2
	C7,0.3,6.4,0.6,5.8,0.7C5.2,0.9,4.6,0.6,4,0.7C3.9,1.8,5.2,2.9,5.6,3.9C5.4,3.9,5.2,4,5.1,4l0,0C5,4.1,4.9,4.1,4.8,4.2L4.7,4.3
	l0.1,0.1c0.1,0.1,0.3,0.2,0.5,0.3C4.8,5,4.2,5.3,3.8,5.7C3.3,6.1,2.5,7,2,7.6c-0.7,0.9-1.2,2.1-1,3.3c0.4,2.2,3,2.9,5,2.9
	c2.2,0,5.1,0.3,6.5-1.5C13.2,11.6,13,10.5,12.9,9.5z M11.5,3.8c0,0,0,0,0,0.1c-0.1,0.3-0.7,0.4-1.1,0.5c-0.2,0-0.5,0-0.8,0l-0.3,0
	V4.4C10.1,4,11.3,3.6,11.5,3.8z M10.7,3.1c-0.2,0.2-0.7,0.5-1,0.7C9.5,3.8,9.3,3.9,9.2,4l0,0C9.6,3.5,10.2,3.1,10.7,3.1z M9.3,9.3
	V10H7.8v0.4V11V12H6.6V11v-0.6V10H5.6V9.3h1.1V9.1L5.1,6.8h1.3l0.8,1.3L8,6.8h1.3L7.8,9.1v0.2H9.3z"/>
</svg>
