<?xml version="1.0" encoding="utf-8"?>
<!-- Generator: Adobe Illustrator 19.0.0, SVG Export Plug-In . SVG Version: 6.00 Build 0)  -->
<svg version="1.1" id="图层_1" xmlns="http://www.w3.org/2000/svg" xmlns:xlink="http://www.w3.org/1999/xlink" x="0px" y="0px"
	 viewBox="0 0 14 14" style="enable-background:new 0 0 14 14;" xml:space="preserve">
<style type="text/css">
	.ico_shehuibangfu_st0{fill:#25A2EF;}
</style>
<path id="XMLID_360_" class="ico_shehuibangfu_st0" d="M6.5,12.7C6.2,12.3,6,12,5.7,11.6c2-2.1,3.9-4.3,5.9-6.4c-0.2-0.3-0.7-0.3-0.9,0
	C10.3,5.5,10,5.8,9.7,6.1C9.7,6.2,9.6,6.2,9.5,6.3c-0.1-0.1-0.1-0.1,0-0.2c0.5-0.6,1.1-1.2,1.6-1.8c0.1-0.1,0.2-0.2,0.3-0.3
	c0.1-0.1,0.1-0.1,0-0.2c-0.2-0.2-0.6-0.2-0.9,0.1C10,4.4,9.6,4.9,9.2,5.3C9.1,5.4,9,5.5,8.9,5.6c0,0-0.1,0-0.2,0.1
	c0-0.1,0-0.1,0-0.2c0.6-0.7,1.2-1.3,1.7-2c0.1-0.1,0.2-0.2,0.2-0.3c-0.2-0.3-0.7-0.3-1,0C9.4,3.7,9,4.1,8.6,4.5
	C8.5,4.7,8.3,4.9,8.2,5c0,0-0.1,0-0.2,0.1C8,5,8,5,8,4.9C8.6,4.3,9.2,3.7,9.8,3c0,0,0,0,0.1-0.1C9.6,2.8,9.4,2.7,9.1,2.8
	C9,2.9,8.8,3,8.7,3.1C8,3.8,7.3,4.5,6.6,5.3C6.5,5.4,6.2,5.6,6,5.7C5.5,6,5.2,5.8,4.8,5.4C4.6,5.3,4.4,5.1,4.2,4.9
	C3.6,4.4,2.9,4.6,2.4,5.3c0.3,0,0.5,0.1,0.7,0.3C3.3,5.8,3.4,6,3.5,6.2C3.6,6.8,3.8,7.4,4.1,8c0.5,1,1.4,1.6,2.4,1.9
	c0.1,0,0.2,0.1,0.3,0.1c-0.3,0.3-0.5,0.6-0.7,0.9c-0.1,0.2-0.3,0.3-0.4,0.5c-0.1,0.1-0.1,0.1-0.2,0C4.4,10,3.3,8.7,2.2,7.4
	C1.9,7.1,1.7,6.8,1.4,6.5c-0.6-0.7-0.6-1.6,0-2.4c0.4-0.5,0.9-0.9,1.5-1c0.4-0.1,0.9,0,1.2,0.2C4.5,3.5,4.9,3.8,5.3,4
	C5.6,4.2,5.8,4.2,6,3.9c0.3-0.3,0.6-0.6,0.9-0.9c0.4-0.4,0.8-0.8,1.2-1.2c0.4-0.4,1-0.5,1.6-0.5c1.2,0.2,2.1,0.7,2.8,1.7
	c0.6,1,0.6,2,0,3c-0.3,0.5-0.8,1-1.3,1.4c-0.8,0.9-1.6,1.7-2.4,2.6c-0.6,0.7-1.3,1.4-1.9,2.1C6.8,12.3,6.7,12.5,6.5,12.7z"/>
</svg>
