<?xml version="1.0" encoding="utf-8"?>
<!-- Generator: Adobe Illustrator 19.0.0, SVG Export Plug-In . SVG Version: 6.00 Build 0)  -->
<svg version="1.1" id="图层_1" xmlns="http://www.w3.org/2000/svg" xmlns:xlink="http://www.w3.org/1999/xlink" x="0px" y="0px"
	 viewBox="0 0 14 14" style="enable-background:new 0 0 14 14;" xml:space="preserve">
<style type="text/css">
	.ico_shehuijiuzhu_st0{fill:#9BDB09;}
</style>
<g id="XMLID_352_">
	<g id="XMLID_353_" transform="scale(0.1953125, 0.1953125)">
		<path id="XMLID_354_" class="ico_shehuijiuzhu_st0" d="M36.7,18.9c1.5-1.9,3.1-3.5,4.8-5.1c1.5-1.2,3.1-2.3,4.9-3.3s3.8-1.4,5.8-1.3
			c2.8,0.2,5.2,0.9,7.1,2s3.4,2.5,4.5,4.2c1.1,1.7,1.9,3.6,2.3,5.8s0.5,4.4,0.4,6.7s-0.5,4.4-1.2,6.5c-0.7,2.1-1.5,4-2.5,5.8
			s-2.1,3.5-3.2,5c-1.2,1.5-2.4,2.9-3.5,4.1c-1.8,1.9-3.7,3.6-5.7,5.2c-2,1.6-3.9,3-5.7,4.2c-1.8,1.2-3.4,2.1-4.9,2.8
			c-1.5,0.7-2.6,1-3.4,1c-0.9,0-2.1-0.3-3.5-1c-1.4-0.7-3-1.6-4.6-2.8c-1.7-1.2-3.5-2.5-5.3-4.1c-1.9-1.6-3.7-3.3-5.5-5.1
			c-1.2-1.1-2.5-2.5-3.8-4s-2.7-3.2-3.9-4.9c-1.2-1.8-2.2-3.7-3.1-5.8c-0.9-2.1-1.3-4.3-1.4-6.7s0.2-4.6,0.8-6.7s1.5-3.9,2.7-5.6
			s2.6-3,4.4-4.1s3.7-1.9,5.9-2.4c1.1-0.2,2.2-0.3,3.3-0.1s2.2,0.4,3.2,0.8c1,0.4,2,0.9,3,1.5c1,0.6,1.9,1.2,2.7,1.8
			C33,15,34.9,16.8,36.7,18.9z"/>
	</g>
</g>
</svg>
