<?xml version="1.0" encoding="utf-8"?>
<!-- Generator: Adobe Illustrator 19.0.0, SVG Export Plug-In . SVG Version: 6.00 Build 0)  -->
<svg version="1.1" id="图层_1" xmlns="http://www.w3.org/2000/svg" xmlns:xlink="http://www.w3.org/1999/xlink" x="0px" y="0px"
	 viewBox="0 0 14 14" style="enable-background:new 0 0 14 14;" xml:space="preserve">
<style type="text/css">
	.shejipinkunrenkouxianshu_st0{fill:#FBB03B;}
</style>
<g id="XMLID_429_">
	<g id="XMLID_430_" transform="scale(0.1953125, 0.1953125)">
		<path id="XMLID_431_" class="shejipinkunrenkouxianshu_st0" d="M62.2,60L8.1,60c0,0-5.8,0.3-1.2-4.1c1.2-0.7,2.6-1.3,4.2-1.8c-0.4-0.9-0.6-1.9-0.6-2.9
			c0-3.8,2.8-6.8,6.3-6.8c3.5,0,6.3,3.1,6.3,6.8c0,0.1,0,0.2,0,0.2c0.4-0.1,0.8-0.1,1.2-0.2V15.8c0-2.3,1.7-4.2,4.1-4.2h24.3
			c2.3,0,4,1.8,4,4.2v37.4c2.8,0.8,5.3,1.7,7.2,2.8C70.8,60.6,62.2,60,62.2,60L62.2,60z M37.9,21c0-1.2-0.9-2.1-2.1-2.1h-4.2
			c-1.2,0-2.1,0.9-2.1,2.1v5.7c0,1.2,1.4,2.1,2.6,2.1h3.6c1.2,0,2.1-0.9,2.1-2.1V21L37.9,21z M37.9,36.1c0-1.2-0.9-2.1-2.1-2.1h-4.2
			c-1.2,0-2.1,0.9-2.1,2.1v5.7c0,1.2,1.4,2.1,2.6,2.1h3.6c1.2,0,2.1-0.9,2.1-2.1V36.1L37.9,36.1z M51.5,21c0-1.2-0.9-2.1-2.1-2.1
			h-4.2c-1.2,0-2.1,0.9-2.1,2.1v5.7c0,1.2,1.4,2.1,2.6,2.1h3.6c1.2,0,2.1-0.9,2.1-2.1V21L51.5,21z M51.5,36.1c0-1.2-0.9-2.1-2.1-2.1
			h-4.2c-1.2,0-2.1,0.9-2.1,2.1v5.7c0,1.2,1.4,2.1,2.6,2.1h3.6c1.2,0,2.1-0.9,2.1-2.1V36.1L51.5,36.1z"/>
	</g>
</g>
</svg>
