<?xml version="1.0" encoding="utf-8"?>
<!-- Generator: Adobe Illustrator 19.0.0, SVG Export Plug-In . SVG Version: 6.00 Build 0)  -->
<svg version="1.1" id="图层_1" xmlns="http://www.w3.org/2000/svg" xmlns:xlink="http://www.w3.org/1999/xlink" x="0px" y="0px"
	 viewBox="0 0 14 14" style="enable-background:new 0 0 14 14;" xml:space="preserve">
<style type="text/css">
	.ico_weitongguangbodianshi_st0{fill:#9BDB09;}
</style>
<g id="XMLID_352_">
	<g id="XMLID_353_" transform="scale(0.1953125, 0.1953125)">
		<path id="XMLID_354_" class="ico_weitongguangbodianshi_st0" d="M26.6,23.1l-8.2-7.6c-0.6-0.6-0.7-1.5-0.1-2.1c0.6-0.6,1.6-0.6,2.2-0.1l9.6,8.9L44.4,7
			c0.5-0.5,1.4-0.4,2,0.1c0.6,0.6,0.7,1.4,0.3,1.9l-13.3,14H26.6z M62.1,22.6c-9.2,0-18.4,0-27.5,0c-0.6,0-1.1,0-1.7,0
			c-8,0-15.9,0-23.9,0c-2.7,0-3.9,1.2-3.9,3.9c0,11.5,0,23.1,0,34.6C5.1,63.7,6.4,65,9,65c8,0,16,0,23.9,0c0.6,0,1.1,0,1.7,0
			c9.2,0,18.4,0,27.6,0c3,0,4.4-1.3,4.4-3.9c0-11.5,0-23.1,0-34.6C66.6,23.8,65.1,22.6,62.1,22.6z M50.2,51.9c0,4.5-3.7,8.1-8.2,8.1
			H18.4c-4.5,0-8.2-3.6-8.2-8.1V35.7c0-4.5,3.7-8.1,8.2-8.1H42c4.5,0,8.2,3.6,8.2,8.1V51.9z M58.7,51.7c-1.5,0-2.7-1.2-2.7-2.7
			c0-1.5,1.2-2.7,2.7-2.7c1.5,0,2.7,1.2,2.7,2.7C61.4,50.5,60.2,51.7,58.7,51.7z M58.7,41.2c-1.5,0-2.7-1.2-2.7-2.7
			c0-1.5,1.2-2.7,2.7-2.7c1.5,0,2.7,1.2,2.7,2.7C61.4,40,60.2,41.2,58.7,41.2z"/>
	</g>
</g>
</svg>
