<?xml version="1.0" encoding="utf-8"?>
<!-- Generator: Adobe Illustrator 19.0.0, SVG Export Plug-In . SVG Version: 6.00 Build 0)  -->
<svg version="1.1" id="图层_1" xmlns="http://www.w3.org/2000/svg" xmlns:xlink="http://www.w3.org/1999/xlink" x="0px" y="0px"
	 viewBox="0 0 14 14" style="enable-background:new 0 0 14 14;" xml:space="preserve">
<style type="text/css">
	.ico_weitongkeche_st0{fill:#FFE91D;}
</style>
<g id="XMLID_352_">
	<g id="XMLID_353_" transform="scale(0.1953125, 0.1953125)">
		<path id="XMLID_354_" class="ico_weitongkeche_st0" d="M62.2,11.7V7.3l-4.4,0V2.9H13.9v4.4H9.5v4.4H5.1V60h4.4v8.8h8.8V60h35.1v8.8h8.8V60h4.4V11.7
			H62.2L62.2,11.7z M9.5,46.8h4.4v8.8H9.5V46.8L9.5,46.8z M18.3,55.6v-4.4h35.1v4.4H18.3L18.3,55.6z M62.2,55.6h-4.4v-8.8h4.4
			L62.2,55.6L62.2,55.6z M53.4,46.8H18.3v-4.4h35.1V46.8L53.4,46.8z M62.2,33.6H9.5V16.1h52.7V33.6L62.2,33.6z"/>
	</g>
</g>
</svg>
