<?xml version="1.0" encoding="utf-8"?>
<!-- Generator: Adobe Illustrator 19.0.0, SVG Export Plug-In . SVG Version: 6.00 Build 0)  -->
<svg version="1.1" id="图层_1" xmlns="http://www.w3.org/2000/svg" xmlns:xlink="http://www.w3.org/1999/xlink" x="0px" y="0px"
	 viewBox="0 0 14 14" style="enable-background:new 0 0 14 14;" xml:space="preserve">
<style type="text/css">
	.ico_weitongshui_st0{fill:#F15A24;}
</style>
<path id="XMLID_352_" class="ico_weitongshui_st0" d="M2.3,10.4C2.3,10.7,2,11,1.7,11C1.3,11,1,10.7,1,10.4V9.5v0v0V6.9v0v-1c0-0.4,0.3-0.7,0.7-0.7
	c0.4,0,0.7,0.3,0.7,0.7v0.3H5V5.5C5,5.3,5.1,5.1,5.3,5V4.4C5.1,4.3,4.9,4.2,4.7,4c0,0-0.1-0.1-0.1-0.1C4.6,4.1,4.5,4.2,4.4,4.2l0,0
	C4.1,4.6,3.7,4.7,3.3,4.7c-0.4,0-0.8-0.2-1.1-0.5l0,0C1.8,3.9,1.7,3.5,1.7,3.1c0-0.4,0.2-0.8,0.5-1.1c0.3-0.3,0.7-0.5,1.1-0.5
	c0.4,0,0.9,0.2,1.1,0.5v0v0c0.1,0.1,0.2,0.2,0.2,0.3c0,0,0.1-0.1,0.1-0.1h0l0,0C5,1.9,5.3,1.8,5.7,1.8c0.4,0,0.7,0.1,0.9,0.4l0,0
	l0.1,0.1C6.8,2.2,6.8,2.1,6.9,2v0c0.3-0.3,0.7-0.5,1.1-0.5c0.4,0,0.8,0.2,1.1,0.5l0,0c0.3,0.3,0.5,0.7,0.5,1.1
	c0,0.4-0.2,0.9-0.5,1.1C8.9,4.5,8.5,4.7,8.1,4.7c-0.5,0-0.8-0.2-1.1-0.5C6.8,4.2,6.8,4.1,6.7,3.9C6.7,4,6.6,4,6.6,4v0l0,0
	C6.4,4.2,6.3,4.3,6.1,4.4V5c0.2,0.1,0.3,0.3,0.3,0.5v0.7h1.9c1.3,0,2.5,0.5,3.4,1.4l0,0C12.5,8.6,13,9.7,13,11v0.8
	c0,0.4-0.3,0.7-0.7,0.7h0H11H9.7c-0.4,0-0.7-0.3-0.7-0.7v0V11c0-0.2-0.1-0.5-0.3-0.6c-0.2-0.2-0.4-0.3-0.6-0.3H2.3V10.4L2.3,10.4z"
	/>
</svg>
