<?xml version="1.0" encoding="utf-8"?>
<!-- Generator: Adobe Illustrator 19.0.0, SVG Export Plug-In . SVG Version: 6.00 Build 0)  -->
<svg version="1.1" id="图层_1" xmlns="http://www.w3.org/2000/svg" xmlns:xlink="http://www.w3.org/1999/xlink" x="0px" y="0px"
	 viewBox="0 0 14 14" style="enable-background:new 0 0 14 14;" xml:space="preserve">
<style type="text/css">
	.ico_weitongkuandai_st0{fill:#FBB03B;}
</style>
<g id="XMLID_352_">
	<g id="XMLID_353_" transform="scale(0.1953125, 0.1953125)">
		<path id="XMLID_354_" class="ico_weitongkuandai_st0" d="M35.8,50.1c-2.4,0-4.3,2.3-4.3,5.2c0,2.9,1.9,5.2,4.3,5.2c2.4,0,4.3-2.3,4.3-5.2
			C40.1,52.4,38.2,50.1,35.8,50.1L35.8,50.1z M20.3,44.2l3,3.7c3.4-3.5,7.7-5.6,12.5-5.6c4.8,0,9.2,2.1,12.5,5.6l3-3.7
			c-4.2-4.4-9.6-7.1-15.6-7.1C29.9,37.1,24.4,39.8,20.3,44.2L20.3,44.2z M12.7,35.1l3,3.7c5.3-5.8,12.4-9.4,20.1-9.4
			c7.7,0,14.8,3.6,20.1,9.4l3-3.7c-6.1-6.7-14.2-10.9-23.1-10.9C26.9,24.2,18.8,28.4,12.7,35.1L12.7,35.1z M35.8,11.3
			C24,11.3,13.2,16.9,5.1,26l3,3.7c7.3-8.1,17-13.2,27.7-13.2c10.7,0,20.4,5,27.7,13.2l3-3.7C58.5,16.9,47.7,11.3,35.8,11.3
			L35.8,11.3z"/>
	</g>
</g>
</svg>
