<?xml version="1.0" encoding="utf-8"?>
<!-- Generator: Adobe Illustrator 19.0.0, SVG Export Plug-In . SVG Version: 6.00 Build 0)  -->
<svg version="1.1" id="图层_1" xmlns="http://www.w3.org/2000/svg" xmlns:xlink="http://www.w3.org/1999/xlink" x="0px" y="0px"
	 viewBox="0 0 14 14" style="enable-background:new 0 0 14 14;" xml:space="preserve">
<style type="text/css">
	.ico_yangzhisheshifuchi_st0{fill:#25A2EF;}
</style>
<path id="XMLID_24_" class="ico_yangzhisheshifuchi_st0" d="M13,6.2V4h-0.8c0-1.6-1.1-2.9-1.1-2.9S10,2.3,9.8,3.8h0v0.1c0,0.1,0,0.1,0,0.2H8.3
	c0-1.6-1.1-2.9-1.1-2.9S6.1,2.3,5.9,3.8h0v0.1c0,0.1,0,0.1,0,0.2H4.3c0-1.6-1.1-2.9-1.1-2.9S2.1,2.3,2,3.8h0v0.1C2,3.9,2,4,2,4H1
	v2.2h1V9H1v2.2h1v1.6h2.3v-1.6h1.6v1.6h2.3v-1.6h1.6v1.6h2.3v-1.6H13V9h-0.8V6.2H13z M4.3,9V6.2h1.6V9H4.3z M9.8,9H8.2V6.2h1.6V9z"
	/>
</svg>
