<?xml version="1.0" encoding="utf-8"?>
<!-- Generator: Adobe Illustrator 19.0.0, SVG Export Plug-In . SVG Version: 6.00 Build 0)  -->
<svg version="1.1" id="图层_1" xmlns="http://www.w3.org/2000/svg" xmlns:xlink="http://www.w3.org/1999/xlink" x="0px" y="0px"
	 viewBox="0 0 14 14" style="enable-background:new 0 0 14 14;" xml:space="preserve">
<style type="text/css">
	.ico_yangzhifuchi_st0{fill:#00FFDA;}
</style>
<g id="XMLID_2_">
	<path id="XMLID_353_" class="ico_yangzhifuchi_st0" d="M4.6,8c0-0.5-0.3-0.9-0.5-1C4.3,6.3,4,5.7,3.5,5.4C3.3,5.3,3.1,5.2,2.9,5.2
		c-0.2,0-0.4,0.1-0.6,0.2c-0.1,0-0.3,0-0.4,0c-0.2,0-0.5,0-0.7,0.2C0.8,5.8,0.7,6,0.8,6.2c0.1,0.1,0.2,0.2,0.4,0.2
		c0.1,0,0.2-0.1,0.3-0.2c0,0,0-0.1,0.1-0.1c0,0,0,0,0,0c-0.5,0.9-0.7,2,0,2.4c0.2,0.1,0.4,0.2,0.6,0.2c0.5,0,1.1-0.3,1.4-0.8
		c0,0,0,0,0,0C3.6,8.4,4,8.6,4.2,8.6C4.4,8.6,4.6,8.4,4.6,8"/>
	<path id="XMLID_352_" class="ico_yangzhifuchi_st0" d="M12.2,5c0-0.1,0-0.2-0.1-0.3c-0.2-0.3-0.5-0.5-0.8-0.6l-0.2,0l0-0.2c0-0.3-0.2-0.6-0.6-0.8
		C10.3,2.9,10,2.9,9.8,2.9c-0.1,0-0.3,0-0.4,0.1L9.2,3L9.1,2.8C8.8,2.6,8.4,2.4,8,2.4c-0.4,0-0.7,0.1-0.9,0.4L7,2.9l-0.1,0
		c-0.1,0-0.2,0-0.4,0C6.2,2.8,6,2.8,5.8,2.9C5.5,3.1,5.3,3.4,5.2,3.7l0,0.2L5,3.9C4.6,4,4.3,4.2,4.1,4.5c0,0,0,0.1-0.1,0.1
		c0,0,0.1,0,0.1,0.1c0.3,0.2,0.6,0.5,0.7,0.9C5,5.9,5.1,6.2,5.1,6.6c0.2,0.3,0.5,0.7,0.5,1.2c0,0.3-0.1,0.6-0.2,0.7
		C5.1,8.7,4.9,8.8,4.7,8.8C4.9,8.9,5.1,9,5.3,9.1v2.1c0,0.2,0.2,0.4,0.4,0.4c0.2,0,0.4-0.2,0.4-0.4V9.5c0.2,0.2,0.4,0.3,0.6,0.4
		C6.8,10,6.9,10,7.1,10c0.3,0,0.5-0.1,0.7-0.2l0.1-0.1l0.1,0.1C8.3,9.9,8.6,10,8.9,10c0.1,0,0.2,0,0.3,0C9.6,9.9,9.9,9.7,10,9.4
		l0.1-0.2l0,0v2c0,0.2,0.2,0.4,0.4,0.4c0.2,0,0.4-0.2,0.4-0.4V9.1c0.2-0.1,0.3-0.2,0.4-0.3c0.3-0.2,0.4-0.6,0.3-0.9l0-0.2l0.2-0.1
		c0.3-0.2,0.6-0.5,0.6-0.8c0.1-0.3-0.1-0.6-0.3-0.9L12,5.8l0.1-0.2c0,0,0,0,0,0c0.3,0.4,0.7,1,1,0.6C13.5,5.7,12.7,5.2,12.2,5"/>
</g>
</svg>
