<?xml version="1.0" encoding="utf-8"?>
<!-- Generator: Adobe Illustrator 19.0.0, SVG Export Plug-In . SVG Version: 6.00 Build 0)  -->
<svg version="1.1" id="图层_1" xmlns="http://www.w3.org/2000/svg" xmlns:xlink="http://www.w3.org/1999/xlink" x="0px" y="0px"
	 viewBox="0 0 14 14" style="enable-background:new 0 0 14 14;" xml:space="preserve">
<style type="text/css">
	.ico_yiliaojiuzhu_st0{fill:#14B526;}
</style>
<g id="XMLID_352_">
	<g id="XMLID_353_" transform="scale(0.1953125, 0.1953125)">
		<path id="XMLID_354_" class="ico_yiliaojiuzhu_st0" d="M58.9,18.6H47.4v-7.7c0-2.1-1.7-3.8-3.8-3.8H28.2c-2.1,0-3.8,1.7-3.8,3.8v7.7H12.8
			c-4.2,0-7.7,3.5-7.7,7.7V57c0,4.2,3.5,7.7,7.7,7.7h46.1c4.2,0,7.7-3.5,7.7-7.7V26.2C66.6,22,63.1,18.6,58.9,18.6 M28.2,10.9h15.4
			v7.7H28.2V10.9z M51.2,45.4H39.7V57H32l0-11.5H20.5v-7.7H32V26.2h7.7v11.5h11.5L51.2,45.4z"/>
	</g>
</g>
</svg>
