<?xml version="1.0" encoding="utf-8"?>
<!-- Generator: Adobe Illustrator 19.0.0, SVG Export Plug-In . SVG Version: 6.00 Build 0)  -->
<svg version="1.1" id="图层_1" xmlns="http://www.w3.org/2000/svg" xmlns:xlink="http://www.w3.org/1999/xlink" x="0px" y="0px"
	 viewBox="0 0 14 14" style="enable-background:new 0 0 14 14;" xml:space="preserve">
<style type="text/css">
	.ico_yiminbanqian_st0{fill:#00FFDA;}
</style>
<path id="XMLID_408_" class="ico_yiminbanqian_st0" d="M13,9.4L12.8,7c0-0.2-0.2-0.3-0.4-0.3l-1.4,0.1c0-0.1-0.1-0.1-0.2-0.1c0,0-0.1-0.1-0.1-0.1
	c0,0-0.2-0.2-0.2-0.2c0,0,0,0,0,0c0,0,0,0,0,0c-0.1,0-0.1,0-0.2-0.1c0,0,0-0.1,0-0.1C10.2,6,10,5.8,9.9,5.6C9.8,5.4,9.6,5.2,9.5,4.9
	C9.4,4.7,9.3,4.5,9.1,4.3c0,0,0,0,0,0c0,0,0,0,0,0c0,0-0.1,0-0.1-0.1c0-0.1-0.1-0.1-0.1-0.2c0,0,0,0,0,0c0,0,0,0,0,0
	C8.8,3.9,8.7,3.8,8.7,3.8c0,0,0-0.1-0.1-0.1c0,0,0,0,0,0c0,0,0-0.1,0-0.1c0,0-0.1-0.1-0.1-0.1c0,0,0-0.1,0-0.1
	c0.1,0,0.2-0.1,0.2-0.2C8.8,3,9,3,9,2.9c0-0.1,0-0.1,0-0.1c0,0,0.1-0.1,0-0.1c0,0,0-0.1,0-0.1c0,0,0.1,0,0.1-0.1
	c0-0.1-0.1-0.1-0.1-0.2c0-0.1,0-0.1,0-0.2C9,1.9,9,1.8,8.9,1.7c0,0,0,0,0,0c0,0-0.1-0.1-0.1-0.1c0-0.1,0-0.1-0.1-0.1
	c-0.1,0-0.1,0-0.2-0.1c-0.1,0-0.1,0-0.1,0C8.3,1.4,8.2,1.4,8.2,1.4c-0.1,0-0.1,0-0.1,0c0,0-0.1,0-0.1,0c-0.1,0-0.1,0.1-0.2,0.1
	c0,0-0.1,0.1-0.1,0.1c0,0,0,0,0,0c-0.1,0-0.1,0.1-0.1,0.1c0,0,0,0-0.1,0.1c-0.1,0.1,0,0.3,0,0.4c0.1,0,0.1,0.2,0.1,0.2
	c0,0.1,0,0.1,0,0.2c0,0-0.1-0.1-0.1,0c0,0.1,0,0.1,0,0.2c0,0-0.1,0-0.1,0C7.2,2.8,7.1,2.8,7.1,2.9C7,3,7,3.2,7,3.4c0,0,0,0,0,0
	c0,0,0,0,0,0c0,0,0,0,0,0c0,0-0.1-0.3-0.3-0.2C6.7,3.2,6.6,3.3,6.6,3.3S6.5,3.4,6.2,3.9c0,0,0,0.1,0,0.1c0,0,0,0,0,0l0,0.1
	c0,0,0,0,0,0c0,0.1-0.1,0.1-0.1,0.2l0,0C6,4.4,5.9,4.4,5.8,4.5l0,0l0,0C5.6,4.8,5.6,5.1,5.6,5.1c0,0.1,0.2,0.2,0.2,0.2
	c0,0.1-0.1,0.3-0.1,0.4C5.7,6,6.6,5.7,6.6,5.7c0.2,0,0.3,0,0.4,0C7,5.8,7,6,7,6.1c0,0.1,0,0.1,0,0.2c0,0.1,0,0.4,0,0.4
	C6.9,7,6.8,7.2,6.7,7.4c0.1,0.1,0.1,0.1,0.2,0.2c0,0,0,0.1,0,0.1L6.6,8L5.8,7C5.6,6.9,5.4,6.9,5.3,7l0,0L5.2,7L5,7.2L4.9,7.2
	L3.1,8.8l0.1,0.1l-1.8,1.6l0.1,0.1l-0.3,0.3C1,10.9,1,11.1,1.1,11.3l0.9,1c0,0,0,0,0,0c0,0.1,0,0.2,0,0.3c0.1,0.1,0.3,0.1,0.4,0
	c0.1-0.1,0.2-0.3,0.1-0.4l4-3.7c0.1-0.1,0.2-0.2,0.1-0.4L6.8,8c0,0,0,0,0,0c0,0,0,0.1-0.1,0.1c0,0,0,0,0,0.1c0,0,0,0,0,0.1
	c0,0.1-0.1,0.3-0.1,0.4c0,0.2-0.1,0.4-0.1,0.5c0,0.2-0.1,0.3-0.2,0.5c-0.1,0.1-0.1,0.3-0.2,0.5C6.1,10.3,6,10.4,6,10.6
	c0,0.1-0.1,0.2-0.1,0.2c0,0.1,0,0.2,0,0.3c0,0,0,0.1-0.1,0.1c-0.1,0.2-0.1,0.4-0.1,0.6c0,0,0,0.1,0.1,0.1c0,0,0,0.1-0.1,0.1
	c0,0.1,0,0.1,0,0.2c0.1,0.2,0.4,0.2,0.6,0.2c0.1,0,0-0.1,0.1,0c0,0,0.1,0,0.2,0.1c0.1,0,0.1,0.1,0.2,0.1c0,0,0.1,0,0.1,0
	c0.3,0,0.5-0.1,0.6-0.2c0-0.1,0-0.2-0.1-0.2c-0.2,0-0.4,0-0.6,0c0-0.1-0.1-0.1-0.1-0.2c0.1-0.1,0-0.2,0.1-0.3c0-0.1,0.1-0.1,0.1-0.2
	c0-0.1,0-0.2,0.1-0.2C6.9,11,7,10.9,7,10.9c0-0.1,0-0.2,0-0.3c0-0.1,0-0.1,0-0.2c0-0.1,0.1-0.2,0.1-0.2c0,0,0,0,0-0.1
	C7.2,10,7.3,9.9,7.4,9.7c0.1-0.2,0.2-0.3,0.2-0.5c0,0,0,0,0,0c0,0,0-0.1,0.1-0.1c0,0,0-0.1,0.1-0.1c0,0,0,0,0,0c0-0.1,0-0.1,0.1-0.2
	c0-0.2,0.1-0.3,0.1-0.5C8,8.2,8,8.1,8.1,8c0.1,0,0.1,0,0.2,0c0,0,0,0,0,0c0,0,0,0,0,0c0,0,0,0,0,0c0.1,0.1,0.2,0.2,0.3,0.3l0.1,1.3
	c0,0,0,0.1,0,0.1c0,0,0,0.1,0,0.2c0,0.1,0.1,0.2,0.2,0.2c0,0,0.1,0,0.1,0c0,0,0,0.1,0,0.1c0,0.1,0,0.1,0,0.2c0,0.1,0,0.3,0,0.4
	c0,0.1,0,0.3,0,0.4c0,0.2,0,0.4,0,0.5c0,0.1,0,0.1,0,0.2c0,0,0.1,0,0.1,0.1c0,0.1,0,0.3,0,0.4c0.2,0.1,0.4,0.1,0.6,0.1
	c0-0.1,0.1,0,0.1-0.1c0.1,0,0.3,0.1,0.4,0.1c0.1,0,0.2,0,0.3,0c0.3,0,0.5-0.2,0.7-0.3c0-0.1,0-0.2-0.1-0.2c-0.1,0-0.2-0.1-0.4-0.1
	c0,0-0.1,0-0.1,0c0,0-0.1,0-0.1,0c-0.1,0-0.1-0.1-0.2-0.1c0,0,0-0.1,0-0.1c-0.1,0-0.1,0-0.1,0.1c0,0-0.1-0.1-0.1,0
	c0-0.1,0.1-0.1,0.1-0.1c0-0.1-0.1-0.2-0.1-0.3c0-0.1,0-0.2,0-0.4c0-0.2,0-0.4,0-0.6c0-0.2,0-0.3,0-0.5l2.6-0.2
	C12.9,9.8,13,9.6,13,9.4z M6.1,4.3C6.1,4.3,6.1,4.3,6.1,4.3L6.1,4.3C6.1,4.3,6.1,4.3,6.1,4.3z M7.3,3C7.3,3,7.3,3,7.3,3
	C7.3,3,7.3,3,7.3,3c0,0.1,0,0.1-0.1,0.2C7.2,3.1,7.2,3.1,7.3,3C7.2,3,7.3,3,7.3,3z M7.1,3C7.1,3,7.1,3,7.1,3c0,0,0,0.1,0,0.2
	c0,0,0,0,0,0C7.1,3.2,7.1,3.1,7.1,3z M10.6,6.9c0,0,0-0.1,0-0.1C10.6,6.8,10.7,6.8,10.6,6.9L10.6,6.9z M10.3,6.8
	C10.4,6.8,10.4,6.8,10.3,6.8c0,0,0.1,0.1,0.1,0.1l-0.2,0C10.3,6.8,10.3,6.8,10.3,6.8z M10.5,6.8c0,0,0,0.1,0,0.1l0,0
	C10.5,6.9,10.5,6.8,10.5,6.8z M10.8,6.8C10.8,6.8,10.8,6.8,10.8,6.8c0,0.1,0,0.1,0.1,0.1l0,0C10.8,6.8,10.8,6.8,10.8,6.8z M9,5.4
	c0,0,0,0.1,0.1,0.2c0,0,0,0,0.1,0.1c0.1,0.1,0.1,0.2,0.1,0.2c0.2,0.3,0.5,0.6,0.7,0.8c0.1,0,0.2,0,0.3,0c0,0,0.1,0,0.1,0
	c0,0-0.1,0.1-0.2,0.2L9.3,7c0,0-0.1-0.1-0.1-0.1C9.2,6.8,9.1,6.7,9.1,6.7C9,6.7,9,6.6,9,6.6C8.9,6.5,9,6.4,9,6.3C9,6.2,9,6.2,9,6
	C9,6,9,5.9,9,5.9c0-0.1,0-0.2,0-0.2c0-0.1-0.1-0.3-0.1-0.4C8.8,5.3,8.9,5.3,9,5.4z M10.9,6.9C10.9,6.9,10.9,6.9,10.9,6.9
	C10.9,6.9,10.9,6.9,10.9,6.9L10.9,6.9z"/>
</svg>
