<?xml version="1.0" encoding="utf-8"?>
<!-- Generator: Adobe Illustrator 19.0.0, SVG Export Plug-In . SVG Version: 6.00 Build 0)  -->
<svg version="1.1" id="图层_1" xmlns="http://www.w3.org/2000/svg" xmlns:xlink="http://www.w3.org/1999/xlink" x="0px" y="0px"
	 viewBox="0 0 14 14" style="enable-background:new 0 0 14 14;" xml:space="preserve">
<style type="text/css">
	.ico_yincan_st0{fill:#ED3845;}
</style>
<g id="XMLID_544_">
	<g id="XMLID_545_" transform="scale(0.1953125, 0.1953125)">
		<path id="XMLID_546_" class="ico_yincan_st0" d="M27.5,14.3c3.3,0,5.9-2.7,5.9-5.9c0-3.2-2.6-5.9-5.9-5.9c-3.3,0-5.9,2.6-5.9,5.9
			C21.6,11.6,24.2,14.3,27.5,14.3z M62.1,54.3L52,37.1c-0.6-1-1.7-1.6-2.8-1.7H34.4l-0.1-5.2H45c1.5-0.1,2.7-1.2,2.7-2.7
			c0-1.5-1.2-2.6-2.7-2.7H34l-0.4-4.3c-0.2-3.1-2.9-5.5-6-5.3c-3.2,0.2-5.5,2.9-5.4,6l1,17.8c0.3,3.1,2.9,5.3,6,5.3h19.1l7.8,13.4
			c0.9,1.5,3.1,2.1,4.7,1.2C62.5,58,63,56,62.1,54.3z M31.3,64.5c-9.7,0-17.5-7.8-17.5-17.4c0-5.3,2.4-10,6.1-13.2l-0.3-5.4
			C13.3,32.4,9.1,39.2,9.1,47.1c0,12.1,9.9,22,22.2,22c9,0,16.7-5.4,20.2-13.1l-3.1-5.4C46.7,58.6,39.7,64.5,31.3,64.5z"/>
	</g>
</g>
</svg>
