<?xml version="1.0" encoding="utf-8"?>
<!-- Generator: Adobe Illustrator 19.0.0, SVG Export Plug-In . SVG Version: 6.00 Build 0)  -->
<svg version="1.1" id="图层_1" xmlns="http://www.w3.org/2000/svg" xmlns:xlink="http://www.w3.org/1999/xlink" x="0px" y="0px"
	 viewBox="0 0 14 14" style="enable-background:new 0 0 14 14;" xml:space="preserve">
<style type="text/css">
	.ico_yinhun_st0{fill:#FBB03B;}
</style>
<g id="XMLID_533_">
	<g id="XMLID_534_" transform="scale(0.1953125, 0.1953125)">
		<path id="XMLID_535_" class="ico_yinhun_st0" d="M47.3,8.2c0,3.3,2.6,5.9,5.9,5.9c3.3,0,5.9-2.6,5.9-5.9c0-3.3-2.6-5.9-5.9-5.9
			C50,2.3,47.3,4.9,47.3,8.2z M66.6,35.4L66,26.3c0-0.4-0.2-0.9-0.4-1.2l-2.9-4.9v-2.3c0-1.1-0.9-2-2-2H48.3c-1.1,0-2,0.9-2,2v3.6
			l-7.1,5.1l-7.1-5.4v-2.8c0-1.1-0.9-2-2-2H18.4c-1.1,0-2,0.9-2,2v3.4L5.5,27.5C5.2,27.7,5,28,5.2,28.4L7,31.8
			c0.2,0.3,0.5,0.5,0.9,0.3l8.5-4.5v5V39l-3.1,7.2h3.1v15.4c0,0.4,0.3,0.6,0.6,0.6H21c0.4,0,0.6-0.3,0.6-0.6V46.2h2.6h2.1v15.4
			c0,0.4,0.3,0.6,0.6,0.6h3.9c0.4,0,0.6-0.3,0.6-0.6V46.2h3.6l-3.1-7.2V27.7l5.1,3.9l0.9,1.3c0.2,0.3,0.6,0.4,0.9,0.1l0,0l0.5,0.4
			c0.3,0.2,0.7,0.2,0.9-0.1l2-2.7l3.8-2.7v12v7.6v21.3c0,0.4,0.3,0.6,0.6,0.6h4c0.4,0,0.6-0.3,0.6-0.6V49.5h6.1v19.2
			c0,0.4,0.3,0.6,0.6,0.6h3.9c0.4,0,0.6-0.3,0.6-0.6V39.8c0-0.1,0-0.2-0.1-0.3v-1.4c0.3,0.1,0.7,0.2,1.1,0.2c0,0,0.1,0,0.2,0
			C65.5,38.2,66.6,36.9,66.6,35.4z M18.7,10.2c0,3.1,2.5,5.5,5.5,5.5c3.1,0,5.5-2.5,5.5-5.5s-2.5-5.5-5.5-5.5
			C21.2,4.7,18.7,7.2,18.7,10.2z"/>
	</g>
</g>
</svg>
