<?xml version="1.0" encoding="utf-8"?>
<!-- Generator: Adobe Illustrator 19.0.0, SVG Export Plug-In . SVG Version: 6.00 Build 0)  -->
<svg version="1.1" id="图层_1" xmlns="http://www.w3.org/2000/svg" xmlns:xlink="http://www.w3.org/1999/xlink" x="0px" y="0px"
	 viewBox="0 0 14 14" style="enable-background:new 0 0 14 14;" xml:space="preserve">
<style type="text/css">
	.ico_yinxue_st0{fill:#FFE91D;}
</style>
<g id="XMLID_527_">
	<g id="XMLID_528_" transform="scale(0.1953125, 0.1953125)">
		<path id="XMLID_529_" class="ico_yinxue_st0" d="M63.2,57.2l0-13.7c0-4.2-4.6-4.5-4.6-4.5V27.4c0-9.2-4.7-13.1-9.3-13.5
			c-1-6.5-6.7-11.4-13.4-11.4c-6.7,0-12.3,4.9-13.4,11.2c-10.7,2.4-9.3,13.8-9.3,13.8l0,11.4c-5.1,0.1-4.8,4.9-4.8,4.9v13.2
			c0,4.1,4.8,4.5,4.8,4.5c0,8.1,9,7.5,9,7.5h27.3c9.6,0,9-7.4,9-7.4C63.7,60.7,63.2,57.2,63.2,57.2L63.2,57.2z M35.9,7.6
			c3.8,0,7.1,2.6,8.1,6.1H27.8C28.8,10.2,32.1,7.6,35.9,7.6L35.9,7.6z M49,50.4h-1.4v2.2c0,1.2-1,2.2-2.2,2.2s-2.2-1-2.2-2.2v-2.2
			H22.6c-1.2,0-2.2-1-2.2-2.2c0-1.2,1-2.2,2.2-2.2H49c1.2,0,2.2,1,2.2,2.2C51.2,49.4,50.2,50.4,49,50.4L49,50.4z"/>
	</g>
</g>
</svg>
