<?xml version="1.0" encoding="utf-8"?>
<!-- Generator: Adobe Illustrator 19.0.0, SVG Export Plug-In . SVG Version: 6.00 Build 0)  -->
<svg version="1.1" id="图层_1" xmlns="http://www.w3.org/2000/svg" xmlns:xlink="http://www.w3.org/1999/xlink" x="0px" y="0px"
	 viewBox="0 0 14 14" style="enable-background:new 0 0 14 14;" xml:space="preserve">
<style type="text/css">
	.ico_yinzai_st0{fill:#F15A24;}
</style>
<g id="XMLID_539_">
	<g id="XMLID_540_" transform="scale(0.1953125, 0.1953125)">
		<path id="XMLID_541_" class="ico_yinzai_st0" d="M50.6,57.2c0,0.9,0.1,1.5,0.1,1.5H40.2v-7.5c-0.4,0.1-0.8,0.2-1.2,0.2
			c-0.9,0-2.1-0.4-2.7-1.1c-0.8-1,5.1-18.1,5.1-18.1c0.8-1.8,1.8-3.5,3.3-4.8c0.3-0.3,0.7-0.5,1.1-0.7L33.2,14.1l-27,27
			c-1.4,1.4-1.4,3.6,0,5c1.4,1.4,3.6,1.4,5,0l1-1v17.1h42.1v-8C53.7,54.5,50.6,56.3,50.6,57.2z M41.4,54.6c2,0.6,2.3,0,1.1-1.8
			c-2-3-3.7-8.5,0.2-16.7c4.2-8.9,10-12.4,11.1-12.6c0.8-0.2-5.7,9.9-6.1,15.2c-0.1,2.4,3.6,4.2,5.8,2.8c2.9-1.8,2.7-7.5,2.6-8.4
			c-0.1-1,5.5,12.7-1.3,20.2c-2.9,2.4-1.2,2.4,0.8,1.9c4-0.9,9.9-3.6,10.8-11.5c0.9-11.1-9.3-26.7-15.7-33.3
			c-1.5-1.5-2.2-0.9-2.1,1.2c0.1,3.2-0.9,8.1-6.1,13.8c-8.1,8.9-9.9,10.7-11,18.1C31.6,47.3,31.5,51.4,41.4,54.6z"/>
	</g>
</g>
</svg>
