<?xml version="1.0" encoding="utf-8"?>
<!-- Generator: Adobe Illustrator 19.0.0, SVG Export Plug-In . SVG Version: 6.00 Build 0)  -->
<svg version="1.1" id="图层_1" xmlns="http://www.w3.org/2000/svg" xmlns:xlink="http://www.w3.org/1999/xlink" x="0px" y="0px"
	 viewBox="0 0 14 14" style="enable-background:new 0 0 14 14;" xml:space="preserve">
<style type="text/css">
	.ico_zhifuxinxi_st0{fill:#00FFDA;}
</style>
<path id="XMLID_352_" class="ico_zhifuxinxi_st0" d="M12.5,1.3H4.2C4,1.3,3.8,1.6,3.8,1.9V6C2.2,6.3,1,7.7,1,9.3c0,1.9,1.5,3.4,3.4,3.4
	c0.8,0,1.5-0.3,2.1-0.8h6c0.3,0,0.5-0.3,0.5-0.6V1.9C13,1.6,12.8,1.3,12.5,1.3z M5.2,2.7h3.5v0.7H5.2V2.7z M4.4,5.9
	c-0.1,0-0.1,0-0.2,0C4.3,5.9,4.3,5.9,4.4,5.9z M4.1,6C4.1,6,4.1,6,4.1,6C4.1,6,4.1,6,4.1,6z M3.9,6C3.9,6,3.9,6,3.9,6
	C3.9,6,3.9,6,3.9,6z M5.5,11.1c-0.2,0.2-0.5,0.3-0.8,0.3V12H4.1v-0.5c-0.4,0-0.6-0.1-0.8-0.3c-0.3-0.2-0.4-0.5-0.4-0.8l0.9-0.2
	c0,0.3,0.3,0.6,0.7,0.6c0.3,0,0.6-0.1,0.6-0.5C5,10,4.7,9.8,4.4,9.7c-0.3-0.1-1-0.3-1.2-0.5C3,9,3,8.7,3,8.4c0-0.3,0.1-0.6,0.3-0.7
	c0.2-0.2,0.4-0.3,0.8-0.3V6.9h0.6v0.5c0.3,0,0.6,0.1,0.8,0.3c0.2,0.2,0.4,0.5,0.4,0.7L4.9,8.5C4.9,8.3,4.6,8,4.4,8
	C4.1,8,3.9,8.1,3.9,8.5c0,0.3,0.2,0.3,0.5,0.4c0.6,0.2,1,0.4,1.2,0.6c0.2,0.2,0.3,0.5,0.3,0.8C5.9,10.7,5.8,10.9,5.5,11.1z M4.6,5.9
	C4.6,5.9,4.6,6,4.6,5.9C4.6,6,4.6,5.9,4.6,5.9z M4.7,6C4.7,6,4.8,6,4.7,6C4.8,6,4.7,6,4.7,6z M4.9,6C4.9,6,4.9,6,4.9,6
	C4.9,6,4.9,6,4.9,6z M5.1,6C5.1,6,5.1,6,5.1,6C5.1,6,5.1,6,5.1,6z M5.2,6.1C5.2,6.1,5.3,6.1,5.2,6.1C5.3,6.1,5.2,6.1,5.2,6.1z
	 M5.4,6.1C5.4,6.1,5.4,6.1,5.4,6.1C5.4,6.1,5.4,6.1,5.4,6.1z M5.6,6.2C5.6,6.2,5.6,6.2,5.6,6.2C5.6,6.2,5.6,6.2,5.6,6.2z M5.7,6.2
	C5.7,6.2,5.7,6.2,5.7,6.2C5.7,6.2,5.7,6.2,5.7,6.2z M5.9,6.3C5.9,6.3,5.9,6.3,5.9,6.3C5.9,6.3,5.9,6.3,5.9,6.3z M6,6.4
	C6,6.4,6,6.4,6,6.4C6,6.4,6,6.4,6,6.4z M6.2,6.5C6.2,6.5,6.2,6.5,6.2,6.5C6.2,6.5,6.2,6.5,6.2,6.5z M6.3,6.5
	C6.3,6.5,6.3,6.5,6.3,6.5C6.3,6.5,6.3,6.5,6.3,6.5z M6.4,6.6L6.4,6.6L6.4,6.6z M6.7,11.7C6.7,11.7,6.7,11.7,6.7,11.7
	C6.7,11.7,6.7,11.7,6.7,11.7z M6.6,11.9C6.6,11.8,6.6,11.8,6.6,11.9C6.6,11.8,6.6,11.8,6.6,11.9z M11.6,9.8H7.7l0,0
	c0-0.2,0-0.3,0-0.5c0-0.1,0-0.1,0-0.2h3.8V9.8z M6.8,11.6C6.8,11.6,6.8,11.6,6.8,11.6C6.8,11.6,6.8,11.6,6.8,11.6z M6.9,11.5
	C6.9,11.5,6.9,11.5,6.9,11.5C6.9,11.5,6.9,11.5,6.9,11.5z M7,11.4C7,11.4,7,11.4,7,11.4C7,11.4,7,11.4,7,11.4z M7.1,11.3
	C7.1,11.3,7.1,11.3,7.1,11.3C7.1,11.3,7.1,11.3,7.1,11.3z M7.2,11.2C7.2,11.1,7.2,11.1,7.2,11.2C7.2,11.1,7.2,11.1,7.2,11.2z
	 M7.3,11C7.3,11,7.3,11,7.3,11C7.3,11,7.3,11,7.3,11z M7.4,10.9C7.4,10.9,7.4,10.9,7.4,10.9C7.4,10.9,7.4,10.9,7.4,10.9z M7.4,10.7
	C7.4,10.7,7.5,10.7,7.4,10.7C7.5,10.7,7.4,10.7,7.4,10.7z M7.5,10.6C7.5,10.6,7.5,10.6,7.5,10.6C7.5,10.6,7.5,10.6,7.5,10.6z
	 M7.6,10.4C7.6,10.4,7.6,10.4,7.6,10.4C7.6,10.4,7.6,10.4,7.6,10.4z M7.6,10.3C7.6,10.3,7.6,10.3,7.6,10.3
	C7.6,10.3,7.6,10.3,7.6,10.3z M7.7,10.1C7.7,10.1,7.7,10.1,7.7,10.1C7.7,10.1,7.7,10.1,7.7,10.1z M7.7,10C7.7,10,7.7,10,7.7,10
	C7.7,10,7.7,10,7.7,10z M11.6,7.7H7.3l0,0C7.2,7.4,7,7.2,6.8,7l0,0h4.8V7.7z M7.7,8.9C7.7,8.9,7.7,8.9,7.7,8.9
	C7.7,8.9,7.7,8.9,7.7,8.9z M7.7,8.7C7.7,8.7,7.7,8.7,7.7,8.7C7.7,8.7,7.7,8.7,7.7,8.7z M7.7,8.6C7.7,8.5,7.7,8.5,7.7,8.6
	C7.7,8.5,7.7,8.5,7.7,8.6z M7.6,8.4C7.6,8.4,7.6,8.4,7.6,8.4C7.6,8.4,7.6,8.4,7.6,8.4z M11.6,5.6H5.2V4.8h6.4V5.6z"/>
</svg>
