<?xml version="1.0" encoding="utf-8"?>
<!-- Generator: Adobe Illustrator 19.0.0, SVG Export Plug-In . SVG Version: 6.00 Build 0)  -->
<svg version="1.1" id="图层_1" xmlns="http://www.w3.org/2000/svg" xmlns:xlink="http://www.w3.org/1999/xlink" x="0px" y="0px"
	 viewBox="0 0 14 14" style="enable-background:new 0 0 14 14;" xml:space="preserve">
<style type="text/css">
	.ico_zhongzhisheshifuchi_st0{fill:#FFE91D;}
</style>
<g id="XMLID_1_">
	<path id="XMLID_9_" class="ico_zhongzhisheshifuchi_st0" d="M10.5,6.1c-1.4,0-2.5,1.1-2.5,2.5c0,1.4,1.1,2.5,2.5,2.5S13,10,13,8.6C13,7.2,11.9,6.1,10.5,6.1
		z M10.5,10.5c-1,0-1.9-0.8-1.9-1.9s0.8-1.9,1.9-1.9s1.9,0.8,1.9,1.9S11.5,10.5,10.5,10.5z"/>
	<path id="XMLID_5_" class="ico_zhongzhisheshifuchi_st0" d="M10.1,5.9L9.8,3.5L9.2,2.9L6.3,2.9L5.7,3.6l-0.2,2c0,0-0.4,0-0.9,0V4.1H4.4
		C4.4,3.8,4.2,3.4,3.6,3.4l0,0.2c0,0,0.4,0,0.5,0.4H4v1.5C3.2,5.7,2.3,5.8,2,6.1c0,0-0.4,0.7-0.3,1.4c0.3-0.3,0.7-0.4,1.1-0.4
		c0.9,0,1.6,0.6,1.8,1.5H5v0.3c0,0.2,0.2,0.4,0.5,0.4h1.3c0.3,0,0.5-0.2,0.5-0.4V8.6h0.4c0,0,0-0.1,0-0.1C7.7,7.1,8.8,6,10.1,5.9z
		 M7.6,5.6l-1.4,0l0.1-1.8l0.4-0.5h0.9V5.6z M8,3.3h0.8v2.3H8V3.3z"/>
	<path id="XMLID_2_" class="ico_zhongzhisheshifuchi_st0" d="M2.8,7.3C1.8,7.3,1,8.1,1,9.1s0.8,1.8,1.8,1.8c1,0,1.8-0.8,1.8-1.8S3.8,7.3,2.8,7.3z M2.8,10.4
		c-0.7,0-1.2-0.6-1.2-1.2c0-0.7,0.6-1.2,1.2-1.2c0.7,0,1.2,0.6,1.2,1.2C4.1,9.8,3.5,10.4,2.8,10.4z"/>
</g>
</svg>
