<?xml version="1.0" encoding="utf-8"?>
<!-- Generator: Adobe Illustrator 19.0.0, SVG Export Plug-In . SVG Version: 6.00 Build 0)  -->
<svg version="1.1" id="图层_1" xmlns="http://www.w3.org/2000/svg" xmlns:xlink="http://www.w3.org/1999/xlink" x="0px" y="0px"
	 viewBox="0 0 14 14" style="enable-background:new 0 0 14 14;" xml:space="preserve">
<style type="text/css">
	.ico_zhongzhifuchi_st0{fill:#FBB03B;}
</style>
<g id="XMLID_1_">
	<path id="XMLID_19_" class="ico_zhongzhifuchi_st0" d="M13.2,3.7c-0.1-0.1-0.2-0.1-0.4,0c0,0,0,0-0.1,0C12.6,3.7,12,4,11.3,4.4
		C11,4.6,10.5,5.1,9.9,5.6C9.9,5.5,9.8,5.3,9.7,5.1C9.2,3.8,8.5,2.8,7.6,2C6.8,1.3,5.9,1,5.1,1.3C4.4,1.6,3.9,2.4,3.8,3.6
		C3.7,4.7,4,6,4.5,7.3c0,0.1,0.1,0.1,0.1,0.2c-0.6,0-1.1,0-1.4,0.1C2.3,7.6,1.8,7.8,1.6,7.9c0,0,0,0-0.1,0c0,0,0,0-0.1,0
		C1.3,8,1.2,8.1,1.3,8.2c0,0.1,0,0.2,0.3,0.3c0,0,0,0,0.1,0c0.2,0,0.8,0.1,1.3,0.4c0,0,0,0,0,0c0.8,0.3,1.7,0.8,2.4,1.4c0,0,0,0,0,0
		c0.5,0.4,0.9,0.8,1.2,1.2c0.2,0.2,0.4,0.4,0.6,0.6c0,0,0,0,0,0c0.2,0.2,0.5,0.5,0.9,0.6c1.5,0.5,3.1-0.6,3.3-2.1c0,0,0,0,0,0
		c0-0.3,0-0.6,0-0.9c0-0.5,0-1.1,0.1-1.7c0,0,0,0,0,0C11.7,7,12,6.1,12.4,5.3c0,0,0,0,0,0c0.3-0.6,0.6-1,0.7-1.2c0,0,0-0.1,0.1-0.1
		C13.3,3.9,13.2,3.7,13.2,3.7z M5,7C4.8,6.6,4.7,6.3,4.6,5.9C4.7,5.9,4.9,6,5,5.9l0.3-0.1c0.2-0.1,0.3-0.3,0.2-0.5l0,0
		C5.4,5.1,5.2,5,5,5.1L4.7,5.2c-0.1,0-0.2,0.1-0.2,0.2c0-0.1,0-0.2,0-0.2c0.1,0,0.1,0,0.2,0L5,5c0.2-0.1,0.3-0.3,0.2-0.5l0,0
		C5.1,4.3,4.9,4.2,4.7,4.3L4.4,4.4l0,0c0,0,0-0.1,0-0.1c0,0,0,0,0.1,0l0.3-0.1C4.9,4.1,5,3.9,4.9,3.7l0,0C4.8,3.5,4.6,3.4,4.4,3.5
		l0,0c0,0,0,0,0-0.1l0.2-0.1C4.8,3.3,4.8,3.1,4.8,3l0,0c0-0.1-0.1-0.2-0.2-0.2c0-0.1,0.1-0.2,0.1-0.3c0,0,0-0.1,0.1-0.1
		C4.8,2.5,5,2.5,5.1,2.5l0.2-0.1c0.1-0.1,0.2-0.2,0.1-0.3l0,0c0-0.1-0.1-0.1-0.2-0.1c0,0,0.1,0,0.1-0.1c0,0,0.1,0,0.1,0
		c0,0.1-0.1,0.1,0,0.2l0,0c0.1,0.1,0.2,0.2,0.3,0.1l0.2-0.1c0.1,0,0.2-0.2,0.1-0.3c0,0,0.1,0,0.1,0c0.1,0,0.2,0.1,0.3,0.1
		c0,0.1,0,0.2,0,0.2l0,0c0.1,0.2,0.2,0.2,0.4,0.2l0.2-0.1c0,0,0,0,0,0C6.9,2.4,6.9,2.6,6.9,2.8l0,0C7,3,7.2,3.1,7.4,3l0.3-0.1
		c0,0,0,0,0,0c0,0,0.1,0.1,0.1,0.1L7.5,3.1C7.3,3.2,7.2,3.4,7.3,3.6l0,0c0.1,0.2,0.3,0.3,0.5,0.2l0.3-0.1c0.1,0,0.1-0.1,0.2-0.1
		c0,0.1,0.1,0.1,0.1,0.2c-0.1,0-0.2,0-0.2,0L7.9,3.9C7.7,4,7.6,4.2,7.6,4.4l0,0c0.1,0.2,0.3,0.3,0.5,0.2l0.3-0.1
		c0.1-0.1,0.2-0.2,0.2-0.3C8.9,4.6,9,4.9,9.2,5.3c0.1,0.3,0.2,0.5,0.3,0.8l0,0c0,0,0,0,0,0c-0.1-0.1-0.2-0.1-0.4,0L8.8,6.3
		C8.6,6.3,8.5,6.6,8.6,6.8l0,0C8.7,6.9,8.8,7,8.9,7C8.9,7.1,8.8,7.2,8.8,7.3c0,0.1-0.1,0.1-0.1,0.2c-0.1-0.1-0.2-0.1-0.3,0L8.1,7.5
		C7.9,7.6,7.8,7.8,7.8,8l0,0c0.1,0.2,0.3,0.3,0.5,0.2l0,0c0,0.1-0.1,0.2-0.1,0.3C8.1,8.5,7.9,8.4,7.8,8.3c0-0.1,0-0.1,0-0.2l0,0
		C7.6,7.9,7.4,7.8,7.2,7.9L7.1,8c0,0-0.1,0-0.1,0c0,0-0.1,0-0.1,0c0,0,0.1,0,0.1,0l0.3-0.1c0.2-0.1,0.3-0.3,0.2-0.5l0,0
		C7.4,7,7.2,7,7,7L6.7,7.1C6.5,7.2,6.4,7.4,6.5,7.6l0,0c0,0.1,0.1,0.1,0.1,0.1c0,0-0.1,0-0.1,0c0,0,0,0,0,0l0,0
		C6.4,7.5,6.2,7.4,6,7.5L5.8,7.6c0,0,0,0,0,0c-0.2,0-0.4-0.1-0.6-0.1C5.1,7.4,5.1,7.2,5,7z M7.6,11.6c-0.2-0.2-0.4-0.4-0.6-0.6
		c-0.4-0.4-0.8-0.8-1.3-1.2C4.9,9.2,4,8.7,3.1,8.3C3,8.3,2.8,8.2,2.7,8.2c0.2,0,0.4-0.1,0.6-0.1c0,0,0,0,0,0C3.8,8,5.3,7.9,6.8,8.5
		c0,0,0,0,0,0C7.4,8.7,7.9,9,8.4,9.4c0.5,0.4,0.8,0.8,1,1.2c0,0,0,0,0,0c0.2,0.4,0.3,0.8,0.2,1.1c-0.1,0.2-0.2,0.3-0.4,0.4
		C8.6,12.3,8.2,12.2,7.6,11.6z M11.9,5c-0.4,0.8-0.8,1.8-0.9,2.8c-0.1,0.6-0.1,1.2-0.1,1.8c0,0.3,0,0.6,0,0.8
		c-0.1,0.6-0.2,1-0.7,1.3c0.1-0.4,0-0.9-0.2-1.5C9.7,9.8,9.3,9.3,8.8,8.9C8.9,8.4,9,8,9.3,7.6c0,0,0,0,0,0c0.7-1.4,1.9-2.3,2.4-2.6
		c0,0,0,0,0,0c0.2-0.1,0.3-0.2,0.5-0.3C12,4.7,12,4.9,11.9,5z"/>
	<path id="XMLID_18_" class="ico_zhongzhifuchi_st0" d="M5.3,6.7l0.3-0.1c0.2-0.1,0.3-0.3,0.2-0.5l0,0C5.7,5.9,5.5,5.8,5.3,5.9L5,6
		C4.8,6.1,4.7,6.3,4.8,6.5l0,0C4.9,6.7,5.1,6.8,5.3,6.7z"/>
	<path id="XMLID_17_" class="ico_zhongzhifuchi_st0" d="M6.1,6.9L6.1,6.9C6,6.7,5.8,6.6,5.6,6.7L5.3,6.8C5.2,6.9,5.1,7.1,5.1,7.3l0,0
		c0.1,0.2,0.3,0.3,0.5,0.2l0.3-0.1C6.1,7.3,6.2,7.1,6.1,6.9z"/>
	<path id="XMLID_16_" class="ico_zhongzhifuchi_st0" d="M6,5.5l0.3-0.1c0.2-0.1,0.3-0.3,0.2-0.5l0,0C6.5,4.7,6.2,4.6,6,4.7L5.8,4.8
		C5.6,4.9,5.5,5.1,5.6,5.3l0,0C5.6,5.5,5.9,5.6,6,5.5z"/>
	<path id="XMLID_15_" class="ico_zhongzhifuchi_st0" d="M6.4,6.3l0.3-0.1c0.2-0.1,0.3-0.3,0.2-0.5l0,0C6.8,5.5,6.6,5.4,6.4,5.5L6.1,5.6
		C5.9,5.6,5.8,5.9,5.9,6.1l0,0C6,6.3,6.2,6.4,6.4,6.3z"/>
	<path id="XMLID_14_" class="ico_zhongzhifuchi_st0" d="M7.2,6.5C7.1,6.3,6.9,6.2,6.7,6.2L6.4,6.4C6.2,6.4,6.1,6.7,6.2,6.9l0,0
		c0.1,0.2,0.3,0.3,0.5,0.2L7,7C7.2,6.9,7.3,6.7,7.2,6.5L7.2,6.5z"/>
	<path id="XMLID_13_" class="ico_zhongzhifuchi_st0" d="M7.1,4.2L6.8,4.3C6.6,4.4,6.5,4.7,6.6,4.8l0,0C6.7,5,6.9,5.1,7.1,5.1l0.3-0.1
		c0.2-0.1,0.3-0.3,0.2-0.5l0,0C7.5,4.3,7.3,4.2,7.1,4.2z"/>
	<path id="XMLID_12_" class="ico_zhongzhifuchi_st0" d="M7.4,5L7.1,5.1C6.9,5.2,6.8,5.4,6.9,5.6l0,0C7,5.8,7.2,5.9,7.4,5.9l0.3-0.1
		C7.9,5.7,8,5.4,7.9,5.2l0,0C7.8,5,7.6,4.9,7.4,5z"/>
	<path id="XMLID_11_" class="ico_zhongzhifuchi_st0" d="M7.7,5.8L7.5,5.9C7.3,6,7.2,6.2,7.2,6.4l0,0c0.1,0.2,0.3,0.3,0.5,0.2L8,6.5
		C8.2,6.4,8.3,6.2,8.2,6l0,0C8.2,5.8,7.9,5.7,7.7,5.8z"/>
	<path id="XMLID_10_" class="ico_zhongzhifuchi_st0" d="M8.1,6.6L7.8,6.7C7.6,6.8,7.5,7,7.6,7.2l0,0c0.1,0.2,0.3,0.3,0.5,0.2l0.3-0.1
		C8.5,7.2,8.6,7,8.6,6.8l0,0C8.5,6.6,8.3,6.5,8.1,6.6z"/>
	<path id="XMLID_9_" class="ico_zhongzhifuchi_st0" d="M5.2,4.5c0.1,0.2,0.3,0.3,0.5,0.2L6,4.6c0.2-0.1,0.3-0.3,0.2-0.5l0,0C6.1,3.9,5.9,3.8,5.7,3.9
		L5.4,4C5.2,4.1,5.2,4.3,5.2,4.5L5.2,4.5z"/>
	<path id="XMLID_8_" class="ico_zhongzhifuchi_st0" d="M6.8,3.4L6.5,3.6C6.3,3.6,6.2,3.9,6.3,4.1l0,0c0.1,0.2,0.3,0.3,0.5,0.2l0.3-0.1
		c0.2-0.1,0.3-0.3,0.2-0.5l0,0C7.2,3.5,7,3.4,6.8,3.4z"/>
	<path id="XMLID_7_" class="ico_zhongzhifuchi_st0" d="M5,3.7C5,3.8,5.3,3.9,5.4,3.9l0.3-0.1C5.9,3.7,6,3.5,5.9,3.3l0,0C5.8,3.1,5.6,3,5.4,3.1L5.2,3.2
		C5,3.3,4.9,3.5,5,3.7L5,3.7z"/>
	<path id="XMLID_6_" class="ico_zhongzhifuchi_st0" d="M6.4,2.7L6.2,2.8C6,2.9,5.9,3.1,6,3.3l0,0C6,3.4,6.2,3.5,6.4,3.5l0.3-0.1C6.9,3.3,7,3.1,6.9,2.9
		l0,0C6.8,2.7,6.6,2.6,6.4,2.7z"/>
	<path id="XMLID_5_" class="ico_zhongzhifuchi_st0" d="M4.8,2.9c0.1,0.2,0.2,0.2,0.4,0.2L5.5,3C5.6,3,5.7,2.8,5.6,2.6l0,0C5.6,2.5,5.4,2.4,5.2,2.4
		L5,2.5C4.8,2.6,4.8,2.8,4.8,2.9L4.8,2.9z"/>
	<path id="XMLID_4_" class="ico_zhongzhifuchi_st0" d="M5.7,2.6c0.1,0.2,0.2,0.2,0.4,0.2l0.2-0.1c0.2-0.1,0.2-0.2,0.2-0.4l0,0C6.4,2.1,6.2,2,6.1,2.1
		L5.8,2.2C5.7,2.3,5.6,2.4,5.7,2.6L5.7,2.6z"/>
	<path id="XMLID_3_" class="ico_zhongzhifuchi_st0" d="M8,5.2C8,5.4,8.3,5.5,8.5,5.4l0.3-0.1C8.9,5.2,9,5,9,4.8l0,0C8.9,4.6,8.6,4.5,8.5,4.6L8.2,4.7
		C8,4.8,7.9,5,8,5.2L8,5.2z"/>
	<path id="XMLID_2_" class="ico_zhongzhifuchi_st0" d="M8.8,5.3L8.5,5.5C8.3,5.5,8.2,5.8,8.3,6l0,0c0.1,0.2,0.3,0.3,0.5,0.2l0.3-0.1
		C9.3,6,9.4,5.8,9.3,5.6l0,0C9.2,5.4,9,5.3,8.8,5.3z"/>
</g>
</svg>
