<?xml version="1.0" encoding="utf-8"?>
<!-- Generator: Adobe Illustrator 19.0.0, SVG Export Plug-In . SVG Version: 6.00 Build 0)  -->
<svg version="1.1" id="图层_1" xmlns="http://www.w3.org/2000/svg" xmlns:xlink="http://www.w3.org/1999/xlink" x="0px" y="0px"
	 viewBox="0 0 14 14" style="enable-background:new 0 0 14 14;" xml:space="preserve">
<style type="text/css">
	.ico_zishenfazhanlibuzu_st0{fill:#2872FF;}
</style>
<g id="XMLID_487_">
	<g id="XMLID_1_" transform="scale(0.1953125, 0.1953125)">
		<path id="XMLID_2_" class="ico_zishenfazhanlibuzu_st0" d="M8.6,58.1l21.5,8.6l3-5.4l-16.5-12L8.6,58.1z M63.5,35.3c1.6,7.3,0.1,14.8,0.1,14.9l2.3,0.5
			c0.1-0.3,1.6-8.1-0.1-15.9c-1.5-7.1-6-15.4-18.6-16.1c-0.3,0.8-0.7,1.6-1.1,2.3C55.6,21.2,61.5,26,63.5,35.3L63.5,35.3z M8.2,50.2
			c0-0.1-1.5-7.6,0.1-14.9c2-9.3,7.9-14.1,17.4-14.3c-0.5-0.7-0.8-1.5-1.1-2.3c-12.6,0.7-17.1,9-18.6,16.1
			c-1.7,7.8-0.1,15.6-0.1,15.9L8.2,50.2L8.2,50.2z M63,58.1L55,49.3l-16.5,12l3,5.4L63,58.1z M35.8,24.3c5.3,0,9.6-4.3,9.6-9.6
			c0-5.3-4.3-9.6-9.6-9.6c-5.3,0-9.6,4.3-9.6,9.6C26.2,20,30.5,24.3,35.8,24.3z M39.5,50.3l-2.2-18.1l1.6-4.7h-6.3l1.6,4.7
			l-2.2,18.1l3.7,3.8L39.5,50.3z M25.8,42l-2.3,0.7l3.3,10.4l3.2,2.4L25.8,42z"/>
	</g>
</g>
</svg>
