<svg version="1.1" id="logo" xmlns="http://www.w3.org/2000/svg" xmlns:xlink="http://www.w3.org/1999/xlink" x="0px" y="0px" width="237.06px" height="230.547px" viewBox="0 0 222 215.4" xml:space="preserve">
	<style type="text/css">
		.logo_st0{fill:#00BEFF;}
		.logo_st1{fill:none;stroke:#1561C0;stroke-miterlimit:10;}
		.logo_st2{fill:#1561C0;}
		.logo_st3{opacity:0.3;}
		.logo_st4{clip-path:url(#XMLID_221_);}
		.logo_st5{fill:none;stroke:#05BCFE;stroke-width:0.2;stroke-miterlimit:10;}
	</style>
	<polygon id="XMLID_99_" class="logo_st0" points="52.8,166.2 59.3,164.4 59.3,146.1 52.8,147.2 "/>
	<polygon id="XMLID_101_" class="logo_st0" points="100.6,165.1 107,163.3 107,146.1 100.6,146.1 "/>
	<path id="XMLID_105_" class="logo_st0" d="M83.6,158.8"/>
	<path id="XMLID_104_" class="logo_st0" d="M77.1,162"/>
	<polyline id="XMLID_103_" class="logo_st0" points="77.2,154.2 77.2,164.8 83.7,164.8 83.7,154.2 "/>
	<polyline id="XMLID_112_" class="logo_st0" points="125.9,118.4 125.9,169.5 133.4,165.6 133.4,118.4 "/>
	<polygon id="XMLID_91_" class="logo_st0" points="83.9,143.7 83.9,118.4 76.9,118.4 76.9,143.7 "/>
	<polygon id="XMLID_85_" class="logo_st0" points="103.3,125.9 52.8,125.9 52.8,119.7 107,119.7 "/>
	<polygon id="XMLID_95_" class="logo_st0" points="103.3,137.2 52.8,137.2 52.8,131 107,131 "/>
	<rect id="XMLID_83_" x="52.8" y="138.5" class="logo_st0" width="54.2" height="6.2"/>
	<polygon id="XMLID_100_" class="logo_st0" points="103.2,152.2 52.8,152.2 52.8,146.1 107,146.1 "/>
	<polyline id="XMLID_111_" class="logo_st0" points="52.8,173.3 80.5,167 80.5,161.5 52.8,167.8 "/>
	<polyline id="XMLID_109_" class="logo_st0" points="107,173.1 80.5,167 80.5,161.5 107,167.5 "/>
	<polygon id="XMLID_82_" class="logo_st0" points="52.8,133.6 59.3,133.6 59.3,119.7 52.8,119.7 "/>
	<polygon id="XMLID_97_" class="logo_st0" points="100.6,131 107,131 107,119.7 100.6,119.7 "/>
	<polygon id="XMLID_81_" class="logo_st0" points="117.2,148.6 123.6,144.7 123.6,134.7 117.2,134.6 "/>
	<polygon id="XMLID_133_" class="logo_st0" points="118.8,173.1 125.9,169.5 125.9,161.6 118.8,164.9 "/>
	<polyline id="XMLID_113_" class="logo_st0" points="144.6,118.4 144.6,173.1 152.1,169.2 152.1,118.4 "/>
	<polygon id="XMLID_110_" class="logo_st0" points="135.9,148.6 142.4,144.7 142.4,134.7 135.9,134.6 "/>
	<polyline id="XMLID_131_" class="logo_st0" points="163.9,118.4 163.9,173.1 171.4,169.1 171.4,118.4 "/>
	<polygon id="XMLID_130_" class="logo_st0" points="155,149.1 161.4,145.2 161.4,135.2 155,135.1 "/>
	<polygon id="XMLID_184_" class="logo_st0" points="106.9,71.1 106.9,49.7 100.8,49.7 100.8,74.8 "/>
	<polygon id="XMLID_180_" class="logo_st0" points="94.7,93.9 52.7,93.9 52.7,87.7 99.5,87.7 "/>
	<polygon id="XMLID_179_" class="logo_st0" points="168.5,104.3 125.3,104.3 125.3,99.2 172.2,99.2 "/>
	<polygon id="XMLID_178_" class="logo_st0" points="168,96.4 134,96.4 134,91.3 171.7,91.3 "/>
	<polygon id="XMLID_177_" class="logo_st0" points="140,55.4 117.1,55.4 117.1,50.8 143.1,50.8 "/>
	<polygon id="XMLID_176_" class="logo_st0" points="140,61.7 117.1,61.7 117.1,57.1 143.1,57.1 "/>
	<polygon id="XMLID_175_" class="logo_st0" points="140,67.9 117.1,67.9 117.1,63.3 143.1,63.3 "/>
	<polygon id="XMLID_174_" class="logo_st0" points="168.6,74.4 117.1,74.4 117.1,69.8 171.8,69.8 "/>
	<polygon id="XMLID_173_" class="logo_st0" points="160.7,81.4 117.1,81.4 117.1,76.8 163.9,76.8 "/>
	<polygon id="XMLID_172_" class="logo_st0" points="168.6,88.4 117.1,88.4 117.1,83.8 171.8,83.8 "/>
	<polygon id="XMLID_171_" class="logo_st0" points="103.2,104.3 52.7,104.3 52.7,98.1 106.9,98.1 "/>
	<rect id="XMLID_162_" x="52.7" y="77.3" class="logo_st0" width="54.2" height="6.2"/>
	<polygon id="XMLID_161_" class="logo_st0" points="84.7,49.7 106.9,49.7 106.9,55 80.8,55 "/>
	<polygon id="XMLID_160_" class="logo_st0" points="87.8,56.5 81.4,60.4 81.4,74.7 87.8,74.7 "/>
	<polygon id="XMLID_159_" class="logo_st0" points="123.5,77 117.1,80.9 117.1,88.3 123.5,88.4 "/>
	<polygon id="XMLID_158_" class="logo_st0" points="131.8,90.7 125.3,90.7 125.3,104.2 131.8,104.2 "/>
	<polygon id="XMLID_154_" class="logo_st0" points="117.1,104.3 123.5,100.4 123.5,90.9 117.1,90.9 "/>
	<polygon id="XMLID_153_" class="logo_st0" points="85.6,69.4 85.6,74.7 100.8,74.8 100.8,69.4 "/>
	<rect id="XMLID_152_" x="125.5" y="49.5" class="logo_st0" width="6.2" height="20.5"/>
	<polygon id="XMLID_151_" class="logo_st0" points="168.6,55.6 145.8,55.6 145.8,51 171.8,51 "/>
	<polygon id="XMLID_150_" class="logo_st0" points="168.6,61.8 145.8,61.8 145.8,57.2 171.8,57.2 "/>
	<polygon id="XMLID_149_" class="logo_st0" points="168.6,68.1 145.8,68.1 145.8,63.5 171.8,63.5 "/>
	<rect id="XMLID_148_" x="154.7" y="49.7" class="logo_st0" width="6.2" height="20.3"/>
	<rect id="XMLID_147_" x="165.6" y="69.9" class="logo_st0" width="6.2" height="13.9"/>
	<rect id="XMLID_146_" x="100.8" y="77.3" class="logo_st0" width="6.2" height="20.8"/>
	<polygon id="XMLID_145_" class="logo_st0" points="59.2,88.2 52.7,88.2 52.7,103.6 59.2,103.6 "/>
	<polygon id="XMLID_143_" class="logo_st0" points="76.1,56.3 52.7,56.3 52.7,51.5 80,51.5 "/>
	<polygon id="XMLID_142_" class="logo_st0" points="76.1,64.6 52.7,64.6 52.7,59.8 80,59.8 "/>
	<polygon id="XMLID_98_" class="logo_st0" points="52.7,51.5 59.7,51.5 60.6,49.6 53.8,49.6 "/>
	<polygon id="XMLID_94_" class="logo_st0" points="60.3,74.4 52.9,74.4 65.1,55.8 72.3,55.8 "/>
	<polygon id="XMLID_6_" class="logo_st0" points="72.9,74.4 80.4,74.4 71.5,60.2 64.3,60.2 "/>
	<path id="XMLID_25197_" class="logo_st1" d="M176.1,2.3h-47.8l-4.8,6H99.1l-4.5-6H44.7L2.3,44.7l0,143.1l28.4,25.6h159.9l29-25.8V44.7
		L176.1,2.3z M208.5,136.3l-6,6l0.3,48.3l-12.3,13.6H31L19.6,191v-49.8l-5.7-3.8V79.3l6.2-5.4l-0.1-31l9.4-11.3l-0.5-6.1l19-18.3
		h27.3l6.5,8.4h59.9l5.4-8.4h26.5l21.4,20v7.1l8.7,8.9v28.5l4.9,7.3V136.3z"/>
	<polygon id="XMLID_25195_" class="logo_st2" points="207.4,2.3 219.6,13.8 219.6,38.2 183.4,2.3 "/>
	<polygon id="XMLID_25193_" class="logo_st2" points="14.5,2.3 2.3,13.8 2.3,38.2 38.6,2.3 "/>
	<polygon id="XMLID_25191_" class="logo_st2" points="219.6,194.2 219.6,207 212.6,213.4 198.4,213.4 "/>
	<polygon id="XMLID_25189_" class="logo_st2" points="2.3,194.5 2.3,207.3 9.3,213.7 23.6,213.7 "/>
	<g id="XMLID_24934_" class="logo_st3">
		<defs>
			<polygon id="XMLID_24935_" class="logo_st3" points="208,136.3 202.1,142.3 202.4,190.6 190.1,204.2 30.5,204.2 19.1,191.1 19.1,141.3 
				13.4,137.5 13.4,79.4 19.6,74 19.5,43 28.9,31.6 28.3,25.5 45.9,8.3 74.6,7.2 81.2,15.6 141,15.6 146.5,7.2 174.8,7.2 194.4,26.1 
				194.4,34.3 203.1,43.2 203.1,71.6 208,78.9 		"/>
		</defs>
		<clipPath id="XMLID_221_">
			<use xlink:href="#XMLID_24935_"  style="overflow:visible;"/>
		</clipPath>
		<g id="XMLID_24936_" class="logo_st4">
			<g id="XMLID_25068_">
				<line id="XMLID_25187_" class="logo_st5" x1="182.6" y1="5.6" x2="382.8" y2="205.8"/>
				<line id="XMLID_25185_" class="logo_st5" x1="178.4" y1="5.6" x2="378.6" y2="205.8"/>
				<line id="XMLID_25183_" class="logo_st5" x1="174.2" y1="5.6" x2="374.4" y2="205.8"/>
				<line id="XMLID_25182_" class="logo_st5" x1="170" y1="5.6" x2="370.1" y2="205.8"/>
				<line id="XMLID_25181_" class="logo_st5" x1="165.7" y1="5.6" x2="365.9" y2="205.8"/>
				<line id="XMLID_25180_" class="logo_st5" x1="161.5" y1="5.6" x2="361.7" y2="205.8"/>
				<line id="XMLID_25179_" class="logo_st5" x1="157.3" y1="5.6" x2="357.4" y2="205.8"/>
				<line id="XMLID_25177_" class="logo_st5" x1="153.1" y1="5.6" x2="353.2" y2="205.8"/>
				<line id="XMLID_25175_" class="logo_st5" x1="148.8" y1="5.6" x2="349" y2="205.8"/>
				<line id="XMLID_25174_" class="logo_st5" x1="144.6" y1="5.6" x2="344.8" y2="205.8"/>
				<line id="XMLID_25173_" class="logo_st5" x1="140.4" y1="5.6" x2="340.5" y2="205.8"/>
				<line id="XMLID_25172_" class="logo_st5" x1="131.9" y1="5.6" x2="332.1" y2="205.8"/>
				<line id="XMLID_25171_" class="logo_st5" x1="123.5" y1="5.6" x2="323.6" y2="205.8"/>
				<line id="XMLID_25170_" class="logo_st5" x1="115" y1="5.6" x2="315.2" y2="205.8"/>
				<line id="XMLID_25169_" class="logo_st5" x1="106.5" y1="5.6" x2="306.7" y2="205.8"/>
				<line id="XMLID_25168_" class="logo_st5" x1="98.1" y1="5.6" x2="298.3" y2="205.8"/>
				<line id="XMLID_25167_" class="logo_st5" x1="89.6" y1="5.6" x2="289.8" y2="205.8"/>
				<line id="XMLID_25166_" class="logo_st5" x1="81.2" y1="5.6" x2="281.3" y2="205.8"/>
				<line id="XMLID_25165_" class="logo_st5" x1="136.1" y1="5.6" x2="336.3" y2="205.8"/>
				<line id="XMLID_25164_" class="logo_st5" x1="127.7" y1="5.6" x2="327.9" y2="205.8"/>
				<line id="XMLID_25163_" class="logo_st5" x1="119.2" y1="5.6" x2="319.4" y2="205.8"/>
				<line id="XMLID_25162_" class="logo_st5" x1="110.8" y1="5.6" x2="310.9" y2="205.8"/>
				<line id="XMLID_25160_" class="logo_st5" x1="102.3" y1="5.6" x2="302.5" y2="205.8"/>
				<line id="XMLID_25158_" class="logo_st5" x1="93.9" y1="5.6" x2="294" y2="205.8"/>
				<line id="XMLID_25156_" class="logo_st5" x1="85.4" y1="5.6" x2="285.6" y2="205.8"/>
				<line id="XMLID_25154_" class="logo_st5" x1="77" y1="5.6" x2="277.1" y2="205.8"/>
				<line id="XMLID_25153_" class="logo_st5" x1="68.5" y1="5.6" x2="268.7" y2="205.8"/>
				<line id="XMLID_25152_" class="logo_st5" x1="60" y1="5.6" x2="260.2" y2="205.8"/>
				<line id="XMLID_25151_" class="logo_st5" x1="51.6" y1="5.6" x2="251.8" y2="205.8"/>
				<line id="XMLID_25150_" class="logo_st5" x1="43.1" y1="5.6" x2="243.3" y2="205.8"/>
				<line id="XMLID_25149_" class="logo_st5" x1="34.7" y1="5.6" x2="234.8" y2="205.8"/>
				<line id="XMLID_25148_" class="logo_st5" x1="26.2" y1="5.6" x2="226.4" y2="205.8"/>
				<line id="XMLID_25147_" class="logo_st5" x1="17.8" y1="5.6" x2="217.9" y2="205.8"/>
				<line id="XMLID_25146_" class="logo_st5" x1="9.3" y1="5.6" x2="209.5" y2="205.8"/>
				<line id="XMLID_25145_" class="logo_st5" x1="0.9" y1="5.6" x2="201" y2="205.8"/>
				<line id="XMLID_25144_" class="logo_st5" x1="-7.6" y1="5.6" x2="192.6" y2="205.8"/>
				<line id="XMLID_25143_" class="logo_st5" x1="72.7" y1="5.6" x2="272.9" y2="205.8"/>
				<line id="XMLID_25142_" class="logo_st5" x1="64.3" y1="5.6" x2="264.4" y2="205.8"/>
				<line id="XMLID_25141_" class="logo_st5" x1="55.8" y1="5.6" x2="256" y2="205.8"/>
				<line id="XMLID_25140_" class="logo_st5" x1="47.4" y1="5.6" x2="247.5" y2="205.8"/>
				<line id="XMLID_25138_" class="logo_st5" x1="38.9" y1="5.6" x2="239.1" y2="205.8"/>
				<line id="XMLID_25136_" class="logo_st5" x1="30.4" y1="5.6" x2="230.6" y2="205.8"/>
				<line id="XMLID_25135_" class="logo_st5" x1="22" y1="5.6" x2="222.2" y2="205.8"/>
				<line id="XMLID_25134_" class="logo_st5" x1="13.5" y1="5.6" x2="213.7" y2="205.8"/>
				<line id="XMLID_25133_" class="logo_st5" x1="5.1" y1="5.6" x2="205.3" y2="205.8"/>
				<line id="XMLID_25132_" class="logo_st5" x1="-3.4" y1="5.6" x2="196.8" y2="205.8"/>
				<line id="XMLID_25131_" class="logo_st5" x1="-11.8" y1="5.6" x2="188.3" y2="205.8"/>
				<line id="XMLID_25129_" class="logo_st5" x1="-16.1" y1="5.6" x2="184.1" y2="205.8"/>
				<line id="XMLID_25127_" class="logo_st5" x1="-20.3" y1="5.6" x2="179.9" y2="205.8"/>
				<line id="XMLID_25126_" class="logo_st5" x1="-24.5" y1="5.6" x2="175.7" y2="205.8"/>
				<line id="XMLID_25125_" class="logo_st5" x1="-28.7" y1="5.6" x2="171.4" y2="205.8"/>
				<line id="XMLID_25123_" class="logo_st5" x1="-33" y1="5.6" x2="167.2" y2="205.8"/>
				<line id="XMLID_25121_" class="logo_st5" x1="-37.2" y1="5.6" x2="163" y2="205.8"/>
				<line id="XMLID_25120_" class="logo_st5" x1="-41.4" y1="5.6" x2="158.7" y2="205.8"/>
				<line id="XMLID_25119_" class="logo_st5" x1="-45.6" y1="5.6" x2="154.5" y2="205.8"/>
				<line id="XMLID_25118_" class="logo_st5" x1="-49.9" y1="5.6" x2="150.3" y2="205.8"/>
				<line id="XMLID_25116_" class="logo_st5" x1="-54.1" y1="5.6" x2="146.1" y2="205.8"/>
				<line id="XMLID_25114_" class="logo_st5" x1="-58.3" y1="5.6" x2="141.8" y2="205.8"/>
				<line id="XMLID_25113_" class="logo_st5" x1="-62.6" y1="5.6" x2="137.6" y2="205.8"/>
				<line id="XMLID_25112_" class="logo_st5" x1="-66.8" y1="5.6" x2="133.4" y2="205.8"/>
				<line id="XMLID_25110_" class="logo_st5" x1="-71" y1="5.6" x2="129.2" y2="205.8"/>
				<line id="XMLID_25108_" class="logo_st5" x1="-75.2" y1="5.6" x2="124.9" y2="205.8"/>
				<line id="XMLID_25107_" class="logo_st5" x1="-79.5" y1="5.6" x2="120.7" y2="205.8"/>
				<line id="XMLID_25105_" class="logo_st5" x1="-83.7" y1="5.6" x2="116.5" y2="205.8"/>
				<line id="XMLID_25103_" class="logo_st5" x1="-87.9" y1="5.6" x2="112.2" y2="205.8"/>
				<line id="XMLID_25102_" class="logo_st5" x1="-92.2" y1="5.6" x2="108" y2="205.8"/>
				<line id="XMLID_25101_" class="logo_st5" x1="-96.4" y1="5.6" x2="103.8" y2="205.8"/>
				<line id="XMLID_25100_" class="logo_st5" x1="-100.6" y1="5.6" x2="99.6" y2="205.8"/>
				<line id="XMLID_25099_" class="logo_st5" x1="-104.8" y1="5.6" x2="95.3" y2="205.8"/>
				<line id="XMLID_25097_" class="logo_st5" x1="-109.1" y1="5.6" x2="91.1" y2="205.8"/>
				<line id="XMLID_25095_" class="logo_st5" x1="-113.3" y1="5.6" x2="86.9" y2="205.8"/>
				<line id="XMLID_25093_" class="logo_st5" x1="-117.5" y1="5.6" x2="82.6" y2="205.8"/>
				<line id="XMLID_25091_" class="logo_st5" x1="-121.7" y1="5.6" x2="78.4" y2="205.8"/>
				<line id="XMLID_25089_" class="logo_st5" x1="-126" y1="5.6" x2="74.2" y2="205.8"/>
				<line id="XMLID_25087_" class="logo_st5" x1="-130.2" y1="5.6" x2="70" y2="205.8"/>
				<line id="XMLID_25085_" class="logo_st5" x1="-134.4" y1="5.6" x2="65.7" y2="205.8"/>
				<line id="XMLID_25083_" class="logo_st5" x1="-138.7" y1="5.6" x2="61.5" y2="205.8"/>
				<line id="XMLID_25082_" class="logo_st5" x1="-142.9" y1="5.6" x2="57.3" y2="205.8"/>
				<line id="XMLID_25081_" class="logo_st5" x1="-147.1" y1="5.6" x2="53.1" y2="205.8"/>
				<line id="XMLID_25079_" class="logo_st5" x1="-151.3" y1="5.6" x2="48.8" y2="205.8"/>
				<line id="XMLID_25077_" class="logo_st5" x1="-155.6" y1="5.6" x2="44.6" y2="205.8"/>
				<line id="XMLID_25076_" class="logo_st5" x1="-159.8" y1="5.6" x2="40.4" y2="205.8"/>
				<line id="XMLID_25075_" class="logo_st5" x1="-164" y1="5.6" x2="36.1" y2="205.8"/>
				<line id="XMLID_25074_" class="logo_st5" x1="-168.3" y1="5.6" x2="31.9" y2="205.8"/>
				<line id="XMLID_25072_" class="logo_st5" x1="-172.5" y1="5.6" x2="27.7" y2="205.8"/>
				<line id="XMLID_25070_" class="logo_st5" x1="-176.7" y1="5.6" x2="23.5" y2="205.8"/>
				<line id="XMLID_25069_" class="logo_st5" x1="-180.9" y1="5.6" x2="19.2" y2="205.8"/>
			</g>
			<g id="XMLID_24938_">
				<line id="XMLID_25067_" class="logo_st5" x1="37.6" y1="5.6" x2="-162.6" y2="205.8"/>
				<line id="XMLID_25066_" class="logo_st5" x1="41.8" y1="5.6" x2="-158.3" y2="205.8"/>
				<line id="XMLID_25065_" class="logo_st5" x1="46.1" y1="5.6" x2="-154.1" y2="205.8"/>
				<line id="XMLID_25064_" class="logo_st5" x1="50.3" y1="5.6" x2="-149.9" y2="205.8"/>
				<line id="XMLID_25063_" class="logo_st5" x1="54.5" y1="5.6" x2="-145.6" y2="205.8"/>
				<line id="XMLID_25062_" class="logo_st5" x1="58.8" y1="5.6" x2="-141.4" y2="205.8"/>
				<line id="XMLID_25061_" class="logo_st5" x1="63" y1="5.6" x2="-137.2" y2="205.8"/>
				<line id="XMLID_25060_" class="logo_st5" x1="67.2" y1="5.6" x2="-133" y2="205.8"/>
				<line id="XMLID_25059_" class="logo_st5" x1="71.4" y1="5.6" x2="-128.7" y2="205.8"/>
				<line id="XMLID_25058_" class="logo_st5" x1="75.7" y1="5.6" x2="-124.5" y2="205.8"/>
				<line id="XMLID_25056_" class="logo_st5" x1="79.9" y1="5.6" x2="-120.3" y2="205.8"/>
				<line id="XMLID_25054_" class="logo_st5" x1="88.3" y1="5.6" x2="-111.8" y2="205.8"/>
				<line id="XMLID_25053_" class="logo_st5" x1="96.8" y1="5.6" x2="-103.4" y2="205.8"/>
				<line id="XMLID_25052_" class="logo_st5" x1="105.3" y1="5.6" x2="-94.9" y2="205.8"/>
				<line id="XMLID_25051_" class="logo_st5" x1="113.7" y1="5.6" x2="-86.5" y2="205.8"/>
				<line id="XMLID_25050_" class="logo_st5" x1="122.2" y1="5.6" x2="-78" y2="205.8"/>
				<line id="XMLID_25049_" class="logo_st5" x1="130.6" y1="5.6" x2="-69.5" y2="205.8"/>
				<line id="XMLID_25048_" class="logo_st5" x1="139.1" y1="5.6" x2="-61.1" y2="205.8"/>
				<line id="XMLID_25046_" class="logo_st5" x1="84.1" y1="5.6" x2="-116.1" y2="205.8"/>
				<line id="XMLID_25044_" class="logo_st5" x1="92.6" y1="5.6" x2="-107.6" y2="205.8"/>
				<line id="XMLID_25042_" class="logo_st5" x1="101" y1="5.6" x2="-99.1" y2="205.8"/>
				<line id="XMLID_25040_" class="logo_st5" x1="109.5" y1="5.6" x2="-90.7" y2="205.8"/>
				<line id="XMLID_25038_" class="logo_st5" x1="117.9" y1="5.6" x2="-82.2" y2="205.8"/>
				<line id="XMLID_25037_" class="logo_st5" x1="126.4" y1="5.6" x2="-73.8" y2="205.8"/>
				<line id="XMLID_25036_" class="logo_st5" x1="134.8" y1="5.6" x2="-65.3" y2="205.8"/>
				<line id="XMLID_25035_" class="logo_st5" x1="143.3" y1="5.6" x2="-56.9" y2="205.8"/>
				<line id="XMLID_25033_" class="logo_st5" x1="151.8" y1="5.6" x2="-48.4" y2="205.8"/>
				<line id="XMLID_25031_" class="logo_st5" x1="160.2" y1="5.6" x2="-40" y2="205.8"/>
				<line id="XMLID_25030_" class="logo_st5" x1="168.7" y1="5.6" x2="-31.5" y2="205.8"/>
				<line id="XMLID_25029_" class="logo_st5" x1="177.1" y1="5.6" x2="-23" y2="205.8"/>
				<line id="XMLID_25028_" class="logo_st5" x1="185.6" y1="5.6" x2="-14.6" y2="205.8"/>
				<line id="XMLID_25027_" class="logo_st5" x1="194" y1="5.6" x2="-6.1" y2="205.8"/>
				<line id="XMLID_25025_" class="logo_st5" x1="202.5" y1="5.6" x2="2.3" y2="205.8"/>
				<line id="XMLID_25023_" class="logo_st5" x1="210.9" y1="5.6" x2="10.8" y2="205.8"/>
				<line id="XMLID_25022_" class="logo_st5" x1="219.4" y1="5.6" x2="19.2" y2="205.8"/>
				<line id="XMLID_25021_" class="logo_st5" x1="227.9" y1="5.6" x2="27.7" y2="205.8"/>
				<line id="XMLID_25020_" class="logo_st5" x1="147.5" y1="5.6" x2="-52.6" y2="205.8"/>
				<line id="XMLID_25019_" class="logo_st5" x1="156" y1="5.6" x2="-44.2" y2="205.8"/>
				<line id="XMLID_25018_" class="logo_st5" x1="164.4" y1="5.6" x2="-35.7" y2="205.8"/>
				<line id="XMLID_25016_" class="logo_st5" x1="172.9" y1="5.6" x2="-27.3" y2="205.8"/>
				<line id="XMLID_25014_" class="logo_st5" x1="181.4" y1="5.6" x2="-18.8" y2="205.8"/>
				<line id="XMLID_25013_" class="logo_st5" x1="189.8" y1="5.6" x2="-10.4" y2="205.8"/>
				<line id="XMLID_25012_" class="logo_st5" x1="198.3" y1="5.6" x2="-1.9" y2="205.8"/>
				<line id="XMLID_25011_" class="logo_st5" x1="206.7" y1="5.6" x2="6.6" y2="205.8"/>
				<line id="XMLID_25010_" class="logo_st5" x1="215.2" y1="5.6" x2="15" y2="205.8"/>
				<line id="XMLID_25009_" class="logo_st5" x1="223.6" y1="5.6" x2="23.5" y2="205.8"/>
				<line id="XMLID_25007_" class="logo_st5" x1="232.1" y1="5.6" x2="31.9" y2="205.8"/>
				<line id="XMLID_25005_" class="logo_st5" x1="236.3" y1="5.6" x2="36.1" y2="205.8"/>
				<line id="XMLID_25004_" class="logo_st5" x1="240.5" y1="5.6" x2="40.4" y2="205.8"/>
				<line id="XMLID_25002_" class="logo_st5" x1="244.8" y1="5.6" x2="44.6" y2="205.8"/>
				<line id="XMLID_25000_" class="logo_st5" x1="249" y1="5.6" x2="48.8" y2="205.8"/>
				<line id="XMLID_24998_" class="logo_st5" x1="253.2" y1="5.6" x2="53.1" y2="205.8"/>
				<line id="XMLID_24996_" class="logo_st5" x1="257.4" y1="5.6" x2="57.3" y2="205.8"/>
				<line id="XMLID_24995_" class="logo_st5" x1="261.7" y1="5.6" x2="61.5" y2="205.8"/>
				<line id="XMLID_24994_" class="logo_st5" x1="265.9" y1="5.6" x2="65.7" y2="205.8"/>
				<line id="XMLID_24993_" class="logo_st5" x1="270.1" y1="5.6" x2="70" y2="205.8"/>
				<line id="XMLID_24992_" class="logo_st5" x1="274.4" y1="5.6" x2="74.2" y2="205.8"/>
				<line id="XMLID_24990_" class="logo_st5" x1="278.6" y1="5.6" x2="78.4" y2="205.8"/>
				<line id="XMLID_24988_" class="logo_st5" x1="282.8" y1="5.6" x2="82.6" y2="205.8"/>
				<line id="XMLID_24987_" class="logo_st5" x1="287" y1="5.6" x2="86.9" y2="205.8"/>
				<line id="XMLID_24985_" class="logo_st5" x1="291.3" y1="5.6" x2="91.1" y2="205.8"/>
				<line id="XMLID_24983_" class="logo_st5" x1="295.5" y1="5.6" x2="95.3" y2="205.8"/>
				<line id="XMLID_24982_" class="logo_st5" x1="299.7" y1="5.6" x2="99.6" y2="205.8"/>
				<line id="XMLID_24981_" class="logo_st5" x1="304" y1="5.6" x2="103.8" y2="205.8"/>
				<line id="XMLID_24979_" class="logo_st5" x1="308.2" y1="5.6" x2="108" y2="205.8"/>
				<line id="XMLID_24977_" class="logo_st5" x1="312.4" y1="5.6" x2="112.2" y2="205.8"/>
				<line id="XMLID_24975_" class="logo_st5" x1="316.6" y1="5.6" x2="116.5" y2="205.8"/>
				<line id="XMLID_24973_" class="logo_st5" x1="320.9" y1="5.6" x2="120.7" y2="205.8"/>
				<line id="XMLID_24971_" class="logo_st5" x1="325.1" y1="5.6" x2="124.9" y2="205.8"/>
				<line id="XMLID_24969_" class="logo_st5" x1="329.3" y1="5.6" x2="129.2" y2="205.8"/>
				<line id="XMLID_24967_" class="logo_st5" x1="333.5" y1="5.6" x2="133.4" y2="205.8"/>
				<line id="XMLID_24966_" class="logo_st5" x1="337.8" y1="5.6" x2="137.6" y2="205.8"/>
				<line id="XMLID_24965_" class="logo_st5" x1="342" y1="5.6" x2="141.8" y2="205.8"/>
				<line id="XMLID_24963_" class="logo_st5" x1="346.2" y1="5.6" x2="146.1" y2="205.8"/>
				<line id="XMLID_24961_" class="logo_st5" x1="350.5" y1="5.6" x2="150.3" y2="205.8"/>
				<line id="XMLID_24959_" class="logo_st5" x1="354.7" y1="5.6" x2="154.5" y2="205.8"/>
				<line id="XMLID_24957_" class="logo_st5" x1="358.9" y1="5.6" x2="158.7" y2="205.8"/>
				<line id="XMLID_24955_" class="logo_st5" x1="363.1" y1="5.6" x2="163" y2="205.8"/>
				<line id="XMLID_24953_" class="logo_st5" x1="367.4" y1="5.6" x2="167.2" y2="205.8"/>
				<line id="XMLID_24952_" class="logo_st5" x1="371.6" y1="5.6" x2="171.4" y2="205.8"/>
				<line id="XMLID_24951_" class="logo_st5" x1="375.8" y1="5.6" x2="175.7" y2="205.8"/>
				<line id="XMLID_24949_" class="logo_st5" x1="380.1" y1="5.6" x2="179.9" y2="205.8"/>
				<line id="XMLID_24947_" class="logo_st5" x1="384.3" y1="5.6" x2="184.1" y2="205.8"/>
				<line id="XMLID_24946_" class="logo_st5" x1="388.5" y1="5.6" x2="188.3" y2="205.8"/>
				<line id="XMLID_24944_" class="logo_st5" x1="392.7" y1="5.6" x2="192.6" y2="205.8"/>
				<line id="XMLID_24942_" class="logo_st5" x1="397" y1="5.6" x2="196.8" y2="205.8"/>
				<line id="XMLID_24940_" class="logo_st5" x1="401.2" y1="5.6" x2="201" y2="205.8"/>
			</g>
		</g>
	</g>
</svg>