<svg version="1.1" id="version" xmlns="http://www.w3.org/2000/svg" xmlns:xlink="http://www.w3.org/1999/xlink" x="0px" y="0px" width="122px" height="61px" viewBox="0 0 112 50" style="enable-background:new 0 0 112 50;" xml:space="preserve">
	<style type="text/css">
		.version_st0{opacity:0.3;fill:#1561C0;}
		.version_st1{fill:none;stroke:#1561C0;stroke-miterlimit:10;}
		.version_st2{fill:#F0A000;}
		.version_st3{font-family:'KarnivoreLite';}
		.version_st4{font-size:18.206px;}
		.version_st5{fill:#F7F7F7;}
		.version_st6{fill:#00BEFF;}
	</style>
	<g id="version_XMLID_10929_">
		<polygon id="version_XMLID_10930_" class="version_st0" points="56.5,50 14.9,50 14.9,11.8 19.3,6.2 56.5,6.2 	"/>
		<polygon id="version_XMLID_10931_" class="version_st1" points="97.1,50 14.9,50 14.9,12.1 19.2,6.7 93.2,6.7 97.1,12.4 	"/>
		<g id="version_XMLID_26784_">
			<text id="version_XMLID_66_" transform="matrix(1 0 0 1 64.349 34.1685)" class="version_st2 version_st3 version_st4" style="font-family:KARNIVOL;">3.0</text>
		</g>
		<g id="version_XMLID_10953_">
			<g id="version_XMLID_183_">
				<path id="version_XMLID_199_" class="version_st5" d="M26.2,35.4l-1.6,9.3h-0.8l-1.6-9.3h0.8l1.1,7.4l0,0.6c0-0.1,0-0.3,0-0.6l1.1-7.4H26.2z"/>
				<path id="version_XMLID_196_" class="version_st5" d="M30.5,44c0,0.4-0.2,0.7-0.7,0.7h-1.9c-0.4,0-0.7-0.2-0.7-0.7v-4.4c0-0.4,0.2-0.7,0.7-0.7
					h1.9c0.4,0,0.7,0.2,0.7,0.7v2.1L30.2,42H28V44h1.7V43h0.8V44z M29.7,41.3v-1.7H28v1.7H29.7z"/>
				<path id="version_XMLID_194_" class="version_st5" d="M34.8,40.8H34v-1.2l-1.5,0v5h-0.8v-5.8h0.8v0.2c0.3,0,0.5-0.1,0.8-0.1
					c0.3,0,0.6-0.1,0.8-0.1c0.4,0,0.7,0.2,0.7,0.6V40.8z"/>
				<path id="version_XMLID_192_" class="version_st5" d="M38.9,44c0,0.4-0.2,0.7-0.7,0.7h-1.8c-0.4,0-0.7-0.2-0.7-0.7v-1.3h0.8V44h1.6v-1.1l-2.1-1.7
					c-0.2-0.2-0.3-0.4-0.3-0.6v-1c0-0.4,0.2-0.7,0.7-0.7h1.8c0.4,0,0.7,0.2,0.7,0.7v1.1h-0.8v-1.1h-1.6v1l2.1,1.7
					c0.2,0.2,0.3,0.4,0.3,0.6V44z"/>
				<path id="version_XMLID_189_" class="version_st5" d="M41,37.7h-0.8v-1H41V37.7z M41,44.7h-0.8v-5.8H41V44.7z"/>
				<path id="version_XMLID_186_" class="version_st5" d="M45.6,44c0,0.4-0.2,0.7-0.7,0.7h-2c-0.4,0-0.7-0.2-0.7-0.7v-4.4c0-0.4,0.2-0.7,0.7-0.7h2
					c0.4,0,0.7,0.2,0.7,0.7V44z M44.8,44v-4.4h-1.7V44H44.8z"/>
				<path id="version_XMLID_184_" class="version_st5" d="M50.2,44.7h-0.8v-5.1l-1.7,0v5h-0.8v-5.8h0.8v0.2c0.3,0,0.6-0.1,0.9-0.1
					c0.4,0,0.7-0.1,0.9-0.1c0.4,0,0.7,0.2,0.7,0.6V44.7z"/>
			</g>
		</g>
		<g id="version_XMLID_10971_">
			<path id="version_XMLID_10972_" class="version_st6" d="M45.3,10.9c-2,0-3.6,1.6-3.6,3.6c0,1.4,0.8,2.6,2,3.2l-1.9,5.5c-0.2,0-0.4-0.1-0.6-0.1
				c-0.6,0-1.1,0.1-1.5,0.4l-4.3-4.5c0.2-0.4,0.3-0.9,0.3-1.5c0-2-1.6-3.6-3.6-3.6c-2,0-3.6,1.6-3.6,3.6c0,1.1,0.5,2.1,1.3,2.8
				l-1.8,3.9c-0.5-0.2-1-0.4-1.6-0.4c-2,0-3.6,1.6-3.6,3.6c0,2,1.6,3.6,3.6,3.6c2,0,3.6-1.6,3.6-3.6c0-0.9-0.3-1.6-0.8-2.3l2-4.2
				c0.3,0.1,0.6,0.1,1,0.1c0.9,0,1.8-0.4,2.4-0.9l4,4.1c-0.5,0.6-0.9,1.4-0.9,2.3c0,2,1.6,3.6,3.6,3.6c2,0,3.6-1.6,3.6-3.6
				c0-1.2-0.6-2.3-1.6-3l2-5.6c0.1,0,0.1,0,0.2,0c2,0,3.6-1.6,3.6-3.6C48.9,12.6,47.3,10.9,45.3,10.9z M26.2,29.7
				c-1.2,0-2.1-0.9-2.1-2.1c0-1.2,0.9-2.1,2.1-2.1c1.2,0,2.1,0.9,2.1,2.1C28.3,28.7,27.4,29.7,26.2,29.7z M31.9,19.7
				c-1.2,0-2.1-0.9-2.1-2.1c0-1.2,0.9-2.1,2.1-2.1c1.2,0,2.1,0.9,2.1,2.1C34,18.8,33.1,19.7,31.9,19.7z M43.2,26.8
				c0,1.2-0.9,2.1-2.1,2.1c-1.2,0-2.1-0.9-2.1-2.1c0-1.2,0.9-2.1,2.1-2.1C42.3,24.7,43.2,25.7,43.2,26.8z M45.3,16.7
				c-1.2,0-2.1-0.9-2.1-2.1c0-1.2,0.9-2.1,2.1-2.1c1.2,0,2.1,0.9,2.1,2.1C47.4,15.7,46.5,16.7,45.3,16.7z M45.7,13.1
				c-0.6,0-1.2,0.3-1.6,0.8c-0.1,0.2-0.1,0.4,0.1,0.5c0.1,0,0.1,0.1,0.2,0.1c0.1,0,0.2-0.1,0.3-0.2c0.2-0.3,0.6-0.5,0.9-0.5
				c0.2,0,0.4-0.2,0.4-0.4C46.1,13.2,45.9,13.1,45.7,13.1z"/>
		</g>
		<polygon id="version_XMLID_10980_" class="version_st1" points="14.9,10 14.9,6.6 17.6,6.6 	"/>
		<polygon id="version_XMLID_10981_" class="version_st1" points="94.9,6.7 97.1,6.7 97.1,10 	"/>
	</g>
</svg>