<?xml version="1.0" ?><!-- Generator: Adobe Illustrator 19.0.0, SVG Export Plug-In . SVG Version: 6.00 Build 0)  --><svg id="图层_1" style="enable-background:new -9 11 60 60;" version="1.1" viewBox="-9 11 60 60" x="0px" xml:space="preserve" xmlns="http://www.w3.org/2000/svg" xmlns:xlink="http://www.w3.org/1999/xlink" y="0px" zn="感冒指数">
<style type="text/css">
	.ColdIndex_st0{fill:#44CDF2;}
</style>
<path class="ColdIndex_st0" d="M41,14c-5.9-4.4-14.2-3.1-18.6,2.8L9.8,33.7l0,0L-1.7,49.4c-2.1,2.9-3,6.4-2.5,9.9c0.5,3.5,2.4,6.6,5.2,8.7  c2.3,1.7,5.1,2.6,7.9,2.6c0.7,0,1.3,0,2-0.1c3.5-0.5,6.6-2.4,8.7-5.2l12.5-16.9l0,0l11.6-15.6C48.1,26.7,46.9,18.4,41,14z   M17.4,63.8c-1.7,2.3-4.2,3.8-7,4.2c-2.8,0.4-5.6-0.3-7.9-2c-2.3-1.7-3.8-4.2-4.2-7c-0.4-2.8,0.3-5.6,2-7.9l11-14.9l17,12.6  L17.4,63.8z"/>
</svg>