<?xml version="1.0" ?><!-- Generator: Adobe Illustrator 19.0.0, SVG Export Plug-In . SVG Version: 6.00 Build 0)  --><svg id="图层_1" style="enable-background:new -9 11 60 60;" version="1.1" viewBox="-9 11 60 60" x="0px" xml:space="preserve" xmlns="http://www.w3.org/2000/svg" xmlns:xlink="http://www.w3.org/1999/xlink" y="0px" zn="路况指数">
<style type="text/css">
	.ConditionIndex_st0{fill:#39EAEA;}
</style>
<g>
	<polygon class="ConditionIndex_st0" points="23.7,32.4 26.2,31.5 25.2,31.5 22.7,32.4  "/>
	<path class="ConditionIndex_st0" d="M19.1,34.3c0.8-0.4,1.7-0.8,2.6-1.1h-1c-0.8,0.3-1.7,0.7-2.5,1.1H19.1z"/>
	<path class="ConditionIndex_st0" d="M13.8,37.6l0.8,0c0.5-1,2.4-2.1,2.8-2.4l-0.9,0C15.6,35.8,14.3,36.6,13.8,37.6z"/>
	<polygon class="ConditionIndex_st0" points="27.2,30.7 28.2,30.7 30.4,29.9 29.7,29.9  "/>
	<path class="ConditionIndex_st0" d="M11.4,36c5.4-3.1,13.7-5.7,18.8-6.4l-5.1-1.1l-4.4-4l-3.3,0.7L12,20.2l-3.8,3.5l-4-1L0.6,24l-3.8-1.5L-8.6,26   v35.7h11c4.8-4.4,11.2-11.5,7-18.1C7.5,40.7,7.9,37.9,11.4,36z"/>
	<path class="ConditionIndex_st0" d="M20,52.7c0.2,2.7-0.3,5.7-1.2,9h3.5c0.6-3.4,0.5-6.5,0.3-9L20,52.7z"/>
	<path class="ConditionIndex_st0" d="M22.1,50c-0.4-2-1.7-3.8-2.2-4.6h-1.8c0.8,1.4,1,2.6,1.5,4.6H22.1z"/>
	<path class="ConditionIndex_st0" d="M47.1,21.3l-4,3.3l-4.3-1.3l-6.3,6.1c-1.6,0.8-6.9,3.5-10.3,5.9c-6.8,4.8-0.3,6.3,3.8,8.2   c8.2,3.7,11.2,10.9,10.2,18.1h14.3V23.7L47.1,21.3z"/>
	<path class="ConditionIndex_st0" d="M16.5,42.1h-1.5c0.6,0.5,1.2,1.2,1.7,1.7l1.8,0C17.5,42.8,17.3,42.7,16.5,42.1z"/>
	<path class="ConditionIndex_st0" d="M14.3,38.7h-0.8c-0.1,0.7,0.1,1.5,0.5,2.1l1.3,0C14.8,40.2,14.3,39.5,14.3,38.7z"/>
</g>
</svg>