<?xml version="1.0" ?><!-- Generator: Adobe Illustrator 19.0.0, SVG Export Plug-In . SVG Version: 6.00 Build 0)  --><svg id="图层_1" style="enable-background:new -9 11 60 60;" version="1.1" viewBox="-9 11 60 60" x="0px" xml:space="preserve" xmlns="http://www.w3.org/2000/svg" xmlns:xlink="http://www.w3.org/1999/xlink" y="0px" zn="横风指数">
<style type="text/css">
	.CrosswindIndex_st0{fill:#06F99B;}
</style>
<path class="CrosswindIndex_st0" d="M46.8,34.5L13.1,13.2l-21.8,5.4v50.2h6V24.5l7.6,7.6c0,0,35.3,11.9,37.1,12.5c2.5,0.8,6.5,1.3,8.1-1.9  C52.6,37.9,46.8,34.5,46.8,34.5z M2.3,23.4l-2.6-2.8l4.7-1.2L2.3,23.4z M17.9,33l-7.3-3c0,0-0.5-7.9,5.9-10.3l6,3.6  C22.4,23.4,16.8,26,17.9,33z M32.1,38.2l-5.2-1.9c0,0-1.2-5.5,3.8-7.7l4.6,2.5C35.4,31.1,32.1,33,32.1,38.2z M43.6,41.4  c-1.4,0-2.4-1.1-2.4-2.4c0-1.4,1.1-2.4,2.4-2.4c1.4,0,2.4,1.1,2.4,2.4C46.1,40.3,45,41.4,43.6,41.4z"/>
</svg>