<?xml version="1.0" ?><!-- Generator: Adobe Illustrator 19.0.0, SVG Export Plug-In . SVG Version: 6.00 Build 0)  --><svg id="图层_1" style="enable-background:new -9 11 60 60;" version="1.1" viewBox="-9 11 60 60" x="0px" xml:space="preserve" xmlns="http://www.w3.org/2000/svg" xmlns:xlink="http://www.w3.org/1999/xlink" y="0px" zn="穿衣指数">
<style type="text/css">
	.DressIndex_st0{fill:#39EAEA;}
</style>
<g id="XMLID_23_">
	<path class="DressIndex_st0" d="M36.3,35.7l3.3,4.8l11-7.8L41,21.7c0,0-4.3-5.8-12.2-6.8c0,0-8.7,9.5-14.7-0.5   c0,0-9.2,2.5-13.9,6.3l-8.8,12.1L1.2,41l4.5-4.3c0,0,3,19.1-3.3,30.9h37.8C40.3,67.6,30.3,48.3,36.3,35.7z M48.1,31.7l0.7,1l-9,6.3   L39,38L48.1,31.7z M1.4,39.7l-8.3-7.3l0.8-0.9l8.3,7.3L1.4,39.7z" id="XMLID_39_"/>
</g>
</svg>