<?xml version="1.0" ?><!-- Generator: Adobe Illustrator 19.0.0, SVG Export Plug-In . SVG Version: 6.00 Build 0)  --><svg id="图层_1" style="enable-background:new -9 11 60 60;" version="1.1" viewBox="-9 11 60 60" x="0px" xml:space="preserve" xmlns="http://www.w3.org/2000/svg" xmlns:xlink="http://www.w3.org/1999/xlink" y="0px" zn="晨练指数">
<style type="text/css">
	.ExerciseIndex_st0{fill:#39EAEA;}
</style>
<path class="ExerciseIndex_st0" d="M-2,62.4c0.2,0.8,0.7,1.6,1.5,2c0.6,0.3,1.5,0.1,1.7-0.6c0.1-0.5,0-0.9-0.1-1.4  c-0.2-0.5,0.2-1.2,0.7-1.4c0.3-0.1,0.2-0.3,0.4-0.3c0.1,0,0.2,0,0.3,0c0.2,0,0.4,0,0.6-0.1c0.2,0,0.5-0.1,0.6-0.3c0,0,0-0.1,0-0.1  C3.6,60,3.4,60,3.2,60c-0.3,0-0.8-0.2-0.5-0.5c0.2-0.3,0.5-0.6,0.8-1c0.1,0,0.1,0,0.2-0.1c1.1-0.4,2-1.2,3.1-1.4  c0.3,0,0.6-0.1,0.9-0.2c0.3,0,0.6-0.2,0.8-0.3c0.5-0.1,1-0.2,1.6-0.4c1.2-0.3,2.5-0.9,3.8-0.9c1.1,0,2.1,0.1,3.1-0.3  c1-0.4,1.9-1.2,2.6-2c0.8-0.9,1.6-1.8,2.4-2.7c0.8-0.9,1.7-1.7,2.4-2.8c0.1-0.2,0.3-0.5,0.4-0.7c0.2,0.1,0.4,0.2,0.6,0.3  c0.7,0.3,1.4,0.6,2.1,1c0.6,0.3,1.2,0.7,1.7,1c0.6,0.3,1.1,0.7,1.6,1c0.5,0.3,1.1,0.5,1.6,0.9c0.4,0.3,0.9,0.6,1.4,0.8  c0.2,0.1,0.5,0.2,0.7,0.3c-0.1,0.5-0.2,0.9-0.3,1.4c-0.1,0.7-0.4,1.4-0.4,2.1c0,0.8,0,1.6,0,2.5c0.1,1.5,0.5,2.9,0.5,4.3  c0,1.4-0.1,2.9,0,4.3c0,0.1,0,0.1,0,0.2c-0.1,0.5-0.1,1-0.1,1.5c0,0.3,0,0.6,0,1c0,0.1,0,0.2,0.1,0.2c0.4,0.4,0.6,0.5,1.3,0.6  c0.6,0.1,1.2-0.2,1.8-0.2c0.7,0,1.4,0,2,0.2c0.5,0.2,1.4,0.6,2,0.4c0.5-0.2,1-0.3,1.5-0.6c0.5-0.2,2-1,1.1-1.7  c-0.4-0.3-1-0.2-1.5-0.2c-0.8,0-1.7-0.1-2.3-0.8c-0.5-0.6-0.8-1.2-1.2-1.8c-0.2-0.3-0.3-0.5-0.7-0.4c-0.2,0-0.4,0.5-0.6,0.7  c-0.1,0.1-0.2,0.2-0.2,0.3c0-0.6-0.1-1.2-0.1-1.9c0-0.7,0-1.4,0.1-2.1c0.2-1.1,0.1-2.3,0.2-3.5c0.2-1.2,0.5-2.4,0.7-3.6  c0.1-0.6,0-1.2,0-1.7c0-0.1,0-0.1,0-0.2c0.1-0.2,0.3-0.5,0.4-0.7c0.3-0.6,0.5-1.2,0.3-1.8c-0.1-0.3-0.4-0.5-0.6-0.6  c-0.4-0.4-0.5-0.9-0.7-1.3c-0.4-0.8-1-1.5-1.6-2.2c-1.3-1.6-2.7-3-4.3-4.3c-0.4-0.3-0.7-0.7-1.1-1c-0.3-0.3-0.7-0.4-1.1-0.7  c-0.4-0.3-0.8-0.8-1.1-1.4c0.1-0.3,0.2-0.5,0.2-0.8c0.2-0.7,0.4-1.5,0.5-2.2c0.4,0,0.7,0,1.1-0.1c0.7-0.2,1.4-0.5,2.2-0.5  c0.6,0,1.4-0.3,1.9-0.5c0.6-0.3,1.2-0.5,1.8-0.9c0.3-0.2,1-0.4,1.1-0.8c0-0.3,0-0.9-0.1-1.2c-0.2-0.4-0.4-1.1-0.8-1.3  c-0.4-0.3-0.8-0.2-1.3-0.1c-0.2-0.3-0.5-0.6-0.8-0.2c-0.1,0.1-0.2,0.2-0.2,0.4c-0.1,0.4-0.4,0.6-0.7,0.8c-0.4,0.3-0.7,0.6-0.9,1.1  c-0.2,0.3-0.3,0.5-0.7,0.6c-0.5,0.1-0.9,0.1-1.4,0.1c-0.3,0-0.5,0-0.8,0c0-0.8,0-1.7-0.1-2.5c0.2-0.6,0.4-1.2,0.8-1.7  c0.3-0.5,0.4-1,0.7-1.5c0.2-0.4,0.2-0.5,0.2-0.9c0-0.4-0.3-0.8-0.5-1.1c-0.2-0.4-0.6-0.8-0.8-1.2c-0.3-0.4-0.6-0.8-0.9-1.2  c0,0-0.1-0.1-0.1-0.1c0,0,0-0.1,0-0.1c0.2-0.4,0.6-0.9,1.1-0.9c0.5,0,0.9,0,1.2-0.3c0.1-0.1,0.2-0.7,0.2-1c0.1-0.1,0.2-0.1,0.2-0.2  c0.1-0.2-0.4-0.4-0.2-0.6c0.1-0.1,0.4-0.2,0.4-0.4c0-0.1-0.1-0.2-0.1-0.3c0.3-0.1,0.6-0.3,0.8-0.6c0.2-0.2-0.3-0.8-0.4-0.9  c-0.3-0.4-0.4-0.8-0.4-1.3l0-1c0-0.7-0.2-1.3-0.6-1.8c-0.6-0.9-1.6-1.3-2.6-1.5c-0.6-0.1-1.3-0.1-1.8,0c-0.5,0.1-1.1,0.2-1.5,0.6  C25.1,12.8,25,12.9,25,13c-0.2,0.2-0.3,0.4-0.5,0.5c0,0,0,0-0.1,0c0,0,0,0,0,0c0,0,0,0-0.1-0.1c0-0.1-0.1-0.2-0.1-0.1c0,0,0,0-0.1,0  c0-0.1-0.1-0.1-0.1,0c0,0,0,0,0,0c0,0,0,0-0.1,0c0,0-0.1,0-0.1,0c-0.3-0.8-1.2-1.4-2-1.6c-0.8-0.3-1.9-0.2-2.6,0.4  c-0.4,0.3-0.6,0.7-0.9,1.1c-0.4,0.6-0.8,1.2-1.4,1.6c-0.5,0.4-1.1,0-1.5-0.4c-0.1-0.1-0.2-0.2-0.3-0.3c0,0,0,0,0,0  c0.1,0.4,0.4,1,0.8,1.1c0.8,0.3,1.1,0,1.6-0.5c0.1-0.1,0.2-0.2,0.2-0.3c-0.1,0.2-0.1,0.4-0.1,0.5c0,0,0,0,0,0  c-0.1,0.1-0.2,0.2-0.3,0.3c-0.5,0.2-1.1,0.2-1.7,0c-0.4-0.1-0.8-0.4-1.1-0.7c0,0-0.1,0-0.2,0c0,0,0,0.1,0,0.1c0.2,0,0.4,0.5,0.6,0.6  c0.2,0.2,0.5,0.3,0.8,0.4c0.2,0.1,0.4,0.1,0.6,0.2c-0.2,0-0.4,0.1-0.6,0c-0.3-0.1-0.6-0.2-1-0.1c0,0,0,0,0,0  c0.5,0.3,0.9,0.6,1.4,0.6c-0.2,0.1-0.5,0.1-0.7,0.3c0,0,0,0,0,0c0.3,0.4,0.7,0.4,1.1,0.3c-0.4,0.1-0.8,0.1-1.3-0.2  c-0.4-0.2-0.6-0.7-0.8-1c0,0-0.1,0-0.1,0c0.3,0.7,0.6,1.6,1.5,1.7c0.2,0,0.3,0,0.5,0c-0.1,0-0.2,0.1-0.3,0.1c-0.2,0.1-0.9,0.2-1-0.1  c0-0.1-0.2-0.1-0.1,0c0,0,0,0,0,0c-0.3-0.2-0.6-0.5-0.8-0.9c0,0,0,0,0,0c0,0,0,0,0,0c0,0,0,0,0,0c0,0,0.3,0.6,0.4,0.8  c-0.2-0.2-0.4-0.4-0.5-0.6c-0.1-0.1-0.1-0.2-0.2-0.2c0,0,0,0,0,0c0.1,0.1,0.3,0.6,0.4,0.8c0.1,0.1,0.2,0.2,0.3,0.3c0,0,0,0.1,0,0.1  c-0.1,0,0.2,0.4,0.2,0.4c0,0,0.1,0.1,0.1,0.1c0,0,0,0,0,0c-0.1,0,0,0.1,0,0.1c0.1,0,0.1,0,0.2,0c0.1,0,0.1,0.1,0.2,0.1  c0.4,0.2,0.8,0.2,1.2,0.1c0.2,0,0.4,0,0.6,0c-0.2,0.1-0.5,0.3-0.7,0.4c-0.3,0.1-0.6,0.1-1,0.1c-0.9-0.2-1.6-1-1.8-1.9c0,0,0,0,0,0  c0,0,0,0,0,0c0,0,0,0,0,0.1c0,0,0.2,0.4,0.3,0.8l0,0c0,0,0,0,0,0.1c0,0,0,0,0,0c0,0.1,0.1,0.1,0.1,0l0,0c-0.1,0.4,0.3,1.1,0.6,1.4  c0.4,0.4,0.9,0.6,1.4,0.7c1,0.2,2.1-0.2,3-0.8c0.1-0.1,0.3-0.2,0.4-0.3c-0.5,0.7-1.5,1.6-2.4,1.4c0,0,0,0,0,0c1,0.7,2.6-1.2,3.1-1.9  c0-0.1,0.1-0.1,0.1-0.2c0.1,0,0.1-0.1,0.2-0.1c0.6-0.4,0.7-1.1,0.9-1.8c0,0,0-0.1,0-0.1c0.1-0.2,0.2-0.3,0.2-0.5c0,0.4,0,0.8,0,1.2  c-0.1,0.5-0.5,1.5-1,1.8c0,0,0,0.1,0,0c0.7-0.4,1.2-1.5,1.2-2.3c0-0.4-0.1-1,0-1.6c0.1-0.2,0.2-0.4,0.3-0.6c0.3-0.2,0.6-0.3,1-0.3  c0.1,0,0.1,0,0.2,0c0,0.1,0.1,0.2,0.2,0.2c0,0.1,0.1,0.1,0.2,0.1c0,0.1,0.1,0.1,0.2,0c0,0,0,0,0,0c0,0,0,0,0,0  c-0.1,0.5-0.1,0.9-0.2,1.4c0,1.2,0.5,2.1,1.3,3c0.5,0.6,0.3,1.2-0.2,1.7c-0.5,0-1,0-1.5,0.2c-0.5,0.2-1.1,0.3-1.6,0.6  c-0.4,0.2-0.7,0.4-1,0.6c-1.4,0.8-2.9,1.9-3.9,3.3c-0.6,0.8,0,1,0.5,1.7c0.6,0.8,1.2,1.5,1.9,2.3c0.7,0.7,1.4,1.3,2.2,1.8  c0.2,0.7,0.3,1.3,0.5,2c0.1,0.6,0.1,1.1,0.1,1.7c0,0.8-0.3,1-0.9,1.5c-0.8,0.7-1.8,1.1-2.3,2.1c-0.2,0.4-0.5,0.8-0.7,1.3  c-0.2,0.4-0.2,0.8-0.3,1.2c-0.2,0.9-0.6,1.7-0.8,2.6c-0.1,0.6-0.3,1.1-0.6,1.6c-0.2,0.4-0.3,1-0.6,1.4c-0.3,0.4-0.5,1-0.7,1.5  c-0.2,0.5-0.5,0.9-0.8,1.4c-0.3,0.5-0.6,1-0.9,1.5c0,0.1-0.1,0.2-0.2,0.3c-0.1,0-0.2,0-0.3,0c-0.6,0-1.2-0.1-1.8-0.1  c-0.6,0-1.2,0-1.7,0.3c-0.6,0.2-1,0.7-1.6,1c-1.1,0.7-2.1,1.3-3.2,2c-0.6,0.4-1.1,0.8-1.8,1.2c-0.1,0.1-0.3,0.1-0.4,0.2  c0,0,0,0-0.1,0c-0.4-0.1-0.9-0.3-1.3-0.3c-0.6-0.1-0.8-0.2-1.3,0.1c-0.3,0.2-0.5,0.5-0.5,0.9C-0.7,57.6-0.4,59-1.3,60  C-1.8,60.5-2.2,61.6-2,62.4z M15.4,18.4c0,0-0.1,0-0.1,0c-0.2-0.1-0.4-0.2-0.5-0.4C15,18.1,15.1,18.3,15.4,18.4z M18.4,16.4  c-0.2,0.4-0.5,0.7-1,1.1c-0.3,0.2-0.6,0.4-1,0.4c0.1,0,0.1-0.1,0.2-0.1c0.2-0.1,0.3-0.2,0.5-0.4C17.5,17.2,18,16.9,18.4,16.4z   M18.5,17.4C18.6,17.4,18.6,17.3,18.5,17.4c0.2-0.2,0.3-0.3,0.4-0.4c0,0,0.1-0.1,0.1-0.1c0,0.1,0,0.2,0,0.2c0,0,0,0,0,0  c-0.2,0.2-0.5,0.5-0.8,0.7C18.3,17.6,18.4,17.5,18.5,17.4z M19.4,12.8c0,0,0,0.1-0.1,0.1c0,0.1-0.1,0.1-0.1,0.2  c-0.4,0.4-0.7,1.1-1.1,1.6c0.1-0.3,0.2-0.5,0.3-0.8C18.7,13.5,19,13.1,19.4,12.8z M20.1,16.6c-0.2,0.4-0.4,0.7-0.6,1.1  c-0.2,0.2-0.3,0.5-0.5,0.8c0,0-0.1,0.1-0.1,0.1c-0.3,0.2-0.7,0.3-1.1,0.5c-0.1,0-0.1,0-0.2,0c0.7-0.3,1.4-0.7,1.7-1.3  c0.1-0.2,0.2-0.4,0.2-0.6c0.1-0.1,0.2-0.2,0.3-0.3C19.9,16.9,20,16.7,20.1,16.6z M21.2,13.2c0.1,0,0.2,0,0.3,0c0,0,0,0-0.1,0  c-0.4,0.1-0.7,0.2-1,0.4C20.6,13.4,20.8,13.2,21.2,13.2z M22.1,12.6c-0.1,0-0.1,0-0.2,0c-0.3-0.1-0.6-0.1-1-0.1c0,0,0.1,0,0.1-0.1  c0.1,0,0.2,0,0.4,0c0.1,0,0.2,0,0.3,0C21.9,12.5,22,12.5,22.1,12.6z M22.1,25.8c-0.1,0.1-0.1,0.3-0.2,0.4c0,0,0,0,0,0l0,0  c0,0,0,0,0,0c0,0,0,0,0,0c0,0.1-0.1,0.1-0.1,0.2c0,0.1,0,0.2-0.1,0.4c-0.2,0.5,0,1.1-0.1,1.6c0,0.1-0.1,0.1-0.1,0.1  c-0.2-0.2-0.4-0.5-0.5-0.7c-0.2-0.4-0.5-0.7-0.6-1.1c0,0,0-0.1,0-0.1c0.4-0.2,1-0.2,1.4-0.6c0,0,0,0,0,0  C21.9,25.8,22,25.8,22.1,25.8C22,25.7,22,25.7,22.1,25.8C22,25.7,22,25.7,22.1,25.8C22.1,25.7,22.1,25.7,22.1,25.8  C22.1,25.8,22.1,25.8,22.1,25.8C22.1,25.8,22.1,25.8,22.1,25.8z" id="XMLID_2_"/>
</svg>