<?xml version="1.0" ?><!-- Generator: Adobe Illustrator 19.0.0, SVG Export Plug-In . SVG Version: 6.00 Build 0)  --><svg id="图层_1" style="enable-background:new -9 11 60 60;" version="1.1" viewBox="-9 11 60 60" x="0px" xml:space="preserve" xmlns="http://www.w3.org/2000/svg" xmlns:xlink="http://www.w3.org/1999/xlink" y="0px" zn="过敏指数">
<style type="text/css">
	.IrritabilityIndex_st0{fill:#39EAEA;}
</style>
<path class="IrritabilityIndex_st0" d="M49.3,11.4l-55.8,0c-1.6,21.9-1.1,31.9,2.6,40.8c6.6,15.5,19.2,18.2,25.4,18.4  c5.8,0,19.3-9,23.5-19.5C50.5,37.2,49.3,11.4,49.3,11.4z M-1.7,23.2h2.4c0,3.3,2.8,5.9,6.3,5.9s6.3-2.6,6.3-5.9h2.4  c0,4.6-3.9,8.3-8.7,8.3S-1.7,27.7-1.7,23.2z M32.9,54.1c-4-9.1-8.4-13.9-12.5-13.9c0,0-0.1,0-0.1,0C13.1,40.3,7.6,53.9,7.6,54  l-2.2-0.9c0.2-0.6,6-15.2,14.8-15.4c0.1,0,0.1,0,0.2,0c5.2,0,10.2,5.1,14.7,15.3L32.9,54.1z M33.3,31.4c-4.8,0-8.7-3.7-8.7-8.3H27  c0,3.3,2.8,5.9,6.3,5.9s6.3-2.6,6.3-5.9H42C42,27.7,38.1,31.4,33.3,31.4z" id="XMLID_23_"/>
</svg>