<?xml version="1.0" ?><!-- Generator: Adobe Illustrator 19.0.0, SVG Export Plug-In . SVG Version: 6.00 Build 0)  --><svg id="图层_1" style="enable-background:new -9 11 60 60;" version="1.1" viewBox="-9 11 60 60" x="0px" xml:space="preserve" xmlns="http://www.w3.org/2000/svg" xmlns:xlink="http://www.w3.org/1999/xlink" y="0px" zn="舒适度指数">
<style type="text/css">
	.LevelIndex_st0{fill:#39EAEA;}
</style>
<path class="LevelIndex_st0" d="M49.2,11.5l-55.6,0C-8,33.3-7.6,43.3-3.8,52.2c6.6,15.5,19.1,18.2,25.3,18.3  c5.8,0,19.2-9,23.4-19.4C50.4,37.3,49.2,11.5,49.2,11.5z M-1.6,23.2h2.3c0,3.2,2.8,5.9,6.3,5.9c3.5,0,6.3-2.6,6.3-5.9h2.3  c0,4.5-3.9,8.2-8.6,8.2S-1.6,27.8-1.6,23.2z M20.4,54.7c-0.1,0-0.2,0-0.3,0c-10-0.2-16.7-14.6-17-15.2l2.1-1  c0.1,0.1,6.4,13.7,14.9,13.9c5.1,0.1,10.1-4.6,15-13.9l2.1,1.1C32,49.6,26.3,54.7,20.4,54.7z M33.3,31.5c-4.8,0-8.7-3.7-8.7-8.2H27  c0,3.2,2.8,5.9,6.3,5.9s6.3-2.6,6.3-5.9H42C42,27.8,38.1,31.5,33.3,31.5z" id="XMLID_23_"/>
</svg>