<?xml version="1.0" ?><!-- Generator: Adobe Illustrator 19.0.0, SVG Export Plug-In . SVG Version: 6.00 Build 0)  --><svg id="图层_1" style="enable-background:new -9 11 60 60;" version="1.1" viewBox="-9 11 60 60" x="0px" xml:space="preserve" xmlns="http://www.w3.org/2000/svg" xmlns:xlink="http://www.w3.org/1999/xlink" y="0px" zn="路面湿滑指数">
<style type="text/css">
	.PavementSlipperyIndex_st0{fill:#00FFDA;}
</style>
<g>
	<path class="PavementSlipperyIndex_st0" d="M-2.7,35.5l0-1.6l15.9,0l0,1.6c0,0.3,0.3,0.6,0.6,0.6l4.4,0c0.3,0,0.6-0.3,0.6-0.6c0-1.4,0-3.8,0-8.1   c0-0.9-0.2-1.5-0.6-2l-0.7-0.8l1.6-0.7c0.1-0.1,0.2-0.1,0.2-0.2l-0.3-1c-0.1-0.3-0.4-0.6-0.7-0.6l-2.8,0l-2.4-3   c-0.1-0.2-0.4-0.5-0.9-0.5c-5.4-0.3-8.4-0.4-13.7,0c-0.5,0.1-0.8,0.4-1,0.5L-5,22l-2.8,0c-0.3,0-0.7,0.3-0.7,0.6l-0.3,1   c0,0.1,0.1,0.2,0.2,0.2l1.6,0.7l-0.7,0.8c-0.4,0.5-0.6,1.2-0.6,2c0,4.3,0,6.7,0,8.1c0,0.3,0.3,0.6,0.6,0.6l4.4,0   C-2.9,36.1-2.7,35.8-2.7,35.5z M12.1,27.7c0-0.5,0.4-0.9,0.9-1l3.9-0.5c0.2,0,0.4,0.2,0.4,0.4l0,0.8c0,0.6-0.5,1.1-1,1.1l-3.9,0.1   c-0.1,0-0.3-0.1-0.3-0.3L12.1,27.7z M-6.7,27.4l0-0.8c0-0.2,0.2-0.4,0.4-0.4l3.9,0.5c0.5,0.1,0.9,0.4,0.9,1l0,0.7   c0,0.1-0.1,0.3-0.3,0.3l-3.9-0.2C-6.2,28.5-6.7,28-6.7,27.4z"/>
	<path class="PavementSlipperyIndex_st0" d="M-2.6,37.8h-4.2c-2.7,13.8,5.6,17.4,7.5,26h13.1C11.2,54.3-4.7,50.7-2.6,37.8z"/>
	<path class="PavementSlipperyIndex_st0" d="M18.5,37.8h-4.7c6.1,24,17.7,8.5,23.9,26h13.1C43.8,43,24.5,59.2,18.5,37.8z"/>
</g>
</svg>