<?xml version="1.0" ?><!-- Generator: Adobe Illustrator 19.0.0, SVG Export Plug-In . SVG Version: 6.00 Build 0)  --><svg id="图层_1" style="enable-background:new -9 11 60 60;" version="1.1" viewBox="-9 11 60 60" x="0px" xml:space="preserve" xmlns="http://www.w3.org/2000/svg" xmlns:xlink="http://www.w3.org/1999/xlink" y="0px" zn="PM2.5指数">
<style type="text/css">
	.PM2dot5Index_st0{fill-rule:evenodd;clip-rule:evenodd;fill:#44CDF2;}
</style>
<g id="XMLID_23_">
	<path class="PM2dot5Index_st0" d="M12.7,69.6l1.4-9.7c0,0,1.4-4.3-2.6-3.3l-2.9,0.9c0,0-3.3,0.6-4.2-1.5l-3.4-6l-1.3-13L5,30.6   l-1-1.9l2.2-6.7c0,0,1.6-0.6,2.7-2.1l2.9-4.6c0,0,4.1-5,18.2-1.9c14.1,3.1,12.7,21.3,11.8,23.7c-0.9,2.4-11.1,8.7-7.5,23.8   C34.2,60.9,21.8,64.2,12.7,69.6L12.7,69.6z M16.7,34.9c0.5,0,0.8,0.4,0.8,0.9c0,0.5-0.4,0.9-0.8,0.9c-0.5,0-0.8-0.4-0.8-0.9   C15.9,35.3,16.3,34.9,16.7,34.9L16.7,34.9z M18,36.3c0.5,0,0.8,0.4,0.8,0.9c0,0.5-0.4,0.9-0.8,0.9c-0.5,0-0.8-0.4-0.8-0.9   C17.2,36.7,17.6,36.3,18,36.3L18,36.3z M20.2,46.2c0.5,0,0.8,0.4,0.8,0.9c0,0.5-0.4,0.9-0.8,0.9c-0.5,0-0.8-0.4-0.8-0.9   C19.4,46.5,19.8,46.2,20.2,46.2L20.2,46.2z M20.2,48.2c0.5,0,0.8,0.4,0.8,0.9c0,0.5-0.4,0.9-0.8,0.9c-0.5,0-0.8-0.4-0.8-0.9   C19.4,48.6,19.8,48.2,20.2,48.2L20.2,48.2z M15.7,65.5l0.7-6.1c0,0,1.2-3.5-2.8-4.8l5.1-4.3L17.2,39l-2.5-3.2l-8.4-3.7L7,30.5   l-0.8-1.9l1.3-4.7c0,0,2.6-1.8,2.9-2.7l3.2-4.4c0,0,16.4-6.2,22.4,3.4L17.9,34.5l1.7,1.9l17.7-14.3c0,0,2.9,3.9,2.9,11.8   c0,5.2-3.5,2.5-8,14.4l-10.3-1.3l-0.2,2.3l9.9,0.8c0,0-0.8,5,0.1,9.3C31.6,59.2,19.5,62.6,15.7,65.5L15.7,65.5z" id="XMLID_39_"/>
</g>
</svg>