<?xml version="1.0" ?><!-- Generator: Adobe Illustrator 19.0.0, SVG Export Plug-In . SVG Version: 6.00 Build 0)  --><svg id="图层_1" style="enable-background:new -9 11 60 60;" version="1.1" viewBox="-9 11 60 60" x="0px" xml:space="preserve" xmlns="http://www.w3.org/2000/svg" xmlns:xlink="http://www.w3.org/1999/xlink" y="0px" zn="降水量">
<style type="text/css">
	.precipitation_st0{fill:#9BDB09;}
</style>
<g id="XMLID_1_">
	<path class="precipitation_st0" d="M48.1,38.6L48.1,38.6l-5.9-3.3c-0.2-0.1-0.4,0-0.4,0.2l-0.1,6.7l0,0c-0.1,2.6,2.1,4.8,4.7,4.6   c1.4-0.1,2.5-0.8,3.3-1.9C51.2,42.8,50.4,39.9,48.1,38.6z" id="XMLID_97_"/>
	<path class="precipitation_st0" d="M-2.1,38.6L-2.1,38.6L-8,35.3c-0.2-0.1-0.4,0-0.4,0.2l-0.1,6.7l0,0c-0.1,2.6,2.1,4.8,4.7,4.6   c1.4-0.1,2.5-0.8,3.3-1.9C1,42.8,0.2,39.9-2.1,38.6z" id="XMLID_98_"/>
	<path class="precipitation_st0" d="M23.4,38.6L23.4,38.6l-5.9-3.3c-0.2-0.1-0.4,0-0.4,0.2L17,42.3l0,0c-0.1,2.6,2.1,4.8,4.7,4.6   c1.3-0.1,2.5-0.8,3.3-1.9C26.5,42.8,25.7,39.9,23.4,38.6z" id="XMLID_99_"/>
	<path class="precipitation_st0" d="M14.1,51L14.1,51L7,47c-0.2-0.1-0.5,0-0.5,0.3l-0.1,8.2l0,0c-0.1,3.2,2.6,5.8,5.7,5.6   c1.6-0.1,3.1-1,4-2.3C17.8,56.1,16.9,52.5,14.1,51z" id="XMLID_103_"/>
	<path class="precipitation_st0" d="M39.5,51L39.5,51l-7.1-4c-0.2-0.1-0.5,0-0.5,0.3l-0.1,8.2l0,0c-0.1,3.2,2.6,5.8,5.7,5.6   c1.6-0.1,3.1-1,4-2.3C43.3,56.1,42.4,52.5,39.5,51z" id="XMLID_104_"/>
	<path class="precipitation_st0" d="M33.5,35c1.6-0.1,3.1-1,4-2.3c1.8-2.6,0.8-6.2-2-7.8l0,0l-7.1-4c-0.2-0.1-0.5,0-0.5,0.3   l-0.1,8.2l0,0C27.6,32.6,30.3,35.3,33.5,35z" id="XMLID_105_"/>
	<path class="precipitation_st0" d="M8,35c1.6-0.1,3.1-1,4-2.3c1.8-2.6,0.8-6.2-2-7.8l0,0l-7.1-4c-0.2-0.1-0.5,0-0.5,0.3l-0.1,8.2   l0,0C2.2,32.6,4.8,35.3,8,35z" id="XMLID_112_"/>
</g>
</svg>