<?xml version="1.0" ?><!-- Generator: Adobe Illustrator 19.0.0, SVG Export Plug-In . SVG Version: 6.00 Build 0)  --><svg id="图层_1" style="enable-background:new -9 11 60 60;" version="1.1" viewBox="-9 11 60 60" x="0px" xml:space="preserve" xmlns="http://www.w3.org/2000/svg" xmlns:xlink="http://www.w3.org/1999/xlink" y="0px" zn="爆胎指数">
<style type="text/css">
	.PuncturedIndex_st0{fill-rule:evenodd;clip-rule:evenodd;fill:#39EAEA;}
</style>
<path class="PuncturedIndex_st0" d="M14.8,18.6c1.5,0,3,0.2,4.4,0.6c0.1,0.5,1.1,0.8,1.5,0.4c1.4,0.4,2.8,1,4.1,1.7  c0,0.5,0.9,1,1.3,0.8c1.3,0.8,2.4,1.7,3.5,2.7c-0.1,0.5,0.6,1.2,1.1,1.1c1,1.1,1.9,2.3,2.7,3.5c-0.3,0.5,0.2,1.3,0.8,1.3  c0.7,1.3,1.3,2.7,1.7,4.1c-0.4,0.4-0.1,1.3,0.4,1.5c0.3,1.4,0.5,2.9,0.6,4.4c-0.5,0.3-0.5,1.3,0,1.5c0,1.5-0.2,3-0.6,4.4  c-0.5,0.1-0.8,1.1-0.4,1.5c-0.4,1.4-1,2.8-1.7,4.1c-0.3,0-0.6,0.3-0.7,0.6c-1.4-0.9-3.1-2.1-4.4-3.2c1.3-2.4,2.1-5.2,2.1-8.1  c0-9.4-7.6-17-17-17s-17,7.6-17,17c0,9.4,7.6,17,17,17c5.5,0,10.3-2.6,13.4-6.6c-0.2-0.2-0.3-0.3-0.4-0.4c-0.7-0.7,0.6-2.3,1.5-1.5  c0.4,0.4,3.2,2.4,3.7,2.8c6.4,4.7,14.1,0.3,12-6.4c-1.6-5-3.1-4.2-2.4-10.6h-2.1V33c-2.8-1.2-4.7-4-4.7-7.2c0-4.3,3.5-7.9,7.9-7.9  s7.9,3.5,7.9,7.9c0,3.2-2,6-4.7,7.2v2.7h-2.1c-0.8,5.9,0.8,5.4,2.2,10c2.6,8-6.3,14.2-14,9.4c-0.5,0.6-0.9,1.2-1.4,1.7  c-0.5-0.1-1.2,0.6-1.1,1.1c-1.1,1-2.3,1.9-3.5,2.7c-0.5-0.3-1.3,0.2-1.3,0.8c-1.3,0.7-2.7,1.3-4.1,1.7c-0.4-0.4-1.3-0.1-1.5,0.4  c-1.4,0.3-2.9,0.5-4.4,0.6c-0.3-0.5-1.3-0.5-1.5,0c-1.5,0-3-0.2-4.4-0.6c-0.1-0.5-1.1-0.8-1.5-0.4c-1.4-0.4-2.8-1-4.1-1.7  c0-0.5-0.9-1-1.3-0.8C0.8,59.9-0.4,59-1.5,58c0.1-0.5-0.6-1.2-1.1-1.1c-1-1.1-1.9-2.3-2.7-3.5c0.3-0.5-0.2-1.3-0.8-1.3  c-0.7-1.3-1.3-2.7-1.7-4.1c0.4-0.4,0.1-1.3-0.4-1.5c-0.3-1.4-0.5-2.9-0.6-4.4c0.5-0.3,0.5-1.3,0-1.5c0-1.5,0.2-3,0.6-4.4  c0.5-0.1,0.8-1.1,0.4-1.5c0.4-1.4,1-2.8,1.7-4.1c0.5,0,1-0.9,0.8-1.3c0.8-1.3,1.7-2.4,2.7-3.5c0.5,0.1,1.2-0.6,1.1-1.1  c1.1-1,2.2-1.9,3.5-2.7c0.5,0.3,1.3-0.2,1.3-0.8C4.6,20.6,6,20,7.4,19.6c0.4,0.4,1.3,0.1,1.5-0.4c1.4-0.3,2.9-0.5,4.4-0.6  C13.6,19.1,14.5,19.1,14.8,18.6L14.8,18.6z M42.8,19.8c-3.3,0-5.9,2.7-5.9,5.9s2.7,5.9,5.9,5.9c3.3,0,5.9-2.7,5.9-5.9  S46.1,19.8,42.8,19.8L42.8,19.8z M42.8,20.9c-2.7,0-4.9,2.2-4.9,4.9c0,0.8,0.2,1.5,0.5,2.2c-0.1-0.3-0.1-0.7-0.1-1  c0-2.6,1.9-4.7,4.3-4.8c0.8,0,1.5,0.2,2.1,0.6l1.5-0.4C45.5,21.5,44.2,20.9,42.8,20.9L42.8,20.9z M44,23.6c-0.6-0.3-1.2-0.4-1.9-0.2  c-1.3,0.4-2,1.8-1.6,3.1c0.4,1.3,1.8,2,3.1,1.6c1.1-0.3,1.8-1.4,1.7-2.4l1.9-2.2l-0.4-0.6L44,23.6L44,23.6z M43.8,25.2  c-0.3-0.5-1.1-0.7-1.6-0.4c-0.5,0.3-0.7,1.1-0.4,1.6c0.3,0.5,1.1,0.7,1.6,0.4C44,26.4,44.1,25.7,43.8,25.2L43.8,25.2z M10.9,39.2  c-0.4,0-0.7,0.2-0.8,0.6c-0.1,0.2-0.1,0.4,0,0.5c0.1,0.4,0.6,0.7,1.1,0.6c0.4-0.1,0.7-0.6,0.6-1.1C11.6,39.5,11.3,39.2,10.9,39.2  L10.9,39.2z M11.8,43.3c-0.4,0-0.7,0.2-0.8,0.6c-0.1,0.2-0.1,0.4,0,0.5c0.2,0.4,0.6,0.7,1.1,0.6c0.4-0.1,0.7-0.6,0.6-1.1  C12.5,43.5,12.2,43.3,11.8,43.3L11.8,43.3z M16.3,43.3c-0.4,0-0.7,0.2-0.8,0.6c-0.1,0.5,0.1,0.9,0.6,1.1c0.2,0.1,0.4,0.1,0.5,0  c0.4-0.1,0.7-0.6,0.6-1.1C17,43.5,16.6,43.3,16.3,43.3L16.3,43.3z M17.2,39.2c-0.4,0-0.7,0.2-0.8,0.6c-0.1,0.5,0.1,0.9,0.6,1.1  c0.4,0.1,0.9-0.1,1.1-0.6C18.2,39.8,17.8,39.2,17.2,39.2L17.2,39.2z M14,36.7c-0.4,0-0.7,0.2-0.8,0.6c-0.2,0.7,0.4,1.3,1.1,1.1  c0.4-0.1,0.7-0.6,0.6-1.1C14.7,36.9,14.4,36.7,14,36.7L14,36.7z M14,39.7c-0.9,0-1.6,0.7-1.6,1.6c0,0.9,0.7,1.6,1.6,1.6  c0.9,0,1.6-0.7,1.6-1.6C15.6,40.5,14.9,39.7,14,39.7L14,39.7z M27.3,38.6c-0.2-0.3-0.6-0.4-1-0.2c-1.9,0.7-3.8,1.8-5.7,2.8  c-0.5,0.3-1.1,0.4-1.4,0.8c-0.3,0.3-0.4,0.7-0.3,1.1c0.1,0.5,0.4,0.9,0.7,1.4c1,1.9,1.9,3.9,3,5.6c0.2,0.3,0.6,0.5,0.9,0.4  C27,49.2,29.5,41.6,27.3,38.6L27.3,38.6z M15.8,27.8c-0.3,0.1-0.5,0.5-0.5,0.9c0.1,2,0.5,4.2,0.9,6.3c0.1,0.6,0.1,1.1,0.3,1.6  c0.2,0.3,0.5,0.6,0.9,0.7c0.5,0.1,1-0.1,1.6-0.2c2.1-0.4,4.3-0.6,6.3-1.1c0.4-0.1,0.7-0.4,0.7-0.7C25.9,31.4,19.4,26.7,15.8,27.8  L15.8,27.8z M12.3,27.8c-3.6-1.1-10.1,3.6-10.1,7.3c0,0.4,0.3,0.6,0.7,0.7c2,0.5,4.1,0.8,6.3,1.1c0.6,0.1,1.1,0.3,1.6,0.2  c0.4-0.1,0.7-0.3,0.9-0.7c0.2-0.4,0.2-1,0.3-1.6c0.3-2.1,0.8-4.3,0.9-6.3C12.8,28.3,12.6,27.9,12.3,27.8L12.3,27.8z M0.8,38.6  c-2.2,3.1,0.3,10.7,3.9,11.9C5,50.5,5.3,50.4,5.6,50c1.1-1.7,2-3.7,3-5.6c0.3-0.5,0.6-1,0.7-1.4c0-0.4-0.1-0.8-0.3-1.1  c-0.3-0.4-0.9-0.5-1.4-0.8c-1.9-1-3.8-2-5.7-2.8C1.4,38.2,1,38.3,0.8,38.6L0.8,38.6z M7.8,53.2c2.2,3,10.2,3,12.5,0  c0.2-0.3,0.2-0.7-0.1-1c-1.3-1.6-2.9-3-4.4-4.6c-0.4-0.4-0.7-0.9-1.2-1.1c-0.4-0.2-0.8-0.2-1.1,0c-0.4,0.2-0.8,0.7-1.2,1.1  c-1.5,1.5-3.1,3-4.4,4.6C7.7,52.6,7.6,53,7.8,53.2L7.8,53.2z M14,25.9c-8.5,0-15.4,6.9-15.4,15.4c0,8.5,6.9,15.4,15.4,15.4  c8.5,0,15.4-6.9,15.4-15.4C29.5,32.8,22.6,25.9,14,25.9z" id="XMLID_23_"/>
</svg>