<?xml version="1.0" encoding="utf-8"?>
<!-- Generator: Adobe Illustrator 19.0.0, SVG Export Plug-In . SVG Version: 6.00 Build 0)  -->
<svg version="1.1" id="图层_1" xmlns="http://www.w3.org/2000/svg" xmlns:xlink="http://www.w3.org/1999/xlink" x="0px" y="0px" zn="紫外线指数"
	 viewBox="0 0 60 60" style="enable-background:new 0 0 60 60;" xml:space="preserve">
<style type="text/css">
	.stabc0{fill:#00BEFF;}
</style>
<g id="XMLID_12827_">
	<path id="XMLID_12828_" class="stabc0" d="M20,11.6C20,11.7,20,11.7,20,11.6c0.7-0.3,1.4-0.7,2.2-1c0.5-0.2,1-0.4,1.5-0.5l-3.5-8.7
		c-0.4-1-1.6-1.5-2.6-1.1c-1,0.4-1.5,1.6-1.1,2.6L20,11.6z"/>
	<path id="XMLID_12829_" class="stabc0" d="M31,9.1l0-3.9c0-0.7-0.6-1.4-1.4-1.4c-0.7,0-1.4,0.6-1.4,1.4l0,3.9
		C29.2,9.1,30.1,9.1,31,9.1z"/>
	<path id="XMLID_12830_" class="stabc0" d="M14.1,16.5c0.6-0.7,1.2-1.3,1.9-2l-2.7-2.7c-0.5-0.5-1.4-0.5-1.9,0c-0.5,0.5-0.5,1.4,0,1.9
		L14.1,16.5z"/>
	<path id="XMLID_12831_" class="stabc0" d="M1.2,20.4l8.7,3.7c0,0,0,0,0,0c0.4-1.3,0.9-2.5,1.5-3.7l-8.7-3.7c-1-0.4-2.2,0-2.6,1.1
		C-0.3,18.8,0.2,20,1.2,20.4z"/>
	<path id="XMLID_12832_" class="stabc0" d="M54.7,31c0.2,0,0.3,0,0.5-0.1c0.5-0.2,0.8-0.7,0.8-1.3c0-0.7-0.6-1.4-1.4-1.4l-3.9,0
		c0.1,0.9,0.1,1.8,0,2.7L54.7,31z"/>
	<path id="XMLID_12833_" class="stabc0" d="M5.3,29c-0.7,0-1.4,0.6-1.4,1.4c0,0.7,0.6,1.4,1.4,1.4l3.9,0c-0.1-0.9-0.1-1.8,0-2.7L5.3,29
		z"/>
	<path id="XMLID_12834_" class="stabc0" d="M48.3,20c0.4,0.7,0.7,1.4,1,2.2c0.2,0.5,0.4,1,0.5,1.5l8.7-3.5c1-0.4,1.5-1.6,1.1-2.6
		c-0.4-1-1.6-1.5-2.6-1.1L48.3,20C48.3,20,48.3,20,48.3,20z"/>
	<path id="XMLID_12835_" class="stabc0" d="M45.5,16l2.7-2.7c0.5-0.5,0.5-1.4,0-1.9c-0.5-0.5-1.4-0.5-1.9,0l-2.8,2.8
		C44.2,14.7,44.8,15.3,45.5,16z"/>
	<path id="XMLID_12836_" class="stabc0" d="M43.3,2.8c0.4-1,0-2.2-1.1-2.6c-1-0.4-2.2,0-2.6,1.1l-3.7,8.7c0,0,0,0,0,0
		c1.3,0.4,2.5,0.9,3.7,1.5L43.3,2.8z"/>
	<path id="XMLID_12837_" class="stabc0" d="M45.9,43.5c-0.6,0.7-1.2,1.3-1.9,2l2.7,2.7c0.4,0.4,1,0.5,1.5,0.3c0.2-0.1,0.3-0.2,0.5-0.3
		c0.5-0.5,0.5-1.4,0-1.9L45.9,43.5z"/>
	<circle id="XMLID_12838_" class="stabc0" cx="30" cy="30" r="16.4"/>
	<path id="XMLID_12839_" class="stabc0" d="M40,48.4C40,48.3,40,48.3,40,48.4c-0.7,0.3-1.4,0.7-2.2,1c-0.5,0.2-1,0.4-1.5,0.5l3.5,8.7
		c0.4,1,1.6,1.5,2.6,1.1c1-0.4,1.5-1.6,1.1-2.6L40,48.4z"/>
	<path id="XMLID_12840_" class="stabc0" d="M58.8,39.6l-8.7-3.7c0,0,0,0,0,0c-0.4,1.3-0.9,2.5-1.5,3.7l8.7,3.7c0.5,0.2,1.1,0.2,1.5,0
		c0.5-0.2,0.9-0.6,1.1-1.1C60.3,41.2,59.8,40,58.8,39.6z"/>
	<path id="XMLID_12841_" class="stabc0" d="M14.5,44l-2.7,2.7c-0.5,0.5-0.5,1.4,0,1.9c0.4,0.4,1,0.5,1.5,0.3c0.2-0.1,0.3-0.2,0.4-0.3
		l2.8-2.8C15.8,45.3,15.2,44.7,14.5,44z"/>
	<path id="XMLID_12842_" class="stabc0" d="M11.7,40c-0.4-0.7-0.7-1.4-1-2.2c-0.2-0.5-0.4-1-0.5-1.5l-8.7,3.5c-1,0.4-1.5,1.6-1.1,2.6
		c0.4,1,1.6,1.5,2.6,1.1L11.7,40C11.7,40,11.7,40,11.7,40z"/>
	<path id="XMLID_12843_" class="stabc0" d="M16.7,57.2c-0.4,1,0,2.2,1.1,2.6c0.5,0.2,1.1,0.2,1.5,0c0.5-0.2,0.9-0.6,1.1-1.1l3.7-8.7
		c0,0,0,0,0,0c-1.3-0.4-2.5-0.9-3.7-1.5L16.7,57.2z"/>
	<path id="XMLID_12844_" class="stabc0" d="M29,50.9l0,3.9c0,0.7,0.6,1.4,1.4,1.4c0.2,0,0.3,0,0.5-0.1c0.5-0.2,0.8-0.7,0.8-1.3l0-3.9
		C30.8,50.9,29.9,50.9,29,50.9z"/>
</g>
</svg>
