<?xml version="1.0" ?><!-- Generator: Adobe Illustrator 19.0.0, SVG Export Plug-In . SVG Version: 6.00 Build 0)  --><svg id="图层_1" style="enable-background:new -449 251 60 60;" version="1.1" viewBox="-449 251 60 60" x="0px" xml:space="preserve" xmlns="http://www.w3.org/2000/svg" xmlns:xlink="http://www.w3.org/1999/xlink" y="0px" zn="路基温度">
<style type="text/css">
	.RoadbedTemperature_st0{fill:#00FFDA;}
</style>
<g>
	<path class="RoadbedTemperature_st0" d="M-409.3,262.3v-0.1c0,0,0-0.1-0.1-0.1h-0.3l-0.3-0.4c0,0,0-0.1-0.1-0.1c-0.6,0-1,0-1.6,0c-0.1,0-0.1,0-0.1,0.1   l-0.3,0.4h-0.3c0,0-0.1,0-0.1,0.1v0.1l0,0l0.2,0.1l-0.1,0.1c0,0.1-0.1,0.1-0.1,0.2c0,0.5,0,0.8,0,1c0,0,0,0.1,0.1,0.1h0.5   c0,0,0.1,0,0.1-0.1v-0.2h1.9v0.2c0,0,0,0.1,0.1,0.1h0.5c0,0,0.1,0,0.1-0.1c0-0.2,0-0.4,0-1c0-0.1,0-0.2-0.1-0.2V262.3L-409.3,262.3   L-409.3,262.3z M-411.8,262.8C-411.8,262.8-411.8,262.9-411.8,262.8h-0.5c-0.1,0-0.1-0.1-0.1-0.1v-0.1l0,0l0.5,0.1   C-411.8,262.6-411.8,262.7-411.8,262.8L-411.8,262.8z M-409.6,262.7c0,0.1-0.1,0.1-0.1,0.1h-0.5l0,0v-0.1c0-0.1,0-0.1,0.1-0.1   l0.5-0.1C-409.6,262.6-409.6,262.6-409.6,262.7L-409.6,262.7z"/>
	<path class="RoadbedTemperature_st0" d="M-400.2,287.1c-0.9-1.1-0.9-1.9,0.1-3c3.5-3.9,6.5-8,8.4-12.9c2.7-6.7,1-12.4-5-15.4c-2.5-1.3-5.2-2.2-7.9-2.7   c-11.5-1.9-23.1-1.4-34.6,0.4c-2.8,0.4-5.6,1.3-8.4,2c0,0.2,0.1,0.4,0.1,0.6c1-0.1,2.1-0.1,3.1-0.3c10-1.7,20-3,30.1-2   c4.7,0.4,9.4,1.1,13.7,3.4c4.6,2.5,6.3,6.4,4.8,11.4c-0.5,1.5-1,3.1-1.8,4.5c-3.7,6.8-8.8,12.5-14.9,17   c-8.3,6.1-16.9,11.9-25.4,17.8c-0.7,0.5-1.4,1.2-2,1.8c0.1,0.2,0.2,0.3,0.4,0.5c0.8-0.4,1.7-0.7,2.4-1.2c4.8-2.7,9.5-5.5,14.3-8   c1.5-0.8,3.3-1.4,4.9-1.5c7.8-0.2,15.7-0.2,23.6-0.2c1.1,0,2.2,0,3.8,0c-1.1-1.4-1.8-2.5-2.7-3.6   C-395.5,292.8-397.8,290-400.2,287.1z"/>
	<path class="RoadbedTemperature_st0" d="M-415.6,266.3c2-4.7,0.6-7.8-4.4-9.2c-6.4-1.8-13-0.9-19.7-0.9c-1,9.5-0.3,18.8-0.3,28.3   c6.7-2.3,12.5-5.7,17.6-9.9C-419.6,272.3-417.1,269.7-415.6,266.3z"/>
	<path class="RoadbedTemperature_st0" d="M-436.6,295l0.7,1.1c21.6-14.7,31.6-26,29.7-33.5c-1.5-6.2-9.7-7.1-10.9-7.3c-3.3-0.4-6.3-0.7-9.7-0.4   c0-0.1,8.1,1.2,9.5,1.5c1.2,0.3,8.4,1.2,9.7,6.5C-406.3,267.6-410.4,277.1-436.6,295z"/>
</g>
</svg>