<?xml version="1.0" ?><!-- Generator: Adobe Illustrator 19.0.0, SVG Export Plug-In . SVG Version: 6.00 Build 0)  --><svg id="图层_1" style="enable-background:new -9 11 60 60;" version="1.1" viewBox="-9 11 60 60" x="0px" xml:space="preserve" xmlns="http://www.w3.org/2000/svg" xmlns:xlink="http://www.w3.org/1999/xlink" y="0px" zn="旅游指数">
<style type="text/css">
	.TravelIndex_st0{fill:#44CDF2;}
</style>
<g>
	<path class="TravelIndex_st0" d="M49.8,43.8c-0.2-0.4-4.7-3.5-9.8-6.8c0.2-1.2,0.4-2.8,0.1-3.3c-0.4-0.7-1.8-0.7-2.3-0.1   c-0.2,0.3-0.3,1-0.3,1.8c-1.4-0.9-2.9-1.9-4.2-2.7c0.2-1.2,0.4-2.8,0.1-3.3c-0.4-0.7-1.8-0.7-2.3-0.1c-0.2,0.3-0.3,1-0.3,1.8   c-3.3-2.2-5.8-3.7-5.8-3.7s-0.4-4.2-0.5-8.8c-0.1-4.5-2.9-4.7-3.6-4.7s-3.5,0.2-3.6,4.7s-0.5,8.8-0.5,8.8S14.4,29,11,31.1   c0-0.8,0-1.5-0.3-1.8c-0.5-0.6-1.9-0.5-2.3,0.1c-0.3,0.5-0.1,2.1,0.1,3.3c-1.4,0.9-2.8,1.8-4.2,2.7c0-0.8,0-1.5-0.3-1.8   c-0.5-0.6-1.9-0.5-2.3,0.1c-0.3,0.5-0.1,2.1,0.1,3.3c-5.1,3.4-9.6,6.4-9.8,6.8c-0.3,1.1-0.3,3.1,0,3.3c0.2,0.1,5.4-2.3,9.8-4.4   c0.1,0.7,0.3,1.2,0.5,1.2s0.4-0.7,0.4-1.6c0.3-0.1,0.6-0.3,1-0.4c0.1,0.6,0.2,1,0.4,1s0.4-0.6,0.4-1.4c1.9-0.8,3.4-1.4,3.8-1.5   c0.1,0,0.1,0,0.2,0c0.1,0.7,0.2,1.1,0.4,1.1s0.3-0.5,0.4-1.3c0.3-0.1,0.7-0.1,1-0.2c0.1,0.6,0.2,1,0.4,1s0.3-0.5,0.4-1.2   c2.6-0.4,5.7-1,5.7-1s0.5,13,1.3,16.9s2.1,12,2.9,12s2-8.1,2.9-12c0.8-3.9,1.3-16.9,1.3-16.9s3.1,0.5,5.7,1   c0.1,0.7,0.2,1.2,0.4,1.2c0.2,0,0.3-0.4,0.4-1c0.4,0.1,0.7,0.1,1,0.2c0.1,0.7,0.2,1.3,0.4,1.3s0.3-0.5,0.4-1.1c0.1,0,0.1,0,0.2,0   c0.5,0.1,2,0.7,3.8,1.5c0.1,0.8,0.2,1.4,0.4,1.4s0.3-0.4,0.4-1c0.3,0.1,0.6,0.3,1,0.4c0,0.9,0.2,1.6,0.4,1.6s0.3-0.5,0.4-1.2   c4.5,2,9.6,4.5,9.8,4.4C50.3,46.9,50.3,44.9,49.8,43.8z"/>
	<path class="TravelIndex_st0" d="M18.2,57.8c-3.2,2.5-8.7,6.9-8.9,7.5c-0.4,0.9,0,2.6,0,2.6l10.3-3.4c-0.3-1.3-0.6-3-1.1-5.4   C18.4,58.7,18.3,58.3,18.2,57.8z"/>
	<path class="TravelIndex_st0" d="M23.7,57.8c-0.1,0.5-0.2,0.9-0.3,1.4c-0.5,2.4-0.8,4.1-1.1,5.4l10.3,3.4c0,0,0.4-1.7,0-2.6   C32.4,64.8,26.9,60.3,23.7,57.8z"/>
</g>
</svg>