<?xml version="1.0" ?><!-- Generator: Adobe Illustrator 19.0.0, SVG Export Plug-In . SVG Version: 6.00 Build 0)  --><svg id="图层_1" style="enable-background:new -9 11 60 60;" version="1.1" viewBox="-9 11 60 60" x="0px" xml:space="preserve" xmlns="http://www.w3.org/2000/svg" xmlns:xlink="http://www.w3.org/1999/xlink" y="0px" zn="能见度指数">
<style type="text/css">
	.VisibilityIndex_st0{fill:#00FFDA;}
</style>
<g>
	<polygon class="VisibilityIndex_st0" points="0.1,47 -8.5,56.4 -6.2,56.4 1.8,47  "/>
	<polygon class="VisibilityIndex_st0" points="7.3,40.4 6.2,40.4 2.3,44.6 3.8,44.6  "/>
	<polygon class="VisibilityIndex_st0" points="10.4,36.8 9.5,36.8 7.3,39.2 8.4,39.2  "/>
	<polygon class="VisibilityIndex_st0" points="12.4,34.5 11.6,34.5 10.2,36 11,36  "/>
	<polygon class="VisibilityIndex_st0" points="13.7,32.9 13.1,32.9 12.1,34 12.8,34  "/>
	<path class="VisibilityIndex_st0" d="M14,32.5l0.1-0.1l0,2c0,0.2,0.1,0.3,0.3,0.3l2.2,0c0.2,0,0.3-0.1,0.3-0.3l0-0.4l8.1,0l0,0.4   c0,0.2,0.1,0.3,0.3,0.3l2.2,0c0.2,0,0.3-0.1,0.3-0.3l0-1.9l0.1,0.1h0.6l-0.7-0.8l0-1.5c0-0.4-0.1-0.8-0.3-1l-0.3-0.4l0.8-0.4   c0.1,0,0.1-0.1,0.1-0.1L28,27.8c0-0.2-0.2-0.3-0.4-0.3l-1.4,0L24.9,26c-0.1-0.1-0.2-0.2-0.5-0.3c-2.4-0.1-4.7-0.1-7,0   c-0.3,0-0.4,0.2-0.5,0.3l-1.2,1.5l-1.4,0c-0.2,0-0.3,0.1-0.4,0.3l-0.1,0.5c0,0.1,0,0.1,0.1,0.1l0.8,0.4l-0.3,0.4   c-0.2,0.3-0.3,0.6-0.3,1l0,1.5l-0.7,0.8H14z M26.9,29.5c0.1,0,0.2,0.1,0.2,0.2l0,0.4c0,0.3-0.2,0.5-0.5,0.6l-2,0.1   c-0.1,0-0.1-0.1-0.1-0.1l0-0.4c0-0.3,0.2-0.5,0.5-0.5L26.9,29.5z M15.9,28.4l1.5-1.9c0.1-0.1,0.1-0.1,0.2-0.1   c2.7-0.2,3.8-0.2,6.5,0c0.1,0,0.2,0.1,0.2,0.1l1.5,1.9c0,0.1,0,0.2-0.1,0.1c-0.8,0-1.5-0.1-2.1-0.1c0.1-0.1,0.2-0.2,0.2-0.2   c0.1-0.2,0.2-0.8,0.2-1.1c0-0.5-0.5-0.7-0.9-0.7c-0.5,0-0.9,0.2-0.9,0.7c0,0.2,0,0.8,0.2,1.1c0,0.1,0.1,0.1,0.2,0.2   c-2.1,0-4,0-6.5,0.2C15.9,28.6,15.9,28.5,15.9,28.4z M15.1,29.6l2,0.2c0.3,0,0.5,0.2,0.5,0.5l0,0.4c0,0.1-0.1,0.1-0.1,0.1l-2-0.1   c-0.3,0-0.5-0.3-0.5-0.5l0-0.4C14.9,29.7,15,29.6,15.1,29.6z"/>
	<polygon class="VisibilityIndex_st0" points="41.9,47 40.2,47 48.2,56.4 50.5,56.4  "/>
	<polygon class="VisibilityIndex_st0" points="38.2,44.6 39.7,44.6 35.8,40.4 34.7,40.4  "/>
	<polygon class="VisibilityIndex_st0" points="33.6,39.2 34.7,39.2 32.5,36.8 31.6,36.8  "/>
	<polygon class="VisibilityIndex_st0" points="31,36 31.8,36 30.4,34.5 29.6,34.5  "/>
	<polygon class="VisibilityIndex_st0" points="29.2,34 29.9,34 28.9,32.9 28.3,32.9  "/>
	<polygon class="VisibilityIndex_st0" points="0.6,56.2 8.5,56.2 21,47.9 33.8,56.2 41.4,56.2 21,44.3  "/>
	<polygon class="VisibilityIndex_st0" points="11.5,41.4 15.2,41.4 21,37.5 27,41.4 30.4,41.4 21,35.8  "/>
</g>
</svg>