<?xml version="1.0" ?><!-- Generator: Adobe Illustrator 19.0.0, SVG Export Plug-In . SVG Version: 6.00 Build 0)  --><svg id="图层_1" style="enable-background:new -9 11 60 60;" version="1.1" viewBox="-9 11 60 60" x="0px" xml:space="preserve" xmlns="http://www.w3.org/2000/svg" xmlns:xlink="http://www.w3.org/1999/xlink" y="0px" zn="洗车指数">
<style type="text/css">
	.WashIndex_st0{fill-rule:evenodd;clip-rule:evenodd;fill:#44CDF2;}
</style>
<g>
	<path class="WashIndex_st0" d="M47,47.8l-0.5-1.7c-0.2-0.6-0.8-1.1-1.4-1.1h-5.2l-4.5-5.4c-0.2-0.3-0.8-0.8-1.7-1c-9.9-0.6-15.4-0.6-25.3,0   c-1,0.1-1.5,0.7-1.7,1L2.1,45h-5.2c-0.6,0-1.2,0.5-1.4,1.1L-5,47.8c-0.1,0.2,0.1,0.3,0.3,0.4l3,1.3L-2.9,51   C-3.6,51.9-4,53.1-4,54.7c0,7.8,0,12,0,14.5c0,0.6,0.5,1.1,1.1,1.1h8.1c0.6,0,1.1-0.5,1.1-1.1v-2.8h29.3v2.8c0,0.6,0.5,1.1,1.1,1.1   h8.1c0.6,0,1.1-0.5,1.1-1.1c0-2.5,0-6.7,0-14.5c0-1.5-0.3-2.7-1.1-3.6l-1.2-1.4l3-1.3C46.9,48.2,47,48.1,47,47.8z M8.6,56.5   c0,0.3-0.2,0.5-0.5,0.5l-7.2-0.3c-1.1,0-1.9-0.9-1.9-1.9v-1.5c0-0.4,0.3-0.7,0.7-0.7l7.2,0.9c0.9,0.1,1.7,0.8,1.7,1.7V56.5z    M43.1,54.8c0,1-0.9,1.9-1.9,1.9L33.9,57c-0.3,0-0.5-0.2-0.5-0.5v-1.3c0-0.9,0.8-1.6,1.7-1.7l7.2-0.9c0.4,0,0.7,0.3,0.7,0.7V54.8z"/>
	<path class="WashIndex_st0" d="M9.5,23.5H34c0.5,0,0.9-0.5,0.9-1.2c0-1.6-0.7-4.7-2.8-4.7h-9.2v-3.1c0-1.6-1-2.7-2.6-2.7h-6v2.4H20   c0.3,0,0.5,0.2,0.5,0.6v2.9h-9.2c-2.1,0-2.8,3.1-2.8,4.7C8.6,22.9,9,23.5,9.5,23.5z"/>
	<path class="WashIndex_st0" d="M31.3,25.3c-0.4,0.6-1,1.2-1.3,1.9c-0.2,0.3-0.3,0.6-0.3,0.9c0,0.7,0.4,1.4,1,1.7c0.5,0.3,1.2,0.3,1.8,0   c0.6-0.3,1-1,1-1.7c0-0.3-0.1-0.6-0.3-0.9c-0.4-0.6-0.9-1.2-1.3-1.9C31.6,25,31.5,25,31.3,25.3z"/>
	<path class="WashIndex_st0" d="M21.4,28.2c-0.6,0.9-1.3,1.7-1.9,2.6c-0.3,0.4-0.5,0.9-0.5,1.3c0,1,0.6,1.9,1.4,2.4c0.8,0.4,1.7,0.4,2.5,0   c0.9-0.4,1.5-1.3,1.5-2.4c0-0.4-0.2-0.9-0.5-1.3c-0.6-0.9-1.3-1.7-1.9-2.6C21.8,27.8,21.7,27.8,21.4,28.2z"/>
	<path class="WashIndex_st0" d="M12.1,25.7c-0.4,0.6-1,1.2-1.4,1.9c-0.2,0.3-0.3,0.6-0.3,0.9c0,0.7,0.4,1.4,1,1.7c0.6,0.3,1.2,0.3,1.8,0   c0.6-0.3,1.1-1,1.1-1.7c0-0.3-0.1-0.6-0.3-1c-0.4-0.6-0.9-1.2-1.4-1.9C12.4,25.4,12.3,25.4,12.1,25.7z"/>
</g>
</svg>