<?xml version="1.0" ?><!-- Generator: Adobe Illustrator 19.0.0, SVG Export Plug-In . SVG Version: 6.00 Build 0)  --><svg id="图层_1" style="enable-background:new -9 11 60 60;" version="1.1" viewBox="-9 11 60 60" x="0px" xml:space="preserve" xmlns="http://www.w3.org/2000/svg" xmlns:xlink="http://www.w3.org/1999/xlink" y="0px" zn="开窗指数">
<style type="text/css">
	.WindowIndex_st0{fill:#51D2F4;}
</style>
<g id="XMLID_23_">
	<polygon class="WindowIndex_st0" id="XMLID_82_" points="38.1,44.5 48,44.5 48,46.8 38.1,46.8 38.1,70.1 41,70.1 41,56.3 43.2,56.3 43.2,70.1    48.6,70.1 48.6,42.1 38.1,42.1  "/>
	<polygon class="WindowIndex_st0" id="XMLID_81_" points="-6.9,70.1 -1.5,70.1 -1.5,56.3 0.8,56.3 0.8,70.1 3.7,70.1 3.7,46.8 -6.3,46.8    -6.3,44.5 3.7,44.5 3.7,42.1 -6.9,42.1  "/>
	<path class="WindowIndex_st0" d="M43,11.9h-3.1h-2.3h-5.5h-2.3h-7.7h-2.4h-8.1H10H9.4h0H3.8H1.6H-2h-4.9L-6.6,37l0.3,0h14   c9.9-9.6,11.7-20.6,12-24h2.6c0.5,3.6,3,15.7,12.9,24.8h13.7V11.9H43z M2.1,18.7l-1.9-1.3c1.2-1.8,1.4-3.3,1.4-4.4h2.3   C3.9,14.2,3.7,16.3,2.1,18.7z M9.9,24.4L8,23.3c1.9-3.2,1.7-8.1,1.4-10.3h2.3C12,15.2,12.3,20.5,9.9,24.4z M31.5,24.4   c-2.4-4-2.1-9.2-1.8-11.4H32c-0.2,2.1-0.5,6.9,1.5,10.3L31.5,24.4z M39.3,19c-1.6-2.3-1.8-4.6-1.8-6h2.3c0,1.1,0.2,3,1.4,4.7   L39.3,19z" id="XMLID_39_"/>
</g>
</svg>