<?xml version="1.0" encoding="utf-8"?>
<!-- Generator: Adobe Illustrator 19.0.0, SVG Export Plug-In . SVG Version: 6.00 Build 0)  -->
<svg version="1.1" id="图层_1" xmlns="http://www.w3.org/2000/svg" xmlns:xlink="http://www.w3.org/1999/xlink" x="0px" y="0px"
	 viewBox="0 0 32 32" style="enable-background:new 0 0 32 32;" xml:space="preserve" zn="风速">
<style type="text/css">
	.windSpeedIndex0{fill:#00BEFF;}
</style>
<g id="XMLID_2_">
	<g id="XMLID_3_">
		<path id="XMLID_8_" class="windSpeedIndex0" d="M17.1,13.7L17.1,13.7c0.5-3.3,0.8-4.6,1.4-6.8c0.7-2.3,2.7-6.3,2.7-6.3c-2.2-0.4-4.9-0.5-7.6,0
			c-2.2,0.4-3,1.6-3.1,2.3c-0.1,0.7,0.6,2.9,0.6,2.9c0.8,2.4,2.9,6.6,3.5,7.9c0.4-0.2,0.8-0.3,1.2-0.3
			C16.3,13.4,16.7,13.5,17.1,13.7z"/>
		<path id="XMLID_7_" class="windSpeedIndex0" d="M13.6,14.8c-3.2-0.4-4.5-0.7-6.7-1.4c-2.3-0.7-6.3-2.7-6.3-2.7c-0.4,2.2-0.5,4.9,0,7.6
			c0.4,2.2,1.6,3,2.3,3.1s2.9-0.6,2.9-0.6c2.3-0.8,6.6-2.9,7.8-3.5c-0.2-0.4-0.3-0.8-0.3-1.3C13.3,15.6,13.4,15.2,13.6,14.8z"/>
		<path id="XMLID_6_" class="windSpeedIndex0" d="M20.8,26.2c-0.8-2.4-3-6.8-3.6-7.9c-0.4,0.2-0.8,0.4-1.3,0.4c-0.4,0-0.7-0.1-1.1-0.2
			c-0.4,3.3-0.7,4.5-1.4,6.8c-0.7,2.3-2.7,6.3-2.7,6.3c2.2,0.4,4.9,0.5,7.6,0c2.2-0.4,3-1.6,3.1-2.3C21.5,28.4,20.8,26.2,20.8,26.2z
			"/>
		<path id="XMLID_5_" class="windSpeedIndex0" d="M31.4,13.6c-0.4-2.2-1.6-3-2.3-3.1c-0.7-0.1-2.9,0.6-2.9,0.6c-2.4,0.9-6.9,3.1-8,3.6
			c0.2,0.4,0.3,0.8,0.3,1.2c0,0.4-0.1,0.7-0.2,1.1l0.1,0.1c3.3,0.4,4.6,0.8,6.8,1.4c2.3,0.7,6.3,2.7,6.3,2.7
			C31.8,19.1,31.9,16.3,31.4,13.6z"/>
		<circle id="XMLID_4_" class="windSpeedIndex0" cx="15.9" cy="16.1" r="1.9"/>
	</g>
</g>
</svg>
