<?xml version="1.0" ?><!-- Generator: Adobe Illustrator 19.0.0, SVG Export Plug-In . SVG Version: 6.00 Build 0)  --><svg id="图层_1" style="enable-background:new 0 0 58 51;" version="1.1" viewBox="0 0 58 51" x="0px" xml:space="preserve" xmlns="http://www.w3.org/2000/svg" xmlns:xlink="http://www.w3.org/1999/xlink" y="0px" zn="蓝色霜冻">
<style type="text/css">
	.BlueFrost_st0{fill-rule:evenodd;clip-rule:evenodd;fill:#888889;}
	.BlueFrost_st1{fill-rule:evenodd;clip-rule:evenodd;fill:#1A85D6;}
	.BlueFrost_st2{fill-rule:evenodd;clip-rule:evenodd;fill:#DCDCDD;}
	.BlueFrost_st3{fill:#FEFEFE;}
</style>
<g id="XMLID_2488_">
	<path class="BlueFrost_st0" d="M3,0.4h52c1.3,0,2.4,1.2,2.4,2.5v45.2c0,1.4-1.1,2.5-2.4,2.5H3c-1.3,0-2.4-1.2-2.4-2.5V2.9   C0.6,1.5,1.7,0.4,3,0.4L3,0.4z" id="XMLID_2489_"/>
	<rect class="BlueFrost_st1" height="12.4" id="XMLID_2490_" width="53.1" x="2.4" y="36"/>
	<rect class="BlueFrost_st1" height="32" id="XMLID_2491_" width="20.8" x="34.8" y="2.1"/>
	<rect class="BlueFrost_st2" height="32" id="XMLID_2492_" width="30.6" x="2.4" y="2.1"/>
	<path class="BlueFrost_st3" d="M37.4,9.1h4.4V6.5c1.8,0,2.5,0,2.4,0.2c0,0.1,0,0.2,0,0.4C44,7.4,44,7.8,44,8.1v0.9h2.5V6.5   c0.3,0,0.7,0,1.1,0c0.8-0.1,1.2,0,1.2,0.2c0,0.1,0,0.2,0,0.4c0,0.3-0.1,0.6-0.1,0.9v1h4.6v2.5h-4.6v1.3h-0.9   c0.5,0.2,0.9,0.4,1.2,0.7c0,0.1-0.2,0.4-0.6,0.9h4V17H50c0.4,1,0.7,1.9,0.9,2.8l-2.1,1.1c-0.3-1.1-0.6-2.1-1.1-3.2l1.3-0.7h-1.8   c0,0.1-0.1,0.2-0.2,0.4c-0.2,0.5-0.5,1.1-1,1.9c-0.4-0.5-0.9-0.9-1.6-1.3v2.2h-2.1v-6.8h-0.6v-1.7h-4.4V9.1z M44.5,17.3   c1-1.3,1.7-2.8,2.1-4.4h-0.2v-1.3H44V13c0.4,0,0.6,0,0.6,0.1c0,0,0,0.1,0,0.3c-0.1,0.3-0.1,0.7-0.1,1.1V17.3z M41,19.9H39v-6.4   c1.5,0,2.2,0,2.1,0.1c0,0.1,0.1,0.3,0.1,0.5c-0.1,0.5-0.1,1-0.1,1.6V19.9z M41.5,23.7v3.6h1.1v-3.6H41.5z M45.8,23.7h-1.2v3.6h1.2   V23.7z M47.8,27.3H49v-3.6h-1.2V27.3z M51.3,21.2v6.1h2.1v2.5H36.9v-2.5h2.3v-6.1H51.3z" id="XMLID_2493_"/>
	<path class="BlueFrost_st3" d="M16.1,46.1v-0.3h0.4c0.1,0,0.3,0,0.3-0.1c0,0,0.1-0.1,0.1-0.3v-6.6c0-0.1,0-0.2-0.1-0.3   c-0.1,0-0.2-0.1-0.4-0.1h-0.3v-0.3h2.6c0.7,0,1.3,0.1,1.6,0.4c0.3,0.3,0.5,0.8,0.5,1.4c0,0.4-0.1,0.8-0.3,1.1   c-0.2,0.3-0.6,0.5-1.1,0.7c0.7,0.2,1.1,0.5,1.4,0.9c0.2,0.4,0.3,0.8,0.3,1.4c0,0.6-0.2,1.1-0.6,1.5c-0.4,0.4-1,0.5-1.7,0.5H16.1z    M18.8,45.8c0.5,0,0.9-0.2,1.2-0.5c0.3-0.3,0.4-0.8,0.4-1.4c0-0.7-0.1-1.2-0.4-1.5c-0.3-0.4-0.7-0.5-1.3-0.5h-1v3.5   c0,0.1,0,0.2,0.1,0.3c0.1,0,0.2,0.1,0.3,0.1H18.8z M20.2,40c0-0.6-0.1-1-0.4-1.2c-0.3-0.2-0.7-0.4-1.2-0.4H18c-0.1,0-0.2,0-0.3,0.1   c0,0.1-0.1,0.2-0.1,0.3v2.8h1.2c0.3,0,0.6-0.1,0.9-0.4C20,41,20.2,40.6,20.2,40L20.2,40z M24.6,45.5c0,0.1,0,0.2,0.1,0.3   c0,0,0.2,0.1,0.3,0.1h1.2c0.4,0,0.8-0.1,1.1-0.4c0.3-0.3,0.5-0.7,0.6-1.2l0.2,0.1l-0.4,1.8h-4.6v-0.3h0.3c0.1,0,0.3,0,0.3-0.1   c0.1,0,0.1-0.1,0.1-0.3v-6.6c0-0.1,0-0.2-0.1-0.3c0,0-0.2-0.1-0.3-0.1h-0.3v-0.3h2.1v0.3H25c-0.1,0-0.2,0-0.3,0.1   c-0.1,0.1-0.1,0.2-0.1,0.3V45.5z M32.5,45.8c0.5,0,0.8-0.1,1.2-0.4c0.3-0.3,0.5-0.7,0.5-1.2v-5.4c0-0.1,0-0.2-0.1-0.3   c-0.1,0-0.2-0.1-0.3-0.1h-0.3v-0.3h1.6v0.3h-0.3c-0.1,0-0.2,0-0.3,0.1c-0.1,0.1-0.1,0.2-0.1,0.3v5.4c0,0.6-0.2,1.1-0.6,1.4   c-0.4,0.4-0.9,0.5-1.4,0.5c-0.5,0-1-0.1-1.4-0.4c-0.4-0.3-0.6-0.8-0.6-1.5v-5.4c0-0.1,0-0.2-0.1-0.3c0,0-0.2-0.1-0.3-0.1h-0.2v-0.3   h1.9v0.3h-0.2c-0.1,0-0.2,0-0.3,0.1c-0.1,0.1-0.1,0.2-0.1,0.3v5.4c0,0.6,0.1,1,0.4,1.2C31.8,45.7,32.1,45.8,32.5,45.8L32.5,45.8z    M36.8,38.4v-0.3h4.4l0.5,1.6l-0.3,0.1c-0.2-0.5-0.5-0.8-0.7-1.1c-0.3-0.2-0.6-0.4-0.9-0.4h-1.2c-0.1,0-0.2,0-0.3,0.1   c-0.1,0.1-0.1,0.2-0.1,0.3v2.8h1.3c0.3,0,0.5,0,0.7-0.2c0.1-0.1,0.2-0.4,0.2-0.7v-0.3h0.3v2.7h-0.3v-0.2c0-0.4,0-0.6-0.2-0.8   C40,42.1,39.8,42,39.5,42h-1.3v3.5c0,0.1,0,0.2,0.1,0.3c0.1,0,0.2,0.1,0.3,0.1h1.2c0.4,0,0.8-0.1,1.1-0.4c0.3-0.3,0.6-0.7,0.7-1.2   l0.3,0.1l-0.5,1.8h-4.5v-0.3h0.3c0.2,0,0.3,0,0.3-0.1c0.1,0,0.1-0.1,0.1-0.3v-6.6c0-0.1,0-0.2-0.1-0.3c0,0-0.2-0.1-0.3-0.1H36.8z" id="XMLID_2501_"/>
	<g id="XMLID_2508_">
		<path class="BlueFrost_st1" d="M28.3,6.6c-0.8,0-1.5,0.7-1.5,1.5v18.5H8.7V8.1c0-0.8-0.7-1.5-1.5-1.5S5.7,7.3,5.7,8.1v19.8    v0.3v0.3c0,0.7,0.6,1.3,1.3,1.3h21.7c0.7,0,1.3-0.6,1.3-1.3v-0.3v-0.3V8.1C29.8,7.3,29.1,6.6,28.3,6.6z" id="XMLID_2509_"/>
		<path class="BlueFrost_st1" d="M26.3,17c0-0.7-0.6-1.3-1.3-1.3l-4.6,0l2.3-4c0.3-0.6,0.1-1.4-0.5-1.7l-0.5-0.3    c-0.6-0.3-1.4-0.1-1.7,0.5l-2.3,4l-2.3-4c-0.3-0.6-1.1-0.8-1.7-0.5L13.2,10c-0.6,0.3-0.8,1.1-0.5,1.7l2.3,4l-4.6,0    c-0.7,0-1.3,0.6-1.3,1.3l0,0.5c0,0.7,0.6,1.3,1.3,1.3l4.6,0l-2.3,4c-0.3,0.6-0.1,1.4,0.5,1.7l0.5,0.3c0.6,0.3,1.4,0.1,1.7-0.5    l2.3-4l2.3,4c0.3,0.6,1.1,0.8,1.7,0.5l0.5-0.3c0.6-0.3,0.8-1.1,0.5-1.7l-2.3-4l4.6,0c0.7,0,1.3-0.6,1.3-1.3L26.3,17z" id="XMLID_2510_"/>
	</g>
</g>
</svg>