<?xml version="1.0" ?><!-- Generator: Adobe Illustrator 19.0.0, SVG Export Plug-In . SVG Version: 6.00 Build 0)  --><svg id="图层_1" style="enable-background:new 0 0 58 51;" version="1.1" viewBox="0 0 58 51" x="0px" xml:space="preserve" xmlns="http://www.w3.org/2000/svg" xmlns:xlink="http://www.w3.org/1999/xlink" y="0px" zn="蓝色冰雹">
<style type="text/css">
	.BlueHail_st0{fill-rule:evenodd;clip-rule:evenodd;fill:#888889;}
	.BlueHail_st1{fill-rule:evenodd;clip-rule:evenodd;fill:#1A85D6;}
	.BlueHail_st2{fill-rule:evenodd;clip-rule:evenodd;fill:#DCDCDD;}
	.BlueHail_st3{fill:#FEFEFE;}
	.BlueHail_st4{fill-rule:evenodd;clip-rule:evenodd;fill:#FFFFFF;}
	.BlueHail_st5{fill-rule:evenodd;clip-rule:evenodd;fill:none;stroke:#1A85D6;stroke-miterlimit:10;}
</style>
<g id="XMLID_3182_">
	<path class="BlueHail_st0" d="M3,0h52c1.3,0,2.4,1.2,2.4,2.5v45.2c0,1.4-1.1,2.5-2.4,2.5H3c-1.3,0-2.4-1.2-2.4-2.5V2.5   C0.6,1.2,1.7,0,3,0L3,0z" id="XMLID_3183_"/>
	<rect class="BlueHail_st1" height="12.4" id="XMLID_3184_" width="53.1" x="2.4" y="35.6"/>
	<rect class="BlueHail_st1" height="32" id="XMLID_3185_" width="20.8" x="34.8" y="1.8"/>
	<rect class="BlueHail_st2" height="32" id="XMLID_3186_" width="30.6" x="2.4" y="1.8"/>
	<path class="BlueHail_st3" d="M37.4,8.7h4.4V6.1c1.8,0,2.5,0,2.4,0.2c0,0.1,0,0.2,0,0.4C44,7.1,44,7.4,44,7.8v0.9h2.5V6.1   c0.3,0,0.7,0,1.1,0c0.8-0.1,1.2,0,1.2,0.2c0,0.1,0,0.2,0,0.4c0,0.3-0.1,0.6-0.1,0.9v1h4.6v2.5h-4.6v1.3h-0.9   c0.5,0.2,0.9,0.4,1.2,0.7c0,0.1-0.2,0.4-0.6,0.9h4v2.5H50c0.4,1,0.7,1.9,0.9,2.8l-2.1,1.1c-0.3-1.1-0.6-2.1-1.1-3.2l1.3-0.7h-1.8   c0,0.1-0.1,0.2-0.2,0.4c-0.2,0.5-0.5,1.1-1,1.9c-0.4-0.5-0.9-0.9-1.6-1.3v2.2h-2.1v-6.8h-0.6v-1.7h-4.4V8.7z M44.5,17   c1-1.3,1.7-2.8,2.1-4.4h-0.2v-1.3H44v1.4c0.4,0,0.6,0,0.6,0.1c0,0,0,0.1,0,0.3c-0.1,0.3-0.1,0.7-0.1,1.1V17z M41,19.5H39v-6.4   c1.5,0,2.2,0,2.1,0.1c0,0.1,0.1,0.3,0.1,0.5c-0.1,0.5-0.1,1-0.1,1.6V19.5z M41.5,23.3V27h1.1v-3.6H41.5z M45.8,23.3h-1.2V27h1.2   V23.3z M47.8,27H49v-3.6h-1.2V27z M51.3,20.9V27h2.1v2.5H36.9V27h2.3v-6.1H51.3z" id="XMLID_3187_"/>
	<path class="BlueHail_st3" d="M16.1,45.7v-0.3h0.4c0.1,0,0.3,0,0.3-0.1c0,0,0.1-0.1,0.1-0.3v-6.6c0-0.1,0-0.2-0.1-0.3   c-0.1,0-0.2-0.1-0.4-0.1h-0.3v-0.3h2.6c0.7,0,1.3,0.1,1.6,0.4c0.3,0.3,0.5,0.8,0.5,1.4c0,0.4-0.1,0.8-0.3,1.1   c-0.2,0.3-0.6,0.5-1.1,0.7c0.7,0.2,1.1,0.5,1.4,0.9c0.2,0.4,0.3,0.8,0.3,1.4c0,0.6-0.2,1.1-0.6,1.5c-0.4,0.4-1,0.5-1.7,0.5H16.1z    M18.8,45.4c0.5,0,0.9-0.2,1.2-0.5c0.3-0.3,0.4-0.8,0.4-1.4c0-0.7-0.1-1.2-0.4-1.5c-0.3-0.4-0.7-0.5-1.3-0.5h-1v3.5   c0,0.1,0,0.2,0.1,0.3c0.1,0,0.2,0.1,0.3,0.1H18.8z M20.2,39.6c0-0.6-0.1-1-0.4-1.2c-0.3-0.2-0.7-0.4-1.2-0.4H18   c-0.1,0-0.2,0-0.3,0.1c0,0.1-0.1,0.2-0.1,0.3v2.8h1.2c0.3,0,0.6-0.1,0.9-0.4C20,40.7,20.2,40.2,20.2,39.6L20.2,39.6z M24.6,45.1   c0,0.1,0,0.2,0.1,0.3c0,0,0.2,0.1,0.3,0.1h1.2c0.4,0,0.8-0.1,1.1-0.4c0.3-0.3,0.5-0.7,0.6-1.2l0.2,0.1l-0.4,1.8h-4.6v-0.3h0.3   c0.1,0,0.3,0,0.3-0.1c0.1,0,0.1-0.1,0.1-0.3v-6.6c0-0.1,0-0.2-0.1-0.3c0,0-0.2-0.1-0.3-0.1h-0.3v-0.3h2.1v0.3H25   c-0.1,0-0.2,0-0.3,0.1c-0.1,0.1-0.1,0.2-0.1,0.3V45.1z M32.5,45.4c0.5,0,0.8-0.1,1.2-0.4c0.3-0.3,0.5-0.7,0.5-1.2v-5.4   c0-0.1,0-0.2-0.1-0.3c-0.1,0-0.2-0.1-0.3-0.1h-0.3v-0.3h1.6v0.3h-0.3c-0.1,0-0.2,0-0.3,0.1c-0.1,0.1-0.1,0.2-0.1,0.3v5.4   c0,0.6-0.2,1.1-0.6,1.4c-0.4,0.4-0.9,0.5-1.4,0.5c-0.5,0-1-0.1-1.4-0.4c-0.4-0.3-0.6-0.8-0.6-1.5v-5.4c0-0.1,0-0.2-0.1-0.3   c0,0-0.2-0.1-0.3-0.1h-0.2v-0.3h1.9v0.3h-0.2c-0.1,0-0.2,0-0.3,0.1c-0.1,0.1-0.1,0.2-0.1,0.3v5.4c0,0.6,0.1,1,0.4,1.2   C31.8,45.4,32.1,45.4,32.5,45.4L32.5,45.4z M36.8,38.1v-0.3h4.4l0.5,1.6l-0.3,0.1c-0.2-0.5-0.5-0.8-0.7-1.1   c-0.3-0.2-0.6-0.4-0.9-0.4h-1.2c-0.1,0-0.2,0-0.3,0.1c-0.1,0.1-0.1,0.2-0.1,0.3v2.8h1.3c0.3,0,0.5,0,0.7-0.2   c0.1-0.1,0.2-0.4,0.2-0.7v-0.3h0.3v2.7h-0.3v-0.2c0-0.4,0-0.6-0.2-0.8c-0.2-0.2-0.4-0.3-0.7-0.3h-1.3v3.5c0,0.1,0,0.2,0.1,0.3   c0.1,0,0.2,0.1,0.3,0.1h1.2c0.4,0,0.8-0.1,1.1-0.4c0.3-0.3,0.6-0.7,0.7-1.2l0.3,0.1l-0.5,1.8h-4.5v-0.3h0.3c0.2,0,0.3,0,0.3-0.1   c0.1,0,0.1-0.1,0.1-0.3v-6.6c0-0.1,0-0.2-0.1-0.3c0,0-0.2-0.1-0.3-0.1H36.8z" id="XMLID_3195_"/>
	<path class="BlueHail_st4" d="M17.8,17.9l0.1-13c0,0,6.8,5.6,9.1,8.8C23.1,15.5,19.6,17,17.8,17.9z" id="XMLID_1557_"/>
	<path class="BlueHail_st1" d="M17.8,17.9L18,5c0,0-6.8,5.6-9.1,8.8C12.8,15.6,16.1,17,17.8,17.9z" id="XMLID_1556_"/>
	<path class="BlueHail_st1" d="M17.8,17.9v13.4c0,0,0.5,0.9,1.6-1.3c1-2.2,7.4-16.6,7.4-16.6L17.8,17.9z" id="XMLID_3202_"/>
	<path class="BlueHail_st4" d="M17.8,17.9v13.4c0,0-0.5,0.9-1.6-1.3c-1-2.2-7.3-16.3-7.3-16.3L17.8,17.9z" id="XMLID_1553_"/>
	<path class="BlueHail_st5" d="M8.9,13.7c0,0.6,7.7,17.1,7.7,17.1s1.3,1.6,2.5-0.2c0,0,7.3-15.5,7.6-16.9   c0,0,0.2-0.4-0.4-1.1c0,0-7.9-7.7-8.3-7.7C17.5,4.9,8.9,13.1,8.9,13.7z" id="XMLID_3203_"/>
</g>
</svg>