<?xml version="1.0" ?><!-- Generator: Adobe Illustrator 19.0.0, SVG Export Plug-In . SVG Version: 6.00 Build 0)  --><svg id="图层_1" style="enable-background:new 0 0 58 51;" version="1.1" viewBox="0 0 58 51" x="0px" xml:space="preserve" xmlns="http://www.w3.org/2000/svg" xmlns:xlink="http://www.w3.org/1999/xlink" y="0px" zn="蓝色暴雨">
<style type="text/css">
	.BlueFall_st0{fill-rule:evenodd;clip-rule:evenodd;fill:#888889;}
	.BlueFall_st1{fill-rule:evenodd;clip-rule:evenodd;fill:#1A85D6;}
	.BlueFall_st2{fill-rule:evenodd;clip-rule:evenodd;fill:#DCDCDD;}
	.BlueFall_st3{fill:#FEFEFE;}
</style>
<g id="XMLID_2372_">
	<path class="BlueFall_st0" d="M3,0.4h52c1.3,0,2.4,1.2,2.4,2.5v45.2c0,1.4-1.1,2.5-2.4,2.5H3c-1.3,0-2.4-1.2-2.4-2.5V2.9   C0.6,1.5,1.7,0.4,3,0.4L3,0.4z" id="XMLID_2373_"/>
	<rect class="BlueFall_st1" height="12.4" id="XMLID_2374_" width="53.1" x="2.4" y="36"/>
	<rect class="BlueFall_st1" height="32" id="XMLID_2375_" width="20.8" x="34.8" y="2.1"/>
	<rect class="BlueFall_st2" height="32" id="XMLID_2376_" width="30.6" x="2.4" y="2.1"/>
	<path class="BlueFall_st3" d="M37.4,9.1h4.4V6.5c1.8,0,2.5,0,2.4,0.2c0,0.1,0,0.2,0,0.4C44,7.4,44,7.8,44,8.1v0.9h2.5V6.5   c0.3,0,0.7,0,1.1,0c0.8-0.1,1.2,0,1.2,0.2c0,0.1,0,0.2,0,0.4c0,0.3-0.1,0.6-0.1,0.9v1h4.6v2.5h-4.6v1.3h-0.9   c0.5,0.2,0.9,0.4,1.2,0.7c0,0.1-0.2,0.4-0.6,0.9h4V17H50c0.4,1,0.7,1.9,0.9,2.8l-2.1,1.1c-0.3-1.1-0.6-2.1-1.1-3.2l1.3-0.7h-1.8   c0,0.1-0.1,0.2-0.2,0.4c-0.2,0.5-0.5,1.1-1,1.9c-0.4-0.5-0.9-0.9-1.6-1.3v2.2h-2.1v-6.8h-0.6v-1.7h-4.4V9.1z M44.5,17.3   c1-1.3,1.7-2.8,2.1-4.4h-0.2v-1.3H44V13c0.4,0,0.6,0,0.6,0.1c0,0,0,0.1,0,0.3c-0.1,0.3-0.1,0.7-0.1,1.1V17.3z M41,19.9H39v-6.4   c1.5,0,2.2,0,2.1,0.1c0,0.1,0.1,0.3,0.1,0.5c-0.1,0.5-0.1,1-0.1,1.6V19.9z M41.5,23.7v3.6h1.1v-3.6H41.5z M45.8,23.7h-1.2v3.6h1.2   V23.7z M47.8,27.3H49v-3.6h-1.2V27.3z M51.3,21.2v6.1h2.1v2.5H36.9v-2.5h2.3v-6.1H51.3z" id="XMLID_2377_"/>
	<path class="BlueFall_st3" d="M16.1,46.1v-0.3h0.4c0.1,0,0.3,0,0.3-0.1c0,0,0.1-0.1,0.1-0.3v-6.6c0-0.1,0-0.2-0.1-0.3   c-0.1,0-0.2-0.1-0.4-0.1h-0.3v-0.3h2.6c0.7,0,1.3,0.1,1.6,0.4c0.3,0.3,0.5,0.8,0.5,1.4c0,0.4-0.1,0.8-0.3,1.1   c-0.2,0.3-0.6,0.5-1.1,0.7c0.7,0.2,1.1,0.5,1.4,0.9c0.2,0.4,0.3,0.8,0.3,1.4c0,0.6-0.2,1.1-0.6,1.5c-0.4,0.4-1,0.5-1.7,0.5H16.1z    M18.8,45.8c0.5,0,0.9-0.2,1.2-0.5c0.3-0.3,0.4-0.8,0.4-1.4c0-0.7-0.1-1.2-0.4-1.5c-0.3-0.4-0.7-0.5-1.3-0.5h-1v3.5   c0,0.1,0,0.2,0.1,0.3c0.1,0,0.2,0.1,0.3,0.1H18.8z M20.2,40c0-0.6-0.1-1-0.4-1.2c-0.3-0.2-0.7-0.4-1.2-0.4H18c-0.1,0-0.2,0-0.3,0.1   c0,0.1-0.1,0.2-0.1,0.3v2.8h1.2c0.3,0,0.6-0.1,0.9-0.4C20,41,20.2,40.6,20.2,40L20.2,40z M24.6,45.5c0,0.1,0,0.2,0.1,0.3   c0,0,0.2,0.1,0.3,0.1h1.2c0.4,0,0.8-0.1,1.1-0.4c0.3-0.3,0.5-0.7,0.6-1.2l0.2,0.1l-0.4,1.8h-4.6v-0.3h0.3c0.1,0,0.3,0,0.3-0.1   c0.1,0,0.1-0.1,0.1-0.3v-6.6c0-0.1,0-0.2-0.1-0.3c0,0-0.2-0.1-0.3-0.1h-0.3v-0.3h2.1v0.3H25c-0.1,0-0.2,0-0.3,0.1   c-0.1,0.1-0.1,0.2-0.1,0.3V45.5z M32.5,45.8c0.5,0,0.8-0.1,1.2-0.4c0.3-0.3,0.5-0.7,0.5-1.2v-5.4c0-0.1,0-0.2-0.1-0.3   c-0.1,0-0.2-0.1-0.3-0.1h-0.3v-0.3h1.6v0.3h-0.3c-0.1,0-0.2,0-0.3,0.1c-0.1,0.1-0.1,0.2-0.1,0.3v5.4c0,0.6-0.2,1.1-0.6,1.4   c-0.4,0.4-0.9,0.5-1.4,0.5c-0.5,0-1-0.1-1.4-0.4c-0.4-0.3-0.6-0.8-0.6-1.5v-5.4c0-0.1,0-0.2-0.1-0.3c0,0-0.2-0.1-0.3-0.1h-0.2v-0.3   h1.9v0.3h-0.2c-0.1,0-0.2,0-0.3,0.1c-0.1,0.1-0.1,0.2-0.1,0.3v5.4c0,0.6,0.1,1,0.4,1.2C31.8,45.7,32.1,45.8,32.5,45.8L32.5,45.8z    M36.8,38.4v-0.3h4.4l0.5,1.6l-0.3,0.1c-0.2-0.5-0.5-0.8-0.7-1.1c-0.3-0.2-0.6-0.4-0.9-0.4h-1.2c-0.1,0-0.2,0-0.3,0.1   c-0.1,0.1-0.1,0.2-0.1,0.3v2.8h1.3c0.3,0,0.5,0,0.7-0.2c0.1-0.1,0.2-0.4,0.2-0.7v-0.3h0.3v2.7h-0.3v-0.2c0-0.4,0-0.6-0.2-0.8   C40,42.1,39.8,42,39.5,42h-1.3v3.5c0,0.1,0,0.2,0.1,0.3c0.1,0,0.2,0.1,0.3,0.1h1.2c0.4,0,0.8-0.1,1.1-0.4c0.3-0.3,0.6-0.7,0.7-1.2   l0.3,0.1l-0.5,1.8h-4.5v-0.3h0.3c0.2,0,0.3,0,0.3-0.1c0.1,0,0.1-0.1,0.1-0.3v-6.6c0-0.1,0-0.2-0.1-0.3c0,0-0.2-0.1-0.3-0.1H36.8z" id="XMLID_2385_"/>
	<g id="XMLID_2392_">
		<path class="BlueFall_st1" d="M5.5,14.7c0,0,0.9-1.8,2.7-0.6c2.1,0.8,1-2,4.2-1.2c3.1-0.5,2.9-3,3-2.5    c-0.9-1.1,6.3-10.3,8.7,0.4c1.5,1.1,3.3,0.5,3.8,2.9c3.8,1.8,1,4.7,1,4.7c-1.6,0.6-3.7,0.9-6.1,0.8c0,0-0.1,1.1-3.1,0.6    c-2.1-0.4-1.8,1.7-5.1,0c-2.7-1.4-2.1,1.3-4.8-0.7c-1-0.6-0.9-0.7-3.9-0.6C4.2,18,5.5,14.7,5.5,14.7L5.5,14.7z" id="XMLID_2393_"/>
		<path class="BlueFall_st1" d="M9.7,21.2c-1.1,1.3-1.9,3.2-2.1,4.9c0,3.5,4.2,3.2,4,0.2C11.5,24.8,10.8,22.8,9.7,21.2    L9.7,21.2z" id="XMLID_2394_"/>
		<path class="BlueFall_st1" d="M15,21.2c-1,1.3-1.9,3.2-2,4.9c0,3.5,4.1,3.2,4,0.2C16.8,24.8,16.1,22.8,15,21.2L15,21.2z" id="XMLID_2395_"/>
		<path class="BlueFall_st1" d="M20.5,21.2c-1,1.3-1.9,3.2-2,4.9c-0.1,3.5,4.1,3.2,4,0.2C22.3,24.8,21.7,22.8,20.5,21.2    L20.5,21.2z" id="XMLID_2396_"/>
		<path class="BlueFall_st1" d="M25.7,21.2c-1,1.3-1.9,3.2-2,4.9c-0.1,3.5,4.1,3.2,4,0.2C27.5,24.8,26.8,22.8,25.7,21.2    L25.7,21.2z" id="XMLID_2397_"/>
	</g>
</g>
</svg>