<?xml version="1.0" ?><!-- Generator: Adobe Illustrator 19.0.0, SVG Export Plug-In . SVG Version: 6.00 Build 0)  --><svg id="图层_1" style="enable-background:new 0 0 58 51;" version="1.1" viewBox="0 0 58 51" x="0px" xml:space="preserve" xmlns="http://www.w3.org/2000/svg" xmlns:xlink="http://www.w3.org/1999/xlink" y="0px" zn="橙色高温">
<style type="text/css">
	.OrangeTemperature_st0{fill-rule:evenodd;clip-rule:evenodd;fill:#888889;}
	.OrangeTemperature_st1{fill-rule:evenodd;clip-rule:evenodd;fill:#FF9A22;}
	.OrangeTemperature_st2{fill-rule:evenodd;clip-rule:evenodd;fill:#DCDCDD;}
	.OrangeTemperature_st3{fill:none;stroke:#E3001E;stroke-width:2.8871;stroke-linecap:round;stroke-linejoin:round;stroke-miterlimit:10;}
	.OrangeTemperature_st4{fill:#FEFEFE;}
</style>
<g id="XMLID_2654_">
	<path class="OrangeTemperature_st0" d="M3,0.4h52c1.3,0,2.4,1.2,2.4,2.5v45.2c0,1.4-1.1,2.5-2.4,2.5H3c-1.3,0-2.4-1.2-2.4-2.5V2.9   C0.6,1.5,1.7,0.4,3,0.4L3,0.4z" id="XMLID_2655_"/>
	<rect class="OrangeTemperature_st1" height="12.4" id="XMLID_2656_" width="53.1" x="2.4" y="36"/>
	<rect class="OrangeTemperature_st1" height="32" id="XMLID_2657_" width="20.8" x="34.8" y="2.1"/>
	<rect class="OrangeTemperature_st2" height="32" id="XMLID_2658_" width="30.6" x="2.4" y="2.1"/>
	<g id="XMLID_2659_">
		<path class="OrangeTemperature_st3" d="M45,9.9h-2.2V7.2h4.7l-0.1-0.9l1.9-0.1c0,0.2,0.1,0.5,0.1,0.8c0,0.4,0,0.8,0,0.9    c0.3-0.2,0.6-0.6,0.9-1.1c0.2-0.2,0.3-0.4,0.4-0.5c0.7,0.8,1.3,1.5,1.5,2.2c0,0.1-0.2,0.2-0.5,0.4c-0.6,0.5-1.2,1-1.8,1.6    c0.1,0.4,0.2,0.9,0.4,1.6c0.6-0.6,1.1-1.4,1.5-2.3l1.4,2.5L51.5,14c0.7,1.1,1.5,1.9,2.1,2.3c-0.7,1.2-1.2,2.3-1.4,3l-0.7-0.8v5.1    h-1.8c0.9,0.5,1.3,0.8,1.4,0.9c0,0.1-0.1,0.2-0.2,0.3c-0.5,0.8-0.8,1.4-0.9,1.9h3.1v2.5H42.1v-2.5h2.9l-0.8-2.5l1.4-0.7h-1.7v-4.7    c-0.2,0.3-0.3,0.5-0.4,0.6c-0.3-0.3-0.6-0.6-0.9-0.9c0.1,0.3,0.2,0.7,0.3,1.2c0.2,0.5,0.3,0.9,0.3,1.2c-0.6,0.4-1.1,0.8-1.5,1.3    c-0.1-1-0.4-1.9-0.7-2.7v10.6h-2v-8.4c-0.2,1.1-0.5,2-0.8,2.8c-0.6-1-1.1-1.8-1.5-2.3c0.9-1.8,1.7-4.5,2.1-8.2h-1.8v-2.7h2V6.2    h0.3c1.3,0,1.9,0.2,1.8,0.5c0,0.1,0,0.2-0.1,0.3C41,7.2,41,7.5,41,7.7v3.6h1.2v0.6c0.3-0.3,0.6-0.6,0.9-0.9    c0.1-0.1,0.1-0.2,0.1-0.2c0.1,0,0.2,0.2,0.4,0.6c0.3,0.6,0.6,1,0.7,1.2C44.8,11.7,44.9,10.8,45,9.9L45,9.9z M47.6,7.5    c-0.2,1.8-0.6,3.6-1.1,5.5h2.2C48.2,11.4,47.8,9.6,47.6,7.5L47.6,7.5z M42.2,17.1c0.3-0.4,0.8-1.1,1.2-2l-1.2-1.8V14H41v2.7    l0.9-0.7L42.2,17.1z M45.7,15.4c-0.2,0.5-0.4,1-0.7,1.5h5.3c-0.3-0.4-0.6-0.9-0.8-1.5H45.7z M46,19.2V21h3.2v-1.8H46z M47,26.1    L46,26.7h2c0.4-1.2,0.6-2.3,0.7-3.2h-2.4L47,26.1z" id="XMLID_2660_"/>
		<path class="OrangeTemperature_st4" d="M45,9.9h-2.2V7.2h4.7l-0.1-0.9l1.9-0.1c0,0.2,0.1,0.5,0.1,0.8c0,0.4,0,0.8,0,0.9    c0.3-0.2,0.6-0.6,0.9-1.1c0.2-0.2,0.3-0.4,0.4-0.5c0.7,0.8,1.3,1.5,1.5,2.2c0,0.1-0.2,0.2-0.5,0.4c-0.6,0.5-1.2,1-1.8,1.6    c0.1,0.4,0.2,0.9,0.4,1.6c0.6-0.6,1.1-1.4,1.5-2.3l1.4,2.5L51.5,14c0.7,1.1,1.5,1.9,2.1,2.3c-0.7,1.2-1.2,2.3-1.4,3l-0.7-0.8v5.1    h-1.8c0.9,0.5,1.3,0.8,1.4,0.9c0,0.1-0.1,0.2-0.2,0.3c-0.5,0.8-0.8,1.4-0.9,1.9h3.1v2.5H42.1v-2.5h2.9l-0.8-2.5l1.4-0.7h-1.7v-4.7    c-0.2,0.3-0.3,0.5-0.4,0.6c-0.3-0.3-0.6-0.6-0.9-0.9c0.1,0.3,0.2,0.7,0.3,1.2c0.2,0.5,0.3,0.9,0.3,1.2c-0.6,0.4-1.1,0.8-1.5,1.3    c-0.1-1-0.4-1.9-0.7-2.7v10.6h-2v-8.4c-0.2,1.1-0.5,2-0.8,2.8c-0.6-1-1.1-1.8-1.5-2.3c0.9-1.8,1.7-4.5,2.1-8.2h-1.8v-2.7h2V6.2    h0.3c1.3,0,1.9,0.2,1.8,0.5c0,0.1,0,0.2-0.1,0.3C41,7.2,41,7.5,41,7.7v3.6h1.2v0.6c0.3-0.3,0.6-0.6,0.9-0.9    c0.1-0.1,0.1-0.2,0.1-0.2c0.1,0,0.2,0.2,0.4,0.6c0.3,0.6,0.6,1,0.7,1.2C44.8,11.7,44.9,10.8,45,9.9L45,9.9z M47.6,7.5    c-0.2,1.8-0.6,3.6-1.1,5.5h2.2C48.2,11.4,47.8,9.6,47.6,7.5L47.6,7.5z M42.2,17.1c0.3-0.4,0.8-1.1,1.2-2l-1.2-1.8V14H41v2.7    l0.9-0.7L42.2,17.1z M45.7,15.4c-0.2,0.5-0.4,1-0.7,1.5h5.3c-0.3-0.4-0.6-0.9-0.8-1.5H45.7z M46,19.2V21h3.2v-1.8H46z M47,26.1    L46,26.7h2c0.4-1.2,0.6-2.3,0.7-3.2h-2.4L47,26.1z" id="XMLID_2667_"/>
	</g>
	<path class="OrangeTemperature_st4" d="M10.3,42.2c0,1.3,0.2,2.3,0.5,2.9c0.3,0.6,0.7,0.9,1.2,0.9c0.5,0,0.9-0.3,1.2-0.8   c0.3-0.6,0.4-1.6,0.4-2.9c0-1.1-0.1-2-0.3-2.7c-0.3-0.7-0.7-1-1.3-1c-0.5,0-0.9,0.3-1.2,0.9C10.4,40,10.3,41,10.3,42.2L10.3,42.2z    M14.4,42.2c0,1.2-0.2,2.3-0.7,3c-0.5,0.7-1.1,1.1-1.8,1.1c-0.7,0-1.3-0.4-1.8-1.1c-0.5-0.8-0.8-1.7-0.8-3c0-1.2,0.3-2.2,0.7-2.9   c0.4-0.8,1-1.1,1.8-1.1c0.8,0,1.4,0.4,1.8,1.2C14.2,40.1,14.4,41.1,14.4,42.2L14.4,42.2z M20.9,40.1c0,0.6-0.2,1.1-0.5,1.4   c-0.3,0.4-0.7,0.5-1.1,0.6l1.4,3.4c0,0.1,0.1,0.2,0.2,0.3c0.1,0,0.2,0,0.3,0h0.3v0.3h-1.2l-1.5-3.9h-0.9v3.3c0,0.1,0,0.2,0.1,0.3   c0.1,0,0.2,0.1,0.3,0.1h0.3v0.3h-2.1v-0.3h0.3c0.1,0,0.3,0,0.3-0.1s0.1-0.1,0.1-0.3v-6.6c0-0.1,0-0.2-0.1-0.3   c0-0.1-0.2-0.1-0.3-0.1h-0.3v-0.3h2.6c0.7,0,1.2,0.2,1.6,0.5C20.7,39,20.9,39.5,20.9,40.1L20.9,40.1z M17.6,41.9h1   c0.4,0,0.8-0.2,1.1-0.4c0.3-0.3,0.4-0.7,0.4-1.3c0-0.5-0.1-0.9-0.4-1.2c-0.3-0.3-0.7-0.4-1.2-0.4H18c-0.1,0-0.2,0-0.3,0.1   c0,0-0.1,0.1-0.1,0.3V41.9z M26.3,43.2h-1.9l-0.5,1.7c0,0.3,0,0.5,0,0.7c0.1,0.2,0.2,0.3,0.4,0.3h0.1v0.3h-1.7v-0.3H23   c0.1,0,0.2,0,0.3-0.1c0.1-0.1,0.1-0.2,0.2-0.4l1.8-7.1l0.6-0.2l1.7,7.3c0,0.2,0.1,0.3,0.2,0.4c0.1,0,0.2,0.1,0.3,0.1h0.2v0.3h-1.9   v-0.3h0.2c0.2,0,0.3,0,0.3-0.1c0-0.1,0-0.3,0-0.5L26.3,43.2z M25.4,39.1L25.4,39.1l-1,3.9h1.9L25.4,39.1z M34.1,44.3L34.1,44.3   l0.1-5.4c0-0.1,0-0.2-0.1-0.3c-0.1-0.1-0.2-0.1-0.3-0.1h-0.3v-0.3h1.8v0.3h-0.4c-0.1,0-0.2,0-0.3,0.1c-0.1,0-0.1,0.1-0.1,0.3v7.2   h-0.3l0,0l-3.4-6.9h-0.1v6.3c0,0.1,0,0.2,0.1,0.3c0.1,0,0.2,0.1,0.3,0.1h0.3v0.3h-1.8v-0.3H30c0.1,0,0.3,0,0.3-0.1   c0.1,0,0.1-0.1,0.1-0.3v-6.6c0-0.1,0-0.2-0.1-0.3c-0.1-0.1-0.2-0.1-0.3-0.1h-0.3v-0.3h1.4L34.1,44.3z M39.3,38.5   c-0.4,0-0.9,0.4-1.2,1c-0.4,0.6-0.6,1.6-0.6,2.9c0,0.8,0.1,1.7,0.4,2.4c0.3,0.8,0.7,1.2,1.4,1.2c0.3,0,0.6,0,0.8-0.2   c0.2-0.2,0.3-0.4,0.3-0.7v-1.6c0-0.2,0-0.3-0.1-0.4C40.2,43,40.1,43,39.9,43h-0.3v-0.3h2.2V43h-0.2c-0.2,0-0.3,0-0.4,0.1   c-0.1,0.1-0.1,0.2-0.1,0.4v2.3c0,0-0.1,0-0.2,0c0,0-0.1,0-0.1,0c-0.1,0-0.1,0-0.2,0c-0.1,0-0.1,0-0.2,0.1c-0.2,0.2-0.3,0.3-0.6,0.3   c-0.2,0.1-0.4,0.1-0.6,0.1c-0.9,0-1.5-0.4-2-1.2c-0.4-0.8-0.6-1.7-0.6-2.7c0-1.2,0.3-2.1,0.7-2.9c0.5-0.8,1.1-1.2,1.8-1.2   c0.2,0,0.4,0,0.6,0.1c0.2,0.1,0.4,0.1,0.4,0.1c0.1,0,0.2,0,0.3,0c0.1,0,0.1-0.1,0.2-0.2l0.3,2.1l-0.3,0.1c-0.2-0.6-0.4-1.1-0.7-1.4   C40,38.6,39.7,38.5,39.3,38.5L39.3,38.5z M43.6,38.5v-0.3H48l0.5,1.6l-0.3,0.1c-0.2-0.5-0.5-0.8-0.7-1.1c-0.3-0.2-0.6-0.4-0.9-0.4   h-1.2c-0.1,0-0.2,0-0.3,0.1c-0.1,0-0.1,0.1-0.1,0.3v2.8h1.3c0.3,0,0.5,0,0.6-0.2c0.1-0.1,0.2-0.4,0.2-0.7v-0.3h0.3v2.7h-0.3v-0.2   c0-0.4,0-0.6-0.2-0.8s-0.3-0.3-0.6-0.3h-1.3v3.5c0,0.1,0,0.2,0.1,0.3s0.2,0.1,0.3,0.1h1.2c0.4,0,0.8-0.1,1.1-0.4   c0.3-0.3,0.6-0.7,0.8-1.2l0.2,0.1l-0.5,1.8h-4.5v-0.3h0.3c0.2,0,0.3,0,0.3-0.1c0,0,0.1-0.1,0.1-0.3v-6.6c0-0.1,0-0.2-0.1-0.3   c0-0.1-0.2-0.1-0.3-0.1H43.6z" id="XMLID_2674_"/>
	<polygon class="OrangeTemperature_st1" id="XMLID_1557_" points="8.8,30.8 27,30.8 27,19 30.2,19 17.9,4.9 6.3,19 8.8,19  "/>
	<path class="OrangeTemperature_st4" d="M21.8,17.1h-1.4c0-1-0.5-1.4-1.2-1.5c-0.8,0-1.2,1-1.2,2.8c0,1.8,0.5,2.8,1.2,2.8   c0.8,0,1.2-0.5,1.2-1.5h1.4c0,1.8-0.9,2.6-2.6,2.6c-1.7-0.1-2.6-1.4-2.7-4c0.1-2.6,1-3.9,2.7-4C20.9,14.4,21.8,15.3,21.8,17.1   L21.8,17.1z M16.9,15.4c-0.1,1-0.5,1.6-1.3,1.6c-0.8,0-1.2-0.6-1.3-1.6c0-0.9,0.5-1.5,1.3-1.6C16.4,14,16.8,14.5,16.9,15.4   L16.9,15.4z M14.9,15.4c0,0.5,0.3,0.9,0.7,0.9c0.4,0,0.7-0.4,0.7-0.9c0-0.5-0.3-0.8-0.7-0.8C15.2,14.7,14.9,15,14.9,15.4L14.9,15.4   z" id="XMLID_2684_"/>
</g>
</svg>