<?xml version="1.0" ?><!-- Generator: Adobe Illustrator 19.0.0, SVG Export Plug-In . SVG Version: 6.00 Build 0)  --><svg id="图层_1" style="enable-background:new 0 0 58 51;" version="1.1" viewBox="0 0 58 51" x="0px" xml:space="preserve" xmlns="http://www.w3.org/2000/svg" xmlns:xlink="http://www.w3.org/1999/xlink" y="0px" zn="红色干旱">
<style type="text/css">
	.RedDrought_st0{fill-rule:evenodd;clip-rule:evenodd;fill:#888889;}
	.RedDrought_st1{fill-rule:evenodd;clip-rule:evenodd;fill:#E3001E;}
	.RedDrought_st2{fill-rule:evenodd;clip-rule:evenodd;fill:#DCDCDD;}
	.RedDrought_st3{fill:#FEFEFE;}
	.RedDrought_st4{fill:#E3001E;}
</style>
<g id="XMLID_3167_">
	<path class="RedDrought_st0" d="M3,0.4h52c1.3,0,2.4,1.2,2.4,2.5v45.2c0,1.4-1.1,2.5-2.4,2.5H3c-1.3,0-2.4-1.2-2.4-2.5V2.9   C0.6,1.5,1.7,0.4,3,0.4L3,0.4z" id="XMLID_3168_"/>
	<rect class="RedDrought_st1" height="12.4" id="XMLID_3169_" width="53.1" x="2.4" y="36"/>
	<rect class="RedDrought_st1" height="32" id="XMLID_3170_" width="20.8" x="34.8" y="2.1"/>
	<rect class="RedDrought_st2" height="32" id="XMLID_3171_" width="30.6" x="2.4" y="2.1"/>
	<path class="RedDrought_st3" d="M24.3,40.1c0,0.6-0.2,1.1-0.5,1.4c-0.3,0.4-0.7,0.5-1.1,0.6l1.3,3.5c0,0.1,0.1,0.2,0.2,0.2   c0,0,0.1,0.1,0.2,0.1h0.3v0.3h-1.3l-1.5-4h-0.9v3.4c0,0.1,0,0.2,0.1,0.3c0,0,0.2,0.1,0.3,0.1h0.3v0.3h-2.1v-0.3h0.3   c0.1,0,0.3,0,0.3-0.1c0.1-0.1,0.1-0.2,0.1-0.3v-6.6c0-0.1,0-0.2-0.1-0.3c0,0-0.2-0.1-0.3-0.1h-0.3v-0.3h2.5c0.7,0,1.2,0.1,1.6,0.4   S24.3,39.5,24.3,40.1L24.3,40.1z M21.1,41.9h1c0.4,0,0.8-0.1,1.1-0.4c0.3-0.3,0.4-0.7,0.4-1.3c0-0.5-0.1-0.9-0.4-1.2   c-0.3-0.3-0.7-0.4-1.2-0.4h-0.5c-0.1,0-0.2,0-0.3,0.1c-0.1,0.1-0.1,0.2-0.1,0.3V41.9z M26.5,38.5v-0.3h4.4l0.5,1.6l-0.3,0.1   c-0.2-0.4-0.5-0.8-0.7-1c-0.3-0.2-0.6-0.4-0.9-0.4h-1.2c-0.1,0-0.3,0-0.3,0.1c-0.1,0.1-0.1,0.2-0.1,0.3v2.9h1.3   c0.3,0,0.5-0.1,0.6-0.2c0.2-0.2,0.2-0.4,0.2-0.7v-0.3h0.3v2.7H30v-0.2c0-0.3,0-0.6-0.2-0.8c-0.1-0.2-0.3-0.3-0.6-0.3h-1.3v3.5   c0,0.1,0,0.2,0.1,0.3c0,0,0.2,0.1,0.3,0.1h1.2c0.4,0,0.8-0.1,1.1-0.4c0.3-0.3,0.6-0.7,0.7-1.2l0.3,0.1L31,46.1h-4.5v-0.3h0.3   c0.2,0,0.3,0,0.3-0.1c0.1-0.1,0.1-0.2,0.1-0.3v-6.6c0-0.1,0-0.2-0.1-0.3c0,0-0.2-0.1-0.3-0.1H26.5z M37.5,42.1   c0-1.3-0.2-2.2-0.6-2.8c-0.4-0.5-0.9-0.8-1.6-0.8c-0.2,0-0.4,0-0.5,0.1c-0.1,0.1-0.2,0.2-0.2,0.3v6.6c0,0.1,0,0.2,0.1,0.3   c0.1,0,0.2,0.1,0.4,0.1c0.6,0,1.2-0.3,1.6-0.8C37.2,44.6,37.5,43.6,37.5,42.1L37.5,42.1z M34,38.8c0-0.1,0-0.2-0.1-0.3   c0,0-0.1-0.1-0.3-0.1h-0.3v-0.3h2c0.9,0,1.7,0.3,2.2,0.9c0.6,0.6,0.9,1.6,0.9,2.8c0,1.4-0.3,2.5-0.8,3.1c-0.5,0.7-1.3,1-2.4,1h-1.9   v-0.3h0.3c0.1,0,0.2,0,0.3-0.1c0-0.1,0.1-0.2,0.1-0.3V38.8z" id="XMLID_3172_"/>
	<path class="RedDrought_st3" d="M37.6,15.6c0-0.2,0.1-0.3,0.3-0.3c0.2-0.1,0.3-0.2,0.4-0.2c0.6-0.7,1.3-3.1,2.2-7.4   c0.3,0.1,1.1,0.5,2.4,1.2c0.2,0.1,0.3,0.2,0.2,0.4c0,0-0.2,0.4-0.5,1.2c-1,2.3-1.6,3.9-1.8,4.8l1.5-0.1c0.4-0.9,0.8-1.7,1.1-2.5   c1.5,1.1,2.2,1.7,2.2,1.9c0,0.1-0.1,0.3-0.2,0.5c-0.1,0.3-0.3,0.5-0.4,0.7c-1.2,2.3-2.1,4-2.6,5.2c0.2-0.1,0.6-0.1,1-0.2   c0.5,0,1-0.2,1.7-0.3c0,0.6,0,1.5,0,2.7c-1.3,0.2-2.7,0.5-4.1,0.8c-0.8,0.1-1.5,0.3-2.1,0.5c-0.2,0.1-0.3,0.2-0.3,0.1   c-0.2-1.2-0.3-2.3-0.3-3.1c0,0,0.1-0.1,0.3-0.1c0.3,0,0.4-0.1,0.6-0.2c0.7-0.3,1.4-1.4,2.2-3.3c-1.5,0.2-2.5,0.4-3,0.6   c0,0-0.1,0-0.1,0C38,17.9,37.8,16.9,37.6,15.6L37.6,15.6z M44.7,27.2h2.7v-14h-2.7v-2.9H53v2.9h-3.2v14h3.8v2.9h-9.6v-1.6   c-1.8,0.3-3.7,0.8-5.9,1.4c-0.1,0.1-0.2,0-0.3-0.1c0-0.4-0.2-1.5-0.5-3.2c0,0,0.6-0.1,1.9-0.3c2.4-0.4,4.3-0.8,5.6-1   C44.7,26.1,44.7,26.7,44.7,27.2L44.7,27.2z" id="XMLID_3178_"/>
	<path class="RedDrought_st4" d="M29.7,26h-4.2c0,0,0,0,0,0c-1.1-1.4-2.2-2.9-3.3-4.3c-0.4-0.5-0.4-0.8-0.1-1.4   c0.9-1.9,1.8-3.8,2.7-5.7c0.3-0.6,0.3-1.2,0-1.8c-1.2-2.1-2.3-4.1-3.5-6.2c-0.4-0.7-1-0.9-1.7-0.6c-0.6,0.3-0.8,1.1-0.4,1.7   c1,1.8,2,3.6,3.1,5.4c0.3,0.5,0.3,0.9,0.1,1.3c-1,1.9-1.9,3.8-2.8,5.7c-0.3,0.6-0.3,1.3,0.1,1.9c0.5,0.6,1,1.3,1.4,2   c0.5,0.6,0.9,1.3,1.4,2h-2.4c-0.2-0.2-0.3-0.3-0.5-0.6c-0.9-1.3-1.9-2.7-2.8-4c-0.3-0.4-0.3-0.7-0.1-1.1c0.9-1.9,1.8-3.7,2.7-5.6   c0.4-0.8,0.3-1.6-0.1-2.3c-1.1-2-2.2-4-3.4-5.9C15.7,6.3,15.3,6,15,5.9c-0.3-0.1-0.8,0.1-1,0.3c-0.4,0.5-0.3,1.1,0,1.6   c1,1.8,2,3.6,3,5.4c0.3,0.4,0.3,0.7,0,1.1c-0.9,1.8-1.8,3.7-2.8,5.6c-0.4,0.9-0.5,1.6,0.2,2.4c0.6,0.7,1.1,1.5,1.7,2.2   c0.3,0.4,0.6,0.9,1,1.4h-2.3c-1.2-1.5-2.3-3.1-3.4-4.6c-0.2-0.3-0.2-0.6-0.1-1c0.9-1.9,1.8-3.9,2.8-5.8c0.3-0.7,0.3-1.3-0.1-2   c-0.5-0.8-0.9-1.7-1.4-2.5c-0.7-1.3-1.4-2.6-2.2-3.9c-0.3-0.5-0.9-0.6-1.4-0.4C8.6,6.1,8.3,6.4,8.5,7C8.6,7.5,8.8,8,9,8.4   c0.9,1.7,1.9,3.3,2.8,5c0.1,0.2,0.1,0.6,0,0.8c-0.4,0.9-0.9,1.8-1.3,2.7c-0.6,1.2-1.2,2.5-1.8,3.7c-0.2,0.5-0.1,1,0.2,1.4   c0.6,0.7,1.1,1.5,1.7,2.3c0.4,0.5,0.8,1.1,1.2,1.7h-6c-0.7,0-1.2,0.5-1.2,1.2v0.4c0,0.7,0.5,1.2,1.2,1.2h23.8   c0.7,0,1.2-0.5,1.2-1.2v-0.4C30.9,26.6,30.4,26,29.7,26z" id="XMLID_3181_"/>
</g>
</svg>