<?xml version="1.0" ?><!-- Generator: Adobe Illustrator 19.0.0, SVG Export Plug-In . SVG Version: 6.00 Build 0)  --><svg id="图层_1" style="enable-background:new 0 0 58 51;" version="1.1" viewBox="0 0 58 51" x="0px" xml:space="preserve" xmlns="http://www.w3.org/2000/svg" xmlns:xlink="http://www.w3.org/1999/xlink" y="0px" zn="红色冰雹">
<style type="text/css">
	.RedHail_st0{fill-rule:evenodd;clip-rule:evenodd;fill:#888889;}
	.RedHail_st1{fill-rule:evenodd;clip-rule:evenodd;fill:#E3001E;}
	.RedHail_st2{fill-rule:evenodd;clip-rule:evenodd;fill:#DCDCDD;}
	.RedHail_st3{fill:#FEFEFE;}
	.RedHail_st4{fill-rule:evenodd;clip-rule:evenodd;fill:#FFFFFF;}
	.RedHail_st5{fill-rule:evenodd;clip-rule:evenodd;fill:none;stroke:#E3001E;stroke-miterlimit:10;}
</style>
<g id="XMLID_3268_">
	<path class="RedHail_st0" d="M3,0.4h52c1.3,0,2.4,1.2,2.4,2.5v45.2c0,1.4-1.1,2.5-2.4,2.5H3c-1.3,0-2.4-1.2-2.4-2.5V2.9   C0.6,1.5,1.7,0.4,3,0.4L3,0.4z" id="XMLID_3269_"/>
	<rect class="RedHail_st1" height="12.4" id="XMLID_3270_" width="53.1" x="2.4" y="36"/>
	<rect class="RedHail_st1" height="32" id="XMLID_3271_" width="20.8" x="34.8" y="2.1"/>
	<rect class="RedHail_st2" height="32" id="XMLID_3272_" width="30.6" x="2.4" y="2.1"/>
	<path class="RedHail_st3" d="M24.3,40.1c0,0.6-0.2,1.1-0.5,1.4c-0.3,0.4-0.7,0.5-1.1,0.6l1.3,3.5c0,0.1,0.1,0.2,0.2,0.2   c0,0,0.1,0.1,0.2,0.1h0.3v0.3h-1.3l-1.5-4h-0.9v3.4c0,0.1,0,0.2,0.1,0.3c0,0,0.2,0.1,0.3,0.1h0.3v0.3h-2.1v-0.3h0.3   c0.1,0,0.3,0,0.3-0.1c0.1-0.1,0.1-0.2,0.1-0.3v-6.6c0-0.1,0-0.2-0.1-0.3c0,0-0.2-0.1-0.3-0.1h-0.3v-0.3h2.5c0.7,0,1.2,0.1,1.6,0.4   S24.3,39.5,24.3,40.1L24.3,40.1z M21.1,41.9h1c0.4,0,0.8-0.1,1.1-0.4c0.3-0.3,0.4-0.7,0.4-1.3c0-0.5-0.1-0.9-0.4-1.2   c-0.3-0.3-0.7-0.4-1.2-0.4h-0.5c-0.1,0-0.2,0-0.3,0.1c-0.1,0.1-0.1,0.2-0.1,0.3V41.9z M26.5,38.5v-0.3h4.4l0.5,1.6l-0.3,0.1   c-0.2-0.4-0.5-0.8-0.7-1c-0.3-0.2-0.6-0.4-0.9-0.4h-1.2c-0.1,0-0.3,0-0.3,0.1c-0.1,0.1-0.1,0.2-0.1,0.3v2.9h1.3   c0.3,0,0.5-0.1,0.6-0.2c0.2-0.2,0.2-0.4,0.2-0.7v-0.3h0.3v2.7H30v-0.2c0-0.3,0-0.6-0.2-0.8c-0.1-0.2-0.3-0.3-0.6-0.3h-1.3v3.5   c0,0.1,0,0.2,0.1,0.3c0,0,0.2,0.1,0.3,0.1h1.2c0.4,0,0.8-0.1,1.1-0.4c0.3-0.3,0.6-0.7,0.7-1.2l0.3,0.1L31,46.1h-4.5v-0.3h0.3   c0.2,0,0.3,0,0.3-0.1c0.1-0.1,0.1-0.2,0.1-0.3v-6.6c0-0.1,0-0.2-0.1-0.3c0,0-0.2-0.1-0.3-0.1H26.5z M37.5,42.1   c0-1.3-0.2-2.2-0.6-2.8c-0.4-0.5-0.9-0.8-1.6-0.8c-0.2,0-0.4,0-0.5,0.1c-0.1,0.1-0.2,0.2-0.2,0.3v6.6c0,0.1,0,0.2,0.1,0.3   c0.1,0,0.2,0.1,0.4,0.1c0.6,0,1.2-0.3,1.6-0.8C37.2,44.6,37.5,43.6,37.5,42.1L37.5,42.1z M34,38.8c0-0.1,0-0.2-0.1-0.3   c0,0-0.1-0.1-0.3-0.1h-0.3v-0.3h2c0.9,0,1.7,0.3,2.2,0.9c0.6,0.6,0.9,1.6,0.9,2.8c0,1.4-0.3,2.5-0.8,3.1c-0.5,0.7-1.3,1-2.4,1h-1.9   v-0.3h0.3c0.1,0,0.2,0,0.3-0.1c0-0.1,0.1-0.2,0.1-0.3V38.8z" id="XMLID_3273_"/>
	<path class="RedHail_st3" d="M37.6,15.6c0-0.2,0.1-0.3,0.3-0.3c0.2-0.1,0.3-0.2,0.4-0.2c0.6-0.7,1.3-3.1,2.2-7.4   c0.3,0.1,1.1,0.5,2.4,1.2c0.2,0.1,0.3,0.2,0.2,0.4c0,0-0.2,0.4-0.5,1.2c-1,2.3-1.6,3.9-1.8,4.8l1.5-0.1c0.4-0.9,0.8-1.7,1.1-2.5   c1.5,1.1,2.2,1.7,2.2,1.9c0,0.1-0.1,0.3-0.2,0.5c-0.1,0.3-0.3,0.5-0.4,0.7c-1.2,2.3-2.1,4-2.6,5.2c0.2-0.1,0.6-0.1,1-0.2   c0.5,0,1-0.2,1.7-0.3c0,0.6,0,1.5,0,2.7c-1.3,0.2-2.7,0.5-4.1,0.8c-0.8,0.1-1.5,0.3-2.1,0.5c-0.2,0.1-0.3,0.2-0.3,0.1   c-0.2-1.2-0.3-2.3-0.3-3.1c0,0,0.1-0.1,0.3-0.1c0.3,0,0.4-0.1,0.6-0.2c0.7-0.3,1.4-1.4,2.2-3.3c-1.5,0.2-2.5,0.4-3,0.6   c0,0-0.1,0-0.1,0C38,17.9,37.8,16.9,37.6,15.6L37.6,15.6z M44.7,27.2h2.7v-14h-2.7v-2.9H53v2.9h-3.2v14h3.8v2.9h-9.6v-1.6   c-1.8,0.3-3.7,0.8-5.9,1.4c-0.1,0.1-0.2,0-0.3-0.1c0-0.4-0.2-1.5-0.5-3.2c0,0,0.6-0.1,1.9-0.3c2.4-0.4,4.3-0.8,5.6-1   C44.7,26.1,44.7,26.7,44.7,27.2L44.7,27.2z" id="XMLID_3279_"/>
	<g id="XMLID_3282_">
		<path class="RedHail_st4" d="M18.3,18.2l0.1-13c0,0,6.8,5.6,9.1,8.8C23.6,15.8,20.1,17.3,18.3,18.2z" id="XMLID_1559_"/>
		<path class="RedHail_st1" d="M18.3,18.2l0.2-12.9c0,0-6.8,5.6-9.1,8.8C13.3,16,16.5,17.3,18.3,18.2z" id="XMLID_1557_"/>
		<path class="RedHail_st1" d="M18.3,18.2v13.4c0,0,0.5,0.9,1.6-1.3c1-2.2,7.4-16.6,7.4-16.6L18.3,18.2z" id="XMLID_3283_"/>
		<path class="RedHail_st4" d="M18.3,18.2v13.4c0,0-0.5,0.9-1.6-1.3S9.4,14,9.4,14L18.3,18.2z" id="XMLID_1554_"/>
		<path class="RedHail_st5" d="M9.4,14c0,0.6,7.7,17.1,7.7,17.1s1.3,1.6,2.5-0.2c0,0,7.3-15.5,7.6-16.9    c0,0,0.2-0.4-0.4-1.1c0,0-7.9-7.7-8.3-7.7C18,5.2,9.4,13.5,9.4,14z" id="XMLID_3284_"/>
	</g>
</g>
</svg>