<?xml version="1.0" ?><!-- Generator: Adobe Illustrator 19.0.0, SVG Export Plug-In . SVG Version: 6.00 Build 0)  --><svg id="图层_1" style="enable-background:new 0 0 58 51;" version="1.1" viewBox="0 0 58 51" x="0px" xml:space="preserve" xmlns="http://www.w3.org/2000/svg" xmlns:xlink="http://www.w3.org/1999/xlink" y="0px" zn="红色高温">
<style type="text/css">
	.RedTemperature_st0{fill-rule:evenodd;clip-rule:evenodd;fill:#888889;}
	.RedTemperature_st1{fill-rule:evenodd;clip-rule:evenodd;fill:#E3001E;}
	.RedTemperature_st2{fill-rule:evenodd;clip-rule:evenodd;fill:#DCDCDD;}
	.RedTemperature_st3{fill:#FEFEFE;}
</style>
<g id="XMLID_2688_">
	<path class="RedTemperature_st0" d="M3,0.4h52c1.3,0,2.4,1.2,2.4,2.5v45.2c0,1.4-1.1,2.5-2.4,2.5H3c-1.3,0-2.4-1.2-2.4-2.5V2.9   C0.6,1.5,1.7,0.4,3,0.4L3,0.4z" id="XMLID_2689_"/>
	<rect class="RedTemperature_st1" height="12.4" id="XMLID_2690_" width="53.1" x="2.4" y="36"/>
	<rect class="RedTemperature_st1" height="32" id="XMLID_2691_" width="20.8" x="34.8" y="2.1"/>
	<rect class="RedTemperature_st2" height="32" id="XMLID_2692_" width="30.6" x="2.4" y="2.1"/>
	<path class="RedTemperature_st3" d="M24.3,40.1c0,0.6-0.2,1.1-0.5,1.4c-0.3,0.4-0.7,0.5-1.1,0.6l1.3,3.5c0,0.1,0.1,0.2,0.2,0.2   c0,0,0.1,0.1,0.2,0.1h0.3v0.3h-1.3l-1.5-4h-0.9v3.4c0,0.1,0,0.2,0.1,0.3c0,0,0.2,0.1,0.3,0.1h0.3v0.3h-2.1v-0.3h0.3   c0.1,0,0.3,0,0.3-0.1c0.1-0.1,0.1-0.2,0.1-0.3v-6.6c0-0.1,0-0.2-0.1-0.3c0,0-0.2-0.1-0.3-0.1h-0.3v-0.3h2.5c0.7,0,1.2,0.1,1.6,0.4   S24.3,39.5,24.3,40.1L24.3,40.1z M21.1,41.9h1c0.4,0,0.8-0.1,1.1-0.4c0.3-0.3,0.4-0.7,0.4-1.3c0-0.5-0.1-0.9-0.4-1.2   c-0.3-0.3-0.7-0.4-1.2-0.4h-0.5c-0.1,0-0.2,0-0.3,0.1c-0.1,0.1-0.1,0.2-0.1,0.3V41.9z M26.5,38.5v-0.3h4.4l0.5,1.6l-0.3,0.1   c-0.2-0.4-0.5-0.8-0.7-1c-0.3-0.2-0.6-0.4-0.9-0.4h-1.2c-0.1,0-0.3,0-0.3,0.1c-0.1,0.1-0.1,0.2-0.1,0.3v2.9h1.3   c0.3,0,0.5-0.1,0.6-0.2c0.2-0.2,0.2-0.4,0.2-0.7v-0.3h0.3v2.7H30v-0.2c0-0.3,0-0.6-0.2-0.8c-0.1-0.2-0.3-0.3-0.6-0.3h-1.3v3.5   c0,0.1,0,0.2,0.1,0.3c0,0,0.2,0.1,0.3,0.1h1.2c0.4,0,0.8-0.1,1.1-0.4c0.3-0.3,0.6-0.7,0.7-1.2l0.3,0.1L31,46.1h-4.5v-0.3h0.3   c0.2,0,0.3,0,0.3-0.1c0.1-0.1,0.1-0.2,0.1-0.3v-6.6c0-0.1,0-0.2-0.1-0.3c0,0-0.2-0.1-0.3-0.1H26.5z M37.5,42.1   c0-1.3-0.2-2.2-0.6-2.8c-0.4-0.5-0.9-0.8-1.6-0.8c-0.2,0-0.4,0-0.5,0.1c-0.1,0.1-0.2,0.2-0.2,0.3v6.6c0,0.1,0,0.2,0.1,0.3   c0.1,0,0.2,0.1,0.4,0.1c0.6,0,1.2-0.3,1.6-0.8C37.2,44.6,37.5,43.6,37.5,42.1L37.5,42.1z M34,38.8c0-0.1,0-0.2-0.1-0.3   c0,0-0.1-0.1-0.3-0.1h-0.3v-0.3h2c0.9,0,1.7,0.3,2.2,0.9c0.6,0.6,0.9,1.6,0.9,2.8c0,1.4-0.3,2.5-0.8,3.1c-0.5,0.7-1.3,1-2.4,1h-1.9   v-0.3h0.3c0.1,0,0.2,0,0.3-0.1c0-0.1,0.1-0.2,0.1-0.3V38.8z" id="XMLID_2693_"/>
	<path class="RedTemperature_st3" d="M37.6,15.6c0-0.2,0.1-0.3,0.3-0.3c0.2-0.1,0.3-0.2,0.4-0.2c0.6-0.7,1.3-3.1,2.2-7.4   c0.3,0.1,1.1,0.5,2.4,1.2c0.2,0.1,0.3,0.2,0.2,0.4c0,0-0.2,0.4-0.5,1.2c-1,2.3-1.6,3.9-1.8,4.8l1.5-0.1c0.4-0.9,0.8-1.7,1.1-2.5   c1.5,1.1,2.2,1.7,2.2,1.9c0,0.1-0.1,0.3-0.2,0.5c-0.1,0.3-0.3,0.5-0.4,0.7c-1.2,2.3-2.1,4-2.6,5.2c0.2-0.1,0.6-0.1,1-0.2   c0.5,0,1-0.2,1.7-0.3c0,0.6,0,1.5,0,2.7c-1.3,0.2-2.7,0.5-4.1,0.8c-0.8,0.1-1.5,0.3-2.1,0.5c-0.2,0.1-0.3,0.2-0.3,0.1   c-0.2-1.2-0.3-2.3-0.3-3.1c0,0,0.1-0.1,0.3-0.1c0.3,0,0.4-0.1,0.6-0.2c0.7-0.3,1.4-1.4,2.2-3.3c-1.5,0.2-2.5,0.4-3,0.6   c0,0-0.1,0-0.1,0C38,17.9,37.8,16.9,37.6,15.6L37.6,15.6z M44.7,27.2h2.7v-14h-2.7v-2.9H53v2.9h-3.2v14h3.8v2.9h-9.6v-1.6   c-1.8,0.3-3.7,0.8-5.9,1.4c-0.1,0.1-0.2,0-0.3-0.1c0-0.4-0.2-1.5-0.5-3.2c0,0,0.6-0.1,1.9-0.3c2.4-0.4,4.3-0.8,5.6-1   C44.7,26.1,44.7,26.7,44.7,27.2L44.7,27.2z" id="XMLID_2699_"/>
	<polygon class="RedTemperature_st1" id="XMLID_1557_" points="9,30.8 27.2,30.8 27.2,19 30.4,19 18,4.9 6.5,19 9,19  "/>
	<path class="RedTemperature_st3" d="M22,17.1h-1.4c0-1-0.5-1.4-1.2-1.5c-0.8,0-1.2,1-1.2,2.8c0,1.8,0.5,2.8,1.2,2.8   c0.8,0,1.2-0.5,1.2-1.5H22c0,1.8-0.9,2.6-2.6,2.6c-1.7-0.1-2.6-1.4-2.7-4c0.1-2.6,1-3.9,2.7-4C21.1,14.4,21.9,15.3,22,17.1L22,17.1   z M17,15.4c-0.1,1-0.5,1.6-1.3,1.6c-0.8,0-1.2-0.6-1.3-1.6c0-0.9,0.5-1.5,1.3-1.6C16.5,14,17,14.5,17,15.4L17,15.4z M15,15.4   c0,0.5,0.3,0.9,0.7,0.9c0.4,0,0.7-0.4,0.7-0.9c0-0.5-0.3-0.8-0.7-0.8C15.3,14.7,15.1,15,15,15.4L15,15.4z" id="XMLID_2702_"/>
</g>
</svg>