<?xml version="1.0" ?><!-- Generator: Adobe Illustrator 19.0.0, SVG Export Plug-In . SVG Version: 6.00 Build 0)  --><svg id="图层_1" style="enable-background:new 0 0 58 51;" version="1.1" viewBox="0 0 58 51" x="0px" xml:space="preserve" xmlns="http://www.w3.org/2000/svg" xmlns:xlink="http://www.w3.org/1999/xlink" y="0px" zn="黄色沙尘暴">
<style type="text/css">
	.YellowStorm_st0{fill-rule:evenodd;clip-rule:evenodd;fill:#888889;}
	.YellowStorm_st1{fill-rule:evenodd;clip-rule:evenodd;fill:#F5FF22;}
	.YellowStorm_st2{fill:#E3001E;}
	.YellowStorm_st3{fill-rule:evenodd;clip-rule:evenodd;fill:#DCDCDD;}
	.YellowStorm_st4{fill:none;stroke:#E3001E;stroke-width:2.8871;stroke-linecap:round;stroke-linejoin:round;stroke-miterlimit:10;}
	.YellowStorm_st5{fill:#FEFEFE;}
	.YellowStorm_st6{fill:#F5FF22;}
	.YellowStorm_st7{fill-rule:evenodd;clip-rule:evenodd;fill:#F5FF22;stroke:#FFFFFF;stroke-miterlimit:10;}
</style>
<g id="XMLID_2288_">
	<path class="YellowStorm_st0" d="M3,0.4h52c1.3,0,2.4,1.2,2.4,2.5v45.2c0,1.4-1.1,2.5-2.4,2.5H3c-1.3,0-2.4-1.2-2.4-2.5V2.9   C0.6,1.5,1.7,0.4,3,0.4L3,0.4z" id="XMLID_2289_"/>
	<rect class="YellowStorm_st1" height="12.4" id="XMLID_2290_" width="53.1" x="2.4" y="36"/>
	<path class="YellowStorm_st2" d="M13.2,39.1c0-0.2,0-0.4-0.1-0.4c-0.1-0.1-0.2-0.1-0.4-0.1h-0.1v-0.3h1.8v0.3h-0.1   c-0.2,0-0.3,0-0.4,0.2c-0.1,0.1-0.2,0.3-0.3,0.5l-1.4,3.6v2.7c0,0.1,0,0.2,0.1,0.3c0.1,0,0.2,0.1,0.3,0.1h0.4v0.3h-2.3v-0.3H11   c0.2,0,0.3,0,0.3-0.1c0-0.1,0.1-0.2,0.1-0.3v-2.4l-1.5-4c0-0.2-0.1-0.3-0.2-0.4c-0.1-0.1-0.2-0.1-0.3-0.1H9.2v-0.3h2v0.3h-0.3   c-0.2,0-0.3,0-0.3,0.1c0,0.1,0,0.2,0,0.4l1.2,3.4h0.1L13.2,39.1z M16.1,38.5v-0.3h4.4l0.5,1.6l-0.3,0.1c-0.2-0.4-0.5-0.8-0.7-1   c-0.3-0.2-0.6-0.4-0.9-0.4h-1.2c-0.1,0-0.2,0-0.3,0.1c-0.1,0.1-0.1,0.2-0.1,0.3v2.9h1.3c0.3,0,0.5-0.1,0.7-0.2   c0.1-0.2,0.2-0.4,0.2-0.7v-0.3h0.3v2.7h-0.3v-0.2c0-0.3,0-0.6-0.2-0.8C19.3,42.1,19,42,18.7,42h-1.3v3.5c0,0.1,0,0.2,0.1,0.3   c0.1,0,0.2,0.1,0.3,0.1H19c0.4,0,0.8-0.1,1.1-0.4c0.3-0.3,0.6-0.7,0.8-1.2l0.2,0.1l-0.5,1.8h-4.5v-0.3h0.3c0.2,0,0.3,0,0.3-0.1   c0.1-0.1,0.1-0.2,0.1-0.3v-6.6c0-0.1,0-0.2-0.1-0.3c0,0-0.2-0.1-0.3-0.1H16.1z M24.4,45.5c0,0.1,0,0.2,0.1,0.3   c0.1,0,0.2,0.1,0.3,0.1H26c0.4,0,0.8-0.1,1.1-0.4c0.3-0.3,0.5-0.7,0.7-1.2l0.2,0.1l-0.4,1.8H23v-0.3h0.3c0.2,0,0.3,0,0.3-0.1   c0-0.1,0.1-0.2,0.1-0.3v-6.6c0-0.1,0-0.2-0.1-0.3c-0.1,0-0.2-0.1-0.3-0.1H23v-0.3h2.1v0.3h-0.3c-0.1,0-0.2,0-0.3,0.1   c-0.1,0.1-0.1,0.2-0.1,0.3V45.5z M31.3,45.5c0,0.1,0,0.2,0.1,0.3c0.1,0,0.2,0.1,0.3,0.1h1.2c0.4,0,0.8-0.1,1.1-0.4   c0.3-0.3,0.5-0.7,0.7-1.2l0.2,0.1l-0.4,1.8h-4.6v-0.3h0.3c0.1,0,0.2,0,0.3-0.1c0-0.1,0.1-0.2,0.1-0.3v-6.6c0-0.1,0-0.2-0.1-0.3   c-0.1,0-0.2-0.1-0.3-0.1h-0.3v-0.3h2.1v0.3h-0.3c-0.1,0-0.2,0-0.3,0.1c-0.1,0.1-0.1,0.2-0.1,0.3V45.5z M37.5,42.2   c0,1.3,0.2,2.3,0.5,2.9c0.3,0.6,0.7,0.9,1.2,0.9c0.5,0,0.9-0.3,1.2-0.8c0.3-0.6,0.4-1.6,0.4-2.9c0-1.1-0.1-2-0.4-2.7   c-0.2-0.7-0.6-1-1.2-1c-0.5,0-0.9,0.3-1.2,0.9C37.7,40,37.5,40.9,37.5,42.2L37.5,42.2z M41.7,42.2c0,1.2-0.2,2.2-0.7,3   c-0.5,0.7-1.1,1.1-1.8,1.1s-1.3-0.4-1.8-1.1c-0.5-0.7-0.8-1.7-0.8-2.9c0-1.2,0.3-2.2,0.7-2.9c0.4-0.8,1-1.1,1.8-1.1   c0.8,0,1.4,0.4,1.8,1.2C41.5,40.1,41.7,41.1,41.7,42.2L41.7,42.2z M48.8,38.2v0.3h-0.2c0,0-0.1,0-0.2,0.1c-0.1,0.1-0.1,0.2-0.2,0.4   L47,46.1h-0.3l-0.7-4.9H46L45,46.1h-0.3l-1.1-7.3c0-0.1,0-0.2-0.1-0.3c0,0-0.1-0.1-0.2-0.1h-0.2v-0.3h1.6v0.3h-0.1   c-0.1,0-0.2,0-0.3,0.1c0,0.1-0.1,0.2-0.1,0.3l0.7,5h0.1l0.8-4l-0.1-1c0-0.1,0-0.2-0.1-0.3c-0.1,0-0.1-0.1-0.2-0.1h-0.1v-0.3h1.5   v0.3h-0.2c-0.1,0-0.2,0-0.2,0.1c0,0.1-0.1,0.2-0.1,0.3l0.6,4.7h0.1l0.9-4.6c0-0.2,0-0.3-0.1-0.4c-0.1-0.1-0.2-0.1-0.3-0.1h-0.1   v-0.3H48.8z" id="XMLID_2291_"/>
	<rect class="YellowStorm_st1" height="32" id="XMLID_2299_" width="20.8" x="34.8" y="2.1"/>
	<rect class="YellowStorm_st3" height="32" id="XMLID_2300_" width="30.6" x="2.4" y="2.1"/>
	<g id="XMLID_2301_">
		<path class="YellowStorm_st4" d="M38.3,8.4h3.4V6.6h1c0.9,0,1.4,0.1,1.4,0.3c0,0.1,0,0.2,0,0.4c0,0.3-0.1,0.6-0.1,0.8v0.3    h2.3V6.6h1c1.2,0,1.7,0.1,1.5,0.2c0,0,0,0.2-0.1,0.4c0,0.3,0,0.5,0,0.6v0.6h3.1V11h-3.1v1.2h4.6v2.7h-7.1V16H51v9.4h-2.6    c1.3,0.8,2.6,1.7,3.8,2.6l-1.6,2.8c-1.4-1.4-3-2.6-4.9-3.7l1.3-1.8h-4.2l1.5,1.9c-1.7,1.2-3.5,2.3-5.4,3.2c-0.6-1-1.1-1.9-1.5-2.6    c1.5-0.3,2.9-1.1,4.2-2.3h-2.4V16h4.6v-1.1h-6.7v-2.7h4.5V11h-3.4V8.4z M44.1,11v1.2h2.3V11H44.1z M41.7,18.5v1h2.3v-1H41.7z     M46.2,19.5h2.4v-1h-2.4V19.5z M41.7,21.8V23h2.3v-1.2H41.7z M48.6,23v-1.2h-2.4V23H48.6z" id="XMLID_2302_"/>
		<path class="YellowStorm_st5" d="M38.1,8.4h3.4V6.6h1c0.9,0,1.4,0.1,1.4,0.3c0,0.1,0,0.2,0,0.4c0,0.3-0.1,0.6-0.1,0.8v0.3    h2.3V6.6h1c1.2,0,1.7,0.1,1.5,0.2c0,0,0,0.2-0.1,0.4c0,0.3,0,0.5,0,0.6v0.6h3.1V11h-3.1v1.2h4.6v2.7H46V16h4.8v9.4h-2.6    c1.3,0.8,2.6,1.7,3.8,2.6l-1.6,2.8c-1.4-1.4-3-2.6-4.9-3.7l1.3-1.8h-4.2l1.5,1.9c-1.7,1.2-3.5,2.3-5.4,3.2c-0.6-1-1.1-1.9-1.5-2.6    c1.5-0.3,2.9-1.1,4.2-2.3h-2.4V16h4.6v-1.1H37v-2.7h4.5V11h-3.4V8.4z M43.8,11v1.2h2.3V11H43.8z M41.4,18.5v1h2.3v-1H41.4z     M46,19.5h2.4v-1H46V19.5z M41.4,21.8V23h2.3v-1.2H41.4z M48.3,23v-1.2H46V23H48.3z" id="XMLID_2309_"/>
	</g>
	<g id="XMLID_2316_">
		<path class="YellowStorm_st6" d="M9.2,17.9h13.4c-1.2-0.6-2.7-1.1-4.6-1.4c-0.4-0.1-0.6-0.1-0.7-0.1c-0.2,0-0.4,0-0.7-0.1    c-2.5-0.6-3.8-1.7-3.8-3.3c0.1-1.9,1.4-3,3.9-3.1c2.5,0,3.8,1.2,3.9,3.7h5c-0.3-4.7-3-7.2-8.3-7.5C11,6.3,7.7,9,7.4,14    C7.4,15.5,8,16.8,9.2,17.9z" id="XMLID_2317_"/>
		<path class="YellowStorm_st6" d="M17.6,21.2c2.2,0.7,3.3,1.7,3.3,3.1c-0.1,2-1.7,3.1-4.9,3.1C13.4,27.3,12,25.8,12,23H6.8    c-0.1,5.3,3,8,9.3,8c6.8-0.2,10.3-2.8,10.4-7.9c0-0.7-0.1-1.3-0.3-1.9H17.6z" id="XMLID_2318_"/>
	</g>
	<polygon class="YellowStorm_st7" id="XMLID_2319_" points="5.4,18.3 26.1,18.3 26.1,15.6 30.3,19.3 26.2,24.3 26.1,21.2 5.4,21.2  "/>
</g>
</svg>