<?xml version="1.0" encoding="utf-8"?>
<!-- Generator: Adobe Illustrator 19.0.0, SVG Export Plug-In . SVG Version: 6.00 Build 0)  -->
<svg version="1.1" id="图层_1" xmlns="http://www.w3.org/2000/svg" xmlns:xlink="http://www.w3.org/1999/xlink" x="0px" y="0px"
	 viewBox="0 0 241 94" style="enable-background:new 0 0 241 94;" xml:space="preserve">
<style type="text/css">
	.pad_nav_st0{fill:rgba(0,0,0,0);stroke:#00FFFF;stroke-miterlimit:10;}
	.pad_nav_st1{fill:#1561C0;fill-opacity:0.3;stroke:#00FFFF;stroke-width:0.5;stroke-miterlimit:10;}
</style>
<g id="XMLID_272_">
	<polygon id="XMLID_277_" class="pad_nav_st0" points="232.8,92.3 0.5,92.3 0.5,13.9 2.6,11.8 2.6,6.6 7.2,1.7 104.1,1.7 112.3,6.4 
		135.7,6.2 236.2,5.6 240.6,10.5 240.6,22.7 237.5,27.6 237.5,85.2 	"/>
	<polygon id="XMLID_273_" class="pad_nav_st1" points="125.9,6.4 121.8,9.9 42.3,9.9 40.5,6.6 9.9,6.6 9.9,19 7.2,21.7 7.2,29 7.2,31.5 
		7.2,74.1 5.5,77.7 5.5,92.3 0.5,92.3 0.4,14 2.5,11.8 2.5,6.6 7.2,1.7 104,1.7 112.2,6.4 	"/>
</g>
</svg>
