<?xml version="1.0" ?><!-- Generator: Adobe Illustrator 19.0.0, SVG Export Plug-In . SVG Version: 6.00 Build 0)  --><svg id="图层_1" style="enable-background:new 0 0 60 60;" version="1.1" viewBox="0 0 60 60" x="0px" xml:space="preserve" xmlns="http://www.w3.org/2000/svg" xmlns:xlink="http://www.w3.org/1999/xlink" y="0px" zn="中雪">
<style type="text/css">
	.CentreSnow_st0{fill:#FFFFFF;}
</style>
<g id="XMLID_13_">
	<path class="CentreSnow_st0" d="M45.2,14.8C42,9,35.8,5.2,29.1,5.2c-9.3,0-16.8,6.5-18,15.3C6.5,21.6,3,25.7,3,30.7   c0,5.8,4.7,10.4,10.4,10.4c2.4,0,4.7-0.8,6.5-2.2c2.9,1.9,6,2.8,9.2,2.8c3.1,0,5.2-0.5,7.6-1.8c2.1,1.2,4.4,1.8,6.8,1.8   C51,41.7,57,35.6,57,28.2C57,21.3,51.8,15.6,45.2,14.8z M43.5,38.1c-2,0-4-0.6-5.7-1.8c-0.5-0.4-1.2-0.4-1.8-0.2   c-0.1,0-0.3,0.1-0.4,0.2c-2.2,1.4-3.8,1.8-6.6,1.8c-3,0-5.6-0.9-8.3-2.9c-0.3-0.2-0.7-0.4-1.1-0.3c-0.5,0-1,0.2-1.4,0.6   c-1.3,1.4-3,2.1-5,2.1c-3.8,0-6.8-3.1-6.8-6.8s3.1-6.8,6.8-6.8c1.3,0,2.6,0.4,3.7,1.1c0.8,0.5,2,0.3,2.5-0.5c0.5-0.8,0.3-2-0.5-2.5   c-1.3-0.8-2.7-1.4-4.2-1.6C16.1,13.7,22,8.9,29.1,8.9c4.7,0,9.1,2.3,11.8,6.1c-3.3,0.6-6.3,2.5-8.3,5.3C32,21,32.2,22.2,33,22.8   c0.8,0.6,1.9,0.4,2.5-0.4c1.9-2.5,4.8-4,8-4c5.4,0,9.9,4.4,9.9,9.9C53.4,33.6,49,38.1,43.5,38.1z" id="XMLID_16_"/>
	<path class="CentreSnow_st0" d="M20.3,47.2c0-0.3,0.3-0.6,0.6-0.6c0.3,0,0.6,0.3,0.6,0.6V48c0,0.3,0.7,0.6,0.9,0.4l0.5-0.5   c0.2-0.2,0.6-0.2,0.8,0c0.2,0.2,0.2,0.6,0,0.8l-0.5,0.5c-0.2,0.2,0.1,0.9,0.4,0.9h0.7c0.3,0,0.6,0.3,0.6,0.6c0,0.3-0.3,0.6-0.6,0.6   h-0.7c-0.3,0-0.6,0.7-0.4,0.9l0.5,0.5c0.2,0.2,0.2,0.6,0,0.8c-0.2,0.2-0.6,0.2-0.8,0l-0.5-0.5c-0.2-0.2-0.9,0.1-0.9,0.4v0.7   c0,0.3-0.3,0.6-0.6,0.6c-0.3,0-0.6-0.3-0.6-0.6v-0.7c0-0.3-0.7-0.6-0.9-0.4l-0.5,0.5c-0.2,0.2-0.6,0.2-0.8,0   c-0.2-0.2-0.2-0.6,0-0.8l0.5-0.5c0.2-0.2-0.1-0.9-0.4-0.9h-0.7c-0.3,0-0.6-0.3-0.6-0.6c0-0.3,0.3-0.6,0.6-0.6h0.7   c0.3,0,0.6-0.7,0.4-0.9l-0.5-0.5c-0.2-0.2-0.2-0.6,0-0.8c0.2-0.2,0.6-0.2,0.8,0l0.5,0.5c0.2,0.2,0.9-0.1,0.9-0.4V47.2L20.3,47.2z" id="XMLID_15_"/>
	<path class="CentreSnow_st0" d="M35.3,47.2c0-0.3,0.3-0.6,0.6-0.6c0.3,0,0.6,0.3,0.6,0.6V48c0,0.3,0.7,0.6,0.9,0.4l0.5-0.5   c0.2-0.2,0.6-0.2,0.8,0c0.2,0.2,0.2,0.6,0,0.8l-0.5,0.5c-0.2,0.2,0.1,0.9,0.4,0.9h0.7c0.3,0,0.6,0.3,0.6,0.6c0,0.3-0.3,0.6-0.6,0.6   h-0.7c-0.3,0-0.6,0.7-0.4,0.9l0.5,0.5c0.2,0.2,0.2,0.6,0,0.8c-0.2,0.2-0.6,0.2-0.8,0l-0.5-0.5c-0.2-0.2-0.9,0.1-0.9,0.4v0.7   c0,0.3-0.3,0.6-0.6,0.6c-0.3,0-0.6-0.3-0.6-0.6v-0.7c0-0.3-0.7-0.6-0.9-0.4l-0.5,0.5c-0.2,0.2-0.6,0.2-0.8,0   c-0.2-0.2-0.2-0.6,0-0.8l0.5-0.5c0.2-0.2-0.1-0.9-0.4-0.9h-0.7c-0.3,0-0.6-0.3-0.6-0.6c0-0.3,0.3-0.6,0.6-0.6h0.7   c0.3,0,0.6-0.7,0.4-0.9L33,48.7c-0.2-0.2-0.2-0.6,0-0.8c0.2-0.2,0.6-0.2,0.8,0l0.5,0.5c0.2,0.2,0.9-0.1,0.9-0.4V47.2L35.3,47.2z" id="XMLID_14_"/>
</g>
</svg>