<?xml version="1.0" ?><!-- Generator: Adobe Illustrator 19.0.0, SVG Export Plug-In . SVG Version: 6.00 Build 0)  --><svg id="图层_1" style="enable-background:new 0 0 60 60;" version="1.1" viewBox="0 0 60 60" x="0px" xml:space="preserve" xmlns="http://www.w3.org/2000/svg" xmlns:xlink="http://www.w3.org/1999/xlink" y="0px" zn="晴">
<style type="text/css">
	.clear_st0{fill:#FFAA00;}
</style>
<g id="XMLID_13_">
	<path class="clear_st0" d="M20.1,11.9C20.1,12,20.1,12,20.1,11.9c0.7-0.3,1.4-0.7,2.2-1c0.5-0.2,1-0.4,1.5-0.5l-3.5-8.6   c-0.4-1-1.6-1.5-2.6-1.1c-1,0.4-1.5,1.6-1.1,2.6L20.1,11.9z" id="XMLID_72_"/>
	<path class="clear_st0" d="M31,9.5l0-3.8c0-0.7-0.6-1.3-1.3-1.3c-0.7,0-1.3,0.6-1.3,1.3l0,3.9C29.2,9.5,30.1,9.4,31,9.5z" id="XMLID_71_"/>
	<path class="clear_st0" d="M14.3,16.7c0.6-0.7,1.2-1.3,1.8-1.9l-2.7-2.7c-0.5-0.5-1.4-0.5-1.9,0c-0.5,0.5-0.5,1.4,0,1.9   L14.3,16.7z" id="XMLID_70_"/>
	<path class="clear_st0" d="M1.7,20.6l8.6,3.6c0,0,0,0,0,0c0.4-1.3,0.9-2.5,1.5-3.7l-8.5-3.6c-1-0.4-2.2,0-2.6,1.1   C0.2,19,0.7,20.2,1.7,20.6z" id="XMLID_69_"/>
	<path class="clear_st0" d="M54.3,31c0.2,0,0.3,0,0.5-0.1c0.5-0.2,0.8-0.7,0.8-1.2c0-0.7-0.6-1.3-1.3-1.3l-3.9,0   c0.1,0.9,0.1,1.8,0,2.7L54.3,31z" id="XMLID_68_"/>
	<path class="clear_st0" d="M5.7,29c-0.7,0-1.3,0.6-1.3,1.3c0,0.7,0.6,1.3,1.3,1.3l3.9,0c-0.1-0.9-0.1-1.8,0-2.7L5.7,29z" id="XMLID_67_"/>
	<path class="clear_st0" d="M48,20.1c0.4,0.7,0.7,1.4,1,2.1c0.2,0.5,0.4,1,0.5,1.5l8.6-3.5c1-0.4,1.5-1.6,1.1-2.6   c-0.4-1-1.6-1.5-2.6-1.1L48,20.1C48,20.1,48,20.1,48,20.1z" id="XMLID_66_"/>
	<path class="clear_st0" d="M45.2,16.2l2.7-2.7c0.5-0.5,0.5-1.4,0-1.9c-0.5-0.5-1.4-0.5-1.9,0l-2.7,2.7   C44,14.9,44.6,15.5,45.2,16.2z" id="XMLID_65_"/>
	<path class="clear_st0" d="M43.1,3.2c0.4-1,0-2.2-1-2.6c-1-0.4-2.2,0-2.6,1l-3.6,8.6c0,0,0,0,0,0c1.3,0.4,2.5,0.9,3.7,1.5   L43.1,3.2z" id="XMLID_64_"/>
	<path class="clear_st0" d="M45.7,43.3c-0.6,0.7-1.2,1.3-1.8,1.9l2.7,2.7c0.4,0.4,1,0.5,1.4,0.3c0.2-0.1,0.3-0.2,0.4-0.3   c0.5-0.5,0.5-1.4,0-1.9L45.7,43.3z" id="XMLID_63_"/>
	<path class="clear_st0" d="M45,23.9c-3.3-8.3-12.8-12.3-21-8.9c-8.3,3.3-12.3,12.8-8.9,21c3.3,8.3,12.8,12.3,21,8.9   C44.3,41.6,48.3,32.2,45,23.9z M30,42.3c-6.8,0-12.3-5.5-12.3-12.3S23.2,17.7,30,17.7S42.3,23.2,42.3,30S36.8,42.3,30,42.3z" id="XMLID_60_"/>
	<path class="clear_st0" d="M39.9,48.1C39.9,48,39.9,48,39.9,48.1c-0.7,0.3-1.4,0.7-2.2,1c-0.5,0.2-1,0.4-1.5,0.5l3.5,8.6   c0.4,1,1.6,1.5,2.6,1.1c1-0.4,1.5-1.6,1.1-2.6L39.9,48.1z" id="XMLID_59_"/>
	<path class="clear_st0" d="M58.3,39.4l-8.6-3.6c0,0,0,0,0,0c-0.4,1.3-0.9,2.5-1.5,3.7l8.5,3.6c0.5,0.2,1,0.2,1.5,0   c0.5-0.2,0.9-0.6,1.1-1.1C59.8,41,59.3,39.8,58.3,39.4z" id="XMLID_58_"/>
	<path class="clear_st0" d="M14.8,43.8l-2.7,2.7c-0.5,0.5-0.5,1.4,0,1.9c0.4,0.4,1,0.5,1.4,0.3c0.2-0.1,0.3-0.2,0.4-0.3   l2.7-2.7C16,45.1,15.4,44.5,14.8,43.8z" id="XMLID_17_"/>
	<path class="clear_st0" d="M12,39.9c-0.4-0.7-0.7-1.4-1-2.1c-0.2-0.5-0.4-1-0.5-1.5l-8.6,3.5c-1,0.4-1.5,1.6-1.1,2.6   c0.4,1,1.6,1.5,2.6,1.1L12,39.9C12,39.9,12,39.9,12,39.9z" id="XMLID_16_"/>
	<path class="clear_st0" d="M16.9,56.8c-0.4,1,0,2.2,1.1,2.6c0.5,0.2,1,0.2,1.5,0c0.5-0.2,0.9-0.6,1.1-1.1l3.6-8.6   c0,0,0,0,0,0c-1.3-0.4-2.5-0.9-3.7-1.5L16.9,56.8z" id="XMLID_15_"/>
	<path class="clear_st0" d="M29,50.5l0,3.8c0,0.7,0.6,1.3,1.3,1.3c0.2,0,0.3,0,0.5-0.1c0.5-0.2,0.8-0.7,0.8-1.2l0-3.9   C30.8,50.5,29.9,50.6,29,50.5z" id="XMLID_14_"/>
</g>
</svg>