<?xml version="1.0" ?><!-- Generator: Adobe Illustrator 19.0.0, SVG Export Plug-In . SVG Version: 6.00 Build 0)  --><svg id="图层_1" style="enable-background:new 0 0 60 60;" version="1.1" viewBox="0 0 60 60" x="0px" xml:space="preserve" xmlns="http://www.w3.org/2000/svg" xmlns:xlink="http://www.w3.org/1999/xlink" y="0px" zn="多云">
<style type="text/css">
	.cloudy_st0{fill:#FFFFFF;}
</style>
<g id="XMLID_13_">
	<path class="cloudy_st0" d="M34,23.1c-2.5-4.7-7.5-7.6-12.8-7.6c-7.4,0-13.4,5.2-14.4,12.2c-3.7,0.8-6.5,4.2-6.5,8.2   c0,4.6,3.8,8.4,8.4,8.4c1.9,0,3.7-0.6,5.2-1.8c2.3,1.5,4.8,2.2,7.4,2.2c2.5,0,4.1-0.4,6.1-1.5c1.6,1,3.5,1.5,5.4,1.5   c6,0,10.8-4.9,10.8-10.8C43.5,28.3,39.3,23.7,34,23.1z M32.7,41.7c-1.6,0-3.2-0.5-4.5-1.4c-0.4-0.3-1-0.3-1.4-0.1   c-0.1,0-0.2,0.1-0.3,0.1c-1.8,1.1-3,1.4-5.2,1.4c-2.4,0-4.5-0.7-6.6-2.3c-0.3-0.2-0.6-0.3-0.9-0.3c-0.4,0-0.8,0.1-1.1,0.5   c-1,1.1-2.4,1.7-4,1.7c-3,0-5.5-2.4-5.5-5.5c0-3,2.4-5.5,5.5-5.5c1.1,0,2.1,0.3,2.9,0.9c0.7,0.4,1.6,0.2,2-0.4   c0.4-0.7,0.2-1.6-0.4-2c-1-0.7-2.2-1.1-3.4-1.3c1-5.3,5.7-9.2,11.4-9.2c3.8,0,7.3,1.9,9.5,4.8c-2.7,0.5-5.1,2-6.7,4.2   c-0.5,0.6-0.3,1.6,0.3,2c0.6,0.5,1.6,0.3,2-0.3c1.5-2,3.9-3.2,6.4-3.2c4.4,0,7.9,3.5,7.9,7.9C40.6,38.1,37,41.7,32.7,41.7z" id="XMLID_15_"/>
	<path class="cloudy_st0" d="M50.3,23.1c-2.5-4.7-7.5-7.6-12.8-7.6c-1.6,0-3.2,0.3-4.7,0.7c0.9,0.7,1.7,1.5,2.4,2.4   c0.7-0.1,1.5-0.2,2.3-0.2c3.8,0,7.3,1.9,9.5,4.8c-1.2,0.2-2.4,0.7-3.4,1.3c0.6,0.7,1.2,1.5,1.7,2.4c1.1-0.6,2.5-1,3.8-1   c4.4,0,7.9,3.5,7.9,7.9c0,4.4-3.5,7.9-7.9,7.9c-1.3,0-2.6-0.3-3.8-1c-0.5,0.9-1.1,1.7-1.8,2.5c0,0,0.1,0,0.1-0.1   c1.6,1,3.5,1.5,5.4,1.5c6,0,10.8-4.9,10.8-10.8C59.8,28.3,55.6,23.7,50.3,23.1z" id="XMLID_14_"/>
</g>
</svg>