<?xml version="1.0" ?><!-- Generator: Adobe Illustrator 19.0.0, SVG Export Plug-In . SVG Version: 6.00 Build 0)  --><svg id="图层_1" style="enable-background:new 0 0 60 60;" version="1.1" viewBox="0 0 60 60" x="0px" xml:space="preserve" xmlns="http://www.w3.org/2000/svg" xmlns:xlink="http://www.w3.org/1999/xlink" y="0px" zn="特大暴雨">
<style type="text/css">
	.Downpour_st0{fill:#FFFFFF;}
	.Downpour_st1{fill:#00BEFF;}
</style>
<g id="XMLID_13_">
	<path class="Downpour_st0" d="M45.2,10.8c-3.2-5.8-9.4-9.6-16-9.6c-9.3,0-16.8,6.5-18,15.3C6.5,17.5,3,21.7,3,26.7   c0,5.8,4.7,10.4,10.4,10.4c2.4,0,4.7-0.8,6.5-2.2c2.9,1.9,6,2.8,9.2,2.8c3.1,0,5.2-0.5,7.6-1.8c2.1,1.2,4.4,1.8,6.8,1.8   C51,37.7,57,31.6,57,24.2C57,17.3,51.8,11.6,45.2,10.8z M43.5,34c-2,0-4-0.6-5.7-1.8c-0.5-0.4-1.2-0.4-1.8-0.2   c-0.1,0-0.3,0.1-0.4,0.2c-2.2,1.4-3.8,1.8-6.6,1.8c-3,0-5.6-0.9-8.3-2.9c-0.3-0.2-0.7-0.4-1.1-0.3c-0.5,0-1,0.2-1.4,0.6   c-1.3,1.4-3,2.1-5,2.1c-3.8,0-6.8-3.1-6.8-6.8s3.1-6.8,6.8-6.8c1.3,0,2.6,0.4,3.7,1.1c0.8,0.5,2,0.3,2.5-0.5c0.5-0.8,0.3-2-0.5-2.5   c-1.3-0.8-2.7-1.4-4.2-1.6C16.1,9.7,22,4.8,29.1,4.8c4.7,0,9.1,2.3,11.8,6.1c-3.3,0.6-6.3,2.5-8.3,5.3C32,17,32.2,18.1,33,18.7   c0.8,0.6,1.9,0.4,2.5-0.4c1.9-2.5,4.8-4,8-4c5.4,0,9.9,4.4,9.9,9.9C53.4,29.6,49,34,43.5,34z" id="XMLID_60_"/>
	<path class="Downpour_st1" d="M30.6,57.2c-1.2-1.8-0.6-4.3,1.4-5.3l0,0l4.9-2.7c0.2-0.1,0.4,0,0.4,0.2l0.1,5.6v0   c0.1,2.2-1.8,4-3.9,3.9C32.3,58.7,31.3,58.1,30.6,57.2L30.6,57.2z M42,47.7c-1-1.5-0.5-3.5,1.1-4.4c0,0,0,0,0,0l4-2.3   c0.1-0.1,0.3,0,0.3,0.2l0.1,4.6v0c0.1,1.8-1.4,3.3-3.3,3.2C43.3,49,42.5,48.5,42,47.7L42,47.7z M7.5,47.7c-1-1.5-0.5-3.5,1.1-4.4   c0,0,0,0,0,0l4-2.3c0.1-0.1,0.3,0,0.3,0.2l0.1,4.6v0c0.1,1.8-1.4,3.3-3.3,3.2C8.8,49,8,48.5,7.5,47.7L7.5,47.7z M13.1,57.2   c0.6,0.9,1.6,1.5,2.8,1.6c2.2,0.2,4-1.6,3.9-3.8v0l-0.1-5.6c0-0.2-0.2-0.3-0.4-0.2l-4.9,2.7c0,0,0,0,0,0   C12.5,52.9,11.9,55.4,13.1,57.2L13.1,57.2z M24.5,47.7c0.5,0.8,1.3,1.2,2.3,1.3c1.8,0.1,3.3-1.4,3.3-3.2v0l-0.1-4.6   c0-0.2-0.2-0.2-0.3-0.2l-4,2.3c0,0,0,0,0,0C24,44.2,23.5,46.2,24.5,47.7L24.5,47.7z" id="XMLID_14_"/>
</g>
</svg>