<?xml version="1.0" ?><!-- Generator: Adobe Illustrator 19.0.0, SVG Export Plug-In . SVG Version: 6.00 Build 0)  --><svg id="图层_1" style="enable-background:new -9 11 60 60;" version="1.1" viewBox="-9 11 60 60" x="0px" xml:space="preserve" xmlns="http://www.w3.org/2000/svg" xmlns:xlink="http://www.w3.org/1999/xlink" y="0px" zn="浮尘">
<style type="text/css">
	.dust_st0{fill:#FFFFFF;}
	.dust_st1{fill:#00BEFF;}
</style>
<g id="XMLID_23_">
	<g id="XMLID_33_">
		<circle class="dust_st0" cx="20.2" cy="48.4" id="XMLID_36_" r="2.5"/>
		<circle class="dust_st0" cx="20.2" cy="39.3" id="XMLID_35_" r="2.5"/>
		<circle class="dust_st0" cx="20.2" cy="30.3" id="XMLID_34_" r="2.5"/>
	</g>
	<g id="XMLID_29_">
		<circle class="dust_st0" cx="1.8" cy="43.2" id="XMLID_32_" r="2.5"/>
		<circle class="dust_st0" cx="1.8" cy="34.2" id="XMLID_31_" r="2.5"/>
		<circle class="dust_st0" cx="1.8" cy="25.2" id="XMLID_30_" r="2.5"/>
	</g>
	<g id="XMLID_25_">
		<circle class="dust_st0" cx="38.6" cy="43.2" id="XMLID_28_" r="2.5"/>
		<circle class="dust_st0" cx="38.6" cy="34.2" id="XMLID_27_" r="2.5"/>
		<circle class="dust_st0" cx="38.6" cy="25.2" id="XMLID_26_" r="2.5"/>
	</g>
	<path class="dust_st1" d="M47.7,54.7L47.7,54.7l-53.5,0v0c-1.3,0-2.3,1-2.3,2.3c0,1.3,1,2.3,2.3,2.3v0h53.5v0   c1.3,0,2.3-1,2.3-2.3C50.1,55.7,49,54.7,47.7,54.7z" id="XMLID_24_"/>
</g>
</svg>