<?xml version="1.0" ?><!-- Generator: Adobe Illustrator 19.0.0, SVG Export Plug-In . SVG Version: 6.00 Build 0)  --><svg id="图层_1" style="enable-background:new 0 0 60 60;" version="1.1" viewBox="0 0 60 60" x="0px" xml:space="preserve" xmlns="http://www.w3.org/2000/svg" xmlns:xlink="http://www.w3.org/1999/xlink" y="0px" zn="暴雨">
<style type="text/css">
	.fall_st0{fill:#FFFFFF;}
	.fall_st1{fill:#00BEFF;}
</style>
<g id="XMLID_13_">
	<path class="fall_st0" d="M45.2,9.9C42,4,35.8,0.3,29.1,0.3c-9.3,0-16.8,6.5-18,15.3C6.5,16.7,3,20.8,3,25.8   c0,5.8,4.7,10.4,10.4,10.4c2.4,0,4.7-0.8,6.5-2.2c2.9,1.9,6,2.8,9.2,2.8c3.1,0,5.2-0.5,7.6-1.8c2.1,1.2,4.4,1.8,6.8,1.8   C51,36.8,57,30.7,57,23.3C57,16.4,51.8,10.7,45.2,9.9z M43.5,33.2c-2,0-4-0.6-5.7-1.8c-0.5-0.4-1.2-0.4-1.8-0.2   c-0.1,0-0.3,0.1-0.4,0.2c-2.2,1.4-3.8,1.8-6.6,1.8c-3,0-5.6-0.9-8.3-2.9c-0.3-0.2-0.7-0.4-1.1-0.3c-0.5,0-1,0.2-1.4,0.6   c-1.3,1.4-3,2.1-5,2.1c-3.8,0-6.8-3.1-6.8-6.8S9.7,19,13.4,19c1.3,0,2.6,0.4,3.7,1.1c0.8,0.5,2,0.3,2.5-0.5c0.5-0.8,0.3-2-0.5-2.5   c-1.3-0.8-2.7-1.4-4.2-1.6C16.1,8.8,22,4,29.1,4C33.8,4,38.2,6.3,41,10c-3.3,0.6-6.3,2.5-8.3,5.3c-0.6,0.8-0.4,1.9,0.4,2.5   c0.8,0.6,1.9,0.4,2.5-0.4c1.9-2.5,4.8-4,8-4c5.4,0,9.9,4.4,9.9,9.9C53.4,28.7,49,33.2,43.5,33.2z" id="XMLID_59_"/>
	<g id="XMLID_14_">
		<path class="fall_st1" d="M12.4,46.9c0.4,0.6,1.1,1,1.9,1.1c1.5,0.1,2.8-1.1,2.7-2.7c0,0,0,0,0,0L17,41.5    c0-0.1-0.1-0.2-0.2-0.1l-3.4,1.9c0,0,0,0,0,0C12,43.9,11.6,45.6,12.4,46.9L12.4,46.9z" id="XMLID_58_"/>
		<path class="fall_st1" d="M27.7,47.3c0.5,0.8,1.3,1.2,2.2,1.3c1.8,0.1,3.2-1.3,3.2-3.1c0,0,0,0,0,0L33,40.9    c0-0.1-0.2-0.2-0.3-0.2l-4,2.2c0,0,0,0,0,0C27.2,43.8,26.7,45.8,27.7,47.3L27.7,47.3z" id="XMLID_17_"/>
		<path class="fall_st1" d="M27.8,58.1c0.6,0.9,1.6,1.5,2.8,1.6c2.2,0.2,4-1.6,3.9-3.9c0,0,0,0,0,0l-0.1-5.6    c0-0.2-0.2-0.3-0.4-0.2l-4.9,2.7c0,0,0,0,0,0C27.2,53.8,26.6,56.3,27.8,58.1L27.8,58.1z" id="XMLID_16_"/>
		<path class="fall_st1" d="M43,47.4c0.5,0.8,1.4,1.3,2.3,1.3c1.9,0.1,3.4-1.4,3.3-3.3c0,0,0,0,0,0l-0.1-4.7    c0-0.2-0.2-0.3-0.3-0.2l-4.1,2.3c0,0,0,0,0,0C42.5,43.8,41.9,45.9,43,47.4L43,47.4z" id="XMLID_15_"/>
	</g>
</g>
</svg>