<?xml version="1.0" ?><!-- Generator: Adobe Illustrator 19.0.0, SVG Export Plug-In . SVG Version: 6.00 Build 0)  --><svg id="图层_1" style="enable-background:new -9 11 60 60;" version="1.1" viewBox="-9 11 60 60" x="0px" xml:space="preserve" xmlns="http://www.w3.org/2000/svg" xmlns:xlink="http://www.w3.org/1999/xlink" y="0px" zn="大雾">
<style type="text/css">
	.fog_st0{fill:#FFFFFF;}
	.fog_st1{fill:#00BEFF;}
</style>
<g id="XMLID_13_">
	<path class="fog_st0" d="M36.3,21.5c-3.2-5.8-9.5-9.6-16.2-9.6c-9.3,0-16.9,6.5-18.2,15.4c-4.7,1-8.2,5.2-8.2,10.2   C-6.3,43.4-1.5,48,4.2,48c2.5,0,4.7-0.7,6.5-2.2c3,1.9,6,2.9,9.2,2.9c3.1,0,5.2-0.5,7.6-1.9c2.1,1.2,4.4,1.9,6.8,1.9   c7.5,0,13.6-6.1,13.6-13.6C48.1,28.1,43,22.3,36.3,21.5z M34.5,44.9c-2.1,0-4-0.6-5.7-1.7c-0.5-0.4-1.2-0.4-1.7-0.1   c-0.1,0-0.2,0.1-0.4,0.1c-2.2,1.4-3.7,1.7-6.6,1.7c-3,0-5.6-0.9-8.3-3c-0.4-0.2-0.7-0.4-1.1-0.4c-0.5,0-1,0.1-1.4,0.6   c-1.2,1.4-3,2.1-5,2.1c-3.7,0-6.8-3.1-6.8-6.8s3.1-6.8,6.8-6.8c1.4,0,2.6,0.4,3.7,1.1c0.9,0.5,2,0.2,2.5-0.5c0.5-0.9,0.2-2-0.5-2.5   c-1.2-0.9-2.7-1.4-4.2-1.6c1.2-6.7,7.1-11.6,14.4-11.6c4.7,0,9.2,2.4,11.9,6.1c-3.4,0.6-6.3,2.5-8.3,5.3c-0.6,0.9-0.4,2,0.4,2.6   c0.9,0.6,2,0.4,2.6-0.4c1.9-2.5,4.9-4.1,8-4.1c5.5,0,10,4.5,10,10C44.5,40.5,40,44.9,34.5,44.9z" id="XMLID_17_"/>
	<path class="fog_st1" d="M-4.3,59.7c-1.9,2.1-5.6-1.7-0.5-4c4.5-2,7.1,1.7,8.1,2.1c3,1.4,3.2-2.7,7.7-2.7s4.7,4,7.7,2.7   c1-0.4,3.6-4.1,8.1-2.1c2,0.9,2.9,3.2,5.2,2.1c1-0.4,3.6-4.1,8.1-2.1c2,0.9,2.9,3.2,5.2,2.1c0.9-0.4,2-2.1,3.5-0.7   c2.7,2.5-4.9,7.2-9.2,2.5c-1.1-1.1-3-1.1-4,0c-2.5,2.7-6.8,2.7-9.3,0c-1.1-1.1-3-1.1-4.1,0.1c-2.5,2.7-6.8,2.7-9.3,0   c-1.1-1.1-2.9-1.1-4,0c-2.5,2.7-6.8,2.7-9.3,0C-1.3,58.4-3.1,58.4-4.3,59.7L-4.3,59.7z M-4.3,68c1.1-1.1,2.9-1.1,4,0   c2.5,2.7,6.8,2.7,9.3,0c1.1-1.1,2.9-1.1,4,0c2.5,2.7,6.8,2.7,9.3,0c1.1-1.1,2.9-1.1,4,0c2.5,2.7,6.8,2.7,9.3,0c1.1-1.1,3-1.1,4,0   c4.4,4.7,11.9,0,9.2-2.5c-1.5-1.4-2.6,0.4-3.5,0.7c-2.4,1-3.2-1.2-5.2-2.1c-4.5-2-7.1,1.7-8.1,2.1c-2.4,1-3.2-1.2-5.2-2.1   c-4.5-2-7.1,1.7-8.1,2.1c-3,1.4-3.2-2.7-7.7-2.7s-4.7,4-7.7,2.7c-1-0.4-3.6-4.1-8.1-2.1C-9.9,66.4-6.1,70.1-4.3,68L-4.3,68z" id="XMLID_14_"/>
</g>
</svg>