<?xml version="1.0" ?><!-- Generator: Adobe Illustrator 19.0.0, SVG Export Plug-In . SVG Version: 6.00 Build 0)  --><svg id="图层_1" style="enable-background:new -9 11 60 60;" version="1.1" viewBox="-9 11 60 60" x="0px" xml:space="preserve" xmlns="http://www.w3.org/2000/svg" xmlns:xlink="http://www.w3.org/1999/xlink" y="0px" zn="冰雹">
<style type="text/css">
	.hail_st0{fill:#FFFFFF;}
	.hail_st1{fill:#00BEFF;}
</style>
<g>
	<path class="hail_st0" d="M35.5,21.1c-3-5.6-8.9-9.1-15.3-9.1c-8.8,0-16,6.2-17.2,14.6c-4.4,1-7.8,5-7.8,9.7   c0,5.5,4.5,10,10,10c2.3,0,4.5-0.8,6.2-2.1c2.8,1.8,5.7,2.7,8.8,2.7c2.9,0,4.9-0.5,7.2-1.7c2,1.1,4.2,1.7,6.5,1.7   c7.1,0,12.9-5.8,12.9-12.9C46.8,27.3,41.8,21.8,35.5,21.1z M33.9,43.2c-1.9,0-3.8-0.6-5.4-1.7c-0.5-0.4-1.2-0.4-1.7-0.2   c-0.1,0-0.2,0.1-0.4,0.2c-2.1,1.3-3.6,1.7-6.2,1.7c-2.8,0-5.3-0.9-7.9-2.8c-0.3-0.2-0.7-0.3-1.1-0.3c-0.5,0-1,0.2-1.3,0.6   c-1.2,1.3-2.9,2-4.7,2c-3.6,0-6.5-2.9-6.5-6.5c0-3.6,2.9-6.5,6.5-6.5c1.3,0,2.5,0.4,3.5,1c0.8,0.5,1.9,0.3,2.4-0.5   c0.5-0.8,0.3-1.9-0.5-2.4c-1.2-0.8-2.6-1.3-4-1.5c1.2-6.3,6.8-10.9,13.6-10.9c4.5,0,8.7,2.2,11.3,5.8c-3.2,0.6-6,2.4-8,5   c-0.6,0.8-0.4,1.9,0.4,2.4c0.8,0.6,1.9,0.4,2.4-0.4c1.8-2.4,4.6-3.8,7.6-3.8c5.2,0,9.4,4.2,9.4,9.4C43.3,39,39.1,43.2,33.9,43.2z" id="XMLID_28_"/>
	<path class="hail_st1" d="M3.4,58.4C4,59.3,4.9,59.9,6,60c2.1,0.2,3.8-1.6,3.8-3.7c0,0,0,0,0,0l-0.1-5.4   c0-0.2-0.2-0.3-0.3-0.2l-4.7,2.6c0,0,0,0,0,0C2.8,54.4,2.2,56.7,3.4,58.4L3.4,58.4z" id="XMLID_27_"/>
	<path class="hail_st1" d="M30.2,58.4c0.6,0.9,1.6,1.4,2.6,1.5c2.1,0.2,3.8-1.6,3.8-3.7c0,0,0,0,0,0l-0.1-5.4   c0-0.2-0.2-0.3-0.3-0.2l-4.7,2.6c0,0,0,0,0,0C29.6,54.4,29,56.7,30.2,58.4L30.2,58.4z" id="XMLID_25_"/>
	<path class="hail_st1" d="M16.7,60.6L16.7,60.6c-0.8-0.4-1.1-1.4-0.6-2.2l3.2-5.7c0.4-0.8,1.4-1.1,2.2-0.6h0   c0.8,0.4,1.1,1.4,0.6,2.2l-3.2,5.7C18.4,60.7,17.5,61,16.7,60.6z" id="XMLID_22_"/>
	<path class="hail_st1" d="M18.6,69.9L18.6,69.9c-0.8-0.4-1.1-1.4-0.6-2.2l3.2-5.7c0.4-0.8,1.4-1.1,2.2-0.6l0,0   c0.8,0.4,1.1,1.4,0.6,2.2l-3.2,5.7C20.4,70,19.4,70.3,18.6,69.9z" id="XMLID_24_"/>
</g>
</svg>