<?xml version="1.0" encoding="utf-8"?>
<!-- Generator: Adobe Illustrator 19.0.0, SVG Export Plug-In . SVG Version: 6.00 Build 0)  -->
<svg version="1.1" id="图层_1" xmlns="http://www.w3.org/2000/svg" xmlns:xlink="http://www.w3.org/1999/xlink" x="0px" y="0px"
	 viewBox="0 0 25 35" style="enable-background:new 0 0 25 35;" xml:space="preserve">
<style type="text/css">
	.LAL0{fill:#06F99B;}
</style>
<path id="XMLID_5359_" class="LAL0" d="M12.5,5.9c-6.4,0-11.6,5.2-11.6,11.6c0,6.4,5.2,11.6,11.6,11.6s11.6-5.2,11.6-11.6
	C24.1,11.1,18.9,5.9,12.5,5.9z M22.5,17.8h-3.8c0-0.1,0-0.2,0-0.3c0-1.5-0.2-3-0.4-4.3h3.3c0.6,1.3,1,2.8,1,4.3
	C22.5,17.6,22.5,17.7,22.5,17.8z M2.6,19.4h3.7c0.1,1.2,0.3,2.4,0.6,3.5H4C3.3,21.8,2.9,20.6,2.6,19.4z M7.9,19.4h3.8v3.5H8.6
	C8.2,21.8,8,20.6,7.9,19.4z M7.8,17.5c0-1.6,0.2-3,0.5-4.3h3.4v4.6H7.8C7.8,17.7,7.8,17.6,7.8,17.5z M17.2,17.5c0,0.1,0,0.2,0,0.3
	h-4v-4.6h3.5C17,14.5,17.2,15.9,17.2,17.5z M13.2,11.7V7.6c1.2,0.4,2.3,1.9,3.1,4.1H13.2z M11.7,7.6v4h-3C9.4,9.6,10.5,8.1,11.7,7.6
	z M11.7,24.3v3c-0.9-0.4-1.9-1.5-2.6-3H11.7z M13.2,27.4v-3.1h2.7C15.2,26,14.2,27.1,13.2,27.4z M13.2,22.8v-3.5h3.9
	c-0.1,1.3-0.3,2.4-0.6,3.5H13.2z M18.6,19.4h3.7c-0.2,1.2-0.7,2.4-1.3,3.5h-3C18.3,21.7,18.5,20.6,18.6,19.4z M20.7,11.7h-2.8
	c-0.4-1.4-1-2.6-1.7-3.5C18,8.9,19.6,10.1,20.7,11.7z M8.8,8.2c-0.7,0.9-1.2,2.1-1.7,3.5H4.3C5.4,10.1,7,8.9,8.8,8.2z M3.4,13.2h3.3
	c-0.3,1.3-0.4,2.8-0.4,4.3c0,0.1,0,0.2,0,0.3H2.5c0-0.1,0-0.2,0-0.3C2.5,16,2.8,14.5,3.4,13.2z M5.2,24.3h2.3
	c0.4,0.9,0.8,1.8,1.3,2.5C7.4,26.3,6.2,25.4,5.2,24.3z M16.2,26.8c0.5-0.7,0.9-1.5,1.3-2.5h2.3C18.8,25.4,17.6,26.3,16.2,26.8z"/>
</svg>
