<?xml version="1.0" ?><!-- Generator: Adobe Illustrator 19.0.0, SVG Export Plug-In . SVG Version: 6.00 Build 0)  --><svg id="图层_1" style="enable-background:new 0 0 60 60;" version="1.1" viewBox="0 0 60 60" x="0px" xml:space="preserve" xmlns="http://www.w3.org/2000/svg" xmlns:xlink="http://www.w3.org/1999/xlink" y="0px" zn="小雨">
<style type="text/css">
	.Lightrain_st0{fill:#FFFFFF;}
	.Lightrain_st1{fill:#00BEFF;}
</style>
<g id="XMLID_13_">
	<path class="Lightrain_st0" d="M45.2,14.4c-3.2-5.8-9.4-9.6-16-9.6c-9.3,0-16.8,6.5-18,15.3C6.5,21.1,3,25.3,3,30.3   C3,36,7.7,40.7,13.4,40.7c2.4,0,4.7-0.8,6.5-2.2c2.9,1.9,6,2.8,9.2,2.8c3.1,0,5.2-0.5,7.6-1.8c2.1,1.2,4.4,1.8,6.8,1.8   C51,41.3,57,35.2,57,27.8C57,20.9,51.8,15.2,45.2,14.4z M43.5,37.6c-2,0-4-0.6-5.7-1.8c-0.5-0.4-1.2-0.4-1.8-0.2   c-0.1,0-0.3,0.1-0.4,0.2c-2.2,1.4-3.8,1.8-6.6,1.8c-3,0-5.6-0.9-8.3-2.9c-0.3-0.2-0.7-0.4-1.1-0.3c-0.5,0-1,0.2-1.4,0.6   c-1.3,1.4-3,2.1-5,2.1c-3.8,0-6.8-3.1-6.8-6.8s3.1-6.8,6.8-6.8c1.3,0,2.6,0.4,3.7,1.1c0.8,0.5,2,0.3,2.5-0.5c0.5-0.8,0.3-2-0.5-2.5   c-1.3-0.8-2.7-1.4-4.2-1.6C16.1,13.3,22,8.4,29.1,8.4c4.7,0,9.1,2.3,11.8,6.1c-3.3,0.6-6.3,2.5-8.3,5.3c-0.6,0.8-0.4,1.9,0.4,2.5   c0.8,0.6,1.9,0.4,2.5-0.4c1.9-2.5,4.8-4,8-4c5.4,0,9.9,4.4,9.9,9.9C53.4,33.2,49,37.6,43.5,37.6z" id="XMLID_15_"/>
	<path class="Lightrain_st1" d="M24.7,53.6c0.6,0.9,1.6,1.5,2.8,1.6c2.2,0.2,4-1.6,3.9-3.9c0,0,0,0,0,0l-0.1-5.6   c0-0.2-0.2-0.3-0.4-0.2L26,48.2c0,0,0,0,0,0C24.1,49.3,23.4,51.8,24.7,53.6L24.7,53.6z" id="XMLID_14_"/>
</g>
</svg>