<?xml version="1.0" ?><!-- Generator: Adobe Illustrator 19.0.0, SVG Export Plug-In . SVG Version: 6.00 Build 0)  --><svg id="图层_1" style="enable-background:new -9 11 60 60;" version="1.1" viewBox="-9 11 60 60" x="0px" xml:space="preserve" xmlns="http://www.w3.org/2000/svg" xmlns:xlink="http://www.w3.org/1999/xlink" y="0px" zn="夜间雨夹雪">
<style type="text/css">
	.NightSleet_st0{fill:#FFFFFF;}
	.NightSleet_st1{fill-rule:evenodd;clip-rule:evenodd;fill:#FFAA00;}
	.NightSleet_st2{fill-rule:evenodd;clip-rule:evenodd;fill:#FFFFFF;}
	.NightSleet_st3{fill-rule:evenodd;clip-rule:evenodd;fill:#00BEFF;}
</style>
<g>
	<path class="NightSleet_st0" d="M36,31.6c-2.7-5-8-8.1-13.7-8.1C14.4,23.5,8,29,7,36.5C3,37.4,0,40.9,0,45.2   c0,4.9,4,8.9,8.9,8.9c2.1,0,4-0.7,5.5-1.9c2.5,1.6,5.1,2.4,7.8,2.4c2.6,0,4.4-0.4,6.5-1.6c1.7,1,3.7,1.6,5.8,1.6   c6.3,0,11.5-5.2,11.5-11.5C46.1,37.2,41.6,32.3,36,31.6z M34.5,51.4c-1.7,0-3.4-0.5-4.8-1.5c-0.5-0.3-1-0.4-1.5-0.1   c-0.1,0-0.2,0.1-0.3,0.1c-1.9,1.2-3.2,1.5-5.6,1.5c-2.5,0-4.8-0.8-7-2.5c-0.3-0.2-0.6-0.3-0.9-0.3c-0.4,0-0.9,0.2-1.2,0.5   C12,50.3,10.6,51,8.9,51c-3.2,0-5.8-2.6-5.8-5.8c0-3.2,2.6-5.8,5.8-5.8c1.1,0,2.2,0.3,3.1,0.9c0.7,0.5,1.7,0.3,2.1-0.5   c0.5-0.7,0.3-1.7-0.5-2.1c-1.1-0.7-2.3-1.2-3.6-1.3c1.1-5.7,6.1-9.8,12.2-9.8c4,0,7.8,2,10.1,5.2c-2.8,0.5-5.4,2.1-7.1,4.5   c-0.5,0.7-0.4,1.7,0.3,2.2c0.7,0.5,1.7,0.4,2.2-0.3c1.6-2.2,4.1-3.4,6.8-3.4c4.6,0,8.4,3.8,8.4,8.4C43,47.7,39.2,51.4,34.5,51.4z" id="XMLID_29_"/>
	<path class="NightSleet_st1" d="M2.1,14.1c1.3,0.3,2.5,1.1,3.3,2.1c3.1,3.9,0.2,9.8-4.8,9.8c-1,0-2.1-0.3-3-0.8   c-1-0.6-2.1,0.6-1.6,1.6c1.8,3.4,5.4,5.6,9.3,5.6c0.3,0,0.7,0,1,0C8,32.3,7.8,30,5.9,30.2c-0.2,0-0.3,0-0.5,0   c-1.7,0-3.4-0.6-4.9-1.6c0,0-0.1-0.1,0-0.1c0-0.1,0.1-0.1,0.1-0.1c6.8,0,10.8-8.1,6.5-13.5c-0.3-0.3-0.6-0.6-0.9-0.9   c0,0-0.1-0.1,0-0.1c0-0.1,0.1-0.1,0.1-0.1c4.2,0.5,7.9,4.6,7.2,9c-0.2,1.5,2.2,1.8,2.3-0.3c0.3-6-4.6-11.1-10.6-11.1   c-1.2,0-2.4,0.2-3.5,0.6C0.9,12.3,1,13.9,2.1,14.1L2.1,14.1z" id="XMLID_28_"/>
	<g id="XMLID_12_">
		<path class="NightSleet_st2" d="M18.4,55.8c0-0.3,0.2-0.5,0.5-0.5c0.3,0,0.5,0.2,0.5,0.5v0.6c0,0.3,0.6,0.5,0.8,0.3l0.4-0.4    c0.2-0.2,0.5-0.2,0.7,0c0.2,0.2,0.2,0.5,0,0.7l-0.4,0.4c-0.2,0.2,0.1,0.8,0.3,0.8h0.6c0.3,0,0.5,0.2,0.5,0.5    c0,0.3-0.2,0.5-0.5,0.5h-0.6c-0.3,0-0.5,0.6-0.3,0.8l0.4,0.4c0.2,0.2,0.2,0.5,0,0.7c-0.2,0.2-0.5,0.2-0.7,0l-0.4-0.4    c-0.2-0.2-0.8,0.1-0.8,0.3v0.6c0,0.3-0.2,0.5-0.5,0.5c-0.3,0-0.5-0.2-0.5-0.5v-0.6c0-0.3-0.6-0.5-0.8-0.3l-0.4,0.4    c-0.2,0.2-0.5,0.2-0.7,0c-0.2-0.2-0.2-0.5,0-0.7l0.4-0.4c0.2-0.2-0.1-0.8-0.3-0.8h-0.6c-0.3,0-0.5-0.2-0.5-0.5    c0-0.3,0.2-0.5,0.5-0.5h0.6c0.3,0,0.5-0.6,0.3-0.8L16.4,57c-0.2-0.2-0.2-0.5,0-0.7c0.2-0.2,0.5-0.2,0.7,0l0.4,0.4    c0.2,0.2,0.8-0.1,0.8-0.3V55.8L18.4,55.8z" id="XMLID_27_"/>
		<path class="NightSleet_st2" d="M34.4,55.8c0-0.3,0.2-0.5,0.5-0.5c0.3,0,0.5,0.2,0.5,0.5v0.6c0,0.3,0.6,0.5,0.8,0.3l0.4-0.4    c0.2-0.2,0.5-0.2,0.7,0c0.2,0.2,0.2,0.5,0,0.7l-0.4,0.4c-0.2,0.2,0.1,0.8,0.3,0.8h0.6c0.3,0,0.5,0.2,0.5,0.5    c0,0.3-0.2,0.5-0.5,0.5h-0.6c-0.3,0-0.5,0.6-0.3,0.8l0.4,0.4c0.2,0.2,0.2,0.5,0,0.7c-0.2,0.2-0.5,0.2-0.7,0l-0.4-0.4    c-0.2-0.2-0.8,0.1-0.8,0.3v0.6c0,0.3-0.2,0.5-0.5,0.5c-0.3,0-0.5-0.2-0.5-0.5v-0.6c0-0.3-0.6-0.5-0.8-0.3l-0.4,0.4    c-0.2,0.2-0.5,0.2-0.7,0c-0.2-0.2-0.2-0.5,0-0.7l0.4-0.4c0.2-0.2-0.1-0.8-0.3-0.8h-0.6c-0.3,0-0.5-0.2-0.5-0.5    c0-0.3,0.2-0.5,0.5-0.5h0.6c0.3,0,0.5-0.6,0.3-0.8L32.4,57c-0.2-0.2-0.2-0.5,0-0.7c0.2-0.2,0.5-0.2,0.7,0l0.4,0.4    c0.2,0.2,0.8-0.1,0.8-0.3V55.8L34.4,55.8z" id="XMLID_26_"/>
		<path class="NightSleet_st2" d="M25.9,62.2V63c0,0.4-0.8,0.7-1.1,0.4l-0.6-0.6c-0.3-0.3-0.7-0.3-0.9,0c-0.3,0.3-0.3,0.7,0,0.9    l0.6,0.6c0.3,0.3-0.1,1.1-0.4,1.1h-0.8c-0.4,0-0.7,0.3-0.7,0.7c0,0.4,0.3,0.7,0.7,0.7h0.8c0.4,0,0.7,0.8,0.4,1.1l-0.6,0.6    c-0.3,0.3-0.3,0.7,0,0.9c0.3,0.3,0.7,0.3,0.9,0l0.6-0.6c0.3-0.3,1.1,0.1,1.1,0.4V70c0,0.4,0.3,0.7,0.7,0.7c0.4,0,0.7-0.3,0.7-0.7    v-0.8c0-0.4,0.8-0.7,1.1-0.4l0.6,0.6c0.3,0.3,0.7,0.3,0.9,0c0.3-0.3,0.3-0.7,0-0.9l-0.6-0.6c-0.3-0.3,0.1-1.1,0.4-1.1h0.8    c0.4,0,0.7-0.3,0.7-0.7c0-0.4-0.3-0.7-0.7-0.7h-0.8c-0.4,0-0.7-0.8-0.4-1.1l0.6-0.6c0.3-0.3,0.3-0.7,0-0.9c-0.3-0.3-0.7-0.3-0.9,0    l-0.6,0.6c-0.3,0.3-1.1-0.1-1.1-0.4v-0.8c0-0.4-0.3-0.7-0.7-0.7C26.2,61.6,25.9,61.9,25.9,62.2L25.9,62.2z" id="XMLID_25_"/>
	</g>
	<path class="NightSleet_st3" d="M3.8,61.2c-0.9-1.3-0.4-3,1-3.8c0,0,0,0,0,0l3.4-1.9c0.1-0.1,0.3,0,0.3,0.1l0.1,3.9   c0,0,0,0,0,0c0,1.5-1.2,2.8-2.8,2.7C4.9,62.2,4.2,61.8,3.8,61.2L3.8,61.2z" id="XMLID_23_"/>
	<path class="NightSleet_st3" d="M8.6,69.2c0.5,0.8,1.4,1.3,2.4,1.4c1.9,0.1,3.4-1.4,3.4-3.3c0,0,0,0,0,0l-0.1-4.8   c0-0.2-0.2-0.3-0.3-0.2l-4.2,2.3l0,0C8.1,65.6,7.5,67.7,8.6,69.2L8.6,69.2z" id="XMLID_22_"/>
</g>
</svg>