<?xml version="1.0" ?><!-- Generator: Adobe Illustrator 19.0.0, SVG Export Plug-In . SVG Version: 6.00 Build 0)  --><svg id="图层_1" style="enable-background:new -9 11 60 60;" version="1.1" viewBox="-9 11 60 60" x="0px" xml:space="preserve" xmlns="http://www.w3.org/2000/svg" xmlns:xlink="http://www.w3.org/1999/xlink" y="0px" zn="夜间有雾">
<style type="text/css">
	.NightFoggy_st0{fill:#00BEFF;}
	.NightFoggy_st1{fill:#FFAA00;}
</style>
<g>
	<path class="NightFoggy_st0" d="M-3.1,68.6c-1.8,2-5.3-1.6-0.5-3.7c4.3-1.9,6.8,1.7,7.7,2.1c2.9,1.3,3.1-2.6,7.4-2.6   c4.3,0,4.5,3.9,7.4,2.6c0.9-0.4,3.4-4,7.7-2.1c1.9,0.9,2.7,3.1,5,2.1c0.9-0.4,3.4-4,7.7-2.1c1.9,0.9,2.7,3.1,5,2.1   c0.8-0.4,1.9-2,3.3-0.7c2.7,2.4-4.6,7-8.7,2.4c-1-1.1-2.8-1.1-3.8,0c-2.4,2.6-6.5,2.6-8.9,0c-1-1.1-2.8-1.1-3.8,0   c-2.4,2.6-6.5,2.6-8.9,0c-1-1.1-2.8-1.1-3.8,0c-2.4,2.6-6.5,2.6-8.9,0C-0.3,67.5-2.1,67.5-3.1,68.6L-3.1,68.6z" id="XMLID_45_"/>
	<path class="NightFoggy_st1" d="M25.3,40.1c-1.1,0.9-2.5,1.5-3.9,1.7c-6.8,1.1-12.2-6.3-8.8-12.4c0.9-1.7,2.3-3,4.1-3.7   c1.5-0.6,1.2-2.8-0.3-3.1c-1.6-0.3-3.3-0.3-4.9,0c-8,1.3-13.5,9-12.1,17c1.3,8,9,13.5,17,12.1c5.4-0.9,9.8-4.7,11.6-9.8   C28.4,40.4,26.6,39,25.3,40.1z M22.1,45.3c-1.7,1.7-3.9,2.9-6.3,3.3c-6.3,1-12.3-3.2-13.3-9.5c-1-5.8,2.6-11.3,8.1-13   c0.1,0,0.2,0,0.2,0.1c0,0.1,0,0.1,0,0.2c-0.4,0.5-0.7,1-1,1.5C5.2,36.3,12.6,46.5,21.9,45c0.1,0,0.1,0,0.2,0.1   C22.1,45.1,22.1,45.2,22.1,45.3z" id="XMLID_35_"/>
	<path class="NightFoggy_st0" d="M19.9,11.5l1.4,1.4c0.1,0.1,0.1,0.1,0.2,0.1l1.9-0.1c0.1,0,0.2,0,0.2,0.1   c0.1,0.1,0.1,0.2,0,0.3L22.8,15c0,0.1,0,0.1,0,0.2l0.7,1.8c0,0.1,0,0.2,0,0.3c-0.1,0.1-0.2,0.1-0.3,0.1l-1.9-0.3   c-0.1,0-0.2,0-0.2,0.1l-1.5,1.2c-0.1,0.1-0.2,0.1-0.3,0c-0.1,0-0.2-0.1-0.2-0.2l-0.3-1.9c0-0.1-0.1-0.1-0.1-0.2L17,15.1   c-0.1-0.1-0.1-0.1-0.1-0.2c0-0.1,0.1-0.2,0.1-0.2l1.7-0.9c0.1,0,0.1-0.1,0.1-0.2l0.5-1.9c0-0.1,0.1-0.2,0.2-0.2   C19.7,11.4,19.8,11.5,19.9,11.5L19.9,11.5z" id="XMLID_41_"/>
	<path class="NightFoggy_st0" d="M24.5,25.5c-0.1-0.1-0.2-0.1-0.3-0.1c-0.1,0-0.2,0.1-0.2,0.2l-0.5,1.9c0,0.1-0.1,0.1-0.1,0.2   l-1.7,0.9c-0.1,0-0.1,0.1-0.1,0.2c0,0.1,0,0.2,0.1,0.2l1.6,1.1c0.1,0,0.1,0.1,0.1,0.2l0.3,1.9c0,0.1,0.1,0.2,0.2,0.2   c0.1,0,0.2,0,0.3,0l1.5-1.2c0.1-0.1,0.1-0.1,0.2-0.1l1.9,0.3c0.1,0,0.2,0,0.3-0.1c0.1-0.1,0.1-0.2,0-0.3l-0.7-1.8   c0-0.1,0-0.2,0-0.2l0.9-1.7c0-0.1,0-0.2,0-0.3c-0.1-0.1-0.1-0.1-0.2-0.1L26.1,27c-0.1,0-0.2,0-0.2-0.1L24.5,25.5L24.5,25.5z" id="XMLID_40_"/>
	<path class="NightFoggy_st0" d="M36.8,34.6l0.5,1.9c0,0.1,0.1,0.1,0.1,0.2l1.7,0.9c0.1,0,0.1,0.1,0.1,0.2c0,0.1,0,0.2-0.1,0.2   L37.5,39c-0.1,0-0.1,0.1-0.1,0.2l-0.3,1.9c0,0.1-0.1,0.2-0.2,0.2c-0.1,0-0.2,0-0.3,0l-1.5-1.2C35.1,40,35,40,35,40L33,40.3   c-0.1,0-0.2,0-0.3-0.1c-0.1-0.1-0.1-0.2,0-0.3l0.7-1.8c0-0.1,0-0.2,0-0.2l-0.9-1.7c0-0.1,0-0.2,0-0.3c0.1-0.1,0.1-0.1,0.2-0.1   l1.9,0.1c0.1,0,0.2,0,0.2-0.1l1.4-1.4c0.1-0.1,0.2-0.1,0.3-0.1C36.7,34.4,36.8,34.5,36.8,34.6L36.8,34.6z" id="XMLID_39_"/>
	<path class="NightFoggy_st0" d="M38.5,16.4l0.6,2.4c0,0.1,0.1,0.2,0.2,0.2l2.2,1.1c0.1,0.1,0.2,0.2,0.2,0.3   c0,0.1-0.1,0.2-0.2,0.3L39.4,22c-0.1,0.1-0.1,0.1-0.2,0.2l-0.4,2.4c0,0.1-0.1,0.2-0.2,0.3c-0.1,0-0.2,0-0.3-0.1l-1.9-1.5   c-0.1-0.1-0.2-0.1-0.3-0.1l-2.4,0.4c-0.1,0-0.2,0-0.3-0.1c-0.1-0.1-0.1-0.2-0.1-0.3l0.9-2.3c0-0.1,0-0.2,0-0.3l-1.1-2.2   c-0.1-0.1-0.1-0.2,0-0.3c0.1-0.1,0.2-0.2,0.3-0.2l2.4,0.1c0.1,0,0.2,0,0.3-0.1l1.7-1.7c0.1-0.1,0.2-0.1,0.3-0.1   C38.4,16.2,38.5,16.3,38.5,16.4L38.5,16.4z" id="XMLID_33_"/>
	<path class="NightFoggy_st0" d="M-3.1,60.5c1-1.1,2.8-1.1,3.8,0c2.4,2.6,6.5,2.6,8.9,0c1-1.1,2.8-1.1,3.8,0   c2.4,2.6,6.5,2.6,8.9,0c1-1.1,2.8-1.1,3.8,0c2.4,2.6,6.5,2.6,8.9,0c1-1.1,2.8-1.1,3.8,0c4.1,4.5,11.4,0,8.7-2.4   c-1.4-1.3-2.5,0.4-3.3,0.7c-2.2,1-3-1.2-5-2.1c-4.3-1.9-6.8,1.7-7.7,2.1c-2.2,1-3-1.2-5-2.1c-4.3-1.9-6.8,1.7-7.7,2.1   c-2.9,1.3-3.1-2.6-7.4-2.6c-4.3,0-4.5,3.9-7.4,2.6c-0.9-0.4-3.4-4-7.7-2.1C-8.4,58.9-4.9,62.5-3.1,60.5z" id="XMLID_32_"/>
</g>
</svg>