<?xml version="1.0" ?><!-- Generator: Adobe Illustrator 19.0.0, SVG Export Plug-In . SVG Version: 6.00 Build 0)  --><svg id="图层_1" style="enable-background:new 0 0 60 60;" version="1.1" viewBox="0 0 60 60" x="0px" xml:space="preserve" xmlns="http://www.w3.org/2000/svg" xmlns:xlink="http://www.w3.org/1999/xlink" y="0px" zn="夜间小雨">
<style type="text/css">
	.NightLightrain_st0{fill:#FFFFFF;}
	.NightLightrain_st1{fill-rule:evenodd;clip-rule:evenodd;fill:#FFAA00;}
	.NightLightrain_st2{fill-rule:evenodd;clip-rule:evenodd;fill:#00BEFF;}
</style>
<g id="XMLID_61_">
	<path class="NightLightrain_st0" d="M45.1,20.7c-2.7-5-8-8.1-13.6-8.1c-7.9,0-14.3,5.5-15.3,13c-4,0.9-6.9,4.4-6.9,8.7   c0,4.9,4,8.9,8.9,8.9c2.1,0,4-0.7,5.5-1.9c2.5,1.6,5.1,2.4,7.8,2.4c2.6,0,4.4-0.4,6.5-1.6c1.7,1,3.7,1.6,5.8,1.6   c6.3,0,11.5-5.2,11.5-11.5C55.2,26.2,50.7,21.4,45.1,20.7z M43.7,40.5c-1.7,0-3.4-0.5-4.8-1.5c-0.5-0.3-1-0.4-1.5-0.1   c-0.1,0-0.2,0.1-0.3,0.1c-1.9,1.2-3.2,1.5-5.6,1.5c-2.5,0-4.7-0.8-7-2.5c-0.3-0.2-0.6-0.3-0.9-0.3c-0.4,0-0.9,0.2-1.2,0.5   c-1.1,1.2-2.5,1.8-4.2,1.8c-3.2,0-5.8-2.6-5.8-5.8c0-3.2,2.6-5.8,5.8-5.8c1.1,0,2.2,0.3,3.1,0.9c0.7,0.5,1.7,0.3,2.1-0.5   c0.5-0.7,0.3-1.7-0.5-2.1c-1.1-0.7-2.3-1.2-3.6-1.3c1.1-5.7,6-9.8,12.2-9.8c4,0,7.7,2,10.1,5.2c-2.8,0.5-5.4,2.1-7.1,4.5   C33.9,26,34,27,34.7,27.5c0.7,0.5,1.7,0.4,2.2-0.3c1.6-2.1,4.1-3.4,6.8-3.4c4.6,0,8.4,3.8,8.4,8.4C52.1,36.7,48.3,40.5,43.7,40.5z" id="XMLID_58_"/>
	<path class="NightLightrain_st1" d="M11,3.4c1.3,0.3,2.5,1.1,3.3,2.1c3.1,3.9,0.2,9.8-4.8,9.8c-1,0-2.1-0.3-3-0.8   c-1-0.6-2.1,0.6-1.6,1.6c1.8,3.4,5.4,5.6,9.3,5.6c0.3,0,0.7,0,1,0c1.6-0.1,1.4-2.4-0.5-2.3c-0.2,0-0.3,0-0.5,0   c-1.7,0-3.4-0.6-4.8-1.6c0,0-0.1-0.1,0-0.1c0-0.1,0.1-0.1,0.1-0.1c6.7,0,10.8-8.1,6.5-13.5c-0.3-0.3-0.6-0.6-0.9-0.9   c0,0-0.1-0.1,0-0.1C15.2,3,15.3,3,15.3,3c4.2,0.5,7.9,4.6,7.2,9c-0.2,1.5,2.2,1.8,2.3-0.3c0.3-6-4.6-11.1-10.6-11.1   c-1.2,0-2.4,0.2-3.5,0.6C9.7,1.6,9.9,3.2,11,3.4L11,3.4z" id="XMLID_17_"/>
	<g id="XMLID_13_">
		<path class="NightLightrain_st2" d="M20.8,50c-0.9-1.3-0.4-3,1-3.7c0,0,0,0,0,0l3.4-1.9c0.1-0.1,0.3,0,0.3,0.1l0.1,3.9    c0,0,0,0,0,0c0,1.5-1.2,2.8-2.8,2.7C21.9,51,21.2,50.6,20.8,50L20.8,50z" id="XMLID_16_"/>
		<path class="NightLightrain_st2" d="M25.6,58c0.5,0.8,1.4,1.3,2.3,1.4c1.9,0.1,3.4-1.4,3.4-3.3c0,0,0,0,0,0l-0.1-4.8    c0-0.2-0.2-0.3-0.3-0.2l-4.2,2.3c0,0,0,0,0,0C25.1,54.4,24.5,56.5,25.6,58L25.6,58z" id="XMLID_15_"/>
		<path class="NightLightrain_st2" d="M35.2,50c-0.9-1.3-0.4-3,1-3.7c0,0,0,0,0,0l3.4-1.9c0.1-0.1,0.3,0,0.3,0.1l0.1,3.9    c0,0,0,0,0,0c0,1.5-1.2,2.8-2.8,2.7C36.4,51,35.7,50.6,35.2,50z" id="XMLID_14_"/>
	</g>
</g>
</svg>