<?xml version="1.0" ?><!-- Generator: Adobe Illustrator 19.0.0, SVG Export Plug-In . SVG Version: 6.00 Build 0)  --><svg id="图层_1" style="enable-background:new 0 0 60 60;" version="1.1" viewBox="0 0 60 60" x="0px" xml:space="preserve" xmlns="http://www.w3.org/2000/svg" xmlns:xlink="http://www.w3.org/1999/xlink" y="0px" zn="夜间多云">
<style type="text/css">
	.NightCloudy_st0{fill:#FFFFFF;}
	.NightCloudy_st1{fill:#FFAA00;}
</style>
<g id="XMLID_13_">
	<g id="XMLID_15_">
		<path class="NightCloudy_st0" d="M45.4,30.2c-2.9-5.4-8.7-8.8-14.8-8.8c-8.6,0-15.5,6-16.6,14.1c-4.3,1-7.5,4.8-7.5,9.4    c0,5.3,4.3,9.7,9.7,9.7c2.2,0,4.3-0.7,6-2.1c2.7,1.7,5.5,2.6,8.5,2.6c2.9,0,4.8-0.5,7-1.7c1.9,1.1,4,1.7,6.3,1.7    c6.9,0,12.5-5.6,12.5-12.5C56.4,36.3,51.6,31,45.4,30.2z M43.9,51.8c-1.9,0-3.7-0.6-5.2-1.7c-0.5-0.4-1.1-0.4-1.6-0.2    c-0.1,0-0.2,0.1-0.3,0.2c-2.1,1.3-3.5,1.7-6.1,1.7c-2.7,0-5.2-0.9-7.6-2.7c-0.3-0.2-0.7-0.3-1-0.3c-0.5,0-0.9,0.2-1.3,0.5    c-1.2,1.3-2.8,2-4.6,2c-3.5,0-6.3-2.8-6.3-6.3s2.8-6.3,6.3-6.3c1.2,0,2.4,0.3,3.4,1c0.8,0.5,1.8,0.3,2.3-0.5    c0.5-0.8,0.3-1.8-0.5-2.3c-1.2-0.8-2.5-1.3-3.9-1.4c1.2-6.2,6.6-10.6,13.2-10.6c4.3,0,8.4,2.1,10.9,5.6c-3.1,0.6-5.8,2.3-7.7,4.9    c-0.5,0.7-0.4,1.8,0.4,2.4c0.7,0.6,1.8,0.4,2.4-0.4c1.7-2.3,4.5-3.7,7.4-3.7c5,0,9.1,4.1,9.1,9.1C53,47.7,48.9,51.8,43.9,51.8z" id="XMLID_17_"/>
		<path class="NightCloudy_st0" d="M15.3,12c-3.3,0-6.4,1.9-8,4.8C7.2,16.9,7.1,17,7,17c-3.1,0.6-5.5,3.4-5.5,6.6    c0,3.7,3,6.7,6.7,6.7h5.1c0.3,0,0.5-0.2,0.7-0.4c0.1-0.2,0.2-0.5,0.3-0.7c0.1-0.2,0.1-0.5,0-0.7c-0.1-0.2-0.4-0.3-0.6-0.3H8.2    c-2.5,0-4.6-2.1-4.6-4.6c0-3.9,4.9-6.1,7.8-3.2c0.8,0.8,1.3,2,1.3,3.2c0,1.4,2.1,1.4,2.1,0c0-2.9-1.9-5.5-4.6-6.4    c-0.3-0.1-0.4-0.5-0.2-0.7c3.8-4.3,10.9-2.3,12.1,3.2l0,0c0.1,0.5,0.6,0.9,1.2,0.8c0.8-0.1,1.6,0.1,2.3,0.4    c0.3,0.1,0.5,0.2,0.8,0.2c0.3,0,0.6,0,0.9,0c0.3,0,0.6-0.2,0.7-0.5c0.1-0.3,0-0.6-0.2-0.8c-0.9-0.8-2.2-1.4-3.5-1.5    c-0.2,0-0.3-0.1-0.4-0.3C22.6,14.5,19.1,12,15.3,12L15.3,12z" id="XMLID_16_"/>
	</g>
	<path class="NightCloudy_st1" d="M51.9,7.9c-1.4,0.3-2.7,1.2-3.6,2.3c-3.4,4.3-0.2,10.7,5.2,10.7c1.1,0,2.2-0.3,3.2-0.8   c1.1-0.6,2.3,0.7,1.7,1.7c-2,3.7-5.9,6.1-10.1,6.1c-0.4,0-0.7,0-1.1,0c-1.7-0.1-1.5-2.6,0.5-2.5c0.2,0,0.4,0,0.5,0   c1.9,0,3.7-0.6,5.3-1.7c0.1,0,0.1-0.1,0.1-0.2c0-0.1-0.1-0.1-0.1-0.1c-7.3,0-11.7-8.8-7.1-14.7c0.3-0.4,0.6-0.7,0.9-1   c0,0,0.1-0.1,0-0.2c0-0.1-0.1-0.1-0.1-0.1c-4.6,0.6-8.5,5-7.9,9.8c0.2,1.6-2.4,1.9-2.5-0.3c-0.3-6.5,5-12.1,11.5-12.1   c1.3,0,2.6,0.2,3.8,0.6C53.2,5.9,53.1,7.6,51.9,7.9L51.9,7.9z" id="XMLID_14_"/>
</g>
</svg>