<?xml version="1.0" ?><!-- Generator: Adobe Illustrator 19.0.0, SVG Export Plug-In . SVG Version: 6.00 Build 0)  --><svg id="图层_1" style="enable-background:new -9 11 60 60;" version="1.1" viewBox="-9 11 60 60" x="0px" xml:space="preserve" xmlns="http://www.w3.org/2000/svg" xmlns:xlink="http://www.w3.org/1999/xlink" y="0px" zn="夜间">
<style type="text/css">
	.night_st0{fill-rule:evenodd;clip-rule:evenodd;fill:#00BEFF;}
	.night_st1{fill-rule:evenodd;clip-rule:evenodd;fill:#FFAA00;}
</style>
<g>
	<path class="night_st0" d="M45.8,20.6l0.9,3.2c0,0.1,0.1,0.2,0.2,0.3l3,1.5c0.2,0.1,0.2,0.2,0.3,0.4   c0,0.2-0.1,0.3-0.2,0.4l-2.8,1.8c-0.1,0.1-0.2,0.2-0.2,0.3l-0.5,3.3c0,0.2-0.1,0.3-0.3,0.4c-0.2,0.1-0.3,0-0.5-0.1L43.1,30   c-0.1-0.1-0.2-0.1-0.4-0.1l-3.3,0.5c-0.2,0-0.3,0-0.4-0.2c-0.1-0.1-0.1-0.3-0.1-0.5l1.2-3.1c0.1-0.1,0-0.3,0-0.4l-1.6-2.9   c-0.1-0.2-0.1-0.3,0-0.5c0.1-0.1,0.2-0.2,0.4-0.2l3.4,0.2c0.1,0,0.3,0,0.4-0.1l2.4-2.4c0.1-0.1,0.3-0.2,0.5-0.1   C45.7,20.3,45.8,20.5,45.8,20.6L45.8,20.6z" id="XMLID_43_"/>
	<path class="night_st1" d="M27.3,55.3c-1.8,1-3.9,1.5-6,1.5c-10.1,0-15.9-11.7-9.7-19.5c1.7-2.1,4.1-3.6,6.7-4.3   c1.7-0.4,1.8-2.8,0.2-3.3c-2.1-0.7-4.4-1.1-6.6-1.1c-11,0-20.1,8.9-20.1,19.7c0,10.8,9.1,19.7,20.1,19.7c7.4,0,14.3-4,17.8-10.4   C30.6,56.2,28.9,54.4,27.3,55.3z M21.7,61.6c-2.8,2-6.2,3.1-9.7,3.1c-9.1,0-16.6-7.3-16.6-16.3c0-8.2,6.3-15.1,14.6-16.1   c0.3,0,0.6,0.1,0.7,0.4c0.1,0.3,0.1,0.6-0.2,0.8c-0.6,0.5-1.1,1.1-1.6,1.7c-8,10-0.5,25.1,12.4,25.1c0.3,0,0.6,0.2,0.7,0.5   C22,61.1,21.9,61.4,21.7,61.6z" id="XMLID_38_"/>
	<path class="night_st0" d="M20.1,14l1.9,1.9c0.1,0.1,0.2,0.1,0.3,0.1l2.7-0.2c0.1,0,0.3,0.1,0.3,0.2   c0.1,0.1,0.1,0.2,0,0.4l-1.2,2.4c-0.1,0.1-0.1,0.2,0,0.3l1,2.5c0.1,0.1,0,0.3-0.1,0.4C24.9,22,24.8,22,24.7,22L22,21.6   c-0.1,0-0.2,0-0.3,0.1l-2.1,1.7c-0.1,0.1-0.2,0.1-0.4,0.1c-0.1,0-0.2-0.2-0.2-0.3l-0.4-2.6c0-0.1-0.1-0.2-0.2-0.3l-2.3-1.4   C16,18.7,16,18.6,16,18.5c0-0.1,0.1-0.2,0.2-0.3l2.4-1.2c0.1,0,0.2-0.1,0.2-0.2l0.7-2.6c0-0.1,0.1-0.2,0.3-0.3   C19.9,13.9,20,13.9,20.1,14L20.1,14z" id="XMLID_39_"/>
	<path class="night_st0" d="M26.5,33l1.9,1.9c0.1,0.1,0.2,0.1,0.3,0.1l2.7-0.2c0.1,0,0.3,0.1,0.3,0.2   c0.1,0.1,0.1,0.2,0,0.4l-1.2,2.4c-0.1,0.1-0.1,0.2,0,0.3l1,2.5c0.1,0.1,0,0.3-0.1,0.4c-0.1,0.1-0.2,0.2-0.4,0.1l-2.7-0.4   c-0.1,0-0.2,0-0.3,0.1L26,42.3c-0.1,0.1-0.2,0.1-0.4,0.1c-0.1,0-0.2-0.2-0.2-0.3L25,39.4c0-0.1-0.1-0.2-0.2-0.3l-2.3-1.4   c-0.1-0.1-0.2-0.2-0.2-0.3c0-0.1,0.1-0.2,0.2-0.3l2.4-1.2c0.1,0,0.2-0.1,0.2-0.2l0.7-2.6c0-0.1,0.1-0.2,0.3-0.3   C26.3,32.8,26.4,32.9,26.5,33L26.5,33z" id="XMLID_33_"/>
	<path class="night_st0" d="M43.5,45.3l0.7,2.6c0,0.1,0.1,0.2,0.2,0.2l2.4,1.2c0.1,0.1,0.2,0.2,0.2,0.3   c0,0.1-0.1,0.3-0.2,0.3l-2.3,1.4c-0.1,0.1-0.2,0.1-0.2,0.3l-0.4,2.6c0,0.1-0.1,0.2-0.2,0.3c-0.1,0-0.3,0-0.4-0.1l-2.1-1.7   c-0.1-0.1-0.2-0.1-0.3-0.1l-2.7,0.4c-0.1,0-0.3,0-0.4-0.1c-0.1-0.1-0.1-0.2-0.1-0.4l1-2.5c0-0.1,0-0.2,0-0.3l-1.2-2.4   c-0.1-0.1-0.1-0.3,0-0.4c0.1-0.1,0.2-0.2,0.3-0.2l2.7,0.2c0.1,0,0.2,0,0.3-0.1l1.9-1.9c0.1-0.1,0.2-0.1,0.4-0.1   C43.3,45,43.4,45.1,43.5,45.3z" id="XMLID_32_"/>
</g>
</svg>