<?xml version="1.0" ?><!-- Generator: Adobe Illustrator 19.0.0, SVG Export Plug-In . SVG Version: 6.00 Build 0)  --><svg id="图层_1" style="enable-background:new 0 0 60 60;" version="1.1" viewBox="0 0 60 60" x="0px" xml:space="preserve" xmlns="http://www.w3.org/2000/svg" xmlns:xlink="http://www.w3.org/1999/xlink" y="0px" zn="晴转多云">
<style type="text/css">
	.overcast_st0{fill:#FFFFFF;}
	.overcast_st1{fill:#FFAA00;}
</style>
<g id="XMLID_13_">
	<path class="overcast_st0" d="M32.8,27.8c-2.4-4.5-7.2-7.3-12.3-7.3c-7.1,0-12.9,5-13.8,11.7c-3.6,0.8-6.2,4-6.2,7.8   c0,4.4,3.6,8,8,8c1.9,0,3.6-0.6,5-1.7c2.2,1.4,4.6,2.1,7.1,2.1c2.4,0,4-0.4,5.8-1.4c1.6,0.9,3.4,1.4,5.2,1.4   c5.7,0,10.4-4.6,10.4-10.4C41.9,32.8,37.9,28.4,32.8,27.8z M31.5,45.6c-1.6,0-3.1-0.5-4.3-1.4c-0.4-0.3-0.9-0.3-1.4-0.1   c-0.1,0-0.2,0.1-0.3,0.1c-1.7,1.1-2.9,1.4-5,1.4c-2.3,0-4.3-0.7-6.3-2.2c-0.3-0.2-0.6-0.3-0.9-0.3c-0.4,0-0.8,0.1-1.1,0.4   c-1,1.1-2.3,1.6-3.8,1.6c-2.9,0-5.2-2.3-5.2-5.2c0-2.9,2.3-5.2,5.2-5.2c1,0,2,0.3,2.8,0.8c0.6,0.4,1.5,0.2,1.9-0.4   c0.4-0.6,0.2-1.5-0.4-1.9c-1-0.6-2.1-1-3.2-1.2c1-5.1,5.4-8.8,10.9-8.8c3.6,0,7,1.8,9.1,4.6c-2.5,0.5-4.8,1.9-6.4,4   c-0.5,0.6-0.3,1.5,0.3,1.9c0.6,0.5,1.5,0.3,1.9-0.3c1.4-1.9,3.7-3.1,6.1-3.1c4.2,0,7.6,3.4,7.6,7.6S35.7,45.6,31.5,45.6z" id="XMLID_67_"/>
	<g id="XMLID_14_">
		<path class="overcast_st1" d="M35.3,19.4C35.3,19.4,35.3,19.4,35.3,19.4c0.4-0.2,0.8-0.5,1.2-0.7c0.3-0.1,0.5-0.3,0.8-0.4    l-2.5-4.7c-0.3-0.6-1-0.8-1.5-0.5c-0.6,0.3-0.8,1-0.5,1.5L35.3,19.4z" id="XMLID_66_"/>
		<path class="overcast_st1" d="M41.3,17.3l-0.2-2.2c0-0.4-0.4-0.7-0.8-0.7c-0.4,0-0.7,0.4-0.7,0.8l0.2,2.2    C40.3,17.4,40.8,17.4,41.3,17.3z" id="XMLID_65_"/>
		<path class="overcast_st1" d="M32.2,22.5c0.3-0.4,0.6-0.8,0.9-1.2l-1.7-1.4c-0.3-0.3-0.8-0.2-1.1,0.1    c-0.3,0.3-0.2,0.8,0.1,1.1L32.2,22.5z" id="XMLID_64_"/>
		<path class="overcast_st1" d="M56,28.2c0.1,0,0.2,0,0.3-0.1c0.3-0.1,0.4-0.4,0.4-0.8c0-0.4-0.4-0.7-0.8-0.7l-2.2,0.2    c0.1,0.5,0.2,1,0.2,1.5L56,28.2z" id="XMLID_63_"/>
		<path class="overcast_st1" d="M51.7,22.4c0.3,0.4,0.5,0.8,0.7,1.2c0.1,0.3,0.3,0.5,0.4,0.8l4.7-2.5c0.6-0.3,0.8-1,0.5-1.5    c-0.3-0.6-1-0.8-1.5-0.5L51.7,22.4C51.7,22.4,51.7,22.4,51.7,22.4z" id="XMLID_62_"/>
		<path class="overcast_st1" d="M49.8,20.3l1.4-1.7c0.3-0.3,0.2-0.8-0.1-1.1c-0.3-0.3-0.8-0.2-1.1,0.1l-1.4,1.7    C49,19.6,49.4,19.9,49.8,20.3z" id="XMLID_61_"/>
		<path class="overcast_st1" d="M47.8,13c0.2-0.6-0.2-1.2-0.8-1.4c-0.6-0.2-1.2,0.2-1.4,0.8l-1.5,5.1c0,0,0,0,0,0    c0.7,0.1,1.5,0.3,2.2,0.6L47.8,13z" id="XMLID_60_"/>
		<path class="overcast_st1" d="M51.8,35.7c-0.3,0.4-0.6,0.8-0.9,1.2l1.7,1.4c0.2,0.2,0.6,0.2,0.8,0.1c0.1,0,0.2-0.1,0.2-0.2    c0.3-0.3,0.2-0.8-0.1-1.1L51.8,35.7z" id="XMLID_59_"/>
		<path class="overcast_st1" d="M50.2,24.7c-2.4-4.5-8-6.2-12.5-3.8c-1.7,0.9-3.1,2.4-3.9,4c0.4,0.4,0.8,0.9,1.1,1.4    c0.2,0,0.4,0,0.6,0c1-2.3,3.1-4,5.8-4.3c3.9-0.4,7.4,2.4,7.8,6.3c0.4,3.6-2,6.8-5.4,7.6c-0.1,0.8-0.2,1.6-0.5,2.3    c1.1-0.1,2.2-0.5,3.3-1C50.9,34.9,52.6,29.2,50.2,24.7z" id="XMLID_58_"/>
		<path class="overcast_st1" d="M48.7,38.8C48.7,38.8,48.7,38.8,48.7,38.8c-0.4,0.2-0.8,0.5-1.2,0.7c-0.3,0.1-0.5,0.3-0.8,0.4    l2.5,4.7c0.3,0.6,1,0.8,1.5,0.5c0.6-0.3,0.8-1,0.5-1.5L48.7,38.8z" id="XMLID_17_"/>
		<path class="overcast_st1" d="M58.7,32.7l-5.1-1.5c0,0,0,0,0,0c-0.1,0.7-0.3,1.5-0.6,2.2l5.1,1.5c0.3,0.1,0.6,0.1,0.9-0.1    c0.3-0.1,0.5-0.4,0.6-0.7C59.7,33.6,59.3,32.9,58.7,32.7z" id="XMLID_16_"/>
		<path class="overcast_st1" d="M42.7,40.9l0.2,2.2c0,0.4,0.4,0.7,0.8,0.7c0.1,0,0.2,0,0.3-0.1c0.3-0.1,0.4-0.4,0.4-0.8    l-0.2-2.2C43.7,40.8,43.2,40.8,42.7,40.9z" id="XMLID_15_"/>
	</g>
</g>
</svg>