<?xml version="1.0" encoding="utf-8"?>
<!-- Generator: Adobe Illustrator 19.0.0, SVG Export Plug-In . SVG Version: 6.00 Build 0)  -->
<svg version="1.1" id="图层_1" xmlns="http://www.w3.org/2000/svg" xmlns:xlink="http://www.w3.org/1999/xlink" x="0px" y="0px"
	 viewBox="0 0 25 35" style="enable-background:new 0 0 25 35;" xml:space="preserve">
<style type="text/css">
	.pressure0{fill:#05BCFE;}
</style>
<g id="XMLID_5351_">
	<path id="XMLID_5352_" class="pressure0" d="M12.5,5.7C6,5.7,0.7,11,0.7,17.5S6,29.3,12.5,29.3S24.3,24,24.3,17.5S19,5.7,12.5,5.7z
		 M12.5,27.4c-5.5,0-9.9-4.4-9.9-9.9c0-5.5,4.4-9.9,9.9-9.9c5.5,0,9.9,4.4,9.9,9.9C22.4,23,18,27.4,12.5,27.4z"/>
	<path id="XMLID_5355_" class="pressure0" d="M20.8,17.5c0-4.6-3.7-8.3-8.3-8.3s-8.3,3.7-8.3,8.3c0,2.4,1,4.5,2.6,6l0.9-1
		c-1.3-1.3-2.2-3.1-2.2-5.1c0-3.8,3.1-6.9,6.9-6.9c3.8,0,6.9,3.1,6.9,6.9c0,2-0.9,3.9-2.3,5.1l0.9,1C19.7,22.1,20.8,19.9,20.8,17.5z
		"/>
	<rect id="XMLID_22997_" x="12.2" y="8.6" class="pressure0" width="0.6" height="1.5"/>
	
		<rect id="XMLID_22996_" x="6.4" y="11" transform="matrix(0.7071 -0.7071 0.7071 0.7071 -6.3513 8.1849)" class="pressure0" width="0.6" height="1.5"/>
	<rect id="XMLID_22993_" x="3.6" y="17.2" class="pressure0" width="1.5" height="0.6"/>
	
		<rect id="XMLID_22991_" x="6.4" y="22.5" transform="matrix(-0.7385 -0.6742 0.6742 -0.7385 -4.0641 44.9162)" class="pressure0" width="0.6" height="1.5"/>
	
		<rect id="XMLID_22988_" x="17.9" y="22.6" transform="matrix(-0.7446 0.6675 -0.6675 -0.7446 47.4336 28.5634)" class="pressure0" width="0.6" height="1.5"/>
	<rect id="XMLID_22986_" x="19.9" y="17.2" class="pressure0" width="1.5" height="0.6"/>
	
		<rect id="XMLID_22984_" x="17.9" y="11" transform="matrix(0.7071 0.7071 -0.7071 0.7071 13.6367 -9.4728)" class="pressure0" width="0.6" height="1.5"/>
	<circle id="XMLID_5356_" class="pressure0" cx="12.5" cy="17.5" r="1.2"/>
	<polygon id="XMLID_5357_" class="pressure0" points="10.1,18.9 11,19.8 16.7,13.5 	"/>
</g>
</svg>
