<?xml version="1.0" ?><!-- Generator: Adobe Illustrator 19.0.0, SVG Export Plug-In . SVG Version: 6.00 Build 0)  --><svg id="图层_1" style="enable-background:new 0 0 60 60;" version="1.1" viewBox="0 0 60 60" x="0px" xml:space="preserve" xmlns="http://www.w3.org/2000/svg" xmlns:xlink="http://www.w3.org/1999/xlink" y="0px" zn="中雨">
<style type="text/css">
	.rain_st0{fill:#FFFFFF;}
	.rain_st1{fill:#00BEFF;}
</style>
<g id="XMLID_13_">
	<path class="rain_st0" d="M45.2,14c-3.2-5.8-9.4-9.6-16-9.6c-9.3,0-16.8,6.5-18,15.3C6.5,20.8,3,24.9,3,29.9   c0,5.8,4.7,10.4,10.4,10.4c2.4,0,4.7-0.8,6.5-2.2c2.9,1.9,6,2.8,9.2,2.8c3.1,0,5.2-0.5,7.6-1.8c2.1,1.2,4.4,1.8,6.8,1.8   C51,40.9,57,34.8,57,27.4C57,20.5,51.8,14.8,45.2,14z M43.5,37.3c-2,0-4-0.6-5.7-1.8c-0.5-0.4-1.2-0.4-1.8-0.2   c-0.1,0-0.3,0.1-0.4,0.2c-2.2,1.4-3.8,1.8-6.6,1.8c-3,0-5.6-0.9-8.3-2.9c-0.3-0.2-0.7-0.4-1.1-0.3c-0.5,0-1,0.2-1.4,0.6   c-1.3,1.4-3,2.1-5,2.1c-3.8,0-6.8-3.1-6.8-6.8c0-3.8,3.1-6.8,6.8-6.8c1.3,0,2.6,0.4,3.7,1.1c0.8,0.5,2,0.3,2.5-0.5   c0.5-0.8,0.3-2-0.5-2.5c-1.3-0.8-2.7-1.4-4.2-1.6C16.1,12.9,22,8.1,29.1,8.1c4.7,0,9.1,2.3,11.8,6.1c-3.3,0.6-6.3,2.5-8.3,5.3   c-0.6,0.8-0.4,1.9,0.4,2.5c0.8,0.6,1.9,0.4,2.5-0.4c1.9-2.5,4.8-4,8-4c5.4,0,9.9,4.4,9.9,9.9C53.4,32.8,49,37.3,43.5,37.3z" id="XMLID_17_"/>
	<g id="XMLID_14_">
		<path class="rain_st1" d="M36.9,54c0.6,0.9,1.6,1.5,2.8,1.6c2.2,0.2,4-1.6,3.9-3.9c0,0,0,0,0,0l-0.1-5.6    c0-0.2-0.2-0.3-0.4-0.2l-4.9,2.7c0,0,0,0,0,0C36.3,49.7,35.7,52.2,36.9,54L36.9,54z" id="XMLID_16_"/>
		<path class="rain_st1" d="M17.2,53.2c0.6,0.9,1.6,1.5,2.8,1.6c2.2,0.2,4-1.6,3.9-3.9c0,0,0,0,0,0l-0.1-5.6    c0-0.2-0.2-0.3-0.4-0.2l-4.9,2.7c0,0,0,0,0,0C16.6,48.9,16,51.4,17.2,53.2L17.2,53.2z" id="XMLID_15_"/>
	</g>
</g>
</svg>