<?xml version="1.0" encoding="utf-8"?>
<!-- Generator: Adobe Illustrator 19.0.0, SVG Export Plug-In . SVG Version: 6.00 Build 0)  -->
<svg version="1.1" id="图层_1" xmlns="http://www.w3.org/2000/svg" xmlns:xlink="http://www.w3.org/1999/xlink" x="0px" y="0px"
	 viewBox="0 0 25 35" style="enable-background:new 0 0 25 35;" xml:space="preserve">
<style type="text/css">
	.RH0{fill:#00BEFF;}
</style>
<g id="XMLID_5417_">
	<path id="XMLID_5418_" class="RH0" d="M12.5,4.2c-0.6,4.2-7.8,12.7-7.8,18.7c0,4.3,3.5,7.8,7.8,7.8s7.8-3.5,7.8-7.8
		C20.3,16.6,13,8.6,12.5,4.2z M12.5,29c-3.3,0-6-2.7-6-6c0-3.2,2.6-7.7,4.8-11.7c0.4-0.7,0.8-1.4,1.2-2.1c0.4,0.7,0.8,1.4,1.2,2.1
		c2.3,3.9,4.8,8.3,4.8,11.7C18.5,26.3,15.8,29,12.5,29z"/>
</g>
<path id="XMLID_106_" class="RH0" d="M12.1,25.5L12.1,25.5c-1.4-0.3-2.4-1.6-2.4-3.2h0c0,0,0,0,0,0c0-0.4-0.3-0.7-0.7-0.7
	c-0.4,0-0.7,0.3-0.7,0.7c0,0,0,0,0,0h0c0,2.2,1.4,4,3.4,4.5c0.1,0.1,0.2,0.1,0.3,0.1c0.4,0,0.7-0.3,0.7-0.7S12.5,25.5,12.1,25.5z"/>
</svg>
