<?xml version="1.0" ?><!-- Generator: Adobe Illustrator 19.0.0, SVG Export Plug-In . SVG Version: 6.00 Build 0)  --><svg id="图层_1" style="enable-background:new -9 11 60 60;" version="1.1" viewBox="-9 11 60 60" x="0px" xml:space="preserve" xmlns="http://www.w3.org/2000/svg" xmlns:xlink="http://www.w3.org/1999/xlink" y="0px" zn="扬沙">
<style type="text/css">
	.sand_st0{fill:#00BEFF;}
	.sand_st1{fill:#FFFFFF;}
</style>
<g id="XMLID_21_">
	<g id="XMLID_33_">
		<path class="sand_st0" d="M20.7,30c-1.4,2.4-5.1,0.2-3.6-2.2c2.3-3.8,6.5-6.2,11-6.2c7.1,0,12.9,5.8,12.9,12.9    c0,7.1-5.8,12.9-12.9,12.9H-6.4c-2.8,0-2.8-4.3,0-4.3H28c4.7,0,8.6-3.9,8.6-8.6c0-4.7-3.9-8.6-8.6-8.6    C25.1,25.9,22.2,27.5,20.7,30L20.7,30z M6.6,58c0-2.8,4.3-2.8,4.3,0c0,2.7,2.2,5,5,5c2.7,0,5-2.2,5-5c0-2.7-2.2-5-5-5H-6.3    c-2.8,0-2.8-4.3,0-4.3h22.2c5.1,0,9.2,4.1,9.2,9.2c0,5.1-4.1,9.2-9.2,9.2C10.7,67.3,6.6,63.1,6.6,58L6.6,58z M3.4,34.1    c0.2-1.3,1.4-2.3,2.8-2.3C7.7,31.8,9,33,9,34.6s-1.3,2.8-2.8,2.8H-6.3c-2.8,0-2.8,4.3,0,4.3H6.2c3.9,0,7.1-3.2,7.1-7.1    c0-3.9-3.2-7.1-7.1-7.1c-3.4,0-6.4,2.5-7,5.8C-1.2,36.1,3,36.8,3.4,34.1z" id="XMLID_34_"/>
	</g>
	<circle class="sand_st1" cx="22" cy="38.9" id="XMLID_32_" r="2.2"/>
	<circle class="sand_st1" cx="29.7" cy="32.8" id="XMLID_31_" r="2.2"/>
	<circle class="sand_st1" cx="45.4" cy="23.7" id="XMLID_30_" r="2.2"/>
	<circle class="sand_st1" cx="39" cy="49.6" id="XMLID_29_" r="2.2"/>
	<circle class="sand_st1" cx="47.6" cy="42.5" id="XMLID_28_" r="2.2"/>
	<circle class="sand_st1" cx="25.4" cy="17" id="XMLID_27_" r="2.2"/>
	<circle class="sand_st1" cx="48.2" cy="32.8" id="XMLID_26_" r="2.2"/>
	<circle class="sand_st1" cx="38" cy="18.7" id="XMLID_25_" r="2.2"/>
	<circle class="sand_st1" cx="15.9" cy="23.2" id="XMLID_24_" r="2.2"/>
</g>
</svg>