<?xml version="1.0" ?><!-- Generator: Adobe Illustrator 19.0.0, SVG Export Plug-In . SVG Version: 6.00 Build 0)  --><svg id="图层_1" style="enable-background:new 0 0 60 60;" version="1.1" viewBox="0 0 60 60" x="0px" xml:space="preserve" xmlns="http://www.w3.org/2000/svg" xmlns:xlink="http://www.w3.org/1999/xlink" y="0px" zn="小雪">
<style type="text/css">
	.scouther_st0{fill:#FFFFFF;}
</style>
<path class="scouther_st0" d="M51.3,32.3l-8.2,2.5l-5.3-3.1c0.1-0.6,0.2-1.2,0.2-1.8c0-0.6-0.1-1.2-0.2-1.8l5.3-3.1l8.2,2.5  c0.2,0.1,0.5,0.1,0.7,0.1c1,0,1.9-0.6,2.2-1.7c0.4-1.2-0.3-2.5-1.6-2.9L48.6,22l2.2-1.2c1.1-0.6,1.5-2.1,0.9-3.2  c-0.6-1.1-2.1-1.5-3.2-0.9l-2.2,1.2l1-4.1c0.3-1.3-0.5-2.5-1.8-2.8c-1.3-0.3-2.5,0.5-2.8,1.8l-1.9,8.4l-5.3,3.1  c-0.9-0.8-1.9-1.4-3.1-1.8v-6.1l6.3-5.9c0.9-0.9,1-2.4,0.1-3.3c-0.9-0.9-2.4-1-3.3-0.1l-3.1,2.9V7.4c0-1.3-1-2.3-2.3-2.3  c-1.3,0-2.3,1-2.3,2.3v2.5L24.5,7c-0.9-0.9-2.4-0.8-3.3,0.1c-0.9,0.9-0.8,2.4,0.1,3.3l6.3,5.9v6.1c-1.2,0.4-2.2,1-3.1,1.8l-5.3-3.1  l-1.9-8.4c-0.3-1.3-1.5-2-2.8-1.8c-1.3,0.3-2,1.5-1.8,2.8l1,4.1l-2.2-1.2C10.5,16,9,16.4,8.4,17.5c-0.6,1.1-0.3,2.6,0.9,3.2l2.2,1.2  l-4.1,1.2c-1.2,0.4-1.9,1.7-1.6,2.9c0.3,1,1.2,1.7,2.2,1.7c0.2,0,0.5,0,0.7-0.1l8.2-2.5l5.3,3.1C22.1,28.8,22,29.4,22,30  c0,0.6,0.1,1.2,0.2,1.8l-5.3,3.1l-8.2-2.5c-1.2-0.4-2.5,0.3-2.9,1.6c-0.4,1.2,0.3,2.5,1.6,2.9l4.1,1.2l-2.2,1.2  c-1.1,0.6-1.5,2.1-0.9,3.2c0.4,0.7,1.2,1.2,2,1.2c0.4,0,0.8-0.1,1.2-0.3l2.2-1.2l-1,4.1c-0.3,1.3,0.5,2.5,1.8,2.8  c0.2,0,0.4,0.1,0.5,0.1c1.1,0,2-0.7,2.3-1.8l1.9-8.4l5.3-3.1c0.9,0.8,1.9,1.4,3.1,1.8v6.1l-6.3,5.9c-0.9,0.9-1,2.4-0.1,3.3  c0.9,0.9,2.4,1,3.3,0.1l3.1-2.9v2.5c0,1.3,1,2.3,2.3,2.3c1.3,0,2.3-1,2.3-2.3v-2.5l3.1,2.9c0.5,0.4,1,0.6,1.6,0.6  c0.6,0,1.3-0.2,1.7-0.7c0.9-0.9,0.8-2.4-0.1-3.3l-6.3-5.9v-6.1c1.2-0.4,2.2-1,3.1-1.8l5.3,3.1l1.9,8.4c0.3,1.1,1.2,1.8,2.3,1.8  c0.2,0,0.4,0,0.5-0.1c1.3-0.3,2-1.5,1.8-2.8l-1-4.1l2.2,1.2c0.4,0.2,0.8,0.3,1.2,0.3c0.8,0,1.6-0.4,2-1.2c0.6-1.1,0.3-2.6-0.9-3.2  L48.6,38l4.1-1.2c1.2-0.4,1.9-1.7,1.6-2.9C53.8,32.6,52.5,31.9,51.3,32.3z M30,34.2c-2.3,0-4.2-1.9-4.2-4.2c0-2.3,1.9-4.2,4.2-4.2  c2.3,0,4.2,1.9,4.2,4.2C34.2,32.3,32.3,34.2,30,34.2z" id="XMLID_13_"/>
</svg>