<?xml version="1.0" ?><!-- Generator: Adobe Illustrator 19.0.0, SVG Export Plug-In . SVG Version: 6.00 Build 0)  --><svg id="图层_1" style="enable-background:new 0 0 60 60;" version="1.1" viewBox="0 0 60 60" x="0px" xml:space="preserve" xmlns="http://www.w3.org/2000/svg" xmlns:xlink="http://www.w3.org/1999/xlink" y="0px" zn="阵雨">
<style type="text/css">
	.shower_st0{fill:#FFFFFF;}
	.shower_st1{fill:#00BEFF;}
	.shower_st2{fill:#FFAA00;}
</style>
<g id="XMLID_13_">
	<path class="shower_st0" d="M30.4,19.9c-2.3-4.2-6.7-6.8-11.5-6.8c-6.6,0-12,4.6-12.9,11c-3.3,0.8-5.8,3.7-5.8,7.3   c0,4.1,3.4,7.5,7.5,7.5c1.7,0,3.4-0.6,4.7-1.6c2.1,1.3,4.3,2,6.6,2c2.2,0,3.7-0.4,5.4-1.3c1.5,0.9,3.1,1.3,4.9,1.3   c5.3,0,9.7-4.3,9.7-9.7C38.9,24.6,35.2,20.5,30.4,19.9z M29.2,36.6c-1.5,0-2.9-0.4-4.1-1.3c-0.4-0.3-0.9-0.3-1.3-0.1   c-0.1,0-0.2,0.1-0.3,0.1c-1.6,1-2.7,1.3-4.7,1.3c-2.1,0-4-0.7-5.9-2.1c-0.2-0.2-0.5-0.3-0.8-0.3c-0.4,0-0.7,0.1-1,0.4   c-0.9,1-2.1,1.5-3.6,1.5c-2.7,0-4.9-2.2-4.9-4.9c0-2.7,2.2-4.9,4.9-4.9c0.9,0,1.9,0.3,2.6,0.8c0.6,0.4,1.4,0.2,1.8-0.4   c0.4-0.6,0.2-1.4-0.4-1.8c-0.9-0.6-2-1-3-1.1c0.9-4.8,5.1-8.2,10.2-8.2c3.4,0,6.5,1.7,8.5,4.3c-2.4,0.5-4.5,1.8-6,3.8   c-0.4,0.6-0.3,1.4,0.3,1.8c0.6,0.4,1.4,0.3,1.8-0.3c1.3-1.8,3.5-2.9,5.7-2.9c3.9,0,7.1,3.2,7.1,7.1S33.1,36.6,29.2,36.6z" id="XMLID_71_"/>
	<path class="shower_st1" d="M7.3,47.9c-0.9-1.4-0.4-3.2,1-4c0,0,0,0,0,0l3.7-2.1c0.1-0.1,0.3,0,0.3,0.2l0.1,4.2   c0,0,0,0,0,0c0,1.7-1.3,3-3,2.9C8.5,49,7.7,48.6,7.3,47.9L7.3,47.9z M12.4,56.5c0.6,0.9,1.5,1.4,2.5,1.5c2,0.2,3.7-1.5,3.6-3.5   c0,0,0,0,0,0l-0.1-5.1c0-0.2-0.2-0.3-0.3-0.2l-4.5,2.5c0,0,0,0,0,0C11.9,52.6,11.3,54.9,12.4,56.5L12.4,56.5z M22.8,47.9   c-0.9-1.4-0.4-3.2,1-4c0,0,0,0,0,0l3.7-2.1c0.1-0.1,0.3,0,0.3,0.2l0.1,4.2c0,0,0,0,0,0c0,1.7-1.3,3-3,2.9   C24,49,23.3,48.6,22.8,47.9L22.8,47.9z" id="XMLID_67_"/>
	<g id="XMLID_14_">
		<path class="shower_st2" d="M32.8,9.8C32.8,9.8,32.8,9.9,32.8,9.8c0.5-0.2,1-0.5,1.5-0.7c0.3-0.1,0.7-0.3,1-0.4L33,2.9    c-0.3-0.7-1.1-1-1.8-0.7c-0.7,0.3-1,1.1-0.7,1.8L32.8,9.8z" id="XMLID_66_"/>
		<path class="shower_st2" d="M40.3,8.2l0-2.6c0-0.5-0.4-0.9-0.9-0.9c-0.5,0-0.9,0.4-0.9,0.9l0,2.6    C39,8.1,39.7,8.1,40.3,8.2z" id="XMLID_65_"/>
		<path class="shower_st2" d="M28.9,13.1c0.4-0.5,0.8-0.9,1.3-1.3l-1.9-1.8c-0.4-0.4-0.9-0.4-1.3,0c-0.4,0.4-0.4,0.9,0,1.3    L28.9,13.1z" id="XMLID_64_"/>
		<path class="shower_st2" d="M56.3,22.9c0.1,0,0.2,0,0.3-0.1c0.3-0.1,0.6-0.5,0.6-0.8c0-0.5-0.4-0.9-0.9-0.9l-2.6,0    c0.1,0.6,0.1,1.2,0,1.8L56.3,22.9z" id="XMLID_63_"/>
		<path class="shower_st2" d="M51.9,15.5c0.3,0.5,0.5,1,0.7,1.5c0.1,0.3,0.3,0.7,0.4,1l5.9-2.4c0.7-0.3,1-1.1,0.7-1.8    c-0.3-0.7-1.1-1-1.8-0.7L51.9,15.5C52,15.4,51.9,15.5,51.9,15.5z" id="XMLID_62_"/>
		<path class="shower_st2" d="M50,12.7l1.8-1.9c0.4-0.4,0.4-0.9,0-1.3c-0.4-0.4-0.9-0.4-1.3,0l-1.9,1.9    C49.1,11.9,49.6,12.3,50,12.7z" id="XMLID_61_"/>
		<path class="shower_st2" d="M48.5,3.9c0.3-0.7,0-1.5-0.7-1.8c-0.7-0.3-1.5,0-1.8,0.7l-2.5,5.9c0,0,0,0,0,0    c0.9,0.3,1.7,0.6,2.5,1L48.5,3.9z" id="XMLID_60_"/>
		<path class="shower_st2" d="M50.3,31.3c-0.4,0.5-0.8,0.9-1.3,1.3l1.9,1.8c0.3,0.3,0.7,0.3,1,0.2c0.1,0,0.2-0.1,0.3-0.2    c0.4-0.4,0.4-0.9,0-1.3L50.3,31.3z" id="XMLID_59_"/>
		<path class="shower_st2" d="M49.8,18.1c-2.3-5.7-8.7-8.4-14.4-6.1c-2.2,0.9-3.9,2.4-5.1,4.2c0.4,0.6,0.8,1.1,1.1,1.8    c0.3,0,0.5,0.1,0.8,0.1c1.4-2.6,4.2-4.3,7.4-4.3c4.7,0,8.4,3.8,8.4,8.4c0,4.3-3.2,7.9-7.4,8.4c-0.2,0.9-0.5,1.8-0.9,2.7    c1.3,0,2.7-0.3,4-0.8C49.4,30.2,52.1,23.7,49.8,18.1z" id="XMLID_58_"/>
		<path class="shower_st2" d="M46.4,34.6C46.4,34.6,46.3,34.6,46.4,34.6c-0.5,0.2-1,0.5-1.5,0.7c-0.3,0.1-0.7,0.3-1,0.4    l2.4,5.9c0.3,0.7,1.1,1,1.8,0.7c0.7-0.3,1-1.1,0.7-1.8L46.4,34.6z" id="XMLID_17_"/>
		<path class="shower_st2" d="M59,28.6l-5.9-2.5c0,0,0,0,0,0c-0.3,0.9-0.6,1.7-1,2.5l5.8,2.5c0.3,0.1,0.7,0.1,1,0    c0.3-0.1,0.6-0.4,0.7-0.7C60,29.7,59.7,28.9,59,28.6z" id="XMLID_16_"/>
		<path class="shower_st2" d="M38.9,36.3l0,2.6c0,0.5,0.4,0.9,0.9,0.9c0.1,0,0.2,0,0.3-0.1c0.3-0.1,0.6-0.5,0.6-0.8l0-2.6    C40.1,36.3,39.5,36.3,38.9,36.3z" id="XMLID_15_"/>
	</g>
</g>
</svg>