<?xml version="1.0" ?><!-- Generator: Adobe Illustrator 19.0.0, SVG Export Plug-In . SVG Version: 6.00 Build 0)  --><svg id="图层_1" style="enable-background:new -9 11 60 60;" version="1.1" viewBox="-9 11 60 60" x="0px" xml:space="preserve" xmlns="http://www.w3.org/2000/svg" xmlns:xlink="http://www.w3.org/1999/xlink" y="0px" zn="雨夹雪">
<style type="text/css">
	.sleet_st0{fill:#FFFFFF;}
	.sleet_st1{fill:#00BEFF;}
</style>
<g id="XMLID_19_">
	<path class="sleet_st0" d="M36.1,21.1c-3.2-5.8-9.3-9.5-16-9.5c-9.2,0-16.7,6.5-17.9,15.2c-4.6,1-8.1,5.2-8.1,10.1   c0,5.7,4.7,10.4,10.4,10.4c2.4,0,4.7-0.8,6.5-2.2c2.9,1.9,5.9,2.8,9.2,2.8c3.1,0,5.2-0.5,7.6-1.8c2,1.2,4.4,1.8,6.7,1.8   c7.4,0,13.4-6,13.4-13.4C47.9,27.5,42.7,21.9,36.1,21.1z M34.4,44.2c-2,0-4-0.6-5.6-1.8c-0.5-0.4-1.2-0.4-1.8-0.2   c-0.1,0-0.3,0.1-0.4,0.2c-2.2,1.4-3.7,1.8-6.5,1.8c-2.9,0-5.6-0.9-8.2-2.9c-0.3-0.2-0.7-0.4-1.1-0.3c-0.5,0-1,0.2-1.4,0.6   c-1.3,1.4-3,2.1-4.9,2.1c-3.7,0-6.8-3-6.8-6.8c0-3.7,3-6.8,6.8-6.8c1.3,0,2.6,0.4,3.7,1.1c0.8,0.5,2,0.3,2.5-0.5   c0.5-0.8,0.3-2-0.5-2.5c-1.3-0.8-2.7-1.4-4.2-1.6C7.2,20,13,15.2,20.1,15.2c4.7,0,9.1,2.3,11.8,6c-3.3,0.6-6.3,2.5-8.3,5.2   C23,27.3,23.2,28.4,24,29c0.8,0.6,1.9,0.4,2.5-0.4c1.8-2.5,4.8-4,7.9-4c5.4,0,9.8,4.4,9.8,9.8C44.3,39.8,39.9,44.2,34.4,44.2z" id="XMLID_29_"/>
	<line class="sleet_st0" id="XMLID_28_" x1="34.5" x2="5.1" y1="49" y2="49"/>
	<path class="sleet_st0" d="M16.7,53.1c0-0.3,0.3-0.6,0.6-0.6c0.3,0,0.6,0.3,0.6,0.6v0.7c0,0.3,0.7,0.6,0.9,0.4l0.5-0.5   c0.2-0.2,0.6-0.2,0.8,0c0.2,0.2,0.2,0.6,0,0.8L19.6,55c-0.2,0.2,0.1,0.9,0.4,0.9h0.7c0.3,0,0.6,0.3,0.6,0.6c0,0.3-0.3,0.6-0.6,0.6   H20c-0.3,0-0.6,0.7-0.4,0.9l0.5,0.5c0.2,0.2,0.2,0.6,0,0.8c-0.2,0.2-0.6,0.2-0.8,0l-0.5-0.5c-0.2-0.2-0.9,0.1-0.9,0.4V60   c0,0.3-0.3,0.6-0.6,0.6c-0.3,0-0.6-0.3-0.6-0.6v-0.7c0-0.3-0.7-0.6-0.9-0.4l-0.5,0.5c-0.2,0.2-0.6,0.2-0.8,0   c-0.2-0.2-0.2-0.6,0-0.8l0.5-0.5c0.2-0.2-0.1-0.9-0.4-0.9h-0.7c-0.3,0-0.6-0.3-0.6-0.6c0-0.3,0.3-0.6,0.6-0.6h0.7   c0.3,0,0.6-0.7,0.4-0.9l-0.5-0.5c-0.2-0.2-0.2-0.6,0-0.8c0.2-0.2,0.6-0.2,0.8,0l0.5,0.5c0.2,0.2,0.9-0.1,0.9-0.4V53.1L16.7,53.1z" id="XMLID_27_"/>
	<path class="sleet_st0" d="M35.4,53.1c0-0.3,0.3-0.6,0.6-0.6c0.3,0,0.6,0.3,0.6,0.6v0.7c0,0.3,0.7,0.6,0.9,0.4l0.5-0.5   c0.2-0.2,0.6-0.2,0.8,0c0.2,0.2,0.2,0.6,0,0.8L38.3,55c-0.2,0.2,0.1,0.9,0.4,0.9h0.7c0.3,0,0.6,0.3,0.6,0.6c0,0.3-0.3,0.6-0.6,0.6   h-0.7c-0.3,0-0.6,0.7-0.4,0.9l0.5,0.5c0.2,0.2,0.2,0.6,0,0.8c-0.2,0.2-0.6,0.2-0.8,0l-0.5-0.5c-0.2-0.2-0.9,0.1-0.9,0.4V60   c0,0.3-0.3,0.6-0.6,0.6c-0.3,0-0.6-0.3-0.6-0.6v-0.7c0-0.3-0.7-0.6-0.9-0.4l-0.5,0.5c-0.2,0.2-0.6,0.2-0.8,0   c-0.2-0.2-0.2-0.6,0-0.8l0.5-0.5c0.2-0.2-0.1-0.9-0.4-0.9h-0.7c-0.3,0-0.6-0.3-0.6-0.6c0-0.3,0.3-0.6,0.6-0.6h0.7   c0.3,0,0.6-0.7,0.4-0.9l-0.5-0.5c-0.2-0.2-0.2-0.6,0-0.8c0.2-0.2,0.6-0.2,0.8,0l0.5,0.5c0.2,0.2,0.9-0.1,0.9-0.4V53.1L35.4,53.1z" id="XMLID_26_"/>
	<path class="sleet_st0" d="M25.5,60.6v0.9c0,0.4-0.9,0.8-1.2,0.5l-0.7-0.7c-0.3-0.3-0.8-0.3-1.1,0c-0.3,0.3-0.3,0.8,0,1.1   l0.7,0.7c0.3,0.3-0.1,1.2-0.5,1.2h-0.9c-0.4,0-0.8,0.3-0.8,0.8c0,0.4,0.3,0.8,0.8,0.8h0.9c0.4,0,0.8,0.9,0.5,1.2l-0.7,0.7   c-0.3,0.3-0.3,0.8,0,1.1c0.3,0.3,0.8,0.3,1.1,0l0.7-0.7c0.3-0.3,1.2,0.1,1.2,0.5v0.9c0,0.4,0.3,0.8,0.8,0.8s0.8-0.3,0.8-0.8v-0.9   c0-0.4,0.9-0.8,1.2-0.5l0.7,0.7c0.3,0.3,0.8,0.3,1.1,0c0.3-0.3,0.3-0.8,0-1.1l-0.7-0.7c-0.3-0.3,0.1-1.2,0.5-1.2h0.9   c0.4,0,0.8-0.3,0.8-0.8c0-0.4-0.3-0.8-0.8-0.8h-0.9c-0.4,0-0.8-0.9-0.5-1.2l0.7-0.7c0.3-0.3,0.3-0.8,0-1.1c-0.3-0.3-0.8-0.3-1.1,0   L28.3,62C28,62.3,27,61.9,27,61.5v-0.9c0-0.4-0.3-0.8-0.8-0.8S25.5,60.2,25.5,60.6L25.5,60.6z" id="XMLID_25_"/>
	<path class="sleet_st1" d="M-0.4,59.3c-1-1.5-0.5-3.5,1.1-4.4c0,0,0,0,0,0l4-2.2c0.1-0.1,0.3,0,0.3,0.2l0.1,4.6   c0,0,0,0,0,0c0.1,1.8-1.4,3.3-3.2,3.2C1,60.5,0.2,60.1-0.4,59.3L-0.4,59.3z" id="XMLID_24_"/>
	<path class="sleet_st1" d="M5.3,68.7c0.6,0.9,1.6,1.5,2.7,1.6c2.2,0.2,4-1.6,3.9-3.8c0,0,0,0,0,0l-0.1-5.6   c0-0.2-0.2-0.3-0.4-0.2l-4.9,2.7l0,0C4.7,64.4,4,66.9,5.3,68.7L5.3,68.7z" id="XMLID_23_"/>
</g>
</svg>