<?xml version="1.0" ?><!-- Generator: Adobe Illustrator 19.0.0, SVG Export Plug-In . SVG Version: 6.00 Build 0)  --><svg id="图层_1" style="enable-background:new -9 11 60 60;" version="1.1" viewBox="-9 11 60 60" x="0px" xml:space="preserve" xmlns="http://www.w3.org/2000/svg" xmlns:xlink="http://www.w3.org/1999/xlink" y="0px" zn="大雪伴风">
<style type="text/css">
	.SnowWiththewind_st0{fill:#00BEFF;}
	.SnowWiththewind_st1{fill:#FFFFFF;}
</style>
<g id="XMLID_20_">
	<path class="SnowWiththewind_st0" d="M41.4,35.6c-0.6,1-2.2,0.1-1.6-1c1-1.7,2.9-2.7,4.9-2.7c3.1,0,5.7,2.6,5.7,5.7   c0,3.1-2.6,5.7-5.7,5.7H27.6c-1.2,0-1.2-1.9,0-1.9h17.1c2.1,0,3.8-1.7,3.8-3.8c0-2.1-1.7-3.8-3.8-3.8   C43.3,33.8,42.1,34.5,41.4,35.6L41.4,35.6z M35.2,48c0-1.2,1.9-1.2,1.9,0c0,1.2,1,2.2,2.2,2.2c1.2,0,2.2-1,2.2-2.2   c0-1.2-1-2.2-2.2-2.2H20.8c-1.2,0-1.2-1.9,0-1.9h18.5c2.2,0,4.1,1.8,4.1,4.1c0,2.2-1.8,4.1-4.1,4.1C37,52.1,35.2,50.2,35.2,48   L35.2,48z M33.8,37.4c0.1-0.6,0.6-1,1.2-1c0.7,0,1.2,0.6,1.2,1.2s-0.6,1.2-1.2,1.2h-5.5c-1.2,0-1.2,1.9,0,1.9H35   c1.7,0,3.1-1.4,3.1-3.1c0-1.7-1.4-3.1-3.1-3.1c-1.5,0-2.8,1.1-3.1,2.6C31.7,38.3,33.6,38.6,33.8,37.4z" id="XMLID_32_"/>
	<path class="SnowWiththewind_st1" d="M21.3,27.6c-2.2-4.1-6.6-6.7-11.3-6.7c-6.5,0-11.8,4.6-12.6,10.7c-3.3,0.7-5.7,3.7-5.7,7.2   c0,4,3.3,7.3,7.3,7.3c1.7,0,3.3-0.6,4.6-1.6c2.1,1.3,4.2,2,6.5,2c2.2,0,3.6-0.3,5.3-1.3c1.4,0.8,3.1,1.3,4.8,1.3   c5.2,0,9.5-4.3,9.5-9.5C29.6,32.2,26,28.2,21.3,27.6z M20.1,44c-1.4,0-2.8-0.4-4-1.3c-0.4-0.3-0.8-0.3-1.2-0.1   c-0.1,0-0.2,0.1-0.3,0.1C13.1,43.7,12,44,10,44c-2.1,0-3.9-0.6-5.8-2c-0.2-0.2-0.5-0.2-0.8-0.2c-0.4,0-0.7,0.1-1,0.4   c-0.9,1-2.1,1.5-3.5,1.5c-2.6,0-4.8-2.1-4.8-4.8c0-2.6,2.1-4.8,4.8-4.8c0.9,0,1.8,0.3,2.6,0.8C2.2,35.2,3,35,3.4,34.4   C3.7,33.8,3.6,33,3,32.6c-0.9-0.6-1.9-1-3-1.1c0.9-4.7,5-8.1,10-8.1c3.3,0,6.4,1.6,8.3,4.3c-2.3,0.5-4.4,1.8-5.9,3.7   c-0.4,0.6-0.3,1.4,0.3,1.8c0.6,0.4,1.4,0.3,1.8-0.3c1.3-1.8,3.4-2.8,5.6-2.8c3.8,0,6.9,3.1,6.9,6.9C27.1,40.9,23.9,44,20.1,44z" id="XMLID_29_"/>
	<path class="SnowWiththewind_st1" d="M-1.6,48.8c0-0.2,0.2-0.4,0.4-0.4c0.2,0,0.4,0.2,0.4,0.4v0.5c0,0.2,0.5,0.4,0.7,0.3l0.4-0.4   c0.2-0.2,0.4-0.2,0.6,0c0.2,0.2,0.2,0.4,0,0.6l-0.4,0.4c-0.2,0.2,0,0.7,0.3,0.7h0.5c0.2,0,0.4,0.2,0.4,0.4c0,0.2-0.2,0.4-0.4,0.4   H0.7c-0.2,0-0.4,0.5-0.3,0.7l0.4,0.4c0.2,0.2,0.2,0.4,0,0.6c-0.2,0.2-0.4,0.2-0.6,0l-0.4-0.4c-0.2-0.2-0.7,0-0.7,0.3v0.5   c0,0.2-0.2,0.4-0.4,0.4c-0.2,0-0.4-0.2-0.4-0.4v-0.5c0-0.2-0.5-0.4-0.7-0.3l-0.4,0.4c-0.2,0.2-0.4,0.2-0.6,0   c-0.2-0.2-0.2-0.4,0-0.6l0.4-0.4c0.2-0.2,0-0.7-0.3-0.7h-0.5c-0.2,0-0.4-0.2-0.4-0.4c0-0.2,0.2-0.4,0.4-0.4h0.5   c0.2,0,0.4-0.5,0.3-0.7l-0.4-0.4c-0.2-0.2-0.2-0.4,0-0.6c0.2-0.2,0.4-0.2,0.6,0l0.4,0.4c0.2,0.2,0.7,0,0.7-0.3V48.8L-1.6,48.8z    M25.6,48.8c0-0.2,0.2-0.4,0.4-0.4c0.2,0,0.4,0.2,0.4,0.4v0.5c0,0.2,0.5,0.4,0.7,0.3l0.4-0.4c0.2-0.2,0.4-0.2,0.6,0   c0.2,0.2,0.2,0.4,0,0.6l-0.4,0.4c-0.2,0.2,0,0.7,0.3,0.7h0.5c0.2,0,0.4,0.2,0.4,0.4c0,0.2-0.2,0.4-0.4,0.4h-0.5   c-0.2,0-0.4,0.5-0.3,0.7l0.4,0.4c0.2,0.2,0.2,0.4,0,0.6c-0.2,0.2-0.4,0.2-0.6,0l-0.4-0.4c-0.2-0.2-0.7,0-0.7,0.3v0.5   c0,0.2-0.2,0.4-0.4,0.4c-0.2,0-0.4-0.2-0.4-0.4v-0.5c0-0.2-0.5-0.4-0.7-0.3l-0.4,0.4c-0.2,0.2-0.4,0.2-0.6,0   c-0.2-0.2-0.2-0.4,0-0.6l0.4-0.4c0.2-0.2,0-0.7-0.3-0.7h-0.5c-0.2,0-0.4-0.2-0.4-0.4c0-0.2,0.2-0.4,0.4-0.4h0.5   c0.2,0,0.4-0.5,0.3-0.7L24,49.8c-0.2-0.2-0.2-0.4,0-0.6c0.2-0.2,0.4-0.2,0.6,0l0.4,0.4c0.2,0.2,0.7,0,0.7-0.3V48.8L25.6,48.8z    M11.6,48.8c0-0.2,0.2-0.4,0.4-0.4c0.2,0,0.4,0.2,0.4,0.4v0.5c0,0.2,0.5,0.4,0.7,0.3l0.4-0.4c0.2-0.2,0.4-0.2,0.6,0   c0.2,0.2,0.2,0.4,0,0.6l-0.4,0.4c-0.2,0.2,0,0.7,0.3,0.7h0.5c0.2,0,0.4,0.2,0.4,0.4c0,0.2-0.2,0.4-0.4,0.4h-0.5   c-0.2,0-0.4,0.5-0.3,0.7l0.4,0.4c0.2,0.2,0.2,0.4,0,0.6c-0.2,0.2-0.4,0.2-0.6,0l-0.4-0.4c-0.2-0.2-0.7,0-0.7,0.3v0.5   c0,0.2-0.2,0.4-0.4,0.4c-0.2,0-0.4-0.2-0.4-0.4v-0.5c0-0.2-0.5-0.4-0.7-0.3l-0.4,0.4c-0.2,0.2-0.4,0.2-0.6,0   c-0.2-0.2-0.2-0.4,0-0.6l0.4-0.4c0.2-0.2,0-0.7-0.3-0.7H9.5c-0.2,0-0.4-0.2-0.4-0.4c0-0.2,0.2-0.4,0.4-0.4h0.5   c0.2,0,0.4-0.5,0.3-0.7L10,49.8c-0.2-0.2-0.2-0.4,0-0.6c0.2-0.2,0.4-0.2,0.6,0l0.4,0.4c0.2,0.2,0.7,0,0.7-0.3V48.8L11.6,48.8z    M18.6,54.1c0-0.3,0.2-0.5,0.5-0.5c0.3,0,0.5,0.2,0.5,0.5v0.7c0,0.3,0.7,0.6,0.9,0.4l0.5-0.5c0.2-0.2,0.6-0.2,0.8,0   c0.2,0.2,0.2,0.6,0,0.8l-0.5,0.5c-0.2,0.2,0.1,0.9,0.4,0.9h0.7c0.3,0,0.5,0.2,0.5,0.5c0,0.3-0.2,0.5-0.5,0.5h-0.7   c-0.3,0-0.6,0.7-0.4,0.9l0.5,0.5c0.2,0.2,0.2,0.6,0,0.8c-0.2,0.2-0.6,0.2-0.8,0l-0.5-0.5c-0.2-0.2-0.9,0.1-0.9,0.4v0.7   c0,0.3-0.2,0.5-0.5,0.5c-0.3,0-0.5-0.2-0.5-0.5v-0.7c0-0.3-0.7-0.6-0.9-0.4L17.3,60c-0.2,0.2-0.6,0.2-0.8,0c-0.2-0.2-0.2-0.6,0-0.8   l0.5-0.5c0.2-0.2-0.1-0.9-0.4-0.9h-0.7c-0.3,0-0.5-0.2-0.5-0.5c0-0.3,0.2-0.5,0.5-0.5h0.7c0.3,0,0.6-0.7,0.4-0.9l-0.5-0.5   c-0.2-0.2-0.2-0.6,0-0.8c0.2-0.2,0.6-0.2,0.8,0l0.5,0.5c0.2,0.2,0.9-0.1,0.9-0.4V54.1L18.6,54.1z M4.6,54.1v0.7   c0,0.3-0.7,0.6-0.9,0.4l-0.5-0.5c-0.2-0.2-0.6-0.2-0.8,0c-0.2,0.2-0.2,0.6,0,0.8l0.5,0.5c0.2,0.2-0.1,0.9-0.4,0.9H1.9   c-0.3,0-0.5,0.2-0.5,0.5c0,0.3,0.2,0.5,0.5,0.5h0.7c0.3,0,0.6,0.7,0.4,0.9l-0.5,0.5c-0.2,0.2-0.2,0.6,0,0.8c0.2,0.2,0.6,0.2,0.8,0   l0.5-0.5c0.2-0.2,0.9,0.1,0.9,0.4v0.7c0,0.3,0.2,0.5,0.5,0.5c0.3,0,0.5-0.2,0.5-0.5v-0.7c0-0.3,0.7-0.6,0.9-0.4L7,60   c0.2,0.2,0.6,0.2,0.8,0c0.2-0.2,0.2-0.6,0-0.8l-0.5-0.5c-0.2-0.2,0.1-0.9,0.4-0.9h0.7c0.3,0,0.5-0.2,0.5-0.5c0-0.3-0.2-0.5-0.5-0.5   H7.7c-0.3,0-0.6-0.7-0.4-0.9l0.5-0.5c0.2-0.2,0.2-0.6,0-0.8c-0.2-0.2-0.6-0.2-0.8,0l-0.5,0.5c-0.2,0.2-0.9-0.1-0.9-0.4v-0.7   c0-0.3-0.2-0.5-0.5-0.5C4.8,53.6,4.6,53.8,4.6,54.1L4.6,54.1z" id="XMLID_23_"/>
</g>
</svg>