<?xml version="1.0" ?><!-- Generator: Adobe Illustrator 19.0.0, SVG Export Plug-In . SVG Version: 6.00 Build 0)  --><svg id="图层_1" style="enable-background:new -9 11 60 60;" version="1.1" viewBox="-9 11 60 60" x="0px" xml:space="preserve" xmlns="http://www.w3.org/2000/svg" xmlns:xlink="http://www.w3.org/1999/xlink" y="0px" zn="沙尘暴">
<style type="text/css">
	.storm_st0{fill:#00BEFF;}
	.storm_st1{fill:#FFFFFF;}
</style>
<g>
	<g id="XMLID_31_">
		<path class="storm_st0" d="M39.1,39.1c1.4-1,2.3-2.2,2.2-3.4c0-0.8-0.5-1.6-1.2-2.4c0.4-0.5,0.6-1.1,0.7-1.6    c0.3-3.9-8.5-7.7-19.5-8.5C10.2,22.4,1,25,0.7,28.9c-0.1,1.5,1.1,3,3.3,4.3c-1.8,1.1-2.9,2.4-2.8,3.8c0,2.1,2.7,4,7,5.1    c-0.5,0.6-0.7,1.3-0.7,1.9c0.1,0.5,0.3,1,0.7,1.4c-0.2,0.3-0.4,0.6-0.4,0.9c-0.2,1.6,1.9,3.3,5.3,4.7c-0.5,0.3-0.8,0.7-0.8,1.2    c-0.1,1,1.1,1.9,3,2.6c-0.2,0.2-0.3,0.4-0.3,0.6c0,1,2,2,4.8,2.4c-0.2,0.1-0.3,0.3-0.3,0.4c0,0.4,1.1,0.7,2.3,0.6    c1.3-0.1,2.2-0.6,2.2-1c0,0,0,0,0,0c1.7-0.3,2.9-0.9,3-1.7c0-0.2-0.1-0.4-0.3-0.7c1.9-0.5,3.1-1.2,3.2-2.1c0-0.2,0-0.4-0.1-0.6    c2.1-0.5,3.4-1.4,3.5-2.5c0.1-1-0.7-2.1-2.3-3.2c5.6-1.4,9.4-3.9,9.2-6.2C40.2,40.2,39.8,39.6,39.1,39.1z M21,24    c8.7,0.6,15.6,3.2,15.5,5.9c-0.2,2.6-7.4,4.3-16.1,3.6c-8.7-0.6-15.6-3.2-15.5-5.9C5.1,25,12.3,23.4,21,24z M5.3,35.3    c0-0.4,0.2-0.8,0.5-1.2c3.6,1.6,8.7,2.9,14.5,3.3c6.4,0.4,12.1-0.2,15.9-1.6c-2,2-8,3.5-15,3.8C12.4,39.8,5.3,37.9,5.3,35.3z     M21.8,58.5c-1,0.1-1.8-0.1-1.8-0.4c0-0.1,0-0.1,0.1-0.2c0.3,0,0.6,0.1,0.8,0.1c0.9,0.1,1.8,0,2.6-0.1    C23.2,58.2,22.6,58.4,21.8,58.5z M20.9,56.8c-2.5-0.1-4.6-0.9-4.7-1.6c1.3,0.4,2.9,0.6,4.6,0.8c1.8,0.1,3.5,0,4.9-0.2    C25.5,56.5,23.4,57,20.9,56.8z M20.9,54.2C17,54,14,52.9,14.1,51.7c0-0.1,0-0.1,0.1-0.2c1.7,0.6,3.7,1.1,5.8,1.4    c2.9,0.4,5.6,0.5,7.8,0.3C26.8,54,24.1,54.4,20.9,54.2z M30.7,48.9c-0.2,1.7-4.9,2.4-10.5,1.5c-4.1-0.6-7.5-1.9-8.9-3.1    c3.1,1.1,7.9,1.5,13.2,1c1.9-0.2,3.7-0.5,5.4-0.8C30.5,47.9,30.7,48.4,30.7,48.9z M24,45.1c-6.9,0.7-12.6-0.4-13.3-2.4    c3.1,0.6,6.8,0.9,10.7,0.7c6-0.2,11.4-1.3,15-2.9C35.8,42.5,30.6,44.5,24,45.1z" id="XMLID_32_"/>
	</g>
	<circle class="storm_st1" cx="-6.2" cy="26.9" id="XMLID_30_" r="2.2"/>
	<circle class="storm_st1" cx="-4" cy="37.4" id="XMLID_29_" r="2.2"/>
	<circle class="storm_st1" cx="0.7" cy="45.3" id="XMLID_28_" r="2.2"/>
	<circle class="storm_st1" cx="5.3" cy="51.5" id="XMLID_27_" r="2.2"/>
	<circle class="storm_st1" cx="36.5" cy="52.9" id="XMLID_26_" r="2.2"/>
	<circle class="storm_st1" cx="41.4" cy="46.7" id="XMLID_25_" r="2.2"/>
	<circle class="storm_st1" cx="46" cy="38.3" id="XMLID_24_" r="2.2"/>
	<circle class="storm_st1" cx="48.2" cy="28.7" id="XMLID_23_" r="2.2"/>
</g>
</svg>