<?xml version="1.0" encoding="utf-8"?>
<!-- Generator: Adobe Illustrator 19.0.0, SVG Export Plug-In . SVG Version: 6.00 Build 0)  -->
<svg version="1.1" id="图层_1" xmlns="http://www.w3.org/2000/svg" xmlns:xlink="http://www.w3.org/1999/xlink" x="0px" y="0px"
	 viewBox="0 0 25 35" style="enable-background:new 0 0 25 35;" xml:space="preserve">
<style type="text/css">
	.sunrise0{fill:#06F99B;}
</style>
<g id="XMLID_5474_">
	<path id="XMLID_6614_" class="sunrise0" d="M15,11.3C15,11.3,15,11.3,15,11.3c0.2-0.1,0.3-0.2,0.5-0.3c0.1-0.1,0.2-0.1,0.3-0.2l-1-1.9
		c-0.1-0.2-0.4-0.3-0.6-0.2C14,8.9,13.9,9.2,14,9.4L15,11.3z"/>
	<path id="XMLID_6613_" class="sunrise0" d="M17.4,10.5l-0.1-0.9c0-0.2-0.2-0.3-0.3-0.3c-0.2,0-0.3,0.2-0.3,0.3l0.1,0.9
		C17,10.5,17.2,10.5,17.4,10.5z"/>
	<path id="XMLID_6612_" class="sunrise0" d="M13.8,12.5c0.1-0.2,0.2-0.3,0.4-0.5l-0.7-0.5c-0.1-0.1-0.3-0.1-0.4,0c-0.1,0.1-0.1,0.3,0,0.4
		L13.8,12.5z"/>
	<path id="XMLID_6611_" class="sunrise0" d="M23.2,14.8c0,0,0.1,0,0.1,0c0.1-0.1,0.2-0.2,0.2-0.3c0-0.2-0.2-0.3-0.3-0.3l-0.9,0.1
		c0,0.2,0.1,0.4,0.1,0.6L23.2,14.8z"/>
	<path id="XMLID_6610_" class="sunrise0" d="M21.5,12.5c0.1,0.1,0.2,0.3,0.3,0.5c0.1,0.1,0.1,0.2,0.2,0.3l1.9-1c0.2-0.1,0.3-0.4,0.2-0.6
		c-0.1-0.2-0.4-0.3-0.6-0.2L21.5,12.5C21.5,12.5,21.5,12.5,21.5,12.5z"/>
	<path id="XMLID_6609_" class="sunrise0" d="M20.8,11.6l0.5-0.7c0.1-0.1,0.1-0.3,0-0.4c-0.1-0.1-0.3-0.1-0.4,0l-0.6,0.7
		C20.5,11.4,20.6,11.5,20.8,11.6z"/>
	<path id="XMLID_6608_" class="sunrise0" d="M20,8.7c0.1-0.2-0.1-0.5-0.3-0.6c-0.2-0.1-0.5,0.1-0.6,0.3l-0.6,2c0,0,0,0,0,0
		c0.3,0.1,0.6,0.1,0.9,0.2L20,8.7z"/>
	<path id="XMLID_6607_" class="sunrise0" d="M21.6,17.8c-0.1,0.2-0.2,0.3-0.4,0.5l0.7,0.5c0.1,0.1,0.2,0.1,0.3,0c0,0,0.1,0,0.1-0.1
		c0.1-0.1,0.1-0.3,0-0.4L21.6,17.8z"/>
	<path id="XMLID_5475_" class="sunrise0" d="M20.9,13.4c-1-1.8-3.2-2.5-5-1.5c-0.6,0.3-1.1,0.8-1.4,1.4l0.6,0.7c0.4-0.9,1.2-1.6,2.3-1.7
		c1.5-0.2,2.9,1,3.1,2.5c0.2,1.4-0.8,2.7-2.2,3c0,0,0,0,0,0l0.6,0.7c0.2-0.1,0.3-0.1,0.5-0.2C21.2,17.4,21.9,15.2,20.9,13.4z"/>
	<path id="XMLID_6605_" class="sunrise0" d="M20.4,19C20.4,19,20.4,19,20.4,19c-0.2,0.1-0.3,0.2-0.5,0.3c-0.1,0.1-0.2,0.1-0.3,0.2l1,1.9
		c0.1,0.2,0.4,0.3,0.6,0.2c0.2-0.1,0.3-0.4,0.2-0.6L20.4,19z"/>
	<path id="XMLID_6604_" class="sunrise0" d="M24.3,16.6l-2-0.6c0,0,0,0,0,0c-0.1,0.3-0.1,0.6-0.2,0.9l2,0.6c0.1,0,0.2,0,0.3,0
		c0.1-0.1,0.2-0.1,0.2-0.3C24.7,16.9,24.6,16.7,24.3,16.6z"/>
	<path id="XMLID_5476_" class="sunrise0" d="M16.5,17.1l-1,1.6l-4.4-8l-2.7,5l-1-1.8l-7,13l22.5-0.1L16.5,17.1z M11.1,12.8l3.8,6.8
		l-2.3,3.6l-3.6-6.5L11.1,12.8z M2.1,25.8L7.4,16l0.4,0.7l-4.9,9.1L2.1,25.8z M10.9,25.8H4l4.3-8l3.2,5.8l0.4,0.6L10.9,25.8z
		 M16.5,19l4.4,6.8l-8.8,0L16.5,19z"/>
</g>
</svg>
