<?xml version="1.0" encoding="utf-8"?>
<!-- Generator: Adobe Illustrator 19.0.0, SVG Export Plug-In . SVG Version: 6.00 Build 0)  -->
<svg version="1.1" id="图层_1" xmlns="http://www.w3.org/2000/svg" xmlns:xlink="http://www.w3.org/1999/xlink" x="0px" y="0px"
	 viewBox="0 0 25 35" style="enable-background:new 0 0 25 35;" xml:space="preserve">
<style type="text/css">
	.sunset0{fill:#06F99B;}
</style>
<g id="XMLID_5539_">
	<g id="XMLID_5540_">
		<path id="XMLID_6478_" class="sunset0" d="M4.5,19.9C4.5,19.9,4.5,19.9,4.5,19.9c-0.1-0.1-0.3-0.2-0.4-0.3c-0.1-0.1-0.2-0.2-0.2-0.2
			l-1.3,1.4c-0.2,0.2-0.2,0.4,0,0.6c0.2,0.2,0.4,0.2,0.6,0L4.5,19.9z"/>
		<path id="XMLID_6477_" class="sunset0" d="M3.1,18.1l-0.7,0.3c-0.1,0.1-0.2,0.2-0.1,0.4c0.1,0.1,0.2,0.2,0.4,0.1l0.7-0.3
			C3.2,18.4,3.1,18.3,3.1,18.1z"/>
		<path id="XMLID_6476_" class="sunset0" d="M5.9,20.6c-0.2-0.1-0.4-0.1-0.5-0.2l-0.3,0.7c-0.1,0.1,0,0.3,0.2,0.4c0.1,0.1,0.3,0,0.4-0.2
			L5.9,20.6z"/>
		<path id="XMLID_6475_" class="sunset0" d="M5.1,11.8C5.1,11.8,5.1,11.7,5.1,11.8c-0.1-0.2-0.3-0.2-0.4-0.1c-0.1,0.1-0.2,0.2-0.1,0.4
			L5,12.8c0.2-0.1,0.3-0.2,0.5-0.2L5.1,11.8z"/>
		<path id="XMLID_6474_" class="sunset0" d="M3.6,13.9c0.1-0.1,0.2-0.3,0.3-0.4c0.1-0.1,0.2-0.2,0.2-0.2L2.8,12c-0.2-0.2-0.4-0.2-0.6,0
			c-0.2,0.2-0.2,0.4,0,0.6L3.6,13.9C3.6,13.9,3.6,13.9,3.6,13.9z"/>
		<path id="XMLID_6473_" class="sunset0" d="M3.1,14.8l-0.7-0.3c-0.1-0.1-0.3,0-0.4,0.2C2,14.8,2,15,2.2,15.1l0.8,0.3
			C3,15.2,3,15,3.1,14.8z"/>
		<path id="XMLID_6472_" class="sunset0" d="M0.8,16.3c-0.2,0-0.4,0.2-0.4,0.4c0,0.2,0.2,0.4,0.4,0.4l1.9,0c0,0,0,0,0,0
			c0-0.3-0.1-0.5,0-0.8L0.8,16.3z"/>
		<path id="XMLID_6471_" class="sunset0" d="M8.2,12.4c0.2,0.1,0.4,0.1,0.5,0.2L9,11.8c0-0.1,0-0.2-0.1-0.3c0,0-0.1,0-0.1-0.1
			c-0.1-0.1-0.3,0-0.4,0.2L8.2,12.4z"/>
		<path id="XMLID_6470_" class="sunset0" d="M4.6,14.2c-1.3,1.3-1.2,3.5,0.1,4.8c0.5,0.4,1,0.7,1.6,0.9l0.5-0.7
			c-0.9-0.1-1.7-0.6-2.1-1.5c-0.6-1.3,0-2.8,1.3-3.4c1.2-0.5,2.6-0.1,3.3,1c0,0,0,0,0,0l0.4-0.7c-0.1-0.1-0.2-0.3-0.3-0.4
			C8,12.8,5.9,12.8,4.6,14.2z"/>
		<path id="XMLID_6469_" class="sunset0" d="M9.6,13.1C9.6,13.1,9.6,13.1,9.6,13.1c0.1,0.1,0.3,0.2,0.4,0.3c0.1,0.1,0.2,0.2,0.2,0.2
			l1.3-1.4c0.2-0.2,0.2-0.4,0-0.6c-0.2-0.2-0.4-0.2-0.6,0L9.6,13.1z"/>
		<path id="XMLID_6468_" class="sunset0" d="M6.4,10.3l0,1.9c0,0,0,0,0,0c0.3,0,0.5-0.1,0.8,0l0-1.9c0-0.1-0.1-0.2-0.1-0.3
			C7,9.9,6.9,9.9,6.8,9.9C6.6,9.9,6.4,10.1,6.4,10.3z"/>
	</g>
	<path id="XMLID_5541_" class="sunset0" d="M18.8,16.8l-0.9,1.4l-4-7.3l-2.5,4.5l-0.9-1.7L4.1,25.7l20.5-0.1L18.8,16.8z M13.9,12.9
		l3.4,6.2l-2.1,3.3l-3.3-5.9L13.9,12.9z M5.7,24.8l4.8-8.9l0.4,0.7l-4.5,8.3L5.7,24.8z M13.7,24.8H7.5l3.9-7.3l2.9,5.3l0.3,0.6
		L13.7,24.8z M18.8,18.5l4,6.2l-8.1,0L18.8,18.5z"/>
</g>
</svg>
