<?xml version="1.0" ?><!-- Generator: Adobe Illustrator 19.0.0, SVG Export Plug-In . SVG Version: 6.00 Build 0)  --><svg id="图层_1" style="enable-background:new -9 11 60 60;" version="1.1" viewBox="-9 11 60 60" x="0px" xml:space="preserve" xmlns="http://www.w3.org/2000/svg" xmlns:xlink="http://www.w3.org/1999/xlink" y="0px" zn="龙卷风">
<style type="text/css">
	.tornado_st0{fill:#00BEFF;}
</style>
<path class="tornado_st0" d="M46.8,38.3c2.1-1.5,3.2-3.1,3.2-4.8c0-1.2-0.7-2.4-1.8-3.4c0.6-0.7,0.9-1.5,1-2.3  c0.4-5.6-12.1-11-27.9-12.1C5.5,14.5-7.6,18.1-8,23.7c-0.1,2.2,1.6,4.3,4.7,6.1c-2.6,1.6-4.1,3.5-4.1,5.4c0.1,3,3.9,5.6,9.9,7.3  c-0.7,0.9-1.1,1.8-1,2.8c0.1,0.7,0.4,1.4,1,2c-0.3,0.4-0.6,0.9-0.6,1.3c-0.3,2.3,2.7,4.8,7.6,6.7c-0.7,0.5-1.1,1.1-1.2,1.7  c-0.1,1.4,1.6,2.7,4.3,3.7c-0.3,0.3-0.4,0.6-0.4,0.9c-0.1,1.5,2.9,2.9,6.9,3.4c-0.3,0.2-0.4,0.4-0.4,0.6c0,0.6,1.5,1,3.3,0.8  c1.8-0.2,3.2-0.8,3.2-1.5c0,0,0,0,0,0c2.5-0.4,4.2-1.3,4.2-2.4c0-0.3-0.1-0.6-0.4-0.9c2.7-0.6,4.4-1.7,4.6-3.1c0-0.3,0-0.6-0.2-0.9  c2.9-0.7,4.8-1.9,5-3.6c0.2-1.5-1-3.1-3.2-4.5c8.1-2.1,13.5-5.5,13.1-8.9C48.4,39.9,47.8,39,46.8,38.3z M21,16.7  c12.4,0.9,22.3,4.6,22.1,8.4c-0.3,3.7-10.6,6.1-23,5.2C7.6,29.4-2.3,25.7-2,21.9C-1.7,18.2,8.6,15.9,21,16.7z M-1.5,32.9  c0-0.6,0.2-1.2,0.7-1.7c5.1,2.4,12.4,4.1,20.7,4.7c9.1,0.6,17.3-0.3,22.7-2.3c-2.9,2.8-11.3,5-21.4,5.4C8.7,39.3-1.4,36.6-1.5,32.9z   M22.1,65.9c-1.4,0.1-2.6-0.1-2.6-0.5c0-0.1,0-0.2,0.1-0.3c0.4,0,0.8,0.1,1.2,0.1c1.3,0.1,2.5,0,3.6-0.1  C24.1,65.5,23.2,65.8,22.1,65.9z M20.8,63.6c-3.6-0.2-6.5-1.2-6.7-2.3c1.9,0.5,4.1,0.9,6.5,1.1c2.5,0.2,4.9,0,7-0.3  C27.3,63.1,24.4,63.8,20.8,63.6z M20.8,59.9c-5.5-0.4-9.8-2-9.7-3.6c0-0.1,0-0.2,0.1-0.3c2.4,0.8,5.3,1.5,8.3,2  c4.1,0.6,7.9,0.7,11.1,0.4C29.3,59.5,25.3,60.2,20.8,59.9z M34.8,52.2c-0.3,2.4-7,3.4-15,2.2C14,53.5,9.2,51.7,7.1,49.9  c4.5,1.6,11.3,2.2,18.9,1.5c2.7-0.3,5.3-0.7,7.7-1.2C34.4,50.9,34.8,51.6,34.8,52.2z M25.3,46.9c-9.8,0.9-18-0.6-19-3.4  c4.4,0.8,9.7,1.2,15.2,1.1c8.6-0.3,16.3-1.9,21.5-4.1C42.1,43.2,34.6,46,25.3,46.9z" id="XMLID_22_"/>
</svg>