<?xml version="1.0" ?><!-- Generator: Adobe Illustrator 19.0.0, SVG Export Plug-In . SVG Version: 6.00 Build 0)  --><svg id="图层_1" style="enable-background:new -9 11 60 60;" version="1.1" viewBox="-9 11 60 60" x="0px" xml:space="preserve" xmlns="http://www.w3.org/2000/svg" xmlns:xlink="http://www.w3.org/1999/xlink" y="0px" zn="有风">
<style type="text/css">
	.windiness_st0{fill:#00BEFF;}
</style>
<g id="XMLID_23_">
	<path class="windiness_st0" d="M26.3,23.8c-1.7,2.8-6,0.2-4.3-2.6c2.8-4.6,7.8-7.4,13.1-7.4c8.4,0,15.3,6.9,15.3,15.3   c0,8.4-6.9,15.3-15.3,15.3h-41c-3.3,0-3.3-5.1,0-5.1h41c5.6,0,10.2-4.6,10.2-10.2c0-5.6-4.6-10.2-10.2-10.2   C31.5,18.9,28.2,20.8,26.3,23.8L26.3,23.8z M9.5,57.2c0-3.3,5.1-3.3,5.1,0c0,3.3,2.7,5.9,5.9,5.9c3.3,0,5.9-2.7,5.9-5.9   c0-3.3-2.7-5.9-5.9-5.9H-5.8c-3.3,0-3.3-5.1,0-5.1h26.4c6,0,11,4.9,11,11c0,6-4.9,11-11,11C14.5,68.1,9.5,63.2,9.5,57.2L9.5,57.2z    M5.8,28.6c0.3-1.6,1.7-2.7,3.3-2.7c1.8,0,3.3,1.5,3.3,3.3c0,1.8-1.5,3.3-3.3,3.3H-5.8c-3.3,0-3.3,5.1,0,5.1H9.1   c4.6,0,8.4-3.8,8.4-8.4c0-4.6-3.8-8.4-8.4-8.4c-4,0-7.6,3-8.3,6.9C0.2,31,5.2,31.9,5.8,28.6z" id="XMLID_24_"/>
</g>
</svg>