<?xml version="1.0" encoding="utf-8"?>
<!-- Generator: Adobe Illustrator 19.0.0, SVG Export Plug-In . SVG Version: 6.00 Build 0)  -->
<svg version="1.1" id="图层_1" xmlns="http://www.w3.org/2000/svg" xmlns:xlink="http://www.w3.org/1999/xlink" x="0px" y="0px"
	 viewBox="0 0 25 35" style="enable-background:new 0 0 25 35;" xml:space="preserve">
<style type="text/css">
	.windspeed0{fill:#FFE91D;}
</style>
<g id="XMLID_5345_">
	<path id="XMLID_5346_" class="windspeed0" d="M14.5,11.2c-0.6,1-2.2,0.1-1.6-1c1-1.7,2.9-2.7,4.8-2.7c3.1,0,5.7,2.6,5.7,5.7
		c0,3.1-2.5,5.7-5.7,5.7H2.5c-1.2,0-1.2-1.9,0-1.9h15.2c2.1,0,3.8-1.7,3.8-3.8c0-2.1-1.7-3.8-3.8-3.8C16.4,9.3,15.2,10,14.5,11.2
		L14.5,11.2z M8.3,23.5c0-1.2,1.9-1.2,1.9,0c0,1.2,1,2.2,2.2,2.2c1.2,0,2.2-1,2.2-2.2c0-1.2-1-2.2-2.2-2.2H2.6c-1.2,0-1.2-1.9,0-1.9
		h9.8c2.2,0,4.1,1.8,4.1,4.1c0,2.2-1.8,4.1-4.1,4.1C10.1,27.5,8.3,25.7,8.3,23.5L8.3,23.5z M6.9,12.9c0.1-0.6,0.6-1,1.2-1
		c0.7,0,1.2,0.6,1.2,1.2c0,0.7-0.6,1.2-1.2,1.2H2.6c-1.2,0-1.2,1.9,0,1.9h5.5c1.7,0,3.1-1.4,3.1-3.1c0-1.7-1.4-3.1-3.1-3.1
		c-1.5,0-2.8,1.1-3.1,2.6C4.8,13.8,6.7,14.1,6.9,12.9z"/>
</g>
</svg>
