<?xml version="1.0" encoding="utf-8"?>
<!-- Generator: Adobe Illustrator 19.0.0, SVG Export Plug-In . SVG Version: 6.00 Build 0)  -->
<svg version="1.1" id="图层_1" xmlns="http://www.w3.org/2000/svg" xmlns:xlink="http://www.w3.org/1999/xlink" x="0px" y="0px"
	 viewBox="0 0 116 17" style="enable-background:new 0 0 116 17;" xml:space="preserve">
<style type="text/css">
	.sty0{fill:#FFFFFF;}
	.sty1{fill:none;stroke:#00BEFF;stroke-width:0.2;stroke-miterlimit:10;}
	.sty2{opacity:0.2;}
	.sty3{fill:#B9377A;}
	.sty4{fill:#881326;}
	.sty5{fill:#A7CF8C;}
	.sty6{fill:#F7DA64;}
	.sty7{fill:#F29E39;}
	.sty8{fill:#DA555D;}
</style>
<g id="XMLID_12055_">
	<g id="XMLID_65_">
		<g id="XMLID_136_">
			<path id="XMLID_137_" class="sty0" d="M7.3,13.9c0-0.1-0.1-0.2-0.2-0.4c0.6-0.8,1.1-1.7,1.4-2.7L8.8,11c-0.2,0.5-0.4,0.9-0.6,1.4
				v4.1H7.9V13C7.8,13.3,7.6,13.6,7.3,13.9z M10.1,10.9h0.3c0,0.6,0,1.1,0,1.6h2.3v0.3h-1.6v2.8c0,0.2,0.1,0.4,0.4,0.3h0.4
				c0.3,0,0.4-0.1,0.5-0.5c0-0.2,0.1-0.5,0.1-0.8c0.1,0,0.2,0.1,0.3,0.1c0,0.4-0.1,0.7-0.1,0.9c-0.1,0.4-0.3,0.6-0.8,0.6h-0.5
				c-0.5,0-0.7-0.2-0.7-0.7v-2.8h-0.4c0,0,0,0.1,0,0.2c0,0.1,0,0.1,0,0.2c-0.1,1.3-0.6,2.4-1.6,3.4c-0.1-0.1-0.2-0.2-0.3-0.2
				c0.9-0.9,1.4-2,1.5-3.1c0-0.1,0-0.2,0-0.3H8.8v-0.3h1.3C10.1,12,10.1,11.4,10.1,10.9z M12,12c-0.3-0.2-0.6-0.5-0.9-0.7l0.2-0.2
				c0.3,0.2,0.6,0.4,0.9,0.7L12,12z"/>
		</g>
	</g>
	<g id="XMLID_60_">
		<g id="XMLID_141_">
			<path id="XMLID_142_" class="sty0" d="M28.6,10.9l0.3-0.1c0.2,0.3,0.3,0.5,0.3,0.7l-0.3,0.1h2V14h-2.4c0.3,0.5,0.5,0.8,0.8,1.1
				c0.7-0.3,1.3-0.6,1.8-0.9l0.2,0.3c-0.6,0.3-1.1,0.6-1.8,0.9c0.4,0.3,1.1,0.6,2.1,0.8c-0.1,0.1-0.1,0.2-0.2,0.3
				c-1.7-0.3-2.9-1.1-3.3-2.4h-1.2v2c0.7-0.2,1.2-0.4,1.6-0.6c0,0.1,0,0.2,0,0.3c-0.5,0.1-1,0.3-1.6,0.6c-0.1,0-0.2,0.1-0.3,0.2
				l-0.2-0.3c0.1-0.1,0.2-0.3,0.2-0.5v-4.1h2.1C28.8,11.2,28.6,11,28.6,10.9z M27.1,11.8v0.8h3.6v-0.8H27.1z M27.1,13.7h3.6v-0.8
				h-3.6V13.7z"/>
		</g>
	</g>
	<g id="XMLID_49_">
		<g id="XMLID_190_">
			<path id="XMLID_197_" class="sty0" d="M42,15.2l0-0.3c0.4,0,0.8-0.1,1.2-0.1v-1h-1.1v-0.3c0.2-0.4,0.3-0.9,0.5-1.5H42v-0.3h0.7
				c0.1-0.3,0.2-0.6,0.3-0.9l0.3,0.1c0,0.1,0,0.1-0.1,0.2c-0.1,0.2-0.1,0.4-0.2,0.6h1.2v0.3H43c-0.2,0.6-0.4,1.1-0.6,1.6h0.8v-1.1
				h0.3v1.1h0.6v0.3h-0.6v1c0.4,0,0.6-0.1,0.8-0.1c0,0.1,0,0.2,0,0.3c-0.1,0-0.2,0-0.4,0c-0.2,0-0.3,0-0.4,0v1.4h-0.3v-1.4
				C42.8,15.1,42.4,15.2,42,15.2z M44.5,14h2.8v0.3h-1.2v1.6h1.6v0.3h-3.5v-0.3h1.6v-1.6h-1.3V14z M47.5,13.7
				c-0.5-0.4-1-0.7-1.4-0.9c-0.4,0.3-0.9,0.7-1.6,1c0,0-0.1-0.1-0.1-0.2c0,0,0-0.1-0.1-0.1c1.1-0.4,1.9-1.1,2.5-2h-2.2v-0.3h2.5v0.3
				c-0.3,0.4-0.5,0.7-0.8,1c0.4,0.2,0.9,0.5,1.4,0.9L47.5,13.7z"/>
			<path id="XMLID_191_" class="sty0" d="M50.9,10.8l0.3-0.1c0.1,0.3,0.1,0.5,0.2,0.7h2.2v0.3h-4.7v1.7c0,0.8,0,1.4-0.1,1.8
				c-0.1,0.4-0.3,0.8-0.5,1.3c-0.1-0.1-0.2-0.2-0.3-0.2c0.3-0.4,0.4-0.8,0.5-1.2c0.1-0.3,0.1-0.9,0.1-1.7v-1.9H51
				c0-0.1-0.1-0.2-0.1-0.4C50.9,11,50.9,10.9,50.9,10.8z M53.4,16.4c-0.9-0.2-1.7-0.4-2.2-0.7C50.7,16,50,16.3,49,16.5
				c-0.1-0.1-0.1-0.2-0.2-0.3c0.8-0.1,1.5-0.3,2-0.6c-0.4-0.3-0.8-0.6-1.2-1.1h-0.4v-0.3h3.5v0.3c-0.4,0.5-0.8,0.8-1.3,1.1
				c0.5,0.2,1.2,0.4,2,0.5C53.5,16.2,53.5,16.3,53.4,16.4z M52.1,12h0.3v0.5h1.1v0.3h-1.1v0.9H50v-0.9h-0.9v-0.3H50V12h0.3v0.5h1.8
				V12z M52.5,14.5h-2.4c0.3,0.4,0.7,0.7,1.1,0.9C51.7,15.2,52.1,14.9,52.5,14.5z M50.3,12.7v0.6h1.8v-0.6H50.3z"/>
		</g>
	</g>
	<g id="XMLID_38_">
		<g id="XMLID_201_">
			<path id="XMLID_209_" class="sty0" d="M61.3,12.1h2.3v-1.3h0.3v1.3h2.3v2.5h-0.3v-0.3h-2v2.2h-0.3v-2.2h-2v0.3h-0.3V12.1z
				 M61.6,12.4V14h2v-1.6H61.6z M65.9,12.4h-2V14h2V12.4z"/>
			<path id="XMLID_202_" class="sty0" d="M69.8,10.8l0.3-0.1c0.1,0.3,0.1,0.5,0.2,0.7h2.2v0.3h-4.7v1.7c0,0.8,0,1.4-0.1,1.8
				c-0.1,0.4-0.3,0.8-0.5,1.3c-0.1-0.1-0.2-0.2-0.3-0.2c0.3-0.4,0.4-0.8,0.5-1.2c0.1-0.3,0.1-0.9,0.1-1.7v-1.9H70
				c0-0.1-0.1-0.2-0.1-0.4C69.8,11,69.8,10.9,69.8,10.8z M72.4,16.4c-0.9-0.2-1.7-0.4-2.2-0.7c-0.5,0.3-1.2,0.5-2.2,0.7
				c-0.1-0.1-0.1-0.2-0.2-0.3c0.8-0.1,1.5-0.3,2-0.6c-0.4-0.3-0.8-0.6-1.2-1.1h-0.4v-0.3h3.5v0.3c-0.4,0.5-0.8,0.8-1.3,1.1
				c0.5,0.2,1.2,0.4,2,0.5C72.5,16.2,72.4,16.3,72.4,16.4z M71,12h0.3v0.5h1.1v0.3h-1.1v0.9h-2.4v-0.9h-0.9v-0.3h0.9V12h0.3v0.5H71
				V12z M71.4,14.5H69c0.3,0.4,0.7,0.7,1.1,0.9C70.6,15.2,71,14.9,71.4,14.5z M69.3,12.7v0.6H71v-0.6H69.3z"/>
		</g>
	</g>
	<g id="XMLID_18_">
		<g id="XMLID_234_">
			<path id="XMLID_247_" class="sty0" d="M85,11.3c-0.5,0-1.2,0.1-2.2,0.1v0.6h2.7v0.3h-2.7v0.5h2v1.9h-2v0.5H85v0.3h-2.2v0.5h2.7
				v0.3h-5.6v-0.3h2.7v-0.5h-2.2v-0.3h2.2v-0.5h-2v-1.9h2v-0.5h-2.6v-0.3h2.6v-0.6c-0.8,0-1.5,0-2.2,0.1l0-0.3
				c1.9,0,3.5-0.1,4.7-0.2L85,11.3z M80.8,13v0.6h1.7V13H80.8z M80.8,13.8v0.6h1.7v-0.6H80.8z M84.5,13h-1.7v0.6h1.7V13z M82.8,13.8
				v0.6h1.7v-0.6H82.8z"/>
			<path id="XMLID_235_" class="sty0" d="M88.7,10.8l0.3-0.1c0.1,0.3,0.1,0.5,0.2,0.7h2.2v0.3h-4.7v1.7c0,0.8,0,1.4-0.1,1.8
				c-0.1,0.4-0.3,0.8-0.5,1.3c-0.1-0.1-0.2-0.2-0.3-0.2c0.3-0.4,0.4-0.8,0.5-1.2c0.1-0.3,0.1-0.9,0.1-1.7v-1.9h2.5
				c0-0.1-0.1-0.2-0.1-0.4C88.7,11,88.7,10.9,88.7,10.8z M91.3,16.4c-0.9-0.2-1.7-0.4-2.2-0.7c-0.5,0.3-1.2,0.5-2.2,0.7
				c-0.1-0.1-0.1-0.2-0.2-0.3c0.8-0.1,1.5-0.3,2-0.6c-0.4-0.3-0.8-0.6-1.2-1.1h-0.4v-0.3h3.5v0.3c-0.4,0.5-0.8,0.8-1.3,1.1
				c0.5,0.2,1.2,0.4,2,0.5C91.4,16.2,91.3,16.3,91.3,16.4z M90,12h0.3v0.5h1.1v0.3h-1.1v0.9h-2.4v-0.9H87v-0.3h0.9V12h0.3v0.5H90V12
				z M90.3,14.5h-2.4c0.3,0.4,0.7,0.7,1.1,0.9C89.5,15.2,89.9,14.9,90.3,14.5z M88.2,12.7v0.6H90v-0.6H88.2z"/>
		</g>
	</g>
	<g id="XMLID_1_">
		<g id="XMLID_221_">
			<path id="XMLID_241_" class="sty0" d="M99.6,14c0,0.1,0,0.1,0,0.2c0,0.9-0.2,1.7-0.7,2.3c-0.1-0.1-0.2-0.2-0.3-0.2
				c0.2-0.3,0.4-0.6,0.5-0.9c0.1-0.3,0.1-0.7,0.1-1.3v-0.7h1.5v-1.8h-1.9v-0.3h5.5v0.3h-1.9v1.8h1.9v0.3h-4.7V14z M99.4,11.9
				l0.3-0.2c0.3,0.3,0.5,0.6,0.7,0.9l-0.3,0.2C99.8,12.5,99.6,12.2,99.4,11.9z M101.1,11.5v1.8h1v-1.8H101.1z M103.1,12.9l-0.2-0.2
				c0.3-0.3,0.5-0.6,0.8-0.9l0.3,0.2C103.7,12.3,103.4,12.6,103.1,12.9z"/>
			<path id="XMLID_222_" class="sty0" d="M109.9,11.3c-0.5,0-1.2,0.1-2.2,0.1v0.6h2.7v0.3h-2.7v0.5h2v1.9h-2v0.5h2.2v0.3h-2.2v0.5
				h2.7v0.3h-5.6v-0.3h2.7v-0.5h-2.2v-0.3h2.2v-0.5h-2v-1.9h2v-0.5h-2.6v-0.3h2.6v-0.6c-0.8,0-1.5,0-2.2,0.1l0-0.3
				c1.9,0,3.5-0.1,4.7-0.2L109.9,11.3z M105.7,13v0.6h1.7V13H105.7z M105.7,13.8v0.6h1.7v-0.6H105.7z M109.4,13h-1.7v0.6h1.7V13z
				 M107.7,13.8v0.6h1.7v-0.6H107.7z"/>
		</g>
	</g>
	<rect id="XMLID_5957_" x="0.5" y="0.5" class="sty1" width="115" height="7.2"/>
	<g id="XMLID_12074_" class="sty2">
		<rect id="XMLID_5956_" x="77.1" y="2" class="st3" width="17" height="4.3"/>
		<rect id="XMLID_5906_" x="95.9" y="2" class="st4" width="17" height="4.3"/>
		<rect id="XMLID_5904_" x="2.2" y="2" class="st5" width="17" height="4.3"/>
		<rect id="XMLID_5903_" x="21" y="2" class="st6" width="17" height="4.3"/>
		<rect id="XMLID_5902_" x="39.7" y="2" class="st7" width="17" height="4.3"/>
		<rect id="XMLID_5900_" x="58.4" y="2" class="st8" width="17" height="4.3"/>
	</g>
	<rect id="XMLID_2079_" x="77.1" y="2" class="sty3" width="17" height="4.3"/>
	<rect id="XMLID_1983_" x="95.9" y="2" class="sty4" width="17" height="4.3"/>
	<rect id="XMLID_1593_" x="2.2" y="2" class="sty5" width="17" height="4.3"/>
	<rect id="XMLID_1592_" x="21" y="2" class="sty6" width="17" height="4.3"/>
	<rect id="XMLID_514_" x="39.7" y="2" class="sty7" width="17" height="4.3"/>
	<rect id="XMLID_513_" x="58.4" y="2" class="sty8" width="17" height="4.3"/>
</g>
</svg>
