<?xml version="1.0" encoding="utf-8"?>
<!-- Generator: Adobe Illustrator 19.0.0, SVG Export Plug-In . SVG Version: 6.00 Build 0)  -->
<svg version="1.1" id="图层_1" xmlns="http://www.w3.org/2000/svg" xmlns:xlink="http://www.w3.org/1999/xlink" x="0px" y="0px"
	 viewBox="0 0 905 215" style="enable-background:new 0 0 905 215;" xml:space="preserve">
<style type="text/css">
	.st0{fill:#1A5CAA;fill-opacity:0.5;stroke:#1A5CAA;stroke-miterlimit:10;}
</style>
<g id="XMLID_218_">
	<polygon id="XMLID_219_" class="st0" points="902.9,30.3 902.9,23 881.2,23 878.7,24.7 854.6,24.7 853.6,25.5 827.1,25.5 826.3,26 
		442.8,26 441.3,27.1 824.9,27.1 824.1,27.6 850.6,27.6 849.6,28.3 873.7,28.3 871.1,30.2 871.1,30.3 414.5,30.3 412.5,31.8 
		902.9,31.8 	"/>
	<path id="XMLID_246_" class="st0" d="M902.4,169.3l0.5-136H374.7v-1.7h-20.1L327.8,1.3h-24.2v2H42V2.2H18L1,14.9v25.6h0.6v168.7
		v3.8h38l-0.3,0.2h12.8l0.3-0.2h8.1l-0.3,0.2H73l0.3-0.2h8.1l-0.3,0.2h12.8l0.3-0.2h8.1l-0.3,0.2h12.8l0.3-0.2h735v0.6h27.5L904,191
		v-21.7L902.4,169.3z M117.9,206.7l4.9-3.6H110l-4.9,3.6H97l4.9-3.6H89.1l-4.9,3.6h-8.1l4.9-3.6H68.3l-4.9,3.6h-8.1l4.9-3.6H47.4
		l-4.9,3.6H6.6V40.5h0.8l0.1-26.7L19,5.2h23V4.3h261.6v1.1H326l26.8,30.3h21.9v-0.9l527,0.6v134h-0.9v18.3L880,206.1h-29.9v0.7
		H117.9z"/>
	<polygon id="XMLID_247_" class="st0" points="303.5,7.6 300.7,6.1 44.7,6.1 42,7.6 21.5,7.6 10.7,15.8 10.7,35.6 349.7,35.6 
		324.2,7.6 	"/>
</g>
</svg>
