<?xml version="1.0" encoding="utf-8"?>
<!-- Generator: Adobe Illustrator 19.0.0, SVG Export Plug-In . SVG Version: 6.00 Build 0)  -->
<svg version="1.1" id="图层_1" xmlns="http://www.w3.org/2000/svg" xmlns:xlink="http://www.w3.org/1999/xlink" x="0px" y="0px" zn="大雪"
	 viewBox="0 0 60 60" style="enable-background:new 0 0 60 60;" xml:space="preserve">
<style type="text/css">
	.stj0{fill:#FFFFFF;}
</style>
<g id="XMLID_13_">
	<path id="XMLID_17_" class="stj0" d="M45.2,10.8C42,5,35.8,1.3,29.1,1.3c-9.3,0-16.8,6.5-18,15.3C6.5,17.6,3,21.8,3,26.8
		c0,5.8,4.7,10.4,10.4,10.4c2.4,0,4.7-0.8,6.5-2.2c2.9,1.9,6,2.8,9.2,2.8c3.1,0,5.2-0.5,7.6-1.8c2.1,1.2,4.4,1.8,6.8,1.8
		C51,37.8,57,31.7,57,24.3C57,17.4,51.8,11.7,45.2,10.8z M43.5,34.1c-2,0-4-0.6-5.7-1.8c-0.5-0.4-1.2-0.4-1.8-0.2
		c-0.1,0-0.3,0.1-0.4,0.2c-2.2,1.4-3.8,1.8-6.6,1.8c-3,0-5.6-0.9-8.3-2.9c-0.3-0.2-0.7-0.4-1.1-0.3c-0.5,0-1,0.2-1.4,0.6
		c-1.3,1.4-3,2.1-5,2.1c-3.8,0-6.8-3.1-6.8-6.8S9.7,20,13.4,20c1.3,0,2.6,0.4,3.7,1.1c0.8,0.5,2,0.3,2.5-0.5c0.5-0.8,0.3-2-0.5-2.5
		c-1.3-0.8-2.7-1.4-4.2-1.6C16.1,9.8,22,4.9,29.1,4.9c4.7,0,9.1,2.3,11.8,6.1c-3.3,0.6-6.3,2.5-8.3,5.3c-0.6,0.8-0.4,1.9,0.4,2.5
		c0.8,0.6,1.9,0.4,2.5-0.4c1.9-2.5,4.8-4,8-4c5.4,0,9.9,4.4,9.9,9.9C53.4,29.7,49,34.1,43.5,34.1z"/>
	<path id="XMLID_16_" class="stj0" d="M18.3,41.5c0-0.3,0.3-0.6,0.6-0.6c0.3,0,0.6,0.3,0.6,0.6v0.7c0,0.3,0.7,0.6,0.9,0.4l0.5-0.5
		c0.2-0.2,0.6-0.2,0.8,0c0.2,0.2,0.2,0.6,0,0.8l-0.5,0.5c-0.2,0.2,0.1,0.9,0.4,0.9h0.7c0.3,0,0.6,0.3,0.6,0.6c0,0.3-0.3,0.6-0.6,0.6
		h-0.7c-0.3,0-0.6,0.7-0.4,0.9l0.5,0.5c0.2,0.2,0.2,0.6,0,0.8c-0.2,0.2-0.6,0.2-0.8,0l-0.5-0.5c-0.2-0.2-0.9,0.1-0.9,0.4v0.7
		c0,0.3-0.3,0.6-0.6,0.6c-0.3,0-0.6-0.3-0.6-0.6v-0.7c0-0.3-0.7-0.6-0.9-0.4l-0.5,0.5c-0.2,0.2-0.6,0.2-0.8,0
		c-0.2-0.2-0.2-0.6,0-0.8l0.5-0.5c0.2-0.2-0.1-0.9-0.4-0.9h-0.7c-0.3,0-0.6-0.3-0.6-0.6c0-0.3,0.3-0.6,0.6-0.6h0.7
		c0.3,0,0.6-0.7,0.4-0.9L16,43c-0.2-0.2-0.2-0.6,0-0.8c0.2-0.2,0.6-0.2,0.8,0l0.5,0.5c0.2,0.2,0.9-0.1,0.9-0.4V41.5L18.3,41.5z"/>
	<path id="XMLID_15_" class="stj0" d="M40.9,41c0-0.3,0.3-0.6,0.6-0.6c0.3,0,0.6,0.3,0.6,0.6v0.7c0,0.3,0.7,0.6,0.9,0.4l0.5-0.5
		c0.2-0.2,0.6-0.2,0.8,0c0.2,0.2,0.2,0.6,0,0.8l-0.5,0.5c-0.2,0.2,0.1,0.9,0.4,0.9H45c0.3,0,0.6,0.3,0.6,0.6c0,0.3-0.3,0.6-0.6,0.6
		h-0.7c-0.3,0-0.6,0.7-0.4,0.9l0.5,0.5c0.2,0.2,0.2,0.6,0,0.8c-0.2,0.2-0.6,0.2-0.8,0L43,46.8c-0.2-0.2-0.9,0.1-0.9,0.4v0.7
		c0,0.3-0.3,0.6-0.6,0.6c-0.3,0-0.6-0.3-0.6-0.6v-0.7c0-0.3-0.7-0.6-0.9-0.4l-0.5,0.5c-0.2,0.2-0.6,0.2-0.8,0
		c-0.2-0.2-0.2-0.6,0-0.8l0.5-0.5c0.2-0.2-0.1-0.9-0.4-0.9H38c-0.3,0-0.6-0.3-0.6-0.6c0-0.3,0.3-0.6,0.6-0.6h0.7
		c0.3,0,0.6-0.7,0.4-0.9l-0.5-0.5c-0.2-0.2-0.2-0.6,0-0.8c0.2-0.2,0.6-0.2,0.8,0l0.5,0.5c0.2,0.2,0.9-0.1,0.9-0.4V41L40.9,41z"/>
	<path id="XMLID_14_" class="stj0" d="M29.2,48.8c0-0.4,0.3-0.8,0.8-0.8c0.4,0,0.8,0.3,0.8,0.8v0.9c0,0.4,0.9,0.8,1.2,0.5l0.7-0.7
		c0.3-0.3,0.8-0.3,1.1,0c0.3,0.3,0.3,0.8,0,1.1l-0.7,0.7c-0.3,0.3,0.1,1.2,0.5,1.2h0.9c0.4,0,0.8,0.3,0.8,0.8c0,0.4-0.3,0.8-0.8,0.8
		h-1c-0.4,0-0.8,0.9-0.5,1.2l0.7,0.7c0.3,0.3,0.3,0.8,0,1.1c-0.3,0.3-0.8,0.3-1.1,0L32,56.5c-0.3-0.3-1.2,0.1-1.2,0.5v0.9
		c0,0.4-0.3,0.8-0.8,0.8c-0.4,0-0.8-0.3-0.8-0.8V57c0-0.4-0.9-0.8-1.2-0.5l-0.7,0.7c-0.3,0.3-0.8,0.3-1.1,0c-0.3-0.3-0.3-0.8,0-1.1
		l0.7-0.7c0.3-0.3-0.1-1.2-0.5-1.2h-0.9c-0.4,0-0.8-0.3-0.8-0.8c0-0.4,0.3-0.8,0.8-0.8h0.9c0.4,0,0.8-0.9,0.5-1.2l-0.7-0.7
		c-0.3-0.3-0.3-0.8,0-1.1c0.3-0.3,0.8-0.3,1.1,0l0.7,0.7c0.3,0.3,1.2-0.1,1.2-0.5V48.8L29.2,48.8z"/>
</g>
</svg>
