<?xml version="1.0" encoding="utf-8"?>
<!-- Generator: Adobe Illustrator 19.0.0, SVG Export Plug-In . SVG Version: 6.00 Build 0)  -->
<svg version="1.1" id="图层_1" xmlns="http://www.w3.org/2000/svg" xmlns:xlink="http://www.w3.org/1999/xlink" x="0px" y="0px"
	 viewBox="0 0 285 160" style="enable-background:new 0 0 285 160;" xml:space="preserve">
<style type="text/css">
	.st0{fill:#1561C0;}
	.st1{opacity:0.59;fill:#1561C0;}
	.st2{fill:#00BEFF;}
</style>
<g>
	<g>
		<polygon id="XMLID_207_" class="st0" points="68.4,148.9 63.5,152.4 76.3,152.4 81.2,148.9 		"/>
		<polygon id="XMLID_206_" class="st0" points="47.6,148.9 42.6,152.4 55.4,152.4 60.4,148.9 		"/>
		<polygon id="XMLID_205_" class="st0" points="110.2,148.9 105.3,152.4 118.1,152.4 123,148.9 		"/>
		<polygon id="XMLID_204_" class="st0" points="89.3,148.9 84.4,152.4 97.2,152.4 102.1,148.9 		"/>
	</g>
	<g>
		<polygon id="XMLID_203_" class="st1" points="229.8,6 272.3,6 277.3,2.4 234.8,2.4 		"/>
		<polygon id="XMLID_202_" class="st1" points="204.3,5.3 245.2,5.3 248.1,3.2 207.2,3.2 		"/>
		<polygon id="XMLID_201_" class="st1" points="81.5,4.8 223.5,4.8 225,3.7 82.9,3.7 		"/>
		<g>
			<polygon id="XMLID_200_" class="st1" points="261.3,0.7 251.3,7.9 251.3,8 54.7,8 52.6,9.5 283.1,9.5 283.1,8 283.1,0.7 			"/>
			<g>
				<path class="st0" d="M283.1,11H18.4L1.8,23v131.9v3.8h38l-0.3,0.2h12.8l0.3-0.2h8.1l-0.3,0.2h12.8l0.3-0.2h8.1l-0.3,0.2h12.8
					l0.3-0.2h8.1l-0.3,0.2h12.8l0.3-0.2h137.6l5.7-3.8h-0.2l24.2-20.1L283.1,11z M281.9,133.9L260,152.4H6.8V21.4L18.4,13h263.6
					V133.9z"/>
				<g>
					<polygon id="XMLID_197_" class="st2" points="230.2,151.8 230.2,159.3 257.8,159.3 284.1,136.7 284.1,115 281,115 281,133.3 
						260.1,151.8 					"/>
				</g>
			</g>
			<g>
				<polygon id="XMLID_196_" class="st2" points="7.3,48.7 0.9,48.7 0.9,23.1 17.8,10.4 41.8,10.4 41.8,13.4 18.8,13.4 7.3,22.1 
									"/>
			</g>
		</g>
	</g>
</g>
</svg>
