<?xml version="1.0" encoding="utf-8"?>
<!-- Generator: Adobe Illustrator 19.0.0, SVG Export Plug-In . SVG Version: 6.00 Build 0)  -->
<svg version="1.1" id="图层_1" xmlns="http://www.w3.org/2000/svg" xmlns:xlink="http://www.w3.org/1999/xlink" x="0px" y="0px"
	 viewBox="-459 226 40 109" style="enable-background:new -459 226 40 109;" xml:space="preserve">
<style type="text/css">
	.stlt0{fill:#FFFFFF;}
	.stlt1{fill:#00C9FF;}
</style>
<g>
	<rect id="XMLID_71_" x="-437.8" y="304.2" class="stlt0" width="5.9" height="0.3"/>
	<rect id="XMLID_70_" x="-439" y="302.6" class="stlt0" width="8.2" height="0.3"/>
	<rect id="XMLID_69_" x="-437.7" y="300.9" class="stlt0" width="5.9" height="0.3"/>
	<rect id="XMLID_68_" x="-437.8" y="299.3" class="stlt0" width="5.9" height="0.3"/>
	<rect id="XMLID_67_" x="-437.8" y="297.7" class="stlt0" width="5.9" height="0.3"/>
	<rect id="XMLID_66_" x="-439" y="296" class="stlt0" width="8.2" height="0.3"/>
	<rect id="XMLID_65_" x="-437.7" y="294.4" class="stlt0" width="5.9" height="0.3"/>
	<rect id="XMLID_64_" x="-437.7" y="292.8" class="stlt0" width="5.9" height="0.3"/>
	<rect id="XMLID_63_" x="-437.7" y="291.1" class="stlt0" width="5.9" height="0.3"/>
	<rect id="XMLID_62_" x="-437.7" y="289.5" class="stlt0" width="5.9" height="0.3"/>
	<rect id="XMLID_61_" x="-438.9" y="287.9" class="stlt0" width="8.2" height="0.3"/>
	<rect id="XMLID_60_" x="-437.7" y="286.2" class="stlt0" width="5.9" height="0.3"/>
	<rect id="XMLID_59_" x="-437.7" y="284.6" class="stlt0" width="5.9" height="0.3"/>
	<rect id="XMLID_58_" x="-437.7" y="283" class="stlt0" width="5.9" height="0.3"/>
	<rect id="XMLID_57_" x="-437.7" y="281.3" class="stlt0" width="5.9" height="0.3"/>
	<rect id="XMLID_56_" x="-438.9" y="279.7" class="stlt0" width="8.2" height="0.3"/>
	<rect id="XMLID_55_" x="-437" y="276.4" class="stlt0" width="4.5" height="0.3"/>
	<rect id="XMLID_54_" x="-437" y="278.1" class="stlt0" width="4.5" height="0.3"/>
	<rect id="XMLID_53_" x="-437.7" y="274.8" class="stlt0" width="5.9" height="0.3"/>
	<rect id="XMLID_52_" x="-437.7" y="273.2" class="stlt0" width="5.9" height="0.3"/>
	<rect id="XMLID_51_" x="-437.7" y="271.5" class="stlt0" width="5.9" height="0.3"/>
	<rect id="XMLID_50_" x="-437.7" y="269.9" class="stlt0" width="5.9" height="0.3"/>
	<rect id="XMLID_49_" x="-438.9" y="268.3" class="stlt0" width="8.2" height="0.3"/>
	<rect id="XMLID_48_" x="-437.7" y="266.6" class="stlt0" width="5.9" height="0.3"/>
	<rect id="XMLID_47_" x="-437.7" y="265" class="stlt0" width="5.9" height="0.3"/>
	<rect id="XMLID_46_" x="-437.7" y="263.4" class="stlt0" width="5.9" height="0.3"/>
	<rect id="XMLID_45_" x="-437.7" y="261.7" class="stlt0" width="5.9" height="0.3"/>
	<rect id="XMLID_44_" x="-438.9" y="260.1" class="stlt0" width="8.2" height="0.3"/>
	<rect id="XMLID_43_" x="-437" y="258.5" class="stlt0" width="4.5" height="0.3"/>
	<rect id="XMLID_42_" x="-437.7" y="256.8" class="stlt0" width="5.9" height="0.3"/>
	<rect id="XMLID_41_" x="-437.7" y="255.2" class="stlt0" width="5.9" height="0.3"/>
	<rect id="XMLID_40_" x="-437.7" y="253.6" class="stlt0" width="5.9" height="0.3"/>
	<rect id="XMLID_39_" x="-437.7" y="251.9" class="stlt0" width="5.9" height="0.3"/>
	<rect id="XMLID_38_" x="-438.9" y="250.3" class="stlt0" width="8.2" height="0.3"/>
	<rect id="XMLID_37_" x="-437.7" y="248.7" class="stlt0" width="5.9" height="0.3"/>
	<rect id="XMLID_36_" x="-437.7" y="247" class="stlt0" width="5.9" height="0.3"/>
	<rect id="XMLID_35_" x="-437.7" y="245.4" class="stlt0" width="5.9" height="0.3"/>
	<rect id="XMLID_34_" x="-437.7" y="243.8" class="stlt0" width="5.9" height="0.3"/>
	<rect id="XMLID_33_" x="-440.8" y="242.1" class="stlt0" width="12.8" height="0.3"/>
	<rect id="XMLID_32_" x="-437.8" y="317.3" class="stlt0" width="5.9" height="0.3"/>
	<rect id="XMLID_31_" x="-437.8" y="315.6" class="stlt0" width="5.9" height="0.3"/>
	<rect id="XMLID_30_" x="-437.8" y="314" class="stlt0" width="5.9" height="0.3"/>
	<rect id="XMLID_29_" x="-437.8" y="312.4" class="stlt0" width="5.9" height="0.3"/>
	<rect id="XMLID_28_" x="-439" y="310.7" class="stlt0" width="8.2" height="0.3"/>
	<rect id="XMLID_27_" x="-437.7" y="309.1" class="stlt0" width="5.9" height="0.3"/>
	<rect id="XMLID_26_" x="-437.7" y="307.5" class="stlt0" width="5.9" height="0.3"/>
	<rect id="XMLID_25_" x="-437.8" y="305.8" class="stlt0" width="5.9" height="0.3"/>
	<rect id="XMLID_24_" x="-437.8" y="325.4" class="stlt0" width="5.9" height="0.3"/>
	<rect id="XMLID_23_" x="-437.8" y="323.8" class="stlt0" width="5.9" height="0.3"/>
	<rect id="XMLID_22_" x="-437.8" y="322.2" class="stlt0" width="5.9" height="0.3"/>
	<rect id="XMLID_21_" x="-437.8" y="320.5" class="stlt0" width="5.9" height="0.3"/>
	<rect id="XMLID_20_" x="-439" y="318.9" class="stlt0" width="8.2" height="0.3"/>
	<path class="stlt1" d="M-419.7,329.7l-7.9-2.2v-74.7c0-0.2,0.1-17.5,0-21.6c0.1-2.4,2.5-3.3,2.6-3.3c0.2-0.1,0.3-0.3,0.3-0.5
		c0-0.2-0.2-0.3-0.4-0.3l-24.7,0.1c-0.2,0-0.4,0.2-0.4,0.4v99.9l-8.2,2.3c-0.3,0.1-0.5,0.4-0.5,0.7v2.7c0,0.2,0.1,0.4,0.2,0.5
		s0.3,0.2,0.5,0.2h38.4c0.3,0,0.7-0.3,0.6-0.8v-2.7C-419.2,330.1-419.4,329.8-419.7,329.7z M-426.6,227.9c-0.8,0.6-1.7,1.7-1.7,3.3
		c0.1,4.1,0,21.4,0,21.6v74.6h-21.1V228L-426.6,227.9z M-420.6,332.5h-36.9l0.1-1.4l7.8-2.2h21.5l7.5,2.1V332.5z"/>
</g>
</svg>
