<?xml version="1.0" encoding="utf-8"?>
<!-- Generator: Adobe Illustrator 19.0.0, SVG Export Plug-In . SVG Version: 6.00 Build 0)  -->
<svg version="1.1" id="图层_1" xmlns="http://www.w3.org/2000/svg" xmlns:xlink="http://www.w3.org/1999/xlink" x="0px" y="0px"
	 viewBox="-467 226 24 109" style="enable-background:new -467 226 24 109;" xml:space="preserve">
<style type="text/css">
	.stwdj0{fill:#00C9FF;}
	.stwdj1{fill:#FFFFFF;}
</style>
<g>
	<g id="XMLID_89_">
		<path id="XMLID_90_" class="stwdj0" d="M-455,334.8c-6.3,0-11.4-5.1-11.4-11.4c0-3.3,1.4-6.4,3.9-8.6v-81.1c0-4.1,3.4-7.5,7.5-7.5
			s7.5,3.4,7.5,7.5v81.1c2.5,2.2,3.9,5.3,3.9,8.6C-443.6,329.7-448.7,334.8-455,334.8z M-455,227.1c-3.6,0-6.6,3-6.6,6.6V315
			c0,0.1-0.1,0.3-0.2,0.3c-2.4,2-3.8,4.9-3.8,8.1c0,5.8,4.7,10.5,10.5,10.5c5.8,0,10.5-4.7,10.5-10.5c0-3.1-1.4-6-3.8-8.1
			c-0.1-0.1-0.2-0.2-0.2-0.3v-81.3C-448.4,230.1-451.4,227.1-455,227.1z"/>
	</g>
	<g id="XMLID_2_">
		<g id="XMLID_80_">
			<path id="XMLID_81_" class="stwdj1" d="M-448.7,312.2c0,0.2-0.2,0.4-0.4,0.4h-11.8c-0.2,0-0.4-0.2-0.4-0.4l0,0
				c0-0.2,0.2-0.4,0.4-0.4h11.8C-448.9,311.7-448.7,311.9-448.7,312.2L-448.7,312.2z"/>
		</g>
		<g id="XMLID_78_">
			<path id="XMLID_79_" class="stwdj1" d="M-448.7,301.9c0,0.2-0.2,0.4-0.4,0.4h-11.8c-0.2,0-0.4-0.2-0.4-0.4l0,0
				c0-0.2,0.2-0.4,0.4-0.4h11.8C-448.9,301.5-448.7,301.7-448.7,301.9L-448.7,301.9z"/>
		</g>
		<g id="XMLID_69_">
			<g id="XMLID_76_">
				<path id="XMLID_77_" class="stwdj1" d="M-458.7,310.1c0,0.2-0.2,0.4-0.4,0.4h-1.8c-0.2,0-0.4-0.2-0.4-0.4l0,0
					c0-0.2,0.2-0.4,0.4-0.4h1.8C-458.8,309.6-458.7,309.8-458.7,310.1L-458.7,310.1z"/>
			</g>
			<g id="XMLID_74_">
				<path id="XMLID_75_" class="stwdj1" d="M-458.7,308c0,0.2-0.2,0.4-0.4,0.4h-1.8c-0.2,0-0.4-0.2-0.4-0.4l0,0c0-0.2,0.2-0.4,0.4-0.4
					h1.8C-458.8,307.6-458.7,307.8-458.7,308L-458.7,308z"/>
			</g>
			<g id="XMLID_72_">
				<path id="XMLID_73_" class="stwdj1" d="M-458.7,306c0,0.2-0.2,0.4-0.4,0.4h-1.8c-0.2,0-0.4-0.2-0.4-0.4l0,0c0-0.2,0.2-0.4,0.4-0.4
					h1.8C-458.8,305.5-458.7,305.7-458.7,306L-458.7,306z"/>
			</g>
			<g id="XMLID_70_">
				<path id="XMLID_71_" class="stwdj1" d="M-458.7,303.9c0,0.2-0.2,0.4-0.4,0.4h-1.8c-0.2,0-0.4-0.2-0.4-0.4l0,0
					c0-0.2,0.2-0.4,0.4-0.4h1.8C-458.8,303.5-458.7,303.7-458.7,303.9L-458.7,303.9z"/>
			</g>
		</g>
		<g id="XMLID_67_">
			<path id="XMLID_68_" class="stwdj1" d="M-448.7,291.6c0,0.2-0.2,0.4-0.4,0.4h-11.8c-0.2,0-0.4-0.2-0.4-0.4l0,0
				c0-0.2,0.2-0.4,0.4-0.4h11.8C-448.9,291.2-448.7,291.4-448.7,291.6L-448.7,291.6z"/>
		</g>
		<g id="XMLID_58_">
			<g id="XMLID_65_">
				<path id="XMLID_66_" class="stwdj1" d="M-458.7,299.7c0,0.2-0.2,0.4-0.4,0.4h-1.8c-0.2,0-0.4-0.2-0.4-0.4l0,0
					c0-0.2,0.2-0.4,0.4-0.4h1.8C-458.8,299.3-458.7,299.5-458.7,299.7L-458.7,299.7z"/>
			</g>
			<g id="XMLID_63_">
				<path id="XMLID_64_" class="stwdj1" d="M-458.7,297.7c0,0.2-0.2,0.4-0.4,0.4h-1.8c-0.2,0-0.4-0.2-0.4-0.4l0,0
					c0-0.2,0.2-0.4,0.4-0.4h1.8C-458.8,297.3-458.7,297.5-458.7,297.7L-458.7,297.7z"/>
			</g>
			<g id="XMLID_61_">
				<path id="XMLID_62_" class="stwdj1" d="M-458.7,295.6c0,0.2-0.2,0.4-0.4,0.4h-1.8c-0.2,0-0.4-0.2-0.4-0.4l0,0
					c0-0.2,0.2-0.4,0.4-0.4h1.8C-458.8,295.2-458.7,295.4-458.7,295.6L-458.7,295.6z"/>
			</g>
			<g id="XMLID_59_">
				<path id="XMLID_60_" class="stwdj1" d="M-458.7,293.6c0,0.2-0.2,0.4-0.4,0.4h-1.8c-0.2,0-0.4-0.2-0.4-0.4l0,0
					c0-0.2,0.2-0.4,0.4-0.4h1.8C-458.8,293.1-458.7,293.3-458.7,293.6L-458.7,293.6z"/>
			</g>
		</g>
		<g id="XMLID_56_">
			<path id="XMLID_57_" class="stwdj1" d="M-448.7,281.3c0,0.2-0.2,0.4-0.4,0.4h-11.8c-0.2,0-0.4-0.2-0.4-0.4l0,0
				c0-0.2,0.2-0.4,0.4-0.4h11.8C-448.9,280.8-448.7,281-448.7,281.3L-448.7,281.3z"/>
		</g>
		<g id="XMLID_47_">
			<g id="XMLID_54_">
				<path id="XMLID_55_" class="stwdj1" d="M-458.7,289.4c0,0.2-0.2,0.4-0.4,0.4h-1.8c-0.2,0-0.4-0.2-0.4-0.4l0,0
					c0-0.2,0.2-0.4,0.4-0.4h1.8C-458.8,289-458.7,289.2-458.7,289.4L-458.7,289.4z"/>
			</g>
			<g id="XMLID_52_">
				<path id="XMLID_53_" class="stwdj1" d="M-458.7,287.4c0,0.2-0.2,0.4-0.4,0.4h-1.8c-0.2,0-0.4-0.2-0.4-0.4l0,0
					c0-0.2,0.2-0.4,0.4-0.4h1.8C-458.8,286.9-458.7,287.1-458.7,287.4L-458.7,287.4z"/>
			</g>
			<g id="XMLID_50_">
				<path id="XMLID_51_" class="stwdj1" d="M-458.7,285.3c0,0.2-0.2,0.4-0.4,0.4h-1.8c-0.2,0-0.4-0.2-0.4-0.4l0,0
					c0-0.2,0.2-0.4,0.4-0.4h1.8C-458.8,284.9-458.7,285.1-458.7,285.3L-458.7,285.3z"/>
			</g>
			<g id="XMLID_48_">
				<path id="XMLID_49_" class="stwdj1" d="M-458.7,283.2c0,0.2-0.2,0.4-0.4,0.4h-1.8c-0.2,0-0.4-0.2-0.4-0.4l0,0
					c0-0.2,0.2-0.4,0.4-0.4h1.8C-458.8,282.8-458.7,283-458.7,283.2L-458.7,283.2z"/>
			</g>
		</g>
		<g id="XMLID_45_">
			<path id="XMLID_46_" class="stwdj1" d="M-448.7,270.9c0,0.2-0.2,0.4-0.4,0.4h-11.8c-0.2,0-0.4-0.2-0.4-0.4l0,0
				c0-0.2,0.2-0.4,0.4-0.4h11.8C-448.9,270.5-448.7,270.7-448.7,270.9L-448.7,270.9z"/>
		</g>
		<g id="XMLID_36_">
			<g id="XMLID_43_">
				<path id="XMLID_44_" class="stwdj1" d="M-458.7,279.1c0,0.2-0.2,0.4-0.4,0.4h-1.8c-0.2,0-0.4-0.2-0.4-0.4l0,0
					c0-0.2,0.2-0.4,0.4-0.4h1.8C-458.8,278.7-458.7,278.9-458.7,279.1L-458.7,279.1z"/>
			</g>
			<g id="XMLID_41_">
				<path id="XMLID_42_" class="stwdj1" d="M-458.7,277c0,0.2-0.2,0.4-0.4,0.4h-1.8c-0.2,0-0.4-0.2-0.4-0.4l0,0c0-0.2,0.2-0.4,0.4-0.4
					h1.8C-458.8,276.6-458.7,276.8-458.7,277L-458.7,277z"/>
			</g>
			<g id="XMLID_39_">
				<path id="XMLID_40_" class="stwdj1" d="M-458.7,275c0,0.2-0.2,0.4-0.4,0.4h-1.8c-0.2,0-0.4-0.2-0.4-0.4l0,0c0-0.2,0.2-0.4,0.4-0.4
					h1.8C-458.8,274.6-458.7,274.8-458.7,275L-458.7,275z"/>
			</g>
			<g id="XMLID_37_">
				<path id="XMLID_38_" class="stwdj1" d="M-458.7,272.9c0,0.2-0.2,0.4-0.4,0.4h-1.8c-0.2,0-0.4-0.2-0.4-0.4l0,0
					c0-0.2,0.2-0.4,0.4-0.4h1.8C-458.8,272.5-458.7,272.7-458.7,272.9L-458.7,272.9z"/>
			</g>
		</g>
		<g id="XMLID_34_">
			<path id="XMLID_35_" class="stwdj1" d="M-448.7,260.6c0,0.2-0.2,0.4-0.4,0.4h-11.8c-0.2,0-0.4-0.2-0.4-0.4l0,0
				c0-0.2,0.2-0.4,0.4-0.4h11.8C-448.9,260.2-448.7,260.4-448.7,260.6L-448.7,260.6z"/>
		</g>
		<g id="XMLID_25_">
			<g id="XMLID_32_">
				<path id="XMLID_33_" class="stwdj1" d="M-458.7,268.8c0,0.2-0.2,0.4-0.4,0.4h-1.8c-0.2,0-0.4-0.2-0.4-0.4l0,0
					c0-0.2,0.2-0.4,0.4-0.4h1.8C-458.8,268.4-458.7,268.5-458.7,268.8L-458.7,268.8z"/>
			</g>
			<g id="XMLID_30_">
				<path id="XMLID_31_" class="stwdj1" d="M-458.7,266.7c0,0.2-0.2,0.4-0.4,0.4h-1.8c-0.2,0-0.4-0.2-0.4-0.4l0,0
					c0-0.2,0.2-0.4,0.4-0.4h1.8C-458.8,266.3-458.7,266.5-458.7,266.7L-458.7,266.7z"/>
			</g>
			<g id="XMLID_28_">
				<path id="XMLID_29_" class="stwdj1" d="M-458.7,264.7c0,0.2-0.2,0.4-0.4,0.4h-1.8c-0.2,0-0.4-0.2-0.4-0.4l0,0
					c0-0.2,0.2-0.4,0.4-0.4h1.8C-458.8,264.2-458.7,264.4-458.7,264.7L-458.7,264.7z"/>
			</g>
			<g id="XMLID_26_">
				<path id="XMLID_27_" class="stwdj1" d="M-458.7,262.6c0,0.2-0.2,0.4-0.4,0.4h-1.8c-0.2,0-0.4-0.2-0.4-0.4l0,0
					c0-0.2,0.2-0.4,0.4-0.4h1.8C-458.8,262.2-458.7,262.4-458.7,262.6L-458.7,262.6z"/>
			</g>
		</g>
		<g id="XMLID_23_">
			<path id="XMLID_24_" class="stwdj1" d="M-448.7,250.3c0,0.2-0.2,0.4-0.4,0.4h-11.8c-0.2,0-0.4-0.2-0.4-0.4l0,0
				c0-0.2,0.2-0.4,0.4-0.4h11.8C-448.9,249.9-448.7,250.1-448.7,250.3L-448.7,250.3z"/>
		</g>
		<g id="XMLID_14_">
			<g id="XMLID_21_">
				<path id="XMLID_22_" class="stwdj1" d="M-458.7,258.5c0,0.2-0.2,0.4-0.4,0.4h-1.8c-0.2,0-0.4-0.2-0.4-0.4l0,0
					c0-0.2,0.2-0.4,0.4-0.4h1.8C-458.8,258-458.7,258.2-458.7,258.5L-458.7,258.5z"/>
			</g>
			<g id="XMLID_19_">
				<path id="XMLID_20_" class="stwdj1" d="M-458.7,256.4c0,0.2-0.2,0.4-0.4,0.4h-1.8c-0.2,0-0.4-0.2-0.4-0.4l0,0
					c0-0.2,0.2-0.4,0.4-0.4h1.8C-458.8,256-458.7,256.2-458.7,256.4L-458.7,256.4z"/>
			</g>
			<g id="XMLID_17_">
				<path id="XMLID_18_" class="stwdj1" d="M-458.7,254.4c0,0.2-0.2,0.4-0.4,0.4h-1.8c-0.2,0-0.4-0.2-0.4-0.4l0,0
					c0-0.2,0.2-0.4,0.4-0.4h1.8C-458.8,253.9-458.7,254.1-458.7,254.4L-458.7,254.4z"/>
			</g>
			<g id="XMLID_15_">
				<path id="XMLID_16_" class="stwdj1" d="M-458.7,252.3c0,0.2-0.2,0.4-0.4,0.4h-1.8c-0.2,0-0.4-0.2-0.4-0.4l0,0
					c0-0.2,0.2-0.4,0.4-0.4h1.8C-458.8,251.9-458.7,252.1-458.7,252.3L-458.7,252.3z"/>
			</g>
		</g>
		<g id="XMLID_12_">
			<path id="XMLID_13_" class="stwdj1" d="M-448.7,240c0,0.2-0.2,0.4-0.4,0.4h-11.8c-0.2,0-0.4-0.2-0.4-0.4l0,0c0-0.2,0.2-0.4,0.4-0.4
				h11.8C-448.9,239.6-448.7,239.8-448.7,240L-448.7,240z"/>
		</g>
		<g id="XMLID_3_">
			<g id="XMLID_10_">
				<path id="XMLID_11_" class="stwdj1" d="M-458.7,248.1c0,0.2-0.2,0.4-0.4,0.4h-1.8c-0.2,0-0.4-0.2-0.4-0.4l0,0
					c0-0.2,0.2-0.4,0.4-0.4h1.8C-458.8,247.7-458.7,247.9-458.7,248.1L-458.7,248.1z"/>
			</g>
			<g id="XMLID_8_">
				<path id="XMLID_9_" class="stwdj1" d="M-458.7,246.1c0,0.2-0.2,0.4-0.4,0.4h-1.8c-0.2,0-0.4-0.2-0.4-0.4l0,0c0-0.2,0.2-0.4,0.4-0.4
					h1.8C-458.8,245.7-458.7,245.8-458.7,246.1L-458.7,246.1z"/>
			</g>
			<g id="XMLID_6_">
				<path id="XMLID_7_" class="stwdj1" d="M-458.7,244c0,0.2-0.2,0.4-0.4,0.4h-1.8c-0.2,0-0.4-0.2-0.4-0.4l0,0c0-0.2,0.2-0.4,0.4-0.4
					h1.8C-458.8,243.6-458.7,243.8-458.7,244L-458.7,244z"/>
			</g>
			<g id="XMLID_4_">
				<path id="XMLID_5_" class="stwdj1" d="M-458.7,242c0,0.2-0.2,0.4-0.4,0.4h-1.8c-0.2,0-0.4-0.2-0.4-0.4l0,0c0-0.2,0.2-0.4,0.4-0.4
					h1.8C-458.8,241.5-458.7,241.7-458.7,242L-458.7,242z"/>
			</g>
		</g>
	</g>
</g>
</svg>
