<?xml version="1.0" encoding="utf-8"?>
<!-- Generator: Adobe Illustrator 19.0.0, SVG Export Plug-In . SVG Version: 6.00 Build 0)  -->
<svg version="1.1" id="图层_1" xmlns="http://www.w3.org/2000/svg" xmlns:xlink="http://www.w3.org/1999/xlink" x="0px" y="0px"
	 viewBox="0 0 955 375" style="enable-background:new 0 0 955 375;" xml:space="preserve">
<style type="text/css">
	.stb0{fill:none;stroke:#00BEFF;stroke-width:3;stroke-miterlimit:10;}
	.stb1{fill:none;stroke:#00BEFF;stroke-miterlimit:10;}
	.stb2{fill:none;stroke:#1561C0;stroke-miterlimit:10;}
	.stb3{fill:none;stroke:#009FE8;stroke-miterlimit:10;}
	.stb4{fill:#00BEFF;}
	.stb5{fill:none;stroke:#00BEFF;stroke-width:2;stroke-miterlimit:10;}
</style>
<g id="XMLID_1_">
	<polyline id="XMLID_11958_" class="stb0" points="277.7,372.7 43.2,372.7 9.3,340.4 9.3,324.9 	"/>
	<g id="XMLID_11959_">
		<line id="XMLID_11960_" class="stb1" x1="151.2" y1="55.3" x2="151.2" y2="338"/>
		<line id="XMLID_11961_" class="stb1" x1="283.2" y1="55.3" x2="283.2" y2="338"/>
		<line id="XMLID_11962_" class="stb1" x1="415.1" y1="55.3" x2="415.1" y2="338"/>
		<line id="XMLID_11963_" class="stb1" x1="547" y1="55.3" x2="547" y2="338"/>
		<line id="XMLID_11964_" class="stb1" x1="678.9" y1="55.3" x2="678.9" y2="338"/>
		<line id="XMLID_11965_" class="stb1" x1="810.8" y1="55.3" x2="810.8" y2="338"/>
		<g id="XMLID_11966_">
			<polyline id="XMLID_11967_" class="stb0" points="953.5,316.5 953.5,339.6 919.6,369.7 832.6,369.7 			"/>
			<polygon id="XMLID_11968_" class="stb2" points="19.3,38.3 48.4,11.1 240.4,11.1 267.2,33.1 909.9,33.1 943.1,57.6 943.1,335.3 
				915.2,360.6 47.1,360.6 19.3,335.3 			"/>
			<polyline id="XMLID_11969_" class="stb3" points="1.5,322.3 1.5,344.2 26.1,367.8 			"/>
			<polyline id="XMLID_18495_" class="stb3" points="951.5,41.3 919.4,16.5 885.3,17.2 			"/>
			<polyline id="XMLID_11970_" class="stb0" points="9.3,98.8 9.9,31.7 40.9,2.3 240.7,2.3 255.1,14.2 			"/>
			<polyline id="XMLID_11971_" class="stb0" points="271.5,24.2 915,24.2 946.2,48.3 			"/>
			<polygon id="XMLID_11972_" class="stb4" points="67,32.3 64,32.3 57.3,16.9 60.3,16.9 			"/>
			<polygon id="XMLID_11973_" class="stb4" points="74.4,32.3 71.4,32.3 64.7,16.9 67.7,16.9 			"/>
			<polygon id="XMLID_11974_" class="stb4" points="81.8,32.3 78.8,32.3 72.1,16.9 75.1,16.9 			"/>
			<polygon id="XMLID_11975_" class="stb4" points="89.2,32.3 86.2,32.3 79.5,16.9 82.5,16.9 			"/>
			<polygon id="XMLID_11976_" class="stb4" points="96.6,32.3 93.6,32.3 86.9,16.9 89.9,16.9 			"/>
			<polygon id="XMLID_11977_" class="stb4" points="104,32.3 101,32.3 94.3,16.9 97.3,16.9 			"/>
			<polygon id="XMLID_11978_" class="stb4" points="111.4,32.3 108.4,32.3 101.7,16.9 104.7,16.9 			"/>
			<polygon id="XMLID_11979_" class="stb4" points="118.7,32.3 115.7,32.3 109.1,16.9 112.1,16.9 			"/>
			<polygon id="XMLID_11980_" class="stb4" points="126.1,32.3 123.1,32.3 116.5,16.9 119.5,16.9 			"/>
			<polygon id="XMLID_11981_" class="stb4" points="133.5,32.3 130.5,32.3 123.9,16.9 126.9,16.9 			"/>
			<polygon id="XMLID_11982_" class="stb4" points="140.9,32.3 137.9,32.3 131.3,16.9 134.3,16.9 			"/>
			<polygon id="XMLID_11983_" class="stb4" points="148.3,32.3 145.3,32.3 138.7,16.9 141.7,16.9 			"/>
			<polygon id="XMLID_11984_" class="stb4" points="155.7,32.3 152.7,32.3 146.1,16.9 149.1,16.9 			"/>
			<polygon id="XMLID_11985_" class="stb4" points="163.1,32.3 160.1,32.3 153.5,16.9 156.5,16.9 			"/>
			<polygon id="XMLID_11986_" class="stb4" points="170.5,32.3 167.5,32.3 160.9,16.9 163.9,16.9 			"/>
			<polygon id="XMLID_11987_" class="stb4" points="185.3,32.3 182.3,32.3 175.7,16.9 178.7,16.9 			"/>
			<polygon id="XMLID_11988_" class="stb4" points="177.9,32.3 174.9,32.3 168.3,16.9 171.3,16.9 			"/>
			<polygon id="XMLID_11989_" class="stb4" points="192.7,32.3 189.7,32.3 183,16.9 186,16.9 			"/>
			<polygon id="XMLID_11990_" class="stb4" points="200.1,32.3 197.1,32.3 190.4,16.9 193.4,16.9 			"/>
			<polygon id="XMLID_11991_" class="stb4" points="207.5,32.3 204.5,32.3 197.8,16.9 200.8,16.9 			"/>
			<polygon id="XMLID_11992_" class="stb4" points="214.9,32.3 211.9,32.3 205.2,16.9 208.2,16.9 			"/>
			<polygon id="XMLID_11993_" class="stb4" points="222.3,32.3 219.3,32.3 212.6,16.9 215.6,16.9 			"/>
			<polygon id="XMLID_11994_" class="stb4" points="229.7,32.3 226.7,32.3 220,16.9 223,16.9 			"/>
			<polygon id="XMLID_11995_" class="stb4" points="237.1,32.3 234.1,32.3 227.4,16.9 230.4,16.9 			"/>
		</g>
	</g>
	<line id="XMLID_242_" class="stb5" x1="151.2" y1="55.3" x2="151.2" y2="64.5"/>
	<line id="XMLID_253_" class="stb5" x1="283.2" y1="55.3" x2="283.2" y2="64.5"/>
	<line id="XMLID_254_" class="stb5" x1="415.1" y1="55.3" x2="415.1" y2="64.5"/>
	<line id="XMLID_255_" class="stb5" x1="547" y1="55.3" x2="547" y2="64.5"/>
	<line id="XMLID_256_" class="st5" x1="678.9" y1="55.3" x2="678.9" y2="64.5"/>
	<line id="XMLID_258_" class="st5" x1="810.8" y1="55.3" x2="810.8" y2="64.5"/>
	<line id="XMLID_267_" class="st5" x1="810.8" y1="328.8" x2="810.8" y2="338"/>
	<line id="XMLID_269_" class="st5" x1="678.9" y1="328.8" x2="678.9" y2="338"/>
	<line id="XMLID_270_" class="st5" x1="547" y1="328.8" x2="547" y2="338"/>
	<line id="XMLID_283_" class="st5" x1="415.1" y1="328.8" x2="415.1" y2="338"/>
	<line id="XMLID_294_" class="st5" x1="283.2" y1="328.8" x2="283.2" y2="338"/>
	<line id="XMLID_313_" class="st5" x1="151.2" y1="328.8" x2="151.2" y2="338"/>
</g>
</svg>
