<?xml version="1.0" encoding="utf-8"?>
<!-- Generator: Adobe Illustrator 19.0.0, SVG Export Plug-In . SVG Version: 6.00 Build 0)  -->
<svg version="1.1" id="图层_1" xmlns="http://www.w3.org/2000/svg" xmlns:xlink="http://www.w3.org/1999/xlink" x="0px" y="0px"
	 viewBox="0 0 294 68" style="enable-background:new 0 0 294 68;" xml:space="preserve">
<style type="text/css">
	.stc0{fill:none;stroke:#00BEFF;stroke-miterlimit:10;}
	.stc1{fill:#00BEFF;fill-opacity:0.5;stroke:#00BEFF;stroke-miterlimit:10;}
	.stc2{fill:none;stroke:#00BEFF;stroke-width:3;stroke-miterlimit:10;}
</style>
<g id="XMLID_512_">
	<polygon id="XMLID_519_" class="stc0" points="7.4,2.3 5.1,6.3 5.1,16 2.2,22.3 2.2,65.7 286.6,65.7 289.2,60.1 289.2,43.3 
		291.8,37.1 291.8,14.8 287.3,6.3 84.7,6.3 75.2,6.3 70.9,2.3 	"/>
	<polygon id="XMLID_515_" class="stc1" points="81.8,11.5 35.1,11.5 34.4,7.3 8.2,7.3 8.2,31.5 4.5,36.5 4.5,65.7 2.2,65.7 2.2,22.3 
		5.1,16 5.1,6.3 7.4,2.3 70.9,2.3 75.2,6.3 84.7,6.3 	"/>
	<polyline id="XMLID_514_" class="stc2" points="273.6,65.7 286.6,65.7 289.2,60.1 289.2,50.9 	"/>
	<polyline id="XMLID_513_" class="stc2" points="277.2,6.3 287.3,6.3 291.8,14.8 291.8,20.1 	"/>
</g>
</svg>
