<?xml version="1.0" encoding="utf-8"?>
<!-- Generator: Adobe Illustrator 19.0.0, SVG Export Plug-In . SVG Version: 6.00 Build 0)  -->
<svg version="1.1" id="图层_1" xmlns="http://www.w3.org/2000/svg" xmlns:xlink="http://www.w3.org/1999/xlink" x="0px" y="0px"
	 viewBox="-448 252 62 58" style="enable-background:new -448 252 62 58;" xml:space="preserve">
<style type="text/css">
	.stfs0{fill:#00C9FF;}
	.stfs1{fill:#FFFFFF;}
</style>
<g>
	<g id="XMLID_394_">
		<path id="XMLID_19_" class="stfs0" d="M-440.8,310h-7.1v-52.3l22.9-5.7l0.2,0.1l34.5,21.8c0.3,0.2,6.3,3.9,3.6,9.1
			c-2,4-6.9,2.9-8.9,2.2c-1.9-0.6-37.7-12.7-38-12.8l-0.1,0l-7.1-7V310z M-447,309h5.1v-46.1l8.6,8.6c2.2,0.7,36.1,12.2,37.9,12.8
			c1.8,0.6,6.1,1.5,7.7-1.7c2.3-4.5-3-7.7-3.3-7.8l0,0l-34.3-21.7l-21.7,5.4V309z"/>
	</g>
	<g id="XMLID_393_">
		<path id="XMLID_15_" class="stfs1" d="M-436,263.8l-3.7-4l6.7-1.6L-436,263.8z M-437.9,260.3l1.6,1.8l1.3-2.5L-437.9,260.3z"/>
	</g>
	<g id="XMLID_391_">
		<path id="XMLID_11_" class="stfs1" d="M-419.6,273.6l-8.6-3.5l0-0.3c0-0.1-0.4-8.5,6.3-11l0.2-0.1l7.2,4.3l-0.8,0.4
			c-0.2,0.1-5.3,2.7-4.4,9.4L-419.6,273.6z M-427.2,269.4l6.4,2.6c-0.4-5.2,2.8-8.1,4.3-9.1l-5.2-3.1
			C-426.9,261.9-427.2,268-427.2,269.4z"/>
	</g>
	<g id="XMLID_388_">
		<path id="XMLID_7_" class="stfs1" d="M-405.1,278.9l-6.3-2.3l-0.1-0.3c0-0.1-1.2-6.1,4.2-8.4l0.2-0.1l5.7,3.1l-0.8,0.4
			c-0.1,0.1-3.1,1.9-3.1,6.8L-405.1,278.9z M-410.5,275.8l4.4,1.6c0.2-3.6,1.9-5.6,2.9-6.5l-3.8-2.1
			C-410.9,270.7-410.6,274.7-410.5,275.8z"/>
	</g>
	<g id="XMLID_254_">
		<path id="XMLID_3_" class="stfs1" d="M-393.8,281.9c-1.7,0-3-1.3-3-3s1.3-3,3-3s3,1.3,3,3S-392.2,281.9-393.8,281.9z M-393.8,276.9
			c-1.1,0-2,0.9-2,2c0,1.1,0.9,2,2,2s2-0.9,2-2C-391.8,277.8-392.7,276.9-393.8,276.9z"/>
	</g>
</g>
</svg>
