<?xml version="1.0" encoding="utf-8"?>
<!-- Generator: Adobe Illustrator 19.0.0, SVG Export Plug-In . SVG Version: 6.00 Build 0)  -->
<svg version="1.1" id="图层_1" xmlns="http://www.w3.org/2000/svg" xmlns:xlink="http://www.w3.org/1999/xlink" x="0px" y="0px"
	 viewBox="9 199 940 164" style="enable-background:new 9 199 940 164;" xml:space="preserve">
<style type="text/css">
	.actborder0{fill:none;stroke:#1561C0;stroke-miterlimit:10;}
	.actborder1{fill:none;stroke:#00BEFF;stroke-width:3;stroke-miterlimit:10;}
	.actborder2{fill:none;stroke:#00BEFF;stroke-width:2;stroke-miterlimit:10;}
</style>
<g id="XMLID_91_">
	<polygon id="XMLID_5377_" class="actborder0" points="925.5,355.1 32.8,355.1 16.8,338 16.8,224.1 32.8,207 925.5,207 941.5,224.1 
		941.5,338 	"/>
	<g id="XMLID_6714_">
		<polyline id="XMLID_22416_" class="actborder1" points="11.4,234.2 11.4,221 30,201.2 64.1,201.2 		"/>
		<polyline id="XMLID_17444_" class="actborder1" points="11.4,327.8 11.4,341 30,360.8 64.1,360.8 		"/>
	</g>
	<g id="XMLID_22401_">
		<polyline id="XMLID_22421_" class="actborder1" points="946.6,234.2 946.6,221 928,201.2 893.9,201.2 		"/>
		<polyline id="XMLID_22402_" class="actborder1" points="946.6,327.8 946.6,341 928,360.8 893.9,360.8 		"/>
	</g>
	<g id="XMLID_5386_">
		<line id="XMLID_5387_" class="actborder0" x1="474.8" y1="241.8" x2="474.8" y2="328.1"/>
		<path id="XMLID_5388_" class="actborder0" d="M481,239.1"/>
		<polyline id="XMLID_5389_" class="actborder2" points="482.3,239.1 477.3,239.1 474.8,241.7 474.8,247.3 		"/>
		<polyline id="XMLID_22782_" class="actborder2" points="482.3,330.5 477.3,330.5 474.8,328 474.8,321.6 		"/>
	</g>
	<g id="XMLID_5390_">
		<line id="XMLID_5391_" class="actborder0" x1="692.2" y1="242.1" x2="692.2" y2="327.1"/>
		<path id="XMLID_5392_" class="actborder0" d="M698.4,239.4"/>
		<polyline id="XMLID_5393_" class="actborder2" points="699.7,239.4 694.7,239.4 692.2,241.9 692.2,247.5 		"/>
		<polyline id="XMLID_22773_" class="actborder2" points="699.7,329.5 694.7,329.5 692.2,326.9 692.2,320.6 		"/>
	</g>
	<g id="XMLID_5394_">
		<line id="XMLID_22769_" class="actborder0" x1="649.1" y1="241" x2="649.1" y2="326"/>
		<path id="XMLID_22766_" class="actborder0" d="M642.9,238.3"/>
		<polyline id="XMLID_22765_" class="actborder2" points="641.6,238.3 646.6,238.3 649.1,240.9 649.1,246.4 		"/>
		<polyline id="XMLID_22763_" class="actborder2" points="641.6,328.5 646.6,328.5 649.1,325.9 649.1,319.6 		"/>
	</g>
	<g id="XMLID_5395_">
		<line id="XMLID_22758_" class="actborder0" x1="905.1" y1="243.2" x2="905.1" y2="328.2"/>
		<path id="XMLID_22756_" class="actborder0" d="M898.9,240.6"/>
		<polyline id="XMLID_22754_" class="actborder2" points="897.6,240.6 902.6,240.6 905.1,243.1 905.1,248.6 		"/>
		<polyline id="XMLID_22753_" class="actborder2" points="897.6,330.7 902.6,330.7 905.1,328.1 905.1,321.8 		"/>
	</g>
</g>
</svg>
