<?xml version="1.0" encoding="utf-8"?>
<!-- Generator: Adobe Illustrator 19.0.0, SVG Export Plug-In . SVG Version: 6.00 Build 0)  -->
<svg version="1.1" id="图层_1" xmlns="http://www.w3.org/2000/svg" xmlns:xlink="http://www.w3.org/1999/xlink" x="0px" y="0px"
	 viewBox="0 0 960 228" style="enable-background:new 0 0 960 228;" xml:space="preserve">
<style type="text/css">
	.staq0{fill:#1561C0;fill-opacity:0.4;stroke:#1561C0;stroke-miterlimit:10;}
	.staq1{fill:none;stroke:#00BEFF;stroke-width:3;stroke-miterlimit:10;}
	.staq2{fill:none;stroke:#1561C0;stroke-miterlimit:10;}
	.staq3{fill:none;stroke:#009FE8;stroke-miterlimit:10;}
	.staq4{fill:#00BEFF;}
	.staq5{fill:none;stroke:#00BEFF;stroke-width:2;stroke-miterlimit:10;}
</style>
<g id="XMLID_9_">
	<polygon id="XMLID_12672_" class="staq0" points="305,58.4 31.1,58.4 31.1,43.1 57.3,18.9 282.9,18.9 	"/>
	<polyline id="XMLID_12674_" class="staq1" points="65,224.1 45.3,224.1 11.5,191.8 11.5,176.3 	"/>
	<polyline id="XMLID_12675_" class="staq1" points="956.3,167.9 956.3,191 922.4,221.1 902.4,221.1 	"/>
	<polygon id="XMLID_12676_" class="staq2" points="21.5,39.9 50.5,12.7 288.9,12.7 315.6,58.2 912.7,58.2 945.9,82.7 945.9,186.7 
		918.1,212 49.2,212 21.5,186.7 	"/>
	<polyline id="XMLID_12677_" class="staq3" points="3.7,173.7 3.7,195.6 28.3,219.2 	"/>
	<polyline id="XMLID_6170_" class="staq3" points="954.4,66.4 922.3,41.6 888.2,42.2 	"/>
	<polyline id="XMLID_12678_" class="staq1" points="11.5,61.3 12.1,33.3 43,3.9 294.9,3.9 302.6,16.3 	"/>
	<polyline id="XMLID_12679_" class="staq1" points="509.5,49.3 917.8,49.3 949.1,73.4 	"/>
	<polygon id="XMLID_12680_" class="staq4" points="388.1,54 381.4,54 370.6,36.4 377.3,36.4 	"/>
	<polygon id="XMLID_12681_" class="staq4" points="399.3,54 392.6,54 381.8,36.4 388.5,36.4 	"/>
	<polygon id="XMLID_12682_" class="staq4" points="365.7,54 359,54 348.2,36.4 354.9,36.4 	"/>
	<polygon id="XMLID_12683_" class="staq4" points="376.9,54 370.2,54 359.4,36.4 366.1,36.4 	"/>
	<polygon id="XMLID_12684_" class="staq4" points="343.3,54 336.6,54 325.8,36.4 332.6,36.4 	"/>
	<polygon id="XMLID_12685_" class="staq4" points="332,54 325.2,54 314.4,36.4 321.2,36.4 	"/>
	<polygon id="XMLID_12686_" class="staq4" points="354.5,54 347.8,54 337,36.4 343.7,36.4 	"/>
	<polygon id="XMLID_12687_" class="staq4" points="410.5,54 403.8,54 393,36.4 399.7,36.4 	"/>
	<polygon id="XMLID_12688_" class="staq4" points="421.7,54 415,54 404.2,36.4 410.9,36.4 	"/>
	<polygon id="XMLID_12689_" class="staq4" points="432.9,54 426.2,54 415.4,36.4 422.1,36.4 	"/>
	<polygon id="XMLID_12690_" class="staq4" points="444.1,54 437.4,54 426.6,36.4 433.3,36.4 	"/>
	<polygon id="XMLID_12691_" class="staq4" points="455.3,54 448.6,54 437.8,36.4 444.5,36.4 	"/>
	<polygon id="XMLID_12692_" class="staq4" points="466.5,54 459.8,54 449,36.4 455.7,36.4 	"/>
	<polygon id="XMLID_12693_" class="staq4" points="477.7,54 471,54 460.2,36.4 466.9,36.4 	"/>
	<polygon id="XMLID_12694_" class="staq4" points="488.9,54 482.1,54 471.4,36.4 478.1,36.4 	"/>
	<polygon id="XMLID_12695_" class="staq4" points="500.1,54 493.3,54 482.5,36.4 489.3,36.4 	"/>
	<line id="XMLID_12696_" class="staq2" x1="175.4" y1="73.8" x2="175.4" y2="194.5"/>
	<line id="XMLID_12697_" class="staq2" x1="329.4" y1="73.8" x2="329.4" y2="194.5"/>
	<line id="XMLID_12698_" class="staq2" x1="483.4" y1="73.8" x2="483.4" y2="194.5"/>
	<line id="XMLID_12699_" class="staq2" x1="637.3" y1="73.8" x2="637.3" y2="194.5"/>
	<line id="XMLID_12700_" class="staq2" x1="791.3" y1="73.8" x2="791.3" y2="194.5"/>
	<g id="XMLID_6391_">
		<line id="XMLID_4253_" class="staq5" x1="175.4" y1="73.8" x2="175.4" y2="81.8"/>
		<line id="XMLID_6397_" class="staq5" x1="175.4" y1="186.4" x2="175.4" y2="194.5"/>
	</g>
	<g id="XMLID_6400_">
		<line id="XMLID_6420_" class="staq5" x1="329.4" y1="73.8" x2="329.4" y2="81.8"/>
		<line id="XMLID_6408_" class="staq5" x1="329.4" y1="186.4" x2="329.4" y2="194.5"/>
	</g>
	<g id="XMLID_6421_">
		<line id="XMLID_6423_" class="staq5" x1="483.4" y1="73.8" x2="483.4" y2="81.8"/>
		<line id="XMLID_6422_" class="staq5" x1="483.4" y1="186.4" x2="483.4" y2="194.5"/>
	</g>
	<g id="XMLID_6424_">
		<line id="XMLID_6426_" class="staq5" x1="637.3" y1="73.8" x2="637.3" y2="81.8"/>
		<line id="XMLID_6425_" class="staq5" x1="637.3" y1="186.4" x2="637.3" y2="194.5"/>
	</g>
	<g id="XMLID_6427_">
		<line id="XMLID_6429_" class="staq5" x1="791.3" y1="73.8" x2="791.3" y2="81.8"/>
		<line id="XMLID_6428_" class="staq5" x1="791.3" y1="186.4" x2="791.3" y2="194.5"/>
	</g>
</g>
</svg>
