<?xml version="1.0" encoding="utf-8"?>
<!-- Generator: Adobe Illustrator 19.0.0, SVG Export Plug-In . SVG Version: 6.00 Build 0)  -->
<svg version="1.1" id="图层_1" xmlns="http://www.w3.org/2000/svg" xmlns:xlink="http://www.w3.org/1999/xlink" x="0px" y="0px"
	 viewBox="0 0 960 214" style="enable-background:new 0 0 960 214;" xml:space="preserve">
<style type="text/css">
	.stfaq0{fill:none;stroke:#1561C0;stroke-miterlimit:10;}
	.stfaq1{fill:none;stroke:#00BEFF;stroke-miterlimit:10;}
	.stfaq2{fill:#1561C0;fill-opacity:0.4;stroke:#1561C0;stroke-miterlimit:10;}
	.stfaq3{fill:none;stroke:#00BEFF;stroke-width:3;stroke-miterlimit:10;}
	.stfaq4{fill:none;stroke:#009FE8;stroke-miterlimit:10;}
	.stfaq5{fill:#00BEFF;}
	.stfaq6{fill:none;stroke:#00BEFF;stroke-width:2;stroke-miterlimit:10;}
</style>
<g id="XMLID_30_">
	<line id="XMLID_12796_" class="stfaq0" x1="174.8" y1="70.2" x2="174.8" y2="184.8"/>
	<path id="XMLID_12797_" class="stfaq1" d="M20.3,184.8"/>
	<path id="XMLID_12798_" class="stfaq1" d="M20.3,70.2"/>
	<line id="XMLID_12799_" class="stfaq0" x1="329.3" y1="70.2" x2="329.3" y2="184.8"/>
	<line id="XMLID_12800_" class="stfaq0" x1="483.7" y1="70.2" x2="483.7" y2="184.8"/>
	<line id="XMLID_12801_" class="stfaq0" x1="638.2" y1="70.2" x2="638.2" y2="184.8"/>
	<line id="XMLID_12802_" class="stfaq0" x1="792.6" y1="70.2" x2="792.6" y2="184.8"/>
	<polygon id="XMLID_12897_" class="stfaq2" points="297.6,57 29.9,57 29.9,41.8 56.2,17.6 275.4,17.6 	"/>
	<polyline id="XMLID_12899_" class="stfaq3" points="63.8,211.4 44.2,211.4 10.3,179.2 10.3,163.6 	"/>
	<polyline id="XMLID_12900_" class="stfaq3" points="957.5,155.3 957.5,178.3 923.6,208.4 903.5,208.4 	"/>
	<polygon id="XMLID_12901_" class="stfaq0" points="20.3,38.5 49.4,11.4 281.4,11.4 308.2,56.9 913.9,56.9 947.1,81.4 947.1,174.1 
		919.2,199.3 48.1,199.3 20.3,174.1 	"/>
	<polyline id="XMLID_12902_" class="stfaq4" points="2.5,161 2.5,182.9 27.1,206.6 	"/>
	<polyline id="XMLID_6036_" class="stfaq4" points="955.5,65 923.4,40.2 889.3,40.9 	"/>
	<polyline id="XMLID_12903_" class="stfaq3" points="10.3,60 10.9,32 41.9,2.6 287.4,2.6 295.2,14.9 	"/>
	<polyline id="XMLID_12904_" class="stfaq3" points="442.4,48 919,48 950.2,72 	"/>
	<g id="XMLID_12905_">
		<polygon id="XMLID_12906_" class="stfaq5" points="322,52.6 315.2,52.6 304.4,35 311.2,35 		"/>
		<polygon id="XMLID_12907_" class="stfaq5" points="333.1,52.6 326.3,52.6 315.5,35 322.3,35 		"/>
		<polygon id="XMLID_12908_" class="stfaq5" points="344.2,52.6 337.4,52.6 326.6,35 333.4,35 		"/>
		<polygon id="XMLID_12909_" class="stfaq5" points="355.3,52.6 348.5,52.6 337.8,35 344.5,35 		"/>
		<polygon id="XMLID_12910_" class="stfaq5" points="366.4,52.6 359.6,52.6 348.9,35 355.6,35 		"/>
		<polygon id="XMLID_12911_" class="stfaq5" points="377.5,52.6 370.7,52.6 360,35 366.7,35 		"/>
		<polygon id="XMLID_12912_" class="stfaq5" points="388.6,52.6 381.9,52.6 371.1,35 377.8,35 		"/>
		<polygon id="XMLID_12913_" class="stfaq5" points="399.7,52.6 393,52.6 382.2,35 388.9,35 		"/>
		<polygon id="XMLID_12914_" class="stfaq5" points="410.8,52.6 404.1,52.6 393.3,35 400,35 		"/>
		<polygon id="XMLID_12915_" class="stfaq5" points="421.9,52.6 415.2,52.6 404.4,35 411.1,35 		"/>
		<polygon id="XMLID_12916_" class="stfaq5" points="433,52.6 426.3,52.6 415.5,35 422.2,35 		"/>
	</g>
	<g id="XMLID_4248_">
		<line id="XMLID_313_" class="stfaq6" x1="174.8" y1="70.2" x2="174.8" y2="80.5"/>
		<line id="XMLID_4250_" class="stfaq6" x1="174.8" y1="174.5" x2="174.8" y2="184.8"/>
	</g>
	<g id="XMLID_4254_">
		<line id="XMLID_6376_" class="stfaq6" x1="329.3" y1="70.2" x2="329.3" y2="80.5"/>
		<line id="XMLID_6375_" class="stfaq6" x1="329.3" y1="174.5" x2="329.3" y2="184.8"/>
	</g>
	<g id="XMLID_6377_">
		<line id="XMLID_6383_" class="stfaq6" x1="483.7" y1="70.2" x2="483.7" y2="80.5"/>
		<line id="XMLID_6378_" class="stfaq6" x1="483.7" y1="174.5" x2="483.7" y2="184.8"/>
	</g>
	<g id="XMLID_6384_">
		<line id="XMLID_6387_" class="stfaq6" x1="638.2" y1="70.2" x2="638.2" y2="80.5"/>
		<line id="XMLID_6385_" class="stfaq6" x1="638.2" y1="174.5" x2="638.2" y2="184.8"/>
	</g>
	<g id="XMLID_6388_">
		<line id="XMLID_6390_" class="stfaq6" x1="792.6" y1="70.2" x2="792.6" y2="80.5"/>
		<line id="XMLID_6389_" class="stfaq6" x1="792.6" y1="174.5" x2="792.6" y2="184.8"/>
	</g>
</g>
</svg>
