<?xml version="1.0" encoding="utf-8"?>
<!-- Generator: Adobe Illustrator 19.0.0, SVG Export Plug-In . SVG Version: 6.00 Build 0)  -->
<svg version="1.1" id="图层_1" xmlns="http://www.w3.org/2000/svg" xmlns:xlink="http://www.w3.org/1999/xlink" x="0px" y="0px"
	 viewBox="0 0 298 66" style="enable-background:new 0 0 298 66;" xml:space="preserve">
<style type="text/css">
	.weather_actual0{fill:#00BEFF;}
</style>
<g id="XMLID_97_">
	<g id="XMLID_98_">
		<polygon id="XMLID_99_" class="weather_actual0" points="285.3,6.4 295.3,15.8 295.3,10 291.9,6.4 		"/>
		<polygon id="XMLID_112_" class="weather_actual0" points="4.7,60.4 9,63.3 17.1,63.3 4.7,53.9 		"/>
		<path id="XMLID_4725_" class="weather_actual0" d="M297.6,9.2l-4.2-5H75.7L71.3,0H6.6L3.3,4.5v9.9l-2.9,6.3v41.1L5.9,66h277.2l3.2-3.1l5.9,0
			l5.4-4.7L297.6,9.2z M296.6,36.9l-2.2,2.2v18l-2.5,2.3l-4.3,0l-1.7,1.6h-33.6l-3.9,3.9H8.6l-5.5-3.9V35.5l3.8-5.1V9.2l2.4-3.5
			h23.2L34.4,9h44.8l5.4-3.8h208.1l3.8,4.3L296.6,36.9z"/>
	</g>
</g>
</svg>
