<?xml version="1.0" encoding="utf-8"?>
<!-- Generator: Adobe Illustrator 19.0.0, SVG Export Plug-In . SVG Version: 6.00 Build 0)  -->
<svg version="1.1" id="图层_1" xmlns="http://www.w3.org/2000/svg" xmlns:xlink="http://www.w3.org/1999/xlink" x="0px" y="0px"
	 viewBox="0 0 448 66" style="enable-background:new 0 0 448 66;" xml:space="preserve">
<style type="text/css">
	.stgs0{fill:none;stroke:#00BEFF;stroke-miterlimit:10;}
	.stgs1{fill:#00BEFF;fill-opacity:0.5;stroke:#00BEFF;stroke-miterlimit:10;}
	.stgs2{fill:none;stroke:#00BEFF;stroke-width:3;stroke-miterlimit:10;}
</style>
<g id="XMLID_1_">
	<polygon id="XMLID_5_" class="stgs0" points="6.7,1.3 4.5,5.3 4.5,15 1.6,21.3 1.6,64.7 441,64.7 443.6,59.1 443.6,42.3 446.1,36.1 
		446.1,13.8 441.7,5.3 84.1,5.3 74.6,5.3 70.3,1.3 	"/>
	<polygon id="XMLID_4_" class="stgs1" points="82.1,10.5 35.3,10.5 34.6,6.3 8.4,6.3 8.4,30.5 4.7,35.5 4.7,64.7 2.5,64.7 2.5,21.3 
		5.4,15 5.4,5.3 7.6,1.3 71.2,1.3 75.5,5.3 85,5.3 	"/>
	<g id="XMLID_89_">
		<polyline id="XMLID_3_" class="stgs2" points="428.3,64.7 441.3,64.7 443.8,59.1 443.8,49.9 		"/>
		<polyline id="XMLID_2_" class="stgs2" points="431.8,5.3 441.9,5.3 446.4,13.8 446.4,19.1 		"/>
	</g>
</g>
</svg>
