<?xml version="1.0" encoding="utf-8"?>
<!-- Generator: Adobe Illustrator 19.0.0, SVG Export Plug-In . SVG Version: 6.00 Build 0)  -->
<svg version="1.1" id="图层_1" xmlns="http://www.w3.org/2000/svg" xmlns:xlink="http://www.w3.org/1999/xlink" x="0px" y="0px"
	 viewBox="0 0 960 220" style="enable-background:new 0 0 960 220;" xml:space="preserve">
<style type="text/css">
	.HPR0{fill:#1561C0;fill-opacity:0.4;stroke:#1561C0;stroke-miterlimit:10;}
	.HPR1{fill:none;stroke:#00BEFF;stroke-width:3;stroke-miterlimit:10;}
	.HPR2{fill:none;stroke:#1561C0;stroke-miterlimit:10;}
	.HPR3{fill:none;stroke:#009FE8;stroke-miterlimit:10;}
	.HPR4{fill:#00BEFF;}
</style>
<g id="XMLID_385_">
	<polygon id="XMLID_408_" class="HPR0" points="244.2,57.7 29.9,57.7 29.9,42.4 56.2,18.2 222.1,18.2 	"/>
	<polyline id="XMLID_406_" class="HPR1" points="161.8,216.8 44.2,216.8 10.3,184.5 10.3,169 	"/>
	<polyline id="XMLID_405_" class="HPR1" points="957.5,160.6 957.5,183.7 923.6,213.8 879.5,213.8 	"/>
	<polygon id="XMLID_404_" class="HPR2" points="20.3,39.1 49.4,12 228.1,12 254.9,57.5 913.9,57.5 947.1,82 947.1,179.4 919.2,204.7 
		48.1,204.7 20.3,179.4 	"/>
	<polyline id="XMLID_403_" class="HPR3" points="2.5,166.4 2.5,188.3 27.1,212 	"/>
	<polyline id="XMLID_402_" class="HPR3" points="955.5,65.7 923.4,40.9 889.3,40.9 	"/>
	<polyline id="XMLID_401_" class="HPR1" points="10.9,60.6 10.9,32.6 41.9,3.2 234.1,3.2 241.8,15.6 	"/>
	<polyline id="XMLID_400_" class="HPR1" points="391.4,48.6 919,48.6 950.2,72.7 	"/>
	<g id="XMLID_386_">
		<polygon id="XMLID_399_" class="HPR4" points="272.8,53.3 266,53.3 255.2,35.7 262,35.7 		"/>
		<polygon id="XMLID_398_" class="HPR4" points="283.9,53.3 277.1,53.3 266.3,35.7 273.1,35.7 		"/>
		<polygon id="XMLID_397_" class="HPR4" points="295,53.3 288.2,53.3 277.4,35.7 284.2,35.7 		"/>
		<polygon id="XMLID_396_" class="HPR4" points="306.1,53.3 299.3,53.3 288.5,35.7 295.3,35.7 		"/>
		<polygon id="XMLID_394_" class="HPR4" points="317.2,53.3 310.4,53.3 299.6,35.7 306.4,35.7 		"/>
		<polygon id="XMLID_392_" class="HPR4" points="328.3,53.3 321.5,53.3 310.7,35.7 317.5,35.7 		"/>
		<polygon id="XMLID_391_" class="HPR4" points="339.4,53.3 332.6,53.3 321.8,35.7 328.6,35.7 		"/>
		<polygon id="XMLID_390_" class="HPR4" points="350.5,53.3 343.7,53.3 332.9,35.7 339.7,35.7 		"/>
		<polygon id="XMLID_389_" class="HPR4" points="361.6,53.3 354.8,53.3 344,35.7 350.8,35.7 		"/>
		<polygon id="XMLID_388_" class="HPR4" points="372.7,53.3 365.9,53.3 355.1,35.7 361.9,35.7 		"/>
		<polygon id="XMLID_387_" class="HPR4" points="383.8,53.3 377,53.3 366.2,35.7 373,35.7 		"/>
	</g>
</g>
</svg>
