<?xml version="1.0" ?><!-- Generator: Adobe Illustrator 19.0.0, SVG Export Plug-In . SVG Version: 6.00 Build 0)  --><svg id="图层_1" style="enable-background:new 0 0 962 217;" version="1.1" viewBox="0 0 962 217" x="0px" xml:space="preserve" xmlns="http://www.w3.org/2000/svg" xmlns:xlink="http://www.w3.org/1999/xlink" y="0px" zn="生活指数外框">
<style type="text/css">
	.LiveIndexBorder_st0{fill:none;stroke:#00BEFF;stroke-miterlimit:10;}
	.LiveIndexBorder_st1{fill:#1561C0;fill-opacity:0.4;stroke:#1561C0;stroke-miterlimit:10;}
	.LiveIndexBorder_st2{fill:none;stroke:#00BEFF;stroke-width:3;stroke-miterlimit:10;}
	.LiveIndexBorder_st3{fill:none;stroke:#1561C0;stroke-miterlimit:10;}
	.LiveIndexBorder_st4{fill:none;stroke:#009FE8;stroke-miterlimit:10;}
	.LiveIndexBorder_st5{fill:#00BEFF;}
</style>
<g id="XMLID_303_">
	<path class="LiveIndexBorder_st0" d="M21.3,186.3" id="XMLID_325_"/>
	<path class="LiveIndexBorder_st0" d="M21.3,71.7" id="XMLID_324_"/>
	<polygon class="LiveIndexBorder_st1" id="XMLID_323_" points="298.6,58.5 30.9,58.5 30.9,43.3 57.2,19.1 276.4,19.1  "/>
	<polyline class="LiveIndexBorder_st2" id="XMLID_321_" points="64.8,212.9 45.2,212.9 11.3,180.7 11.3,165.1  "/>
	<polyline class="LiveIndexBorder_st2" id="XMLID_320_" points="958.5,156.8 958.5,179.8 924.6,209.9 904.5,209.9  "/>
	<polygon class="LiveIndexBorder_st3" id="XMLID_319_" points="21.3,40 50.4,12.9 282.4,12.9 309.2,58.4 914.9,58.4 948.1,82.9 948.1,175.6    920.2,200.8 49.1,200.8 21.3,175.6  "/>
	<polyline class="LiveIndexBorder_st4" id="XMLID_318_" points="3.5,162.5 3.5,184.4 28.1,208.1  "/>
	<polyline class="LiveIndexBorder_st4" id="XMLID_317_" points="956.5,66.5 924.4,41.7 890.3,42.4  "/>
	<polyline class="LiveIndexBorder_st2" id="XMLID_316_" points="11.3,61.5 11.9,33.5 42.9,4.1 288.4,4.1 296.2,16.4  "/>
	<polyline class="LiveIndexBorder_st2" id="XMLID_315_" points="443.4,49.5 920,49.5 951.2,73.5  "/>
	<g>
		<polygon class="LiveIndexBorder_st5" id="XMLID_314_" points="323,54.1 316.2,54.1 305.4,36.5 312.2,36.5   "/>
		<polygon class="LiveIndexBorder_st5" id="XMLID_313_" points="334.1,54.1 327.3,54.1 316.5,36.5 323.3,36.5   "/>
		<polygon class="LiveIndexBorder_st5" id="XMLID_312_" points="345.2,54.1 338.4,54.1 327.6,36.5 334.4,36.5   "/>
		<polygon class="LiveIndexBorder_st5" id="XMLID_311_" points="356.3,54.1 349.5,54.1 338.8,36.5 345.5,36.5   "/>
		<polygon class="LiveIndexBorder_st5" id="XMLID_310_" points="367.4,54.1 360.6,54.1 349.9,36.5 356.6,36.5   "/>
		<polygon class="LiveIndexBorder_st5" id="XMLID_309_" points="378.5,54.1 371.7,54.1 361,36.5 367.7,36.5   "/>
		<polygon class="LiveIndexBorder_st5" id="XMLID_308_" points="389.6,54.1 382.9,54.1 372.1,36.5 378.8,36.5   "/>
		<polygon class="LiveIndexBorder_st5" id="XMLID_307_" points="400.7,54.1 394,54.1 383.2,36.5 389.9,36.5   "/>
		<polygon class="LiveIndexBorder_st5" id="XMLID_306_" points="411.8,54.1 405.1,54.1 394.3,36.5 401,36.5   "/>
		<polygon class="LiveIndexBorder_st5" id="XMLID_305_" points="422.9,54.1 416.2,54.1 405.4,36.5 412.1,36.5   "/>
		<polygon class="LiveIndexBorder_st5" id="XMLID_304_" points="434,54.1 427.3,54.1 416.5,36.5 423.2,36.5   "/>
	</g>
</g>
</svg>