<?xml version="1.0" ?><!-- Generator: Adobe Illustrator 19.0.0, SVG Export Plug-In . SVG Version: 6.00 Build 0)  --><svg id="图层_1" style="enable-background:new 0 0 474.9 239;" version="1.1" viewBox="0 0 474.9 239" x="0px" xml:space="preserve" xmlns="http://www.w3.org/2000/svg" xmlns:xlink="http://www.w3.org/1999/xlink" y="0px" zn="空气质量小外框">
<style type="text/css">
	.QualityWaiFrame_st0{fill:#1561C0;fill-opacity:0.4;stroke:#1561C0;stroke-miterlimit:10;}
	.QualityWaiFrame_st1{fill:none;stroke:#00BEFF;stroke-width:3;stroke-miterlimit:10;}
	.QualityWaiFrame_st2{fill:none;stroke:#1561C0;stroke-miterlimit:10;}
	.QualityWaiFrame_st3{fill:none;stroke:#009FE8;stroke-miterlimit:10;}
	.QualityWaiFrame_st4{fill:#00BEFF;}
</style>
<g id="XMLID_212_">
	<polygon class="QualityWaiFrame_st0" id="XMLID_281_" points="257.6,56 27,56 27,40.7 53.2,16.5 235.5,16.5  "/>
	<polyline class="QualityWaiFrame_st1" id="XMLID_279_" points="63.3,237.5 43.6,237.5 9.8,205.2 9.8,189.7  "/>
	<polyline class="QualityWaiFrame_st1" id="XMLID_278_" points="472.9,181.3 472.9,204.4 439,234.5 419,234.5  "/>
	<polygon class="QualityWaiFrame_st2" id="XMLID_277_" points="19.8,37.5 48.8,10.3 240.9,10.3 267.7,55.8 429.3,55.8 462.5,80.3 462.5,200.1    434.6,225.4 47.5,225.4 19.8,200.1  "/>
	<polyline class="QualityWaiFrame_st3" id="XMLID_276_" points="2,187.1 2,209 26.6,232.7  "/>
	<polyline class="QualityWaiFrame_st3" id="XMLID_275_" points="470.9,64 438.9,39.2 404.7,39.8  "/>
	<polyline class="QualityWaiFrame_st1" id="XMLID_274_" points="9.8,59 10.4,30.9 41.3,1.5 246.9,1.5 254.6,13.9  "/>
	<polyline class="QualityWaiFrame_st1" id="XMLID_273_" points="401.9,46.9 434.4,46.9 465.6,71  "/>
	<polygon class="QualityWaiFrame_st4" id="XMLID_272_" points="280,51.6 273.3,51.6 262.5,34 269.3,34  "/>
	<polygon class="QualityWaiFrame_st4" id="XMLID_271_" points="291.1,51.6 284.4,51.6 273.6,34 280.4,34  "/>
	<polygon class="QualityWaiFrame_st4" id="XMLID_270_" points="302.3,51.6 295.5,51.6 284.7,34 291.5,34  "/>
	<polygon class="QualityWaiFrame_st4" id="XMLID_269_" points="313.4,51.6 306.6,51.6 295.8,34 302.6,34  "/>
	<polygon class="QualityWaiFrame_st4" id="XMLID_268_" points="324.5,51.6 317.7,51.6 306.9,34 313.7,34  "/>
	<polygon class="QualityWaiFrame_st4" id="XMLID_267_" points="335.6,51.6 328.8,51.6 318,34 324.8,34  "/>
	<polygon class="QualityWaiFrame_st4" id="XMLID_266_" points="346.7,51.6 339.9,51.6 329.1,34 335.9,34  "/>
	<polygon class="QualityWaiFrame_st4" id="XMLID_265_" points="357.8,51.6 351,51.6 340.2,34 347,34  "/>
	<polygon class="QualityWaiFrame_st4" id="XMLID_264_" points="368.9,51.6 362.1,51.6 351.3,34 358.1,34  "/>
	<polygon class="QualityWaiFrame_st4" id="XMLID_263_" points="380,51.6 373.2,51.6 362.4,34 369.2,34  "/>
	<polygon class="QualityWaiFrame_st4" id="XMLID_262_" points="391.1,51.6 384.3,51.6 373.5,34 380.3,34  "/>
</g>
</svg>