<?xml version="1.0" encoding="utf-8"?>
<!-- Generator: Adobe Illustrator 19.0.0, SVG Export Plug-In . SVG Version: 6.00 Build 0)  -->
<svg version="1.1" id="图层_1" xmlns="http://www.w3.org/2000/svg" xmlns:xlink="http://www.w3.org/1999/xlink" x="0px" y="0px"
	 viewBox="0 0 960 574" style="enable-background:new 0 0 960 574;" xml:space="preserve">
<style type="text/css">
	.srrldBorder0{fill:none;stroke:#009FE8;stroke-miterlimit:10;}
	.srrldBorder1{fill:none;stroke:#00BEFF;stroke-width:3;stroke-miterlimit:10;}
	.srrldBorder2{fill:none;stroke:#1561C0;stroke-miterlimit:10;}
	.srrldBorder3{fill:#00BEFF;}
	.srrldBorder4{fill:none;stroke:#00BEFF;stroke-width:2;stroke-miterlimit:10;}
	.srrldBorder5{fill:#00FFDA;}
	.srrldBorder6{fill-rule:evenodd;clip-rule:evenodd;fill:#00FFDA;}
	.srrldBorder7{fill-rule:evenodd;clip-rule:evenodd;fill:#ACEA00;}
</style>
<g id="XMLID_2_">
	<polyline id="XMLID_29846_" class="srrldBorder0" points="954,42.5 921.9,17.7 887.8,17.7 	"/>
	<polyline id="XMLID_11781_" class="srrldBorder1" points="956,514.3 956,537.4 922.1,567.5 835.1,567.5 	"/>
	<polygon id="XMLID_11780_" class="srrldBorder2" points="21.8,39.4 50.9,12.3 242.9,12.3 269.7,34.3 912.4,34.3 945.6,58.8 945.6,533.1 
		917.7,558.4 49.6,558.4 21.8,533.1 	"/>
	<polyline id="XMLID_11779_" class="srrldBorder0" points="4,520.1 4,542 28.6,565.7 	"/>
	<polyline id="XMLID_29845_" class="srrldBorder1" points="12.5,100 12.4,32.9 43.4,3.5 243.2,3.5 257.6,15.4 	"/>
	<polyline id="XMLID_13777_" class="srrldBorder1" points="274,25.4 917.5,25.4 948.7,49.5 	"/>
	<polygon id="XMLID_13767_" class="srrldBorder3" points="69.5,33.4 66.5,33.4 59.8,18.1 62.8,18.1 	"/>
	<polygon id="XMLID_13726_" class="srrldBorder3" points="76.9,33.4 73.9,33.4 67.2,18.1 70.2,18.1 	"/>
	<polygon id="XMLID_11773_" class="srrldBorder3" points="84.3,33.4 81.3,33.4 74.6,18.1 77.6,18.1 	"/>
	<polygon id="XMLID_11772_" class="srrldBorder3" points="91.7,33.4 88.7,33.4 82,18.1 85,18.1 	"/>
	<polygon id="XMLID_11502_" class="srrldBorder3" points="99.1,33.4 96.1,33.4 89.4,18.1 92.4,18.1 	"/>
	<polygon id="XMLID_11501_" class="srrldBorder3" points="106.5,33.4 103.5,33.4 96.8,18.1 99.8,18.1 	"/>
	<polygon id="XMLID_11499_" class="srrldBorder3" points="113.9,33.4 110.9,33.4 104.2,18.1 107.2,18.1 	"/>
	<polygon id="XMLID_11498_" class="srrldBorder3" points="121.2,33.4 118.2,33.4 111.6,18.1 114.6,18.1 	"/>
	<polygon id="XMLID_11497_" class="srrldBorder3" points="128.6,33.4 125.6,33.4 119,18.1 122,18.1 	"/>
	<polygon id="XMLID_11496_" class="srrldBorder3" points="136,33.4 133,33.4 126.4,18.1 129.4,18.1 	"/>
	<polygon id="XMLID_11493_" class="srrldBorder3" points="143.4,33.4 140.4,33.4 133.8,18.1 136.8,18.1 	"/>
	<polygon id="XMLID_11492_" class="srrldBorder3" points="150.8,33.4 147.8,33.4 141.2,18.1 144.2,18.1 	"/>
	<polygon id="XMLID_11491_" class="srrldBorder3" points="158.2,33.4 155.2,33.4 148.6,18.1 151.6,18.1 	"/>
	<polygon id="XMLID_11487_" class="srrldBorder3" points="165.6,33.4 162.6,33.4 156,18.1 159,18.1 	"/>
	<polygon id="XMLID_11486_" class="srrldBorder3" points="173,33.4 170,33.4 163.4,18.1 166.4,18.1 	"/>
	<polygon id="XMLID_11484_" class="srrldBorder3" points="187.8,33.4 184.8,33.4 178.2,18.1 181.2,18.1 	"/>
	<polygon id="XMLID_11483_" class="srrldBorder3" points="180.4,33.4 177.4,33.4 170.8,18.1 173.8,18.1 	"/>
	<polygon id="XMLID_11482_" class="srrldBorder3" points="195.2,33.4 192.2,33.4 185.5,18.1 188.5,18.1 	"/>
	<polygon id="XMLID_11481_" class="srrldBorder3" points="202.6,33.4 199.6,33.4 192.9,18.1 195.9,18.1 	"/>
	<polygon id="XMLID_11451_" class="srrldBorder3" points="210,33.4 207,33.4 200.3,18.1 203.3,18.1 	"/>
	<polygon id="XMLID_11448_" class="srrldBorder3" points="217.4,33.4 214.4,33.4 207.7,18.1 210.7,18.1 	"/>
	<polygon id="XMLID_850_" class="srrldBorder3" points="224.8,33.4 221.8,33.4 215.1,18.1 218.1,18.1 	"/>
	<polygon id="XMLID_849_" class="srrldBorder3" points="232.2,33.4 229.2,33.4 222.5,18.1 225.5,18.1 	"/>
	<polygon id="XMLID_848_" class="srrldBorder3" points="239.6,33.4 236.6,33.4 229.9,18.1 232.9,18.1 	"/>
	<polyline id="XMLID_847_" class="srrldBorder1" points="280.2,570.5 45.7,570.5 11.8,538.2 11.8,522.7 	"/>
	<g id="XMLID_44687_">
		<line id="XMLID_44690_" class="srrldBorder2" x1="43.5" y1="89.8" x2="923.9" y2="89.8"/>
		<line id="XMLID_44689_" class="srrldBorder4" x1="43.5" y1="89.8" x2="67.3" y2="89.8"/>
		<line id="XMLID_44688_" class="srrldBorder4" x1="900.1" y1="89.8" x2="923.9" y2="89.8"/>
	</g>
	<g id="XMLID_44645_">
		<line id="XMLID_44649_" class="srrldBorder2" x1="316.4" y1="365.1" x2="316.4" y2="533.5"/>
		<path id="XMLID_44648_" class="srrldBorder2" d="M322.6,361.3"/>
		<line id="XMLID_44647_" class="srrldBorder4" x1="316.4" y1="360.5" x2="316.4" y2="372.6"/>
		<line id="XMLID_44646_" class="srrldBorder4" x1="316.4" y1="529.2" x2="316.4" y2="542.4"/>
	</g>
	<g id="XMLID_44641_">
		<line id="XMLID_44644_" class="srrldBorder2" x1="61.8" y1="342.4" x2="901.3" y2="342.4"/>
		<line id="XMLID_44643_" class="srrldBorder4" x1="57.2" y1="342.4" x2="69.4" y2="342.4"/>
		<line id="XMLID_44642_" class="srrldBorder4" x1="896.9" y1="342.4" x2="910.2" y2="342.4"/>
	</g>
	<g id="XMLID_44637_">
		<line id="XMLID_44640_" class="srrldBorder2" x1="175.8" y1="110.4" x2="175.8" y2="310.1"/>
		<line id="XMLID_44639_" class="srrldBorder4" x1="175.8" y1="105.9" x2="175.8" y2="118"/>
		<line id="XMLID_44638_" class="srrldBorder4" x1="175.8" y1="305.7" x2="175.8" y2="319"/>
	</g>
	<g id="XMLID_44633_">
		<line id="XMLID_44636_" class="srrldBorder2" x1="329.8" y1="110.4" x2="329.8" y2="310.1"/>
		<line id="XMLID_44635_" class="srrldBorder4" x1="329.8" y1="105.9" x2="329.8" y2="118"/>
		<line id="XMLID_44634_" class="srrldBorder4" x1="329.8" y1="305.7" x2="329.8" y2="319"/>
	</g>
	<g id="XMLID_44629_">
		<line id="XMLID_44632_" class="srrldBorder2" x1="483.7" y1="110.4" x2="483.7" y2="310.1"/>
		<line id="XMLID_44631_" class="srrldBorder4" x1="483.7" y1="105.9" x2="483.7" y2="118"/>
		<line id="XMLID_44630_" class="srrldBorder4" x1="483.7" y1="305.7" x2="483.7" y2="319"/>
	</g>
	<g id="XMLID_44625_">
		<line id="XMLID_44628_" class="srrldBorder2" x1="637.7" y1="110.4" x2="637.7" y2="310.1"/>
		<line id="XMLID_44627_" class="srrldBorder4" x1="637.7" y1="105.9" x2="637.7" y2="118"/>
		<line id="XMLID_44626_" class="srrldBorder4" x1="637.7" y1="305.7" x2="637.7" y2="319"/>
	</g>
	<g id="XMLID_44621_">
		<line id="XMLID_44624_" class="srrldBorder2" x1="791.7" y1="110.4" x2="791.7" y2="310.1"/>
		<line id="XMLID_44623_" class="srrldBorder4" x1="791.7" y1="105.9" x2="791.7" y2="118"/>
		<line id="XMLID_44622_" class="srrldBorder4" x1="791.7" y1="305.7" x2="791.7" y2="319"/>
	</g>
	<g id="XMLID_44510_">
		<line id="XMLID_44511_" class="srrldBorder2" x1="772.1" y1="378.7" x2="772.1" y2="514.7"/>
	</g>
	<g id="XMLID_44483_">
		<path id="XMLID_43691_" class="srrldBorder5" d="M622.1,398.9l-26.2-16.6l-17,4.2v39.1h4.6v-34.5l6,5.9c0,0,27.5,9.3,28.9,9.8
			c2,0.6,5.1,1,6.3-1.5C626.6,401.5,622.1,398.9,622.1,398.9z M587.5,390.2l-2-2.2l3.7-0.9L587.5,390.2z M599.6,397.7l-5.7-2.3
			c0,0-0.4-6.2,4.6-8l4.7,2.8C603.1,390.2,598.8,392.3,599.6,397.7z M610.7,401.8l-4-1.5c0,0-0.9-4.3,3-6l3.6,2
			C613.2,396.2,610.7,397.7,610.7,401.8z M619.6,404.3c-1.1,0-1.9-0.9-1.9-1.9c0-1.1,0.9-1.9,1.9-1.9s1.9,0.9,1.9,1.9
			C621.5,403.4,620.7,404.3,619.6,404.3z"/>
	</g>
	<g id="XMLID_44426_">
		<path id="XMLID_44478_" class="srrldBorder6" d="M402.9,392.5l-2,0.3c-0.3,0-0.5,0.2-0.5,0.5l0,0.4c0,0.1,0.1,0.1,0.1,0.1l2-0.1
			c0.3,0,0.5-0.3,0.5-0.6l0-0.4C403.1,392.6,403,392.5,402.9,392.5L402.9,392.5z M399.8,391.4c0.1-0.1,0.2-0.2,0.2-0.2
			c0.1-0.2,0.2-0.8,0.1-1.1c0-0.5-0.5-0.7-0.9-0.7c-0.5,0-0.9,0.2-0.9,0.7c0,0.2,0,0.8,0.2,1.1c0,0.1,0.1,0.1,0.2,0.2
			c-2.1,0-4,0-6.5,0.2c-0.1,0-0.1-0.1-0.1-0.1l1.5-1.9c0.1-0.1,0.1-0.1,0.2-0.1c2.7-0.2,3.8-0.2,6.5,0c0.1,0,0.2,0.1,0.2,0.1
			l1.5,1.9c0,0.1,0,0.2-0.1,0.1C401.2,391.5,400.5,391.4,399.8,391.4L399.8,391.4z M393.6,388.7c2.3-0.1,4.6-0.2,6.9,0
			c0.3,0,0.4,0.2,0.5,0.3l1.2,1.5l1.4,0c0.2,0,0.3,0.1,0.4,0.3l0.1,0.5c0,0.1,0,0.1-0.1,0.1l-0.8,0.4l0.3,0.4c0.2,0.3,0.3,0.6,0.3,1
			l0,4.1c0,0.2-0.1,0.3-0.3,0.3l-2.2,0c-0.2,0-0.3-0.1-0.3-0.3l0-0.4l-8,0l0,0.4c0,0.2-0.1,0.3-0.3,0.3l-2.2,0
			c-0.2,0-0.3-0.1-0.3-0.3l0-4.1c0-0.4,0.1-0.8,0.3-1l0.3-0.4l-0.8-0.4c-0.1,0-0.1-0.1-0.1-0.1l0.1-0.5c0-0.2,0.2-0.3,0.4-0.3l1.4,0
			l1.2-1.5C393.1,388.9,393.3,388.8,393.6,388.7L393.6,388.7z M391.2,392.6c-0.1,0-0.2,0.1-0.2,0.2l0,0.4c0,0.3,0.2,0.5,0.5,0.5
			l2,0.1c0.1,0,0.1-0.1,0.1-0.1l0-0.4c0-0.3-0.2-0.4-0.5-0.5L391.2,392.6z"/>
		<g id="XMLID_44428_">
			<g id="XMLID_44463_">
				<g id="XMLID_44471_">
					<polygon id="XMLID_44477_" class="srrldBorder5" points="369.9,419.3 367.6,419.3 376.3,409.9 377.9,409.9 					"/>
					<polygon id="XMLID_44476_" class="srrldBorder5" points="379.9,407.6 378.4,407.6 382.3,403.3 383.5,403.3 					"/>
					<polygon id="XMLID_44475_" class="srrldBorder5" points="384.5,402.1 383.4,402.1 385.6,399.7 386.5,399.7 					"/>
					<polygon id="XMLID_44474_" class="srrldBorder5" points="387.1,399 386.3,399 387.7,397.4 388.4,397.4 					"/>
					<polygon id="XMLID_44473_" class="srrldBorder5" points="388.9,396.9 388.2,396.9 389.2,395.9 389.8,395.9 					"/>
					<polygon id="XMLID_44472_" class="srrldBorder5" points="390.1,395.5 389.5,395.5 390.2,394.7 390.8,394.7 					"/>
				</g>
				<g id="XMLID_44464_">
					<polygon id="XMLID_44470_" class="srrldBorder5" points="426.5,419.3 424.2,419.3 416.2,409.9 417.9,409.9 					"/>
					<polygon id="XMLID_44469_" class="srrldBorder5" points="415.7,407.6 414.3,407.6 410.7,403.3 411.9,403.3 					"/>
					<polygon id="XMLID_44468_" class="srrldBorder5" points="410.7,402.1 409.7,402.1 407.6,399.7 408.5,399.7 					"/>
					<polygon id="XMLID_44467_" class="srrldBorder5" points="407.9,399 407,399 405.7,397.4 406.4,397.4 					"/>
					<polygon id="XMLID_44466_" class="srrldBorder5" points="406,396.9 405.3,396.9 404.4,395.9 405,395.9 					"/>
					<polygon id="XMLID_44465_" class="srrldBorder5" points="404.7,395.5 404.1,395.5 403.4,394.7 403.9,394.7 					"/>
				</g>
			</g>
			<polygon id="XMLID_44462_" class="srrldBorder5" points="376.7,419.1 384.6,419.1 397,410.8 409.9,419.1 417.4,419.1 397,407.2 			"/>
			<polygon id="XMLID_44435_" class="srrldBorder5" points="387.6,404.3 391.3,404.3 397,400.5 403,404.3 406.5,404.3 397,398.8 			"/>
		</g>
	</g>
	<path id="XMLID_44390_" class="srrldBorder6" d="M699.4,385.3c1.3,0,2.5,0.2,3.6,0.5c0.1,0.4,0.9,0.6,1.2,0.3c1.2,0.4,2.3,0.8,3.4,1.4
		c0,0.4,0.7,0.9,1.1,0.6c1,0.7,2,1.4,2.9,2.2c-0.1,0.4,0.5,1,0.9,0.9c0.8,0.9,1.6,1.9,2.2,2.9c-0.2,0.4,0.2,1.1,0.6,1.1
		c0.6,1.1,1,2.2,1.4,3.4c-0.3,0.3-0.1,1.1,0.3,1.2c0.3,1.2,0.4,2.4,0.5,3.6c-0.4,0.2-0.4,1,0,1.3c0,1.3-0.2,2.5-0.5,3.6
		c-0.4,0.1-0.6,0.9-0.3,1.2c-0.4,1.2-0.8,2.3-1.4,3.4c-0.3,0-0.5,0.3-0.6,0.5c-1.2-0.7-2.6-1.8-3.6-2.7c1.1-2,1.7-4.3,1.7-6.8
		c0-7.8-6.3-14.2-14.2-14.2s-14.2,6.4-14.2,14.2c0,7.8,6.4,14.2,14.2,14.2c4.5,0,8.6-2.1,11.2-5.5c-0.2-0.1-0.3-0.2-0.4-0.3
		c-0.6-0.6,0.5-1.9,1.2-1.2c0.3,0.3,2.7,2,3.1,2.3c5.4,3.9,11.7,0.2,10-5.3c-1.4-4.2-2.6-3.5-2-8.9h-1.8v-2.3c-2.3-1-3.9-3.3-3.9-6
		c0-3.6,2.9-6.6,6.6-6.6c3.6,0,6.6,2.9,6.6,6.6c0,2.7-1.6,5-3.9,6v2.3h-1.7c-0.7,4.9,0.6,4.5,1.9,8.3c2.1,6.6-5.2,11.8-11.7,7.9
		c-0.4,0.5-0.8,1-1.2,1.4c-0.4-0.1-1,0.5-0.9,0.9c-0.9,0.8-1.9,1.6-2.9,2.2c-0.4-0.2-1.1,0.2-1.1,0.6c-1.1,0.6-2.2,1-3.4,1.4
		c-0.3-0.3-1.1-0.1-1.2,0.3c-1.2,0.3-2.4,0.4-3.6,0.5c-0.2-0.4-1-0.4-1.3,0c-1.3,0-2.5-0.2-3.6-0.5c-0.1-0.4-0.9-0.6-1.2-0.3
		c-1.2-0.4-2.3-0.8-3.4-1.4c0-0.4-0.7-0.9-1.1-0.6c-1-0.7-2-1.4-2.9-2.2c0.1-0.4-0.5-1-0.9-0.9c-0.8-0.9-1.6-1.9-2.2-2.9
		c0.2-0.4-0.2-1.1-0.6-1.1c-0.6-1.1-1-2.2-1.4-3.4c0.3-0.3,0.1-1.1-0.3-1.2c-0.3-1.2-0.4-2.4-0.5-3.6c0.4-0.2,0.4-1,0-1.3
		c0-1.3,0.2-2.5,0.5-3.6c0.4-0.1,0.6-0.9,0.3-1.2c0.4-1.2,0.8-2.3,1.4-3.4c0.4,0,0.9-0.7,0.6-1.1c0.7-1,1.4-2,2.2-2.9
		c0.4,0.1,1-0.5,0.9-0.9c0.9-0.8,1.9-1.6,2.9-2.2c0.4,0.2,1.1-0.2,1.1-0.6c1.1-0.6,2.2-1,3.4-1.4c0.3,0.3,1.1,0.1,1.2-0.3
		c1.2-0.3,2.4-0.4,3.6-0.5C698.3,385.7,699.1,385.7,699.4,385.3L699.4,385.3z M722.7,386.3c-2.7,0-5,2.2-5,5s2.2,5,5,5s5-2.2,5-5
		S725.4,386.3,722.7,386.3L722.7,386.3z M722.7,387.2c-2.2,0-4,1.8-4,4c0,0.6,0.2,1.3,0.4,1.9c-0.1-0.3-0.1-0.5-0.1-0.8
		c0-2.2,1.6-3.9,3.6-4c0.6,0,1.2,0.2,1.8,0.5l1.3-0.3C724.9,387.7,723.8,387.2,722.7,387.2L722.7,387.2z M723.6,389.5
		c-0.5-0.2-1-0.3-1.6-0.1c-1.1,0.3-1.7,1.5-1.3,2.6c0.3,1.1,1.5,1.7,2.6,1.3c0.9-0.3,1.5-1.1,1.4-2l1.5-1.8l-0.3-0.5L723.6,389.5
		L723.6,389.5z M723.5,390.8c-0.3-0.5-0.9-0.6-1.3-0.3c-0.5,0.3-0.6,0.9-0.3,1.3c0.3,0.5,0.9,0.6,1.3,0.3
		C723.6,391.8,723.8,391.2,723.5,390.8L723.5,390.8z M696.1,402.5c-0.3,0-0.6,0.2-0.7,0.5c0,0.1,0,0.3,0,0.4
		c0.1,0.4,0.5,0.6,0.9,0.5c0.4-0.1,0.6-0.5,0.5-0.9C696.7,402.7,696.4,402.5,696.1,402.5L696.1,402.5z M696.9,405.8
		c-0.3,0-0.6,0.2-0.7,0.5c0,0.1,0,0.3,0,0.4c0.1,0.4,0.5,0.6,0.9,0.5c0.4-0.1,0.6-0.5,0.5-0.9C697.5,406,697.2,405.8,696.9,405.8
		L696.9,405.8z M700.6,405.8c-0.3,0-0.6,0.2-0.7,0.5c-0.1,0.4,0.1,0.8,0.5,0.9c0.1,0,0.3,0,0.4,0c0.4-0.1,0.6-0.5,0.5-0.9
		C701.1,406,700.9,405.8,700.6,405.8L700.6,405.8z M701.3,402.5c-0.3,0-0.6,0.2-0.7,0.5c-0.1,0.4,0.1,0.8,0.5,0.9
		c0.4,0.1,0.8-0.1,0.9-0.5C702.2,402.9,701.8,402.5,701.3,402.5L701.3,402.5z M698.7,400.3c-0.3,0-0.6,0.2-0.7,0.5
		c-0.2,0.5,0.3,1.1,0.9,0.9c0.4-0.1,0.6-0.5,0.5-0.9C699.3,400.5,699,400.3,698.7,400.3L698.7,400.3z M698.7,402.9
		c-0.7,0-1.3,0.6-1.3,1.3c0,0.7,0.6,1.3,1.3,1.3c0.7,0,1.3-0.6,1.3-1.3C700.1,403.5,699.5,402.9,698.7,402.9L698.7,402.9z
		 M709.8,401.9c-0.2-0.2-0.5-0.3-0.8-0.2c-1.6,0.6-3.2,1.5-4.8,2.3c-0.4,0.2-0.9,0.4-1.2,0.6c-0.2,0.2-0.3,0.6-0.3,0.9
		c0,0.4,0.3,0.8,0.6,1.2c0.8,1.6,1.6,3.2,2.5,4.7c0.2,0.3,0.5,0.4,0.8,0.3C709.5,410.8,711.6,404.4,709.8,401.9L709.8,401.9z
		 M700.2,393c-0.3,0.1-0.4,0.4-0.4,0.7c0.1,1.7,0.5,3.5,0.7,5.3c0.1,0.5,0.1,0.9,0.3,1.3c0.2,0.3,0.4,0.5,0.8,0.6
		c0.4,0.1,0.8-0.1,1.3-0.2c1.8-0.3,3.6-0.5,5.2-0.9c0.3-0.1,0.5-0.3,0.5-0.6C708.6,396,703.2,392.1,700.2,393L700.2,393z M697.3,393
		c-3-0.9-8.4,3-8.4,6.1c0,0.3,0.2,0.5,0.5,0.6c1.7,0.4,3.4,0.6,5.2,0.9c0.5,0.1,0.9,0.2,1.3,0.2c0.3-0.1,0.6-0.3,0.8-0.6
		c0.2-0.4,0.2-0.8,0.3-1.3c0.3-1.8,0.6-3.5,0.7-5.3C697.7,393.4,697.5,393.1,697.3,393L697.3,393z M687.7,401.9
		c-1.8,2.5,0.3,8.9,3.2,9.9c0.3,0.1,0.6,0,0.8-0.3c0.9-1.4,1.7-3.1,2.5-4.7c0.2-0.4,0.5-0.8,0.6-1.2c0-0.3-0.1-0.7-0.3-0.9
		c-0.3-0.3-0.7-0.4-1.2-0.6c-1.6-0.8-3.2-1.7-4.8-2.3C688.2,401.6,687.9,401.7,687.7,401.9L687.7,401.9z M693.5,414.1
		c1.9,2.5,8.5,2.5,10.4,0c0.2-0.2,0.1-0.6-0.1-0.8c-1.1-1.3-2.4-2.5-3.7-3.8c-0.3-0.3-0.6-0.7-1-0.9c-0.3-0.1-0.6-0.1-0.9,0
		c-0.4,0.2-0.6,0.6-1,0.9c-1.3,1.3-2.6,2.5-3.7,3.8C693.4,413.6,693.4,413.9,693.5,414.1L693.5,414.1z M698.7,391.4
		c-7.1,0-12.9,5.8-12.9,12.9c0,7.1,5.8,12.9,12.9,12.9c7.1,0,12.9-5.8,12.9-12.9C711.6,397.2,705.8,391.4,698.7,391.4z"/>
	<path id="XMLID_44374_" class="srrldBorder6" d="M506.4,386.2c0.3,0.1,0.6,0.1,0.9,0.2c-0.9,0.2-3,0.9-3.4,1.8c-0.3,0-0.9,0-1.2,0
		C503.6,387,505.1,386.5,506.4,386.2L506.4,386.2z M511.2,390.6l-1.1,0.5c-2.1-0.2-4.6-0.7-6.6-1.7l-0.5-0.2l1.4-0.2
		C506.4,389.9,508.9,390.1,511.2,390.6L511.2,390.6z M519.4,394.7l-1.4,0c0-2-3.6-2.6-4.7-2.9l1.3-0.4
		C515.9,391.7,519.3,392.4,519.4,394.7L519.4,394.7z M510.5,400.6c2.2-1.4,4.7-2.6,6.5-4.7c0.6,0.1,1.3,0.2,1.9,0.2
		c-2,2.3-4.1,3.5-6.4,4.9C511.8,401,511.2,400.8,510.5,400.6L510.5,400.6z M507.3,402.6c0.7,0.2,1.4,0.4,2.1,0.6
		c-3.4,2.3-6.8,4.6-10.2,7.1l-2.1-0.7C500.5,407.1,503.9,404.8,507.3,402.6L507.3,402.6z M516.8,386.4l-4-0.9c-1,0.1-2,0.2-3,0.4
		c-0.2-0.1-0.5-0.2-0.7-0.3c0.9-0.1,1.8-0.2,2.7-0.3l-3.3-0.7l-0.2,0c-4,0.5-8.7,1.4-10.8,3.3c-1.2,1.1-0.7,1.9,0.7,2.6
		c1.6,0.7,4.2,1.3,7,1.9c3.6,0.8,7.6,1.6,0.2,5.4c-11.6,5.9-22.8,12.9-34.1,19.6c4,0.8,8.1,1.6,12.1,2.4l10.2-7.6
		c0.7,0.3,1.5,0.5,2.2,0.7l-9.1,7.5c4.7,0.9,9.3,1.9,13.9,2.8c7.9-7.7,15.4-14.6,23.4-22c3.6-3.3,6.1-6.9,1.9-9.1
		c-2.8-1.5-7.8-2.3-12.3-3.1c-2.1-0.4-4-0.7-3.9-0.9C510.2,386.8,515.4,386.5,516.8,386.4z"/>
	<g id="XMLID_1_">
		<path id="XMLID_44251_" class="srrldBorder7" d="M887.3,397.5l-0.5-1.7c-0.2-0.6-0.8-1.1-1.4-1.1h-5.3l-4.6-5.5c-0.2-0.3-0.8-0.8-1.8-1
			c-10-0.6-15.6-0.6-25.5,0c-1,0.1-1.5,0.7-1.8,1l-4.6,5.5h-5.3c-0.6,0-1.2,0.5-1.4,1.1l-0.5,1.7c-0.1,0.2,0.1,0.3,0.3,0.4l3,1.3
			l-1.2,1.5c-0.7,0.9-1.1,2.1-1.1,3.7c0,7.8,0,12.1,0,14.7c0,0.6,0.5,1.1,1.1,1.1h8.2c0.6,0,1.1-0.5,1.1-1.1v-2.9h29.6v2.9
			c0,0.6,0.5,1.1,1.1,1.1h8.2c0.6,0,1.1-0.5,1.1-1.1c0-2.5,0-6.8,0-14.7c0-1.5-0.3-2.8-1.1-3.7l-1.2-1.5l3-1.3
			C887.2,397.8,887.4,397.7,887.3,397.5z M848.5,406.3c0,0.3-0.2,0.5-0.5,0.5l-7.3-0.3c-1.1,0-1.9-0.9-1.9-2V403
			c0-0.4,0.3-0.7,0.7-0.7l7.3,0.9c0.9,0.1,1.7,0.8,1.7,1.7V406.3z M883.4,404.5c0,1-0.9,1.9-1.9,2l-7.3,0.3c-0.3,0-0.5-0.2-0.5-0.5
			v-1.3c0-0.9,0.8-1.6,1.7-1.7l7.3-0.9c0.4,0,0.7,0.3,0.7,0.7V404.5z"/>
	</g>
</g>
</svg>
