<?xml version="1.0" ?><!-- Generator: Adobe Illustrator 19.0.0, SVG Export Plug-In . SVG Version: 6.00 Build 0)  --><svg id="navImg" style="enable-background:new 0 0 60 24;" version="1.1" viewBox="0 0 60 24" x="0px" xml:space="preserve" xmlns="http://www.w3.org/2000/svg" xmlns:xlink="http://www.w3.org/1999/xlink" y="0px" zn="高速-国道-省道框">
<style type="text/css">
	.Speed_Road_RoadFrame_st0{fill:none;stroke:#00BEFF;stroke-miterlimit:10;}
	.Speed_Road_RoadFrame_st1{opacity:0.3;fill:#05BCFE;}
	.Speed_Road_RoadFrame_st2{fill:none;stroke:#00BEFF;stroke-width:2;stroke-miterlimit:10;}
</style>
<g id="XMLID_1_">
	<polyline class="Speed_Road_RoadFrame_st0" id="XMLID_103_" points="8,1.4 7,2.4 7,4.7 8,5.7 8,17.5 7,18.4 7,20.2 8,21.1  "/>
	<polygon class="Speed_Road_RoadFrame_st0" id="XMLID_95_" points="2.6,1.4 0.8,3.5 0.8,19.1 2.9,21.1 7.4,21.1 29.3,21.1 30.8,22.6 55.9,22.6 58.4,20    58.4,3.1 57,1.4 7.5,1.4  "/>
	<polygon class="Speed_Road_RoadFrame_st1" id="XMLID_94_" points="8,1.4 3.1,1.4 1.2,3.5 1.2,19.1 3.3,21.1 8,21.1 7,20.3 6.9,18.4 8,17.5 8,5.7 7,4.7    7,2.5  "/>
	<polyline class="Speed_Road_RoadFrame_st2" id="XMLID_86_" points="55,1.4 57.4,1.4 58.9,3.1 58.9,20 56.3,22.6 54.3,22.6  "/>
</g>
</svg>