<?xml version="1.0" ?><!-- Generator: Adobe Illustrator 19.0.0, SVG Export Plug-In . SVG Version: 6.00 Build 0)  --><svg id="图层_1" style="enable-background:new 0 0 905 300;" version="1.1" viewBox="0 0 905 300" x="0px" xml:space="preserve" xmlns="http://www.w3.org/2000/svg" xmlns:xlink="http://www.w3.org/1999/xlink" y="0px" zn="综合天气指标外框">
<style type="text/css">
	.SynthesizeWeatherIndexBorder_st0{fill:none;stroke:#1561C0;stroke-miterlimit:10;}
	.SynthesizeWeatherIndexBorder_st1{fill:#00BEFF;}
	.SynthesizeWeatherIndexBorder_st2{fill:none;stroke:#1561C0;stroke-width:5;stroke-miterlimit:10;}
	.SynthesizeWeatherIndexBorder_st3{fill:#1561C0;fill-opacity:0.4;stroke:#1561C0;stroke-miterlimit:10;}
</style>
<g id="XMLID_1_">
	<polygon class="SynthesizeWeatherIndexBorder_st0" id="XMLID_85_" points="890.6,283.7 13.2,285 2.5,275.6 2.5,10.5 8.8,4.2 299.2,4.2 329.6,38.7 895,38.7    902.5,45.5 902.5,274.2  "/>
	<polygon class="SynthesizeWeatherIndexBorder_st1" id="XMLID_84_" points="2,246.3 8.9,252.8 8.9,274.8 17.4,282.9 24.7,282.9 27.5,285.5 13,285.5 2,275.8  "/>
	<polygon class="SynthesizeWeatherIndexBorder_st1" id="XMLID_83_" points="94.6,292.5 34.7,292.5 26.4,284.5 101.7,284.4  "/>
	<g id="XMLID_80_">
		<polygon class="SynthesizeWeatherIndexBorder_st1" id="XMLID_82_" points="903,244.5 897.2,250.7 897.2,272.7 888.7,280.8 880,280.9 876.5,284.2 890.8,284.2     903,274.5   "/>
		<polygon class="SynthesizeWeatherIndexBorder_st1" id="XMLID_81_" points="809.5,291.1 869.4,291.1 877.6,283.1 802.5,283.1   "/>
	</g>
	<polygon class="SynthesizeWeatherIndexBorder_st1" id="XMLID_79_" points="2,44 8.8,37.6 8.8,16.8 14.1,11.1 23.7,11.1 25.6,8.3 54.5,8.3 59.1,3.7 8.8,3.7    2,10.5  "/>
	<polygon class="SynthesizeWeatherIndexBorder_st1" id="XMLID_78_" points="903,78.9 895.5,72.6 895.5,51.8 890.2,46.1 880.6,46.1 878.7,43.3 849.8,43.3    845.2,38.1 895.2,38.1 903,45.3  "/>
	<polyline class="SynthesizeWeatherIndexBorder_st2" id="XMLID_71_" points="267.7,4.2 299.2,4.2 329.5,38.3 375.7,38.3  "/>
	<g id="XMLID_21_">
		<g id="XMLID_58_">
			<circle class="SynthesizeWeatherIndexBorder_st0" cx="716.4" cy="9.2" id="XMLID_70_" r="3.2"/>
			<polyline class="SynthesizeWeatherIndexBorder_st0" id="XMLID_69_" points="844,38.7 819.6,9.2 719.5,9.2    "/>
		</g>
		<g id="XMLID_25_">
			<circle class="SynthesizeWeatherIndexBorder_st0" cx="746.8" cy="18.7" id="XMLID_57_" r="2.1"/>
			<polyline class="SynthesizeWeatherIndexBorder_st0" id="XMLID_56_" points="833.4,38.7 816.8,18.7 748.9,18.7    "/>
		</g>
		<g id="XMLID_22_">
			<polyline class="SynthesizeWeatherIndexBorder_st0" id="XMLID_24_" points="820.7,38.1 811.7,27.2 774.7,27.2    "/>
			<circle class="SynthesizeWeatherIndexBorder_st0" cx="773.6" cy="27.2" id="XMLID_23_" r="1.2"/>
		</g>
	</g>
	<g id="XMLID_18_">
		<circle class="SynthesizeWeatherIndexBorder_st0" cx="249.6" cy="293.2" id="XMLID_20_" r="3.2"/>
		<polyline class="SynthesizeWeatherIndexBorder_st0" id="XMLID_19_" points="138.6,284.8 146.5,293.2 246.6,293.2   "/>
	</g>
	<g id="XMLID_15_">
		<circle class="SynthesizeWeatherIndexBorder_st0" cx="676.3" cy="294" id="XMLID_17_" r="2.1"/>
		<polyline class="SynthesizeWeatherIndexBorder_st0" id="XMLID_16_" points="756.9,284 746.3,294 678.4,294   "/>
	</g>
	<g id="XMLID_6_">
		<polyline class="SynthesizeWeatherIndexBorder_st0" id="XMLID_14_" points="744.2,284 740.2,287.4 703.2,287.4   "/>
		<circle class="SynthesizeWeatherIndexBorder_st0" cx="702" cy="287.4" id="XMLID_13_" r="1.2"/>
	</g>
	<polygon class="SynthesizeWeatherIndexBorder_st3" id="XMLID_2_" points="12.1,19.9 16,14.7 25.7,14.7 28.1,11.4 55.6,11.4 59.2,7.8 261.7,7.5 267.8,11.1    295,10.9 310.1,27.3 310.6,41.4 12.6,41.4  "/>
</g>
</svg>