<?xml version="1.0" encoding="utf-8"?>
<!-- Generator: Adobe Illustrator 19.0.0, SVG Export Plug-In . SVG Version: 6.00 Build 0)  -->
<svg version="1.1" id="图层_1" xmlns="http://www.w3.org/2000/svg" xmlns:xlink="http://www.w3.org/1999/xlink" x="0px" y="0px"
	 viewBox="0 0 955 616.9" style="enable-background:new 0 0 955 616.9;" xml:space="preserve">
<style type="text/css">
	.st0{fill:none;stroke:#00BEFF;stroke-width:2;stroke-miterlimit:10;}
	.st1{fill:none;stroke:#00BEFF;stroke-miterlimit:10;}
	.st2{fill:#1561C0;fill-opacity:0.4;stroke:#1561C0;stroke-miterlimit:10;}
	.st3{fill:none;stroke:#00BEFF;stroke-width:3;stroke-miterlimit:10;}
	.st4{fill:none;stroke:#1561C0;stroke-miterlimit:10;}
	.st5{fill:none;stroke:#009FE8;stroke-miterlimit:10;}
	.st6{fill:#00BEFF;}
</style>
<g id="XMLID_322_">
	<g id="XMLID_4371_">
		<line id="XMLID_4374_" class="st0" x1="151.2" y1="87.3" x2="151.2" y2="97.5"/>
		<line id="XMLID_4373_" class="st0" x1="151.2" y1="562.3" x2="151.2" y2="572.5"/>
	</g>
	<line id="XMLID_12844_" class="st1" x1="151.2" y1="87.3" x2="151.2" y2="572.5"/>
	<polygon id="XMLID_12851_" class="st2" points="314.7,64.8 26.5,64.8 26.5,49.5 52.7,25.3 292.5,25.3 	"/>
	<polyline id="XMLID_12845_" class="st3" points="160.5,607.2 43.2,607.2 9.3,574.9 9.3,559.4 	"/>
	<polyline id="XMLID_12843_" class="st3" points="953.5,551 953.5,574 919.6,604.2 882.9,604.2 	"/>
	<polygon id="XMLID_12842_" class="st4" points="19.3,45.7 48.4,18.6 298.6,18.6 326.1,65.1 909.9,65.1 943.1,89.6 943.1,569.8 
		915.2,595.1 47.1,595.1 19.3,569.8 	"/>
	<polyline id="XMLID_12841_" class="st5" points="1.5,556.8 1.5,578.7 26.1,602.3 	"/>
	<polyline id="XMLID_12840_" class="st5" points="951.5,73.3 919.4,48.5 885.3,48.5 	"/>
	<polyline id="XMLID_12839_" class="st3" points="9.3,71 9.9,39.2 40.9,9.8 303.7,9.8 315.8,28.5 	"/>
	<polyline id="XMLID_12838_" class="st3" points="454.8,56.2 915,56.2 946.2,80.3 	"/>
	<g id="XMLID_6255_">
		<polygon id="XMLID_6277_" class="st6" points="338.3,60.9 331.5,60.9 320.7,43.3 327.5,43.3 		"/>
		<polygon id="XMLID_6275_" class="st6" points="349.4,60.9 342.6,60.9 331.8,43.3 338.6,43.3 		"/>
		<polygon id="XMLID_6271_" class="st6" points="360.5,60.9 353.7,60.9 342.9,43.3 349.7,43.3 		"/>
		<polygon id="XMLID_6269_" class="st6" points="371.6,60.9 364.8,60.9 354.1,43.3 360.8,43.3 		"/>
		<polygon id="XMLID_6268_" class="st6" points="382.7,60.9 375.9,60.9 365.2,43.3 371.9,43.3 		"/>
		<polygon id="XMLID_6267_" class="st6" points="393.8,60.9 387.1,60.9 376.3,43.3 383,43.3 		"/>
		<polygon id="XMLID_6265_" class="st6" points="404.9,60.9 398.2,60.9 387.4,43.3 394.1,43.3 		"/>
		<polygon id="XMLID_6263_" class="st6" points="416,60.9 409.3,60.9 398.5,43.3 405.2,43.3 		"/>
		<polygon id="XMLID_6261_" class="st6" points="427.1,60.9 420.4,60.9 409.6,43.3 416.3,43.3 		"/>
		<polygon id="XMLID_6259_" class="st6" points="438.2,60.9 431.5,60.9 420.7,43.3 427.4,43.3 		"/>
		<polygon id="XMLID_6257_" class="st6" points="449.3,60.9 442.6,60.9 431.8,43.3 438.5,43.3 		"/>
	</g>
	<g id="XMLID_4351_">
		<line id="XMLID_4370_" class="st1" x1="283.2" y1="87.3" x2="283.2" y2="572.5"/>
		<g id="XMLID_4353_">
			<line id="XMLID_4368_" class="st0" x1="283.2" y1="87.3" x2="283.2" y2="97.5"/>
			<line id="XMLID_4366_" class="st0" x1="283.2" y1="562.3" x2="283.2" y2="572.5"/>
		</g>
	</g>
	<g id="XMLID_4336_">
		<line id="XMLID_4346_" class="st1" x1="415.1" y1="87.3" x2="415.1" y2="572.5"/>
		<g id="XMLID_4340_">
			<line id="XMLID_4345_" class="st0" x1="415.1" y1="87.3" x2="415.1" y2="97.5"/>
			<line id="XMLID_4343_" class="st0" x1="415.1" y1="562.3" x2="415.1" y2="572.5"/>
		</g>
	</g>
	<g id="XMLID_4319_">
		<line id="XMLID_4332_" class="st1" x1="547" y1="87.3" x2="547" y2="572.5"/>
		<g id="XMLID_4322_">
			<line id="XMLID_4331_" class="st0" x1="547" y1="87.3" x2="547" y2="97.5"/>
			<line id="XMLID_4329_" class="st0" x1="547" y1="562.3" x2="547" y2="572.5"/>
		</g>
	</g>
	<g id="XMLID_3972_">
		<line id="XMLID_3981_" class="st1" x1="678.9" y1="87.3" x2="678.9" y2="572.5"/>
		<g id="XMLID_3973_">
			<line id="XMLID_3977_" class="st0" x1="678.9" y1="87.3" x2="678.9" y2="97.5"/>
			<line id="XMLID_3975_" class="st0" x1="678.9" y1="562.3" x2="678.9" y2="572.5"/>
		</g>
	</g>
	<g id="XMLID_3399_">
		<line id="XMLID_3971_" class="st1" x1="810.8" y1="87.3" x2="810.8" y2="572.5"/>
		<g id="XMLID_3401_">
			<line id="XMLID_3969_" class="st0" x1="810.8" y1="87.3" x2="810.8" y2="97.5"/>
			<line id="XMLID_3411_" class="st0" x1="810.8" y1="562.3" x2="810.8" y2="572.5"/>
		</g>
	</g>
</g>
</svg>
