<?xml version="1.0" encoding="utf-8"?>
<!-- Generator: Adobe Illustrator 19.0.0, SVG Export Plug-In . SVG Version: 6.00 Build 0)  -->
<svg version="1.1" id="图层_1" xmlns="http://www.w3.org/2000/svg" xmlns:xlink="http://www.w3.org/1999/xlink" x="0px" y="0px"
	 viewBox="0 0 960 194" style="enable-background:new 0 0 960 194;" xml:space="preserve">
<style type="text/css">
	.trifficWABorder0{opacity:0.4;}
	.trifficWABorder1{clip-path:url(#XMLID_16_);fill:#1561C0;}
	.trifficWABorder2{fill:none;stroke:#1561C0;stroke-miterlimit:10;}
	.trifficWABorder3{fill:none;stroke:#00BEFF;stroke-width:3;stroke-miterlimit:10;}
	.trifficWABorder4{fill:none;stroke:#009FE8;stroke-miterlimit:10;}
	.trifficWABorder5{fill:#00BEFF;}
</style>
<g id="XMLID_1_">
	<g id="XMLID_187_" class="trifficWABorder0">
		<g id="XMLID_188_">
			<defs>
				<rect id="XMLID_189_" x="29.9" y="16.7" width="446.2" height="39.4"/>
			</defs>
			<clipPath id="XMLID_16_">
				<use xlink:href="#XMLID_189_"  style="overflow:visible;"/>
			</clipPath>
			<polygon id="XMLID_190_" class="trifficWABorder1" points="476.1,56.2 29.9,56.2 29.9,40.9 56.2,16.7 454,16.7 			"/>
		</g>
	</g>
	<polygon id="XMLID_186_" class="trifficWABorder2" points="476.1,56.2 29.9,56.2 29.9,40.9 56.2,16.7 454,16.7 	"/>
	<polyline id="XMLID_185_" class="trifficWABorder3" points="161.8,192.3 44.2,192.3 10.3,160 10.3,144.5 	"/>
	<polyline id="XMLID_184_" class="trifficWABorder3" points="957.5,136.1 957.5,159.2 923.6,189.3 879.5,189.4 	"/>
	<polygon id="XMLID_183_" class="trifficWABorder2" points="20.3,37.6 49.4,10.5 460,10.5 486.8,56 913.9,56 947.1,80.5 947.1,154.9 919.2,180.2 
		48.1,180.2 20.3,154.9 	"/>
	<polyline id="XMLID_182_" class="trifficWABorder4" points="2.5,141.9 2.5,163.8 27.1,187.5 	"/>
	<polyline id="XMLID_181_" class="trifficWABorder4" points="955.5,64.2 923.4,39.4 889.3,39.4 	"/>
	<polyline id="XMLID_180_" class="trifficWABorder3" points="10.9,59.1 10.9,31.1 41.9,1.7 466,1.7 473.7,14.1 	"/>
	<polyline id="XMLID_179_" class="trifficWABorder3" points="623.3,47.1 919,47.1 950.2,71.2 	"/>
	<polygon id="XMLID_178_" class="trifficWABorder5" points="504.7,51.8 497.9,51.8 487.1,34.2 493.9,34.2 	"/>
	<polygon id="XMLID_177_" class="trifficWABorder5" points="515.8,51.8 509,51.8 498.2,34.2 505,34.2 	"/>
	<polygon id="XMLID_176_" class="trifficWABorder5" points="526.9,51.8 520.1,51.8 509.3,34.2 516.1,34.2 	"/>
	<polygon id="XMLID_175_" class="trifficWABorder5" points="538,51.8 531.2,51.8 520.4,34.2 527.2,34.2 	"/>
	<polygon id="XMLID_174_" class="trifficWABorder5" points="549.1,51.8 542.3,51.8 531.5,34.2 538.3,34.2 	"/>
	<polygon id="XMLID_173_" class="trifficWABorder5" points="560.2,51.8 553.4,51.8 542.6,34.2 549.4,34.2 	"/>
	<polygon id="XMLID_172_" class="trifficWABorder5" points="571.3,51.8 564.5,51.8 553.7,34.2 560.5,34.2 	"/>
	<polygon id="XMLID_171_" class="trifficWABorder5" points="582.4,51.8 575.6,51.8 564.8,34.2 571.6,34.2 	"/>
	<polygon id="XMLID_170_" class="trifficWABorder5" points="593.5,51.8 586.7,51.8 575.9,34.2 582.7,34.2 	"/>
	<polygon id="XMLID_169_" class="trifficWABorder5" points="604.6,51.8 597.8,51.8 587,34.2 593.8,34.2 	"/>
	<polygon id="XMLID_168_" class="trifficWABorder5" points="615.7,51.8 608.9,51.8 598.1,34.2 604.9,34.2 	"/>
</g>
</svg>
