<?xml version="1.0" encoding="utf-8"?>
<!-- Generator: Adobe Illustrator 19.0.0, SVG Export Plug-In . SVG Version: 6.00 Build 0)  -->
<svg version="1.1" id="图层_1" xmlns="http://www.w3.org/2000/svg" xmlns:xlink="http://www.w3.org/1999/xlink" x="0px" y="0px"
	 viewBox="0 0 958 262" style="enable-background:new 0 0 958 262;" xml:space="preserve">
<style type="text/css">
	.tfcStationBorder0{fill:#1561C0;fill-opacity:0.4;stroke:#1561C0;stroke-miterlimit:10;}
	.tfcStationBorder1{fill:none;stroke:#00BEFF;stroke-width:3;stroke-miterlimit:10;}
	.tfcStationBorder2{fill:none;stroke:#1561C0;stroke-miterlimit:10;}
	.tfcStationBorder3{fill:none;stroke:#009FE8;stroke-miterlimit:10;}
	.tfcStationBorder4{fill:#00BEFF;}
	.tfcStationBorder5{fill:none;stroke:#00BEFF;stroke-miterlimit:10;}
	.tfcStationBorder6{fill:none;stroke:#00BEFF;stroke-width:2;stroke-miterlimit:10;}
</style>
<g id="XMLID_2_">
	<polygon id="XMLID_43725_" class="tfcStationBorder0" points="318.4,56.6 28.9,56.6 28.9,41.3 55.2,17.1 296.3,17.1 	"/>
	<polyline id="XMLID_43724_" class="tfcStationBorder1" points="160.8,259.9 43.2,259.9 9.3,227.7 9.3,212.1 	"/>
	<polyline id="XMLID_43723_" class="tfcStationBorder1" points="956.5,203.7 956.5,226.8 922.6,256.9 878.5,257.3 	"/>
	<polygon id="XMLID_43722_" class="tfcStationBorder2" points="19.3,38 48.4,10.9 302.3,10.9 329.1,56.4 912.9,56.4 946.1,80.9 946.1,222.5 
		918.2,247.8 47.1,247.8 19.3,222.5 	"/>
	<polyline id="XMLID_43721_" class="tfcStationBorder3" points="1.5,209.5 1.5,231.4 26.1,255.1 	"/>
	<polyline id="XMLID_43720_" class="tfcStationBorder3" points="954.5,64.5 922.4,39.8 888.3,39.8 	"/>
	<polyline id="XMLID_43719_" class="tfcStationBorder1" points="9.3,59.5 9.9,31.5 40.9,2.1 308.3,2.1 316,14.5 	"/>
	<polyline id="XMLID_43718_" class="tfcStationBorder1" points="463.3,47.5 918,47.5 949.2,71.6 	"/>
	<g id="XMLID_43706_">
		<polygon id="XMLID_43717_" class="tfcStationBorder4" points="342.8,52.2 336.1,52.2 325.3,34.6 332,34.6 		"/>
		<polygon id="XMLID_43716_" class="tfcStationBorder4" points="353.9,52.2 347.2,52.2 336.4,34.6 343.1,34.6 		"/>
		<polygon id="XMLID_43715_" class="tfcStationBorder4" points="365,52.2 358.3,52.2 347.5,34.6 354.2,34.6 		"/>
		<polygon id="XMLID_43714_" class="tfcStationBorder4" points="376.1,52.2 369.4,52.2 358.6,34.6 365.4,34.6 		"/>
		<polygon id="XMLID_43713_" class="tfcStationBorder4" points="387.2,52.2 380.5,52.2 369.7,34.6 376.5,34.6 		"/>
		<polygon id="XMLID_43712_" class="tfcStationBorder4" points="398.4,52.2 391.6,52.2 380.8,34.6 387.6,34.6 		"/>
		<polygon id="XMLID_43711_" class="tfcStationBorder4" points="409.5,52.2 402.7,52.2 391.9,34.6 398.7,34.6 		"/>
		<polygon id="XMLID_43710_" class="tfcStationBorder4" points="420.6,52.2 413.8,52.2 403,34.6 409.8,34.6 		"/>
		<polygon id="XMLID_43709_" class="tfcStationBorder4" points="431.7,52.2 424.9,52.2 414.1,34.6 420.9,34.6 		"/>
		<polygon id="XMLID_43708_" class="tfcStationBorder4" points="442.8,52.2 436,52.2 425.2,34.6 432,34.6 		"/>
		<polygon id="XMLID_43707_" class="tfcStationBorder4" points="453.9,52.2 447.1,52.2 436.3,34.6 443.1,34.6 		"/>
	</g>
	<g id="XMLID_227_">
		<line id="XMLID_230_" class="tfcStationBorder2" x1="207.5" y1="125.9" x2="207.5" y2="229.2"/>
		<line id="XMLID_229_" class="tfcStationBorder5" x1="207.5" y1="122.4" x2="207.5" y2="129.8"/>
		<line id="XMLID_228_" class="tfcStationBorder5" x1="207.5" y1="226.2" x2="207.5" y2="233.6"/>
	</g>
	<g id="XMLID_223_">
		<line id="XMLID_226_" class="tfcStationBorder2" x1="390.1" y1="125.9" x2="390.1" y2="229.2"/>
		<line id="XMLID_225_" class="tfcStationBorder5" x1="390.1" y1="122.4" x2="390.1" y2="129.8"/>
		<line id="XMLID_224_" class="tfcStationBorder5" x1="390.1" y1="226.2" x2="390.1" y2="233.6"/>
	</g>
	<g id="XMLID_219_">
		<line id="XMLID_222_" class="tfcStationBorder2" x1="572.7" y1="125.9" x2="572.7" y2="229.2"/>
		<line id="XMLID_221_" class="tfcStationBorder5" x1="572.7" y1="122.4" x2="572.7" y2="129.8"/>
		<line id="XMLID_220_" class="tfcStationBorder5" x1="572.7" y1="226.2" x2="572.7" y2="233.6"/>
	</g>
	<g id="XMLID_215_">
		<line id="XMLID_218_" class="tfcStationBorder2" x1="755.2" y1="125.9" x2="755.2" y2="229.2"/>
		<line id="XMLID_217_" class="tfcStationBorder5" x1="755.2" y1="122.4" x2="755.2" y2="129.8"/>
		<line id="XMLID_216_" class="tfcStationBorder5" x1="755.2" y1="226.2" x2="755.2" y2="233.6"/>
	</g>
	<g id="XMLID_1_">
		<line id="XMLID_6_" class="tfcStationBorder2" x1="44.1" y1="109.1" x2="921.3" y2="109.1"/>
		<line id="XMLID_4_" class="tfcStationBorder6" x1="44.1" y1="109.1" x2="67.8" y2="109.1"/>
	</g>
	<line id="XMLID_3_" class="tfcStationBorder6" x1="902.1" y1="109.1" x2="925.9" y2="109.1"/>
</g>
</svg>
