<?xml version="1.0" ?><!-- Generator: Adobe Illustrator 19.0.0, SVG Export Plug-In . SVG Version: 6.00 Build 0)  --><svg id="图层_1" style="enable-background:new 0 0 953.3 676.7;" version="1.1" viewBox="0 0 953.3 676.7" x="0px" xml:space="preserve" xmlns="http://www.w3.org/2000/svg" xmlns:xlink="http://www.w3.org/1999/xlink" y="0px" zn="预警信息滚动框">
<style type="text/css">
	.WarningMessageRollFrame_st0{fill:#1561C0;fill-opacity:0.4;stroke:#1561C0;stroke-miterlimit:10;}
	.WarningMessageRollFrame_st1{fill:none;stroke:#00BEFF;stroke-width:3;stroke-miterlimit:10;}
	.WarningMessageRollFrame_st2{fill:none;stroke:#1561C0;stroke-miterlimit:10;}
	.WarningMessageRollFrame_st3{fill:none;stroke:#009FE8;stroke-miterlimit:10;}
	.WarningMessageRollFrame_st4{fill:#00BEFF;}
</style>
<g id="XMLID_314_">
	<polygon class="WarningMessageRollFrame_st0" id="XMLID_458_" points="296.9,58.4 29.3,58.4 29.3,43.1 55.5,18.9 274.8,18.9  "/>
	<g id="XMLID_398_">
		<polyline class="WarningMessageRollFrame_st1" id="XMLID_456_" points="63.2,672.8 43.5,672.8 9.7,640.5 9.7,625   "/>
		<polyline class="WarningMessageRollFrame_st1" id="XMLID_422_" points="951.4,616.6 951.4,639.6 917.5,669.8 897.5,669.8   "/>
		<polygon class="WarningMessageRollFrame_st2" id="XMLID_421_" points="19.7,39.8 48.7,12.7 280.8,12.7 307.6,58.2 907.8,58.2 941,82.7 941,635.4     913.1,660.7 47.4,660.7 19.7,635.4   "/>
		<polyline class="WarningMessageRollFrame_st3" id="XMLID_411_" points="1.9,622.4 1.9,644.3 26.5,667.9   "/>
		<polyline class="WarningMessageRollFrame_st3" id="XMLID_403_" points="949.4,66.3 917.4,41.6 883.2,42.2   "/>
		<polyline class="WarningMessageRollFrame_st1" id="XMLID_401_" points="9.7,61.3 10.3,33.3 41.2,3.9 286.8,3.9 294.5,16.3   "/>
		<polyline class="WarningMessageRollFrame_st1" id="XMLID_400_" points="441.8,49.3 912.9,49.3 944.1,73.4   "/>
	</g>
	<g id="XMLID_315_">
		<polygon class="WarningMessageRollFrame_st4" id="XMLID_397_" points="321.3,54 314.6,54 303.8,36.4 310.5,36.4   "/>
		<polygon class="WarningMessageRollFrame_st4" id="XMLID_352_" points="332.4,54 325.7,54 314.9,36.4 321.6,36.4   "/>
		<polygon class="WarningMessageRollFrame_st4" id="XMLID_348_" points="343.5,54 336.8,54 326,36.4 332.7,36.4   "/>
		<polygon class="WarningMessageRollFrame_st4" id="XMLID_325_" points="354.6,54 347.9,54 337.1,36.4 343.8,36.4   "/>
		<polygon class="WarningMessageRollFrame_st4" id="XMLID_323_" points="365.7,54 359,54 348.2,36.4 354.9,36.4   "/>
		<polygon class="WarningMessageRollFrame_st4" id="XMLID_321_" points="376.8,54 370.1,54 359.3,36.4 366,36.4   "/>
		<polygon class="WarningMessageRollFrame_st4" id="XMLID_320_" points="387.9,54 381.2,54 370.4,36.4 377.1,36.4   "/>
		<polygon class="WarningMessageRollFrame_st4" id="XMLID_319_" points="399,54 392.3,54 381.5,36.4 388.2,36.4   "/>
		<polygon class="WarningMessageRollFrame_st4" id="XMLID_318_" points="410.1,54 403.4,54 392.6,36.4 399.3,36.4   "/>
		<polygon class="WarningMessageRollFrame_st4" id="XMLID_317_" points="421.2,54 414.5,54 403.7,36.4 410.4,36.4   "/>
		<polygon class="WarningMessageRollFrame_st4" id="XMLID_316_" points="432.3,54 425.6,54 414.8,36.4 421.6,36.4   "/>
	</g>
</g>
</svg>