<?xml version="1.0" encoding="utf-8"?>
<!-- Generator: Adobe Illustrator 19.0.0, SVG Export Plug-In . SVG Version: 6.00 Build 0)  -->
<svg version="1.1" id="图层_1" xmlns="http://www.w3.org/2000/svg" xmlns:xlink="http://www.w3.org/1999/xlink" x="0px" y="0px"
	 viewBox="0 0 956 230" style="enable-background:new 0 0 956 230;" xml:space="preserve">
<style type="text/css">
	.st0_0{fill:#1561C0;fill-opacity:0.4;stroke:#1561C0;stroke-miterlimit:10;}
	.st1_0{fill:none;stroke:#00BEFF;stroke-width:3;stroke-miterlimit:10;}
	.st2_0{fill:none;stroke:#1561C0;stroke-miterlimit:10;}
	.st3_0{fill:none;stroke:#009FE8;stroke-miterlimit:10;}
	.st4_0{fill:#00BEFF;}
</style>
<g id="XMLID_2232_">
	<polygon id="XMLID_12921_" class="st0_0" points="298.3,58.2 30.6,58.2 30.6,43 56.9,18.8 276.2,18.8 	"/>
	<polyline id="XMLID_12924_" class="st1_0" points="162.3,226.2 44.9,226.2 11,194 11,178.4 	"/>
	<polyline id="XMLID_12925_" class="st1_0" points="952.8,170.1 952.8,193.1 918.8,223.2 880,223.2 	"/>
	<polygon id="XMLID_12926_" class="st2_0" points="21.1,39.7 50.1,12.6 282.1,12.6 308.9,58.1 909.1,58.1 942.4,82.6 942.4,188.9 
		914.5,214.1 48.8,214.1 21.1,188.9 	"/>
	<polyline id="XMLID_12927_" class="st3_0" points="3.2,175.8 3.2,197.7 27.9,221.4 	"/>
	<polyline id="XMLID_3308_" class="st3_0" points="950.8,66.2 918.7,41.4 884.6,41.4 	"/>
	<polyline id="XMLID_12928_" class="st1_0" points="11,61.2 11.6,33.2 42.6,3.8 288.1,3.8 295.9,16.1 	"/>
	<polyline id="XMLID_12929_" class="st1_0" points="443.1,49.2 914.2,49.2 945.5,73.2 	"/>
	<g id="XMLID_12930_">
		<polygon id="XMLID_12931_" class="st4_0" points="322.7,53.8 316,53.8 305.2,36.2 311.9,36.2 		"/>
		<polygon id="XMLID_12932_" class="st4_0" points="333.8,53.8 327.1,53.8 316.3,36.2 323,36.2 		"/>
		<polygon id="XMLID_12933_" class="st4_0" points="344.9,53.8 338.2,53.8 327.4,36.2 334.1,36.2 		"/>
		<polygon id="XMLID_12934_" class="st4_0" points="356,53.8 349.3,53.8 338.5,36.2 345.2,36.2 		"/>
		<polygon id="XMLID_12935_" class="st4_0" points="367.1,53.8 360.4,53.8 349.6,36.2 356.3,36.2 		"/>
		<polygon id="XMLID_12936_" class="st4_0" points="378.2,53.8 371.5,53.8 360.7,36.2 367.4,36.2 		"/>
		<polygon id="XMLID_12937_" class="st4_0" points="389.3,53.8 382.6,53.8 371.8,36.2 378.5,36.2 		"/>
		<polygon id="XMLID_12938_" class="st4_0" points="400.4,53.8 393.7,53.8 382.9,36.2 389.6,36.2 		"/>
		<polygon id="XMLID_12939_" class="st4_0" points="411.5,53.8 404.8,53.8 394,36.2 400.7,36.2 		"/>
		<polygon id="XMLID_12940_" class="st4_0" points="422.6,53.8 415.9,53.8 405.1,36.2 411.8,36.2 		"/>
		<polygon id="XMLID_12941_" class="st4_0" points="433.7,53.8 427,53.8 416.2,36.2 422.9,36.2 		"/>
	</g>
</g>
</svg>
