<?xml version="1.0" encoding="utf-8"?>
<!-- Generator: Adobe Illustrator 19.0.0, SVG Export Plug-In . SVG Version: 6.00 Build 0)  -->
<svg version="1.1" id="图层_1" xmlns="http://www.w3.org/2000/svg" xmlns:xlink="http://www.w3.org/1999/xlink" x="0px" y="0px"
	 viewBox="0 0 960 248" style="enable-background:new 0 0 960 248;" xml:space="preserve">
<style type="text/css">
	.st0{fill:#1561C0;fill-opacity:0.4;stroke:#1561C0;stroke-miterlimit:10;}
	.st1{fill:none;stroke:#00BEFF;stroke-width:3;stroke-miterlimit:10;}
	.st2{fill:none;stroke:#1561C0;stroke-miterlimit:10;}
	.st3{fill:none;stroke:#009FE8;stroke-miterlimit:10;}
	.st4{fill:#00BEFF;}
</style>
<g id="XMLID_43919_">
	<polygon id="XMLID_43939_" class="st0" points="374.2,56.7 29.9,56.7 29.9,41.4 56.2,17.2 352.1,17.2 	"/>
	<polyline id="XMLID_43938_" class="st1" points="161.8,245.8 44.2,245.8 10.3,213.5 10.3,198 	"/>
	<polyline id="XMLID_43937_" class="st1" points="957.5,189.6 957.5,212.7 923.6,242.8 879.5,242.8 	"/>
	<polygon id="XMLID_43936_" class="st2" points="20.3,38.1 49.4,11 358.1,11 384.9,56.5 913.9,56.5 947.1,81 947.1,208.4 
		919.2,233.7 48.1,233.7 20.3,208.4 	"/>
	<polyline id="XMLID_43935_" class="st3" points="2.5,195.4 2.5,217.3 27.1,241 	"/>
	<polyline id="XMLID_43934_" class="st3" points="955.5,64.7 923.4,39.9 889.3,39.9 	"/>
	<polyline id="XMLID_43933_" class="st1" points="10.9,59.6 10.9,31.6 41.9,2.2 364.1,2.2 371.8,14.6 	"/>
	<polyline id="XMLID_43932_" class="st1" points="521.4,47.6 919,47.6 950.2,71.7 	"/>
	<g id="XMLID_43920_">
		<polygon id="XMLID_43931_" class="st4" points="402.8,52.3 396,52.3 385.2,34.7 392,34.7 		"/>
		<polygon id="XMLID_43930_" class="st4" points="413.9,52.3 407.1,52.3 396.3,34.7 403.1,34.7 		"/>
		<polygon id="XMLID_43929_" class="st4" points="425,52.3 418.2,52.3 407.4,34.7 414.2,34.7 		"/>
		<polygon id="XMLID_43928_" class="st4" points="436.1,52.3 429.3,52.3 418.5,34.7 425.3,34.7 		"/>
		<polygon id="XMLID_43927_" class="st4" points="447.2,52.3 440.4,52.3 429.6,34.7 436.4,34.7 		"/>
		<polygon id="XMLID_43926_" class="st4" points="458.3,52.3 451.5,52.3 440.7,34.7 447.5,34.7 		"/>
		<polygon id="XMLID_43925_" class="st4" points="469.4,52.3 462.6,52.3 451.8,34.7 458.6,34.7 		"/>
		<polygon id="XMLID_43924_" class="st4" points="480.5,52.3 473.7,52.3 462.9,34.7 469.7,34.7 		"/>
		<polygon id="XMLID_43923_" class="st4" points="491.6,52.3 484.8,52.3 474,34.7 480.8,34.7 		"/>
		<polygon id="XMLID_43922_" class="st4" points="502.7,52.3 495.9,52.3 485.1,34.7 491.9,34.7 		"/>
		<polygon id="XMLID_43921_" class="st4" points="513.8,52.3 507,52.3 496.2,34.7 503,34.7 		"/>
	</g>
</g>
</svg>
