<?xml version="1.0" encoding="utf-8"?>
<!-- Generator: Adobe Illustrator 19.0.0, SVG Export Plug-In . SVG Version: 6.00 Build 0)  -->
<svg version="1.1" id="图层_1" xmlns="http://www.w3.org/2000/svg" xmlns:xlink="http://www.w3.org/1999/xlink" x="0px" y="0px"
	 viewBox="0 0 300 68" style="enable-background:new 0 0 300 68;" xml:space="preserve">
<style type="text/css">
	.st0{fill:#00BEFF;}
</style>
<g id="XMLID_11432_">
	<polygon id="XMLID_11447_" class="st0" points="13.7,7.4 3.7,16.8 3.7,11 7,7.4 	"/>
	<polygon id="XMLID_11446_" class="st0" points="294.2,61.4 290,64.3 281.9,64.3 294.2,54.9 	"/>
	<path id="XMLID_11433_" class="st0" d="M1.4,59.2l5.4,4.7l5.9,0l3.2,3.1h277.2l5.5-4l0-41.2l-2.9-6.3V5.5L292.4,1h-64.7l-4.4,4.1
		H5.6l-4.2,5L1.4,59.2z M2.4,10.4l3.8-4.3h208.1l5.4,3.8h44.8l1.9-3.3h23.2l2.4,3.5v21.3l3.8,5.1v25.5l-5.5,3.9H50.7L46.8,62H13.2
		l-1.7-1.6l-4.3,0l-2.5-2.3v-18l-2.2-2.2L2.4,10.4z"/>
</g>
</svg>
