<?xml version="1.0" encoding="utf-8"?>
<!-- Generator: Adobe Illustrator 19.0.0, SVG Export Plug-In . SVG Version: 6.00 Build 0)  -->
<svg version="1.1" id="center_main_frame_ruler_top_center" xmlns="http://www.w3.org/2000/svg" xmlns:xlink="http://www.w3.org/1999/xlink" x="0px" y="0px"
	 viewBox="0 0 625 15" style="enable-background:new 0 0 625 15;" xml:space="preserve">
<style type="text/css">
	.center_main_frame_ruler_top_center_st0{opacity:0.6;}
	.center_main_frame_ruler_top_center_st1{fill:none;stroke:#00BEFF;stroke-miterlimit:10;}
</style>
<g class="center_main_frame_ruler_top_center_st0">
	<line id="XMLID_4331_" class="center_main_frame_ruler_top_center_st1" x1="46.2" y1="6.8" x2="46.2" y2="12.2"/>
	<line id="XMLID_4332_" class="center_main_frame_ruler_top_center_st1" x1="48.3" y1="6.8" x2="48.3" y2="12.2"/>
	<line id="XMLID_4333_" class="center_main_frame_ruler_top_center_st1" x1="50.5" y1="6.8" x2="50.5" y2="12.2"/>
	<line id="XMLID_4334_" class="center_main_frame_ruler_top_center_st1" x1="52.6" y1="6.8" x2="52.6" y2="12.2"/>
	<line id="XMLID_4335_" class="center_main_frame_ruler_top_center_st1" x1="54.9" y1="2.8" x2="54.9" y2="12.2"/>
	<line id="XMLID_4336_" class="center_main_frame_ruler_top_center_st1" x1="57.1" y1="6.8" x2="57.1" y2="12.2"/>
	<line id="XMLID_3853_" class="center_main_frame_ruler_top_center_st1" x1="44" y1="6.8" x2="44" y2="12.2"/>
	<line id="XMLID_4337_" class="center_main_frame_ruler_top_center_st1" x1="59.3" y1="6.8" x2="59.3" y2="12.2"/>
	<line id="XMLID_4338_" class="center_main_frame_ruler_top_center_st1" x1="61.5" y1="6.8" x2="61.5" y2="12.2"/>
	<line id="XMLID_4339_" class="center_main_frame_ruler_top_center_st1" x1="63.7" y1="6.8" x2="63.7" y2="12.2"/>
	<line id="XMLID_4340_" class="center_main_frame_ruler_top_center_st1" x1="65.9" y1="6.8" x2="65.9" y2="12.2"/>
	<line id="XMLID_4341_" class="center_main_frame_ruler_top_center_st1" x1="68.1" y1="2.8" x2="68.1" y2="12.2"/>
	<line id="XMLID_3852_" class="center_main_frame_ruler_top_center_st1" x1="19.9" y1="6.8" x2="19.9" y2="12.2"/>
	<line id="XMLID_3851_" class="center_main_frame_ruler_top_center_st1" x1="22.1" y1="6.8" x2="22.1" y2="12.2"/>
	<line id="XMLID_3850_" class="center_main_frame_ruler_top_center_st1" x1="24.3" y1="6.8" x2="24.3" y2="12.2"/>
	<line id="XMLID_3849_" class="center_main_frame_ruler_top_center_st1" x1="26.4" y1="6.8" x2="26.4" y2="12.2"/>
	<line id="XMLID_3848_" class="center_main_frame_ruler_top_center_st1" x1="28.6" y1="2.8" x2="28.6" y2="12.2"/>
	<line id="XMLID_3847_" class="center_main_frame_ruler_top_center_st1" x1="30.8" y1="6.8" x2="30.8" y2="12.2"/>
	<line id="XMLID_3846_" class="center_main_frame_ruler_top_center_st1" x1="17.7" y1="6.8" x2="17.7" y2="12.2"/>
	<line id="XMLID_3845_" class="center_main_frame_ruler_top_center_st1" x1="33" y1="6.8" x2="33" y2="12.2"/>
	<line id="XMLID_3844_" class="center_main_frame_ruler_top_center_st1" x1="35.3" y1="6.8" x2="35.3" y2="12.2"/>
	<line id="XMLID_3843_" class="center_main_frame_ruler_top_center_st1" x1="37.5" y1="6.8" x2="37.5" y2="12.2"/>
	<line id="XMLID_3842_" class="center_main_frame_ruler_top_center_st1" x1="39.7" y1="6.8" x2="39.7" y2="12.2"/>
	<line id="XMLID_3841_" class="center_main_frame_ruler_top_center_st1" x1="41.9" y1="2.8" x2="41.9" y2="12.2"/>
	<line id="XMLID_3840_" class="center_main_frame_ruler_top_center_st1" x1="2.3" y1="2.8" x2="2.3" y2="12.2"/>
	<line id="XMLID_3839_" class="center_main_frame_ruler_top_center_st1" x1="4.5" y1="6.8" x2="4.5" y2="12.2"/>
	<line id="XMLID_3838_" class="center_main_frame_ruler_top_center_st1" x1="6.7" y1="6.8" x2="6.7" y2="12.2"/>
	<line id="XMLID_3837_" class="center_main_frame_ruler_top_center_st1" x1="8.9" y1="6.8" x2="8.9" y2="12.2"/>
	<line id="XMLID_3836_" class="center_main_frame_ruler_top_center_st1" x1="11.1" y1="6.8" x2="11.1" y2="12.2"/>
	<line id="XMLID_3835_" class="center_main_frame_ruler_top_center_st1" x1="13.3" y1="6.8" x2="13.3" y2="12.2"/>
	<line id="XMLID_3834_" class="center_main_frame_ruler_top_center_st1" x1="15.5" y1="2.8" x2="15.5" y2="12.2"/>
	<line id="XMLID_4342_" class="center_main_frame_ruler_top_center_st1" x1="70.3" y1="6.8" x2="70.3" y2="12.2"/>
	<line id="XMLID_4346_" class="center_main_frame_ruler_top_center_st1" x1="72.5" y1="6.8" x2="72.5" y2="12.2"/>
	<line id="XMLID_4347_" class="center_main_frame_ruler_top_center_st1" x1="74.7" y1="6.8" x2="74.7" y2="12.2"/>
	<line id="XMLID_4348_" class="center_main_frame_ruler_top_center_st1" x1="76.9" y1="6.8" x2="76.9" y2="12.2"/>
	<line id="XMLID_4349_" class="center_main_frame_ruler_top_center_st1" x1="79.2" y1="6.8" x2="79.2" y2="12.2"/>
	<line id="XMLID_4350_" class="center_main_frame_ruler_top_center_st1" x1="81.4" y1="2.8" x2="81.4" y2="12.2"/>
	<line id="XMLID_4351_" class="center_main_frame_ruler_top_center_st1" x1="83.6" y1="6.8" x2="83.6" y2="12.2"/>
	<line id="XMLID_4352_" class="center_main_frame_ruler_top_center_st1" x1="85.8" y1="6.8" x2="85.8" y2="12.2"/>
	<line id="XMLID_4353_" class="center_main_frame_ruler_top_center_st1" x1="88" y1="6.8" x2="88" y2="12.2"/>
	<line id="XMLID_4354_" class="center_main_frame_ruler_top_center_st1" x1="90.2" y1="6.8" x2="90.2" y2="12.2"/>
	<line id="XMLID_4355_" class="center_main_frame_ruler_top_center_st1" x1="92.4" y1="6.8" x2="92.4" y2="12.2"/>
	<line id="XMLID_4356_" class="center_main_frame_ruler_top_center_st1" x1="94.6" y1="2.8" x2="94.6" y2="12.2"/>
	<line id="XMLID_4357_" class="center_main_frame_ruler_top_center_st1" x1="96.8" y1="6.8" x2="96.8" y2="12.2"/>
	<line id="XMLID_4358_" class="center_main_frame_ruler_top_center_st1" x1="99" y1="6.8" x2="99" y2="12.2"/>
	<line id="XMLID_4359_" class="center_main_frame_ruler_top_center_st1" x1="101.2" y1="6.8" x2="101.2" y2="12.2"/>
	<line id="XMLID_4360_" class="center_main_frame_ruler_top_center_st1" x1="103.5" y1="6.8" x2="103.5" y2="12.2"/>
	<line id="XMLID_4361_" class="center_main_frame_ruler_top_center_st1" x1="105.7" y1="6.8" x2="105.7" y2="12.2"/>
	<line id="XMLID_4362_" class="center_main_frame_ruler_top_center_st1" x1="107.9" y1="2.8" x2="107.9" y2="12.2"/>
	<line id="XMLID_4363_" class="center_main_frame_ruler_top_center_st1" x1="110.1" y1="6.8" x2="110.1" y2="12.2"/>
	<line id="XMLID_4364_" class="center_main_frame_ruler_top_center_st1" x1="112.3" y1="6.8" x2="112.3" y2="12.2"/>
	<line id="XMLID_4365_" class="center_main_frame_ruler_top_center_st1" x1="114.5" y1="6.8" x2="114.5" y2="12.2"/>
	<line id="XMLID_4366_" class="center_main_frame_ruler_top_center_st1" x1="116.7" y1="6.8" x2="116.7" y2="12.2"/>
	<line id="XMLID_4367_" class="center_main_frame_ruler_top_center_st1" x1="118.9" y1="6.8" x2="118.9" y2="12.2"/>
	<line id="XMLID_4368_" class="center_main_frame_ruler_top_center_st1" x1="121.1" y1="2.8" x2="121.1" y2="12.2"/>
	<line id="XMLID_4369_" class="center_main_frame_ruler_top_center_st1" x1="123.3" y1="6.8" x2="123.3" y2="12.2"/>
	<line id="XMLID_4370_" class="center_main_frame_ruler_top_center_st1" x1="125.5" y1="6.8" x2="125.5" y2="12.2"/>
	<line id="XMLID_4371_" class="center_main_frame_ruler_top_center_st1" x1="127.8" y1="6.8" x2="127.8" y2="12.2"/>
	<line id="XMLID_4373_" class="center_main_frame_ruler_top_center_st1" x1="130" y1="6.8" x2="130" y2="12.2"/>
	<line id="XMLID_4374_" class="center_main_frame_ruler_top_center_st1" x1="132.2" y1="6.8" x2="132.2" y2="12.2"/>
	<line id="XMLID_4375_" class="center_main_frame_ruler_top_center_st1" x1="134.4" y1="2.8" x2="134.4" y2="12.2"/>
	<line id="XMLID_4376_" class="center_main_frame_ruler_top_center_st1" x1="136.6" y1="6.8" x2="136.6" y2="12.2"/>
	<line id="XMLID_4377_" class="center_main_frame_ruler_top_center_st1" x1="138.8" y1="6.8" x2="138.8" y2="12.2"/>
	<line id="XMLID_4378_" class="center_main_frame_ruler_top_center_st1" x1="141" y1="6.8" x2="141" y2="12.2"/>
	<line id="XMLID_4379_" class="center_main_frame_ruler_top_center_st1" x1="143.2" y1="6.8" x2="143.2" y2="12.2"/>
	<line id="XMLID_4380_" class="center_main_frame_ruler_top_center_st1" x1="145.4" y1="6.8" x2="145.4" y2="12.2"/>
	<line id="XMLID_4381_" class="center_main_frame_ruler_top_center_st1" x1="147.6" y1="2.8" x2="147.6" y2="12.2"/>
	<line id="XMLID_4382_" class="center_main_frame_ruler_top_center_st1" x1="149.8" y1="6.8" x2="149.8" y2="12.2"/>
	<line id="XMLID_4383_" class="center_main_frame_ruler_top_center_st1" x1="152.1" y1="6.8" x2="152.1" y2="12.2"/>
	<line id="XMLID_4384_" class="center_main_frame_ruler_top_center_st1" x1="154.3" y1="6.8" x2="154.3" y2="12.2"/>
	<line id="XMLID_4385_" class="center_main_frame_ruler_top_center_st1" x1="156.5" y1="6.8" x2="156.5" y2="12.2"/>
	<line id="XMLID_4386_" class="center_main_frame_ruler_top_center_st1" x1="158.7" y1="6.8" x2="158.7" y2="12.2"/>
	<line id="XMLID_4387_" class="center_main_frame_ruler_top_center_st1" x1="160.9" y1="2.8" x2="160.9" y2="12.2"/>
	<line id="XMLID_4388_" class="center_main_frame_ruler_top_center_st1" x1="163.1" y1="6.8" x2="163.1" y2="12.2"/>
	<line id="XMLID_4389_" class="center_main_frame_ruler_top_center_st1" x1="165.3" y1="6.8" x2="165.3" y2="12.2"/>
	<line id="XMLID_4390_" class="center_main_frame_ruler_top_center_st1" x1="167.5" y1="6.8" x2="167.5" y2="12.2"/>
	<line id="XMLID_4391_" class="center_main_frame_ruler_top_center_st1" x1="169.7" y1="6.8" x2="169.7" y2="12.2"/>
	<line id="XMLID_4392_" class="center_main_frame_ruler_top_center_st1" x1="171.9" y1="6.8" x2="171.9" y2="12.2"/>
	<line id="XMLID_4393_" class="center_main_frame_ruler_top_center_st1" x1="174.2" y1="2.8" x2="174.2" y2="12.2"/>
	<line id="XMLID_4394_" class="center_main_frame_ruler_top_center_st1" x1="176.4" y1="6.8" x2="176.4" y2="12.2"/>
	<line id="XMLID_4395_" class="center_main_frame_ruler_top_center_st1" x1="178.6" y1="6.8" x2="178.6" y2="12.2"/>
	<line id="XMLID_4396_" class="center_main_frame_ruler_top_center_st1" x1="180.8" y1="6.8" x2="180.8" y2="12.2"/>
	<line id="XMLID_4397_" class="center_main_frame_ruler_top_center_st1" x1="183" y1="6.8" x2="183" y2="12.2"/>
	<line id="XMLID_4398_" class="center_main_frame_ruler_top_center_st1" x1="185.2" y1="6.8" x2="185.2" y2="12.2"/>
	<line id="XMLID_4399_" class="center_main_frame_ruler_top_center_st1" x1="187.4" y1="2.8" x2="187.4" y2="12.2"/>
	<line id="XMLID_4400_" class="center_main_frame_ruler_top_center_st1" x1="189.6" y1="6.8" x2="189.6" y2="12.2"/>
	<line id="XMLID_4401_" class="center_main_frame_ruler_top_center_st1" x1="191.8" y1="6.8" x2="191.8" y2="12.2"/>
	<line id="XMLID_4402_" class="center_main_frame_ruler_top_center_st1" x1="194" y1="6.8" x2="194" y2="12.2"/>
	<line id="XMLID_4403_" class="center_main_frame_ruler_top_center_st1" x1="196.2" y1="6.8" x2="196.2" y2="12.2"/>
	<line id="XMLID_4404_" class="center_main_frame_ruler_top_center_st1" x1="198.5" y1="6.8" x2="198.5" y2="12.2"/>
	<line id="XMLID_4405_" class="center_main_frame_ruler_top_center_st1" x1="200.7" y1="2.8" x2="200.7" y2="12.2"/>
	<line id="XMLID_4406_" class="center_main_frame_ruler_top_center_st1" x1="202.9" y1="6.8" x2="202.9" y2="12.2"/>
	<line id="XMLID_4407_" class="center_main_frame_ruler_top_center_st1" x1="205.1" y1="6.8" x2="205.1" y2="12.2"/>
	<line id="XMLID_4408_" class="center_main_frame_ruler_top_center_st1" x1="207.3" y1="6.8" x2="207.3" y2="12.2"/>
	<line id="XMLID_4409_" class="center_main_frame_ruler_top_center_st1" x1="209.5" y1="6.8" x2="209.5" y2="12.2"/>
	<line id="XMLID_4410_" class="center_main_frame_ruler_top_center_st1" x1="211.7" y1="6.8" x2="211.7" y2="12.2"/>
	<line id="XMLID_4411_" class="center_main_frame_ruler_top_center_st1" x1="213.9" y1="2.8" x2="213.9" y2="12.2"/>
	<line id="XMLID_4412_" class="center_main_frame_ruler_top_center_st1" x1="216.1" y1="6.8" x2="216.1" y2="12.2"/>
	<line id="XMLID_4413_" class="center_main_frame_ruler_top_center_st1" x1="218.3" y1="6.8" x2="218.3" y2="12.2"/>
	<line id="XMLID_4414_" class="center_main_frame_ruler_top_center_st1" x1="220.5" y1="6.8" x2="220.5" y2="12.2"/>
	<line id="XMLID_4415_" class="center_main_frame_ruler_top_center_st1" x1="222.8" y1="6.8" x2="222.8" y2="12.2"/>
	<line id="XMLID_4416_" class="center_main_frame_ruler_top_center_st1" x1="225" y1="6.8" x2="225" y2="12.2"/>
	<line id="XMLID_4417_" class="center_main_frame_ruler_top_center_st1" x1="227.2" y1="2.8" x2="227.2" y2="12.2"/>
	<line id="XMLID_4418_" class="center_main_frame_ruler_top_center_st1" x1="229.4" y1="6.8" x2="229.4" y2="12.2"/>
	<line id="XMLID_4419_" class="center_main_frame_ruler_top_center_st1" x1="231.6" y1="6.8" x2="231.6" y2="12.2"/>
	<line id="XMLID_4420_" class="center_main_frame_ruler_top_center_st1" x1="233.8" y1="6.8" x2="233.8" y2="12.2"/>
	<line id="XMLID_4421_" class="center_main_frame_ruler_top_center_st1" x1="236" y1="6.8" x2="236" y2="12.2"/>
	<line id="XMLID_4422_" class="center_main_frame_ruler_top_center_st1" x1="238.2" y1="6.8" x2="238.2" y2="12.2"/>
	<line id="XMLID_4423_" class="center_main_frame_ruler_top_center_st1" x1="240.4" y1="2.8" x2="240.4" y2="12.2"/>
	<line id="XMLID_4424_" class="center_main_frame_ruler_top_center_st1" x1="242.6" y1="6.8" x2="242.6" y2="12.2"/>
	<line id="XMLID_4425_" class="center_main_frame_ruler_top_center_st1" x1="244.8" y1="6.8" x2="244.8" y2="12.2"/>
	<line id="XMLID_4426_" class="center_main_frame_ruler_top_center_st1" x1="247.1" y1="6.8" x2="247.1" y2="12.2"/>
	<line id="XMLID_4427_" class="center_main_frame_ruler_top_center_st1" x1="249.3" y1="6.8" x2="249.3" y2="12.2"/>
	<line id="XMLID_4428_" class="center_main_frame_ruler_top_center_st1" x1="251.5" y1="6.8" x2="251.5" y2="12.2"/>
	<line id="XMLID_4429_" class="center_main_frame_ruler_top_center_st1" x1="253.7" y1="2.8" x2="253.7" y2="12.2"/>
	<line id="XMLID_4430_" class="center_main_frame_ruler_top_center_st1" x1="255.9" y1="6.8" x2="255.9" y2="12.2"/>
	<line id="XMLID_4431_" class="center_main_frame_ruler_top_center_st1" x1="258.1" y1="6.8" x2="258.1" y2="12.2"/>
	<line id="XMLID_4432_" class="center_main_frame_ruler_top_center_st1" x1="260.3" y1="6.8" x2="260.3" y2="12.2"/>
	<line id="XMLID_4433_" class="center_main_frame_ruler_top_center_st1" x1="262.5" y1="6.8" x2="262.5" y2="12.2"/>
	<line id="XMLID_4434_" class="center_main_frame_ruler_top_center_st1" x1="264.7" y1="6.8" x2="264.7" y2="12.2"/>
	<line id="XMLID_4435_" class="center_main_frame_ruler_top_center_st1" x1="266.9" y1="2.8" x2="266.9" y2="12.2"/>
	<line id="XMLID_4436_" class="center_main_frame_ruler_top_center_st1" x1="269.1" y1="6.8" x2="269.1" y2="12.2"/>
	<line id="XMLID_4437_" class="center_main_frame_ruler_top_center_st1" x1="271.4" y1="6.8" x2="271.4" y2="12.2"/>
	<line id="XMLID_4438_" class="center_main_frame_ruler_top_center_st1" x1="273.6" y1="6.8" x2="273.6" y2="12.2"/>
	<line id="XMLID_4439_" class="center_main_frame_ruler_top_center_st1" x1="275.8" y1="6.8" x2="275.8" y2="12.2"/>
	<line id="XMLID_4440_" class="center_main_frame_ruler_top_center_st1" x1="278" y1="6.8" x2="278" y2="12.2"/>
	<line id="XMLID_4441_" class="center_main_frame_ruler_top_center_st1" x1="280.2" y1="2.8" x2="280.2" y2="12.2"/>
	<line id="XMLID_4442_" class="center_main_frame_ruler_top_center_st1" x1="282.4" y1="6.8" x2="282.4" y2="12.2"/>
	<line id="XMLID_4443_" class="center_main_frame_ruler_top_center_st1" x1="284.6" y1="6.8" x2="284.6" y2="12.2"/>
	<line id="XMLID_4444_" class="center_main_frame_ruler_top_center_st1" x1="286.8" y1="6.8" x2="286.8" y2="12.2"/>
	<line id="XMLID_4445_" class="center_main_frame_ruler_top_center_st1" x1="289" y1="6.8" x2="289" y2="12.2"/>
	<line id="XMLID_4446_" class="center_main_frame_ruler_top_center_st1" x1="291.2" y1="6.8" x2="291.2" y2="12.2"/>
	<line id="XMLID_4447_" class="center_main_frame_ruler_top_center_st1" x1="293.4" y1="2.8" x2="293.4" y2="12.2"/>
	<line id="XMLID_4448_" class="center_main_frame_ruler_top_center_st1" x1="295.7" y1="6.8" x2="295.7" y2="12.2"/>
	<line id="XMLID_4449_" class="center_main_frame_ruler_top_center_st1" x1="297.9" y1="6.8" x2="297.9" y2="12.2"/>
	<line id="XMLID_4450_" class="center_main_frame_ruler_top_center_st1" x1="300.1" y1="6.8" x2="300.1" y2="12.2"/>
	<line id="XMLID_4451_" class="center_main_frame_ruler_top_center_st1" x1="302.3" y1="6.8" x2="302.3" y2="12.2"/>
	<line id="XMLID_4452_" class="center_main_frame_ruler_top_center_st1" x1="304.5" y1="6.8" x2="304.5" y2="12.2"/>
	<line id="XMLID_4453_" class="center_main_frame_ruler_top_center_st1" x1="306.7" y1="2.8" x2="306.7" y2="12.2"/>
	<line id="XMLID_4454_" class="center_main_frame_ruler_top_center_st1" x1="308.9" y1="6.8" x2="308.9" y2="12.2"/>
	<line id="XMLID_4455_" class="center_main_frame_ruler_top_center_st1" x1="311.1" y1="6.8" x2="311.1" y2="12.2"/>
	<line id="XMLID_4456_" class="center_main_frame_ruler_top_center_st1" x1="313.3" y1="6.8" x2="313.3" y2="12.2"/>
	<line id="XMLID_4457_" class="center_main_frame_ruler_top_center_st1" x1="315.5" y1="6.8" x2="315.5" y2="12.2"/>
	<line id="XMLID_4458_" class="center_main_frame_ruler_top_center_st1" x1="317.7" y1="6.8" x2="317.7" y2="12.2"/>
	<line id="XMLID_4459_" class="center_main_frame_ruler_top_center_st1" x1="320" y1="2.8" x2="320" y2="12.2"/>
	<line id="XMLID_4460_" class="center_main_frame_ruler_top_center_st1" x1="322.2" y1="6.8" x2="322.2" y2="12.2"/>
	<line id="XMLID_4461_" class="center_main_frame_ruler_top_center_st1" x1="324.4" y1="6.8" x2="324.4" y2="12.2"/>
	<line id="XMLID_4462_" class="center_main_frame_ruler_top_center_st1" x1="326.6" y1="6.8" x2="326.6" y2="12.2"/>
	<line id="XMLID_4463_" class="center_main_frame_ruler_top_center_st1" x1="328.8" y1="6.8" x2="328.8" y2="12.2"/>
	<line id="XMLID_4464_" class="center_main_frame_ruler_top_center_st1" x1="331" y1="6.8" x2="331" y2="12.2"/>
	<line id="XMLID_4465_" class="center_main_frame_ruler_top_center_st1" x1="333.2" y1="2.8" x2="333.2" y2="12.2"/>
	<line id="XMLID_4466_" class="center_main_frame_ruler_top_center_st1" x1="335.4" y1="6.8" x2="335.4" y2="12.2"/>
	<line id="XMLID_4467_" class="center_main_frame_ruler_top_center_st1" x1="337.6" y1="6.8" x2="337.6" y2="12.2"/>
	<line id="XMLID_4468_" class="center_main_frame_ruler_top_center_st1" x1="339.8" y1="6.8" x2="339.8" y2="12.2"/>
	<line id="XMLID_4469_" class="center_main_frame_ruler_top_center_st1" x1="342" y1="6.8" x2="342" y2="12.2"/>
	<line id="XMLID_4470_" class="center_main_frame_ruler_top_center_st1" x1="344.3" y1="6.8" x2="344.3" y2="12.2"/>
	<line id="XMLID_4471_" class="center_main_frame_ruler_top_center_st1" x1="346.5" y1="2.8" x2="346.5" y2="12.2"/>
	<line id="XMLID_4472_" class="center_main_frame_ruler_top_center_st1" x1="348.7" y1="6.8" x2="348.7" y2="12.2"/>
	<line id="XMLID_4473_" class="center_main_frame_ruler_top_center_st1" x1="350.9" y1="6.8" x2="350.9" y2="12.2"/>
	<line id="XMLID_4474_" class="center_main_frame_ruler_top_center_st1" x1="353.1" y1="6.8" x2="353.1" y2="12.2"/>
	<line id="XMLID_4475_" class="center_main_frame_ruler_top_center_st1" x1="355.3" y1="6.8" x2="355.3" y2="12.2"/>
	<line id="XMLID_4476_" class="center_main_frame_ruler_top_center_st1" x1="357.5" y1="6.8" x2="357.5" y2="12.2"/>
	<line id="XMLID_4477_" class="center_main_frame_ruler_top_center_st1" x1="359.7" y1="2.8" x2="359.7" y2="12.2"/>
	<line id="XMLID_4478_" class="center_main_frame_ruler_top_center_st1" x1="361.9" y1="6.8" x2="361.9" y2="12.2"/>
	<line id="XMLID_4479_" class="center_main_frame_ruler_top_center_st1" x1="364.1" y1="6.8" x2="364.1" y2="12.2"/>
	<line id="XMLID_4480_" class="center_main_frame_ruler_top_center_st1" x1="366.3" y1="6.8" x2="366.3" y2="12.2"/>
	<line id="XMLID_4481_" class="center_main_frame_ruler_top_center_st1" x1="368.6" y1="6.8" x2="368.6" y2="12.2"/>
	<line id="XMLID_4482_" class="center_main_frame_ruler_top_center_st1" x1="370.8" y1="6.8" x2="370.8" y2="12.2"/>
	<line id="XMLID_4483_" class="center_main_frame_ruler_top_center_st1" x1="373" y1="2.8" x2="373" y2="12.2"/>
	<line id="XMLID_4484_" class="center_main_frame_ruler_top_center_st1" x1="375.2" y1="6.8" x2="375.2" y2="12.2"/>
	<line id="XMLID_4485_" class="center_main_frame_ruler_top_center_st1" x1="377.4" y1="6.8" x2="377.4" y2="12.2"/>
	<line id="XMLID_4486_" class="center_main_frame_ruler_top_center_st1" x1="379.6" y1="6.8" x2="379.6" y2="12.2"/>
	<line id="XMLID_4487_" class="center_main_frame_ruler_top_center_st1" x1="381.8" y1="6.8" x2="381.8" y2="12.2"/>
	<line id="XMLID_4488_" class="center_main_frame_ruler_top_center_st1" x1="384" y1="6.8" x2="384" y2="12.2"/>
	<line id="XMLID_4489_" class="center_main_frame_ruler_top_center_st1" x1="386.2" y1="2.8" x2="386.2" y2="12.2"/>
	<line id="XMLID_4490_" class="center_main_frame_ruler_top_center_st1" x1="388.4" y1="6.8" x2="388.4" y2="12.2"/>
	<line id="XMLID_4491_" class="center_main_frame_ruler_top_center_st1" x1="390.7" y1="6.8" x2="390.7" y2="12.2"/>
	<line id="XMLID_4492_" class="center_main_frame_ruler_top_center_st1" x1="392.9" y1="6.8" x2="392.9" y2="12.2"/>
	<line id="XMLID_4493_" class="center_main_frame_ruler_top_center_st1" x1="395.1" y1="6.8" x2="395.1" y2="12.2"/>
	<line id="XMLID_4494_" class="center_main_frame_ruler_top_center_st1" x1="397.3" y1="6.8" x2="397.3" y2="12.2"/>
	<line id="XMLID_4495_" class="center_main_frame_ruler_top_center_st1" x1="399.5" y1="2.8" x2="399.5" y2="12.2"/>
	<line id="XMLID_4496_" class="center_main_frame_ruler_top_center_st1" x1="401.7" y1="6.8" x2="401.7" y2="12.2"/>
	<line id="XMLID_4497_" class="center_main_frame_ruler_top_center_st1" x1="403.9" y1="6.8" x2="403.9" y2="12.2"/>
	<line id="XMLID_4498_" class="center_main_frame_ruler_top_center_st1" x1="406.1" y1="6.8" x2="406.1" y2="12.2"/>
	<line id="XMLID_4499_" class="center_main_frame_ruler_top_center_st1" x1="408.3" y1="6.8" x2="408.3" y2="12.2"/>
	<line id="XMLID_4500_" class="center_main_frame_ruler_top_center_st1" x1="410.5" y1="6.8" x2="410.5" y2="12.2"/>
	<line id="XMLID_4501_" class="center_main_frame_ruler_top_center_st1" x1="412.7" y1="2.8" x2="412.7" y2="12.2"/>
	<line id="XMLID_4502_" class="center_main_frame_ruler_top_center_st1" x1="415" y1="6.8" x2="415" y2="12.2"/>
	<line id="XMLID_4503_" class="center_main_frame_ruler_top_center_st1" x1="417.2" y1="6.8" x2="417.2" y2="12.2"/>
	<line id="XMLID_4504_" class="center_main_frame_ruler_top_center_st1" x1="419.4" y1="6.8" x2="419.4" y2="12.2"/>
	<line id="XMLID_4505_" class="center_main_frame_ruler_top_center_st1" x1="421.6" y1="6.8" x2="421.6" y2="12.2"/>
	<line id="XMLID_4506_" class="center_main_frame_ruler_top_center_st1" x1="423.8" y1="6.8" x2="423.8" y2="12.2"/>
	<line id="XMLID_4507_" class="center_main_frame_ruler_top_center_st1" x1="426" y1="2.8" x2="426" y2="12.2"/>
	<line id="XMLID_4508_" class="center_main_frame_ruler_top_center_st1" x1="428.2" y1="6.8" x2="428.2" y2="12.2"/>
	<line id="XMLID_4509_" class="center_main_frame_ruler_top_center_st1" x1="430.4" y1="6.8" x2="430.4" y2="12.2"/>
	<line id="XMLID_4510_" class="center_main_frame_ruler_top_center_st1" x1="432.6" y1="6.8" x2="432.6" y2="12.2"/>
	<line id="XMLID_4511_" class="center_main_frame_ruler_top_center_st1" x1="434.8" y1="6.8" x2="434.8" y2="12.2"/>
	<line id="XMLID_4512_" class="center_main_frame_ruler_top_center_st1" x1="437" y1="6.8" x2="437" y2="12.2"/>
	<line id="XMLID_4513_" class="center_main_frame_ruler_top_center_st1" x1="439.3" y1="2.8" x2="439.3" y2="12.2"/>
	<line id="XMLID_4514_" class="center_main_frame_ruler_top_center_st1" x1="441.5" y1="6.8" x2="441.5" y2="12.2"/>
	<line id="XMLID_4515_" class="center_main_frame_ruler_top_center_st1" x1="443.7" y1="6.8" x2="443.7" y2="12.2"/>
	<line id="XMLID_4516_" class="center_main_frame_ruler_top_center_st1" x1="445.9" y1="6.8" x2="445.9" y2="12.2"/>
	<line id="XMLID_4517_" class="center_main_frame_ruler_top_center_st1" x1="448.1" y1="6.8" x2="448.1" y2="12.2"/>
	<line id="XMLID_4518_" class="center_main_frame_ruler_top_center_st1" x1="450.3" y1="6.8" x2="450.3" y2="12.2"/>
	<line id="XMLID_4519_" class="center_main_frame_ruler_top_center_st1" x1="452.5" y1="2.8" x2="452.5" y2="12.2"/>
	<line id="XMLID_4520_" class="center_main_frame_ruler_top_center_st1" x1="454.7" y1="6.8" x2="454.7" y2="12.2"/>
	<line id="XMLID_4521_" class="center_main_frame_ruler_top_center_st1" x1="456.9" y1="6.8" x2="456.9" y2="12.2"/>
	<line id="XMLID_4522_" class="center_main_frame_ruler_top_center_st1" x1="459.1" y1="6.8" x2="459.1" y2="12.2"/>
	<line id="XMLID_4523_" class="center_main_frame_ruler_top_center_st1" x1="461.3" y1="6.8" x2="461.3" y2="12.2"/>
	<line id="XMLID_4524_" class="center_main_frame_ruler_top_center_st1" x1="463.6" y1="6.8" x2="463.6" y2="12.2"/>
	<line id="XMLID_4525_" class="center_main_frame_ruler_top_center_st1" x1="465.8" y1="2.8" x2="465.8" y2="12.2"/>
	<line id="XMLID_4526_" class="center_main_frame_ruler_top_center_st1" x1="468" y1="6.8" x2="468" y2="12.2"/>
	<line id="XMLID_4527_" class="center_main_frame_ruler_top_center_st1" x1="470.2" y1="6.8" x2="470.2" y2="12.2"/>
	<line id="XMLID_4528_" class="center_main_frame_ruler_top_center_st1" x1="472.4" y1="6.8" x2="472.4" y2="12.2"/>
	<line id="XMLID_4529_" class="center_main_frame_ruler_top_center_st1" x1="474.6" y1="6.8" x2="474.6" y2="12.2"/>
	<line id="XMLID_4530_" class="center_main_frame_ruler_top_center_st1" x1="476.8" y1="6.8" x2="476.8" y2="12.2"/>
	<line id="XMLID_4531_" class="center_main_frame_ruler_top_center_st1" x1="479" y1="2.8" x2="479" y2="12.2"/>
	<line id="XMLID_4532_" class="center_main_frame_ruler_top_center_st1" x1="481.2" y1="6.8" x2="481.2" y2="12.2"/>
	<line id="XMLID_4533_" class="center_main_frame_ruler_top_center_st1" x1="483.4" y1="6.8" x2="483.4" y2="12.2"/>
	<line id="XMLID_4534_" class="center_main_frame_ruler_top_center_st1" x1="485.6" y1="6.8" x2="485.6" y2="12.2"/>
	<line id="XMLID_4535_" class="center_main_frame_ruler_top_center_st1" x1="487.9" y1="6.8" x2="487.9" y2="12.2"/>
	<line id="XMLID_4536_" class="center_main_frame_ruler_top_center_st1" x1="490.1" y1="6.8" x2="490.1" y2="12.2"/>
	<line id="XMLID_4537_" class="center_main_frame_ruler_top_center_st1" x1="492.3" y1="2.8" x2="492.3" y2="12.2"/>
	<line id="XMLID_4538_" class="center_main_frame_ruler_top_center_st1" x1="494.5" y1="6.8" x2="494.5" y2="12.2"/>
	<line id="XMLID_4539_" class="center_main_frame_ruler_top_center_st1" x1="496.7" y1="6.8" x2="496.7" y2="12.2"/>
	<line id="XMLID_4540_" class="center_main_frame_ruler_top_center_st1" x1="498.9" y1="6.8" x2="498.9" y2="12.2"/>
	<line id="XMLID_4541_" class="center_main_frame_ruler_top_center_st1" x1="501.1" y1="6.8" x2="501.1" y2="12.2"/>
	<line id="XMLID_4542_" class="center_main_frame_ruler_top_center_st1" x1="503.3" y1="6.8" x2="503.3" y2="12.2"/>
	<line id="XMLID_4543_" class="center_main_frame_ruler_top_center_st1" x1="505.5" y1="2.8" x2="505.5" y2="12.2"/>
	<line id="XMLID_4544_" class="center_main_frame_ruler_top_center_st1" x1="507.7" y1="6.8" x2="507.7" y2="12.2"/>
	<line id="XMLID_4545_" class="center_main_frame_ruler_top_center_st1" x1="509.9" y1="6.8" x2="509.9" y2="12.2"/>
	<line id="XMLID_4546_" class="center_main_frame_ruler_top_center_st1" x1="512.2" y1="6.8" x2="512.2" y2="12.2"/>
	<line id="XMLID_4547_" class="center_main_frame_ruler_top_center_st1" x1="514.4" y1="6.8" x2="514.4" y2="12.2"/>
	<line id="XMLID_4548_" class="center_main_frame_ruler_top_center_st1" x1="516.6" y1="6.8" x2="516.6" y2="12.2"/>
	<line id="XMLID_4549_" class="center_main_frame_ruler_top_center_st1" x1="518.8" y1="2.8" x2="518.8" y2="12.2"/>
	<line id="XMLID_4550_" class="center_main_frame_ruler_top_center_st1" x1="521" y1="6.8" x2="521" y2="12.2"/>
	<line id="XMLID_4551_" class="center_main_frame_ruler_top_center_st1" x1="523.2" y1="6.8" x2="523.2" y2="12.2"/>
	<line id="XMLID_4552_" class="center_main_frame_ruler_top_center_st1" x1="525.4" y1="6.8" x2="525.4" y2="12.2"/>
	<line id="XMLID_4553_" class="center_main_frame_ruler_top_center_st1" x1="527.6" y1="6.8" x2="527.6" y2="12.2"/>
	<line id="XMLID_4554_" class="center_main_frame_ruler_top_center_st1" x1="529.8" y1="6.8" x2="529.8" y2="12.2"/>
	<line id="XMLID_4555_" class="center_main_frame_ruler_top_center_st1" x1="532" y1="2.8" x2="532" y2="12.2"/>
	<line id="XMLID_4556_" class="center_main_frame_ruler_top_center_st1" x1="534.2" y1="6.8" x2="534.2" y2="12.2"/>
	<line id="XMLID_4557_" class="center_main_frame_ruler_top_center_st1" x1="536.5" y1="6.8" x2="536.5" y2="12.2"/>
	<line id="XMLID_4558_" class="center_main_frame_ruler_top_center_st1" x1="538.7" y1="6.8" x2="538.7" y2="12.2"/>
	<line id="XMLID_4559_" class="center_main_frame_ruler_top_center_st1" x1="540.9" y1="6.8" x2="540.9" y2="12.2"/>
	<line id="XMLID_4560_" class="center_main_frame_ruler_top_center_st1" x1="543.1" y1="6.8" x2="543.1" y2="12.2"/>
	<line id="XMLID_4561_" class="center_main_frame_ruler_top_center_st1" x1="545.3" y1="2.8" x2="545.3" y2="12.2"/>
	<line id="XMLID_4562_" class="center_main_frame_ruler_top_center_st1" x1="547.5" y1="6.8" x2="547.5" y2="12.2"/>
	<line id="XMLID_4563_" class="center_main_frame_ruler_top_center_st1" x1="549.7" y1="6.8" x2="549.7" y2="12.2"/>
	<line id="XMLID_4564_" class="center_main_frame_ruler_top_center_st1" x1="551.9" y1="6.8" x2="551.9" y2="12.2"/>
	<line id="XMLID_4565_" class="center_main_frame_ruler_top_center_st1" x1="554.1" y1="6.8" x2="554.1" y2="12.2"/>
	<line id="XMLID_4566_" class="center_main_frame_ruler_top_center_st1" x1="556.3" y1="6.8" x2="556.3" y2="12.2"/>
	<line id="XMLID_4567_" class="center_main_frame_ruler_top_center_st1" x1="558.5" y1="2.8" x2="558.5" y2="12.2"/>
	<line id="XMLID_4568_" class="center_main_frame_ruler_top_center_st1" x1="560.8" y1="6.8" x2="560.8" y2="12.2"/>
	<line id="XMLID_4569_" class="center_main_frame_ruler_top_center_st1" x1="563" y1="6.8" x2="563" y2="12.2"/>
	<line id="XMLID_4570_" class="center_main_frame_ruler_top_center_st1" x1="565.2" y1="6.8" x2="565.2" y2="12.2"/>
	<line id="XMLID_4571_" class="center_main_frame_ruler_top_center_st1" x1="567.4" y1="6.8" x2="567.4" y2="12.2"/>
	<line id="XMLID_4572_" class="center_main_frame_ruler_top_center_st1" x1="569.6" y1="6.8" x2="569.6" y2="12.2"/>
	<line id="XMLID_4573_" class="center_main_frame_ruler_top_center_st1" x1="571.7" y1="2.8" x2="571.7" y2="12.2"/>
	<line id="XMLID_4574_" class="center_main_frame_ruler_top_center_st1" x1="573.9" y1="6.8" x2="573.9" y2="12.2"/>
	<line id="XMLID_4575_" class="center_main_frame_ruler_top_center_st1" x1="576.2" y1="6.8" x2="576.2" y2="12.2"/>
	<line id="XMLID_4576_" class="center_main_frame_ruler_top_center_st1" x1="578.4" y1="6.8" x2="578.4" y2="12.2"/>
	<line id="XMLID_4577_" class="center_main_frame_ruler_top_center_st1" x1="580.6" y1="6.8" x2="580.6" y2="12.2"/>
	<line id="XMLID_4578_" class="center_main_frame_ruler_top_center_st1" x1="582.8" y1="6.8" x2="582.8" y2="12.2"/>
	<line id="XMLID_4579_" class="center_main_frame_ruler_top_center_st1" x1="585" y1="2.8" x2="585" y2="12.2"/>
	<line id="XMLID_4580_" class="center_main_frame_ruler_top_center_st1" x1="587.2" y1="6.8" x2="587.2" y2="12.2"/>
	<line id="XMLID_4581_" class="center_main_frame_ruler_top_center_st1" x1="589.4" y1="6.8" x2="589.4" y2="12.2"/>
	<line id="XMLID_4582_" class="center_main_frame_ruler_top_center_st1" x1="591.6" y1="6.8" x2="591.6" y2="12.2"/>
	<line id="XMLID_4583_" class="center_main_frame_ruler_top_center_st1" x1="594" y1="6.8" x2="594" y2="12.2"/>
	<line id="XMLID_4584_" class="center_main_frame_ruler_top_center_st1" x1="596.2" y1="6.8" x2="596.2" y2="12.2"/>
	<line id="XMLID_4585_" class="center_main_frame_ruler_top_center_st1" x1="598.2" y1="2.8" x2="598.2" y2="12.2"/>
	<line id="XMLID_4586_" class="center_main_frame_ruler_top_center_st1" x1="600.4" y1="6.8" x2="600.4" y2="12.2"/>
	<line id="XMLID_4587_" class="center_main_frame_ruler_top_center_st1" x1="602.6" y1="6.8" x2="602.6" y2="12.2"/>
	<line id="XMLID_4588_" class="center_main_frame_ruler_top_center_st1" x1="604.9" y1="6.8" x2="604.9" y2="12.2"/>
	<line id="XMLID_4589_" class="center_main_frame_ruler_top_center_st1" x1="607.1" y1="6.8" x2="607.1" y2="12.2"/>
	<line id="XMLID_4590_" class="center_main_frame_ruler_top_center_st1" x1="609.3" y1="6.8" x2="609.3" y2="12.2"/>
	<line id="XMLID_4591_" class="center_main_frame_ruler_top_center_st1" x1="611.4" y1="2.8" x2="611.4" y2="12.2"/>
	<line id="XMLID_4592_" class="center_main_frame_ruler_top_center_st1" x1="613.6" y1="6.8" x2="613.6" y2="12.2"/>
	<line id="XMLID_4593_" class="center_main_frame_ruler_top_center_st1" x1="615.8" y1="6.8" x2="615.8" y2="12.2"/>
	<line id="XMLID_4594_" class="center_main_frame_ruler_top_center_st1" x1="618" y1="6.8" x2="618" y2="12.2"/>
	<line id="XMLID_4595_" class="center_main_frame_ruler_top_center_st1" x1="620.3" y1="6.8" x2="620.3" y2="12.2"/>
	<line id="XMLID_3833_" class="center_main_frame_ruler_top_center_st1" x1="622.7" y1="6.8" x2="622.7" y2="12.2"/>
</g>
</svg>
