<?xml version="1.0" encoding="utf-8"?>
<!-- Generator: Adobe Illustrator 19.0.0, SVG Export Plug-In . SVG Version: 6.00 Build 0)  -->
<svg version="1.1" id="center_main_frame_ruler_top_left_right" xmlns="http://www.w3.org/2000/svg" xmlns:xlink="http://www.w3.org/1999/xlink" x="0px" y="0px"
	 viewBox="0 0 265 8" style="enable-background:new 0 0 265 8;" xml:space="preserve">
<style type="text/css">
	.center_main_frame_ruler_top_left_right_st0{opacity:0.6;}
	.center_main_frame_ruler_top_left_right_st1{fill:none;stroke:#00BEFF;stroke-miterlimit:10;}
</style>
<g id="XMLID_4178_" class="center_main_frame_ruler_top_left_right_st0">
	<line id="XMLID_4179_" class="center_main_frame_ruler_top_left_right_st1" x1="1.2" y1="1.5" x2="1.2" y2="6.5"/>
	<line id="XMLID_4180_" class="center_main_frame_ruler_top_left_right_st1" x1="3.4" y1="3.6" x2="3.4" y2="6.5"/>
	<line id="XMLID_4181_" class="center_main_frame_ruler_top_left_right_st1" x1="5.6" y1="3.6" x2="5.6" y2="6.5"/>
	<line id="XMLID_4182_" class="center_main_frame_ruler_top_left_right_st1" x1="7.8" y1="3.6" x2="7.8" y2="6.5"/>
	<line id="XMLID_4183_" class="center_main_frame_ruler_top_left_right_st1" x1="10" y1="3.6" x2="10" y2="6.5"/>
	<line id="XMLID_4184_" class="center_main_frame_ruler_top_left_right_st1" x1="12.2" y1="3.6" x2="12.2" y2="6.5"/>
	<line id="XMLID_4185_" class="center_main_frame_ruler_top_left_right_st1" x1="14.4" y1="1.5" x2="14.4" y2="6.5"/>
	<line id="XMLID_4186_" class="center_main_frame_ruler_top_left_right_st1" x1="16.6" y1="3.6" x2="16.6" y2="6.5"/>
	<line id="XMLID_4187_" class="center_main_frame_ruler_top_left_right_st1" x1="18.8" y1="3.6" x2="18.8" y2="6.5"/>
	<line id="XMLID_4188_" class="center_main_frame_ruler_top_left_right_st1" x1="21.1" y1="3.6" x2="21.1" y2="6.5"/>
	<line id="XMLID_4189_" class="center_main_frame_ruler_top_left_right_st1" x1="23.3" y1="3.6" x2="23.3" y2="6.5"/>
	<line id="XMLID_4190_" class="center_main_frame_ruler_top_left_right_st1" x1="25.5" y1="3.6" x2="25.5" y2="6.5"/>
	<line id="XMLID_4191_" class="center_main_frame_ruler_top_left_right_st1" x1="27.7" y1="1.5" x2="27.7" y2="6.5"/>
	<line id="XMLID_4192_" class="center_main_frame_ruler_top_left_right_st1" x1="29.9" y1="3.6" x2="29.9" y2="6.5"/>
	<line id="XMLID_4193_" class="center_main_frame_ruler_top_left_right_st1" x1="32.1" y1="3.6" x2="32.1" y2="6.5"/>
	<line id="XMLID_4194_" class="center_main_frame_ruler_top_left_right_st1" x1="34.3" y1="3.6" x2="34.3" y2="6.5"/>
	<line id="XMLID_4195_" class="center_main_frame_ruler_top_left_right_st1" x1="36.5" y1="3.6" x2="36.5" y2="6.5"/>
	<line id="XMLID_4196_" class="center_main_frame_ruler_top_left_right_st1" x1="38.7" y1="3.6" x2="38.7" y2="6.5"/>
	<line id="XMLID_4197_" class="center_main_frame_ruler_top_left_right_st1" x1="40.9" y1="1.5" x2="40.9" y2="6.5"/>
	<line id="XMLID_4198_" class="center_main_frame_ruler_top_left_right_st1" x1="43.1" y1="3.6" x2="43.1" y2="6.5"/>
	<line id="XMLID_4199_" class="center_main_frame_ruler_top_left_right_st1" x1="45.3" y1="3.6" x2="45.3" y2="6.5"/>
	<line id="XMLID_4200_" class="center_main_frame_ruler_top_left_right_st1" x1="47.5" y1="3.6" x2="47.5" y2="6.5"/>
	<line id="XMLID_4201_" class="center_main_frame_ruler_top_left_right_st1" x1="49.7" y1="3.6" x2="49.7" y2="6.5"/>
	<line id="XMLID_4202_" class="center_main_frame_ruler_top_left_right_st1" x1="52" y1="3.6" x2="52" y2="6.5"/>
	<line id="XMLID_4203_" class="center_main_frame_ruler_top_left_right_st1" x1="54.1" y1="1.5" x2="54.1" y2="6.5"/>
	<line id="XMLID_4204_" class="center_main_frame_ruler_top_left_right_st1" x1="56.4" y1="3.6" x2="56.4" y2="6.5"/>
	<line id="XMLID_4205_" class="center_main_frame_ruler_top_left_right_st1" x1="58.6" y1="3.6" x2="58.6" y2="6.5"/>
	<line id="XMLID_4206_" class="center_main_frame_ruler_top_left_right_st1" x1="60.8" y1="3.6" x2="60.8" y2="6.5"/>
	<line id="XMLID_4207_" class="center_main_frame_ruler_top_left_right_st1" x1="63" y1="3.6" x2="63" y2="6.5"/>
	<line id="XMLID_4208_" class="center_main_frame_ruler_top_left_right_st1" x1="65.2" y1="3.6" x2="65.2" y2="6.5"/>
	<line id="XMLID_4209_" class="center_main_frame_ruler_top_left_right_st1" x1="67.4" y1="1.5" x2="67.4" y2="6.5"/>
	<line id="XMLID_4210_" class="center_main_frame_ruler_top_left_right_st1" x1="69.6" y1="3.6" x2="69.6" y2="6.5"/>
	<line id="XMLID_4211_" class="center_main_frame_ruler_top_left_right_st1" x1="71.8" y1="3.6" x2="71.8" y2="6.5"/>
	<line id="XMLID_4212_" class="center_main_frame_ruler_top_left_right_st1" x1="74" y1="3.6" x2="74" y2="6.5"/>
	<line id="XMLID_4213_" class="center_main_frame_ruler_top_left_right_st1" x1="76.2" y1="3.6" x2="76.2" y2="6.5"/>
	<line id="XMLID_4214_" class="center_main_frame_ruler_top_left_right_st1" x1="78.4" y1="3.6" x2="78.4" y2="6.5"/>
	<line id="XMLID_4215_" class="center_main_frame_ruler_top_left_right_st1" x1="80.6" y1="1.5" x2="80.6" y2="6.5"/>
	<line id="XMLID_4216_" class="center_main_frame_ruler_top_left_right_st1" x1="82.8" y1="3.6" x2="82.8" y2="6.5"/>
	<line id="XMLID_4217_" class="center_main_frame_ruler_top_left_right_st1" x1="85.1" y1="3.6" x2="85.1" y2="6.5"/>
	<line id="XMLID_4218_" class="center_main_frame_ruler_top_left_right_st1" x1="87.3" y1="3.6" x2="87.3" y2="6.5"/>
	<line id="XMLID_4219_" class="center_main_frame_ruler_top_left_right_st1" x1="89.5" y1="3.6" x2="89.5" y2="6.5"/>
	<line id="XMLID_4220_" class="center_main_frame_ruler_top_left_right_st1" x1="91.7" y1="3.6" x2="91.7" y2="6.5"/>
	<line id="XMLID_4221_" class="center_main_frame_ruler_top_left_right_st1" x1="93.9" y1="1.5" x2="93.9" y2="6.5"/>
	<line id="XMLID_4222_" class="center_main_frame_ruler_top_left_right_st1" x1="96.1" y1="3.6" x2="96.1" y2="6.5"/>
	<line id="XMLID_4223_" class="center_main_frame_ruler_top_left_right_st1" x1="98.3" y1="3.6" x2="98.3" y2="6.5"/>
	<line id="XMLID_4224_" class="center_main_frame_ruler_top_left_right_st1" x1="100.5" y1="3.6" x2="100.5" y2="6.5"/>
	<line id="XMLID_4225_" class="center_main_frame_ruler_top_left_right_st1" x1="102.7" y1="3.6" x2="102.7" y2="6.5"/>
	<line id="XMLID_4226_" class="center_main_frame_ruler_top_left_right_st1" x1="104.9" y1="3.6" x2="104.9" y2="6.5"/>
	<line id="XMLID_4227_" class="center_main_frame_ruler_top_left_right_st1" x1="107.1" y1="1.5" x2="107.1" y2="6.5"/>
	<line id="XMLID_4228_" class="center_main_frame_ruler_top_left_right_st1" x1="109.3" y1="3.6" x2="109.3" y2="6.5"/>
	<line id="XMLID_4229_" class="center_main_frame_ruler_top_left_right_st1" x1="111.5" y1="3.6" x2="111.5" y2="6.5"/>
	<line id="XMLID_4230_" class="center_main_frame_ruler_top_left_right_st1" x1="113.7" y1="3.6" x2="113.7" y2="6.5"/>
	<line id="XMLID_4231_" class="center_main_frame_ruler_top_left_right_st1" x1="116" y1="3.6" x2="116" y2="6.5"/>
	<line id="XMLID_4232_" class="center_main_frame_ruler_top_left_right_st1" x1="118.2" y1="3.6" x2="118.2" y2="6.5"/>
	<line id="XMLID_4233_" class="center_main_frame_ruler_top_left_right_st1" x1="120.4" y1="1.5" x2="120.4" y2="6.5"/>
	<line id="XMLID_4234_" class="center_main_frame_ruler_top_left_right_st1" x1="122.6" y1="3.6" x2="122.6" y2="6.5"/>
	<line id="XMLID_4235_" class="center_main_frame_ruler_top_left_right_st1" x1="124.8" y1="3.6" x2="124.8" y2="6.5"/>
	<line id="XMLID_4236_" class="center_main_frame_ruler_top_left_right_st1" x1="127" y1="3.6" x2="127" y2="6.5"/>
	<line id="XMLID_4237_" class="center_main_frame_ruler_top_left_right_st1" x1="129.2" y1="3.6" x2="129.2" y2="6.5"/>
	<line id="XMLID_4238_" class="center_main_frame_ruler_top_left_right_st1" x1="131.4" y1="3.6" x2="131.4" y2="6.5"/>
	<line id="XMLID_4239_" class="center_main_frame_ruler_top_left_right_st1" x1="133.6" y1="1.5" x2="133.6" y2="6.5"/>
	<line id="XMLID_4241_" class="center_main_frame_ruler_top_left_right_st1" x1="135.8" y1="3.6" x2="135.8" y2="6.5"/>
	<line id="XMLID_4242_" class="center_main_frame_ruler_top_left_right_st1" x1="138" y1="3.6" x2="138" y2="6.5"/>
	<line id="XMLID_4246_" class="center_main_frame_ruler_top_left_right_st1" x1="140.2" y1="3.6" x2="140.2" y2="6.5"/>
	<line id="XMLID_4247_" class="center_main_frame_ruler_top_left_right_st1" x1="142.4" y1="3.6" x2="142.4" y2="6.5"/>
	<line id="XMLID_4248_" class="center_main_frame_ruler_top_left_right_st1" x1="144.6" y1="3.6" x2="144.6" y2="6.5"/>
	<line id="XMLID_4249_" class="center_main_frame_ruler_top_left_right_st1" x1="146.8" y1="1.5" x2="146.8" y2="6.5"/>
	<line id="XMLID_4250_" class="center_main_frame_ruler_top_left_right_st1" x1="149" y1="3.6" x2="149" y2="6.5"/>
	<line id="XMLID_4251_" class="center_main_frame_ruler_top_left_right_st1" x1="151.3" y1="3.6" x2="151.3" y2="6.5"/>
	<line id="XMLID_4252_" class="center_main_frame_ruler_top_left_right_st1" x1="153.5" y1="3.6" x2="153.5" y2="6.5"/>
	<line id="XMLID_4253_" class="center_main_frame_ruler_top_left_right_st1" x1="155.7" y1="3.6" x2="155.7" y2="6.5"/>
	<line id="XMLID_4254_" class="center_main_frame_ruler_top_left_right_st1" x1="157.9" y1="3.6" x2="157.9" y2="6.5"/>
	<line id="XMLID_4255_" class="center_main_frame_ruler_top_left_right_st1" x1="160.1" y1="1.5" x2="160.1" y2="6.5"/>
	<line id="XMLID_4256_" class="center_main_frame_ruler_top_left_right_st1" x1="162.3" y1="3.6" x2="162.3" y2="6.5"/>
	<line id="XMLID_4257_" class="center_main_frame_ruler_top_left_right_st1" x1="164.5" y1="3.6" x2="164.5" y2="6.5"/>
	<line id="XMLID_4258_" class="center_main_frame_ruler_top_left_right_st1" x1="166.7" y1="3.6" x2="166.7" y2="6.5"/>
	<line id="XMLID_4259_" class="center_main_frame_ruler_top_left_right_st1" x1="168.9" y1="3.6" x2="168.9" y2="6.5"/>
	<line id="XMLID_4260_" class="center_main_frame_ruler_top_left_right_st1" x1="171.1" y1="3.6" x2="171.1" y2="6.5"/>
	<line id="XMLID_4261_" class="center_main_frame_ruler_top_left_right_st1" x1="173.3" y1="1.5" x2="173.3" y2="6.5"/>
	<line id="XMLID_4262_" class="center_main_frame_ruler_top_left_right_st1" x1="175.5" y1="3.6" x2="175.5" y2="6.5"/>
	<line id="XMLID_4263_" class="center_main_frame_ruler_top_left_right_st1" x1="177.7" y1="3.6" x2="177.7" y2="6.5"/>
	<line id="XMLID_4264_" class="center_main_frame_ruler_top_left_right_st1" x1="179.9" y1="3.6" x2="179.9" y2="6.5"/>
	<line id="XMLID_4265_" class="center_main_frame_ruler_top_left_right_st1" x1="182.2" y1="3.6" x2="182.2" y2="6.5"/>
	<line id="XMLID_4266_" class="center_main_frame_ruler_top_left_right_st1" x1="184.4" y1="3.6" x2="184.4" y2="6.5"/>
	<line id="XMLID_4267_" class="center_main_frame_ruler_top_left_right_st1" x1="186.6" y1="1.5" x2="186.6" y2="6.5"/>
	<line id="XMLID_4268_" class="center_main_frame_ruler_top_left_right_st1" x1="188.8" y1="3.6" x2="188.8" y2="6.5"/>
	<line id="XMLID_4269_" class="center_main_frame_ruler_top_left_right_st1" x1="191" y1="3.6" x2="191" y2="6.5"/>
	<line id="XMLID_4270_" class="center_main_frame_ruler_top_left_right_st1" x1="193.2" y1="3.6" x2="193.2" y2="6.5"/>
	<line id="XMLID_4274_" class="center_main_frame_ruler_top_left_right_st1" x1="195.4" y1="3.6" x2="195.4" y2="6.5"/>
	<line id="XMLID_4275_" class="center_main_frame_ruler_top_left_right_st1" x1="197.6" y1="3.6" x2="197.6" y2="6.5"/>
	<line id="XMLID_4276_" class="center_main_frame_ruler_top_left_right_st1" x1="199.8" y1="1.5" x2="199.8" y2="6.5"/>
	<line id="XMLID_4277_" class="center_main_frame_ruler_top_left_right_st1" x1="202" y1="3.6" x2="202" y2="6.5"/>
	<line id="XMLID_4278_" class="center_main_frame_ruler_top_left_right_st1" x1="204.2" y1="3.6" x2="204.2" y2="6.5"/>
	<line id="XMLID_4279_" class="center_main_frame_ruler_top_left_right_st1" x1="206.4" y1="3.6" x2="206.4" y2="6.5"/>
	<line id="XMLID_4280_" class="center_main_frame_ruler_top_left_right_st1" x1="208.6" y1="3.6" x2="208.6" y2="6.5"/>
	<line id="XMLID_4281_" class="center_main_frame_ruler_top_left_right_st1" x1="210.9" y1="3.6" x2="210.9" y2="6.5"/>
	<line id="XMLID_4282_" class="center_main_frame_ruler_top_left_right_st1" x1="213" y1="1.5" x2="213" y2="6.5"/>
	<line id="XMLID_4283_" class="center_main_frame_ruler_top_left_right_st1" x1="215.3" y1="3.6" x2="215.3" y2="6.5"/>
	<line id="XMLID_4284_" class="center_main_frame_ruler_top_left_right_st1" x1="217.5" y1="3.6" x2="217.5" y2="6.5"/>
	<line id="XMLID_4285_" class="center_main_frame_ruler_top_left_right_st1" x1="219.7" y1="3.6" x2="219.7" y2="6.5"/>
	<line id="XMLID_4286_" class="center_main_frame_ruler_top_left_right_st1" x1="221.9" y1="3.6" x2="221.9" y2="6.5"/>
	<line id="XMLID_4287_" class="center_main_frame_ruler_top_left_right_st1" x1="224.1" y1="3.6" x2="224.1" y2="6.5"/>
	<line id="XMLID_4288_" class="center_main_frame_ruler_top_left_right_st1" x1="226.3" y1="1.5" x2="226.3" y2="6.5"/>
	<line id="XMLID_4289_" class="center_main_frame_ruler_top_left_right_st1" x1="228.5" y1="3.6" x2="228.5" y2="6.5"/>
	<line id="XMLID_4290_" class="center_main_frame_ruler_top_left_right_st1" x1="230.7" y1="3.6" x2="230.7" y2="6.5"/>
	<line id="XMLID_4291_" class="center_main_frame_ruler_top_left_right_st1" x1="232.9" y1="3.6" x2="232.9" y2="6.5"/>
	<line id="XMLID_4292_" class="center_main_frame_ruler_top_left_right_st1" x1="235.1" y1="3.6" x2="235.1" y2="6.5"/>
	<line id="XMLID_4293_" class="center_main_frame_ruler_top_left_right_st1" x1="237.3" y1="3.6" x2="237.3" y2="6.5"/>
	<line id="XMLID_4294_" class="center_main_frame_ruler_top_left_right_st1" x1="239.5" y1="1.5" x2="239.5" y2="6.5"/>
	<line id="XMLID_4295_" class="center_main_frame_ruler_top_left_right_st1" x1="241.7" y1="3.6" x2="241.7" y2="6.5"/>
	<line id="XMLID_4296_" class="center_main_frame_ruler_top_left_right_st1" x1="243.9" y1="3.6" x2="243.9" y2="6.5"/>
	<line id="XMLID_4298_" class="center_main_frame_ruler_top_left_right_st1" x1="246.2" y1="3.6" x2="246.2" y2="6.5"/>
	<line id="XMLID_4299_" class="center_main_frame_ruler_top_left_right_st1" x1="248.4" y1="3.6" x2="248.4" y2="6.5"/>
	<line id="XMLID_4300_" class="center_main_frame_ruler_top_left_right_st1" x1="250.6" y1="3.6" x2="250.6" y2="6.5"/>
	<line id="XMLID_4301_" class="center_main_frame_ruler_top_left_right_st1" x1="252.8" y1="1.5" x2="252.8" y2="6.5"/>
	<line id="XMLID_4302_" class="center_main_frame_ruler_top_left_right_st1" x1="255" y1="3.6" x2="255" y2="6.5"/>
	<line id="XMLID_4303_" class="center_main_frame_ruler_top_left_right_st1" x1="257.2" y1="3.6" x2="257.2" y2="6.5"/>
	<line id="XMLID_4304_" class="center_main_frame_ruler_top_left_right_st1" x1="259.4" y1="3.6" x2="259.4" y2="6.5"/>
	<line id="XMLID_4305_" class="center_main_frame_ruler_top_left_right_st1" x1="261.6" y1="3.6" x2="261.6" y2="6.5"/>
	<line id="XMLID_4306_" class="center_main_frame_ruler_top_left_right_st1" x1="263.8" y1="3.6" x2="263.8" y2="6.5"/>
</g>
</svg>
