<?xml version="1.0" encoding="utf-8"?>
<!-- Generator: Adobe Illustrator 19.0.0, SVG Export Plug-In . SVG Version: 6.00 Build 0)  -->
<svg version="1.1" id="center_main_frame" xmlns="http://www.w3.org/2000/svg" xmlns:xlink="http://www.w3.org/1999/xlink" x="0px" y="0px"
	 viewBox="1060 -65 2855 1070" style="enable-background:new 1060 -65 2855 1070;" xml:space="preserve">
<style type="text/css">
	.center_main_frame_st0{opacity:0.2;fill:#2EF5FF;enable-background:new    ;}
	.center_main_frame_st1{fill:none;stroke:#2EF5FF;stroke-width:3;stroke-miterlimit:10;}
	.center_main_frame_st2{fill:#00BEFF;}
	.center_main_frame_st3{opacity:0.6;}
	.center_main_frame_st4{fill:none;stroke:#00BEFF;stroke-miterlimit:10;}
	.center_main_frame_st5{fill:none;stroke:#1561C0;stroke-miterlimit:10;}
	.center_main_frame_st6{fill:#1561C0;}
	.center_main_frame_st7{opacity:0.5;}
</style>
<g>
	<g>
		<polygon id="XMLID_4596_" class="center_main_frame_st0" points="1898.9,-36.2 1880.9,-22.4 1880.9,-5.1 1898.9,6.7 2005.9,6.7 1999,0.5 2153,0.5 
			2171.1,17.8 2803.8,17.8 2821.8,0.5 2979.4,0.6 2970.8,8.8 3077.3,8.1 3097.3,-5.1 3097.3,-20.3 3079.3,-36.2 3017.5,-36.2 
			2998.9,-21.7 2822.1,-22.4 2801.7,-61.1 2175.8,-61.1 2155,-21.7 1980.8,-21.7 1964.3,-36.2 		"/>
		<path id="XMLID_4053_" class="center_main_frame_st1" d="M3076.8-0.8"/>
		<g id="XMLID_4054_">
			<polygon id="XMLID_20319_" class="center_main_frame_st2" points="3101.4,-16.4 3132.7,-16.4 3136.4,-23.2 3105.1,-23.2 			"/>
			<polygon id="XMLID_20318_" class="center_main_frame_st2" points="3672.7,-16.4 3701.4,-16.4 3707.8,-23.2 3676.5,-23.2 			"/>
			<polygon id="XMLID_20317_" class="center_main_frame_st2" points="3141.3,-16.4 3143,-16.4 3145.1,-20.1 3143.4,-20.1 			"/>
			<polygon id="XMLID_20316_" class="center_main_frame_st2" points="3137.9,-16.4 3139.6,-16.4 3141.7,-20.1 3140,-20.1 			"/>
			<polygon id="XMLID_20315_" class="center_main_frame_st2" points="3144.6,-16.4 3146.4,-16.4 3148.5,-20.1 3146.8,-20.1 			"/>
			<polygon id="XMLID_20314_" class="center_main_frame_st2" points="3151.4,-16.4 3153.1,-16.4 3155.2,-20.1 3153.5,-20.1 			"/>
			<polygon id="XMLID_20313_" class="center_main_frame_st2" points="3148,-16.4 3149.8,-16.4 3151.9,-20.1 3150.1,-20.1 			"/>
			<polygon id="XMLID_20312_" class="center_main_frame_st2" points="3154.8,-16.4 3156.5,-16.4 3158.6,-20.1 3156.9,-20.1 			"/>
			<polygon id="XMLID_20311_" class="center_main_frame_st2" points="3164.9,-16.4 3166.6,-16.4 3168.7,-20.1 3167,-20.1 			"/>
			<polygon id="XMLID_20310_" class="center_main_frame_st2" points="3158.1,-16.4 3159.9,-16.4 3162,-20.1 3160.2,-20.1 			"/>
			<polygon id="XMLID_20309_" class="center_main_frame_st2" points="3171.6,-16.4 3173.4,-16.4 3175.5,-20.1 3173.7,-20.1 			"/>
			<polygon id="XMLID_20308_" class="center_main_frame_st2" points="3185.1,-16.4 3186.8,-16.4 3188.9,-20.1 3187.2,-20.1 			"/>
			<polygon id="XMLID_20307_" class="center_main_frame_st2" points="3178.4,-16.4 3180.1,-16.4 3182.2,-20.1 3180.5,-20.1 			"/>
			<polygon id="XMLID_20306_" class="center_main_frame_st2" points="3191.8,-16.4 3193.6,-16.4 3195.7,-20.1 3193.9,-20.1 			"/>
			<polygon id="XMLID_20305_" class="center_main_frame_st2" points="3168.2,-16.4 3170,-16.4 3172.1,-20.1 3170.3,-20.1 			"/>
			<polygon id="XMLID_20304_" class="center_main_frame_st2" points="3161.5,-16.4 3163.2,-16.4 3165.3,-20.1 3163.6,-20.1 			"/>
			<polygon id="XMLID_20303_" class="center_main_frame_st2" points="3175,-16.4 3176.7,-16.4 3178.8,-20.1 3177.1,-20.1 			"/>
			<polygon id="XMLID_20302_" class="center_main_frame_st2" points="3188.5,-16.4 3190.2,-16.4 3192.3,-20.1 3190.6,-20.1 			"/>
			<polygon id="XMLID_20301_" class="center_main_frame_st2" points="3181.7,-16.4 3183.5,-16.4 3185.6,-20.1 3183.8,-20.1 			"/>
			<polygon id="XMLID_20300_" class="center_main_frame_st2" points="3195.2,-16.4 3196.9,-16.4 3199.1,-20.1 3197.3,-20.1 			"/>
			<polygon id="XMLID_20299_" class="center_main_frame_st2" points="3202,-16.4 3203.7,-16.4 3205.8,-20.1 3204.1,-20.1 			"/>
			<polygon id="XMLID_20298_" class="center_main_frame_st2" points="3198.6,-16.4 3200.3,-16.4 3202.4,-20.1 3200.7,-20.1 			"/>
			<polygon id="XMLID_20297_" class="center_main_frame_st2" points="3205.3,-16.4 3207.1,-16.4 3209.2,-20.1 3207.4,-20.1 			"/>
			<polygon id="XMLID_20296_" class="center_main_frame_st2" points="3212.1,-16.4 3213.8,-16.4 3215.9,-20.1 3214.2,-20.1 			"/>
			<polygon id="XMLID_20295_" class="center_main_frame_st2" points="3208.7,-16.4 3210.4,-16.4 3212.5,-20.1 3210.8,-20.1 			"/>
			<polygon id="XMLID_20294_" class="center_main_frame_st2" points="3215.4,-16.4 3217.2,-16.4 3219.3,-20.1 3217.5,-20.1 			"/>
			<polygon id="XMLID_20293_" class="center_main_frame_st2" points="3222.2,-16.4 3223.9,-16.4 3226,-20.1 3224.3,-20.1 			"/>
			<polygon id="XMLID_20292_" class="center_main_frame_st2" points="3218.8,-16.4 3220.5,-16.4 3222.6,-20.1 3220.9,-20.1 			"/>
			<polygon id="XMLID_20291_" class="center_main_frame_st2" points="3225.5,-16.4 3227.3,-16.4 3229.4,-20.1 3227.7,-20.1 			"/>
			<polygon id="XMLID_20290_" class="center_main_frame_st2" points="3232.3,-16.4 3234,-16.4 3236.1,-20.1 3234.4,-20.1 			"/>
			<polygon id="XMLID_20289_" class="center_main_frame_st2" points="3228.9,-16.4 3230.7,-16.4 3232.8,-20.1 3231,-20.1 			"/>
			<polygon id="XMLID_20288_" class="center_main_frame_st2" points="3235.7,-16.4 3237.4,-16.4 3239.5,-20.1 3237.8,-20.1 			"/>
			<polygon id="XMLID_20287_" class="center_main_frame_st2" points="3242.4,-16.4 3244.1,-16.4 3246.2,-20.1 3244.5,-20.1 			"/>
			<polygon id="XMLID_20286_" class="center_main_frame_st2" points="3239,-16.4 3240.8,-16.4 3242.9,-20.1 3241.1,-20.1 			"/>
			<polygon id="XMLID_20285_" class="center_main_frame_st2" points="3245.8,-16.4 3247.5,-16.4 3249.6,-20.1 3247.9,-20.1 			"/>
			<polygon id="XMLID_20284_" class="center_main_frame_st2" points="3252.5,-16.4 3254.3,-16.4 3256.4,-20.1 3254.6,-20.1 			"/>
			<polygon id="XMLID_20283_" class="center_main_frame_st2" points="3249.1,-16.4 3250.9,-16.4 3253,-20.1 3251.2,-20.1 			"/>
			<polygon id="XMLID_20282_" class="center_main_frame_st2" points="3255.9,-16.4 3257.6,-16.4 3259.7,-20.1 3258,-20.1 			"/>
			<polygon id="XMLID_20281_" class="center_main_frame_st2" points="3262.6,-16.4 3264.4,-16.4 3266.5,-20.1 3264.7,-20.1 			"/>
			<polygon id="XMLID_20280_" class="center_main_frame_st2" points="3259.3,-16.4 3261,-16.4 3263.1,-20.1 3261.4,-20.1 			"/>
			<polygon id="XMLID_20279_" class="center_main_frame_st2" points="3266,-16.4 3267.7,-16.4 3269.8,-20.1 3268.1,-20.1 			"/>
			<polygon id="XMLID_20278_" class="center_main_frame_st2" points="3272.7,-16.4 3274.5,-16.4 3276.6,-20.1 3274.8,-20.1 			"/>
			<polygon id="XMLID_20277_" class="center_main_frame_st2" points="3269.4,-16.4 3271.1,-16.4 3273.2,-20.1 3271.5,-20.1 			"/>
			<polygon id="XMLID_20276_" class="center_main_frame_st2" points="3276.1,-16.4 3277.8,-16.4 3280,-20.1 3278.2,-20.1 			"/>
			<polygon id="XMLID_20275_" class="center_main_frame_st2" points="3282.9,-16.4 3284.6,-16.4 3286.7,-20.1 3285,-20.1 			"/>
			<polygon id="XMLID_20274_" class="center_main_frame_st2" points="3279.5,-16.4 3281.2,-16.4 3283.3,-20.1 3281.6,-20.1 			"/>
			<polygon id="XMLID_20273_" class="center_main_frame_st2" points="3286.2,-16.4 3288,-16.4 3290.1,-20.1 3288.3,-20.1 			"/>
			<polygon id="XMLID_20272_" class="center_main_frame_st2" points="3293,-16.4 3294.7,-16.4 3296.8,-20.1 3295.1,-20.1 			"/>
			<polygon id="XMLID_20271_" class="center_main_frame_st2" points="3289.6,-16.4 3291.3,-16.4 3293.4,-20.1 3291.7,-20.1 			"/>
			<polygon id="XMLID_20270_" class="center_main_frame_st2" points="3296.3,-16.4 3298.1,-16.4 3300.2,-20.1 3298.4,-20.1 			"/>
			<polygon id="XMLID_20269_" class="center_main_frame_st2" points="3303.1,-16.4 3304.8,-16.4 3306.9,-20.1 3305.2,-20.1 			"/>
			<polygon id="XMLID_20268_" class="center_main_frame_st2" points="3299.7,-16.4 3301.4,-16.4 3303.5,-20.1 3301.8,-20.1 			"/>
			<polygon id="XMLID_20267_" class="center_main_frame_st2" points="3306.4,-16.4 3308.2,-16.4 3310.3,-20.1 3308.6,-20.1 			"/>
			<polygon id="XMLID_20266_" class="center_main_frame_st2" points="3313.2,-16.4 3314.9,-16.4 3317,-20.1 3315.3,-20.1 			"/>
			<polygon id="XMLID_20265_" class="center_main_frame_st2" points="3309.8,-16.4 3311.6,-16.4 3313.7,-20.1 3311.9,-20.1 			"/>
			<polygon id="XMLID_20264_" class="center_main_frame_st2" points="3316.6,-16.4 3318.3,-16.4 3320.4,-20.1 3318.7,-20.1 			"/>
			<polygon id="XMLID_20263_" class="center_main_frame_st2" points="3323.3,-16.4 3325,-16.4 3327.1,-20.1 3325.4,-20.1 			"/>
			<polygon id="XMLID_20262_" class="center_main_frame_st2" points="3319.9,-16.4 3321.7,-16.4 3323.8,-20.1 3322,-20.1 			"/>
			<polygon id="XMLID_20261_" class="center_main_frame_st2" points="3326.7,-16.4 3328.4,-16.4 3330.5,-20.1 3328.8,-20.1 			"/>
			<polygon id="XMLID_20260_" class="center_main_frame_st2" points="3333.4,-16.4 3335.2,-16.4 3337.3,-20.1 3335.5,-20.1 			"/>
			<polygon id="XMLID_20259_" class="center_main_frame_st2" points="3330,-16.4 3331.8,-16.4 3333.9,-20.1 3332.1,-20.1 			"/>
			<polygon id="XMLID_20258_" class="center_main_frame_st2" points="3336.8,-16.4 3338.5,-16.4 3340.6,-20.1 3338.9,-20.1 			"/>
			<polygon id="XMLID_20257_" class="center_main_frame_st2" points="3343.5,-16.4 3345.3,-16.4 3347.4,-20.1 3345.6,-20.1 			"/>
			<polygon id="XMLID_20256_" class="center_main_frame_st2" points="3340.2,-16.4 3341.9,-16.4 3344,-20.1 3342.3,-20.1 			"/>
			<polygon id="XMLID_20255_" class="center_main_frame_st2" points="3346.9,-16.4 3348.6,-16.4 3350.7,-20.1 3349,-20.1 			"/>
			<polygon id="XMLID_20254_" class="center_main_frame_st2" points="3353.6,-16.4 3355.4,-16.4 3357.5,-20.1 3355.7,-20.1 			"/>
			<polygon id="XMLID_20253_" class="center_main_frame_st2" points="3350.3,-16.4 3352,-16.4 3354.1,-20.1 3352.4,-20.1 			"/>
			<polygon id="XMLID_20252_" class="center_main_frame_st2" points="3357,-16.4 3358.7,-16.4 3360.9,-20.1 3359.1,-20.1 			"/>
			<polygon id="XMLID_20251_" class="center_main_frame_st2" points="3363.8,-16.4 3365.5,-16.4 3367.6,-20.1 3365.9,-20.1 			"/>
			<polygon id="XMLID_20250_" class="center_main_frame_st2" points="3360.4,-16.4 3362.1,-16.4 3364.2,-20.1 3362.5,-20.1 			"/>
			<polygon id="XMLID_20249_" class="center_main_frame_st2" points="3367.1,-16.4 3368.9,-16.4 3371,-20.1 3369.2,-20.1 			"/>
			<polygon id="XMLID_20248_" class="center_main_frame_st2" points="3373.9,-16.4 3375.6,-16.4 3377.7,-20.1 3376,-20.1 			"/>
			<polygon id="XMLID_20247_" class="center_main_frame_st2" points="3370.5,-16.4 3372.2,-16.4 3374.3,-20.1 3372.6,-20.1 			"/>
			<polygon id="XMLID_20246_" class="center_main_frame_st2" points="3377.2,-16.4 3379,-16.4 3381.1,-20.1 3379.3,-20.1 			"/>
			<polygon id="XMLID_20245_" class="center_main_frame_st2" points="3384,-16.4 3385.7,-16.4 3387.8,-20.1 3386.1,-20.1 			"/>
			<polygon id="XMLID_20244_" class="center_main_frame_st2" points="3380.6,-16.4 3382.3,-16.4 3384.4,-20.1 3382.7,-20.1 			"/>
			<polygon id="XMLID_20243_" class="center_main_frame_st2" points="3387.3,-16.4 3389.1,-16.4 3391.2,-20.1 3389.5,-20.1 			"/>
			<polygon id="XMLID_20242_" class="center_main_frame_st2" points="3394.1,-16.4 3395.8,-16.4 3397.9,-20.1 3396.2,-20.1 			"/>
			<polygon id="XMLID_20241_" class="center_main_frame_st2" points="3390.7,-16.4 3392.5,-16.4 3394.6,-20.1 3392.8,-20.1 			"/>
			<polygon id="XMLID_20240_" class="center_main_frame_st2" points="3397.5,-16.4 3399.2,-16.4 3401.3,-20.1 3399.6,-20.1 			"/>
			<polygon id="XMLID_20239_" class="center_main_frame_st2" points="3404.2,-16.4 3405.9,-16.4 3408,-20.1 3406.3,-20.1 			"/>
			<polygon id="XMLID_20238_" class="center_main_frame_st2" points="3400.8,-16.4 3402.6,-16.4 3404.7,-20.1 3402.9,-20.1 			"/>
			<polygon id="XMLID_20237_" class="center_main_frame_st2" points="3407.6,-16.4 3409.3,-16.4 3411.4,-20.1 3409.7,-20.1 			"/>
			<polygon id="XMLID_20236_" class="center_main_frame_st2" points="3414.3,-16.4 3416.1,-16.4 3418.2,-20.1 3416.4,-20.1 			"/>
			<polygon id="XMLID_20235_" class="center_main_frame_st2" points="3410.9,-16.4 3412.7,-16.4 3414.8,-20.1 3413,-20.1 			"/>
			<polygon id="XMLID_20234_" class="center_main_frame_st2" points="3417.7,-16.4 3419.4,-16.4 3421.5,-20.1 3419.8,-20.1 			"/>
			<polygon id="XMLID_20233_" class="center_main_frame_st2" points="3424.4,-16.4 3426.2,-16.4 3428.3,-20.1 3426.5,-20.1 			"/>
			<polygon id="XMLID_20232_" class="center_main_frame_st2" points="3421.1,-16.4 3422.8,-16.4 3424.9,-20.1 3423.2,-20.1 			"/>
			<polygon id="XMLID_20231_" class="center_main_frame_st2" points="3427.8,-16.4 3429.5,-16.4 3431.6,-20.1 3429.9,-20.1 			"/>
			<polygon id="XMLID_20230_" class="center_main_frame_st2" points="3434.5,-16.4 3436.3,-16.4 3438.4,-20.1 3436.6,-20.1 			"/>
			<polygon id="XMLID_20229_" class="center_main_frame_st2" points="3431.2,-16.4 3432.9,-16.4 3435,-20.1 3433.3,-20.1 			"/>
			<polygon id="XMLID_20228_" class="center_main_frame_st2" points="3437.9,-16.4 3439.6,-16.4 3441.8,-20.1 3440,-20.1 			"/>
			<polygon id="XMLID_20227_" class="center_main_frame_st2" points="3444.7,-16.4 3446.4,-16.4 3448.5,-20.1 3446.8,-20.1 			"/>
			<polygon id="XMLID_20226_" class="center_main_frame_st2" points="3441.3,-16.4 3443,-16.4 3445.1,-20.1 3443.4,-20.1 			"/>
			<polygon id="XMLID_20225_" class="center_main_frame_st2" points="3448,-16.4 3449.8,-16.4 3451.9,-20.1 3450.1,-20.1 			"/>
			<polygon id="XMLID_20224_" class="center_main_frame_st2" points="3454.8,-16.4 3456.5,-16.4 3458.6,-20.1 3456.9,-20.1 			"/>
			<polygon id="XMLID_20223_" class="center_main_frame_st2" points="3451.4,-16.4 3453.1,-16.4 3455.2,-20.1 3453.5,-20.1 			"/>
			<polygon id="XMLID_20222_" class="center_main_frame_st2" points="3458.1,-16.4 3459.9,-16.4 3462,-20.1 3460.2,-20.1 			"/>
			<polygon id="XMLID_20221_" class="center_main_frame_st2" points="3464.9,-16.4 3466.6,-16.4 3468.7,-20.1 3467,-20.1 			"/>
			<polygon id="XMLID_20220_" class="center_main_frame_st2" points="3461.5,-16.4 3463.2,-16.4 3465.3,-20.1 3463.6,-20.1 			"/>
			<polygon id="XMLID_20219_" class="center_main_frame_st2" points="3468.2,-16.4 3470,-16.4 3472.1,-20.1 3470.4,-20.1 			"/>
			<polygon id="XMLID_20218_" class="center_main_frame_st2" points="3475,-16.4 3476.7,-16.4 3478.8,-20.1 3477.1,-20.1 			"/>
			<polygon id="XMLID_20217_" class="center_main_frame_st2" points="3471.6,-16.4 3473.4,-16.4 3475.5,-20.1 3473.7,-20.1 			"/>
			<polygon id="XMLID_20216_" class="center_main_frame_st2" points="3478.4,-16.4 3480.1,-16.4 3482.2,-20.1 3480.5,-20.1 			"/>
			<polygon id="XMLID_20215_" class="center_main_frame_st2" points="3485.1,-16.4 3486.8,-16.4 3488.9,-20.1 3487.2,-20.1 			"/>
			<polygon id="XMLID_20214_" class="center_main_frame_st2" points="3481.7,-16.4 3483.5,-16.4 3485.6,-20.1 3483.8,-20.1 			"/>
			<polygon id="XMLID_20213_" class="center_main_frame_st2" points="3488.5,-16.4 3490.2,-16.4 3492.3,-20.1 3490.6,-20.1 			"/>
			<polygon id="XMLID_20212_" class="center_main_frame_st2" points="3495.2,-16.4 3497,-16.4 3499.1,-20.1 3497.3,-20.1 			"/>
			<polygon id="XMLID_20211_" class="center_main_frame_st2" points="3491.8,-16.4 3493.6,-16.4 3495.7,-20.1 3493.9,-20.1 			"/>
			<polygon id="XMLID_20210_" class="center_main_frame_st2" points="3498.6,-16.4 3500.3,-16.4 3502.4,-20.1 3500.7,-20.1 			"/>
			<polygon id="XMLID_20209_" class="center_main_frame_st2" points="3505.3,-16.4 3507.1,-16.4 3509.2,-20.1 3507.4,-20.1 			"/>
			<polygon id="XMLID_20208_" class="center_main_frame_st2" points="3502,-16.4 3503.7,-16.4 3505.8,-20.1 3504.1,-20.1 			"/>
			<polygon id="XMLID_20207_" class="center_main_frame_st2" points="3508.7,-16.4 3510.4,-16.4 3512.5,-20.1 3510.8,-20.1 			"/>
			<polygon id="XMLID_20206_" class="center_main_frame_st2" points="3515.4,-16.4 3517.2,-16.4 3519.3,-20.1 3517.5,-20.1 			"/>
			<polygon id="XMLID_20205_" class="center_main_frame_st2" points="3512.1,-16.4 3513.8,-16.4 3515.9,-20.1 3514.2,-20.1 			"/>
			<polygon id="XMLID_20204_" class="center_main_frame_st2" points="3518.8,-16.4 3520.5,-16.4 3522.7,-20.1 3520.9,-20.1 			"/>
			<polygon id="XMLID_20203_" class="center_main_frame_st2" points="3525.6,-16.4 3527.3,-16.4 3529.4,-20.1 3527.7,-20.1 			"/>
			<polygon id="XMLID_20202_" class="center_main_frame_st2" points="3522.2,-16.4 3523.9,-16.4 3526,-20.1 3524.3,-20.1 			"/>
			<polygon id="XMLID_20201_" class="center_main_frame_st2" points="3528.9,-16.4 3530.7,-16.4 3532.8,-20.1 3531,-20.1 			"/>
			<polygon id="XMLID_20200_" class="center_main_frame_st2" points="3535.7,-16.4 3537.4,-16.4 3539.5,-20.1 3537.8,-20.1 			"/>
			<polygon id="XMLID_20199_" class="center_main_frame_st2" points="3532.3,-16.4 3534,-16.4 3536.1,-20.1 3534.4,-20.1 			"/>
			<polygon id="XMLID_20198_" class="center_main_frame_st2" points="3539,-16.4 3540.8,-16.4 3542.9,-20.1 3541.1,-20.1 			"/>
			<polygon id="XMLID_20197_" class="center_main_frame_st2" points="3545.8,-16.4 3547.5,-16.4 3549.6,-20.1 3547.9,-20.1 			"/>
			<polygon id="XMLID_20196_" class="center_main_frame_st2" points="3542.4,-16.4 3544.1,-16.4 3546.2,-20.1 3544.5,-20.1 			"/>
			<polygon id="XMLID_20195_" class="center_main_frame_st2" points="3549.1,-16.4 3550.9,-16.4 3553,-20.1 3551.3,-20.1 			"/>
			<polygon id="XMLID_20194_" class="center_main_frame_st2" points="3555.9,-16.4 3557.6,-16.4 3559.7,-20.1 3558,-20.1 			"/>
			<polygon id="XMLID_20193_" class="center_main_frame_st2" points="3552.5,-16.4 3554.3,-16.4 3556.4,-20.1 3554.6,-20.1 			"/>
			<polygon id="XMLID_20192_" class="center_main_frame_st2" points="3559.3,-16.4 3561,-16.4 3563.1,-20.1 3561.4,-20.1 			"/>
			<polygon id="XMLID_20191_" class="center_main_frame_st2" points="3566,-16.4 3567.7,-16.4 3569.8,-20.1 3568.1,-20.1 			"/>
			<polygon id="XMLID_20190_" class="center_main_frame_st2" points="3562.6,-16.4 3564.4,-16.4 3566.5,-20.1 3564.7,-20.1 			"/>
			<polygon id="XMLID_20189_" class="center_main_frame_st2" points="3569.4,-16.4 3571.1,-16.4 3573.2,-20.1 3571.5,-20.1 			"/>
			<polygon id="XMLID_20188_" class="center_main_frame_st2" points="3576.1,-16.4 3577.9,-16.4 3580,-20.1 3578.2,-20.1 			"/>
			<polygon id="XMLID_20187_" class="center_main_frame_st2" points="3572.7,-16.4 3574.5,-16.4 3576.6,-20.1 3574.8,-20.1 			"/>
			<polygon id="XMLID_20186_" class="center_main_frame_st2" points="3579.5,-16.4 3581.2,-16.4 3583.3,-20.1 3581.6,-20.1 			"/>
			<polygon id="XMLID_20185_" class="center_main_frame_st2" points="3586.2,-16.4 3588,-16.4 3590.1,-20.1 3588.3,-20.1 			"/>
			<polygon id="XMLID_20184_" class="center_main_frame_st2" points="3582.9,-16.4 3584.6,-16.4 3586.7,-20.1 3585,-20.1 			"/>
			<polygon id="XMLID_20183_" class="center_main_frame_st2" points="3589.6,-16.4 3591.3,-16.4 3593.4,-20.1 3591.7,-20.1 			"/>
			<polygon id="XMLID_20182_" class="center_main_frame_st2" points="3596.3,-16.4 3598.1,-16.4 3600.2,-20.1 3598.4,-20.1 			"/>
			<polygon id="XMLID_20181_" class="center_main_frame_st2" points="3593,-16.4 3594.7,-16.4 3596.8,-20.1 3595.1,-20.1 			"/>
			<polygon id="XMLID_20180_" class="center_main_frame_st2" points="3599.7,-16.4 3601.4,-16.4 3603.6,-20.1 3601.8,-20.1 			"/>
			<polygon id="XMLID_20179_" class="center_main_frame_st2" points="3606.5,-16.4 3608.2,-16.4 3610.3,-20.1 3608.6,-20.1 			"/>
			<polygon id="XMLID_20178_" class="center_main_frame_st2" points="3603.1,-16.4 3604.8,-16.4 3606.9,-20.1 3605.2,-20.1 			"/>
			<polygon id="XMLID_20177_" class="center_main_frame_st2" points="3609.8,-16.4 3611.6,-16.4 3613.7,-20.1 3611.9,-20.1 			"/>
			<polygon id="XMLID_20176_" class="center_main_frame_st2" points="3616.6,-16.4 3618.3,-16.4 3620.4,-20.1 3618.7,-20.1 			"/>
			<polygon id="XMLID_20175_" class="center_main_frame_st2" points="3613.2,-16.4 3614.9,-16.4 3617,-20.1 3615.3,-20.1 			"/>
			<polygon id="XMLID_20174_" class="center_main_frame_st2" points="3619.9,-16.4 3621.7,-16.4 3623.8,-20.1 3622,-20.1 			"/>
			<polygon id="XMLID_20173_" class="center_main_frame_st2" points="3626.7,-16.4 3628.4,-16.4 3630.5,-20.1 3628.8,-20.1 			"/>
			<polygon id="XMLID_20172_" class="center_main_frame_st2" points="3623.3,-16.4 3625,-16.4 3627.1,-20.1 3625.4,-20.1 			"/>
			<polygon id="XMLID_20171_" class="center_main_frame_st2" points="3630,-16.4 3631.8,-16.4 3633.9,-20.1 3632.2,-20.1 			"/>
			<polygon id="XMLID_20170_" class="center_main_frame_st2" points="3636.8,-16.4 3638.5,-16.4 3640.6,-20.1 3638.9,-20.1 			"/>
			<polygon id="XMLID_20169_" class="center_main_frame_st2" points="3633.4,-16.4 3635.2,-16.4 3637.3,-20.1 3635.5,-20.1 			"/>
			<polygon id="XMLID_20168_" class="center_main_frame_st2" points="3640.2,-16.4 3641.9,-16.4 3644,-20.1 3642.3,-20.1 			"/>
			<polygon id="XMLID_20167_" class="center_main_frame_st2" points="3646.9,-16.4 3648.6,-16.4 3650.7,-20.1 3649,-20.1 			"/>
			<polygon id="XMLID_20166_" class="center_main_frame_st2" points="3643.5,-16.4 3645.3,-16.4 3647.4,-20.1 3645.6,-20.1 			"/>
			<polygon id="XMLID_20165_" class="center_main_frame_st2" points="3650.3,-16.4 3652,-16.4 3654.1,-20.1 3652.4,-20.1 			"/>
			<polygon id="XMLID_20164_" class="center_main_frame_st2" points="3657,-16.4 3658.8,-16.4 3660.9,-20.1 3659.1,-20.1 			"/>
			<polygon id="XMLID_20163_" class="center_main_frame_st2" points="3653.6,-16.4 3655.4,-16.4 3657.5,-20.1 3655.7,-20.1 			"/>
			<polygon id="XMLID_20162_" class="center_main_frame_st2" points="3660.4,-16.4 3662.1,-16.4 3664.2,-20.1 3662.5,-20.1 			"/>
			<polygon id="XMLID_20161_" class="center_main_frame_st2" points="3663.6,-16.4 3665.3,-16.4 3667.4,-20.1 3665.7,-20.1 			"/>
			<polygon id="XMLID_20160_" class="center_main_frame_st2" points="3666.9,-16.4 3668.7,-16.4 3670.8,-20.1 3669,-20.1 			"/>
		</g>
		<g id="XMLID_4055_">
			<polygon id="XMLID_20158_" class="center_main_frame_st2" points="1877.8,-16.4 1846.4,-16.4 1842.7,-23.2 1874,-23.2 			"/>
			<polygon id="XMLID_20157_" class="center_main_frame_st2" points="1307.6,-16.4 1277.1,-16.4 1271.3,-23.2 1302.6,-23.2 			"/>
			<polygon id="XMLID_20156_" class="center_main_frame_st2" points="1837.9,-16.4 1836.1,-16.4 1834,-20.1 1835.7,-20.1 			"/>
			<polygon id="XMLID_20155_" class="center_main_frame_st2" points="1841.2,-16.4 1839.5,-16.4 1837.4,-20.1 1839.1,-20.1 			"/>
			<polygon id="XMLID_20154_" class="center_main_frame_st2" points="1834.5,-16.4 1832.7,-16.4 1830.6,-20.1 1832.4,-20.1 			"/>
			<polygon id="XMLID_20153_" class="center_main_frame_st2" points="1827.7,-16.4 1826,-16.4 1823.9,-20.1 1825.6,-20.1 			"/>
			<polygon id="XMLID_20152_" class="center_main_frame_st2" points="1831.1,-16.4 1829.4,-16.4 1827.3,-20.1 1829,-20.1 			"/>
			<polygon id="XMLID_20151_" class="center_main_frame_st2" points="1824.4,-16.4 1822.6,-16.4 1820.5,-20.1 1822.3,-20.1 			"/>
			<polygon id="XMLID_20150_" class="center_main_frame_st2" points="1814.3,-16.4 1812.5,-16.4 1810.4,-20.1 1812.2,-20.1 			"/>
			<polygon id="XMLID_20149_" class="center_main_frame_st2" points="1821,-16.4 1819.3,-16.4 1817.2,-20.1 1818.9,-20.1 			"/>
			<polygon id="XMLID_20148_" class="center_main_frame_st2" points="1807.5,-16.4 1805.8,-16.4 1803.7,-20.1 1805.4,-20.1 			"/>
			<polygon id="XMLID_20147_" class="center_main_frame_st2" points="1794,-16.4 1792.3,-16.4 1790.2,-20.1 1791.9,-20.1 			"/>
			<polygon id="XMLID_20146_" class="center_main_frame_st2" points="1800.8,-16.4 1799,-16.4 1796.9,-20.1 1798.7,-20.1 			"/>
			<polygon id="XMLID_20145_" class="center_main_frame_st2" points="1787.3,-16.4 1785.5,-16.4 1783.4,-20.1 1785.2,-20.1 			"/>
			<polygon id="XMLID_20144_" class="center_main_frame_st2" points="1810.9,-16.4 1809.1,-16.4 1807,-20.1 1808.8,-20.1 			"/>
			<polygon id="XMLID_20143_" class="center_main_frame_st2" points="1817.6,-16.4 1815.9,-16.4 1813.8,-20.1 1815.5,-20.1 			"/>
			<polygon id="XMLID_20142_" class="center_main_frame_st2" points="1804.1,-16.4 1802.4,-16.4 1800.3,-20.1 1802,-20.1 			"/>
			<polygon id="XMLID_20141_" class="center_main_frame_st2" points="1790.7,-16.4 1788.9,-16.4 1786.8,-20.1 1788.6,-20.1 			"/>
			<polygon id="XMLID_20140_" class="center_main_frame_st2" points="1797.4,-16.4 1795.7,-16.4 1793.6,-20.1 1795.3,-20.1 			"/>
			<polygon id="XMLID_20139_" class="center_main_frame_st2" points="1783.9,-16.4 1782.2,-16.4 1780.1,-20.1 1781.8,-20.1 			"/>
			<polygon id="XMLID_20138_" class="center_main_frame_st2" points="1777.2,-16.4 1775.4,-16.4 1773.3,-20.1 1775.1,-20.1 			"/>
			<polygon id="XMLID_20137_" class="center_main_frame_st2" points="1780.5,-16.4 1778.8,-16.4 1776.7,-20.1 1778.4,-20.1 			"/>
			<polygon id="XMLID_20136_" class="center_main_frame_st2" points="1773.8,-16.4 1772.1,-16.4 1770,-20.1 1771.7,-20.1 			"/>
			<polygon id="XMLID_20135_" class="center_main_frame_st2" points="1767.1,-16.4 1765.3,-16.4 1763.2,-20.1 1765,-20.1 			"/>
			<polygon id="XMLID_20134_" class="center_main_frame_st2" points="1770.4,-16.4 1768.7,-16.4 1766.6,-20.1 1768.3,-20.1 			"/>
			<polygon id="XMLID_20133_" class="center_main_frame_st2" points="1763.7,-16.4 1762,-16.4 1759.8,-20.1 1761.6,-20.1 			"/>
			<polygon id="XMLID_20132_" class="center_main_frame_st2" points="1757,-16.4 1755.2,-16.4 1753.1,-20.1 1754.8,-20.1 			"/>
			<polygon id="XMLID_20131_" class="center_main_frame_st2" points="1760.3,-16.4 1758.6,-16.4 1756.5,-20.1 1758.2,-20.1 			"/>
			<polygon id="XMLID_20130_" class="center_main_frame_st2" points="1753.6,-16.4 1751.8,-16.4 1749.7,-20.1 1751.5,-20.1 			"/>
			<polygon id="XMLID_20129_" class="center_main_frame_st2" points="1746.8,-16.4 1745.1,-16.4 1743,-20.1 1744.7,-20.1 			"/>
			<polygon id="XMLID_20128_" class="center_main_frame_st2" points="1750.2,-16.4 1748.5,-16.4 1746.4,-20.1 1748.1,-20.1 			"/>
			<polygon id="XMLID_20127_" class="center_main_frame_st2" points="1743.5,-16.4 1741.7,-16.4 1739.6,-20.1 1741.4,-20.1 			"/>
			<polygon id="XMLID_20126_" class="center_main_frame_st2" points="1736.7,-16.4 1735,-16.4 1732.9,-20.1 1734.6,-20.1 			"/>
			<polygon id="XMLID_20125_" class="center_main_frame_st2" points="1740.1,-16.4 1738.4,-16.4 1736.3,-20.1 1738,-20.1 			"/>
			<polygon id="XMLID_20124_" class="center_main_frame_st2" points="1733.4,-16.4 1731.6,-16.4 1729.5,-20.1 1731.3,-20.1 			"/>
			<polygon id="XMLID_20123_" class="center_main_frame_st2" points="1726.6,-16.4 1724.9,-16.4 1722.8,-20.1 1724.5,-20.1 			"/>
			<polygon id="XMLID_20122_" class="center_main_frame_st2" points="1730,-16.4 1728.2,-16.4 1726.1,-20.1 1727.9,-20.1 			"/>
			<polygon id="XMLID_20121_" class="center_main_frame_st2" points="1723.2,-16.4 1721.5,-16.4 1719.4,-20.1 1721.1,-20.1 			"/>
			<polygon id="XMLID_20120_" class="center_main_frame_st2" points="1716.5,-16.4 1714.8,-16.4 1712.7,-20.1 1714.4,-20.1 			"/>
			<polygon id="XMLID_20119_" class="center_main_frame_st2" points="1719.9,-16.4 1718.1,-16.4 1716,-20.1 1717.8,-20.1 			"/>
			<polygon id="XMLID_20118_" class="center_main_frame_st2" points="1713.1,-16.4 1711.4,-16.4 1709.3,-20.1 1711,-20.1 			"/>
			<polygon id="XMLID_20117_" class="center_main_frame_st2" points="1706.4,-16.4 1704.7,-16.4 1702.5,-20.1 1704.3,-20.1 			"/>
			<polygon id="XMLID_20116_" class="center_main_frame_st2" points="1709.8,-16.4 1708,-16.4 1705.9,-20.1 1707.7,-20.1 			"/>
			<polygon id="XMLID_20115_" class="center_main_frame_st2" points="1703,-16.4 1701.3,-16.4 1699.2,-20.1 1700.9,-20.1 			"/>
			<polygon id="XMLID_20114_" class="center_main_frame_st2" points="1696.3,-16.4 1694.5,-16.4 1692.4,-20.1 1694.2,-20.1 			"/>
			<polygon id="XMLID_20113_" class="center_main_frame_st2" points="1699.6,-16.4 1697.9,-16.4 1695.8,-20.1 1697.5,-20.1 			"/>
			<polygon id="XMLID_20112_" class="center_main_frame_st2" points="1692.9,-16.4 1691.2,-16.4 1689.1,-20.1 1690.8,-20.1 			"/>
			<polygon id="XMLID_20111_" class="center_main_frame_st2" points="1686.2,-16.4 1684.4,-16.4 1682.3,-20.1 1684.1,-20.1 			"/>
			<polygon id="XMLID_20110_" class="center_main_frame_st2" points="1689.5,-16.4 1687.8,-16.4 1685.7,-20.1 1687.4,-20.1 			"/>
			<polygon id="XMLID_20109_" class="center_main_frame_st2" points="1682.8,-16.4 1681.1,-16.4 1679,-20.1 1680.7,-20.1 			"/>
			<polygon id="XMLID_20108_" class="center_main_frame_st2" points="1676.1,-16.4 1674.3,-16.4 1672.2,-20.1 1673.9,-20.1 			"/>
			<polygon id="XMLID_20107_" class="center_main_frame_st2" points="1679.4,-16.4 1677.7,-16.4 1675.6,-20.1 1677.3,-20.1 			"/>
			<polygon id="XMLID_20106_" class="center_main_frame_st2" points="1672.7,-16.4 1670.9,-16.4 1668.8,-20.1 1670.6,-20.1 			"/>
			<polygon id="XMLID_20105_" class="center_main_frame_st2" points="1665.9,-16.4 1664.2,-16.4 1662.1,-20.1 1663.8,-20.1 			"/>
			<polygon id="XMLID_20104_" class="center_main_frame_st2" points="1669.3,-16.4 1667.6,-16.4 1665.5,-20.1 1667.2,-20.1 			"/>
			<polygon id="XMLID_20103_" class="center_main_frame_st2" points="1662.6,-16.4 1660.8,-16.4 1658.7,-20.1 1660.5,-20.1 			"/>
			<polygon id="XMLID_20102_" class="center_main_frame_st2" points="1655.8,-16.4 1654.1,-16.4 1652,-20.1 1653.7,-20.1 			"/>
			<polygon id="XMLID_20101_" class="center_main_frame_st2" points="1659.2,-16.4 1657.5,-16.4 1655.4,-20.1 1657.1,-20.1 			"/>
			<polygon id="XMLID_20100_" class="center_main_frame_st2" points="1652.5,-16.4 1650.7,-16.4 1648.6,-20.1 1650.4,-20.1 			"/>
			<polygon id="XMLID_20099_" class="center_main_frame_st2" points="1645.7,-16.4 1644,-16.4 1641.9,-20.1 1643.6,-20.1 			"/>
			<polygon id="XMLID_20098_" class="center_main_frame_st2" points="1649.1,-16.4 1647.3,-16.4 1645.2,-20.1 1647,-20.1 			"/>
			<polygon id="XMLID_20097_" class="center_main_frame_st2" points="1642.3,-16.4 1640.6,-16.4 1638.5,-20.1 1640.2,-20.1 			"/>
			<polygon id="XMLID_20096_" class="center_main_frame_st2" points="1635.6,-16.4 1633.9,-16.4 1631.8,-20.1 1633.5,-20.1 			"/>
			<polygon id="XMLID_20095_" class="center_main_frame_st2" points="1639,-16.4 1637.2,-16.4 1635.1,-20.1 1636.9,-20.1 			"/>
			<polygon id="XMLID_20094_" class="center_main_frame_st2" points="1632.2,-16.4 1630.5,-16.4 1628.4,-20.1 1630.1,-20.1 			"/>
			<polygon id="XMLID_20093_" class="center_main_frame_st2" points="1625.5,-16.4 1623.8,-16.4 1621.6,-20.1 1623.4,-20.1 			"/>
			<polygon id="XMLID_20092_" class="center_main_frame_st2" points="1628.9,-16.4 1627.1,-16.4 1625,-20.1 1626.8,-20.1 			"/>
			<polygon id="XMLID_20091_" class="center_main_frame_st2" points="1622.1,-16.4 1620.4,-16.4 1618.3,-20.1 1620,-20.1 			"/>
			<polygon id="XMLID_20090_" class="center_main_frame_st2" points="1615.4,-16.4 1613.6,-16.4 1611.5,-20.1 1613.3,-20.1 			"/>
			<polygon id="XMLID_20089_" class="center_main_frame_st2" points="1618.7,-16.4 1617,-16.4 1614.9,-20.1 1616.6,-20.1 			"/>
			<polygon id="XMLID_20088_" class="center_main_frame_st2" points="1612,-16.4 1610.3,-16.4 1608.2,-20.1 1609.9,-20.1 			"/>
			<polygon id="XMLID_20087_" class="center_main_frame_st2" points="1605.3,-16.4 1603.5,-16.4 1601.4,-20.1 1603.2,-20.1 			"/>
			<polygon id="XMLID_20086_" class="center_main_frame_st2" points="1608.6,-16.4 1606.9,-16.4 1604.8,-20.1 1606.5,-20.1 			"/>
			<polygon id="XMLID_20085_" class="center_main_frame_st2" points="1601.9,-16.4 1600.2,-16.4 1598.1,-20.1 1599.8,-20.1 			"/>
			<polygon id="XMLID_20084_" class="center_main_frame_st2" points="1595.2,-16.4 1593.4,-16.4 1591.3,-20.1 1593,-20.1 			"/>
			<polygon id="XMLID_20083_" class="center_main_frame_st2" points="1598.5,-16.4 1596.8,-16.4 1594.7,-20.1 1596.4,-20.1 			"/>
			<polygon id="XMLID_20082_" class="center_main_frame_st2" points="1591.8,-16.4 1590,-16.4 1587.9,-20.1 1589.7,-20.1 			"/>
			<polygon id="XMLID_20081_" class="center_main_frame_st2" points="1585,-16.4 1583.3,-16.4 1581.2,-20.1 1582.9,-20.1 			"/>
			<polygon id="XMLID_20080_" class="center_main_frame_st2" points="1588.4,-16.4 1586.7,-16.4 1584.6,-20.1 1586.3,-20.1 			"/>
			<polygon id="XMLID_20079_" class="center_main_frame_st2" points="1581.7,-16.4 1579.9,-16.4 1577.8,-20.1 1579.6,-20.1 			"/>
			<polygon id="XMLID_20078_" class="center_main_frame_st2" points="1574.9,-16.4 1573.2,-16.4 1571.1,-20.1 1572.8,-20.1 			"/>
			<polygon id="XMLID_20077_" class="center_main_frame_st2" points="1578.3,-16.4 1576.6,-16.4 1574.5,-20.1 1576.2,-20.1 			"/>
			<polygon id="XMLID_20076_" class="center_main_frame_st2" points="1571.6,-16.4 1569.8,-16.4 1567.7,-20.1 1569.5,-20.1 			"/>
			<polygon id="XMLID_20075_" class="center_main_frame_st2" points="1564.8,-16.4 1563.1,-16.4 1561,-20.1 1562.7,-20.1 			"/>
			<polygon id="XMLID_20074_" class="center_main_frame_st2" points="1568.2,-16.4 1566.4,-16.4 1564.3,-20.1 1566.1,-20.1 			"/>
			<polygon id="XMLID_20073_" class="center_main_frame_st2" points="1561.4,-16.4 1559.7,-16.4 1557.6,-20.1 1559.3,-20.1 			"/>
			<polygon id="XMLID_20072_" class="center_main_frame_st2" points="1554.7,-16.4 1553,-16.4 1550.9,-20.1 1552.6,-20.1 			"/>
			<polygon id="XMLID_20071_" class="center_main_frame_st2" points="1558.1,-16.4 1556.3,-16.4 1554.2,-20.1 1556,-20.1 			"/>
			<polygon id="XMLID_20070_" class="center_main_frame_st2" points="1551.3,-16.4 1549.6,-16.4 1547.5,-20.1 1549.2,-20.1 			"/>
			<polygon id="XMLID_20069_" class="center_main_frame_st2" points="1544.6,-16.4 1542.9,-16.4 1540.7,-20.1 1542.5,-20.1 			"/>
			<polygon id="XMLID_20068_" class="center_main_frame_st2" points="1548,-16.4 1546.2,-16.4 1544.1,-20.1 1545.9,-20.1 			"/>
			<polygon id="XMLID_20067_" class="center_main_frame_st2" points="1541.2,-16.4 1539.5,-16.4 1537.4,-20.1 1539.1,-20.1 			"/>
			<polygon id="XMLID_20066_" class="center_main_frame_st2" points="1534.5,-16.4 1532.7,-16.4 1530.6,-20.1 1532.4,-20.1 			"/>
			<polygon id="XMLID_20065_" class="center_main_frame_st2" points="1537.8,-16.4 1536.1,-16.4 1534,-20.1 1535.7,-20.1 			"/>
			<polygon id="XMLID_20064_" class="center_main_frame_st2" points="1531.1,-16.4 1529.4,-16.4 1527.3,-20.1 1529,-20.1 			"/>
			<polygon id="XMLID_20063_" class="center_main_frame_st2" points="1524.4,-16.4 1522.6,-16.4 1520.5,-20.1 1522.3,-20.1 			"/>
			<polygon id="XMLID_20062_" class="center_main_frame_st2" points="1527.7,-16.4 1526,-16.4 1523.9,-20.1 1525.6,-20.1 			"/>
			<polygon id="XMLID_20061_" class="center_main_frame_st2" points="1521,-16.4 1519.3,-16.4 1517.2,-20.1 1518.9,-20.1 			"/>
			<polygon id="XMLID_20060_" class="center_main_frame_st2" points="1514.3,-16.4 1512.5,-16.4 1510.4,-20.1 1512.1,-20.1 			"/>
			<polygon id="XMLID_20059_" class="center_main_frame_st2" points="1517.6,-16.4 1515.9,-16.4 1513.8,-20.1 1515.5,-20.1 			"/>
			<polygon id="XMLID_20058_" class="center_main_frame_st2" points="1510.9,-16.4 1509.1,-16.4 1507,-20.1 1508.8,-20.1 			"/>
			<polygon id="XMLID_20057_" class="center_main_frame_st2" points="1504.1,-16.4 1502.4,-16.4 1500.3,-20.1 1502,-20.1 			"/>
			<polygon id="XMLID_20056_" class="center_main_frame_st2" points="1507.5,-16.4 1505.8,-16.4 1503.7,-20.1 1505.4,-20.1 			"/>
			<polygon id="XMLID_20055_" class="center_main_frame_st2" points="1500.8,-16.4 1499,-16.4 1496.9,-20.1 1498.7,-20.1 			"/>
			<polygon id="XMLID_20054_" class="center_main_frame_st2" points="1494,-16.4 1492.3,-16.4 1490.2,-20.1 1491.9,-20.1 			"/>
			<polygon id="XMLID_20053_" class="center_main_frame_st2" points="1497.4,-16.4 1495.7,-16.4 1493.6,-20.1 1495.3,-20.1 			"/>
			<polygon id="XMLID_20052_" class="center_main_frame_st2" points="1490.7,-16.4 1488.9,-16.4 1486.8,-20.1 1488.6,-20.1 			"/>
			<polygon id="XMLID_20051_" class="center_main_frame_st2" points="1483.9,-16.4 1482.2,-16.4 1480.1,-20.1 1481.8,-20.1 			"/>
			<polygon id="XMLID_20050_" class="center_main_frame_st2" points="1487.3,-16.4 1485.5,-16.4 1483.4,-20.1 1485.2,-20.1 			"/>
			<polygon id="XMLID_20049_" class="center_main_frame_st2" points="1480.5,-16.4 1478.8,-16.4 1476.7,-20.1 1478.4,-20.1 			"/>
			<polygon id="XMLID_20048_" class="center_main_frame_st2" points="1473.8,-16.4 1472.1,-16.4 1470,-20.1 1471.7,-20.1 			"/>
			<polygon id="XMLID_20047_" class="center_main_frame_st2" points="1477.2,-16.4 1475.4,-16.4 1473.3,-20.1 1475.1,-20.1 			"/>
			<polygon id="XMLID_20046_" class="center_main_frame_st2" points="1470.4,-16.4 1468.7,-16.4 1466.6,-20.1 1468.3,-20.1 			"/>
			<polygon id="XMLID_20045_" class="center_main_frame_st2" points="1463.7,-16.4 1462,-16.4 1459.8,-20.1 1461.6,-20.1 			"/>
			<polygon id="XMLID_20044_" class="center_main_frame_st2" points="1467.1,-16.4 1465.3,-16.4 1463.2,-20.1 1465,-20.1 			"/>
			<polygon id="XMLID_20043_" class="center_main_frame_st2" points="1460.3,-16.4 1458.6,-16.4 1456.5,-20.1 1458.2,-20.1 			"/>
			<polygon id="XMLID_20042_" class="center_main_frame_st2" points="1453.6,-16.4 1451.8,-16.4 1449.7,-20.1 1451.5,-20.1 			"/>
			<polygon id="XMLID_20041_" class="center_main_frame_st2" points="1456.9,-16.4 1455.2,-16.4 1453.1,-20.1 1454.8,-20.1 			"/>
			<polygon id="XMLID_20040_" class="center_main_frame_st2" points="1450.2,-16.4 1448.5,-16.4 1446.4,-20.1 1448.1,-20.1 			"/>
			<polygon id="XMLID_20039_" class="center_main_frame_st2" points="1443.5,-16.4 1441.7,-16.4 1439.6,-20.1 1441.4,-20.1 			"/>
			<polygon id="XMLID_20038_" class="center_main_frame_st2" points="1446.8,-16.4 1445.1,-16.4 1443,-20.1 1444.7,-20.1 			"/>
			<polygon id="XMLID_20037_" class="center_main_frame_st2" points="1440.1,-16.4 1438.4,-16.4 1436.3,-20.1 1438,-20.1 			"/>
			<polygon id="XMLID_20036_" class="center_main_frame_st2" points="1433.4,-16.4 1431.6,-16.4 1429.5,-20.1 1431.2,-20.1 			"/>
			<polygon id="XMLID_20035_" class="center_main_frame_st2" points="1436.7,-16.4 1435,-16.4 1432.9,-20.1 1434.6,-20.1 			"/>
			<polygon id="XMLID_20034_" class="center_main_frame_st2" points="1430,-16.4 1428.2,-16.4 1426.1,-20.1 1427.9,-20.1 			"/>
			<polygon id="XMLID_20033_" class="center_main_frame_st2" points="1423.2,-16.4 1421.5,-16.4 1419.4,-20.1 1421.1,-20.1 			"/>
			<polygon id="XMLID_20032_" class="center_main_frame_st2" points="1426.6,-16.4 1424.9,-16.4 1422.8,-20.1 1424.5,-20.1 			"/>
			<polygon id="XMLID_20031_" class="center_main_frame_st2" points="1419.9,-16.4 1418.1,-16.4 1416,-20.1 1417.8,-20.1 			"/>
			<polygon id="XMLID_20030_" class="center_main_frame_st2" points="1413.1,-16.4 1411.4,-16.4 1409.3,-20.1 1411,-20.1 			"/>
			<polygon id="XMLID_20029_" class="center_main_frame_st2" points="1416.5,-16.4 1414.8,-16.4 1412.7,-20.1 1414.4,-20.1 			"/>
			<polygon id="XMLID_20028_" class="center_main_frame_st2" points="1409.8,-16.4 1408,-16.4 1405.9,-20.1 1407.7,-20.1 			"/>
			<polygon id="XMLID_20027_" class="center_main_frame_st2" points="1403,-16.4 1401.3,-16.4 1399.2,-20.1 1400.9,-20.1 			"/>
			<polygon id="XMLID_20026_" class="center_main_frame_st2" points="1406.4,-16.4 1404.6,-16.4 1402.5,-20.1 1404.3,-20.1 			"/>
			<polygon id="XMLID_20025_" class="center_main_frame_st2" points="1399.6,-16.4 1397.9,-16.4 1395.8,-20.1 1397.5,-20.1 			"/>
			<polygon id="XMLID_20024_" class="center_main_frame_st2" points="1392.9,-16.4 1391.2,-16.4 1389.1,-20.1 1390.8,-20.1 			"/>
			<polygon id="XMLID_20023_" class="center_main_frame_st2" points="1396.3,-16.4 1394.5,-16.4 1392.4,-20.1 1394.2,-20.1 			"/>
			<polygon id="XMLID_20022_" class="center_main_frame_st2" points="1389.5,-16.4 1387.8,-16.4 1385.7,-20.1 1387.4,-20.1 			"/>
			<polygon id="XMLID_20021_" class="center_main_frame_st2" points="1382.8,-16.4 1381.1,-16.4 1378.9,-20.1 1380.7,-20.1 			"/>
			<polygon id="XMLID_20020_" class="center_main_frame_st2" points="1386.2,-16.4 1384.4,-16.4 1382.3,-20.1 1384.1,-20.1 			"/>
			<polygon id="XMLID_20019_" class="center_main_frame_st2" points="1379.4,-16.4 1377.7,-16.4 1375.6,-20.1 1377.3,-20.1 			"/>
			<polygon id="XMLID_20018_" class="center_main_frame_st2" points="1372.7,-16.4 1370.9,-16.4 1368.8,-20.1 1370.6,-20.1 			"/>
			<polygon id="XMLID_20017_" class="center_main_frame_st2" points="1376,-16.4 1374.3,-16.4 1372.2,-20.1 1373.9,-20.1 			"/>
			<polygon id="XMLID_20016_" class="center_main_frame_st2" points="1369.3,-16.4 1367.6,-16.4 1365.5,-20.1 1367.2,-20.1 			"/>
			<polygon id="XMLID_20015_" class="center_main_frame_st2" points="1362.6,-16.4 1360.8,-16.4 1358.7,-20.1 1360.5,-20.1 			"/>
			<polygon id="XMLID_20014_" class="center_main_frame_st2" points="1365.9,-16.4 1364.2,-16.4 1362.1,-20.1 1363.8,-20.1 			"/>
			<polygon id="XMLID_20013_" class="center_main_frame_st2" points="1359.2,-16.4 1357.5,-16.4 1355.4,-20.1 1357.1,-20.1 			"/>
			<polygon id="XMLID_20012_" class="center_main_frame_st2" points="1352.5,-16.4 1350.7,-16.4 1348.6,-20.1 1350.3,-20.1 			"/>
			<polygon id="XMLID_20011_" class="center_main_frame_st2" points="1355.8,-16.4 1354.1,-16.4 1352,-20.1 1353.7,-20.1 			"/>
			<polygon id="XMLID_20010_" class="center_main_frame_st2" points="1349.1,-16.4 1347.3,-16.4 1345.2,-20.1 1347,-20.1 			"/>
			<polygon id="XMLID_20009_" class="center_main_frame_st2" points="1342.3,-16.4 1340.6,-16.4 1338.5,-20.1 1340.2,-20.1 			"/>
			<polygon id="XMLID_20008_" class="center_main_frame_st2" points="1345.7,-16.4 1344,-16.4 1341.9,-20.1 1343.6,-20.1 			"/>
			<polygon id="XMLID_20007_" class="center_main_frame_st2" points="1339,-16.4 1337.2,-16.4 1335.1,-20.1 1336.9,-20.1 			"/>
			<polygon id="XMLID_20006_" class="center_main_frame_st2" points="1332.2,-16.4 1330.5,-16.4 1328.4,-20.1 1330.1,-20.1 			"/>
			<polygon id="XMLID_20005_" class="center_main_frame_st2" points="1335.6,-16.4 1333.9,-16.4 1331.8,-20.1 1333.5,-20.1 			"/>
			<polygon id="XMLID_20004_" class="center_main_frame_st2" points="1328.9,-16.4 1327.1,-16.4 1325,-20.1 1326.8,-20.1 			"/>
			<polygon id="XMLID_20003_" class="center_main_frame_st2" points="1322.1,-16.4 1320.4,-16.4 1318.3,-20.1 1320,-20.1 			"/>
			<polygon id="XMLID_20002_" class="center_main_frame_st2" points="1325.5,-16.4 1323.7,-16.4 1321.6,-20.1 1323.4,-20.1 			"/>
			<polygon id="XMLID_20001_" class="center_main_frame_st2" points="1318.7,-16.4 1317,-16.4 1314.9,-20.1 1316.6,-20.1 			"/>
			<polygon id="XMLID_20000_" class="center_main_frame_st2" points="1315.6,-16.4 1313.8,-16.4 1311.7,-20.1 1313.5,-20.1 			"/>
			<polygon id="XMLID_19999_" class="center_main_frame_st2" points="1312.2,-16.4 1310.5,-16.4 1308.4,-20.1 1310.1,-20.1 			"/>
		</g>
		<g id="XMLID_4597_">
			<polygon class="center_main_frame_st2" points="2804,18.4 2170.9,18.4 2152.8,1.1 1899.1,1.1 1899.1,0.1 2153.2,0.1 2171.3,17.4 2803.6,17.4 
				2821.6,0.1 2821.8,0.1 3075.9,0.2 3075.9,1.2 2822,1.1 			"/>
		</g>
		<g id="XMLID_4598_">
			<polygon class="center_main_frame_st2" points="3077.7,9.7 2969.9,9.7 2973,6.7 3076.8,6.7 3095.8,-5.8 3095.8,-19.5 3078.8,-34.6 3018,-34.6 
				2999.4,-20.7 2821.2,-20.9 2800.8,-59.6 2176.7,-59.6 2153.7,-20.1 1980.2,-20.1 1963.7,-34.6 1899.4,-34.6 1882.4,-21.6 
				1882.4,-5.8 1899.3,5.3 2004.3,5.3 2007.6,8.3 1898.4,8.3 1879.4,-4.2 1879.4,-23 1898.4,-37.6 1964.8,-37.6 1981.4,-23.1 
				2152,-23.1 2174.9,-62.6 2802.6,-62.6 2823,-23.9 2998.4,-23.7 3017,-37.6 3079.9,-37.6 3098.8,-20.9 3098.8,-4.2 			"/>
		</g>
		<path id="XMLID_4599_" class="center_main_frame_st1" d="M2970.6,8.2"/>
		<polygon id="XMLID_4603_" class="center_main_frame_st2" points="3085.1,-22.6 3010,-22.6 3019.2,-30.3 3075.7,-30.3 		"/>
		<polygon id="XMLID_19465_" class="center_main_frame_st2" points="1893.2,-22.6 1968.3,-22.6 1959.1,-30.3 1902.6,-30.3 		"/>
		<path id="XMLID_4605_" class="center_main_frame_st5" d="M1202,656"/>
		<path id="XMLID_4606_" class="center_main_frame_st5" d="M1202,310.7"/>
		<polygon id="XMLID_4608_" class="center_main_frame_st6" points="1107.3,659.2 1082.9,613.9 1082.9,320.8 1107.3,275.7 		"/>
		<polygon id="XMLID_19456_" class="center_main_frame_st6" points="3871.6,659.2 3896,613.9 3896,320.8 3871.6,275.7 		"/>
		<g id="XMLID_4609_">
			<polygon class="center_main_frame_st2" points="1080.5,67.8 1072.5,59.8 1072.5,-3.3 1122.2,-50.9 1187.7,-50.9 1195.9,-42.9 1125.4,-42.9 
				1080.5,0.1 			"/>
		</g>
		<g id="XMLID_19454_">
			<polygon class="center_main_frame_st2" points="3910,58 3902,67.1 3902,-1.8 3857.1,-44.7 3786.9,-44.7 3794.8,-52.7 3860.3,-52.7 3910,-5.2 			"/>
		</g>
		<g id="XMLID_19453_">
			<polygon class="center_main_frame_st2" points="1185.8,994.1 1122.8,994.1 1069.4,948.9 1069.4,883.1 1077.4,874.2 1077.4,945.2 1125.8,986.1 
				1192.7,986.1 			"/>
		</g>
		<g id="XMLID_19452_">
			<polygon class="center_main_frame_st2" points="3854.4,996.2 3791.4,996.2 3781.6,988.2 3851.4,988.2 3899.7,947.3 3899.7,876.8 3907.7,885.2 
				3907.7,951 			"/>
		</g>
		<path class="center_main_frame_st6" d="M1659.4,969.5h-391.8l4.6-5l0,0l5.5-5.9h-90.1l-5.5,5.9h-46.4l-33.8-27.6v-27.8l5.9-5.5V815l0,0V689.7
			l-28.4-50.7v2.1l27.4,48.9v124.5l-5,4.6l0,0l-6.5,6V700.4l-11.2-20.7l0.1-0.1l-0.2-0.1l-19.4-35.8V290.9l30.7-60.3V121.7l6.5,6
			l0,0l5,4.6v108.5l-27.4,54.3v2.2l28.4-56.3V130.8l0,0V43.1l-5.9-5.5V9.8l30.8-29.3h46.4l5.5,5.9h90.1l-5.5-5.9l0,0l-7.4-8l0,0v-2
			h105.1c0.3,2.2,2.1,4,4.4,4c2.5,0,4.5-2,4.5-4.5s-2-4.5-4.5-4.5c-2.3,0-4.2,1.8-4.4,4h-105.1l0,0h-132l-37.4,35.3v225.1l-7.5,14.7
			l-6.8-13.1v-24.6c0.5-0.2,0.8-0.7,0.8-1.2c0-0.7-0.6-1.3-1.3-1.3s-1.3,0.6-1.3,1.3c0,0.5,0.3,1,0.8,1.2v24.8l7.3,13.9l-2.9,5.8
			l-9.2-16.5v-45.6c0.8-0.2,1.5-1,1.5-1.9c0-1.1-0.9-2-2-2s-2,0.9-2,2c0,0.9,0.6,1.7,1.5,1.9v45.8l9.6,17.3l-3.7,7.3l-11.3-23v-67.3
			c1.2-0.2,2.1-1.3,2.1-2.6c0-1.5-1.2-2.6-2.6-2.6s-2.6,1.2-2.6,2.6c0,1.3,0.9,2.4,2.1,2.6V237l11.7,23.9l-14.9,29.2v354.2
			l15.8,29.3l-11,22.4v67.6c-1.2,0.2-2.1,1.3-2.1,2.6c0,1.5,1.2,2.6,2.6,2.6c1.5,0,2.6-1.2,2.6-2.6c0-1.3-0.9-2.4-2.1-2.6v-67.3
			l10.6-21.5l3.8,7l-8.9,16.1v45.8c-0.8,0.2-1.5,1-1.5,1.9c0,1.1,0.9,2,2,2s2-0.9,2-2c0-0.9-0.6-1.7-1.5-1.9v-45.6l8.5-15.3l3,5.6
			l-6.7,12.8l-0.1,0.1v24.8c-0.5,0.2-0.8,0.7-0.8,1.2c0,0.7,0.6,1.3,1.3,1.3c0.7,0,1.3-0.6,1.3-1.3c0-0.5-0.3-1-0.8-1.2v-24.6
			l6.3-12.1l6.3,11.7v240.3l37.5,31.1h3h132h90.3l17,20.5h67.7c0.2,1.2,1.3,2.1,2.6,2.1c1.5,0,2.6-1.2,2.6-2.6
			c0-1.5-1.2-2.6-2.6-2.6c-1.3,0-2.4,0.9-2.6,2.1h-67.2l-16.2-19.5h5.9l11.7,14.1h45.9c0.2,0.8,1,1.5,1.9,1.5c1.1,0,2-0.9,2-2
			s-0.9-2-2-2c-0.9,0-1.7,0.6-1.9,1.5h-45.4l-10.9-13.1h7l6.9,8.3h24.9c0.2,0.5,0.7,0.8,1.2,0.8c0.7,0,1.3-0.6,1.3-1.3
			s-0.6-1.3-1.3-1.3c-0.5,0-1,0.3-1.2,0.8h-24.5l-6.1-7.3h286.9l64.8,30h7.2L1659.4,969.5z M1371.4-33.5c1.9,0,3.5,1.6,3.5,3.5
			s-1.6,3.5-3.5,3.5s-3.5-1.6-3.5-3.5S1369.4-33.5,1371.4-33.5z M1077.5,206c-0.2,0-0.3-0.1-0.3-0.3s0.1-0.3,0.3-0.3
			s0.3,0.1,0.3,0.3S1077.7,206,1077.5,206z M1070.8,187.5c0-0.5,0.4-1,1-1s1,0.4,1,1s-0.4,1-1,1S1070.8,188,1070.8,187.5z
			 M1063.7,166.9c0-0.9,0.7-1.6,1.6-1.6s1.6,0.7,1.6,1.6s-0.7,1.6-1.6,1.6S1063.7,167.8,1063.7,166.9z M1068.7,766.1
			c0,0.9-0.7,1.6-1.6,1.6s-1.6-0.7-1.6-1.6c0-0.9,0.7-1.6,1.6-1.6S1068.7,765.2,1068.7,766.1z M1074.4,745.5c0,0.5-0.4,1-1,1
			s-1-0.4-1-1s0.4-1,1-1S1074.4,745,1074.4,745.5z M1079.2,727.6c-0.2,0-0.3-0.1-0.3-0.3s0.1-0.3,0.3-0.3s0.3,0.1,0.3,0.3
			S1079.4,727.6,1079.2,727.6z M1442.4,990.9c0.9,0,1.6,0.7,1.6,1.6c0,0.9-0.7,1.6-1.6,1.6s-1.6-0.7-1.6-1.6
			C1440.7,991.6,1441.5,990.9,1442.4,990.9z M1421.7,985.2c0.5,0,1,0.4,1,1s-0.4,1-1,1s-1-0.4-1-1S1421.2,985.2,1421.7,985.2z
			 M1403.6,980c0.2,0,0.3,0.1,0.3,0.3s-0.1,0.3-0.3,0.3s-0.3-0.1-0.3-0.3S1403.4,980,1403.6,980z"/>
		<path class="center_main_frame_st6" d="M3913.3,296.6v-0.3l-16.5-34.2l11.7-23.8v-67.6c1.2-0.2,2.1-1.3,2.1-2.6c0-1.5-1.2-2.6-2.6-2.6
			c-1.5,0-2.6,1.2-2.6,2.6c0,1.3,0.9,2.4,2.1,2.6V238l-11.2,22.9l-3.6-7.5l9.4-16.9l0.1-0.1v-45.8c0.8-0.2,1.5-1,1.5-1.9
			c0-1.1-0.9-2-2-2s-2,0.9-2,2c0,0.9,0.6,1.7,1.5,1.9v45.6l-9,16.1l-2.9-5.9l7-13.4v-24.8c0.5-0.2,0.8-0.7,0.8-1.2
			c0-0.7-0.6-1.3-1.3-1.3s-1.3,0.6-1.3,1.3c0,0.5,0.3,1,0.8,1.2v24.6l-6.6,12.6l-1.8-3.8V4l-8.3-7.2l-29.2-27.2h-132l0,0l0,0h-104.8
			c-0.3-2.2-2.1-4-4.4-4c-2.5,0-4.5,2-4.5,4.5s2,4.5,4.5,4.5c2.3,0,4.2-1.8,4.4-4h103.9l-6.5,7l0,0l-5.5,5.9h90.1l5.5-5.9h46.4
			l30.8,29.3v27.8l-5.9,5.5v90.1l0,0l0.2,114.4v0.1l27.8,55.5v-2.1l-26.9-53.6l-0.2-115.2l4.9-4.6l0,0l6.5-6v123.3l26.5,54.9v345.8
			l-28,56.8v124.2l-5-4.7l0,0l-5-4.6V692.9l27.4-48.9v-2l-28.3,50.6l-0.1,0.1v123.8l0,0v87.2l5.9,5.5V937l-33.8,27.6H3797l-5.5-5.9
			h-90.1l5.5,5.9l0,0l4.6,5h-410.1l-57.5,33h6l52.3-30h352.1l-4.1,4.9h-24.5c-0.2-0.5-0.7-0.8-1.2-0.8c-0.7,0-1.3,0.6-1.3,1.3
			s0.6,1.3,1.3,1.3c0.5,0,1-0.3,1.2-0.8h24.9l4.9-5.9h7l-8.9,10.7h-45.4c-0.2-0.8-1-1.5-1.9-1.5c-1.1,0-2,0.9-2,2s0.9,2,2,2
			c0.9,0,1.7-0.6,1.9-1.5h45.9l9.7-11.7h5.9l-14.2,17.1h-67.2c-0.2-1.2-1.3-2.1-2.6-2.1c-1.5,0-2.6,1.2-2.6,2.6
			c0,1.5,1.2,2.6,2.6,2.6c1.3,0,2.4-0.9,2.6-2.1h67.7l15-18.1h43.2h132h1.7l37.4-30.5V700.3l2.5-5l7.4,14.2V734
			c-0.5,0.2-0.8,0.7-0.8,1.2c0,0.7,0.6,1.3,1.3,1.3s1.3-0.6,1.3-1.3c0-0.5-0.3-1-0.8-1.2v-24.8l-7.8-15h-0.1l2.9-5.9l9.8,17.6v45.6
			c-0.8,0.2-1.5,1-1.5,1.9c0,1.1,0.9,2,2,2s2-0.9,2-2c0-0.9-0.6-1.7-1.5-1.9v-45.8l-10.3-18.5l3.7-7.6l12,24.4v67.3
			c-1.2,0.2-2.1,1.3-2.1,2.6c0,1.5,1.2,2.6,2.6,2.6c1.5,0,2.6-1.2,2.6-2.6c0-1.3-0.9-2.4-2.1-2.6v-67.6l-12.3-25.1l-0.1-0.3
			l17.3-35.1L3913.3,296.6z M3906.3,168.1c0-0.9,0.7-1.6,1.6-1.6c0.9,0,1.6,0.7,1.6,1.6s-0.7,1.6-1.6,1.6
			C3907,169.7,3906.3,169,3906.3,168.1z M3900.6,188.7c0-0.5,0.4-1,1-1s1,0.4,1,1s-0.4,1-1,1S3900.6,189.2,3900.6,188.7z
			 M3895.7,206.6c0.2,0,0.3,0.1,0.3,0.3s-0.1,0.3-0.3,0.3s-0.3-0.1-0.3-0.3S3895.6,206.6,3895.7,206.6z M3608.1-26.5
			c-1.9,0-3.5-1.6-3.5-3.5s1.6-3.5,3.5-3.5s3.5,1.6,3.5,3.5S3610-26.5,3608.1-26.5z M3624.6,978.3c-0.2,0-0.3-0.1-0.3-0.3
			s0.1-0.3,0.3-0.3s0.3,0.1,0.3,0.3S3624.8,978.3,3624.6,978.3z M3606.5,984.7c-0.5,0-1-0.4-1-1s0.4-1,1-1s1,0.4,1,1
			S3607,984.7,3606.5,984.7z M3585.8,991.8c-0.9,0-1.6-0.7-1.6-1.6c0-0.9,0.7-1.6,1.6-1.6c0.9,0,1.6,0.7,1.6,1.6
			C3587.5,991.1,3586.7,991.8,3585.8,991.8z M3895.7,734.9c0.2,0,0.3,0.1,0.3,0.3s-0.1,0.3-0.3,0.3s-0.3-0.1-0.3-0.3
			S3895.6,734.9,3895.7,734.9z M3902.5,753.4c0,0.5-0.4,1-1,1s-1-0.4-1-1c0-0.5,0.4-1,1-1S3902.5,752.9,3902.5,753.4z M3909.6,774
			c0,0.9-0.7,1.6-1.6,1.6c-0.9,0-1.6-0.7-1.6-1.6c0-0.9,0.7-1.6,1.6-1.6C3908.9,772.4,3909.6,773.1,3909.6,774z"/>
	</g>
	<g>
		<polygon class="center_main_frame_st2" points="2178.3,-57.2 2172.8,-46.4 2192.4,-57.2 		"/>
		<polygon class="center_main_frame_st2" points="2798.7,-57.2 2804.2,-46.4 2784.6,-57.2 		"/>
	</g>
</g>
</svg>
