<?xml version="1.0" ?><!-- Generator: Adobe Illustrator 19.0.0, SVG Export Plug-In . SVG Version: 6.00 Build 0)  --><svg id="图层_1" style="enable-background:new 0 0 85 60;" version="1.1" viewBox="0 0 85 60" x="0px" xml:space="preserve" xmlns="http://www.w3.org/2000/svg" xmlns:xlink="http://www.w3.org/1999/xlink" y="0px" zn="洪涝灾害天数">
<style type="text/css">
	.DisasterDays_st0{fill:#FFA748;}
</style>
<g id="XMLID_131_">
	<path class="DisasterDays_st0" d="M82.2,52.9c-2.1-0.7-4.3-0.9-6.2,0.5c-2.7,1.9-4.1,1.9-6.9,0c-1.9-1.3-5.4-1.8-7.5,0.3   c-1.6,1.6-3.9,1.6-5.9,0.2c-2.8-2-5.5-2-8.2,0c-2.3,1.7-3.8,1.6-5.9-0.3c-1.9-1.7-5.7-1.7-7.6-0.1c-2.5,2.1-3.7,2.1-6.2,0.2   c-2.4-1.8-5.7-1.8-7.9,0.1c-1.7,1.4-3.5,1.7-5.2,0.4c-1.3-1-1.9-0.4-2.7,0.5c2.9,3,6.3,3.1,9.5,0.5c1.4-1.1,3.7-1,5.1,0.2   c2.5,2.2,5.9,2.3,8.4,0.1c1.9-1.6,4-1.6,5.8,0.2c2,1.9,5.9,1.9,7.9,0.1c1.8-1.7,3.9-1.7,5.8-0.1c2,1.7,6.3,1.7,8.2,0   c1.9-1.6,3.5-1.8,5.4-0.4c3.2,2.3,5.8,2.3,8.9,0c0.4-0.3,0.8-0.5,1.2-0.6c1.8-0.7,3.3,0.2,4.8,1.5C83.3,54.7,83.7,53.4,82.2,52.9z" id="XMLID_132_"/>
	<path class="DisasterDays_st0" d="M16.6,49.6c1.8-1.5,2.9-1.4,4.8-0.2c0.3,0.2,0.6,0.3,0.8,0.5c3.2,2.1,5.1,1.8,8.3-0.4   c1.9-1.4,3-1.3,5,0c3.5,2.4,5.1,2.6,8.6,0.3c1.9-1.3,3-1.7,5.4-0.1c3.3,2.1,6.4,1.8,9.5-0.6c0.6-0.4,1.6-0.6,2.3-0.5   c0.7,0.1,1.4,0.6,2.1,1.1c3.1,1.9,6.1,1.9,9.1-0.3c1.5-1.1,2.8-1.2,4.4,0c1.2,0.9,2.2,1,3-0.4c-2.5-2.7-5.9-3.3-9.1-1   c-2.1,1.4-3.8,1.5-5.9,0.1c-2.9-2-5.5-2-8-0.2c-2.6,1.9-3.3,1.9-6.1,0.1c-2.8-1.8-5.8-1.7-8.5,0.4c-1.8,1.4-2.9,1.4-4.8,0   c-3.1-2.4-6-2.5-9-0.2c-2.3,1.8-3.2,1.2-5.3,0c-1.3-0.8-2.8-1.2-4.3-1.5c-1.8-0.4-3.1,0.8-4.5,1.7c-2.3,1.5-2.2,1.4-4.7,0   c-1.4-0.8-1.7-0.8-2.8,0.7C9.5,51.4,13.5,52,16.6,49.6z" id="XMLID_137_"/>
	<path class="DisasterDays_st0" d="M65,41.4c-1.9-1.3-5.4-1.8-7.5,0.3c-1.6,1.6-3.9,1.6-5.9,0.2c-2.8-2-5.5-2-8.2,0   c-2.3,1.7-3.8,1.6-5.9-0.3c-1.9-1.7-5.7-1.7-7.6-0.1c-2.5,2.1-3.7,2.1-6.2,0.2c-2.4-1.8-5.7-1.8-7.9,0.1c-1.7,1.4-3.5,1.7-5.2,0.4   c-1.3-1-1.9-0.4-2.7,0.5c2.9,3,6.3,3.1,9.5,0.5c1.4-1.1,3.7-1,5.1,0.2c2.5,2.2,5.9,2.3,8.4,0.1c1.9-1.6,4-1.6,5.8,0.2   c2,1.9,5.9,1.9,7.9,0.1c1.8-1.7,3.9-1.7,5.8-0.1c2,1.7,6.3,1.7,8.2,0c1.9-1.6,3.5-1.8,5.4-0.4c3.2,2.3,5.8,2.3,8.9,0   c0.4-0.3,0.8-0.5,1.2-0.6c1.8-0.7,3.3,0.2,4.8,1.5c0.2-1.4,0.6-2.7-0.9-3.2c-2.1-0.7-4.3-0.9-6.2,0.5C69.1,43.3,67.8,43.3,65,41.4z   " id="XMLID_138_"/>
	<path class="DisasterDays_st0" d="M16,38.1c0.3,0.2,0.6,0.3,0.8,0.5c3.2,2.1,5.1,1.8,8.3-0.4c1.9-1.4,3-1.3,5,0   c3.5,2.4,5.1,2.6,8.6,0.3c1.9-1.3,3-1.7,5.4-0.1c3.3,2.1,6.4,1.8,9.5-0.6c0.6-0.4,1.6-0.6,2.3-0.5c0.7,0.1,1.4,0.6,2.1,1.1   c3.1,1.9,6.1,1.9,9.1-0.3c1.5-1.1,2.8-1.2,4.4,0c1.2,0.9,2.2,1,3-0.4c-2.5-2.7-5.9-3.3-9.1-1c-1.3,0.9-2.4,1.2-3.6,1V17.1l7.6,4.9   c1,0.6,2.5,0.6,3.5,0c1-0.6,1-1.6,0-2.3L47.5,3.4c0,0-0.1-0.1-0.1-0.1c-0.5-0.3-1.1-0.5-1.8-0.5c-0.6,0-1.3,0.2-1.8,0.5   c0,0-0.1,0.1-0.1,0.1L18.4,19.7c-1,0.6-1,1.6,0,2.3c1,0.6,2.5,0.6,3.5,0l7.6-4.9v18.3c-2.1-0.7-4.1-0.3-6.3,1.4   c-2.3,1.8-3.2,1.2-5.3,0c-1.3-0.8-2.8-1.2-4.3-1.5c-1.8-0.4-3.1,0.8-4.5,1.7c-2.3,1.5-2.2,1.4-4.7,0c-1.4-0.8-1.7-0.8-2.8,0.7   c2.4,2.5,6.4,3.1,9.4,0.7C12.9,36.8,14,36.8,16,38.1z M46.1,20.3H52c0.7,0,1.2,0.5,1.2,1.2v5.6h-7.1V20.3z M46.1,28.1h7.1v5.7   c0,0.7-0.5,1.2-1.2,1.2h-5.9V28.1z M38.1,21.5c0-0.7,0.5-1.2,1.2-1.2h5.9v6.8h-7.1V21.5z M38.1,28.1h7.1v7h-5.9   c-0.7,0-1.2-0.5-1.2-1.2V28.1z" id="XMLID_141_"/>
</g>
</svg>