<?xml version="1.0" ?><!-- Generator: Adobe Illustrator 19.0.0, SVG Export Plug-In . SVG Version: 6.00 Build 0)  --><svg id="图层_1" style="enable-background:new 0 0 72 60;" version="1.1" viewBox="0 0 72 60" x="0px" xml:space="preserve" xmlns="http://www.w3.org/2000/svg" xmlns:xlink="http://www.w3.org/1999/xlink" y="0px" zn="干旱灾害天数">
<style type="text/css">
	.DroughtDisasterDays_st0{fill:#FFA748;}
</style>
<path class="DroughtDisasterDays_st0" d="M63.1,49.9h-9.5c0,0-0.1-0.1-0.1-0.1c-2.5-3.3-4.9-6.6-7.4-9.8c-0.8-1.1-0.9-1.9-0.3-3.1  c2.1-4.3,4.2-8.6,6.3-12.9c0.7-1.4,0.7-2.8-0.1-4.2c-2.7-4.7-5.3-9.4-8-14.2c-0.9-1.6-2.4-2.1-3.8-1.4c-1.4,0.7-1.8,2.4-1,3.9  c2.3,4.1,4.6,8.2,7,12.3c0.6,1.1,0.7,1.9,0.1,3.1c-2.2,4.3-4.3,8.7-6.4,13.1c-0.7,1.5-0.7,2.9,0.3,4.3c1.1,1.5,2.2,3,3.3,4.5  c1,1.4,2.1,2.9,3.3,4.5h-5.5c-0.4-0.3-0.8-0.8-1.2-1.3c-2.1-3.1-4.2-6.1-6.5-9C33,38.6,33,38,33.5,37.1c2.1-4.2,4.1-8.5,6.1-12.7  c0.9-1.9,0.7-3.6-0.3-5.3c-2.6-4.5-5-9-7.6-13.5c-0.4-0.7-1.3-1.4-2-1.6c-0.7-0.1-1.9,0.2-2.4,0.8c-1,1.1-0.7,2.5,0,3.7  c2.3,4.1,4.5,8.3,6.9,12.4c0.6,1,0.6,1.6,0.1,2.6c-2.1,4.2-4.2,8.5-6.3,12.7c-1,2-1.1,3.7,0.5,5.5c1.4,1.6,2.6,3.3,3.8,5  c0.7,1,1.4,2,2.3,3.2h-5.3c-2.6-3.4-5.1-7-7.7-10.4C21,38.7,21,38,21.4,37.2c2.1-4.4,4.2-8.8,6.3-13.2c0.8-1.6,0.8-3-0.1-4.6  c-1.1-1.9-2.1-3.8-3.2-5.6c-1.6-2.9-3.2-5.9-4.9-8.8c-0.7-1.2-1.9-1.4-3.2-1c-1.1,0.3-1.8,1.2-1.5,2.4C15,7.6,15.5,8.7,16,9.8  c2.1,3.8,4.3,7.6,6.4,11.5c0.3,0.5,0.2,1.3,0,1.8c-0.9,2.1-2,4.1-3,6.1c-1.4,2.8-2.7,5.6-4,8.4c-0.5,1.2-0.3,2.2,0.5,3.2  c1.3,1.7,2.6,3.4,3.9,5.2c0.9,1.2,1.8,2.5,2.7,3.9H8.9c-1.5,0-2.7,1.2-2.7,2.7v0.9c0,1.5,1.2,2.7,2.7,2.7h54.3  c1.5,0,2.7-1.2,2.7-2.7v-0.9C65.8,51.1,64.6,49.9,63.1,49.9z" id="XMLID_11857_"/>
</svg>