<?xml version="1.0" ?><!-- Generator: Adobe Illustrator 19.0.0, SVG Export Plug-In . SVG Version: 6.00 Build 0)  --><svg id="图层_1" style="enable-background:new 0 0 72 60;" version="1.1" viewBox="0 0 72 60" x="0px" xml:space="preserve" xmlns="http://www.w3.org/2000/svg" xmlns:xlink="http://www.w3.org/1999/xlink" y="0px" zn="月平均降水量">
<style type="text/css">
	.MonthAveragePrecipitation_st0{fill:#39DAFF;}
</style>
<g id="XMLID_11740_">
	<path class="MonthAveragePrecipitation_st0" d="M50.2,12c-3-5.5-8.8-8.9-15-8.9c-8.7,0-15.7,6.1-16.8,14.3c-4.4,1-7.6,4.9-7.6,9.5   c0,5.4,4.4,9.8,9.8,9.8c2.3,0,4.4-0.7,6.1-2.1c2.7,1.8,5.6,2.6,8.6,2.6c2.9,0,4.8-0.5,7.1-1.7c1.9,1.1,4.1,1.7,6.3,1.7   c7,0,12.6-5.7,12.6-12.6C61.3,18.1,56.4,12.8,50.2,12z M48.6,33.8c-1.9,0-3.7-0.6-5.3-1.7c-0.5-0.4-1.1-0.4-1.7-0.2   c-0.1,0-0.2,0.1-0.4,0.2c-2.1,1.3-3.5,1.7-6.1,1.7c-2.8,0-5.2-0.9-7.7-2.7c-0.3-0.2-0.7-0.3-1-0.3c-0.5,0-0.9,0.2-1.3,0.5   c-1.2,1.3-2.8,2-4.6,2c-3.5,0-6.4-2.9-6.4-6.4s2.9-6.4,6.4-6.4c1.2,0,2.4,0.3,3.4,1c0.8,0.5,1.8,0.3,2.4-0.5   c0.5-0.8,0.3-1.8-0.5-2.4c-1.2-0.8-2.6-1.3-4-1.5C23,11,28.5,6.5,35.2,6.5c4.4,0,8.5,2.2,11.1,5.7c-3.1,0.6-5.9,2.3-7.8,4.9   c-0.6,0.8-0.4,1.8,0.4,2.4c0.8,0.6,1.8,0.4,2.4-0.4c1.7-2.4,4.5-3.8,7.4-3.8c5.1,0,9.2,4.1,9.2,9.2C57.9,29.6,53.7,33.8,48.6,33.8z   " id="XMLID_11741_"/>
	<path class="MonthAveragePrecipitation_st0" d="M36.6,55.4c-1.2-1.7-0.5-4,1.3-5c0,0,0,0,0,0l4.6-2.6c0.1-0.1,0.3,0,0.3,0.2l0.1,5.3   c0,0,0,0,0,0c0.1,2.1-1.6,3.8-3.7,3.6C38.1,56.8,37.2,56.3,36.6,55.4L36.6,55.4z M47.2,46.6c-1-1.4-0.4-3.3,1-4.1c0,0,0,0,0,0   l3.8-2.1c0.1-0.1,0.3,0,0.3,0.2l0.1,4.3v0c0,1.7-1.4,3.1-3,3C48.5,47.7,47.7,47.3,47.2,46.6L47.2,46.6z M14.9,46.6   c-1-1.4-0.4-3.3,1-4.1c0,0,0,0,0,0l3.8-2.1c0.1-0.1,0.3,0,0.3,0.2l0.1,4.3v0c0,1.7-1.4,3.1-3,3C16.2,47.7,15.4,47.3,14.9,46.6   L14.9,46.6z M20.2,55.4c0.6,0.9,1.5,1.4,2.6,1.5c2,0.2,3.8-1.5,3.7-3.6c0,0,0,0,0,0l-0.1-5.3c0-0.2-0.2-0.3-0.3-0.2l-4.6,2.6   c0,0,0,0,0,0C19.7,51.4,19.1,53.7,20.2,55.4L20.2,55.4z M30.8,46.6c0.5,0.7,1.3,1.2,2.1,1.2c1.7,0.1,3.1-1.3,3-3v0l-0.1-4.3   c0-0.1-0.2-0.2-0.3-0.2l-3.8,2.1c0,0,0,0,0,0C30.4,43.3,29.9,45.2,30.8,46.6L30.8,46.6z" id="XMLID_11744_"/>
</g>
</svg>