<?xml version="1.0" ?><!-- Generator: Adobe Illustrator 19.0.0, SVG Export Plug-In . SVG Version: 6.00 Build 0)  --><svg id="图层_1" style="enable-background:new 0 0 72 60;" version="1.1" viewBox="0 0 72 60" x="0px" xml:space="preserve" xmlns="http://www.w3.org/2000/svg" xmlns:xlink="http://www.w3.org/1999/xlink" y="0px" zn="PM2.5大于100天数">
<style type="text/css">
	.PM2dot5Than100Days_st0{fill:#39DAFF;}
</style>
<g id="XMLID_131_">
	<path class="PM2dot5Than100Days_st0" d="M55.8,17.4c-0.3,0-0.5,0-0.8,0.1C51.9,9.3,44.2,3.8,35.9,3.8c-8.3,0-15.9,5.5-19.1,13.7   c-0.2-0.1-0.4-0.1-0.6-0.1c-2,0-3.6,2.7-3.6,6.1c0,3.1,1.2,5.5,3,6c0.7,4.4,2.6,8.5,5.5,11.7c0,0.1,0,0.1,0,0.2   c0,8.2,6.7,14.8,14.8,14.8c8.2,0,14.8-6.6,14.8-14.8c0,0,0-0.1,0-0.2l0-0.1v0c2.9-3.2,4.8-7.3,5.5-11.7c1.9-0.3,3.2-2.8,3.2-6   C59.4,20.1,57.8,17.4,55.8,17.4z M43.9,14.9c3.1,0,5.6,2.5,5.6,5.6c0,3.1-2.5,5.6-5.6,5.6c-3.1,0-5.6-2.5-5.6-5.6   C38.3,17.4,40.8,14.9,43.9,14.9z M28.4,14.9c3.1,0,5.6,2.5,5.6,5.6c0,3.1-2.5,5.6-5.6,5.6c-3.1,0-5.6-2.5-5.6-5.6   C22.8,17.4,25.3,14.9,28.4,14.9z M49.3,41.4c0,7.4-6,13.4-13.4,13.4c-7.4,0-13.4-6-13.4-13.4c0-0.1,0-0.1,0-0.2l0-0.2   c0.2-7.3,6.1-13,13.4-13c7.2,0,13.1,5.7,13.4,12.9V41c0,0.1,0,0.1,0,0.1c0,0,0,0.1,0,0.1l0.3,0l-0.2,0.1L49.3,41.4z" id="XMLID_148_"/>
	<path class="PM2dot5Than100Days_st0" d="M32.8,38.3c1.1,0,1.9-0.9,1.9-1.9c0-1.1-0.9-1.9-1.9-1.9c-1.1,0-1.9,0.9-1.9,1.9   C30.9,37.5,31.7,38.3,32.8,38.3z" id="XMLID_156_"/>
	<path class="PM2dot5Than100Days_st0" d="M39,38.6c1.2,0,2.2-1,2.2-2.2c0-1.2-1-2.2-2.2-2.2c-1.2,0-2.2,1-2.2,2.2   C36.8,37.6,37.8,38.6,39,38.6z" id="XMLID_157_"/>
	<circle class="PM2dot5Than100Days_st0" cx="32.9" cy="47.8" id="XMLID_158_" r="1.9"/>
	<circle class="PM2dot5Than100Days_st0" cx="39.1" cy="47.8" id="XMLID_159_" r="1.9"/>
	<path class="PM2dot5Than100Days_st0" d="M31.8,42.4c0-1.2-1-2.2-2.2-2.2c-1.2,0-2.2,1-2.2,2.2c0,1.2,1,2.2,2.2,2.2   C30.9,44.5,31.8,43.6,31.8,42.4z" id="XMLID_160_"/>
	<circle class="PM2dot5Than100Days_st0" cx="35.8" cy="42.4" id="XMLID_161_" r="1.9"/>
	<path class="PM2dot5Than100Days_st0" d="M41.6,40.4c-1.1,0-1.9,0.9-1.9,1.9c0,1.1,0.9,1.9,1.9,1.9c1.1,0,1.9-0.9,1.9-1.9   C43.6,41.3,42.7,40.4,41.6,40.4z" id="XMLID_162_"/>
</g>
</svg>