<?xml version="1.0" ?><!-- Generator: Adobe Illustrator 19.0.0, SVG Export Plug-In . SVG Version: 6.00 Build 0)  --><svg id="图层_1" style="enable-background:new 0 0 85 60;" version="1.1" viewBox="0 0 85 60" x="0px" xml:space="preserve" xmlns="http://www.w3.org/2000/svg" xmlns:xlink="http://www.w3.org/1999/xlink" y="0px" zn="暴雪灾害天数">
<style type="text/css">
	.SnowfallDisasterDays_st0{fill:#FFA748;}
</style>
<g id="XMLID_131_">
	<path class="SnowfallDisasterDays_st0" d="M13.2,45.4h0.7c0.3,0,0.6-0.3,0.6-0.6c0-0.3-0.3-0.6-0.6-0.6h-0.7c-0.3,0-0.6-0.7-0.4-1   l0.5-0.5c0.2-0.2,0.2-0.6,0-0.8c-0.2-0.2-0.6-0.2-0.8,0L12,42.4c-0.2,0.2-1-0.1-1-0.4v-0.7c0-0.3-0.3-0.6-0.6-0.6   c-0.3,0-0.6,0.3-0.6,0.6V42c0,0.3-0.7,0.6-1,0.4l-0.5-0.5c-0.2-0.2-0.6-0.2-0.8,0c-0.2,0.2-0.2,0.6,0,0.8L8,43.3   c0.2,0.2-0.1,1-0.4,1H6.9c-0.3,0-0.6,0.3-0.6,0.6c0,0.3,0.3,0.6,0.6,0.6h0.7c0.3,0,0.6,0.7,0.4,1l-0.5,0.5c-0.2,0.2-0.2,0.6,0,0.8   c0.2,0.2,0.6,0.2,0.8,0l0.5-0.5c0.2-0.2,1,0.1,1,0.4v0.7c0,0.3,0.3,0.6,0.6,0.6c0.3,0,0.6-0.3,0.6-0.6v-0.7c0-0.3,0.7-0.6,1-0.4   l0.5,0.5c0.2,0.2,0.6,0.2,0.8,0c0.2-0.2,0.2-0.6,0-0.8l-0.5-0.5C12.6,46.1,12.9,45.4,13.2,45.4z" id="XMLID_132_"/>
	<path class="SnowfallDisasterDays_st0" d="M24.2,52.8h-1c-0.4,0-0.8-1-0.5-1.3l0.7-0.7c0.3-0.3,0.3-0.8,0-1.1c-0.3-0.3-0.8-0.3-1.1,0   l-0.7,0.7c-0.3,0.3-1.3-0.1-1.3-0.5v-1c0-0.4-0.3-0.8-0.8-0.8s-0.8,0.3-0.8,0.8v1c0,0.4-1,0.8-1.3,0.5l-0.7-0.7   c-0.3-0.3-0.8-0.3-1.1,0c-0.3,0.3-0.3,0.8,0,1.1l0.7,0.7c0.3,0.3-0.1,1.3-0.5,1.3h-1c-0.4,0-0.8,0.4-0.8,0.8c0,0.4,0.3,0.8,0.8,0.8   h1c0.4,0,0.8,1,0.5,1.3l-0.7,0.7c-0.3,0.3-0.3,0.8,0,1.1c0.3,0.3,0.8,0.3,1.1,0l0.7-0.7c0.3-0.3,1.3,0.1,1.3,0.5v1   c0,0.4,0.3,0.8,0.8,0.8s0.8-0.3,0.8-0.8v-1c0-0.4,1-0.8,1.3-0.5l0.7,0.7c0.3,0.3,0.8,0.3,1.1,0c0.3-0.3,0.3-0.8,0-1.1l-0.7-0.7   c-0.3-0.3,0.1-1.3,0.5-1.3h1c0.4,0,0.8-0.4,0.8-0.8C25,53.2,24.6,52.8,24.2,52.8z" id="XMLID_137_"/>
	<path class="SnowfallDisasterDays_st0" d="M33,44.2h-0.7c-0.3,0-0.6-0.7-0.4-1l0.5-0.5c0.2-0.2,0.2-0.6,0-0.8c-0.2-0.2-0.6-0.2-0.8,0   L31,42.4c-0.2,0.2-1-0.1-1-0.4v-0.7c0-0.3-0.3-0.6-0.6-0.6c-0.3,0-0.6,0.3-0.6,0.6V42c0,0.3-0.7,0.6-1,0.4l-0.5-0.5   c-0.2-0.2-0.6-0.2-0.8,0c-0.2,0.2-0.2,0.6,0,0.8l0.5,0.5c0.2,0.2-0.1,1-0.4,1h-0.7c-0.3,0-0.6,0.3-0.6,0.6c0,0.3,0.3,0.6,0.6,0.6   h0.7c0.3,0,0.6,0.7,0.4,1l-0.5,0.5c-0.2,0.2-0.2,0.6,0,0.8c0.2,0.2,0.6,0.2,0.8,0l0.5-0.5c0.2-0.2,1,0.1,1,0.4v0.7   c0,0.3,0.3,0.6,0.6,0.6c0.3,0,0.6-0.3,0.6-0.6v-0.7c0-0.3,0.7-0.6,1-0.4l0.5,0.5c0.2,0.2,0.6,0.2,0.8,0c0.2-0.2,0.2-0.6,0-0.8   l-0.5-0.5c-0.2-0.2,0.1-1,0.4-1H33c0.3,0,0.6-0.3,0.6-0.6C33.6,44.5,33.3,44.2,33,44.2z" id="XMLID_138_"/>
	<path class="SnowfallDisasterDays_st0" d="M53.3,44.2h-0.7c-0.3,0-0.6-0.7-0.4-1l0.5-0.5c0.2-0.2,0.2-0.6,0-0.8c-0.2-0.2-0.6-0.2-0.8,0   l-0.5,0.5c-0.2,0.2-1-0.1-1-0.4v-0.7c0-0.3-0.3-0.6-0.6-0.6c-0.3,0-0.6,0.3-0.6,0.6V42c0,0.3-0.7,0.6-1,0.4l-0.5-0.5   c-0.2-0.2-0.6-0.2-0.8,0c-0.2,0.2-0.2,0.6,0,0.8l0.5,0.5c0.2,0.2-0.1,1-0.4,1h-0.7c-0.3,0-0.6,0.3-0.6,0.6c0,0.3,0.3,0.6,0.6,0.6   h0.7c0.3,0,0.6,0.7,0.4,1l-0.5,0.5c-0.2,0.2-0.2,0.6,0,0.8c0.2,0.2,0.6,0.2,0.8,0l0.5-0.5c0.2-0.2,1,0.1,1,0.4v0.7   c0,0.3,0.3,0.6,0.6,0.6c0.3,0,0.6-0.3,0.6-0.6v-0.7c0-0.3,0.7-0.6,1-0.4l0.5,0.5c0.2,0.2,0.6,0.2,0.8,0c0.2-0.2,0.2-0.6,0-0.8   l-0.5-0.5c-0.2-0.2,0.1-1,0.4-1h0.7c0.3,0,0.6-0.3,0.6-0.6C53.9,44.5,53.6,44.2,53.3,44.2z" id="XMLID_161_"/>
	<path class="SnowfallDisasterDays_st0" d="M44.5,52.8h-1c-0.4,0-0.8-1-0.5-1.3l0.7-0.7c0.3-0.3,0.3-0.8,0-1.1c-0.3-0.3-0.8-0.3-1.1,0   l-0.7,0.7c-0.3,0.3-1.3-0.1-1.3-0.5v-1c0-0.4-0.4-0.8-0.8-0.8c-0.4,0-0.8,0.3-0.8,0.8v1c0,0.4-1,0.8-1.3,0.5l-0.7-0.7   c-0.3-0.3-0.8-0.3-1.1,0c-0.3,0.3-0.3,0.8,0,1.1l0.7,0.7c0.3,0.3-0.1,1.3-0.5,1.3h-1c-0.4,0-0.8,0.4-0.8,0.8c0,0.4,0.3,0.8,0.8,0.8   h1c0.4,0,0.8,1,0.5,1.3L36,56.3c-0.3,0.3-0.3,0.8,0,1.1c0.3,0.3,0.8,0.3,1.1,0l0.7-0.7c0.3-0.3,1.3,0.1,1.3,0.5v1   c0,0.4,0.4,0.8,0.8,0.8c0.4,0,0.8-0.3,0.8-0.8v-1c0-0.4,1-0.8,1.3-0.5l0.7,0.7c0.3,0.3,0.8,0.3,1.1,0c0.3-0.3,0.3-0.8,0-1.1   L43,55.6c-0.3-0.3,0.1-1.3,0.5-1.3h1c0.4,0,0.8-0.4,0.8-0.8C45.2,53.2,44.9,52.8,44.5,52.8z" id="XMLID_162_"/>
	<path class="SnowfallDisasterDays_st0" d="M76.7,16.9c-2.9,0-5.5,1.5-7,4c-0.9,1.5,1.4,2.9,2.3,1.4c1-1.6,2.8-2.6,4.7-2.6   c3,0,5.5,2.5,5.5,5.5c0,3-2.5,5.5-5.5,5.5H53.4c0.2-0.4,0.4-0.8,0.5-1.2c0.2,0.2,0.5,0.3,0.8,0.3h8c2.5,0,4.5-2,4.5-4.5   c0-2.5-2-4.5-4.5-4.5c-2.2,0-4.1,1.6-4.4,3.7c-0.3,1.7,2.4,2.2,2.7,0.5c0.2-0.8,0.9-1.5,1.8-1.5c1,0,1.8,0.8,1.8,1.8   s-0.8,1.8-1.8,1.8h-8c0,0-0.1,0-0.1,0c0.2-0.9,0.3-1.8,0.3-2.7c0-7-5.3-12.8-12-13.6C39.7,4.8,33.4,1,26.6,1   c-9.4,0-17,6.6-18.3,15.5c-4.7,1.1-8.3,5.3-8.3,10.3c0,5.8,4.8,10.6,10.6,10.6c2.5,0,4.7-0.8,6.6-2.3c3,1.9,6,2.8,9.4,2.8   c3.1,0,5.3-0.5,7.7-1.9c2.1,1.2,4.4,1.9,6.9,1.9c1.8,0,3.6-0.4,5.2-1h22.4c1.7,0,3.2,1.4,3.2,3.2c0,1.7-1.4,3.2-3.2,3.2   c-1.7,0-3.2-1.4-3.2-3.2c0-1.8-2.7-1.8-2.7,0c0,3.2,2.6,5.9,5.9,5.9c3.2,0,5.9-2.6,5.9-5.9c0-3.2-2.6-5.9-5.9-5.9H50.6   c0.3-0.3,0.7-0.6,1-1c0.1,0,0.3,0.1,0.4,0.1h24.7c4.5,0,8.2-3.7,8.2-8.2C84.9,20.6,81.2,16.9,76.7,16.9z M42.1,34.2   c-0.1,0-0.2,0-0.3,0c-0.2,0-0.4,0-0.6,0c-2.1,0-4.1-0.6-5.8-1.8c-0.5-0.4-1.2-0.4-1.8-0.2c-0.1,0-0.3,0.1-0.4,0.2   c-2.3,1.4-3.8,1.8-6.7,1.8c-3,0-5.7-0.9-8.4-3c-0.3-0.3-0.7-0.4-1.1-0.4c-0.5,0-1,0.2-1.4,0.6c-1.3,1.4-3,2.2-5,2.2   c-3.8,0-6.9-3.1-6.9-6.9s3.1-6.9,6.9-6.9c1.3,0,2.6,0.4,3.7,1.1c0.9,0.6,2,0.3,2.6-0.6c0.6-0.9,0.3-2-0.6-2.6   c-1.3-0.8-2.8-1.4-4.3-1.6c1.3-6.8,7.2-11.7,14.5-11.7c4.8,0,9.2,2.4,12,6.1c-3.4,0.7-6.4,2.5-8.5,5.4c-0.6,0.8-0.4,2,0.4,2.6   c0.8,0.6,2,0.4,2.6-0.4c1.9-2.6,4.9-4.1,8.1-4.1c5.5,0,10,4.5,10,10c0,5.1-3.9,9.4-8.9,10H42.1z" id="XMLID_165_"/>
</g>
</svg>