<?xml version="1.0" ?><!-- Generator: Adobe Illustrator 19.0.0, SVG Export Plug-In . SVG Version: 6.00 Build 0)  --><svg id="图层_1" style="enable-background:new 0 0 85 60;" version="1.1" viewBox="0 0 85 60" x="0px" xml:space="preserve" xmlns="http://www.w3.org/2000/svg" xmlns:xlink="http://www.w3.org/1999/xlink" y="0px" zn="沙尘暴灾害天数">
<style type="text/css">
	.StormDisasterDays_st0{fill:#FFA748;}
</style>
<g id="XMLID_11770_">
	<g id="XMLID_280_">
		<g id="XMLID_289_">
			<path class="StormDisasterDays_st0" d="M66.1,27.5c1.9-1.3,2.9-2.8,2.9-4.4c0-1.1-0.6-2.1-1.6-3.1c0.5-0.7,0.8-1.4,0.9-2.1     c0.4-5.1-11-10-25.4-11c-14.4-1-26.3,2.3-26.7,7.4c-0.1,2,1.5,3.9,4.3,5.6c-2.4,1.5-3.7,3.2-3.7,4.9c0.1,2.8,3.6,5.1,9,6.7     c-0.6,0.8-1,1.7-0.9,2.5c0.1,0.7,0.4,1.3,0.9,1.9c-0.3,0.4-0.5,0.8-0.6,1.2c-0.3,2.1,2.5,4.3,6.9,6.1c-0.6,0.4-1,1-1.1,1.5     c-0.1,1.3,1.4,2.5,3.9,3.4c-0.2,0.2-0.4,0.5-0.4,0.8c-0.1,1.4,2.7,2.6,6.3,3.1c-0.2,0.2-0.4,0.4-0.4,0.6c0,0.6,1.4,0.9,3,0.8     c1.6-0.2,2.9-0.8,2.9-1.3c0,0,0,0,0,0c2.3-0.4,3.8-1.1,3.8-2.1c0-0.3-0.1-0.6-0.3-0.8c2.4-0.6,4.1-1.6,4.2-2.8     c0-0.3,0-0.5-0.1-0.8c2.7-0.7,4.4-1.8,4.6-3.3c0.2-1.3-0.9-2.8-3-4.1c7.3-1.9,12.3-5,11.9-8.1C67.5,29,67,28.2,66.1,27.5z      M42.6,7.9c11.3,0.8,20.3,4.2,20.1,7.6c-0.2,3.4-9.6,5.5-21,4.7c-11.3-0.8-20.3-4.2-20.1-7.6C21.8,9.2,31.2,7.1,42.6,7.9z      M22,22.6c0-0.5,0.2-1.1,0.6-1.6c4.6,2.1,11.3,3.8,18.9,4.3c8.3,0.6,15.7-0.3,20.7-2.1c-2.6,2.6-10.3,4.6-19.5,4.9     C31.4,28.5,22.1,26,22,22.6z M43.5,52.7c-1.3,0.1-2.3-0.1-2.4-0.5c0-0.1,0-0.2,0.1-0.2c0.4,0,0.7,0.1,1.1,0.1     c1.2,0.1,2.3,0,3.3-0.1C45.4,52.3,44.5,52.6,43.5,52.7z M42.4,50.6c-3.3-0.2-5.9-1.1-6.1-2.1c1.7,0.5,3.7,0.8,5.9,1     c2.3,0.1,4.5,0,6.3-0.3C48.3,50.1,45.6,50.7,42.4,50.6z M42.4,47.2c-5-0.3-9-1.8-8.8-3.3c0-0.1,0-0.2,0.1-0.3     c2.2,0.8,4.8,1.4,7.5,1.8c3.7,0.6,7.2,0.7,10.1,0.3C50.1,46.9,46.5,47.5,42.4,47.2z M55.1,40.2c-0.3,2.2-6.4,3.1-13.6,2     c-5.3-0.8-9.7-2.4-11.6-4.1c4.1,1.4,10.3,2,17.2,1.3c2.5-0.2,4.8-0.6,7-1.1C54.8,39,55.2,39.6,55.1,40.2z M46.4,35.3     c-8.9,0.8-16.4-0.6-17.3-3.1c4,0.8,8.8,1.1,13.9,1c7.8-0.2,14.8-1.7,19.6-3.8C61.8,32,54.9,34.5,46.4,35.3z" id="XMLID_290_"/>
		</g>
		<circle class="StormDisasterDays_st0" cx="7.1" cy="11.6" id="XMLID_288_" r="2.9"/>
		<circle class="StormDisasterDays_st0" cx="10" cy="25.3" id="XMLID_287_" r="2.9"/>
		<circle class="StormDisasterDays_st0" cx="16.1" cy="35.6" id="XMLID_286_" r="2.9"/>
		<circle class="StormDisasterDays_st0" cx="22" cy="43.7" id="XMLID_285_" r="2.9"/>
		<circle class="StormDisasterDays_st0" cx="62.7" cy="45.5" id="XMLID_284_" r="2.9"/>
		<circle class="StormDisasterDays_st0" cx="69" cy="37.4" id="XMLID_283_" r="2.9"/>
		<circle class="StormDisasterDays_st0" cx="75" cy="26.5" id="XMLID_282_" r="2.9"/>
		<circle class="StormDisasterDays_st0" cx="77.9" cy="14.1" id="XMLID_281_" r="2.9"/>
	</g>
</g>
</svg>