<?xml version="1.0" ?><!-- Generator: Adobe Illustrator 19.0.0, SVG Export Plug-In . SVG Version: 6.00 Build 0)  --><svg id="图层_1" style="enable-background:new 0 0 72 60;" version="1.1" viewBox="0 0 72 60" x="0px" xml:space="preserve" xmlns="http://www.w3.org/2000/svg" xmlns:xlink="http://www.w3.org/1999/xlink" y="0px" zn="累计特殊天气数">
<style type="text/css">
	.TotalSpecialWeatherNumber_st0{fill:#39DAFF;}
</style>
<g id="XMLID_11881_">
	<g id="XMLID_11882_">
		<circle class="TotalSpecialWeatherNumber_st0" cx="35.3" cy="37" id="XMLID_11883_" r="2.4"/>
		<circle class="TotalSpecialWeatherNumber_st0" cx="35.3" cy="28.4" id="XMLID_11884_" r="2.4"/>
		<circle class="TotalSpecialWeatherNumber_st0" cx="35.3" cy="19.9" id="XMLID_11885_" r="2.4"/>
	</g>
	<g id="XMLID_11886_">
		<circle class="TotalSpecialWeatherNumber_st0" cx="17.9" cy="32.1" id="XMLID_11887_" r="2.4"/>
		<circle class="TotalSpecialWeatherNumber_st0" cx="17.9" cy="23.6" id="XMLID_11888_" r="2.4"/>
		<circle class="TotalSpecialWeatherNumber_st0" cx="17.9" cy="15" id="XMLID_11889_" r="2.4"/>
	</g>
	<g id="XMLID_11890_">
		<circle class="TotalSpecialWeatherNumber_st0" cx="52.6" cy="32.1" id="XMLID_11891_" r="2.4"/>
		<circle class="TotalSpecialWeatherNumber_st0" cx="52.6" cy="23.6" id="XMLID_11892_" r="2.4"/>
		<circle class="TotalSpecialWeatherNumber_st0" cx="52.6" cy="15" id="XMLID_11893_" r="2.4"/>
	</g>
	<path class="TotalSpecialWeatherNumber_st0" d="M61.3,42.9L61.3,42.9l-50.5,0v0c-1.2,0-2.2,1-2.2,2.2c0,1.2,1,2.2,2.2,2.2v0h50.5v0   c1.2,0,2.2-1,2.2-2.2C63.5,43.9,62.5,42.9,61.3,42.9z" id="XMLID_11894_"/>
</g>
</svg>