<?xml version="1.0" ?><!-- Generator: Adobe Illustrator 19.0.0, SVG Export Plug-In . SVG Version: 6.00 Build 0)  --><svg id="图层_1" style="enable-background:new 0 0 72 60;" version="1.1" viewBox="0 0 72 60" x="0px" xml:space="preserve" xmlns="http://www.w3.org/2000/svg" xmlns:xlink="http://www.w3.org/1999/xlink" y="0px" zn="累计蓝天天数">
<style type="text/css">
	.TotalSkyDays_st0{fill:#39DAFF;}
</style>
<g id="XMLID_11809_">
	<path class="TotalSkyDays_st0" d="M39.5,27.4c-2.9-5.3-8.5-8.6-14.5-8.6c-8.4,0-15.2,5.9-16.3,13.8c-4.2,0.9-7.4,4.7-7.4,9.2   c0,5.2,4.2,9.4,9.4,9.4c2.2,0,4.2-0.7,5.9-2c2.6,1.7,5.4,2.5,8.3,2.5c2.8,0,4.7-0.4,6.9-1.6c1.9,1.1,3.9,1.6,6.1,1.6   c6.7,0,12.2-5.5,12.2-12.2C50.2,33.3,45.5,28.2,39.5,27.4z M37.9,48.4c-1.8,0-3.6-0.6-5.1-1.6c-0.5-0.3-1.1-0.4-1.6-0.2   c-0.1,0-0.2,0.1-0.3,0.2c-2,1.2-3.4,1.6-5.9,1.6c-2.7,0-5-0.8-7.5-2.6c-0.3-0.2-0.7-0.3-1-0.3c-0.5,0-0.9,0.2-1.2,0.5   c-1.2,1.3-2.7,1.9-4.5,1.9c-3.4,0-6.1-2.8-6.1-6.2c0-3.4,2.8-6.2,6.1-6.2c1.2,0,2.3,0.3,3.3,1c0.8,0.5,1.8,0.3,2.3-0.5   c0.5-0.8,0.3-1.8-0.5-2.3c-1.2-0.7-2.5-1.2-3.8-1.4c1.1-6,6.4-10.4,12.9-10.4c4.2,0,8.2,2.1,10.7,5.5c-3,0.6-5.7,2.3-7.5,4.8   c-0.5,0.7-0.4,1.8,0.4,2.3c0.7,0.5,1.8,0.4,2.3-0.4c1.7-2.3,4.4-3.6,7.2-3.6c4.9,0,8.9,4,8.9,8.9S42.9,48.4,37.9,48.4z" id="XMLID_11810_"/>
	<g id="XMLID_11813_">
		<path class="TotalSkyDays_st0" d="M42.4,17.5C42.4,17.5,42.4,17.5,42.4,17.5c0.5-0.3,0.9-0.6,1.4-0.8c0.3-0.2,0.6-0.3,1-0.5    l-3-5.5c-0.3-0.7-1.2-0.9-1.8-0.5c-0.7,0.3-0.9,1.2-0.5,1.8L42.4,17.5z" id="XMLID_9324_"/>
		<path class="TotalSkyDays_st0" d="M49.5,15.1l-0.3-2.6c-0.1-0.5-0.5-0.9-1-0.8c-0.5,0.1-0.9,0.5-0.8,1l0.3,2.6    C48.3,15.2,48.9,15.1,49.5,15.1z" id="XMLID_9171_"/>
		<path class="TotalSkyDays_st0" d="M38.8,21.2c0.3-0.5,0.7-1,1.1-1.4l-2-1.6c-0.4-0.3-1-0.3-1.3,0.1c-0.3,0.4-0.3,1,0.1,1.3    L38.8,21.2z" id="XMLID_6330_"/>
		<path class="TotalSkyDays_st0" d="M66.7,27.9c0.1,0,0.2,0,0.3-0.1c0.3-0.2,0.5-0.5,0.5-0.9c-0.1-0.5-0.5-0.9-1-0.8L64,26.3    c0.1,0.6,0.2,1.2,0.2,1.8L66.7,27.9z" id="XMLID_6323_"/>
		<path class="TotalSkyDays_st0" d="M61.7,21c0.3,0.4,0.6,0.9,0.8,1.4c0.2,0.3,0.3,0.6,0.5,1l5.5-3c0.7-0.3,0.9-1.2,0.5-1.8    c-0.3-0.7-1.2-0.9-1.8-0.5L61.7,21C61.7,21,61.7,21,61.7,21z" id="XMLID_6311_"/>
		<path class="TotalSkyDays_st0" d="M59.5,18.6l1.6-2c0.3-0.4,0.3-1-0.1-1.3c-0.4-0.3-1-0.3-1.3,0.1l-1.6,2    C58.6,17.8,59.1,18.2,59.5,18.6z" id="XMLID_6306_"/>
		<path class="TotalSkyDays_st0" d="M57.2,10c0.2-0.7-0.2-1.5-0.9-1.7c-0.7-0.2-1.5,0.2-1.7,0.9l-1.8,6c0,0,0,0,0,0    c0.9,0.2,1.7,0.4,2.6,0.7L57.2,10z" id="XMLID_6300_"/>
		<path class="TotalSkyDays_st0" d="M61.8,36.8c-0.3,0.5-0.7,1-1.1,1.4l2,1.6c0.3,0.2,0.7,0.3,1,0.1c0.1-0.1,0.2-0.1,0.3-0.2    c0.3-0.4,0.3-1-0.1-1.3L61.8,36.8z" id="XMLID_5704_"/>
		<path class="TotalSkyDays_st0" d="M59.9,23.8c-2.8-5.3-9.5-7.3-14.8-4.5c-2.1,1.1-3.6,2.8-4.6,4.7c0.5,0.5,0.9,1,1.3,1.6    c0.3,0,0.5,0,0.8,0c1.1-2.7,3.7-4.7,6.8-5c4.6-0.5,8.7,2.8,9.2,7.4c0.5,4.2-2.4,8.1-6.4,9c-0.1,0.9-0.3,1.9-0.6,2.7    c1.3-0.2,2.6-0.5,3.9-1.2C60.8,35.7,62.8,29.1,59.9,23.8z" id="XMLID_4246_"/>
		<path class="TotalSkyDays_st0" d="M58.2,40.4C58.2,40.4,58.2,40.4,58.2,40.4c-0.5,0.3-0.9,0.6-1.4,0.8c-0.3,0.2-0.6,0.3-1,0.5    l3,5.5c0.3,0.7,1.2,0.9,1.8,0.5c0.7-0.3,0.9-1.2,0.5-1.8L58.2,40.4z" id="XMLID_4241_"/>
		<path class="TotalSkyDays_st0" d="M70,33.2l-6-1.8c0,0,0,0,0,0c-0.2,0.9-0.4,1.7-0.7,2.6l6,1.8c0.4,0.1,0.7,0.1,1-0.1    c0.3-0.2,0.5-0.4,0.6-0.8C71.1,34.2,70.7,33.5,70,33.2z" id="XMLID_4239_"/>
		<path class="TotalSkyDays_st0" d="M51.1,42.8l0.3,2.6c0.1,0.5,0.5,0.9,1,0.8c0.1,0,0.2,0,0.3-0.1c0.3-0.2,0.5-0.5,0.5-0.9    l-0.3-2.6C52.3,42.7,51.7,42.8,51.1,42.8z" id="XMLID_4238_"/>
	</g>
</g>
</svg>