<?xml version="1.0" encoding="utf-8"?>
<!-- Generator: Adobe Illustrator 19.0.0, SVG Export Plug-In . SVG Version: 6.00 Build 0)  -->
<svg version="1.1" id="WeatherStationPositionFocus" xmlns="http://www.w3.org/2000/svg" xmlns:xlink="http://www.w3.org/1999/xlink" x="0px" y="0px"
	 viewBox="0 0 21.9 28.2" style="enable-background:new 0 0 21.9 28.2;" xml:space="preserve">
<style type="text/css">
	.WeatherStationPositionFocus_st0{fill:#00E1FF;}
	.WeatherStationPositionFocus_st1{opacity:0.3;fill:#00E1FF;}
</style>
<g id="XMLID_1_">
	<path id="XMLID_7_" class="WeatherStationPositionFocus_st0" d="M10.9,0.2c-5.1,0-9.3,4.2-9.3,9.3c0,2.6,1.3,4.4,2.8,6.7l6.5,8.5l6.5-8.5c1.9-2.5,2.8-4,2.8-6.7
		C20.2,4.3,16.1,0.2,10.9,0.2z M10.9,14.2c-2.6,0-4.8-2.1-4.8-4.8s2.1-4.8,4.8-4.8s4.8,2.1,4.8,4.8S13.6,14.2,10.9,14.2z"/>
	<g id="XMLID_6_">
		<path id="XMLID_3_" class="WeatherStationPositionFocus_st0" d="M10.9,28.1C4.8,28.1,0,26.3,0,24s4.8-4.1,10.9-4.1s10.9,1.8,10.9,4.1S17.1,28.1,10.9,28.1z
			 M10.9,20.6c-6.1,0-10.3,1.8-10.3,3.4c0,1.6,4.1,3.4,10.3,3.4s10.3-1.8,10.3-3.4C21.2,22.3,17.1,20.6,10.9,20.6z"/>
	</g>
	<ellipse id="XMLID_5_" class="WeatherStationPositionFocus_st1" cx="10.9" cy="24" rx="10.6" ry="3.7"/>
</g>
</svg>
