<?xml version="1.0" encoding="utf-8"?>
<!-- Generator: Adobe Illustrator 19.0.0, SVG Export Plug-In . SVG Version: 6.00 Build 0)  -->
<svg version="1.1" id="WeatherStationPosition" xmlns="http://www.w3.org/2000/svg" xmlns:xlink="http://www.w3.org/1999/xlink" x="0px" y="0px"
	 viewBox="0 0 21.9 28.2" style="enable-background:new 0 0 21.9 28.2;" xml:space="preserve">
<style type="text/css">
	.WeatherStationPosition_st0{fill:#FFFFFF;}
</style>
<g id="XMLID_1_">
	<g id="XMLID_5_">
		<path id="XMLID_3_" class="WeatherStationPosition_st0" d="M10.9,27.9c-6.1,0-10.8-1.8-10.8-4s4.7-4,10.8-4c6.1,0,10.8,1.8,10.8,4S17,27.9,10.9,27.9z
			 M10.9,20.5c-6.1,0-10.2,1.8-10.2,3.4s4.1,3.4,10.2,3.4c6.1,0,10.2-1.8,10.2-3.4S17,20.5,10.9,20.5z"/>
	</g>
	<g id="XMLID_6_">
		<path id="XMLID_25_" class="WeatherStationPosition_st0" d="M10.9,0.3c-5.1,0-9.2,4.1-9.2,9.2c0,2.6,1.2,4.4,2.8,6.6l6.4,8.4l6.4-8.4
			c1.8-2.5,2.8-4,2.8-6.6C20.1,4.4,16,0.3,10.9,0.3z M10.9,14.2c-2.6,0-4.7-2.1-4.7-4.7s2.1-4.7,4.7-4.7s4.7,2.1,4.7,4.7
			S13.6,14.2,10.9,14.2z"/>
	</g>
</g>
</svg>
