<?xml version="1.0" encoding="utf-8"?>
<!-- Generator: Adobe Illustrator 19.0.0, SVG Export Plug-In . SVG Version: 6.00 Build 0)  -->
<svg version="1.1" id="cloud_nav" xmlns="http://www.w3.org/2000/svg" xmlns:xlink="http://www.w3.org/1999/xlink" x="0px" y="0px"
	 viewBox="0 0 153 31" style="enable-background:new 0 0 153 31;" xml:space="preserve">
<style type="text/css">
	.cloud_nav_st0{stroke:#1561C0;stroke-miterlimit:10;}
	.cloud_nav_st1{fill:#1561C0;fill-opacity:0.3;stroke:#1561C0;stroke-width:0.5;stroke-miterlimit:10;}
</style>
<g id="XMLID_317_">
	<polygon id="cloud_nav_XMLID_322_" fill="rgba(0,0,0,0)" class="cloud_nav_st0" points="147.4,30.2 1,30.2 1,8.2 2.2,6.9 2.2,3.8 5,0.8 63.6,0.8 68.5,3.6 82.7,3.6 149.4,3.2 152.1,6.1 152.1,13.5 150.2,16.5 150.2,25.9 	"/>
	<polygon id="cloud_nav_XMLID_318_" class="cloud_nav_st1" points="76.7,3.6 74.3,5.8 26.2,5.8 25.1,3.8 6.6,3.8 6.6,11.3 5,12.9 5,17.3 5,18.8 5,19.2 4,21.4 4,30.2 0.9,30.2 0.9,8.3 2.2,6.9 2.2,3.8 5,0.8 63.5,0.8 68.5,3.6 	"/>
</g>
</svg>
