<?xml version="1.0" encoding="utf-8"?>
<!-- Generator: Adobe Illustrator 19.0.0, SVG Export Plug-In . SVG Version: 6.00 Build 0)  -->
<svg version="1.1" id="generalMetric" xmlns="http://www.w3.org/2000/svg" xmlns:xlink="http://www.w3.org/1999/xlink" x="0px" y="0px"
	 viewBox="0 0 385 72" style="enable-background:new 0 0 385 72;" xml:space="preserve">
<style type="text/css">
	.generalMetric_st0{fill:#00BEFF;}
	.generalMetric_st1{fill:none;stroke:#1561C0;stroke-width:2;stroke-miterlimit:10;}
	.generalMetric_st2{fill:none;stroke:#00BEFF;stroke-width:3;stroke-miterlimit:10;}
	.generalMetric_st3{opacity:0.5;}
	.generalMetric_st4{clip-path:url(#XMLID_154_);}
	.generalMetric_st5{fill:none;stroke:#04BCFE;stroke-width:0.25;stroke-miterlimit:10;}
</style>
<g>
	<g>
		<polygon id="XMLID_131_" class="generalMetric_st0" points="380.6,67.6 323.7,67.4 317.2,63.1 380.6,62.9 		"/>
		<g>
			<polygon id="XMLID_246_" fill="rgba(21,97,192,0.7)" points="174.5,66 20.4,66 2.5,41.4 2.5,3 135.1,3 144.6,11.6 174.5,11.3 			"/>
			<g>
				<polygon id="XMLID_130_" class="generalMetric_st1" points="382.6,69.7 309.6,69.7 302.2,64.8 18.5,64.7 2.4,42.4 2.4,2.3 134.7,2.4 
					144.8,11.1 354.5,11.1 382.6,53.1 				"/>
				<polygon id="XMLID_129_" class="generalMetric_st1" points="2.4,49.3 2.4,65 13.5,65 				"/>
			</g>
			<polyline id="XMLID_128_" class="generalMetric_st2" points="2.4,19.4 2.4,2.3 20.7,2.3 			"/>
		</g>
		<polyline id="XMLID_127_" class="generalMetric_st2" points="336.1,11.1 354.5,11.1 366.5,29.1 		"/>
		<g class="generalMetric_st3">
			<defs>
				<polygon id="XMLID_126_" class="generalMetric_st3" points="174.5,63.7 174.5,11.6 353,11.5 381.5,53.1 381.5,68.5 309.9,68.5 302.6,63.6 				
					"/>
			</defs>
			<clipPath id="XMLID_154_">
				<use xlink:href="#XMLID_126_"  style="overflow:visible;"/>
			</clipPath>
			<g class="generalMetric_st4">
				<line id="XMLID_243_" class="generalMetric_st5" x1="450.2" y1="75.3" x2="343" y2="4.3"/>
				<line id="XMLID_242_" class="generalMetric_st5" x1="444.2" y1="75.3" x2="336.9" y2="4.3"/>
				<line id="XMLID_241_" class="generalMetric_st5" x1="438.1" y1="75.3" x2="330.9" y2="4.3"/>
				<line id="XMLID_240_" class="generalMetric_st5" x1="432.1" y1="75.3" x2="324.9" y2="4.3"/>
				<line id="XMLID_239_" class="generalMetric_st5" x1="426.1" y1="75.3" x2="318.8" y2="4.3"/>
				<line id="XMLID_238_" class="generalMetric_st5" x1="420" y1="75.3" x2="312.8" y2="4.3"/>
				<line id="XMLID_237_" class="generalMetric_st5" x1="414" y1="75.3" x2="306.7" y2="4.3"/>
				<line id="XMLID_236_" class="generalMetric_st5" x1="407.9" y1="75.3" x2="300.7" y2="4.3"/>
				<line id="XMLID_235_" class="generalMetric_st5" x1="401.9" y1="75.3" x2="294.6" y2="4.3"/>
				<line id="XMLID_234_" class="generalMetric_st5" x1="395.8" y1="75.3" x2="288.6" y2="4.3"/>
				<line id="XMLID_233_" class="generalMetric_st5" x1="389.8" y1="75.3" x2="282.5" y2="4.3"/>
				<line id="XMLID_230_" class="generalMetric_st5" x1="383.7" y1="75.3" x2="276.5" y2="4.3"/>
				<line id="XMLID_215_" class="generalMetric_st5" x1="377.7" y1="75.3" x2="270.4" y2="4.3"/>
				<line id="XMLID_214_" class="generalMetric_st5" x1="371.7" y1="75.3" x2="264.4" y2="4.3"/>
				<line id="XMLID_213_" class="generalMetric_st5" x1="365.6" y1="75.3" x2="258.4" y2="4.3"/>
				<line id="XMLID_212_" class="generalMetric_st5" x1="359.6" y1="75.3" x2="252.3" y2="4.3"/>
				<line id="XMLID_211_" class="generalMetric_st5" x1="353.5" y1="75.3" x2="246.3" y2="4.3"/>
				<line id="XMLID_210_" class="generalMetric_st5" x1="347.5" y1="75.3" x2="240.2" y2="4.3"/>
				<line id="XMLID_209_" class="generalMetric_st5" x1="341.4" y1="75.3" x2="234.2" y2="4.3"/>
				<line id="XMLID_165_" class="generalMetric_st5" x1="335.4" y1="75.3" x2="228.1" y2="4.3"/>
				<line id="XMLID_164_" class="generalMetric_st5" x1="329.3" y1="75.3" x2="222.1" y2="4.3"/>
				<line id="XMLID_163_" class="generalMetric_st5" x1="323.3" y1="75.3" x2="216" y2="4.3"/>
				<line id="XMLID_162_" class="generalMetric_st5" x1="317.2" y1="75.3" x2="210" y2="4.3"/>
				<line id="XMLID_161_" class="generalMetric_st5" x1="311.2" y1="75.3" x2="204" y2="4.3"/>
				<line id="XMLID_160_" class="generalMetric_st5" x1="305.2" y1="75.3" x2="197.9" y2="4.3"/>
				<line id="XMLID_158_" class="generalMetric_st5" x1="299.1" y1="75.3" x2="191.9" y2="4.3"/>
				<line id="XMLID_157_" class="generalMetric_st5" x1="293.1" y1="75.3" x2="185.8" y2="4.3"/>
				<line id="XMLID_155_" class="generalMetric_st5" x1="287" y1="75.3" x2="179.8" y2="4.3"/>
				<line id="XMLID_153_" class="generalMetric_st5" x1="281" y1="75.3" x2="173.7" y2="4.3"/>
				<line id="XMLID_152_" class="generalMetric_st5" x1="274.9" y1="75.3" x2="167.7" y2="4.3"/>
				<line id="XMLID_147_" class="generalMetric_st5" x1="268.9" y1="75.3" x2="161.6" y2="4.3"/>
				<line id="XMLID_145_" class="generalMetric_st5" x1="262.8" y1="75.3" x2="155.6" y2="4.3"/>
				<line id="XMLID_143_" class="generalMetric_st5" x1="256.8" y1="75.3" x2="149.5" y2="4.3"/>
				<line id="XMLID_141_" class="generalMetric_st5" x1="250.7" y1="75.3" x2="143.5" y2="4.3"/>
				<line id="XMLID_139_" class="generalMetric_st5" x1="244.7" y1="75.3" x2="137.5" y2="4.3"/>
				<line id="XMLID_138_" class="generalMetric_st5" x1="238.7" y1="75.3" x2="131.4" y2="4.3"/>
				<line id="XMLID_125_" class="generalMetric_st5" x1="232.6" y1="75.3" x2="125.4" y2="4.3"/>
				<line id="XMLID_124_" class="generalMetric_st5" x1="226.6" y1="75.3" x2="119.3" y2="4.3"/>
				<line id="XMLID_122_" class="generalMetric_st5" x1="220.5" y1="75.3" x2="113.3" y2="4.3"/>
				<line id="XMLID_121_" class="generalMetric_st5" x1="214.5" y1="75.3" x2="107.2" y2="4.3"/>
				<line id="XMLID_120_" class="generalMetric_st5" x1="208.4" y1="75.3" x2="101.2" y2="4.3"/>
				<line id="XMLID_113_" class="generalMetric_st5" x1="202.4" y1="75.3" x2="95.1" y2="4.3"/>
				<line id="XMLID_112_" class="generalMetric_st5" x1="196.3" y1="75.3" x2="89.1" y2="4.3"/>
				<line id="XMLID_109_" class="generalMetric_st5" x1="190.3" y1="75.3" x2="83.1" y2="4.3"/>
			</g>
		</g>
	</g>
</g>
</svg>
