<?xml version="1.0" encoding="utf-8"?>
<!-- Generator: Adobe Illustrator 19.0.0, SVG Export Plug-In . SVG Version: 6.00 Build 0)  -->
<svg version="1.1" id="menu_nav" xmlns="http://www.w3.org/2000/svg" xmlns:xlink="http://www.w3.org/1999/xlink" x="0px" y="0px"
	 viewBox="0 0 130 31" style="enable-background:new 0 0 130 31;" xml:space="preserve">
<style type="text/css">
	.menu_nav_st0{fill:rgba(0,0,0,0);stroke:#1561C0;stroke-miterlimit:10;}
	.menu_nav_st1{fill:#1561C0;fill-opacity:0.3;stroke:#1561C0;stroke-width:0.5;stroke-miterlimit:10;}
</style>
<g id="menu_nav_XMLID_152_">
	<polygon id="menu_nav_XMLID_279_" class="menu_nav_st0" points="124,30.2 1.3,30.2 1.3,8.2 2.5,6.9 2.5,3.8 5.3,0.8 37.3,0.8 42.2,3.6 83,3.6 
		126.1,3.2 128.8,6.1 128.8,13.5 126.9,16.5 126.9,25.9 	"/>
	<polygon id="menu_nav_XMLID_158_" class="menu_nav_st1" points="50.5,3.6 48,5.8 26.5,5.8 25.5,3.8 7,3.8 7,11.3 5.3,12.9 5.3,17.3 5.3,18.8 
		5.3,19.2 4.3,21.4 4.3,30.2 1.3,30.2 1.2,8.3 2.5,6.9 2.5,3.8 5.3,0.8 37.3,0.8 42.2,3.6 	"/>
</g>
</svg>
