<?xml version="1.0" encoding="utf-8"?>
<!-- Generator: Adobe Illustrator 19.0.0, SVG Export Plug-In . SVG Version: 6.00 Build 0)  -->
<svg version="1.1" id="图层_1" xmlns="http://www.w3.org/2000/svg" xmlns:xlink="http://www.w3.org/1999/xlink" x="0px" y="0px"
	 viewBox="0 0 390 268" style="enable-background:new 0 0 390 268;" xml:space="preserve">
<style type="text/css">
	.multiMetric_st0{opacity:0.5;}
	.multiMetric_st1{clip-path:url(#multiMetric_XMLID_331_);}
	.multiMetric_st2{fill:none;stroke:#04BCFE;stroke-width:0.25;stroke-miterlimit:10;}
	.multiMetric_st3{clip-path:url(#multiMetric_XMLID_332_);}
	.multiMetric_st4{clip-path:url(#multiMetric_XMLID_333_);}
	.multiMetric_st5{fill:none;stroke:#1561C0;stroke-width:3;stroke-miterlimit:10;}
	.multiMetric_st6{fill:none;stroke:#00BEFF;stroke-width:5;stroke-miterlimit:10;}
	.multiMetric_st7{fill:none;stroke:#00BEFF;stroke-width:2;stroke-miterlimit:10;}
	.multiMetric_st8{fill:none;stroke:#1561C0;stroke-width:2;stroke-miterlimit:10;}
	.multiMetric_st9{fill:none;stroke:#1561C0;stroke-miterlimit:10;}
	.multiMetric_st10{fill:#00BEFF;}
</style>
<g id="multiMetric_XMLID_109_">
	<g id="multiMetric_XMLID_1358_" class="multiMetric_st0">
		<defs>
			<rect id="multiMetric_XMLID_1359_" x="6" y="66" class="multiMetric_st0" width="377" height="34"/>
		</defs>
		<clipPath id="multiMetric_XMLID_331_">
			<use xlink:href="#multiMetric_XMLID_1359_"  style="overflow:visible;"/>
		</clipPath>
		<g id="multiMetric_XMLID_1360_" class="multiMetric_st1">
			<g id="multiMetric_XMLID_1410_">
				<line id="multiMetric_XMLID_1488_" class="multiMetric_st2" x1="504.8" y1="107.3" x2="431.5" y2="58.9"/>
				<line id="multiMetric_XMLID_1487_" class="multiMetric_st2" x1="498.6" y1="107.3" x2="425.3" y2="58.9"/>
				<line id="multiMetric_XMLID_1486_" class="multiMetric_st2" x1="492.3" y1="107.3" x2="419" y2="58.9"/>
				<line id="multiMetric_XMLID_1485_" class="multiMetric_st2" x1="486.1" y1="107.3" x2="412.8" y2="58.9"/>
				<line id="multiMetric_XMLID_1484_" class="multiMetric_st2" x1="479.9" y1="107.3" x2="406.5" y2="58.9"/>
				<line id="multiMetric_XMLID_1483_" class="multiMetric_st2" x1="473.6" y1="107.3" x2="400.3" y2="58.9"/>
				<line id="multiMetric_XMLID_1482_" class="multiMetric_st2" x1="467.4" y1="107.3" x2="394.1" y2="58.9"/>
				<line id="multiMetric_XMLID_1481_" class="multiMetric_st2" x1="461.2" y1="107.3" x2="387.8" y2="58.9"/>
				<line id="multiMetric_XMLID_1480_" class="multiMetric_st2" x1="454.9" y1="107.3" x2="381.6" y2="58.9"/>
				<line id="multiMetric_XMLID_1479_" class="multiMetric_st2" x1="448.7" y1="107.3" x2="375.4" y2="58.9"/>
				<line id="multiMetric_XMLID_1478_" class="multiMetric_st2" x1="442.4" y1="107.3" x2="369.1" y2="58.9"/>
				<line id="multiMetric_XMLID_1477_" class="multiMetric_st2" x1="436.2" y1="107.3" x2="362.9" y2="58.9"/>
				<line id="multiMetric_XMLID_1476_" class="multiMetric_st2" x1="430" y1="107.3" x2="356.6" y2="58.9"/>
				<line id="multiMetric_XMLID_1475_" class="multiMetric_st2" x1="423.7" y1="107.3" x2="350.4" y2="58.9"/>
				<line id="multiMetric_XMLID_1474_" class="multiMetric_st2" x1="417.5" y1="107.3" x2="344.2" y2="58.9"/>
				<line id="multiMetric_XMLID_1473_" class="multiMetric_st2" x1="411.2" y1="107.3" x2="337.9" y2="58.9"/>
				<line id="multiMetric_XMLID_1472_" class="multiMetric_st2" x1="405" y1="107.3" x2="331.7" y2="58.9"/>
				<line id="multiMetric_XMLID_1471_" class="multiMetric_st2" x1="398.8" y1="107.3" x2="325.4" y2="58.9"/>
				<line id="multiMetric_XMLID_1470_" class="multiMetric_st2" x1="392.5" y1="107.3" x2="319.2" y2="58.9"/>
				<line id="multiMetric_XMLID_1469_" class="multiMetric_st2" x1="386.3" y1="107.3" x2="313" y2="58.9"/>
				<line id="multiMetric_XMLID_1468_" class="multiMetric_st2" x1="380" y1="107.3" x2="306.7" y2="58.9"/>
				<line id="multiMetric_XMLID_1467_" class="multiMetric_st2" x1="373.8" y1="107.3" x2="300.5" y2="58.9"/>
				<line id="multiMetric_XMLID_1466_" class="multiMetric_st2" x1="367.6" y1="107.3" x2="294.3" y2="58.9"/>
				<line id="multiMetric_XMLID_1465_" class="multiMetric_st2" x1="361.3" y1="107.3" x2="288" y2="58.9"/>
				<line id="multiMetric_XMLID_1464_" class="multiMetric_st2" x1="355.1" y1="107.3" x2="281.8" y2="58.9"/>
				<line id="multiMetric_XMLID_1463_" class="multiMetric_st2" x1="348.9" y1="107.3" x2="275.5" y2="58.9"/>
				<line id="multiMetric_XMLID_1462_" class="multiMetric_st2" x1="342.6" y1="107.3" x2="269.3" y2="58.9"/>
				<line id="multiMetric_XMLID_1461_" class="multiMetric_st2" x1="336.4" y1="107.3" x2="263.1" y2="58.9"/>
				<line id="multiMetric_XMLID_1460_" class="multiMetric_st2" x1="330.1" y1="107.3" x2="256.8" y2="58.9"/>
				<line id="multiMetric_XMLID_1459_" class="multiMetric_st2" x1="323.9" y1="107.3" x2="250.6" y2="58.9"/>
				<line id="multiMetric_XMLID_1458_" class="multiMetric_st2" x1="317.7" y1="107.3" x2="244.3" y2="58.9"/>
				<line id="multiMetric_XMLID_1457_" class="multiMetric_st2" x1="311.4" y1="107.3" x2="238.1" y2="58.9"/>
				<line id="multiMetric_XMLID_1456_" class="multiMetric_st2" x1="305.2" y1="107.3" x2="231.9" y2="58.9"/>
				<line id="multiMetric_XMLID_1455_" class="multiMetric_st2" x1="298.9" y1="107.3" x2="225.6" y2="58.9"/>
				<line id="multiMetric_XMLID_1454_" class="multiMetric_st2" x1="292.7" y1="107.3" x2="219.4" y2="58.9"/>
				<line id="multiMetric_XMLID_1453_" class="multiMetric_st2" x1="286.5" y1="107.3" x2="213.2" y2="58.9"/>
				<line id="multiMetric_XMLID_1452_" class="multiMetric_st2" x1="280.2" y1="107.3" x2="206.9" y2="58.9"/>
				<line id="multiMetric_XMLID_1451_" class="multiMetric_st2" x1="274" y1="107.3" x2="200.7" y2="58.9"/>
				<line id="multiMetric_XMLID_1450_" class="multiMetric_st2" x1="267.8" y1="107.3" x2="194.4" y2="58.9"/>
				<line id="multiMetric_XMLID_1449_" class="multiMetric_st2" x1="261.5" y1="107.3" x2="188.2" y2="58.9"/>
				<line id="multiMetric_XMLID_1448_" class="multiMetric_st2" x1="255.3" y1="107.3" x2="182" y2="58.9"/>
				<line id="multiMetric_XMLID_1447_" class="multiMetric_st2" x1="249" y1="107.3" x2="175.7" y2="58.9"/>
				<line id="multiMetric_XMLID_1446_" class="multiMetric_st2" x1="242.8" y1="107.3" x2="169.5" y2="58.9"/>
				<line id="multiMetric_XMLID_1445_" class="multiMetric_st2" x1="236.6" y1="107.3" x2="163.2" y2="58.9"/>
				<line id="multiMetric_XMLID_1444_" class="multiMetric_st2" x1="230.3" y1="107.3" x2="157" y2="58.9"/>
				<line id="multiMetric_XMLID_1443_" class="multiMetric_st2" x1="224.1" y1="107.3" x2="150.8" y2="58.9"/>
				<line id="multiMetric_XMLID_1442_" class="multiMetric_st2" x1="217.8" y1="107.3" x2="144.5" y2="58.9"/>
				<line id="multiMetric_XMLID_1441_" class="multiMetric_st2" x1="211.6" y1="107.3" x2="138.3" y2="58.9"/>
			</g>
			<g id="multiMetric_XMLID_1361_">
				<line id="multiMetric_XMLID_1409_" class="multiMetric_st2" x1="206.1" y1="107.3" x2="132.8" y2="58.9"/>
				<line id="multiMetric_XMLID_1408_" class="multiMetric_st2" x1="199.9" y1="107.3" x2="126.6" y2="58.9"/>
				<line id="multiMetric_XMLID_1407_" class="multiMetric_st2" x1="193.7" y1="107.3" x2="120.3" y2="58.9"/>
				<line id="multiMetric_XMLID_1406_" class="multiMetric_st2" x1="187.4" y1="107.3" x2="114.1" y2="58.9"/>
				<line id="multiMetric_XMLID_1405_" class="multiMetric_st2" x1="181.2" y1="107.3" x2="107.9" y2="58.9"/>
				<line id="multiMetric_XMLID_1404_" class="multiMetric_st2" x1="174.9" y1="107.3" x2="101.6" y2="58.9"/>
				<line id="multiMetric_XMLID_1403_" class="multiMetric_st2" x1="168.7" y1="107.3" x2="95.4" y2="58.9"/>
				<line id="multiMetric_XMLID_1402_" class="multiMetric_st2" x1="162.5" y1="107.3" x2="89.2" y2="58.9"/>
				<line id="multiMetric_XMLID_1401_" class="multiMetric_st2" x1="156.2" y1="107.3" x2="82.9" y2="58.9"/>
				<line id="multiMetric_XMLID_1400_" class="multiMetric_st2" x1="150" y1="107.3" x2="76.7" y2="58.9"/>
				<line id="multiMetric_XMLID_1399_" class="multiMetric_st2" x1="143.8" y1="107.3" x2="70.4" y2="58.9"/>
				<line id="multiMetric_XMLID_1398_" class="multiMetric_st2" x1="137.5" y1="107.3" x2="64.2" y2="58.9"/>
				<line id="multiMetric_XMLID_1397_" class="multiMetric_st2" x1="131.3" y1="107.3" x2="58" y2="58.9"/>
				<line id="multiMetric_XMLID_1396_" class="multiMetric_st2" x1="125" y1="107.3" x2="51.7" y2="58.9"/>
				<line id="multiMetric_XMLID_1395_" class="multiMetric_st2" x1="118.8" y1="107.3" x2="45.5" y2="58.9"/>
				<line id="multiMetric_XMLID_1394_" class="multiMetric_st2" x1="112.6" y1="107.3" x2="39.2" y2="58.9"/>
				<line id="multiMetric_XMLID_1393_" class="multiMetric_st2" x1="106.3" y1="107.3" x2="33" y2="58.9"/>
				<line id="multiMetric_XMLID_1392_" class="multiMetric_st2" x1="100.1" y1="107.3" x2="26.8" y2="58.9"/>
				<line id="multiMetric_XMLID_1391_" class="multiMetric_st2" x1="93.8" y1="107.3" x2="20.5" y2="58.9"/>
				<line id="multiMetric_XMLID_1390_" class="multiMetric_st2" x1="87.6" y1="107.3" x2="14.3" y2="58.9"/>
				<line id="multiMetric_XMLID_1389_" class="multiMetric_st2" x1="81.4" y1="107.3" x2="8.1" y2="58.9"/>
				<line id="multiMetric_XMLID_1388_" class="multiMetric_st2" x1="75.1" y1="107.3" x2="1.8" y2="58.9"/>
				<line id="multiMetric_XMLID_1387_" class="multiMetric_st2" x1="68.9" y1="107.3" x2="-4.4" y2="58.9"/>
				<line id="multiMetric_XMLID_1386_" class="multiMetric_st2" x1="62.7" y1="107.3" x2="-10.7" y2="58.9"/>
				<line id="multiMetric_XMLID_1385_" class="multiMetric_st2" x1="56.4" y1="107.3" x2="-16.9" y2="58.9"/>
				<line id="multiMetric_XMLID_1384_" class="multiMetric_st2" x1="50.2" y1="107.3" x2="-23.1" y2="58.9"/>
				<line id="multiMetric_XMLID_1383_" class="multiMetric_st2" x1="43.9" y1="107.3" x2="-29.4" y2="58.9"/>
				<line id="multiMetric_XMLID_1382_" class="multiMetric_st2" x1="37.7" y1="107.3" x2="-35.6" y2="58.9"/>
				<line id="multiMetric_XMLID_1381_" class="multiMetric_st2" x1="31.5" y1="107.3" x2="-41.9" y2="58.9"/>
				<line id="multiMetric_XMLID_1380_" class="multiMetric_st2" x1="25.2" y1="107.3" x2="-48.1" y2="58.9"/>
				<line id="multiMetric_XMLID_1379_" class="multiMetric_st2" x1="19" y1="107.3" x2="-54.3" y2="58.9"/>
				<line id="multiMetric_XMLID_1378_" class="multiMetric_st2" x1="12.7" y1="107.3" x2="-60.6" y2="58.9"/>
				<line id="multiMetric_XMLID_1377_" class="multiMetric_st2" x1="6.5" y1="107.3" x2="-66.8" y2="58.9"/>
				<line id="multiMetric_XMLID_1376_" class="multiMetric_st2" x1="0.3" y1="107.3" x2="-73.1" y2="58.9"/>
				<line id="multiMetric_XMLID_1375_" class="multiMetric_st2" x1="-6" y1="107.3" x2="-79.3" y2="58.9"/>
				<line id="multiMetric_XMLID_1374_" class="multiMetric_st2" x1="-12.2" y1="107.3" x2="-85.5" y2="58.9"/>
				<line id="multiMetric_XMLID_1373_" class="multiMetric_st2" x1="-18.5" y1="107.3" x2="-91.8" y2="58.9"/>
				<line id="multiMetric_XMLID_1372_" class="multiMetric_st2" x1="-24.7" y1="107.3" x2="-98" y2="58.9"/>
				<line id="multiMetric_XMLID_1371_" class="multiMetric_st2" x1="-30.9" y1="107.3" x2="-104.2" y2="58.9"/>
				<line id="multiMetric_XMLID_1370_" class="multiMetric_st2" x1="-37.2" y1="107.3" x2="-110.5" y2="58.9"/>
				<line id="multiMetric_XMLID_1369_" class="multiMetric_st2" x1="-43.4" y1="107.3" x2="-116.7" y2="58.9"/>
				<line id="multiMetric_XMLID_1368_" class="multiMetric_st2" x1="-49.6" y1="107.3" x2="-123" y2="58.9"/>
				<line id="multiMetric_XMLID_1367_" class="multiMetric_st2" x1="-55.9" y1="107.3" x2="-129.2" y2="58.9"/>
				<line id="multiMetric_XMLID_1366_" class="multiMetric_st2" x1="-62.1" y1="107.3" x2="-135.4" y2="58.9"/>
				<line id="multiMetric_XMLID_1365_" class="multiMetric_st2" x1="-68.4" y1="107.3" x2="-141.7" y2="58.9"/>
				<line id="multiMetric_XMLID_1364_" class="multiMetric_st2" x1="-74.6" y1="107.3" x2="-147.9" y2="58.9"/>
				<line id="multiMetric_XMLID_1363_" class="multiMetric_st2" x1="-80.8" y1="107.3" x2="-154.2" y2="58.9"/>
				<line id="multiMetric_XMLID_1362_" class="multiMetric_st2" x1="-87.1" y1="107.3" x2="-160.4" y2="58.9"/>
			</g>
		</g>
	</g>
	<g id="multiMetric_XMLID_1249_" class="multiMetric_st0">
		<defs>
			<rect id="multiMetric_XMLID_1250_" x="6" y="143" class="multiMetric_st0" width="377" height="34"/>
		</defs>
		<clipPath id="multiMetric_XMLID_332_">
			<use xlink:href="#multiMetric_XMLID_1250_"  style="overflow:visible;"/>
		</clipPath>
		<g id="multiMetric_XMLID_1251_" class="multiMetric_st3">
			<g id="multiMetric_XMLID_1301_">
				<line id="multiMetric_XMLID_1353_" class="multiMetric_st2" x1="508.3" y1="183.8" x2="435" y2="135.4"/>
				<line id="multiMetric_XMLID_1352_" class="multiMetric_st2" x1="502.1" y1="183.8" x2="428.7" y2="135.4"/>
				<line id="multiMetric_XMLID_1351_" class="multiMetric_st2" x1="495.8" y1="183.8" x2="422.5" y2="135.4"/>
				<line id="multiMetric_XMLID_1350_" class="multiMetric_st2" x1="489.6" y1="183.8" x2="416.3" y2="135.4"/>
				<line id="multiMetric_XMLID_1349_" class="multiMetric_st2" x1="483.3" y1="183.8" x2="410" y2="135.4"/>
				<line id="multiMetric_XMLID_1348_" class="multiMetric_st2" x1="477.1" y1="183.8" x2="403.8" y2="135.4"/>
				<line id="multiMetric_XMLID_1347_" class="multiMetric_st2" x1="470.9" y1="183.8" x2="397.5" y2="135.4"/>
				<line id="multiMetric_XMLID_1346_" class="multiMetric_st2" x1="464.6" y1="183.8" x2="391.3" y2="135.4"/>
				<line id="multiMetric_XMLID_1345_" class="multiMetric_st2" x1="458.4" y1="183.8" x2="385.1" y2="135.4"/>
				<line id="multiMetric_XMLID_1344_" class="multiMetric_st2" x1="452.1" y1="183.8" x2="378.8" y2="135.4"/>
				<line id="multiMetric_XMLID_1343_" class="multiMetric_st2" x1="445.9" y1="183.8" x2="372.6" y2="135.4"/>
				<line id="multiMetric_XMLID_1342_" class="multiMetric_st2" x1="439.7" y1="183.8" x2="366.4" y2="135.4"/>
				<line id="multiMetric_XMLID_1341_" class="multiMetric_st2" x1="433.4" y1="183.8" x2="360.1" y2="135.4"/>
				<line id="multiMetric_XMLID_1340_" class="multiMetric_st2" x1="427.2" y1="183.8" x2="353.9" y2="135.4"/>
				<line id="multiMetric_XMLID_1339_" class="multiMetric_st2" x1="421" y1="183.8" x2="347.6" y2="135.4"/>
				<line id="multiMetric_XMLID_1338_" class="multiMetric_st2" x1="414.7" y1="183.8" x2="341.4" y2="135.4"/>
				<line id="multiMetric_XMLID_1337_" class="multiMetric_st2" x1="408.5" y1="183.8" x2="335.2" y2="135.4"/>
				<line id="multiMetric_XMLID_1336_" class="multiMetric_st2" x1="402.2" y1="183.8" x2="328.9" y2="135.4"/>
				<line id="multiMetric_XMLID_1335_" class="multiMetric_st2" x1="396" y1="183.8" x2="322.7" y2="135.4"/>
				<line id="multiMetric_XMLID_1334_" class="multiMetric_st2" x1="389.8" y1="183.8" x2="316.4" y2="135.4"/>
				<line id="multiMetric_XMLID_1332_" class="multiMetric_st2" x1="383.5" y1="183.8" x2="310.2" y2="135.4"/>
				<line id="multiMetric_XMLID_1330_" class="multiMetric_st2" x1="377.3" y1="183.8" x2="304" y2="135.4"/>
				<line id="multiMetric_XMLID_1329_" class="multiMetric_st2" x1="371" y1="183.8" x2="297.7" y2="135.4"/>
				<line id="multiMetric_XMLID_1328_" class="multiMetric_st2" x1="364.8" y1="183.8" x2="291.5" y2="135.4"/>
				<line id="multiMetric_XMLID_1327_" class="multiMetric_st2" x1="358.6" y1="183.8" x2="285.2" y2="135.4"/>
				<line id="multiMetric_XMLID_1326_" class="multiMetric_st2" x1="352.3" y1="183.8" x2="279" y2="135.4"/>
				<line id="multiMetric_XMLID_1325_" class="multiMetric_st2" x1="346.1" y1="183.8" x2="272.8" y2="135.4"/>
				<line id="multiMetric_XMLID_1324_" class="multiMetric_st2" x1="339.9" y1="183.8" x2="266.5" y2="135.4"/>
				<line id="multiMetric_XMLID_1323_" class="multiMetric_st2" x1="333.6" y1="183.8" x2="260.3" y2="135.4"/>
				<line id="multiMetric_XMLID_1322_" class="multiMetric_st2" x1="327.4" y1="183.8" x2="254.1" y2="135.4"/>
				<line id="multiMetric_XMLID_1321_" class="multiMetric_st2" x1="321.1" y1="183.8" x2="247.8" y2="135.4"/>
				<line id="multiMetric_XMLID_1320_" class="multiMetric_st2" x1="314.9" y1="183.8" x2="241.6" y2="135.4"/>
				<line id="multiMetric_XMLID_1319_" class="multiMetric_st2" x1="308.7" y1="183.8" x2="235.3" y2="135.4"/>
				<line id="multiMetric_XMLID_1318_" class="multiMetric_st2" x1="302.4" y1="183.8" x2="229.1" y2="135.4"/>
				<line id="multiMetric_XMLID_1317_" class="multiMetric_st2" x1="296.2" y1="183.8" x2="222.9" y2="135.4"/>
				<line id="multiMetric_XMLID_1316_" class="multiMetric_st2" x1="289.9" y1="183.8" x2="216.6" y2="135.4"/>
				<line id="multiMetric_XMLID_1315_" class="multiMetric_st2" x1="283.7" y1="183.8" x2="210.4" y2="135.4"/>
				<line id="multiMetric_XMLID_1314_" class="multiMetric_st2" x1="277.5" y1="183.8" x2="204.1" y2="135.4"/>
				<line id="multiMetric_XMLID_1313_" class="multiMetric_st2" x1="271.2" y1="183.8" x2="197.9" y2="135.4"/>
				<line id="multiMetric_XMLID_1312_" class="multiMetric_st2" x1="265" y1="183.8" x2="191.7" y2="135.4"/>
				<line id="multiMetric_XMLID_1311_" class="multiMetric_st2" x1="258.7" y1="183.8" x2="185.4" y2="135.4"/>
				<line id="multiMetric_XMLID_1310_" class="multiMetric_st2" x1="252.5" y1="183.8" x2="179.2" y2="135.4"/>
				<line id="multiMetric_XMLID_1309_" class="multiMetric_st2" x1="246.3" y1="183.8" x2="173" y2="135.4"/>
				<line id="multiMetric_XMLID_1308_" class="multiMetric_st2" x1="240" y1="183.8" x2="166.7" y2="135.4"/>
				<line id="multiMetric_XMLID_1306_" class="multiMetric_st2" x1="233.8" y1="183.8" x2="160.5" y2="135.4"/>
				<line id="multiMetric_XMLID_1304_" class="multiMetric_st2" x1="227.6" y1="183.8" x2="154.2" y2="135.4"/>
				<line id="multiMetric_XMLID_1303_" class="multiMetric_st2" x1="221.3" y1="183.8" x2="148" y2="135.4"/>
				<line id="multiMetric_XMLID_1302_" class="multiMetric_st2" x1="215.1" y1="183.8" x2="141.8" y2="135.4"/>
			</g>
			<g id="multiMetric_XMLID_1252_">
				<line id="multiMetric_XMLID_1300_" class="multiMetric_st2" x1="209.6" y1="183.8" x2="136.3" y2="135.4"/>
				<line id="multiMetric_XMLID_1299_" class="multiMetric_st2" x1="203.4" y1="183.8" x2="130.1" y2="135.4"/>
				<line id="multiMetric_XMLID_1298_" class="multiMetric_st2" x1="197.1" y1="183.8" x2="123.8" y2="135.4"/>
				<line id="multiMetric_XMLID_1297_" class="multiMetric_st2" x1="190.9" y1="183.8" x2="117.6" y2="135.4"/>
				<line id="multiMetric_XMLID_1296_" class="multiMetric_st2" x1="184.7" y1="183.8" x2="111.3" y2="135.4"/>
				<line id="multiMetric_XMLID_1295_" class="multiMetric_st2" x1="178.4" y1="183.8" x2="105.1" y2="135.4"/>
				<line id="multiMetric_XMLID_1294_" class="multiMetric_st2" x1="172.2" y1="183.8" x2="98.9" y2="135.4"/>
				<line id="multiMetric_XMLID_1293_" class="multiMetric_st2" x1="165.9" y1="183.8" x2="92.6" y2="135.4"/>
				<line id="multiMetric_XMLID_1292_" class="multiMetric_st2" x1="159.7" y1="183.8" x2="86.4" y2="135.4"/>
				<line id="multiMetric_XMLID_1291_" class="multiMetric_st2" x1="153.5" y1="183.8" x2="80.1" y2="135.4"/>
				<line id="multiMetric_XMLID_1290_" class="multiMetric_st2" x1="147.2" y1="183.8" x2="73.9" y2="135.4"/>
				<line id="multiMetric_XMLID_1289_" class="multiMetric_st2" x1="141" y1="183.8" x2="67.7" y2="135.4"/>
				<line id="multiMetric_XMLID_1288_" class="multiMetric_st2" x1="134.7" y1="183.8" x2="61.4" y2="135.4"/>
				<line id="multiMetric_XMLID_1287_" class="multiMetric_st2" x1="128.5" y1="183.8" x2="55.2" y2="135.4"/>
				<line id="multiMetric_XMLID_1286_" class="multiMetric_st2" x1="122.3" y1="183.8" x2="49" y2="135.4"/>
				<line id="multiMetric_XMLID_1285_" class="multiMetric_st2" x1="116" y1="183.8" x2="42.7" y2="135.4"/>
				<line id="multiMetric_XMLID_1284_" class="multiMetric_st2" x1="109.8" y1="183.8" x2="36.5" y2="135.4"/>
				<line id="multiMetric_XMLID_1283_" class="multiMetric_st2" x1="103.6" y1="183.8" x2="30.2" y2="135.4"/>
				<line id="multiMetric_XMLID_1282_" class="multiMetric_st2" x1="97.3" y1="183.8" x2="24" y2="135.4"/>
				<line id="multiMetric_XMLID_1281_" class="multiMetric_st2" x1="91.1" y1="183.8" x2="17.8" y2="135.4"/>
				<line id="multiMetric_XMLID_1280_" class="multiMetric_st2" x1="84.8" y1="183.8" x2="11.5" y2="135.4"/>
				<line id="multiMetric_XMLID_1279_" class="multiMetric_st2" x1="78.6" y1="183.8" x2="5.3" y2="135.4"/>
				<line id="multiMetric_XMLID_1278_" class="multiMetric_st2" x1="72.4" y1="183.8" x2="-1" y2="135.4"/>
				<line id="multiMetric_XMLID_1277_" class="multiMetric_st2" x1="66.1" y1="183.8" x2="-7.2" y2="135.4"/>
				<line id="multiMetric_XMLID_1276_" class="multiMetric_st2" x1="59.9" y1="183.8" x2="-13.4" y2="135.4"/>
				<line id="multiMetric_XMLID_1275_" class="multiMetric_st2" x1="53.6" y1="183.8" x2="-19.7" y2="135.4"/>
				<line id="multiMetric_XMLID_1274_" class="multiMetric_st2" x1="47.4" y1="183.8" x2="-25.9" y2="135.4"/>
				<line id="multiMetric_XMLID_1273_" class="multiMetric_st2" x1="41.2" y1="183.8" x2="-32.1" y2="135.4"/>
				<line id="multiMetric_XMLID_1272_" class="multiMetric_st2" x1="34.9" y1="183.8" x2="-38.4" y2="135.4"/>
				<line id="multiMetric_XMLID_1271_" class="multiMetric_st2" x1="28.7" y1="183.8" x2="-44.6" y2="135.4"/>
				<line id="multiMetric_XMLID_1270_" class="multiMetric_st2" x1="22.5" y1="183.8" x2="-50.9" y2="135.4"/>
				<line id="multiMetric_XMLID_1269_" class="multiMetric_st2" x1="16.2" y1="183.8" x2="-57.1" y2="135.4"/>
				<line id="multiMetric_XMLID_1268_" class="multiMetric_st2" x1="10" y1="183.8" x2="-63.3" y2="135.4"/>
				<line id="multiMetric_XMLID_1267_" class="multiMetric_st2" x1="3.7" y1="183.8" x2="-69.6" y2="135.4"/>
				<line id="multiMetric_XMLID_1266_" class="multiMetric_st2" x1="-2.5" y1="183.8" x2="-75.8" y2="135.4"/>
				<line id="multiMetric_XMLID_1265_" class="multiMetric_st2" x1="-8.7" y1="183.8" x2="-82.1" y2="135.4"/>
				<line id="multiMetric_XMLID_1264_" class="multiMetric_st2" x1="-15" y1="183.8" x2="-88.3" y2="135.4"/>
				<line id="multiMetric_XMLID_1263_" class="multiMetric_st2" x1="-21.2" y1="183.8" x2="-94.5" y2="135.4"/>
				<line id="multiMetric_XMLID_1262_" class="multiMetric_st2" x1="-27.5" y1="183.8" x2="-100.8" y2="135.4"/>
				<line id="multiMetric_XMLID_1261_" class="multiMetric_st2" x1="-33.7" y1="183.8" x2="-107" y2="135.4"/>
				<line id="multiMetric_XMLID_1260_" class="multiMetric_st2" x1="-39.9" y1="183.8" x2="-113.2" y2="135.4"/>
				<line id="multiMetric_XMLID_1259_" class="multiMetric_st2" x1="-46.2" y1="183.8" x2="-119.5" y2="135.4"/>
				<line id="multiMetric_XMLID_1258_" class="multiMetric_st2" x1="-52.4" y1="183.8" x2="-125.7" y2="135.4"/>
				<line id="multiMetric_XMLID_1257_" class="multiMetric_st2" x1="-58.6" y1="183.8" x2="-132" y2="135.4"/>
				<line id="multiMetric_XMLID_1256_" class="multiMetric_st2" x1="-64.9" y1="183.8" x2="-138.2" y2="135.4"/>
				<line id="multiMetric_XMLID_1255_" class="multiMetric_st2" x1="-71.1" y1="183.8" x2="-144.4" y2="135.4"/>
				<line id="multiMetric_XMLID_1254_" class="multiMetric_st2" x1="-77.4" y1="183.8" x2="-150.7" y2="135.4"/>
				<line id="multiMetric_XMLID_1253_" class="multiMetric_st2" x1="-83.6" y1="183.8" x2="-156.9" y2="135.4"/>
			</g>
		</g>
	</g>
	<g id="multiMetric_XMLID_1140_" class="multiMetric_st0">
		<defs>
			<polygon id="multiMetric_XMLID_1141_" class="multiMetric_st0" points="5.1,220 382.1,220 379.4,252.9 30.4,253 			"/>
		</defs>
		<clipPath id="multiMetric_XMLID_333_">
			<use xlink:href="#multiMetric_XMLID_1141_"  style="overflow:visible;"/>
		</clipPath>
		<g id="multiMetric_XMLID_1142_" class="multiMetric_st4">
			<g id="multiMetric_XMLID_1192_">
				<line id="multiMetric_XMLID_1244_" class="multiMetric_st2" x1="504.4" y1="261.7" x2="431.1" y2="213.2"/>
				<line id="multiMetric_XMLID_1243_" class="multiMetric_st2" x1="498.2" y1="261.7" x2="424.8" y2="213.2"/>
				<line id="multiMetric_XMLID_1242_" class="multiMetric_st2" x1="491.9" y1="261.7" x2="418.6" y2="213.2"/>
				<line id="multiMetric_XMLID_1241_" class="multiMetric_st2" x1="485.7" y1="261.7" x2="412.4" y2="213.2"/>
				<line id="multiMetric_XMLID_1240_" class="multiMetric_st2" x1="479.4" y1="261.7" x2="406.1" y2="213.2"/>
				<line id="multiMetric_XMLID_1239_" class="multiMetric_st2" x1="473.2" y1="261.7" x2="399.9" y2="213.2"/>
				<line id="multiMetric_XMLID_1238_" class="multiMetric_st2" x1="467" y1="261.7" x2="393.7" y2="213.2"/>
				<line id="multiMetric_XMLID_1237_" class="multiMetric_st2" x1="460.7" y1="261.7" x2="387.4" y2="213.2"/>
				<line id="multiMetric_XMLID_1236_" class="multiMetric_st2" x1="454.5" y1="261.7" x2="381.2" y2="213.2"/>
				<line id="multiMetric_XMLID_1235_" class="multiMetric_st2" x1="448.3" y1="261.7" x2="374.9" y2="213.2"/>
				<line id="multiMetric_XMLID_1234_" class="multiMetric_st2" x1="442" y1="261.7" x2="368.7" y2="213.2"/>
				<line id="multiMetric_XMLID_1233_" class="multiMetric_st2" x1="435.8" y1="261.7" x2="362.5" y2="213.2"/>
				<line id="multiMetric_XMLID_1232_" class="multiMetric_st2" x1="429.5" y1="261.7" x2="356.2" y2="213.2"/>
				<line id="multiMetric_XMLID_1231_" class="multiMetric_st2" x1="423.3" y1="261.7" x2="350" y2="213.2"/>
				<line id="multiMetric_XMLID_1230_" class="multiMetric_st2" x1="417.1" y1="261.7" x2="343.7" y2="213.2"/>
				<line id="multiMetric_XMLID_1229_" class="multiMetric_st2" x1="410.8" y1="261.7" x2="337.5" y2="213.2"/>
				<line id="multiMetric_XMLID_1227_" class="multiMetric_st2" x1="404.6" y1="261.7" x2="331.3" y2="213.2"/>
				<line id="multiMetric_XMLID_1225_" class="multiMetric_st2" x1="398.3" y1="261.7" x2="325" y2="213.2"/>
				<line id="multiMetric_XMLID_1224_" class="multiMetric_st2" x1="392.1" y1="261.7" x2="318.8" y2="213.2"/>
				<line id="multiMetric_XMLID_1223_" class="multiMetric_st2" x1="385.9" y1="261.7" x2="312.5" y2="213.2"/>
				<line id="multiMetric_XMLID_1222_" class="multiMetric_st2" x1="379.6" y1="261.7" x2="306.3" y2="213.2"/>
				<line id="multiMetric_XMLID_1221_" class="multiMetric_st2" x1="373.4" y1="261.7" x2="300.1" y2="213.2"/>
				<line id="multiMetric_XMLID_1220_" class="multiMetric_st2" x1="367.2" y1="261.7" x2="293.8" y2="213.2"/>
				<line id="multiMetric_XMLID_1219_" class="multiMetric_st2" x1="360.9" y1="261.7" x2="287.6" y2="213.2"/>
				<line id="multiMetric_XMLID_1218_" class="multiMetric_st2" x1="354.7" y1="261.7" x2="281.4" y2="213.2"/>
				<line id="multiMetric_XMLID_1217_" class="multiMetric_st2" x1="348.4" y1="261.7" x2="275.1" y2="213.2"/>
				<line id="multiMetric_XMLID_1216_" class="multiMetric_st2" x1="342.2" y1="261.7" x2="268.9" y2="213.2"/>
				<line id="multiMetric_XMLID_1215_" class="multiMetric_st2" x1="336" y1="261.7" x2="262.6" y2="213.2"/>
				<line id="multiMetric_XMLID_1214_" class="multiMetric_st2" x1="329.7" y1="261.7" x2="256.4" y2="213.2"/>
				<line id="multiMetric_XMLID_1213_" class="multiMetric_st2" x1="323.5" y1="261.7" x2="250.2" y2="213.2"/>
				<line id="multiMetric_XMLID_1212_" class="multiMetric_st2" x1="317.2" y1="261.7" x2="243.9" y2="213.2"/>
				<line id="multiMetric_XMLID_1211_" class="multiMetric_st2" x1="311" y1="261.7" x2="237.7" y2="213.2"/>
				<line id="multiMetric_XMLID_1210_" class="multiMetric_st2" x1="304.8" y1="261.7" x2="231.4" y2="213.2"/>
				<line id="multiMetric_XMLID_1209_" class="multiMetric_st2" x1="298.5" y1="261.7" x2="225.2" y2="213.2"/>
				<line id="multiMetric_XMLID_1208_" class="multiMetric_st2" x1="292.3" y1="261.7" x2="219" y2="213.2"/>
				<line id="multiMetric_XMLID_1207_" class="multiMetric_st2" x1="286" y1="261.7" x2="212.7" y2="213.2"/>
				<line id="multiMetric_XMLID_1206_" class="multiMetric_st2" x1="279.8" y1="261.7" x2="206.5" y2="213.2"/>
				<line id="multiMetric_XMLID_1205_" class="multiMetric_st2" x1="273.6" y1="261.7" x2="200.3" y2="213.2"/>
				<line id="multiMetric_XMLID_1204_" class="multiMetric_st2" x1="267.3" y1="261.7" x2="194" y2="213.2"/>
				<line id="multiMetric_XMLID_1203_" class="multiMetric_st2" x1="261.1" y1="261.7" x2="187.8" y2="213.2"/>
				<line id="multiMetric_XMLID_1202_" class="multiMetric_st2" x1="254.9" y1="261.7" x2="181.5" y2="213.2"/>
				<line id="multiMetric_XMLID_1201_" class="multiMetric_st2" x1="248.6" y1="261.7" x2="175.3" y2="213.2"/>
				<line id="multiMetric_XMLID_1199_" class="multiMetric_st2" x1="242.4" y1="261.7" x2="169.1" y2="213.2"/>
				<line id="multiMetric_XMLID_1197_" class="multiMetric_st2" x1="236.1" y1="261.7" x2="162.8" y2="213.2"/>
				<line id="multiMetric_XMLID_1196_" class="multiMetric_st2" x1="229.9" y1="261.7" x2="156.6" y2="213.2"/>
				<line id="multiMetric_XMLID_1195_" class="multiMetric_st2" x1="223.7" y1="261.7" x2="150.3" y2="213.2"/>
				<line id="multiMetric_XMLID_1194_" class="multiMetric_st2" x1="217.4" y1="261.7" x2="144.1" y2="213.2"/>
				<line id="multiMetric_XMLID_1193_" class="multiMetric_st2" x1="211.2" y1="261.7" x2="137.9" y2="213.2"/>
			</g>
			<g id="multiMetric_XMLID_1143_">
				<line id="multiMetric_XMLID_1191_" class="multiMetric_st2" x1="205.7" y1="261.7" x2="132.4" y2="213.2"/>
				<line id="multiMetric_XMLID_1190_" class="multiMetric_st2" x1="199.5" y1="261.7" x2="126.2" y2="213.2"/>
				<line id="multiMetric_XMLID_1189_" class="multiMetric_st2" x1="193.2" y1="261.7" x2="119.9" y2="213.2"/>
				<line id="multiMetric_XMLID_1188_" class="multiMetric_st2" x1="187" y1="261.7" x2="113.7" y2="213.2"/>
				<line id="multiMetric_XMLID_1187_" class="multiMetric_st2" x1="180.8" y1="261.7" x2="107.4" y2="213.2"/>
				<line id="multiMetric_XMLID_1186_" class="multiMetric_st2" x1="174.5" y1="261.7" x2="101.2" y2="213.2"/>
				<line id="multiMetric_XMLID_1185_" class="multiMetric_st2" x1="168.3" y1="261.7" x2="95" y2="213.2"/>
				<line id="multiMetric_XMLID_1184_" class="multiMetric_st2" x1="162" y1="261.7" x2="88.7" y2="213.2"/>
				<line id="multiMetric_XMLID_1183_" class="multiMetric_st2" x1="155.8" y1="261.7" x2="82.5" y2="213.2"/>
				<line id="multiMetric_XMLID_1182_" class="multiMetric_st2" x1="149.6" y1="261.7" x2="76.3" y2="213.2"/>
				<line id="multiMetric_XMLID_1181_" class="multiMetric_st2" x1="143.3" y1="261.7" x2="70" y2="213.2"/>
				<line id="multiMetric_XMLID_1180_" class="multiMetric_st2" x1="137.1" y1="261.7" x2="63.8" y2="213.2"/>
				<line id="multiMetric_XMLID_1179_" class="multiMetric_st2" x1="130.9" y1="261.7" x2="57.5" y2="213.2"/>
				<line id="multiMetric_XMLID_1178_" class="multiMetric_st2" x1="124.6" y1="261.7" x2="51.3" y2="213.2"/>
				<line id="multiMetric_XMLID_1177_" class="multiMetric_st2" x1="118.4" y1="261.7" x2="45.1" y2="213.2"/>
				<line id="multiMetric_XMLID_1176_" class="multiMetric_st2" x1="112.1" y1="261.7" x2="38.8" y2="213.2"/>
				<line id="multiMetric_XMLID_1175_" class="multiMetric_st2" x1="105.9" y1="261.7" x2="32.6" y2="213.2"/>
				<line id="multiMetric_XMLID_1174_" class="multiMetric_st2" x1="99.7" y1="261.7" x2="26.3" y2="213.2"/>
				<line id="multiMetric_XMLID_1173_" class="multiMetric_st2" x1="93.4" y1="261.7" x2="20.1" y2="213.2"/>
				<line id="multiMetric_XMLID_1172_" class="multiMetric_st2" x1="87.2" y1="261.7" x2="13.9" y2="213.2"/>
				<line id="multiMetric_XMLID_1171_" class="multiMetric_st2" x1="80.9" y1="261.7" x2="7.6" y2="213.2"/>
				<line id="multiMetric_XMLID_1170_" class="multiMetric_st2" x1="74.7" y1="261.7" x2="1.4" y2="213.2"/>
				<line id="multiMetric_XMLID_1169_" class="multiMetric_st2" x1="68.5" y1="261.7" x2="-4.8" y2="213.2"/>
				<line id="multiMetric_XMLID_1168_" class="multiMetric_st2" x1="62.2" y1="261.7" x2="-11.1" y2="213.2"/>
				<line id="multiMetric_XMLID_1167_" class="multiMetric_st2" x1="56" y1="261.7" x2="-17.3" y2="213.2"/>
				<line id="multiMetric_XMLID_1166_" class="multiMetric_st2" x1="49.8" y1="261.7" x2="-23.6" y2="213.2"/>
				<line id="multiMetric_XMLID_1165_" class="multiMetric_st2" x1="43.5" y1="261.7" x2="-29.8" y2="213.2"/>
				<line id="multiMetric_XMLID_1164_" class="multiMetric_st2" x1="37.3" y1="261.7" x2="-36" y2="213.2"/>
				<line id="multiMetric_XMLID_1163_" class="multiMetric_st2" x1="31" y1="261.7" x2="-42.3" y2="213.2"/>
				<line id="multiMetric_XMLID_1162_" class="multiMetric_st2" x1="24.8" y1="261.7" x2="-48.5" y2="213.2"/>
				<line id="multiMetric_XMLID_1161_" class="multiMetric_st2" x1="18.6" y1="261.7" x2="-54.8" y2="213.2"/>
				<line id="multiMetric_XMLID_1160_" class="multiMetric_st2" x1="12.3" y1="261.7" x2="-61" y2="213.2"/>
				<line id="multiMetric_XMLID_1159_" class="multiMetric_st2" x1="6.1" y1="261.7" x2="-67.2" y2="213.2"/>
				<line id="multiMetric_XMLID_1158_" class="multiMetric_st2" x1="-0.2" y1="261.7" x2="-73.5" y2="213.2"/>
				<line id="multiMetric_XMLID_1157_" class="multiMetric_st2" x1="-6.4" y1="261.7" x2="-79.7" y2="213.2"/>
				<line id="multiMetric_XMLID_1156_" class="multiMetric_st2" x1="-12.6" y1="261.7" x2="-86" y2="213.2"/>
				<line id="multiMetric_XMLID_1155_" class="multiMetric_st2" x1="-18.9" y1="261.7" x2="-92.2" y2="213.2"/>
				<line id="multiMetric_XMLID_1154_" class="multiMetric_st2" x1="-25.1" y1="261.7" x2="-98.4" y2="213.2"/>
				<line id="multiMetric_XMLID_1153_" class="multiMetric_st2" x1="-31.3" y1="261.7" x2="-104.7" y2="213.2"/>
				<line id="multiMetric_XMLID_1152_" class="multiMetric_st2" x1="-37.6" y1="261.7" x2="-110.9" y2="213.2"/>
				<line id="multiMetric_XMLID_1151_" class="multiMetric_st2" x1="-43.8" y1="261.7" x2="-117.1" y2="213.2"/>
				<line id="multiMetric_XMLID_1150_" class="multiMetric_st2" x1="-50.1" y1="261.7" x2="-123.4" y2="213.2"/>
				<line id="multiMetric_XMLID_1149_" class="multiMetric_st2" x1="-56.3" y1="261.7" x2="-129.6" y2="213.2"/>
				<line id="multiMetric_XMLID_1148_" class="multiMetric_st2" x1="-62.5" y1="261.7" x2="-135.9" y2="213.2"/>
				<line id="multiMetric_XMLID_1147_" class="multiMetric_st2" x1="-68.8" y1="261.7" x2="-142.1" y2="213.2"/>
				<line id="multiMetric_XMLID_1146_" class="multiMetric_st2" x1="-75" y1="261.7" x2="-148.3" y2="213.2"/>
				<line id="multiMetric_XMLID_1145_" class="multiMetric_st2" x1="-81.3" y1="261.7" x2="-154.6" y2="213.2"/>
				<line id="multiMetric_XMLID_1144_" class="multiMetric_st2" x1="-87.5" y1="261.7" x2="-160.8" y2="213.2"/>
			</g>
		</g>
	</g>
	<polygon id="multiMetric_XMLID_266_" class="multiMetric_st5" points="373.5,260.4 40.5,260.4 5.3,236.6 5.3,17.7 17.3,7.6 71.8,7.6 75.8,13 384.9,12.5 
		384.9,48.5 384.9,241.7 	"/>
	<polyline id="multiMetric_XMLID_263_" class="multiMetric_st6" points="359.2,13 384.9,13 384.9,33.6 	"/>
	<polyline id="multiMetric_XMLID_262_" class="multiMetric_st6" points="56.9,260.4 41.7,260.4 5.3,236 5.3,221.7 	"/>
	<line id="multiMetric_XMLID_261_" class="multiMetric_st6" x1="384.9" y1="42.1" x2="384.9" y2="67.9"/>
	<line id="multiMetric_XMLID_260_" class="multiMetric_st7" x1="276.3" y1="21.8" x2="276.3" y2="26.8"/>
	<line id="multiMetric_XMLID_259_" class="multiMetric_st7" x1="280.7" y1="21.8" x2="280.7" y2="26.8"/>
	<line id="multiMetric_XMLID_258_" class="multiMetric_st7" x1="293.7" y1="21.8" x2="293.7" y2="26.8"/>
	<line id="multiMetric_XMLID_257_" class="multiMetric_st7" x1="289.4" y1="21.8" x2="289.4" y2="26.8"/>
	<line id="multiMetric_XMLID_256_" class="multiMetric_st7" x1="285" y1="21.8" x2="285" y2="26.8"/>
	<line id="multiMetric_XMLID_255_" class="multiMetric_st7" x1="298.1" y1="21.8" x2="298.1" y2="26.8"/>
	<line id="multiMetric_XMLID_254_" class="multiMetric_st7" x1="302.4" y1="21.8" x2="302.4" y2="26.8"/>
	<line id="multiMetric_XMLID_253_" class="multiMetric_st7" x1="306.8" y1="21.8" x2="306.8" y2="26.8"/>
	<line id="multiMetric_XMLID_252_" class="multiMetric_st7" x1="311.1" y1="21.8" x2="311.1" y2="26.8"/>
	<line id="multiMetric_XMLID_251_" class="multiMetric_st7" x1="315.5" y1="21.8" x2="315.5" y2="26.8"/>
	<line id="multiMetric_XMLID_250_" class="multiMetric_st7" x1="319.8" y1="21.8" x2="319.8" y2="26.8"/>
	<line id="multiMetric_XMLID_249_" class="multiMetric_st7" x1="324.2" y1="21.8" x2="324.2" y2="26.8"/>
	<line id="multiMetric_XMLID_248_" class="multiMetric_st7" x1="328.5" y1="21.8" x2="328.5" y2="26.8"/>
	<line id="multiMetric_XMLID_247_" class="multiMetric_st7" x1="332.9" y1="21.8" x2="332.9" y2="26.8"/>
	<line id="multiMetric_XMLID_246_" class="multiMetric_st7" x1="337.2" y1="21.8" x2="337.2" y2="26.8"/>
	<line id="multiMetric_XMLID_245_" class="multiMetric_st7" x1="341.6" y1="21.8" x2="341.6" y2="26.8"/>
	<line id="multiMetric_XMLID_244_" class="multiMetric_st7" x1="345.9" y1="21.8" x2="345.9" y2="26.8"/>
	<line id="multiMetric_XMLID_243_" class="multiMetric_st6" x1="384.9" y1="210" x2="384.9" y2="235.8"/>
	<line id="multiMetric_XMLID_242_" class="multiMetric_st6" x1="5.3" y1="176.1" x2="5.3" y2="211.1"/>
	<polygon id="multiMetric_XMLID_241_" class="multiMetric_st8" points="17.3,7.6 10.5,13.3 34.4,46.9 52.6,46.9 75.8,13 71.8,7.6 	"/>
	<polygon id="multiMetric_XMLID_240_" class="multiMetric_st8" points="23.1,11.4 17.9,15.8 36.4,41.8 50.5,41.8 68.4,15.6 65.3,11.4 	"/>
	<polyline id="multiMetric_XMLID_239_" class="multiMetric_st8" points="31.7,18.9 43.3,24.5 54.8,18.9 	"/>
	<line id="multiMetric_XMLID_238_" class="multiMetric_st8" x1="43.2" y1="35.6" x2="43.3" y2="24.5"/>
	<polyline id="multiMetric_XMLID_237_" class="multiMetric_st9" points="69.4,23.1 149.8,23.1 149.8,19.9 268.8,19.9 268.8,28.9 150,28.9 150,27 66.9,27 	
		"/>
	<polygon id="multiMetric_XMLID_236_" class="multiMetric_st9" points="273.6,19.9 273.6,28.9 357.1,28.9 357.1,24.4 341.8,18.7 290,18.7 290.1,19.9 	"/>
	<polyline id="multiMetric_XMLID_235_" class="multiMetric_st9" points="347.5,17.8 357.1,21.7 376.8,21.7 376.8,29.4 360,29.4 	"/>
	<line id="multiMetric_XMLID_234_" class="multiMetric_st9" x1="152.1" y1="22.3" x2="152.1" y2="27.5"/>
	<line id="multiMetric_XMLID_233_" class="multiMetric_st9" x1="153.6" y1="23.6" x2="153.6" y2="26.2"/>
	<line id="multiMetric_XMLID_232_" class="multiMetric_st9" x1="155.1" y1="23.6" x2="155.1" y2="26.2"/>
	<line id="multiMetric_XMLID_231_" class="multiMetric_st9" x1="156.6" y1="23.6" x2="156.6" y2="26.2"/>
	<line id="multiMetric_XMLID_230_" class="multiMetric_st9" x1="158.2" y1="23.6" x2="158.2" y2="26.2"/>
	<line id="multiMetric_XMLID_229_" class="multiMetric_st9" x1="159.7" y1="22.3" x2="159.7" y2="27.5"/>
	<line id="multiMetric_XMLID_228_" class="multiMetric_st9" x1="161.2" y1="23.6" x2="161.2" y2="26.2"/>
	<line id="multiMetric_XMLID_227_" class="multiMetric_st9" x1="162.7" y1="23.6" x2="162.7" y2="26.2"/>
	<line id="multiMetric_XMLID_226_" class="multiMetric_st9" x1="164.2" y1="23.6" x2="164.2" y2="26.2"/>
	<line id="multiMetric_XMLID_225_" class="multiMetric_st9" x1="165.7" y1="23.6" x2="165.7" y2="26.2"/>
	<line id="multiMetric_XMLID_224_" class="multiMetric_st9" x1="167.2" y1="22.3" x2="167.2" y2="27.5"/>
	<line id="multiMetric_XMLID_223_" class="multiMetric_st9" x1="168.8" y1="23.6" x2="168.8" y2="26.2"/>
	<line id="multiMetric_XMLID_222_" class="multiMetric_st9" x1="170.3" y1="23.6" x2="170.3" y2="26.2"/>
	<line id="multiMetric_XMLID_221_" class="multiMetric_st9" x1="171.8" y1="23.6" x2="171.8" y2="26.2"/>
	<line id="multiMetric_XMLID_220_" class="multiMetric_st9" x1="173.3" y1="23.6" x2="173.3" y2="26.2"/>
	<line id="multiMetric_XMLID_219_" class="multiMetric_st9" x1="174.8" y1="22.3" x2="174.8" y2="27.5"/>
	<line id="multiMetric_XMLID_218_" class="multiMetric_st9" x1="176.3" y1="23.6" x2="176.3" y2="26.2"/>
	<line id="multiMetric_XMLID_217_" class="multiMetric_st9" x1="177.8" y1="23.6" x2="177.8" y2="26.2"/>
	<line id="multiMetric_XMLID_216_" class="multiMetric_st9" x1="179.4" y1="23.6" x2="179.4" y2="26.2"/>
	<line id="multiMetric_XMLID_215_" class="multiMetric_st9" x1="180.9" y1="23.6" x2="180.9" y2="26.2"/>
	<line id="multiMetric_XMLID_214_" class="multiMetric_st9" x1="182.4" y1="22.3" x2="182.4" y2="27.5"/>
	<line id="multiMetric_XMLID_213_" class="multiMetric_st9" x1="183.9" y1="23.6" x2="183.9" y2="26.2"/>
	<line id="multiMetric_XMLID_212_" class="multiMetric_st9" x1="185.4" y1="23.6" x2="185.4" y2="26.2"/>
	<line id="multiMetric_XMLID_211_" class="multiMetric_st9" x1="186.9" y1="23.6" x2="186.9" y2="26.2"/>
	<line id="multiMetric_XMLID_210_" class="multiMetric_st9" x1="188.4" y1="23.6" x2="188.4" y2="26.2"/>
	<line id="multiMetric_XMLID_209_" class="multiMetric_st9" x1="190" y1="22.3" x2="190" y2="27.5"/>
	<line id="multiMetric_XMLID_208_" class="multiMetric_st9" x1="191.5" y1="23.6" x2="191.5" y2="26.2"/>
	<line id="multiMetric_XMLID_207_" class="multiMetric_st9" x1="193" y1="23.6" x2="193" y2="26.2"/>
	<line id="multiMetric_XMLID_206_" class="multiMetric_st9" x1="194.5" y1="23.6" x2="194.5" y2="26.2"/>
	<line id="multiMetric_XMLID_205_" class="multiMetric_st9" x1="196" y1="23.6" x2="196" y2="26.2"/>
	<line id="multiMetric_XMLID_204_" class="multiMetric_st9" x1="197.5" y1="22.3" x2="197.5" y2="27.5"/>
	<line id="multiMetric_XMLID_203_" class="multiMetric_st9" x1="199" y1="23.6" x2="199" y2="26.2"/>
	<line id="multiMetric_XMLID_202_" class="multiMetric_st9" x1="200.6" y1="23.6" x2="200.6" y2="26.2"/>
	<line id="multiMetric_XMLID_201_" class="multiMetric_st9" x1="202.1" y1="23.6" x2="202.1" y2="26.2"/>
	<line id="multiMetric_XMLID_200_" class="multiMetric_st9" x1="203.6" y1="23.6" x2="203.6" y2="26.2"/>
	<line id="multiMetric_XMLID_199_" class="multiMetric_st9" x1="205.1" y1="22.3" x2="205.1" y2="27.5"/>
	<line id="multiMetric_XMLID_198_" class="multiMetric_st9" x1="206.6" y1="23.6" x2="206.6" y2="26.2"/>
	<line id="multiMetric_XMLID_197_" class="multiMetric_st9" x1="208.1" y1="23.6" x2="208.1" y2="26.2"/>
	<line id="multiMetric_XMLID_196_" class="multiMetric_st9" x1="209.6" y1="23.6" x2="209.6" y2="26.2"/>
	<line id="multiMetric_XMLID_195_" class="multiMetric_st9" x1="211.2" y1="23.6" x2="211.2" y2="26.2"/>
	<line id="multiMetric_XMLID_194_" class="multiMetric_st9" x1="212.7" y1="22.3" x2="212.7" y2="27.5"/>
	<line id="multiMetric_XMLID_193_" class="multiMetric_st9" x1="214.2" y1="23.6" x2="214.2" y2="26.2"/>
	<line id="multiMetric_XMLID_192_" class="multiMetric_st9" x1="215.7" y1="23.6" x2="215.7" y2="26.2"/>
	<line id="multiMetric_XMLID_191_" class="multiMetric_st9" x1="217.2" y1="23.6" x2="217.2" y2="26.2"/>
	<line id="multiMetric_XMLID_190_" class="multiMetric_st9" x1="218.7" y1="23.6" x2="218.7" y2="26.2"/>
	<line id="multiMetric_XMLID_189_" class="multiMetric_st9" x1="220.2" y1="22.3" x2="220.2" y2="27.5"/>
	<line id="multiMetric_XMLID_188_" class="multiMetric_st9" x1="221.7" y1="23.6" x2="221.7" y2="26.2"/>
	<line id="multiMetric_XMLID_187_" class="multiMetric_st9" x1="223.3" y1="23.6" x2="223.3" y2="26.2"/>
	<line id="multiMetric_XMLID_186_" class="multiMetric_st9" x1="224.8" y1="23.6" x2="224.8" y2="26.2"/>
	<line id="multiMetric_XMLID_185_" class="multiMetric_st9" x1="226.3" y1="23.6" x2="226.3" y2="26.2"/>
	<line id="multiMetric_XMLID_184_" class="multiMetric_st9" x1="227.8" y1="22.3" x2="227.8" y2="27.5"/>
	<line id="multiMetric_XMLID_183_" class="multiMetric_st9" x1="229.3" y1="23.6" x2="229.3" y2="26.2"/>
	<line id="multiMetric_XMLID_182_" class="multiMetric_st9" x1="230.8" y1="23.6" x2="230.8" y2="26.2"/>
	<line id="multiMetric_XMLID_181_" class="multiMetric_st9" x1="232.3" y1="23.6" x2="232.3" y2="26.2"/>
	<line id="multiMetric_XMLID_180_" class="multiMetric_st9" x1="233.9" y1="23.6" x2="233.9" y2="26.2"/>
	<line id="multiMetric_XMLID_179_" class="multiMetric_st9" x1="235.4" y1="22.3" x2="235.4" y2="27.5"/>
	<line id="multiMetric_XMLID_178_" class="multiMetric_st9" x1="236.9" y1="23.6" x2="236.9" y2="26.2"/>
	<line id="multiMetric_XMLID_177_" class="multiMetric_st9" x1="238.4" y1="23.6" x2="238.4" y2="26.2"/>
	<line id="multiMetric_XMLID_176_" class="multiMetric_st9" x1="239.9" y1="23.6" x2="239.9" y2="26.2"/>
	<line id="multiMetric_XMLID_175_" class="multiMetric_st9" x1="241.4" y1="23.6" x2="241.4" y2="26.2"/>
	<line id="multiMetric_XMLID_174_" class="multiMetric_st9" x1="242.9" y1="22.3" x2="242.9" y2="27.5"/>
	<line id="multiMetric_XMLID_173_" class="multiMetric_st9" x1="244.5" y1="23.6" x2="244.5" y2="26.2"/>
	<line id="multiMetric_XMLID_172_" class="multiMetric_st9" x1="246" y1="23.6" x2="246" y2="26.2"/>
	<line id="multiMetric_XMLID_171_" class="multiMetric_st9" x1="247.5" y1="23.6" x2="247.5" y2="26.2"/>
	<line id="multiMetric_XMLID_170_" class="multiMetric_st9" x1="249" y1="23.6" x2="249" y2="26.2"/>
	<line id="multiMetric_XMLID_169_" class="multiMetric_st9" x1="250.5" y1="22.3" x2="250.5" y2="27.5"/>
	<line id="multiMetric_XMLID_168_" class="multiMetric_st9" x1="252" y1="23.6" x2="252" y2="26.2"/>
	<line id="multiMetric_XMLID_167_" class="multiMetric_st9" x1="253.5" y1="23.6" x2="253.5" y2="26.2"/>
	<line id="multiMetric_XMLID_166_" class="multiMetric_st9" x1="255.1" y1="23.6" x2="255.1" y2="26.2"/>
	<line id="multiMetric_XMLID_165_" class="multiMetric_st9" x1="256.6" y1="23.6" x2="256.6" y2="26.2"/>
	<line id="multiMetric_XMLID_164_" class="multiMetric_st9" x1="258.1" y1="22.3" x2="258.1" y2="27.5"/>
	<line id="multiMetric_XMLID_163_" class="multiMetric_st9" x1="259.6" y1="23.6" x2="259.6" y2="26.2"/>
	<line id="multiMetric_XMLID_162_" class="multiMetric_st9" x1="261.1" y1="23.6" x2="261.1" y2="26.2"/>
	<line id="multiMetric_XMLID_161_" class="multiMetric_st9" x1="262.6" y1="23.6" x2="262.6" y2="26.2"/>
	<line id="multiMetric_XMLID_160_" class="multiMetric_st9" x1="264.1" y1="23.6" x2="264.1" y2="26.2"/>
	<line id="multiMetric_XMLID_159_" class="multiMetric_st9" x1="265.7" y1="22.3" x2="265.7" y2="27.5"/>
	<polygon id="multiMetric_XMLID_158_" class="multiMetric_st10" points="275.4,249 269.3,256.8 370.3,256.8 375.4,249 	"/>
</g>
</svg>
