<?xml version="1.0" encoding="utf-8"?>
<!-- Generator: Adobe Illustrator 19.0.0, SVG Export Plug-In . SVG Version: 6.00 Build 0)  -->
<svg version="1.1" id="navCont" xmlns="http://www.w3.org/2000/svg" xmlns:xlink="http://www.w3.org/1999/xlink" x="0px" y="0px"
	 viewBox="0 0 414 652" style="enable-background:new 0 0 414 652;" xml:space="preserve">
<style type="text/css">
	.navCont_st0{fill:none;stroke:#1561C0;stroke-width:3;stroke-miterlimit:10;}
	.navCont_st1{fill:none;stroke:#1561C0;stroke-miterlimit:10;}
	.navCont_st2{fill:#00BEFF;}
	.navCont_st3{opacity:0.2;fill:#1561C0;}
	.navCont_st4{fill:#F0A000;}
	.navCont_st5{opacity:0.4;}
	.navCont_st6{fill:none;stroke:#00BEFF;stroke-width:3;stroke-miterlimit:10;}
</style>
<g id="XMLID_1_">
	<g id="XMLID_24804_">
		<g id="XMLID_24847_">
			<polygon id="XMLID_24851_" class="navCont_st0" points="399.7,648.7 40.1,648.7 1.9,620.8 1.9,15 14.9,3.1 74.1,3.1 78.5,9.5 370.1,9 
				412.1,51.1 412.1,626.8 			"/>
			<polygon id="XMLID_24849_" class="navCont_st1" points="412.1,600.7 404.8,605.8 404.8,624.2 398.7,624.4 395,630.6 395.1,641.4 
				323.5,641.4 321.2,638.3 252.7,638.3 242.5,648.7 399.7,648.7 412.1,626.8 			"/>
			<polygon id="XMLID_24848_" class="navCont_st2" points="412.1,600.7 404.8,605.8 404.8,624.2 398.7,624.4 395,630.6 395.1,641.4 
				323.5,641.4 321.2,638.3 252.7,638.3 242.5,648.7 399.7,648.7 412.1,626.8 			"/>
		</g>
		<polygon id="XMLID_24846_" class="navCont_st1" points="412.1,63.5 363.2,63.5 329.1,63.2 305.6,84 108.6,84 85.8,63.5 1.9,63.5 1.9,15 
			14.9,3.1 74.1,3.1 78.5,9.5 370.1,9 412.1,51.1 		"/>
		<polygon id="XMLID_24845_" class="navCont_st3" points="412.1,63.5 363.2,63.5 329.1,63.2 305.5,84 108.5,84 85.8,63.5 1.9,63.5 1.9,15 
			14.9,3.1 74.1,3.1 78.5,9.5 370.1,9 412.1,51.1 		"/>
		<polygon id="XMLID_24843_" class="navCont_st1" points="128,9.5 128,17 123.1,20.2 114.1,20.2 93.4,20.2 59.6,20.2 51.8,20.2 51.8,31.5 
			42.1,42 27.9,41.9 19.7,31.1 19.7,20.2 19.7,20.2 14.2,20.2 1.9,20.2 1.9,15 14.9,3.1 74.1,3.1 78.5,9.5 		"/>
		<g id="XMLID_24822_">
			<path id="XMLID_24836_" class="navCont_st4" d="M137.3,47v-7l3.3-2.6h10.7l3.3,2.6v6.9l-2.2,1.6l2.2,1.8v7.3l-3.3,2.6h-10.6l-3.5-2.6
				v-7.3l2.2-1.8L137.3,47z M140.8,47.2h10.6v-7.3h-10.6V47.2z M151.4,49.7h-10.6v7.9h10.6V49.7z"/>
			<path id="XMLID_24834_" class="navCont_st4" d="M184.6,50.6h-11.8v8.2h-3.5v-8.2h-11.5v-2.7h11.5v-8.3h3.5v8.3h11.8V50.6z"/>
			<path id="XMLID_24832_" class="navCont_st4" d="M192,37.4l11.5,16.2V37.4h3.7v22.7h-3.3l-11.4-16.2v16.2H189V37.4H192z"/>
			<path id="XMLID_24826_" class="navCont_st4" d="M225.6,48.9v-2.2h2.9v2.2H241V51h-12.4v10.5h-2.9V51h-3l-6.7,10.5h-3.3l6.5-10.5h-6v-2.1
				H225.6z M234.8,36.1l2.9,2.3v6.3h3v2.5h-3.3l-2.6-2.4v-6.5h-15.4V43l-3.2,3.9h-3.3l3.5-4.3v-4l2.6-2.5H234.8z M241.6,61.5h-3.3
				l-5.8-9.2h3.3L241.6,61.5z"/>
			<path id="XMLID_24823_" class="navCont_st4" d="M268.6,51.3l4.9,8l-2,2.3H251l-2.1-2.3l6.2-11.3h-6.8v-2.4h25.8V48h-15.2l-6.4,11.2h17.1
				l-4.7-7.9H268.6z M249.2,38.2V36h23.6v2.2H249.2z"/>
		</g>
		<g id="XMLID_24811_">
			<path id="XMLID_24821_" class="navCont_st1" d="M42.3,19.5c0.1,0.2,0.3,0.4,0.4,0.6c0.9,1.4,1.5,3,1.5,4.8c0,4.7-3.8,8.5-8.5,8.5
				s-8.5-3.8-8.5-8.5c0-3.7,2.3-6.8,5.5-8c0.3-0.1,0.7-0.2,1-0.3"/>
			<path id="XMLID_24819_" class="navCont_st1" d="M25,33.7c-0.2-0.3-0.5-0.6-0.7-0.9c-1.5-2.2-2.3-4.8-2.3-7.6c0-7.5,6.1-13.6,13.6-13.6
				s13.6,6.1,13.6,13.6c0,5.9-3.7,10.8-8.9,12.8c-0.5,0.2-1,0.4-1.6,0.5"/>
			<g id="XMLID_24813_" class="navCont_st5">
				<line id="XMLID_24817_" class="navCont_st1" x1="23.5" y1="24.9" x2="47.9" y2="24.9"/>
				<line id="XMLID_24816_" class="navCont_st1" x1="27.1" y1="33.5" x2="44.3" y2="16.2"/>
				<line id="XMLID_24815_" class="navCont_st1" x1="35.7" y1="37" x2="35.7" y2="12.7"/>
				<line id="XMLID_24814_" class="navCont_st1" x1="44.3" y1="33.5" x2="27.1" y2="16.2"/>
			</g>
			<polyline id="XMLID_24812_" class="navCont_st1" points="40.1,22.1 35.7,28.3 31.7,22.3 			"/>
		</g>
		<polygon id="XMLID_24809_" class="navCont_st1" points="331.1,66.9 311.9,84 358.5,84 359.4,81.3 398.2,81.4 398.2,85.5 406.8,85.5 
			406.8,66.9 		"/>
		<polygon id="XMLID_24807_" class="navCont_st1" points="82.8,66.9 102,84 55.4,84 54.6,81.3 15.7,81.4 15.7,85.5 7.1,85.5 7.1,66.9 		"/>
		<polygon id="XMLID_24806_" class="navCont_st0" points="377.6,8.6 412.1,43 412.1,8.6 		"/>
	</g>
	<polygon id="XMLID_24802_" class="navCont_st1" points="220.6,632 44.8,632 16.3,610.5 16.3,565.3 16.3,96.7 220.6,96.7 	"/>
	<polygon id="XMLID_24801_" class="navCont_st0" points="1.9,628.3 1.9,648.9 30.7,648.9 	"/>
	<g id="XMLID_24794_">
		<polyline id="XMLID_24800_" class="navCont_st6" points="203.4,96.7 220.6,96.7 220.6,110.8 		"/>
		<g id="XMLID_24795_">
			<polyline id="XMLID_24799_" class="navCont_st6" points="33.5,96.7 16.3,96.7 16.3,110.8 			"/>
			<polyline id="XMLID_24798_" class="navCont_st6" points="203.4,632 220.6,632 220.6,617.9 			"/>
			<polyline id="XMLID_24797_" class="navCont_st6" points="24.4,616.6 16.3,610.5 16.3,598.2 			"/>
			<polyline id="XMLID_24796_" class="navCont_st6" points="52,632 44.8,632 39.1,627.7 			"/>
		</g>
	</g>
	<g id="XMLID_24790_">
		<polygon id="XMLID_24792_" class="navCont_st2" points="125.5,122.2 115.4,113 105.2,122.2 103,119.8 115.4,108.6 127.7,119.8 		"/>
	</g>
	<g id="XMLID_24787_">
		<polygon id="XMLID_24789_" class="navCont_st2" points="115.4,619.8 103,608.6 105.2,606.2 115.4,615.4 125.5,606.2 127.7,608.6 		"/>
	</g>
</g>
</svg>
