<?xml version="1.0" encoding="utf-8"?>
<!-- Generator: Adobe Illustrator 19.0.0, SVG Export Plug-In . SVG Version: 6.00 Build 0)  -->
<svg version="1.1" id="navTime" xmlns="http://www.w3.org/2000/svg" xmlns:xlink="http://www.w3.org/1999/xlink" x="0px" y="0px"
	 viewBox="0 0 414 75.5" style="enable-background:new 0 0 414 75.5;" xml:space="preserve">
<style type="text/css">
	.navTime_st0{opacity:0.5;}
	.navTime_st1{clip-path:url(#XMLID_2_);}
	.navTime_st2{fill:none;stroke:#04BCFE;stroke-width:0.25;stroke-miterlimit:10;}
	.navTime_st3{fill:#00BEFF;}
	.navTime_st4{fill:none;stroke:#1561C0;stroke-width:2;stroke-miterlimit:10;}
	.navTime_st5{fill:none;stroke:#00BEFF;stroke-width:3;stroke-miterlimit:10;}
</style>
<g id="XMLID_23320_">
	<g id="XMLID_23329_" class="navTime_st0">
		<defs>
			<polygon id="XMLID_23330_" class="navTime_st0" points="412,73.7 333.1,73.7 325.2,68.4 18.8,68.4 1.4,44.3 1.4,0.9 144.3,1 155.1,10.5 
				381.6,10.5 412,55.8 			"/>
		</defs>
		<clipPath id="XMLID_2_">
			<use xlink:href="#XMLID_23330_"  style="overflow:visible;"/>
		</clipPath>
		<g id="XMLID_23332_" class="navTime_st1">
			<line id="XMLID_23432_" class="navTime_st2" x1="266.8" y1="75.1" x2="151" y2="-1.6"/>
			<line id="XMLID_23431_" class="navTime_st2" x1="488.8" y1="75.1" x2="373" y2="-1.6"/>
			<line id="XMLID_23430_" class="navTime_st2" x1="482.3" y1="75.1" x2="366.5" y2="-1.6"/>
			<line id="XMLID_23428_" class="navTime_st2" x1="475.8" y1="75.1" x2="359.9" y2="-1.6"/>
			<line id="XMLID_23426_" class="navTime_st2" x1="469.2" y1="75.1" x2="353.4" y2="-1.6"/>
			<line id="XMLID_23424_" class="navTime_st2" x1="462.7" y1="75.1" x2="346.9" y2="-1.6"/>
			<line id="XMLID_23422_" class="navTime_st2" x1="456.2" y1="75.1" x2="340.4" y2="-1.6"/>
			<line id="XMLID_23421_" class="navTime_st2" x1="449.7" y1="75.1" x2="333.8" y2="-1.6"/>
			<line id="XMLID_23420_" class="navTime_st2" x1="443.1" y1="75.1" x2="327.3" y2="-1.6"/>
			<line id="XMLID_23419_" class="navTime_st2" x1="436.6" y1="75.1" x2="320.8" y2="-1.6"/>
			<line id="XMLID_23418_" class="navTime_st2" x1="430.1" y1="75.1" x2="314.2" y2="-1.6"/>
			<line id="XMLID_23417_" class="navTime_st2" x1="423.5" y1="75.1" x2="307.7" y2="-1.6"/>
			<line id="XMLID_23415_" class="navTime_st2" x1="417" y1="75.1" x2="301.2" y2="-1.6"/>
			<line id="XMLID_23413_" class="navTime_st2" x1="410.5" y1="75.1" x2="294.7" y2="-1.6"/>
			<line id="XMLID_23412_" class="navTime_st2" x1="404" y1="75.1" x2="288.1" y2="-1.6"/>
			<line id="XMLID_23411_" class="navTime_st2" x1="397.4" y1="75.1" x2="281.6" y2="-1.6"/>
			<line id="XMLID_23410_" class="navTime_st2" x1="390.9" y1="75.1" x2="275.1" y2="-1.6"/>
			<line id="XMLID_23409_" class="navTime_st2" x1="384.4" y1="75.1" x2="268.5" y2="-1.6"/>
			<line id="XMLID_23407_" class="navTime_st2" x1="377.8" y1="75.1" x2="262" y2="-1.6"/>
			<line id="XMLID_23405_" class="navTime_st2" x1="371.3" y1="75.1" x2="255.5" y2="-1.6"/>
			<line id="XMLID_23404_" class="navTime_st2" x1="364.8" y1="75.1" x2="249" y2="-1.6"/>
			<line id="XMLID_23403_" class="navTime_st2" x1="358.3" y1="75.1" x2="242.4" y2="-1.6"/>
			<line id="XMLID_23401_" class="navTime_st2" x1="351.7" y1="75.1" x2="235.9" y2="-1.6"/>
			<line id="XMLID_23399_" class="navTime_st2" x1="345.2" y1="75.1" x2="229.4" y2="-1.6"/>
			<line id="XMLID_23397_" class="navTime_st2" x1="338.7" y1="75.1" x2="222.8" y2="-1.6"/>
			<line id="XMLID_23395_" class="navTime_st2" x1="332.1" y1="75.1" x2="216.3" y2="-1.6"/>
			<line id="XMLID_23393_" class="navTime_st2" x1="325.6" y1="75.1" x2="209.8" y2="-1.6"/>
			<line id="XMLID_23391_" class="navTime_st2" x1="319.1" y1="75.1" x2="203.3" y2="-1.6"/>
			<line id="XMLID_23389_" class="navTime_st2" x1="312.6" y1="75.1" x2="196.7" y2="-1.6"/>
			<line id="XMLID_23387_" class="navTime_st2" x1="306" y1="75.1" x2="190.2" y2="-1.6"/>
			<line id="XMLID_23386_" class="navTime_st2" x1="299.5" y1="75.1" x2="183.7" y2="-1.6"/>
			<line id="XMLID_23385_" class="navTime_st2" x1="293" y1="75.1" x2="177.1" y2="-1.6"/>
			<line id="XMLID_23384_" class="navTime_st2" x1="286.4" y1="75.1" x2="170.6" y2="-1.6"/>
			<line id="XMLID_23383_" class="navTime_st2" x1="279.9" y1="75.1" x2="164.1" y2="-1.6"/>
			<line id="XMLID_23381_" class="navTime_st2" x1="273.4" y1="75.1" x2="157.6" y2="-1.6"/>
			<line id="XMLID_23379_" class="navTime_st2" x1="260.3" y1="75.1" x2="144.5" y2="-1.6"/>
			<line id="XMLID_23378_" class="navTime_st2" x1="253.8" y1="75.1" x2="138" y2="-1.6"/>
			<line id="XMLID_23377_" class="navTime_st2" x1="247.3" y1="75.1" x2="131.4" y2="-1.6"/>
			<line id="XMLID_23376_" class="navTime_st2" x1="240.7" y1="75.1" x2="124.9" y2="-1.6"/>
			<line id="XMLID_23375_" class="navTime_st2" x1="234.2" y1="75.1" x2="118.4" y2="-1.6"/>
			<line id="XMLID_23374_" class="navTime_st2" x1="227.7" y1="75.1" x2="111.8" y2="-1.6"/>
			<line id="XMLID_23372_" class="navTime_st2" x1="221.1" y1="75.1" x2="105.3" y2="-1.6"/>
			<line id="XMLID_23370_" class="navTime_st2" x1="214.6" y1="75.1" x2="98.8" y2="-1.6"/>
			<line id="XMLID_23369_" class="navTime_st2" x1="208.1" y1="75.1" x2="92.2" y2="-1.6"/>
			<line id="XMLID_23368_" class="navTime_st2" x1="201.5" y1="75.1" x2="85.7" y2="-1.6"/>
			<line id="XMLID_23367_" class="navTime_st2" x1="195" y1="75.1" x2="79.2" y2="-1.6"/>
			<line id="XMLID_23366_" class="navTime_st2" x1="188.5" y1="75.1" x2="72.7" y2="-1.6"/>
			<line id="XMLID_23365_" class="navTime_st2" x1="182" y1="75.1" x2="66.1" y2="-1.6"/>
			<line id="XMLID_23363_" class="navTime_st2" x1="175.4" y1="75.1" x2="59.6" y2="-1.6"/>
			<line id="XMLID_23361_" class="navTime_st2" x1="168.9" y1="75.1" x2="53.1" y2="-1.6"/>
			<line id="XMLID_23359_" class="navTime_st2" x1="162.4" y1="75.1" x2="46.5" y2="-1.6"/>
			<line id="XMLID_23357_" class="navTime_st2" x1="155.8" y1="75.1" x2="40" y2="-1.6"/>
			<line id="XMLID_23356_" class="navTime_st2" x1="149.3" y1="75.1" x2="33.5" y2="-1.6"/>
			<line id="XMLID_23355_" class="navTime_st2" x1="142.8" y1="75.1" x2="27" y2="-1.6"/>
			<line id="XMLID_23354_" class="navTime_st2" x1="136.3" y1="75.1" x2="20.4" y2="-1.6"/>
			<line id="XMLID_23353_" class="navTime_st2" x1="129.7" y1="75.1" x2="13.9" y2="-1.6"/>
			<line id="XMLID_23352_" class="navTime_st2" x1="123.2" y1="75.1" x2="7.4" y2="-1.6"/>
			<line id="XMLID_23351_" class="navTime_st2" x1="116.7" y1="75.1" x2="0.8" y2="-1.6"/>
			<line id="XMLID_23350_" class="navTime_st2" x1="110.1" y1="75.1" x2="-5.7" y2="-1.6"/>
			<line id="XMLID_23349_" class="navTime_st2" x1="103.6" y1="75.1" x2="-12.2" y2="-1.6"/>
			<line id="XMLID_23348_" class="navTime_st2" x1="97.1" y1="75.1" x2="-18.7" y2="-1.6"/>
			<line id="XMLID_23346_" class="navTime_st2" x1="90.6" y1="75.1" x2="-25.3" y2="-1.6"/>
			<line id="XMLID_23344_" class="navTime_st2" x1="84" y1="75.1" x2="-31.8" y2="-1.6"/>
			<line id="XMLID_23343_" class="navTime_st2" x1="77.5" y1="75.1" x2="-38.3" y2="-1.6"/>
			<line id="XMLID_23342_" class="navTime_st2" x1="71" y1="75.1" x2="-44.9" y2="-1.6"/>
			<line id="XMLID_23341_" class="navTime_st2" x1="64.4" y1="75.1" x2="-51.4" y2="-1.6"/>
			<line id="XMLID_23340_" class="navTime_st2" x1="57.9" y1="75.1" x2="-57.9" y2="-1.6"/>
			<line id="XMLID_23339_" class="navTime_st2" x1="51.4" y1="75.1" x2="-64.4" y2="-1.6"/>
			<line id="XMLID_23338_" class="navTime_st2" x1="44.9" y1="75.1" x2="-71" y2="-1.6"/>
			<line id="XMLID_23336_" class="navTime_st2" x1="38.3" y1="75.1" x2="-77.5" y2="-1.6"/>
			<line id="XMLID_23334_" class="navTime_st2" x1="31.8" y1="75.1" x2="-84" y2="-1.6"/>
		</g>
	</g>
	<polygon id="XMLID_23328_" class="navTime_st3" points="410.5,72.3 349,72 342,67.4 410.5,67.3 	"/>
	<g id="XMLID_23325_">
		<polygon id="XMLID_23327_" class="navTime_st4" points="412.6,74.6 333.8,74.6 325.9,69.3 19.4,69.2 2,45.1 2,1.8 145,1.9 155.8,11.3 
			382.2,11.3 412.6,56.6 		"/>
		<polygon id="XMLID_23326_" class="navTime_st4" points="2,52.5 2,69.5 14,69.5 		"/>
	</g>
	<polyline id="XMLID_23323_" class="navTime_st5" points="2,20.3 2,1.8 21.8,1.8 	"/>
	<polyline id="XMLID_23321_" class="navTime_st5" points="362.4,11.3 382.2,11.3 395.3,30.7 	"/>
</g>
</svg>
