<?xml version="1.0" encoding="utf-8"?>
<!-- Generator: Adobe Illustrator 19.0.0, SVG Export Plug-In . SVG Version: 6.00 Build 0)  -->
<svg version="1.1" id="图层_1" xmlns="http://www.w3.org/2000/svg" xmlns:xlink="http://www.w3.org/1999/xlink" x="0px" y="0px"
	 viewBox="0 0 870 240" style="enable-background:new 0 0 870 240;" xml:space="preserve">
<style type="text/css">
	.edu_bbt0{fill:#1561C0;fill-opacity:0.4;stroke:#1561C0;stroke-miterlimit:10;}
	.edu_bbt1{fill:none;stroke:#1561C0;stroke-miterlimit:10;}
	.edu_bbt2{fill:#00BEFF;}
	.edu_bbt3{fill:none;stroke:#1561C0;stroke-width:5;stroke-miterlimit:10;}
	.edu_bbt4{fill:#1561C0;}
	.edu_bbt5{fill:none;stroke:#00BEFF;stroke-width:2;stroke-miterlimit:10;}
</style>
<g id="XMLID_48_">
	<polygon id="XMLID_2037_" class="edu_bbt0" points="10.3,20.1 14.1,15 23.5,15 25.7,11.8 52.3,11.8 55.7,8.4 251.2,8 257.1,11.5 
		283.3,11.3 297.8,27.1 298.3,40.7 10.8,40.7 	"/>
	<polygon id="XMLID_1955_" class="edu_bbt1" points="857.4,228.8 11.4,229.1 1.1,219.9 1.1,11 7.1,4.8 287.3,4.8 316.6,38.1 861.7,38.1 
		868.9,44.7 868.9,218.6 	"/>
	<polygon id="XMLID_1954_" class="edu_bbt2" points="0.6,191.7 7.2,198 7.2,219.2 15.4,227 22.5,227 25.2,229.5 11.2,229.5 0.6,220.2 	
		"/>
	<polygon id="XMLID_1953_" class="edu_bbt2" points="89.9,236.2 32.2,236.2 24.1,228.5 96.7,228.5 	"/>
	<g id="XMLID_1950_">
		<polygon id="XMLID_1952_" class="edu_bbt2" points="869.4,189.9 863.8,195.9 863.8,217.1 855.6,225 847.2,225 842.8,229.3 857.5,229.3 
			869.4,218.9 		"/>
		<polygon id="XMLID_1951_" class="edu_bbt2" points="778.1,236 835.9,236 843.8,228.3 771.4,228.3 		"/>
	</g>
	<polygon id="XMLID_2029_" class="edu_bbt2" points="0.6,43.2 7.2,37.1 7.1,17.1 12.2,11.5 21.5,11.5 23.4,8.9 51.3,8.9 55.7,4.4 
		7.1,4.4 0.6,11 	"/>
	<polygon id="XMLID_2028_" class="edu_bbt2" points="869.4,77 862.1,70.9 862.2,50.8 857.1,45.3 847.8,45.3 845.9,42.6 818.1,42.6 
		813.6,37.6 861.9,37.6 869.4,44.5 	"/>
	<polyline id="XMLID_2027_" class="edu_bbt3" points="256.9,4.8 287.3,4.8 316.5,37.8 361.1,37.8 	"/>
	<g id="XMLID_2017_">
		<g id="XMLID_2024_">
			<circle id="XMLID_2026_" class="edu_bbt1" cx="689.4" cy="9.7" r="3"/>
			<polyline id="XMLID_2025_" class="edu_bbt1" points="812.4,38.1 788.9,9.7 692.4,9.7 			"/>
		</g>
		<g id="XMLID_2021_">
			<circle id="XMLID_2023_" class="edu_bbt1" cx="718.7" cy="18.8" r="2.1"/>
			<polyline id="XMLID_2022_" class="edu_bbt1" points="802.3,38.1 786.3,18.8 720.7,18.8 			"/>
		</g>
		<g id="XMLID_2018_">
			<polyline id="XMLID_2020_" class="edu_bbt1" points="790,37.6 781.3,27.1 745.6,27.1 			"/>
			<circle id="XMLID_2019_" class="edu_bbt1" cx="744.5" cy="27.1" r="1.1"/>
		</g>
	</g>
	<g id="XMLID_1946_">
		<circle id="XMLID_1949_" class="edu_bbt1" cx="239.5" cy="236.9" r="3"/>
		<polyline id="XMLID_1948_" class="edu_bbt1" points="132.4,228.9 140,236.9 236.5,236.9 		"/>
	</g>
	<g id="XMLID_1943_">
		<circle id="XMLID_1945_" class="edu_bbt1" cx="650.7" cy="237.7" r="2.1"/>
		<polyline id="XMLID_1944_" class="edu_bbt1" points="728.5,228 718.3,237.7 652.7,237.7 		"/>
	</g>
	<g id="XMLID_1940_">
		<polyline id="XMLID_1942_" class="edu_bbt1" points="716.2,228.1 712.3,231.4 676.6,231.4 		"/>
		<circle id="XMLID_1941_" class="edu_bbt1" cx="675.5" cy="231.4" r="1.1"/>
	</g>
	<g id="XMLID_52_">
		<g id="XMLID_61_">
			<polygon id="XMLID_68_" class="edu_bbt4" points="325.3,30.5 321.1,30.5 308.5,15.9 312.7,15.9 			"/>
			<polygon id="XMLID_67_" class="edu_bbt4" points="333.2,30.5 329,30.5 316.3,15.9 320.5,15.9 			"/>
			<polygon id="XMLID_66_" class="edu_bbt4" points="341,30.5 336.9,30.5 324.2,15.9 328.4,15.9 			"/>
			<polygon id="XMLID_65_" class="edu_bbt4" points="348.9,30.5 344.7,30.5 332.1,15.9 336.2,15.9 			"/>
			<polygon id="XMLID_64_" class="edu_bbt4" points="356.8,30.5 352.6,30.5 339.9,15.9 344.1,15.9 			"/>
			<polygon id="XMLID_63_" class="edu_bbt4" points="364.6,30.5 360.4,30.5 347.8,15.9 352,15.9 			"/>
			<polygon id="XMLID_62_" class="edu_bbt4" points="372.5,30.5 368.3,30.5 355.6,15.9 359.8,15.9 			"/>
		</g>
		<g id="XMLID_53_">
			<polygon id="XMLID_60_" class="edu_bbt4" points="380.9,30.5 376.7,30.5 364,15.9 368.2,15.9 			"/>
			<polygon id="XMLID_59_" class="edu_bbt4" points="388.7,30.5 384.6,30.5 371.9,15.9 376.1,15.9 			"/>
			<polygon id="XMLID_58_" class="edu_bbt4" points="396.6,30.5 392.4,30.5 379.8,15.9 383.9,15.9 			"/>
			<polygon id="XMLID_57_" class="edu_bbt4" points="404.5,30.5 400.3,30.5 387.6,15.9 391.8,15.9 			"/>
			<polygon id="XMLID_56_" class="edu_bbt4" points="412.3,30.5 408.1,30.5 395.5,15.9 399.7,15.9 			"/>
			<polygon id="XMLID_55_" class="edu_bbt4" points="420.2,30.5 416,30.5 403.3,15.9 407.5,15.9 			"/>
			<polygon id="XMLID_54_" class="edu_bbt4" points="428,30.5 423.8,30.5 411.2,15.9 415.4,15.9 			"/>
		</g>
	</g>
	<g id="XMLID_44_">
		<line id="XMLID_47_" class="edu_bbt1" x1="430.5" y1="57.5" x2="430.5" y2="207.7"/>
		<line id="XMLID_46_" class="edu_bbt5" x1="430.5" y1="57.5" x2="430.5" y2="67.4"/>
		<line id="XMLID_45_" class="edu_bbt5" x1="430.5" y1="197.8" x2="430.5" y2="207.7"/>
	</g>
</g>
</svg>
