<?xml version="1.0" encoding="utf-8"?>
<!-- Generator: Adobe Illustrator 19.0.0, SVG Export Plug-In . SVG Version: 6.00 Build 0)  -->
<svg version="1.1" id="图层_1" xmlns="http://www.w3.org/2000/svg" xmlns:xlink="http://www.w3.org/1999/xlink" x="0px" y="0px"
	 viewBox="0 0 964.3 474.3" style="enable-background:new 0 0 964.3 474.3;" xml:space="preserve">
<style type="text/css">
	.edu_border0{fill:#1C5DAB;}
	.edu_border1{opacity:0.6;fill:#1C5DAB;fill-opacity:0.6;stroke:#1C5DAB;stroke-miterlimit:10;}
	.edu_border2{fill:#2EB2E8;}
	.edu_border3{clip-path:url(#XMLID_60_);}
	.edu_border4{clip-path:url(#XMLID_61_);}
</style>
<g id="XMLID_262_">
	<g id="XMLID_232_">
		<g id="XMLID_1066_">
			<polygon id="XMLID_1067_" class="edu_border0" points="437.6,58.4 415.7,58.4 385.1,12 362.7,12 362.7,8 386.9,8 417.5,54.4 437.6,54.4 
							"/>
		</g>
		<g id="XMLID_233_">
			<g id="XMLID_1061_">
				<polygon id="XMLID_1065_" class="edu_border0" points="76.1,455.3 71.2,458.8 84,458.8 88.9,455.3 				"/>
				<polygon id="XMLID_1064_" class="edu_border0" points="55.2,455.3 50.3,458.8 63.1,458.8 68.1,455.3 				"/>
				<polygon id="XMLID_1063_" class="edu_border0" points="117.9,455.3 113,458.8 125.8,458.8 130.7,455.3 				"/>
				<polygon id="XMLID_1062_" class="edu_border0" points="97,455.3 92.1,458.8 104.9,458.8 109.8,455.3 				"/>
			</g>
			<polygon id="XMLID_1057_" class="edu_border1" points="18.6,22.4 29.4,14.2 49.8,14.2 52.6,12.7 359.8,12.7 362.7,14.2 383.3,14.2 
				412.5,58.2 18.6,58.2 			"/>
			<polygon id="XMLID_1056_" class="edu_border0" points="948.2,61.1 948,442.3 928.7,458.8 14.5,458.8 14.5,20.3 26.7,10.9 385.3,10.9 
				416,57.3 789.3,57.7 809.2,34.7 931.7,35 934,32.9 808.2,33 787.7,55 416.3,55 385.6,10 26,10 9.5,21.9 9.5,461.3 9.5,463.1 
				47.5,463.1 47.2,463.3 60,463.3 60.3,463.1 68.3,463.1 68.1,463.3 80.9,463.3 81.2,463.1 89.2,463.1 88.9,463.3 101.8,463.3 
				102,463.1 110.1,463.1 109.8,463.3 122.6,463.3 122.9,463.1 929.2,463.3 953.2,442.8 953.3,56 			"/>
			<g id="XMLID_1054_">
				<polygon id="XMLID_1055_" class="edu_border2" points="956.7,73.8 954.7,76.3 954.7,54.1 935.7,31 909.8,30.9 912.2,29 936.7,29 
					956.7,53.4 				"/>
			</g>
			<g id="XMLID_1031_">
				
					<rect id="XMLID_1053_" x="942.7" y="44.9" transform="matrix(0.624 0.7814 -0.7814 0.624 390.6582 -719.4866)" class="edu_border0" width="0.6" height="2.6"/>
				
					<rect id="XMLID_1052_" x="933.4" y="33.4" transform="matrix(0.624 0.7814 -0.7814 0.624 378.1776 -716.5656)" class="edu_border0" width="0.6" height="2.6"/>
				
					<rect id="XMLID_1051_" x="934.2" y="34.4" transform="matrix(0.624 0.7814 -0.7814 0.624 379.2176 -716.809)" class="edu_border0" width="0.6" height="2.6"/>
				
					<rect id="XMLID_1050_" x="934.9" y="35.3" transform="matrix(0.624 0.7814 -0.7814 0.624 380.2577 -717.0524)" class="edu_border0" width="0.6" height="2.6"/>
				
					<rect id="XMLID_1049_" x="935.7" y="36.3" transform="matrix(0.624 0.7814 -0.7814 0.624 381.2977 -717.2958)" class="edu_border0" width="0.6" height="2.6"/>
				
					<rect id="XMLID_1048_" x="936.5" y="37.2" transform="matrix(0.624 0.7814 -0.7814 0.624 382.3378 -717.5392)" class="edu_border0" width="0.6" height="2.6"/>
				
					<rect id="XMLID_1047_" x="937.2" y="38.2" transform="matrix(0.624 0.7814 -0.7814 0.624 383.3778 -717.7827)" class="edu_border0" width="0.6" height="2.6"/>
				
					<rect id="XMLID_1046_" x="938" y="39.2" transform="matrix(0.624 0.7814 -0.7814 0.624 384.4179 -718.0261)" class="edu_border0" width="0.6" height="2.6"/>
				
					<rect id="XMLID_1045_" x="938.8" y="40.1" transform="matrix(0.624 0.7814 -0.7814 0.624 385.4579 -718.2695)" class="edu_border0" width="0.6" height="2.6"/>
				
					<rect id="XMLID_1044_" x="939.6" y="41.1" transform="matrix(0.624 0.7814 -0.7814 0.624 386.498 -718.5129)" class="edu_border0" width="0.6" height="2.6"/>
				
					<rect id="XMLID_1043_" x="940.3" y="42" transform="matrix(0.624 0.7814 -0.7814 0.624 387.538 -718.7563)" class="edu_border0" width="0.6" height="2.6"/>
				
					<rect id="XMLID_1042_" x="941.1" y="43" transform="matrix(0.624 0.7814 -0.7814 0.624 388.5781 -718.9998)" class="edu_border0" width="0.6" height="2.6"/>
				
					<rect id="XMLID_1041_" x="941.9" y="43.9" transform="matrix(0.624 0.7814 -0.7814 0.624 389.6181 -719.2432)" class="edu_border0" width="0.6" height="2.6"/>
				
					<rect id="XMLID_1040_" x="943.4" y="45.9" transform="matrix(0.624 0.7814 -0.7814 0.624 391.6982 -719.73)" class="edu_border0" width="0.6" height="2.6"/>
				
					<rect id="XMLID_1039_" x="944.2" y="46.8" transform="matrix(0.624 0.7814 -0.7814 0.624 392.7383 -719.9734)" class="edu_border0" width="0.6" height="2.6"/>
				
					<rect id="XMLID_1038_" x="945" y="47.8" transform="matrix(0.624 0.7814 -0.7814 0.624 393.7784 -720.2169)" class="edu_border0" width="0.6" height="2.6"/>
				
					<rect id="XMLID_1037_" x="945.6" y="48.7" transform="matrix(0.619 0.7854 -0.7854 0.619 399.7006 -723.9188)" class="edu_border0" width="0.6" height="2.6"/>
				
					<rect id="XMLID_1036_" x="946.4" y="49.7" transform="matrix(0.619 0.7854 -0.7854 0.619 400.7499 -724.1537)" class="edu_border0" width="0.6" height="2.6"/>
				
					<rect id="XMLID_1035_" x="947.2" y="50.6" transform="matrix(0.619 0.7854 -0.7854 0.619 401.7993 -724.3887)" class="edu_border0" width="0.6" height="2.6"/>
				
					<rect id="XMLID_1034_" x="947.9" y="51.6" transform="matrix(0.619 0.7854 -0.7854 0.619 402.8486 -724.6236)" class="edu_border0" width="0.6" height="2.6"/>
				
					<rect id="XMLID_1033_" x="948.7" y="52.5" transform="matrix(0.619 0.7854 -0.7854 0.619 403.8979 -724.8585)" class="edu_border0" width="0.6" height="2.6"/>
				
					<rect id="XMLID_1032_" x="949.5" y="53.5" transform="matrix(0.619 0.7854 -0.7854 0.619 404.9473 -725.0934)" class="edu_border0" width="0.6" height="2.6"/>
			</g>
			<g id="XMLID_1029_">
				<polygon id="XMLID_1030_" class="edu_border2" points="898.9,458.1 898.9,463.7 929.3,463.7 953.3,443.5 953.3,421.4 947.7,421.4 
					947.7,442.4 928.8,458.1 				"/>
			</g>
			<g id="XMLID_272_">
				<defs>
					<polygon id="XMLID_291_" points="949.5,60.7 790,60.7 811,36.3 953.3,36.3 					"/>
				</defs>
				<clipPath id="XMLID_60_">
					<use xlink:href="#XMLID_291_"  style="overflow:visible;"/>
				</clipPath>
				<g id="XMLID_311_" class="edu_border3">
					<polygon id="XMLID_1028_" class="edu_border0" points="828.5,57.4 826,57.4 811.1,38 813.6,38 					"/>
					<polygon id="XMLID_1027_" class="edu_border0" points="832.9,57.4 830.4,57.4 815.5,38 818,38 					"/>
					<polygon id="XMLID_1026_" class="edu_border0" points="837.2,57.4 834.8,57.4 819.9,38 822.3,38 					"/>
					<polygon id="XMLID_1025_" class="edu_border0" points="841.6,57.4 839.2,57.4 824.3,38 826.7,38 					"/>
					<polygon id="XMLID_1024_" class="edu_border0" points="846,57.4 843.5,57.4 828.6,38 831.1,38 					"/>
					<polygon id="XMLID_1023_" class="edu_border0" points="850.4,57.4 847.9,57.4 833,38 835.5,38 					"/>
					<polygon id="XMLID_1022_" class="edu_border0" points="854.8,57.4 852.3,57.4 837.4,38 839.9,38 					"/>
					<polygon id="XMLID_1021_" class="edu_border0" points="859.1,57.4 856.7,57.4 841.8,38 844.2,38 					"/>
					<polygon id="XMLID_1020_" class="edu_border0" points="793.4,57.4 791,57.4 776.1,38 778.5,38 					"/>
					<polygon id="XMLID_1019_" class="edu_border0" points="797.8,57.4 795.3,57.4 780.4,38 782.9,38 					"/>
					<polygon id="XMLID_1018_" class="edu_border0" points="802.2,57.4 799.7,57.4 784.8,38 787.3,38 					"/>
					<polygon id="XMLID_795_" class="edu_border0" points="806.6,57.4 804.1,57.4 789.2,38 791.7,38 					"/>
					<polygon id="XMLID_794_" class="edu_border0" points="811,57.4 808.5,57.4 793.6,38 796,38 					"/>
					<polygon id="XMLID_793_" class="edu_border0" points="815.3,57.4 812.9,57.4 798,38 800.4,38 					"/>
					<polygon id="XMLID_792_" class="edu_border0" points="819.7,57.4 817.3,57.4 802.3,38 804.8,38 					"/>
					<polygon id="XMLID_791_" class="edu_border0" points="824.1,57.4 821.6,57.4 806.7,38 809.2,38 					"/>
					<polygon id="XMLID_790_" class="edu_border0" points="863.5,57.4 861.1,57.4 846.2,38 848.6,38 					"/>
					<polygon id="XMLID_789_" class="edu_border0" points="867.9,57.4 865.4,57.4 850.5,38 853,38 					"/>
					<polygon id="XMLID_788_" class="edu_border0" points="876.7,57.4 874.2,57.4 859.3,38 861.8,38 					"/>
					<polygon id="XMLID_787_" class="edu_border0" points="872.3,57.4 869.8,57.4 854.9,38 857.4,38 					"/>
					<polygon id="XMLID_786_" class="edu_border0" points="885.4,57.4 883,57.4 868.1,38 870.5,38 					"/>
					<polygon id="XMLID_785_" class="edu_border0" points="894.2,57.4 891.7,57.4 876.8,38 879.3,38 					"/>
					<polygon id="XMLID_784_" class="edu_border0" points="911.7,57.4 909.2,57.4 894.3,38 896.8,38 					"/>
					<polygon id="XMLID_783_" class="edu_border0" points="929.2,57.4 926.8,57.4 911.9,38 914.3,38 					"/>
					<polygon id="XMLID_772_" class="edu_border0" points="902.9,57.4 900.5,57.4 885.6,38 888,38 					"/>
					<polygon id="XMLID_770_" class="edu_border0" points="920.5,57.4 918,57.4 903.1,38 905.6,38 					"/>
					<polygon id="XMLID_762_" class="edu_border0" points="938,57.4 935.5,57.4 920.6,38 923.1,38 					"/>
					<polygon id="XMLID_761_" class="edu_border0" points="946.7,57.4 944.3,57.4 929.4,38 931.8,38 					"/>
					<polygon id="XMLID_760_" class="edu_border0" points="881,57.4 878.6,57.4 863.7,38 866.1,38 					"/>
					<polygon id="XMLID_747_" class="edu_border0" points="889.8,57.4 887.3,57.4 872.4,38 874.9,38 					"/>
					<polygon id="XMLID_745_" class="edu_border0" points="898.6,57.4 896.1,57.4 881.2,38 883.7,38 					"/>
					<polygon id="XMLID_744_" class="edu_border0" points="916.1,57.4 913.6,57.4 898.7,38 901.2,38 					"/>
					<polygon id="XMLID_743_" class="edu_border0" points="907.3,57.4 904.9,57.4 890,38 892.4,38 					"/>
					<polygon id="XMLID_742_" class="edu_border0" points="924.8,57.4 922.4,57.4 907.5,38 909.9,38 					"/>
					<polygon id="XMLID_313_" class="edu_border0" points="933.6,57.4 931.1,57.4 916.2,38 918.7,38 					"/>
					<polygon id="XMLID_312_" class="edu_border0" points="942.4,57.4 939.9,57.4 925,38 927.5,38 					"/>
				</g>
			</g>
		</g>
		<g id="XMLID_234_">
			<polygon id="XMLID_235_" class="edu_border2" points="15.3,63.2 8.9,63.2 8.9,21.5 25.8,8.8 49.8,8.8 49.8,11.8 26.8,11.8 15.3,20.4 			
				"/>
		</g>
	</g>
	<g id="XMLID_1058_">
		<g id="XMLID_1151_">
			<polygon id="XMLID_1152_" class="edu_border0" points="437.6,58.4 415.7,58.4 385.1,12 362.7,12 362.7,8 386.9,8 417.5,54.4 437.6,54.4 
							"/>
		</g>
		<g id="XMLID_1071_">
			<g id="XMLID_1146_">
				<polygon id="XMLID_1150_" class="edu_border0" points="76.1,455.3 71.2,458.8 84,458.8 88.9,455.3 				"/>
				<polygon id="XMLID_1149_" class="edu_border0" points="55.2,455.3 50.3,458.8 63.1,458.8 68.1,455.3 				"/>
				<polygon id="XMLID_1148_" class="edu_border0" points="117.9,455.3 113,458.8 125.8,458.8 130.7,455.3 				"/>
				<polygon id="XMLID_1147_" class="edu_border0" points="97,455.3 92.1,458.8 104.9,458.8 109.8,455.3 				"/>
			</g>
			<polygon id="XMLID_1142_" class="edu_border1" points="18.6,22.4 29.4,14.2 49.8,14.2 52.6,12.7 359.8,12.7 362.7,14.2 383.3,14.2 
				412.5,58.2 18.6,58.2 			"/>
			<polygon id="XMLID_1141_" class="edu_border0" points="948.2,61.1 948,442.3 928.7,458.8 14.5,458.8 14.5,20.3 26.7,10.9 385.3,10.9 
				416,57.3 789.3,57.7 809.2,34.7 931.7,35 934,32.9 808.2,33 787.7,55 416.3,55 385.6,10 26,10 9.5,21.9 9.5,461.3 9.5,463.1 
				47.5,463.1 47.2,463.3 60,463.3 60.3,463.1 68.3,463.1 68.1,463.3 80.9,463.3 81.2,463.1 89.2,463.1 88.9,463.3 101.8,463.3 
				102,463.1 110.1,463.1 109.8,463.3 122.6,463.3 122.9,463.1 929.2,463.3 953.2,442.8 953.3,56 			"/>
			<g id="XMLID_1139_">
				<polygon id="XMLID_1140_" class="edu_border2" points="956.7,73.8 954.7,76.3 954.7,54.1 935.7,31 909.8,30.9 912.2,29 936.7,29 
					956.7,53.4 				"/>
			</g>
			<g id="XMLID_1116_">
				
					<rect id="XMLID_1138_" x="942.7" y="44.9" transform="matrix(0.624 0.7814 -0.7814 0.624 390.6582 -719.4866)" class="edu_border0" width="0.6" height="2.6"/>
				
					<rect id="XMLID_1137_" x="933.4" y="33.4" transform="matrix(0.624 0.7814 -0.7814 0.624 378.1776 -716.5656)" class="edu_border0" width="0.6" height="2.6"/>
				
					<rect id="XMLID_1136_" x="934.2" y="34.4" transform="matrix(0.624 0.7814 -0.7814 0.624 379.2176 -716.809)" class="edu_border0" width="0.6" height="2.6"/>
				
					<rect id="XMLID_1135_" x="934.9" y="35.3" transform="matrix(0.624 0.7814 -0.7814 0.624 380.2577 -717.0524)" class="edu_border0" width="0.6" height="2.6"/>
				
					<rect id="XMLID_1134_" x="935.7" y="36.3" transform="matrix(0.624 0.7814 -0.7814 0.624 381.2977 -717.2958)" class="edu_border0" width="0.6" height="2.6"/>
				
					<rect id="XMLID_1133_" x="936.5" y="37.2" transform="matrix(0.624 0.7814 -0.7814 0.624 382.3378 -717.5392)" class="edu_border0" width="0.6" height="2.6"/>
				
					<rect id="XMLID_1132_" x="937.2" y="38.2" transform="matrix(0.624 0.7814 -0.7814 0.624 383.3778 -717.7827)" class="edu_border0" width="0.6" height="2.6"/>
				
					<rect id="XMLID_1131_" x="938" y="39.2" transform="matrix(0.624 0.7814 -0.7814 0.624 384.4179 -718.0261)" class="edu_border0" width="0.6" height="2.6"/>
				
					<rect id="XMLID_1130_" x="938.8" y="40.1" transform="matrix(0.624 0.7814 -0.7814 0.624 385.4579 -718.2695)" class="edu_border0" width="0.6" height="2.6"/>
				
					<rect id="XMLID_1129_" x="939.6" y="41.1" transform="matrix(0.624 0.7814 -0.7814 0.624 386.498 -718.5129)" class="edu_border0" width="0.6" height="2.6"/>
				
					<rect id="XMLID_1128_" x="940.3" y="42" transform="matrix(0.624 0.7814 -0.7814 0.624 387.538 -718.7563)" class="edu_border0" width="0.6" height="2.6"/>
				
					<rect id="XMLID_1127_" x="941.1" y="43" transform="matrix(0.624 0.7814 -0.7814 0.624 388.5781 -718.9998)" class="edu_border0" width="0.6" height="2.6"/>
				
					<rect id="XMLID_1126_" x="941.9" y="43.9" transform="matrix(0.624 0.7814 -0.7814 0.624 389.6181 -719.2432)" class="edu_border0" width="0.6" height="2.6"/>
				
					<rect id="XMLID_1125_" x="943.4" y="45.9" transform="matrix(0.624 0.7814 -0.7814 0.624 391.6982 -719.73)" class="edu_border0" width="0.6" height="2.6"/>
				
					<rect id="XMLID_1124_" x="944.2" y="46.8" transform="matrix(0.624 0.7814 -0.7814 0.624 392.7383 -719.9734)" class="edu_border0" width="0.6" height="2.6"/>
				
					<rect id="XMLID_1123_" x="945" y="47.8" transform="matrix(0.624 0.7814 -0.7814 0.624 393.7784 -720.2169)" class="edu_border0" width="0.6" height="2.6"/>
				
					<rect id="XMLID_1122_" x="945.6" y="48.7" transform="matrix(0.619 0.7854 -0.7854 0.619 399.7006 -723.9188)" class="edu_border0" width="0.6" height="2.6"/>
				
					<rect id="XMLID_1121_" x="946.4" y="49.7" transform="matrix(0.619 0.7854 -0.7854 0.619 400.7499 -724.1537)" class="edu_border0" width="0.6" height="2.6"/>
				
					<rect id="XMLID_1120_" x="947.2" y="50.6" transform="matrix(0.619 0.7854 -0.7854 0.619 401.7993 -724.3887)" class="edu_border0" width="0.6" height="2.6"/>
				
					<rect id="XMLID_1119_" x="947.9" y="51.6" transform="matrix(0.619 0.7854 -0.7854 0.619 402.8486 -724.6236)" class="edu_border0" width="0.6" height="2.6"/>
				
					<rect id="XMLID_1118_" x="948.7" y="52.5" transform="matrix(0.619 0.7854 -0.7854 0.619 403.8979 -724.8585)" class="edu_border0" width="0.6" height="2.6"/>
				
					<rect id="XMLID_1117_" x="949.5" y="53.5" transform="matrix(0.619 0.7854 -0.7854 0.619 404.9473 -725.0934)" class="edu_border0" width="0.6" height="2.6"/>
			</g>
			<g id="XMLID_1114_">
				<polygon id="XMLID_1115_" class="edu_border2" points="898.9,458.1 898.9,463.7 929.3,463.7 953.3,443.5 953.3,421.4 947.7,421.4 
					947.7,442.4 928.8,458.1 				"/>
			</g>
			<g id="XMLID_1072_">
				<defs>
					<polygon id="XMLID_1073_" points="949.5,60.7 790,60.7 811,36.3 953.3,36.3 					"/>
				</defs>
				<clipPath id="XMLID_61_">
					<use xlink:href="#XMLID_1073_"  style="overflow:visible;"/>
				</clipPath>
				<g id="XMLID_1074_" class="edu_border4">
					<polygon id="XMLID_1113_" class="edu_border0" points="828.5,57.4 826,57.4 811.1,38 813.6,38 					"/>
					<polygon id="XMLID_1112_" class="edu_border0" points="832.9,57.4 830.4,57.4 815.5,38 818,38 					"/>
					<polygon id="XMLID_1111_" class="edu_border0" points="837.2,57.4 834.8,57.4 819.9,38 822.3,38 					"/>
					<polygon id="XMLID_1110_" class="edu_border0" points="841.6,57.4 839.2,57.4 824.3,38 826.7,38 					"/>
					<polygon id="XMLID_1109_" class="edu_border0" points="846,57.4 843.5,57.4 828.6,38 831.1,38 					"/>
					<polygon id="XMLID_1108_" class="edu_border0" points="850.4,57.4 847.9,57.4 833,38 835.5,38 					"/>
					<polygon id="XMLID_1107_" class="edu_border0" points="854.8,57.4 852.3,57.4 837.4,38 839.9,38 					"/>
					<polygon id="XMLID_1106_" class="edu_border0" points="859.1,57.4 856.7,57.4 841.8,38 844.2,38 					"/>
					<polygon id="XMLID_1105_" class="edu_border0" points="793.4,57.4 791,57.4 776.1,38 778.5,38 					"/>
					<polygon id="XMLID_1104_" class="edu_border0" points="797.8,57.4 795.3,57.4 780.4,38 782.9,38 					"/>
					<polygon id="XMLID_1103_" class="edu_border0" points="802.2,57.4 799.7,57.4 784.8,38 787.3,38 					"/>
					<polygon id="XMLID_1102_" class="edu_border0" points="806.6,57.4 804.1,57.4 789.2,38 791.7,38 					"/>
					<polygon id="XMLID_1101_" class="edu_border0" points="811,57.4 808.5,57.4 793.6,38 796,38 					"/>
					<polygon id="XMLID_1100_" class="edu_border0" points="815.3,57.4 812.9,57.4 798,38 800.4,38 					"/>
					<polygon id="XMLID_1099_" class="edu_border0" points="819.7,57.4 817.3,57.4 802.3,38 804.8,38 					"/>
					<polygon id="XMLID_1098_" class="edu_border0" points="824.1,57.4 821.6,57.4 806.7,38 809.2,38 					"/>
					<polygon id="XMLID_1097_" class="edu_border0" points="863.5,57.4 861.1,57.4 846.2,38 848.6,38 					"/>
					<polygon id="XMLID_1096_" class="edu_border0" points="867.9,57.4 865.4,57.4 850.5,38 853,38 					"/>
					<polygon id="XMLID_1095_" class="edu_border0" points="876.7,57.4 874.2,57.4 859.3,38 861.8,38 					"/>
					<polygon id="XMLID_1094_" class="edu_border0" points="872.3,57.4 869.8,57.4 854.9,38 857.4,38 					"/>
					<polygon id="XMLID_1093_" class="edu_border0" points="885.4,57.4 883,57.4 868.1,38 870.5,38 					"/>
					<polygon id="XMLID_1092_" class="edu_border0" points="894.2,57.4 891.7,57.4 876.8,38 879.3,38 					"/>
					<polygon id="XMLID_1091_" class="edu_border0" points="911.7,57.4 909.2,57.4 894.3,38 896.8,38 					"/>
					<polygon id="XMLID_1090_" class="edu_border0" points="929.2,57.4 926.8,57.4 911.9,38 914.3,38 					"/>
					<polygon id="XMLID_1089_" class="edu_border0" points="902.9,57.4 900.5,57.4 885.6,38 888,38 					"/>
					<polygon id="XMLID_1088_" class="edu_border0" points="920.5,57.4 918,57.4 903.1,38 905.6,38 					"/>
					<polygon id="XMLID_1087_" class="edu_border0" points="938,57.4 935.5,57.4 920.6,38 923.1,38 					"/>
					<polygon id="XMLID_1086_" class="edu_border0" points="946.7,57.4 944.3,57.4 929.4,38 931.8,38 					"/>
					<polygon id="XMLID_1085_" class="edu_border0" points="881,57.4 878.6,57.4 863.7,38 866.1,38 					"/>
					<polygon id="XMLID_1084_" class="edu_border0" points="889.8,57.4 887.3,57.4 872.4,38 874.9,38 					"/>
					<polygon id="XMLID_1083_" class="edu_border0" points="898.6,57.4 896.1,57.4 881.2,38 883.7,38 					"/>
					<polygon id="XMLID_1082_" class="edu_border0" points="916.1,57.4 913.6,57.4 898.7,38 901.2,38 					"/>
					<polygon id="XMLID_1081_" class="edu_border0" points="907.3,57.4 904.9,57.4 890,38 892.4,38 					"/>
					<polygon id="XMLID_1080_" class="edu_border0" points="924.8,57.4 922.4,57.4 907.5,38 909.9,38 					"/>
					<polygon id="XMLID_1079_" class="edu_border0" points="933.6,57.4 931.1,57.4 916.2,38 918.7,38 					"/>
					<polygon id="XMLID_1078_" class="edu_border0" points="942.4,57.4 939.9,57.4 925,38 927.5,38 					"/>
				</g>
			</g>
		</g>
		<g id="XMLID_1059_">
			<polygon id="XMLID_1060_" class="edu_border2" points="15.3,63.2 8.9,63.2 8.9,21.5 25.8,8.8 49.8,8.8 49.8,11.8 26.8,11.8 15.3,20.4 			
				"/>
		</g>
	</g>
</g>
</svg>
