<?xml version="1.0" encoding="utf-8"?>
<!-- Generator: Adobe Illustrator 19.0.0, SVG Export Plug-In . SVG Version: 6.00 Build 0)  -->
<svg version="1.1" id="图层_1" xmlns="http://www.w3.org/2000/svg" xmlns:xlink="http://www.w3.org/1999/xlink" x="0px" y="0px"
	 viewBox="0 0 268 320" style="enable-background:new 0 0 268 320;" xml:space="preserve">
<style type="text/css">
	.st0{fill:none;stroke:#1561C0;stroke-miterlimit:10;}
	.st1{fill:none;stroke:#00BEFF;stroke-miterlimit:10;}
	.st2{fill:#00BEFF;}
	.st3{clip-path:url(#XMLID_94_);}
	.st4{fill:none;stroke:#04BCFE;stroke-width:0.25;stroke-miterlimit:10;}
	.st5{clip-path:url(#XMLID_96_);}
	.st6{clip-path:url(#XMLID_98_);}
	.st7{clip-path:url(#XMLID_99_);}
</style>
<g id="XMLID_1_">
	<path id="XMLID_441_" class="st0" d="M3.9,73"/>
	<g id="XMLID_427_">
		<rect id="XMLID_18_" x="5.3" y="6.7" class="st1" width="257.5" height="307.2"/>
		<g id="XMLID_368_">
			<polygon id="XMLID_369_" class="st2" points="3.1,4.3 15,4.3 18,1.3 0.5,1.3 0.5,20.4 3.1,17.5 			"/>
			<polygon id="XMLID_17_" class="st2" points="264.7,4.3 252.8,4.3 249.8,1.3 267.3,1.3 267.3,20.4 264.7,17.5 			"/>
		</g>
		<g id="XMLID_367_">
			<polygon id="XMLID_16_" class="st2" points="3.3,315.7 15.2,315.7 18.2,318.7 0.7,318.7 0.7,299.6 3.3,302.5 			"/>
			<polygon id="XMLID_15_" class="st2" points="264.9,315.7 253,315.7 250,318.7 267.5,318.7 267.5,299.6 264.9,302.5 			"/>
		</g>
	</g>
	<g id="XMLID_330_">
		<defs>
			<rect id="XMLID_467_" x="5.4" y="13.1" width="257" height="36"/>
		</defs>
		<clipPath id="XMLID_94_">
			<use xlink:href="#XMLID_467_"  style="overflow:visible;"/>
		</clipPath>
		<g id="XMLID_332_" class="st3">
			<line id="XMLID_577_" class="st4" x1="354.4" y1="50.5" x2="281.1" y2="11.7"/>
			<line id="XMLID_576_" class="st4" x1="348.2" y1="50.5" x2="274.9" y2="11.7"/>
			<line id="XMLID_575_" class="st4" x1="341.9" y1="50.5" x2="268.6" y2="11.7"/>
			<line id="XMLID_571_" class="st4" x1="335.7" y1="50.5" x2="262.4" y2="11.7"/>
			<line id="XMLID_570_" class="st4" x1="329.5" y1="50.5" x2="256.1" y2="11.7"/>
			<line id="XMLID_569_" class="st4" x1="323.2" y1="50.5" x2="249.9" y2="11.7"/>
			<line id="XMLID_568_" class="st4" x1="317" y1="50.5" x2="243.7" y2="11.7"/>
			<line id="XMLID_567_" class="st4" x1="310.8" y1="50.5" x2="237.4" y2="11.7"/>
			<line id="XMLID_566_" class="st4" x1="304.5" y1="50.5" x2="231.2" y2="11.7"/>
			<line id="XMLID_565_" class="st4" x1="298.3" y1="50.5" x2="225" y2="11.7"/>
			<line id="XMLID_564_" class="st4" x1="292" y1="50.5" x2="218.7" y2="11.7"/>
			<line id="XMLID_563_" class="st4" x1="285.8" y1="50.5" x2="212.5" y2="11.7"/>
			<line id="XMLID_562_" class="st4" x1="279.6" y1="50.5" x2="206.2" y2="11.7"/>
			<line id="XMLID_561_" class="st4" x1="273.3" y1="50.5" x2="200" y2="11.7"/>
			<line id="XMLID_11840_" class="st4" x1="267.1" y1="50.5" x2="193.8" y2="11.7"/>
			<line id="XMLID_11839_" class="st4" x1="260.8" y1="50.5" x2="187.5" y2="11.7"/>
			<line id="XMLID_11838_" class="st4" x1="254.6" y1="50.5" x2="181.3" y2="11.7"/>
			<line id="XMLID_11837_" class="st4" x1="248.4" y1="50.5" x2="175" y2="11.7"/>
			<line id="XMLID_11836_" class="st4" x1="242.1" y1="50.5" x2="168.8" y2="11.7"/>
			<line id="XMLID_11835_" class="st4" x1="235.9" y1="50.5" x2="162.6" y2="11.7"/>
			<line id="XMLID_11834_" class="st4" x1="229.6" y1="50.5" x2="156.3" y2="11.7"/>
			<line id="XMLID_11833_" class="st4" x1="223.4" y1="50.5" x2="150.1" y2="11.7"/>
			<line id="XMLID_11832_" class="st4" x1="217.2" y1="50.5" x2="143.9" y2="11.7"/>
			<line id="XMLID_11831_" class="st4" x1="210.9" y1="50.5" x2="137.6" y2="11.7"/>
			<line id="XMLID_11830_" class="st4" x1="204.7" y1="50.5" x2="131.4" y2="11.7"/>
			<line id="XMLID_11828_" class="st4" x1="199.2" y1="50.5" x2="125.9" y2="11.7"/>
			<line id="XMLID_11827_" class="st4" x1="193" y1="50.5" x2="119.7" y2="11.7"/>
			<line id="XMLID_11826_" class="st4" x1="186.8" y1="50.5" x2="113.4" y2="11.7"/>
			<line id="XMLID_560_" class="st4" x1="180.5" y1="50.5" x2="107.2" y2="11.7"/>
			<line id="XMLID_559_" class="st4" x1="174.3" y1="50.5" x2="101" y2="11.7"/>
			<line id="XMLID_558_" class="st4" x1="168" y1="50.5" x2="94.7" y2="11.7"/>
			<line id="XMLID_557_" class="st4" x1="161.8" y1="50.5" x2="88.5" y2="11.7"/>
			<line id="XMLID_556_" class="st4" x1="155.6" y1="50.5" x2="82.2" y2="11.7"/>
			<line id="XMLID_555_" class="st4" x1="149.3" y1="50.5" x2="76" y2="11.7"/>
			<line id="XMLID_554_" class="st4" x1="143.1" y1="50.5" x2="69.8" y2="11.7"/>
			<line id="XMLID_553_" class="st4" x1="136.8" y1="50.5" x2="63.5" y2="11.7"/>
			<line id="XMLID_552_" class="st4" x1="130.6" y1="50.5" x2="57.3" y2="11.7"/>
			<line id="XMLID_551_" class="st4" x1="124.4" y1="50.5" x2="51" y2="11.7"/>
			<line id="XMLID_550_" class="st4" x1="118.1" y1="50.5" x2="44.8" y2="11.7"/>
			<line id="XMLID_549_" class="st4" x1="111.9" y1="50.5" x2="38.6" y2="11.7"/>
			<line id="XMLID_548_" class="st4" x1="105.7" y1="50.5" x2="32.3" y2="11.7"/>
			<line id="XMLID_547_" class="st4" x1="99.4" y1="50.5" x2="26.1" y2="11.7"/>
			<line id="XMLID_546_" class="st4" x1="93.2" y1="50.5" x2="19.9" y2="11.7"/>
			<line id="XMLID_545_" class="st4" x1="86.9" y1="50.5" x2="13.6" y2="11.7"/>
			<line id="XMLID_544_" class="st4" x1="80.7" y1="50.5" x2="7.4" y2="11.7"/>
			<line id="XMLID_543_" class="st4" x1="74.5" y1="50.5" x2="1.1" y2="11.7"/>
			<line id="XMLID_542_" class="st4" x1="68.2" y1="50.5" x2="-5.1" y2="11.7"/>
			<line id="XMLID_541_" class="st4" x1="62" y1="50.5" x2="-11.3" y2="11.7"/>
			<line id="XMLID_540_" class="st4" x1="55.7" y1="50.5" x2="-17.6" y2="11.7"/>
			<line id="XMLID_539_" class="st4" x1="49.5" y1="50.5" x2="-23.8" y2="11.7"/>
			<line id="XMLID_537_" class="st4" x1="43.3" y1="50.5" x2="-30.1" y2="11.7"/>
			<line id="XMLID_534_" class="st4" x1="37" y1="50.5" x2="-36.3" y2="11.7"/>
			<line id="XMLID_530_" class="st4" x1="30.8" y1="50.5" x2="-42.5" y2="11.7"/>
			<line id="XMLID_529_" class="st4" x1="24.5" y1="50.5" x2="-48.8" y2="11.7"/>
			<line id="XMLID_528_" class="st4" x1="18.3" y1="50.5" x2="-55" y2="11.7"/>
			<line id="XMLID_524_" class="st4" x1="12.1" y1="50.5" x2="-61.2" y2="11.7"/>
			<line id="XMLID_520_" class="st4" x1="5.8" y1="50.5" x2="-67.5" y2="11.7"/>
		</g>
	</g>
	<g id="XMLID_257_">
		<defs>
			<rect id="XMLID_10_" x="5.4" y="88.1" width="257" height="36"/>
		</defs>
		<clipPath id="XMLID_96_">
			<use xlink:href="#XMLID_10_"  style="overflow:visible;"/>
		</clipPath>
		<g id="XMLID_259_" class="st5">
			<line id="XMLID_84_" class="st4" x1="354.4" y1="125.3" x2="281.1" y2="86.5"/>
			<line id="XMLID_81_" class="st4" x1="348.2" y1="125.3" x2="274.9" y2="86.5"/>
			<line id="XMLID_80_" class="st4" x1="341.9" y1="125.3" x2="268.6" y2="86.5"/>
			<line id="XMLID_78_" class="st4" x1="335.7" y1="125.3" x2="262.4" y2="86.5"/>
			<line id="XMLID_77_" class="st4" x1="329.5" y1="125.3" x2="256.1" y2="86.5"/>
			<line id="XMLID_75_" class="st4" x1="323.2" y1="125.3" x2="249.9" y2="86.5"/>
			<line id="XMLID_71_" class="st4" x1="317" y1="125.3" x2="243.7" y2="86.5"/>
			<line id="XMLID_68_" class="st4" x1="310.8" y1="125.3" x2="237.4" y2="86.5"/>
			<line id="XMLID_67_" class="st4" x1="304.5" y1="125.3" x2="231.2" y2="86.5"/>
			<line id="XMLID_66_" class="st4" x1="298.3" y1="125.3" x2="225" y2="86.5"/>
			<line id="XMLID_65_" class="st4" x1="292" y1="125.3" x2="218.7" y2="86.5"/>
			<line id="XMLID_64_" class="st4" x1="285.8" y1="125.3" x2="212.5" y2="86.5"/>
			<line id="XMLID_63_" class="st4" x1="279.6" y1="125.3" x2="206.2" y2="86.5"/>
			<line id="XMLID_62_" class="st4" x1="273.3" y1="125.3" x2="200" y2="86.5"/>
			<line id="XMLID_61_" class="st4" x1="267.1" y1="125.3" x2="193.8" y2="86.5"/>
			<line id="XMLID_60_" class="st4" x1="260.8" y1="125.3" x2="187.5" y2="86.5"/>
			<line id="XMLID_59_" class="st4" x1="254.6" y1="125.3" x2="181.3" y2="86.5"/>
			<line id="XMLID_58_" class="st4" x1="248.4" y1="125.3" x2="175" y2="86.5"/>
			<line id="XMLID_57_" class="st4" x1="242.1" y1="125.3" x2="168.8" y2="86.5"/>
			<line id="XMLID_56_" class="st4" x1="235.9" y1="125.3" x2="162.6" y2="86.5"/>
			<line id="XMLID_55_" class="st4" x1="229.6" y1="125.3" x2="156.3" y2="86.5"/>
			<line id="XMLID_54_" class="st4" x1="223.4" y1="125.3" x2="150.1" y2="86.5"/>
			<line id="XMLID_53_" class="st4" x1="217.2" y1="125.3" x2="143.9" y2="86.5"/>
			<line id="XMLID_52_" class="st4" x1="210.9" y1="125.3" x2="137.6" y2="86.5"/>
			<line id="XMLID_51_" class="st4" x1="204.7" y1="125.3" x2="131.4" y2="86.5"/>
			<line id="XMLID_49_" class="st4" x1="199.2" y1="125.3" x2="125.9" y2="86.5"/>
			<line id="XMLID_48_" class="st4" x1="193" y1="125.3" x2="119.7" y2="86.5"/>
			<line id="XMLID_46_" class="st4" x1="186.8" y1="125.3" x2="113.4" y2="86.5"/>
			<line id="XMLID_45_" class="st4" x1="180.5" y1="125.3" x2="107.2" y2="86.5"/>
			<line id="XMLID_44_" class="st4" x1="174.3" y1="125.3" x2="101" y2="86.5"/>
			<line id="XMLID_43_" class="st4" x1="168" y1="125.3" x2="94.7" y2="86.5"/>
			<line id="XMLID_42_" class="st4" x1="161.8" y1="125.3" x2="88.5" y2="86.5"/>
			<line id="XMLID_41_" class="st4" x1="155.6" y1="125.3" x2="82.2" y2="86.5"/>
			<line id="XMLID_40_" class="st4" x1="149.3" y1="125.3" x2="76" y2="86.5"/>
			<line id="XMLID_39_" class="st4" x1="143.1" y1="125.3" x2="69.8" y2="86.5"/>
			<line id="XMLID_38_" class="st4" x1="136.8" y1="125.3" x2="63.5" y2="86.5"/>
			<line id="XMLID_37_" class="st4" x1="130.6" y1="125.3" x2="57.3" y2="86.5"/>
			<line id="XMLID_36_" class="st4" x1="124.4" y1="125.3" x2="51" y2="86.5"/>
			<line id="XMLID_35_" class="st4" x1="118.1" y1="125.3" x2="44.8" y2="86.5"/>
			<line id="XMLID_34_" class="st4" x1="111.9" y1="125.3" x2="38.6" y2="86.5"/>
			<line id="XMLID_33_" class="st4" x1="105.7" y1="125.3" x2="32.3" y2="86.5"/>
			<line id="XMLID_32_" class="st4" x1="99.4" y1="125.3" x2="26.1" y2="86.5"/>
			<line id="XMLID_31_" class="st4" x1="93.2" y1="125.3" x2="19.9" y2="86.5"/>
			<line id="XMLID_30_" class="st4" x1="86.9" y1="125.3" x2="13.6" y2="86.5"/>
			<line id="XMLID_29_" class="st4" x1="80.7" y1="125.3" x2="7.4" y2="86.5"/>
			<line id="XMLID_27_" class="st4" x1="74.5" y1="125.3" x2="1.1" y2="86.5"/>
			<line id="XMLID_25_" class="st4" x1="68.2" y1="125.3" x2="-5.1" y2="86.5"/>
			<line id="XMLID_24_" class="st4" x1="62" y1="125.3" x2="-11.3" y2="86.5"/>
			<line id="XMLID_23_" class="st4" x1="55.7" y1="125.3" x2="-17.6" y2="86.5"/>
			<line id="XMLID_22_" class="st4" x1="49.5" y1="125.3" x2="-23.8" y2="86.5"/>
			<line id="XMLID_21_" class="st4" x1="43.3" y1="125.3" x2="-30.1" y2="86.5"/>
			<line id="XMLID_20_" class="st4" x1="37" y1="125.3" x2="-36.3" y2="86.5"/>
			<line id="XMLID_19_" class="st4" x1="30.8" y1="125.3" x2="-42.5" y2="86.5"/>
			<line id="XMLID_14_" class="st4" x1="24.5" y1="125.3" x2="-48.8" y2="86.5"/>
			<line id="XMLID_13_" class="st4" x1="18.3" y1="125.3" x2="-55" y2="86.5"/>
			<line id="XMLID_12_" class="st4" x1="12.1" y1="125.3" x2="-61.2" y2="86.5"/>
			<line id="XMLID_11_" class="st4" x1="5.8" y1="125.3" x2="-67.5" y2="86.5"/>
		</g>
	</g>
	<g id="XMLID_182_">
		<defs>
			<rect id="XMLID_90_" x="5.4" y="163.1" width="257" height="36"/>
		</defs>
		<clipPath id="XMLID_98_">
			<use xlink:href="#XMLID_90_"  style="overflow:visible;"/>
		</clipPath>
		<g id="XMLID_184_" class="st6">
			<line id="XMLID_327_" class="st4" x1="354.4" y1="200" x2="281.1" y2="161.2"/>
			<line id="XMLID_326_" class="st4" x1="348.2" y1="200" x2="274.9" y2="161.2"/>
			<line id="XMLID_325_" class="st4" x1="341.9" y1="200" x2="268.6" y2="161.2"/>
			<line id="XMLID_324_" class="st4" x1="335.7" y1="200" x2="262.4" y2="161.2"/>
			<line id="XMLID_323_" class="st4" x1="329.5" y1="200" x2="256.1" y2="161.2"/>
			<line id="XMLID_322_" class="st4" x1="323.2" y1="200" x2="249.9" y2="161.2"/>
			<line id="XMLID_321_" class="st4" x1="317" y1="200" x2="243.7" y2="161.2"/>
			<line id="XMLID_320_" class="st4" x1="310.8" y1="200" x2="237.4" y2="161.2"/>
			<line id="XMLID_319_" class="st4" x1="304.5" y1="200" x2="231.2" y2="161.2"/>
			<line id="XMLID_318_" class="st4" x1="298.3" y1="200" x2="225" y2="161.2"/>
			<line id="XMLID_317_" class="st4" x1="292" y1="200" x2="218.7" y2="161.2"/>
			<line id="XMLID_316_" class="st4" x1="285.8" y1="200" x2="212.5" y2="161.2"/>
			<line id="XMLID_315_" class="st4" x1="279.6" y1="200" x2="206.2" y2="161.2"/>
			<line id="XMLID_214_" class="st4" x1="273.3" y1="200" x2="200" y2="161.2"/>
			<line id="XMLID_213_" class="st4" x1="267.1" y1="200" x2="193.8" y2="161.2"/>
			<line id="XMLID_212_" class="st4" x1="260.8" y1="200" x2="187.5" y2="161.2"/>
			<line id="XMLID_211_" class="st4" x1="254.6" y1="200" x2="181.3" y2="161.2"/>
			<line id="XMLID_210_" class="st4" x1="248.4" y1="200" x2="175" y2="161.2"/>
			<line id="XMLID_209_" class="st4" x1="242.1" y1="200" x2="168.8" y2="161.2"/>
			<line id="XMLID_208_" class="st4" x1="235.9" y1="200" x2="162.6" y2="161.2"/>
			<line id="XMLID_207_" class="st4" x1="229.6" y1="200" x2="156.3" y2="161.2"/>
			<line id="XMLID_206_" class="st4" x1="223.4" y1="200" x2="150.1" y2="161.2"/>
			<line id="XMLID_205_" class="st4" x1="217.2" y1="200" x2="143.9" y2="161.2"/>
			<line id="XMLID_204_" class="st4" x1="210.9" y1="200" x2="137.6" y2="161.2"/>
			<line id="XMLID_197_" class="st4" x1="204.7" y1="200" x2="131.4" y2="161.2"/>
			<line id="XMLID_193_" class="st4" x1="199.2" y1="200" x2="125.9" y2="161.2"/>
			<line id="XMLID_192_" class="st4" x1="193" y1="200" x2="119.7" y2="161.2"/>
			<line id="XMLID_189_" class="st4" x1="186.8" y1="200" x2="113.4" y2="161.2"/>
			<line id="XMLID_169_" class="st4" x1="180.5" y1="200" x2="107.2" y2="161.2"/>
			<line id="XMLID_168_" class="st4" x1="174.3" y1="200" x2="101" y2="161.2"/>
			<line id="XMLID_164_" class="st4" x1="168" y1="200" x2="94.7" y2="161.2"/>
			<line id="XMLID_160_" class="st4" x1="161.8" y1="200" x2="88.5" y2="161.2"/>
			<line id="XMLID_159_" class="st4" x1="155.6" y1="200" x2="82.2" y2="161.2"/>
			<line id="XMLID_158_" class="st4" x1="149.3" y1="200" x2="76" y2="161.2"/>
			<line id="XMLID_156_" class="st4" x1="143.1" y1="200" x2="69.8" y2="161.2"/>
			<line id="XMLID_155_" class="st4" x1="136.8" y1="200" x2="63.5" y2="161.2"/>
			<line id="XMLID_150_" class="st4" x1="130.6" y1="200" x2="57.3" y2="161.2"/>
			<line id="XMLID_145_" class="st4" x1="124.4" y1="200" x2="51" y2="161.2"/>
			<line id="XMLID_144_" class="st4" x1="118.1" y1="200" x2="44.8" y2="161.2"/>
			<line id="XMLID_135_" class="st4" x1="111.9" y1="200" x2="38.6" y2="161.2"/>
			<line id="XMLID_132_" class="st4" x1="105.7" y1="200" x2="32.3" y2="161.2"/>
			<line id="XMLID_130_" class="st4" x1="99.4" y1="200" x2="26.1" y2="161.2"/>
			<line id="XMLID_128_" class="st4" x1="93.2" y1="200" x2="19.9" y2="161.2"/>
			<line id="XMLID_127_" class="st4" x1="86.9" y1="200" x2="13.6" y2="161.2"/>
			<line id="XMLID_126_" class="st4" x1="80.7" y1="200" x2="7.4" y2="161.2"/>
			<line id="XMLID_125_" class="st4" x1="74.5" y1="200" x2="1.1" y2="161.2"/>
			<line id="XMLID_124_" class="st4" x1="68.2" y1="200" x2="-5.1" y2="161.2"/>
			<line id="XMLID_123_" class="st4" x1="62" y1="200" x2="-11.3" y2="161.2"/>
			<line id="XMLID_122_" class="st4" x1="55.7" y1="200" x2="-17.6" y2="161.2"/>
			<line id="XMLID_121_" class="st4" x1="49.5" y1="200" x2="-23.8" y2="161.2"/>
			<line id="XMLID_120_" class="st4" x1="43.3" y1="200" x2="-30.1" y2="161.2"/>
			<line id="XMLID_119_" class="st4" x1="37" y1="200" x2="-36.3" y2="161.2"/>
			<line id="XMLID_118_" class="st4" x1="30.8" y1="200" x2="-42.5" y2="161.2"/>
			<line id="XMLID_117_" class="st4" x1="24.5" y1="200" x2="-48.8" y2="161.2"/>
			<line id="XMLID_116_" class="st4" x1="18.3" y1="200" x2="-55" y2="161.2"/>
			<line id="XMLID_93_" class="st4" x1="12.1" y1="200" x2="-61.2" y2="161.2"/>
			<line id="XMLID_91_" class="st4" x1="5.8" y1="200" x2="-67.5" y2="161.2"/>
		</g>
	</g>
	<g id="XMLID_95_">
		<defs>
			<rect id="XMLID_350_" x="5.4" y="237.1" width="257" height="37"/>
		</defs>
		<clipPath id="XMLID_99_">
			<use xlink:href="#XMLID_350_"  style="overflow:visible;"/>
		</clipPath>
		<g id="XMLID_97_" class="st7">
			<line id="XMLID_494_" class="st4" x1="354.4" y1="274.8" x2="281.1" y2="236"/>
			<line id="XMLID_493_" class="st4" x1="348.2" y1="274.8" x2="274.9" y2="236"/>
			<line id="XMLID_489_" class="st4" x1="341.9" y1="274.8" x2="268.6" y2="236"/>
			<line id="XMLID_487_" class="st4" x1="335.7" y1="274.8" x2="262.4" y2="236"/>
			<line id="XMLID_486_" class="st4" x1="329.5" y1="274.8" x2="256.1" y2="236"/>
			<line id="XMLID_485_" class="st4" x1="323.2" y1="274.8" x2="249.9" y2="236"/>
			<line id="XMLID_481_" class="st4" x1="317" y1="274.8" x2="243.7" y2="236"/>
			<line id="XMLID_477_" class="st4" x1="310.8" y1="274.8" x2="237.4" y2="236"/>
			<line id="XMLID_473_" class="st4" x1="304.5" y1="274.8" x2="231.2" y2="236"/>
			<line id="XMLID_469_" class="st4" x1="298.3" y1="274.8" x2="225" y2="236"/>
			<line id="XMLID_465_" class="st4" x1="292" y1="274.8" x2="218.7" y2="236"/>
			<line id="XMLID_461_" class="st4" x1="285.8" y1="274.8" x2="212.5" y2="236"/>
			<line id="XMLID_457_" class="st4" x1="279.6" y1="274.8" x2="206.2" y2="236"/>
			<line id="XMLID_456_" class="st4" x1="273.3" y1="274.8" x2="200" y2="236"/>
			<line id="XMLID_452_" class="st4" x1="267.1" y1="274.8" x2="193.8" y2="236"/>
			<line id="XMLID_451_" class="st4" x1="260.8" y1="274.8" x2="187.5" y2="236"/>
			<line id="XMLID_447_" class="st4" x1="254.6" y1="274.8" x2="181.3" y2="236"/>
			<line id="XMLID_443_" class="st4" x1="248.4" y1="274.8" x2="175" y2="236"/>
			<line id="XMLID_439_" class="st4" x1="242.1" y1="274.8" x2="168.8" y2="236"/>
			<line id="XMLID_435_" class="st4" x1="235.9" y1="274.8" x2="162.6" y2="236"/>
			<line id="XMLID_434_" class="st4" x1="229.6" y1="274.8" x2="156.3" y2="236"/>
			<line id="XMLID_433_" class="st4" x1="223.4" y1="274.8" x2="150.1" y2="236"/>
			<line id="XMLID_432_" class="st4" x1="217.2" y1="274.8" x2="143.9" y2="236"/>
			<line id="XMLID_428_" class="st4" x1="210.9" y1="274.8" x2="137.6" y2="236"/>
			<line id="XMLID_424_" class="st4" x1="204.7" y1="274.8" x2="131.4" y2="236"/>
			<line id="XMLID_423_" class="st4" x1="199.2" y1="274.8" x2="125.9" y2="236"/>
			<line id="XMLID_422_" class="st4" x1="193" y1="274.8" x2="119.7" y2="236"/>
			<line id="XMLID_421_" class="st4" x1="186.8" y1="274.8" x2="113.4" y2="236"/>
			<line id="XMLID_420_" class="st4" x1="180.5" y1="274.8" x2="107.2" y2="236"/>
			<line id="XMLID_419_" class="st4" x1="174.3" y1="274.8" x2="101" y2="236"/>
			<line id="XMLID_380_" class="st4" x1="168" y1="274.8" x2="94.7" y2="236"/>
			<line id="XMLID_379_" class="st4" x1="161.8" y1="274.8" x2="88.5" y2="236"/>
			<line id="XMLID_378_" class="st4" x1="155.6" y1="274.8" x2="82.2" y2="236"/>
			<line id="XMLID_377_" class="st4" x1="149.3" y1="274.8" x2="76" y2="236"/>
			<line id="XMLID_376_" class="st4" x1="143.1" y1="274.8" x2="69.8" y2="236"/>
			<line id="XMLID_375_" class="st4" x1="136.8" y1="274.8" x2="63.5" y2="236"/>
			<line id="XMLID_374_" class="st4" x1="130.6" y1="274.8" x2="57.3" y2="236"/>
			<line id="XMLID_373_" class="st4" x1="124.4" y1="274.8" x2="51" y2="236"/>
			<line id="XMLID_372_" class="st4" x1="118.1" y1="274.8" x2="44.8" y2="236"/>
			<line id="XMLID_371_" class="st4" x1="111.9" y1="274.8" x2="38.6" y2="236"/>
			<line id="XMLID_370_" class="st4" x1="105.7" y1="274.8" x2="32.3" y2="236"/>
			<line id="XMLID_366_" class="st4" x1="99.4" y1="274.8" x2="26.1" y2="236"/>
			<line id="XMLID_365_" class="st4" x1="93.2" y1="274.8" x2="19.9" y2="236"/>
			<line id="XMLID_364_" class="st4" x1="86.9" y1="274.8" x2="13.6" y2="236"/>
			<line id="XMLID_363_" class="st4" x1="80.7" y1="274.8" x2="7.4" y2="236"/>
			<line id="XMLID_362_" class="st4" x1="74.5" y1="274.8" x2="1.1" y2="236"/>
			<line id="XMLID_361_" class="st4" x1="68.2" y1="274.8" x2="-5.1" y2="236"/>
			<line id="XMLID_360_" class="st4" x1="62" y1="274.8" x2="-11.3" y2="236"/>
			<line id="XMLID_359_" class="st4" x1="55.7" y1="274.8" x2="-17.6" y2="236"/>
			<line id="XMLID_358_" class="st4" x1="49.5" y1="274.8" x2="-23.8" y2="236"/>
			<line id="XMLID_357_" class="st4" x1="43.3" y1="274.8" x2="-30.1" y2="236"/>
			<line id="XMLID_356_" class="st4" x1="37" y1="274.8" x2="-36.3" y2="236"/>
			<line id="XMLID_355_" class="st4" x1="30.8" y1="274.8" x2="-42.5" y2="236"/>
			<line id="XMLID_354_" class="st4" x1="24.5" y1="274.8" x2="-48.8" y2="236"/>
			<line id="XMLID_353_" class="st4" x1="18.3" y1="274.8" x2="-55" y2="236"/>
			<line id="XMLID_352_" class="st4" x1="12.1" y1="274.8" x2="-61.2" y2="236"/>
			<line id="XMLID_351_" class="st4" x1="5.8" y1="274.8" x2="-67.5" y2="236"/>
		</g>
	</g>
</g>
</svg>
