<?xml version="1.0" encoding="utf-8"?>
<!-- Generator: Adobe Illustrator 19.0.0, SVG Export Plug-In . SVG Version: 6.00 Build 0)  -->
<svg version="1.1" id="图层_1" xmlns="http://www.w3.org/2000/svg" xmlns:xlink="http://www.w3.org/1999/xlink" x="0px" y="0px"
	 viewBox="0 0 164 40" style="enable-background:new 0 0 164 40;" xml:space="preserve">
<style type="text/css">
	.edunav0{fill:none;stroke:#00BEFF;stroke-width:2.4718;stroke-miterlimit:10;}
	.edunav1{fill:none;stroke:#00BEFF;stroke-width:1.2359;stroke-miterlimit:10;}
	.edunav2{opacity:0.3;fill:#05BCFE;}
</style>
<g id="XMLID_12710_">
	<polyline id="XMLID_12740_" class="edunav0" points="156.8,1.6 160.3,1.6 162.3,4 162.3,34.7 158.7,38.4 155.8,38.4 	"/>
	<polyline id="XMLID_12744_" class="edunav1" points="12,1.6 10.6,3 10.6,6.2 12,7.7 12,31.1 10.6,32.5 10.6,35.1 12,36.3 	"/>
	<polygon id="XMLID_12747_" class="edunav1" points="4.4,1.6 1.7,4.5 1.7,33.4 4.7,36.3 11.2,36.3 42.4,36.3 44.5,38.4 158.1,38.4 
		161.7,34.7 161.7,4 159.7,1.6 11.4,1.6 	"/>
	<polygon id="XMLID_12748_" class="edunav2" points="12,1.6 5,1.6 2.3,4.5 2.3,33.4 5.3,36.3 12,36.3 10.6,35.2 10.5,32.5 12,31.1 
		12,7.7 10.6,6.3 10.6,3.1 	"/>
</g>
</svg>
