<?xml version="1.0" encoding="utf-8"?>
<!-- Generator: Adobe Illustrator 19.0.0, SVG Export Plug-In . SVG Version: 6.00 Build 0)  -->
<svg version="1.1" id="图层_1" xmlns="http://www.w3.org/2000/svg" xmlns:xlink="http://www.w3.org/1999/xlink" x="0px" y="0px"
	 viewBox="0 0 950 466" style="enable-background:new 0 0 950 466;" xml:space="preserve">
<style type="text/css">
	.edunavb0{fill:none;stroke:#1561C0;stroke-width:1.0476;stroke-miterlimit:10;}
	.edunavb1{fill:none;stroke:#00BEFF;stroke-width:2.0953;stroke-miterlimit:10;}
	.edunavb2{fill:#1561C0;}
	.edunavb3{opacity:0.6;fill:#1561C0;fill-opacity:0.6;stroke:#1561C0;stroke-miterlimit:10;}
	.edunavb4{fill:#00BEFF;}
	.edunavb5{clip-path:url(#XMLID_71_);}
</style>
<g id="XMLID_43_">
	<path id="XMLID_232_" class="edunavb0" d="M24.2,103.9"/>
	<g id="XMLID_228_">
		<line id="XMLID_231_" class="edunavb0" x1="31.9" y1="112.5" x2="929.3" y2="112.5"/>
		<line id="XMLID_230_" class="edunavb1" x1="22.6" y1="112.5" x2="47.5" y2="112.5"/>
		<line id="XMLID_229_" class="edunavb1" x1="904.4" y1="112.5" x2="929.3" y2="112.5"/>
	</g>
	<g id="XMLID_976_">
		<g id="XMLID_1053_">
			<polygon id="XMLID_1054_" class="edunavb2" points="430.6,55.4 408.7,55.4 378.1,9 355.7,9 355.7,5 379.9,5 410.5,51.4 430.6,51.4 			
				"/>
		</g>
		<g id="XMLID_979_">
			<g id="XMLID_1048_">
				<polygon id="XMLID_1052_" class="edunavb2" points="69.1,452.3 64.2,455.9 77,455.9 81.9,452.3 				"/>
				<polygon id="XMLID_1051_" class="edunavb2" points="48.3,452.3 43.3,455.9 56.2,455.9 61.1,452.3 				"/>
				<polygon id="XMLID_1050_" class="edunavb2" points="110.9,452.3 106,455.9 118.8,455.9 123.7,452.3 				"/>
				<polygon id="XMLID_1049_" class="edunavb2" points="90,452.3 85.1,455.9 97.9,455.9 102.8,452.3 				"/>
			</g>
			<polygon id="XMLID_1044_" class="edunavb3" points="11.6,19.5 22.4,11.2 42.8,11.2 45.6,9.7 352.8,9.7 355.7,11.2 376.3,11.2 
				405.6,55.3 11.6,55.3 			"/>
			<polygon id="XMLID_1043_" class="edunavb2" points="941.3,58.2 941,439.4 921.7,455.9 7.5,455.9 7.5,17.4 19.7,8 378.3,8 409.1,54.4 
				782.3,54.7 802.2,31.7 924.7,32 927,30 801.2,30 780.7,52 409.3,52.1 378.6,7 19.1,7 2.5,19 2.5,458.3 2.5,460.2 40.5,460.2 
				40.2,460.4 53,460.4 53.3,460.2 61.4,460.2 61.1,460.4 73.9,460.4 74.2,460.2 82.2,460.2 82,460.4 94.8,460.4 95,460.2 
				103.1,460.2 102.8,460.4 115.6,460.4 115.9,460.2 922.3,460.4 946.2,439.8 946.3,53.1 			"/>
			<g id="XMLID_1041_">
				<polygon id="XMLID_1042_" class="edunavb4" points="949.7,70.8 947.7,73.4 947.7,51.2 928.7,28.1 902.8,28 905.2,26.1 929.7,26.1 
					949.7,50.5 				"/>
			</g>
			<g id="XMLID_1018_">
				
					<rect id="XMLID_1040_" x="935.7" y="42" transform="matrix(0.624 0.7814 -0.7814 0.624 385.7315 -715.1308)" class="edunavb2" width="0.6" height="2.6"/>
				
					<rect id="XMLID_1039_" x="926.4" y="30.5" transform="matrix(0.624 0.7814 -0.7814 0.624 373.2509 -712.2098)" class="edunavb2" width="0.6" height="2.6"/>
				
					<rect id="XMLID_1038_" x="927.2" y="31.4" transform="matrix(0.624 0.7814 -0.7814 0.624 374.2909 -712.4532)" class="edunavb2" width="0.6" height="2.6"/>
				
					<rect id="XMLID_1037_" x="927.9" y="32.4" transform="matrix(0.624 0.7814 -0.7814 0.624 375.331 -712.6966)" class="edunavb2" width="0.6" height="2.6"/>
				
					<rect id="XMLID_1036_" x="928.7" y="33.3" transform="matrix(0.624 0.7814 -0.7814 0.624 376.371 -712.9401)" class="edunavb2" width="0.6" height="2.6"/>
				
					<rect id="XMLID_1035_" x="929.5" y="34.3" transform="matrix(0.624 0.7814 -0.7814 0.624 377.4111 -713.1835)" class="edunavb2" width="0.6" height="2.6"/>
				
					<rect id="XMLID_1034_" x="930.3" y="35.3" transform="matrix(0.624 0.7814 -0.7814 0.624 378.4511 -713.4269)" class="edunavb2" width="0.6" height="2.6"/>
				
					<rect id="XMLID_1033_" x="931" y="36.2" transform="matrix(0.624 0.7814 -0.7814 0.624 379.4912 -713.6703)" class="edunavb2" width="0.6" height="2.6"/>
				
					<rect id="XMLID_1032_" x="931.8" y="37.2" transform="matrix(0.624 0.7814 -0.7814 0.624 380.5312 -713.9137)" class="edunavb2" width="0.6" height="2.6"/>
				
					<rect id="XMLID_1031_" x="932.6" y="38.1" transform="matrix(0.624 0.7814 -0.7814 0.624 381.5713 -714.1571)" class="edunavb2" width="0.6" height="2.6"/>
				
					<rect id="XMLID_1030_" x="933.3" y="39.1" transform="matrix(0.624 0.7814 -0.7814 0.624 382.6113 -714.4006)" class="edunavb2" width="0.6" height="2.6"/>
				
					<rect id="XMLID_1029_" x="934.1" y="40" transform="matrix(0.624 0.7814 -0.7814 0.624 383.6514 -714.644)" class="edunavb2" width="0.6" height="2.6"/>
				
					<rect id="XMLID_1028_" x="934.9" y="41" transform="matrix(0.624 0.7814 -0.7814 0.624 384.6914 -714.8874)" class="edunavb2" width="0.6" height="2.6"/>
				
					<rect id="XMLID_1027_" x="936.4" y="42.9" transform="matrix(0.624 0.7814 -0.7814 0.624 386.7715 -715.3742)" class="edunavb2" width="0.6" height="2.6"/>
				
					<rect id="XMLID_1026_" x="937.2" y="43.9" transform="matrix(0.624 0.7814 -0.7814 0.624 387.8116 -715.6177)" class="edunavb2" width="0.6" height="2.6"/>
				
					<rect id="XMLID_1025_" x="938" y="44.8" transform="matrix(0.624 0.7814 -0.7814 0.624 388.8517 -715.8611)" class="edunavb2" width="0.6" height="2.6"/>
				
					<rect id="XMLID_1024_" x="938.6" y="45.7" transform="matrix(0.619 0.7854 -0.7854 0.619 394.7269 -719.5499)" class="edunavb2" width="0.6" height="2.6"/>
				
					<rect id="XMLID_1023_" x="939.4" y="46.7" transform="matrix(0.619 0.7854 -0.7854 0.619 395.7762 -719.7848)" class="edunavb2" width="0.6" height="2.6"/>
				
					<rect id="XMLID_1022_" x="940.2" y="47.7" transform="matrix(0.619 0.7854 -0.7854 0.619 396.8255 -720.0197)" class="edunavb2" width="0.6" height="2.6"/>
				
					<rect id="XMLID_1021_" x="940.9" y="48.6" transform="matrix(0.619 0.7854 -0.7854 0.619 397.8749 -720.2546)" class="edunavb2" width="0.6" height="2.6"/>
				
					<rect id="XMLID_1020_" x="941.7" y="49.6" transform="matrix(0.619 0.7854 -0.7854 0.619 398.9242 -720.4896)" class="edunavb2" width="0.6" height="2.6"/>
				
					<rect id="XMLID_1019_" x="942.5" y="50.6" transform="matrix(0.619 0.7854 -0.7854 0.619 399.9735 -720.7245)" class="edunavb2" width="0.6" height="2.6"/>
			</g>
			<g id="XMLID_1016_">
				<polygon id="XMLID_1017_" class="edunavb4" points="892,455.2 892,460.8 922.3,460.8 946.3,440.6 946.3,418.4 940.8,418.4 
					940.7,439.5 921.8,455.2 				"/>
			</g>
			<g id="XMLID_980_">
				<defs>
					<polygon id="XMLID_981_" points="942.5,57.7 783,57.7 804,33.4 946.3,33.4 					"/>
				</defs>
				<clipPath id="XMLID_71_">
					<use xlink:href="#XMLID_981_"  style="overflow:visible;"/>
				</clipPath>
				<g id="XMLID_982_" class="edunavb5">
					<polygon id="XMLID_1015_" class="edunavb2" points="821.5,54.5 819,54.5 804.1,35 806.6,35 					"/>
					<polygon id="XMLID_1014_" class="edunavb2" points="825.9,54.5 823.4,54.5 808.5,35 811,35 					"/>
					<polygon id="XMLID_1013_" class="edunavb2" points="830.2,54.5 827.8,54.5 812.9,35 815.3,35 					"/>
					<polygon id="XMLID_1012_" class="edunavb2" points="834.6,54.5 832.2,54.5 817.3,35 819.7,35 					"/>
					<polygon id="XMLID_1011_" class="edunavb2" points="839,54.5 836.5,54.5 821.6,35 824.1,35 					"/>
					<polygon id="XMLID_1010_" class="edunavb2" points="843.4,54.5 840.9,54.5 826,35 828.5,35 					"/>
					<polygon id="XMLID_1009_" class="edunavb2" points="847.8,54.5 845.3,54.5 830.4,35 832.9,35 					"/>
					<polygon id="XMLID_1008_" class="edunavb2" points="852.1,54.5 849.7,54.5 834.8,35 837.2,35 					"/>
					<polygon id="XMLID_1007_" class="edunavb2" points="786.4,54.5 784,54.5 769.1,35 771.5,35 					"/>
					<polygon id="XMLID_1006_" class="edunavb2" points="790.8,54.5 788.4,54.5 773.5,35 775.9,35 					"/>
					<polygon id="XMLID_1005_" class="edunavb2" points="795.2,54.5 792.7,54.5 777.8,35 780.3,35 					"/>
					<polygon id="XMLID_1004_" class="edunavb2" points="799.6,54.5 797.1,54.5 782.2,35 784.7,35 					"/>
					<polygon id="XMLID_1003_" class="edunavb2" points="804,54.5 801.5,54.5 786.6,35 789.1,35 					"/>
					<polygon id="XMLID_1002_" class="edunavb2" points="808.3,54.5 805.9,54.5 791,35 793.4,35 					"/>
					<polygon id="XMLID_1001_" class="edunavb2" points="812.7,54.5 810.3,54.5 795.4,35 797.8,35 					"/>
					<polygon id="XMLID_3001_" class="edunavb2" points="817.1,54.5 814.6,54.5 799.7,35 802.2,35 					"/>
					<polygon id="XMLID_1000_" class="edunavb2" points="856.5,54.5 854.1,54.5 839.2,35 841.6,35 					"/>
					<polygon id="XMLID_2999_" class="edunavb2" points="860.9,54.5 858.4,54.5 843.5,35 846,35 					"/>
					<polygon id="XMLID_999_" class="edunavb2" points="869.7,54.5 867.2,54.5 852.3,35 854.8,35 					"/>
					<polygon id="XMLID_998_" class="edunavb2" points="865.3,54.5 862.8,54.5 847.9,35 850.4,35 					"/>
					<polygon id="XMLID_997_" class="edunavb2" points="878.4,54.5 876,54.5 861.1,35 863.5,35 					"/>
					<polygon id="XMLID_996_" class="edunavb2" points="887.2,54.5 884.7,54.5 869.8,35 872.3,35 					"/>
					<polygon id="XMLID_995_" class="edunavb2" points="904.7,54.5 902.3,54.5 887.4,35 889.8,35 					"/>
					<polygon id="XMLID_994_" class="edunavb2" points="922.2,54.5 919.8,54.5 904.9,35 907.3,35 					"/>
					<polygon id="XMLID_993_" class="edunavb2" points="896,54.5 893.5,54.5 878.6,35 881.1,35 					"/>
					<polygon id="XMLID_992_" class="edunavb2" points="913.5,54.5 911,54.5 896.1,35 898.6,35 					"/>
					<polygon id="XMLID_991_" class="edunavb2" points="931,54.5 928.5,54.5 913.6,35 916.1,35 					"/>
					<polygon id="XMLID_990_" class="edunavb2" points="939.8,54.5 937.3,54.5 922.4,35 924.9,35 					"/>
					<polygon id="XMLID_989_" class="edunavb2" points="874,54.5 871.6,54.5 856.7,35 859.1,35 					"/>
					<polygon id="XMLID_988_" class="edunavb2" points="882.8,54.5 880.3,54.5 865.4,35 867.9,35 					"/>
					<polygon id="XMLID_987_" class="edunavb2" points="891.6,54.5 889.1,54.5 874.2,35 876.7,35 					"/>
					<polygon id="XMLID_986_" class="edunavb2" points="909.1,54.5 906.6,54.5 891.7,35 894.2,35 					"/>
					<polygon id="XMLID_985_" class="edunavb2" points="900.3,54.5 897.9,54.5 883,35 885.4,35 					"/>
					<polygon id="XMLID_984_" class="edunavb2" points="917.9,54.5 915.4,54.5 900.5,35 903,35 					"/>
					<polygon id="XMLID_983_" class="edunavb2" points="926.6,54.5 924.2,54.5 909.3,35 911.7,35 					"/>
					<polygon id="XMLID_2981_" class="edunavb2" points="935.4,54.5 932.9,54.5 918,35 920.5,35 					"/>
				</g>
			</g>
		</g>
		<g id="XMLID_977_">
			<polygon id="XMLID_978_" class="edunavb4" points="8.3,60.2 1.9,60.2 1.9,18.5 18.8,5.9 42.8,5.9 42.8,8.9 19.8,8.9 8.4,17.5 			"/>
		</g>
	</g>
</g>
</svg>
