<?xml version="1.0" encoding="utf-8"?>
<!-- Generator: Adobe Illustrator 19.0.0, SVG Export Plug-In . SVG Version: 6.00 Build 0)  -->
<svg version="1.1" id="图层_1" xmlns="http://www.w3.org/2000/svg" xmlns:xlink="http://www.w3.org/1999/xlink" x="0px" y="0px"
	 viewBox="-14 63 930 435" style="enable-background:new -14 63 930 435;" xml:space="preserve">
<style type="text/css">
	.st0{fill:#1561C0;}
	.st1{opacity:0.6;fill:#1561C0;fill-opacity:0.6;stroke:#1561C0;stroke-miterlimit:10;enable-background:new    ;}
	.st2{fill:#00BEFF;}
	.st3{clip-path:url(#SVGID_2_);}
	.st4{fill:none;stroke:#1561C0;stroke-miterlimit:10;}
	.st5{fill:none;stroke:#00BEFF;stroke-width:2;stroke-miterlimit:10;}
</style>
<g id="XMLID_1_">
	<g id="XMLID_318_">
		<g id="XMLID_768_">
			<polygon id="XMLID_769_" class="st0" points="367.2,115.4 345.3,115.4 314.8,69.1 292.3,69.1 292.3,65.1 316.6,65.1 347.2,111.4 
				367.2,111.4 			"/>
		</g>
		<g id="XMLID_319_">
			<g id="XMLID_763_">
				<polygon id="XMLID_767_" class="st0" points="54.8,487.5 49.9,491 62.7,491 67.6,487.5 				"/>
				<polygon id="XMLID_766_" class="st0" points="33.9,487.5 29,491 41.8,491 46.8,487.5 				"/>
				<polygon id="XMLID_765_" class="st0" points="96.6,487.5 91.7,491 104.5,491 109.4,487.5 				"/>
				<polygon id="XMLID_764_" class="st0" points="75.7,487.5 70.8,491 83.6,491 88.5,487.5 				"/>
			</g>
			<polygon id="XMLID_759_" class="st1" points="-2.8,79.5 8.1,71.3 28.5,71.3 31.2,69.8 289.5,69.8 292.3,71.3 313,71.3 
				342.2,115.3 -2.8,115.3 			"/>
			<polygon id="XMLID_758_" class="st0" points="905.9,118.2 905.7,475.4 886.4,491 -6.8,491 -6.8,77.4 5.4,68 315,68 345.7,114.4 
				747,114.8 766.9,91.8 889.4,92.1 891.7,90 765.9,90.1 745.4,112.1 345.9,112.1 315.3,67.1 4.7,67.1 -11.8,79 -11.8,493.5 
				-11.8,495.3 26.2,495.3 25.9,495.5 38.7,495.5 39,495.3 47,495.3 46.8,495.5 59.6,495.5 59.9,495.3 67.9,495.3 67.6,495.5 
				80.4,495.5 80.7,495.3 88.8,495.3 88.5,495.5 101.3,495.5 101.6,495.3 886.7,495.5 910.9,475.1 911,113.1 			"/>
			<g id="XMLID_756_">
				<polygon id="XMLID_757_" class="st2" points="914.4,144.9 912.4,148.5 912.4,111.2 893.4,88.1 867.4,88 869.9,86.1 894.4,86.1 
					914.4,110.5 				"/>
			</g>
			<g id="XMLID_689_">
				
					<rect id="XMLID_755_" x="900.4" y="102" transform="matrix(-0.624 -0.7814 0.7814 -0.624 1381.9965 871.5762)" class="st0" width="0.6" height="2.6"/>
				
					<rect id="XMLID_754_" x="891.1" y="90.5" transform="matrix(-0.624 -0.7814 0.7814 -0.624 1375.9003 845.5988)" class="st0" width="0.6" height="2.6"/>
				
					<rect id="XMLID_753_" x="891.8" y="91.4" transform="matrix(-0.624 -0.7814 0.7814 -0.624 1376.3049 847.6487)" class="st0" width="0.6" height="2.6"/>
				
					<rect id="XMLID_752_" x="892.6" y="92.4" transform="matrix(-0.624 -0.7814 0.7814 -0.624 1376.9253 849.8339)" class="st0" width="0.6" height="2.6"/>
				
					<rect id="XMLID_739_" x="893.4" y="93.4" transform="matrix(-0.624 -0.7814 0.7814 -0.624 1377.3704 852.0594)" class="st0" width="0.6" height="2.6"/>
				
					<rect id="XMLID_737_" x="894.2" y="94.3" transform="matrix(-0.624 -0.7814 0.7814 -0.624 1377.9911 854.2445)" class="st0" width="0.6" height="2.6"/>
				
					<rect id="XMLID_736_" x="894.9" y="95.2" transform="matrix(-0.624 -0.7814 0.7814 -0.624 1378.3956 856.2943)" class="st0" width="0.6" height="2.6"/>
				
					<rect id="XMLID_734_" x="895.7" y="96.2" transform="matrix(-0.624 -0.7814 0.7814 -0.624 1379.0161 858.4796)" class="st0" width="0.6" height="2.6"/>
				
					<rect id="XMLID_733_" x="896.5" y="97.2" transform="matrix(-0.624 -0.7814 0.7814 -0.624 1379.4609 860.7051)" class="st0" width="0.6" height="2.6"/>
				
					<rect id="XMLID_731_" x="897.3" y="98.2" transform="matrix(-0.624 -0.7814 0.7814 -0.624 1379.9059 862.9305)" class="st0" width="0.6" height="2.6"/>
				
					<rect id="XMLID_730_" x="898" y="99.1" transform="matrix(-0.624 -0.7814 0.7814 -0.624 1380.4862 864.9399)" class="st0" width="0.6" height="2.6"/>
				
					<rect id="XMLID_728_" x="898.8" y="100.1" transform="matrix(-0.624 -0.7814 0.7814 -0.624 1380.9312 867.1654)" class="st0" width="0.6" height="2.6"/>
				
					<rect id="XMLID_727_" x="899.6" y="101" transform="matrix(-0.624 -0.7814 0.7814 -0.624 1381.5518 869.3507)" class="st0" width="0.6" height="2.6"/>
				
					<rect id="XMLID_725_" x="901.1" y="102.9" transform="matrix(-0.624 -0.7814 0.7814 -0.624 1382.4011 873.626)" class="st0" width="0.6" height="2.6"/>
				
					<rect id="XMLID_723_" x="901.9" y="103.9" transform="matrix(-0.624 -0.7814 0.7814 -0.624 1383.0217 875.811)" class="st0" width="0.6" height="2.6"/>
				
					<rect id="XMLID_697_" x="902.7" y="104.9" transform="matrix(-0.624 -0.7814 0.7814 -0.624 1383.4667 878.0367)" class="st0" width="0.6" height="2.6"/>
				
					<rect id="XMLID_696_" x="903.3" y="105.7" transform="matrix(-0.619 -0.7854 0.7854 -0.619 1378.9103 883.0132)" class="st0" width="0.6" height="2.6"/>
				
					<rect id="XMLID_695_" x="904.2" y="106.7" transform="matrix(-0.619 -0.7854 0.7854 -0.619 1379.52 885.2097)" class="st0" width="0.6" height="2.6"/>
				
					<rect id="XMLID_694_" x="904.9" y="107.7" transform="matrix(-0.619 -0.7854 0.7854 -0.619 1379.9539 887.4451)" class="st0" width="0.6" height="2.6"/>
				
					<rect id="XMLID_693_" x="905.6" y="108.6" transform="matrix(-0.619 -0.7854 0.7854 -0.619 1380.3491 889.5045)" class="st0" width="0.6" height="2.6"/>
				
					<rect id="XMLID_692_" x="906.5" y="109.6" transform="matrix(-0.619 -0.7854 0.7854 -0.619 1380.9589 891.7015)" class="st0" width="0.6" height="2.6"/>
				
					<rect id="XMLID_691_" x="907.2" y="110.6" transform="matrix(-0.619 -0.7854 0.7854 -0.619 1381.3928 893.9368)" class="st0" width="0.6" height="2.6"/>
			</g>
			<g id="XMLID_687_">
				<polygon id="XMLID_688_" class="st2" points="856.6,490.4 856.6,495.9 887,495.9 911,475.8 911,453.6 905.4,453.6 905.4,474.7 
					886.5,490.4 				"/>
			</g>
			<g id="XMLID_341_">
				<g>
					<defs>
						<polygon id="SVGID_1_" points="907.2,117.8 747.7,117.8 768.7,93.4 911,93.4 						"/>
					</defs>
					<clipPath id="SVGID_2_">
						<use xlink:href="#SVGID_1_"  style="overflow:visible;"/>
					</clipPath>
					<g id="XMLID_342_" class="st3">
						<polygon id="XMLID_686_" class="st0" points="786.2,114.5 783.7,114.5 768.8,95.1 771.3,95.1 						"/>
						<polygon id="XMLID_685_" class="st0" points="790.5,114.5 788.1,114.5 773.2,95.1 775.6,95.1 						"/>
						<polygon id="XMLID_684_" class="st0" points="794.9,114.5 792.5,114.5 777.6,95.1 780,95.1 						"/>
						<polygon id="XMLID_683_" class="st0" points="799.3,114.5 796.8,114.5 781.9,95.1 784.4,95.1 						"/>
						<polygon id="XMLID_682_" class="st0" points="803.7,114.5 801.2,114.5 786.3,95.1 788.8,95.1 						"/>
						<polygon id="XMLID_672_" class="st0" points="808.1,114.5 805.6,114.5 790.7,95.1 793.2,95.1 						"/>
						<polygon id="XMLID_651_" class="st0" points="812.5,114.5 810,114.5 795.1,95.1 797.5,95.1 						"/>
						<polygon id="XMLID_650_" class="st0" points="816.8,114.5 814.4,114.5 799.5,95.1 801.9,95.1 						"/>
						<polygon id="XMLID_649_" class="st0" points="751.1,114.5 748.7,114.5 733.8,95.1 736.2,95.1 						"/>
						<polygon id="XMLID_648_" class="st0" points="755.5,114.5 753,114.5 738.1,95.1 740.6,95.1 						"/>
						<polygon id="XMLID_647_" class="st0" points="759.9,114.5 757.4,114.5 742.5,95.1 745,95.1 						"/>
						<polygon id="XMLID_646_" class="st0" points="764.3,114.5 761.8,114.5 746.9,95.1 749.4,95.1 						"/>
						<polygon id="XMLID_645_" class="st0" points="768.6,114.5 766.2,114.5 751.3,95.1 753.7,95.1 						"/>
						<polygon id="XMLID_614_" class="st0" points="773,114.5 770.6,114.5 755.7,95.1 758.1,95.1 						"/>
						<polygon id="XMLID_610_" class="st0" points="777.4,114.5 774.9,114.5 760,95.1 762.5,95.1 						"/>
						<polygon id="XMLID_343_" class="st0" points="781.8,114.5 779.3,114.5 764.4,95.1 766.9,95.1 						"/>
						<polygon id="XMLID_344_" class="st0" points="821.2,114.5 818.8,114.5 803.8,95.1 806.3,95.1 						"/>
						<polygon id="XMLID_345_" class="st0" points="825.6,114.5 823.1,114.5 808.2,95.1 810.7,95.1 						"/>
						<polygon id="XMLID_346_" class="st0" points="834.4,114.5 831.9,114.5 817,95.1 819.5,95.1 						"/>
						<polygon id="XMLID_347_" class="st0" points="830,114.5 827.5,114.5 812.6,95.1 815.1,95.1 						"/>
						<polygon id="XMLID_348_" class="st0" points="843.1,114.5 840.7,114.5 825.8,95.1 828.2,95.1 						"/>
						<polygon id="XMLID_349_" class="st0" points="851.9,114.5 849.4,114.5 834.5,95.1 837,95.1 						"/>
						<polygon id="XMLID_351_" class="st0" points="869.4,114.5 866.9,114.5 852,95.1 854.5,95.1 						"/>
						<polygon id="XMLID_353_" class="st0" points="886.9,114.5 884.5,114.5 869.6,95.1 872,95.1 						"/>
						<polygon id="XMLID_355_" class="st0" points="860.6,114.5 858.2,114.5 843.3,95.1 845.7,95.1 						"/>
						<polygon id="XMLID_357_" class="st0" points="878.2,114.5 875.7,114.5 860.8,95.1 863.3,95.1 						"/>
						<polygon id="XMLID_359_" class="st0" points="895.7,114.5 893.2,114.5 878.3,95.1 880.8,95.1 						"/>
						<polygon id="XMLID_361_" class="st0" points="904.4,114.5 902,114.5 887.1,95.1 889.5,95.1 						"/>
						<polygon id="XMLID_363_" class="st0" points="838.7,114.5 836.3,114.5 821.4,95.1 823.8,95.1 						"/>
						<polygon id="XMLID_367_" class="st0" points="847.5,114.5 845,114.5 830.1,95.1 832.6,95.1 						"/>
						<polygon id="XMLID_369_" class="st0" points="856.3,114.5 853.8,114.5 838.9,95.1 841.4,95.1 						"/>
						<polygon id="XMLID_370_" class="st0" points="873.8,114.5 871.3,114.5 856.4,95.1 858.9,95.1 						"/>
						<polygon id="XMLID_371_" class="st0" points="865,114.5 862.6,114.5 847.7,95.1 850.1,95.1 						"/>
						<polygon id="XMLID_372_" class="st0" points="882.5,114.5 880.1,114.5 865.2,95.1 867.6,95.1 						"/>
						<polygon id="XMLID_373_" class="st0" points="891.3,114.5 888.8,114.5 873.9,95.1 876.4,95.1 						"/>
						<polygon id="XMLID_374_" class="st0" points="900.1,114.5 897.6,114.5 882.7,95.1 885.2,95.1 						"/>
					</g>
				</g>
			</g>
		</g>
		<g id="XMLID_377_">
			<polygon id="XMLID_378_" class="st2" points="-6,120.2 -12.4,120.2 -12.4,78.6 4.5,65.9 28.5,65.9 28.5,68.9 5.5,68.9 -6,77.5 
							"/>
		</g>
	</g>
	<g id="XMLID_522_">
		<line id="XMLID_525_" class="st4" x1="311.2" y1="138.9" x2="311.2" y2="466.8"/>
		<line id="XMLID_524_" class="st5" x1="311.2" y1="137.9" x2="311.2" y2="154.9"/>
		<line id="XMLID_523_" class="st5" x1="311.2" y1="451.3" x2="311.2" y2="466.8"/>
	</g>
	<g id="XMLID_518_">
		<line id="XMLID_521_" class="st4" x1="605.4" y1="138.9" x2="605.4" y2="466.8"/>
		<line id="XMLID_520_" class="st5" x1="605.4" y1="137.9" x2="605.4" y2="154.9"/>
		<line id="XMLID_519_" class="st5" x1="605.4" y1="451.3" x2="605.4" y2="466.8"/>
	</g>
</g>
</svg>
