<?xml version="1.0" encoding="utf-8"?>
<!-- Generator: Adobe Illustrator 19.0.0, SVG Export Plug-In . SVG Version: 6.00 Build 0)  -->
<svg version="1.1" id="图层_1" xmlns="http://www.w3.org/2000/svg" xmlns:xlink="http://www.w3.org/1999/xlink" x="0px" y="0px"
	 viewBox="0 0 930 480" style="enable-background:new 0 0 930 480;" xml:space="preserve">
<style type="text/css">
	.plantBorderOne0{fill:#1561C0;}
	.plantBorderOne1{opacity:0.6;fill:#1561C0;fill-opacity:0.6;stroke:#1561C0;stroke-miterlimit:10;}
	.plantBorderOne2{fill:#00BEFF;}
	.plantBorderOne3{clip-path:url(#XMLID_30_);}
	.plantBorderOne4{fill:none;stroke:#1561C0;stroke-miterlimit:10;}
	.plantBorderOne5{fill:none;stroke:#00BEFF;stroke-width:2;stroke-miterlimit:10;}
</style>
<g id="XMLID_1_">
	<g id="XMLID_388_">
		<g id="XMLID_392_">
			<polygon id="XMLID_12694_" class="plantBorderOne0" points="376.2,53 354.3,53 323.7,6.6 301.3,6.6 301.3,2.6 325.5,2.6 356.1,49 376.2,49 
							"/>
		</g>
		<g id="XMLID_393_">
			<g id="XMLID_394_">
				<polygon id="XMLID_12690_" class="plantBorderOne0" points="68.8,469 63.9,472.5 76.7,472.5 81.6,469 				"/>
				<polygon id="XMLID_12691_" class="plantBorderOne0" points="47.9,469 43,472.5 55.8,472.5 60.8,469 				"/>
				<polygon id="XMLID_12692_" class="plantBorderOne0" points="110.6,469 105.7,472.5 118.5,472.5 123.4,469 				"/>
				<polygon id="XMLID_12693_" class="plantBorderOne0" points="89.7,469 84.8,472.5 97.6,472.5 102.5,469 				"/>
			</g>
			<polygon id="XMLID_398_" class="plantBorderOne1" points="11.2,17 22.1,8.8 42.5,8.8 45.2,7.3 298.4,7.3 301.3,8.8 321.9,8.8 351.1,52.8 
				11.2,52.8 			"/>
			<polygon id="XMLID_399_" class="plantBorderOne0" points="919.9,55.8 919.7,455.7 900.4,472.5 7.2,472.5 7.2,14.9 19.4,5.5 323.9,5.5 
				354.6,51.9 761,52.3 780.9,29.3 903.4,29.6 905.7,27.5 779.9,27.6 759.4,49.6 354.9,49.6 324.2,4.6 18.7,4.6 2.2,16.5 2.2,475 
				2.2,476.8 40.2,476.8 39.9,477 52.7,477 53,476.8 61,476.8 60.8,477 73.6,477 73.9,476.8 81.9,476.8 81.6,477 94.4,477 
				94.7,476.8 102.8,476.8 102.5,477 115.3,477 115.6,476.8 898.6,477 924.9,456.1 925,50.6 			"/>
			<g id="XMLID_400_">
				<polygon id="XMLID_12699_" class="plantBorderOne2" points="928.4,68.4 926.4,70.9 926.4,48.7 907.4,25.6 881.4,25.5 883.9,23.6 908.4,23.6 
					928.4,48 				"/>
			</g>
			<g id="XMLID_401_">
				
					<rect id="XMLID_632_" x="914.4" y="39.5" transform="matrix(0.624 0.7814 -0.7814 0.624 375.8018 -699.3959)" class="plantBorderOne0" width="0.6" height="2.6"/>
				
					<rect id="XMLID_629_" x="905.1" y="28" transform="matrix(0.624 0.7814 -0.7814 0.624 363.3212 -696.4749)" class="plantBorderOne0" width="0.6" height="2.6"/>
				
					<rect id="XMLID_628_" x="905.8" y="29" transform="matrix(0.624 0.7814 -0.7814 0.624 364.3612 -696.7183)" class="plantBorderOne0" width="0.6" height="2.6"/>
				
					<rect id="XMLID_627_" x="906.6" y="29.9" transform="matrix(0.624 0.7814 -0.7814 0.624 365.4013 -696.9617)" class="plantBorderOne0" width="0.6" height="2.6"/>
				
					<rect id="XMLID_626_" x="907.4" y="30.9" transform="matrix(0.624 0.7814 -0.7814 0.624 366.4413 -697.2051)" class="plantBorderOne0" width="0.6" height="2.6"/>
				
					<rect id="XMLID_625_" x="908.2" y="31.8" transform="matrix(0.624 0.7814 -0.7814 0.624 367.4814 -697.4485)" class="plantBorderOne0" width="0.6" height="2.6"/>
				
					<rect id="XMLID_624_" x="908.9" y="32.8" transform="matrix(0.624 0.7814 -0.7814 0.624 368.5214 -697.692)" class="plantBorderOne0" width="0.6" height="2.6"/>
				
					<rect id="XMLID_623_" x="909.7" y="33.8" transform="matrix(0.624 0.7814 -0.7814 0.624 369.5615 -697.9354)" class="plantBorderOne0" width="0.6" height="2.6"/>
				
					<rect id="XMLID_622_" x="910.5" y="34.7" transform="matrix(0.624 0.7814 -0.7814 0.624 370.6015 -698.1788)" class="plantBorderOne0" width="0.6" height="2.6"/>
				
					<rect id="XMLID_621_" x="911.3" y="35.7" transform="matrix(0.624 0.7814 -0.7814 0.624 371.6416 -698.4222)" class="plantBorderOne0" width="0.6" height="2.6"/>
				
					<rect id="XMLID_620_" x="912" y="36.6" transform="matrix(0.624 0.7814 -0.7814 0.624 372.6816 -698.6656)" class="plantBorderOne0" width="0.6" height="2.6"/>
				
					<rect id="XMLID_619_" x="912.8" y="37.6" transform="matrix(0.624 0.7814 -0.7814 0.624 373.7217 -698.9091)" class="plantBorderOne0" width="0.6" height="2.6"/>
				
					<rect id="XMLID_618_" x="913.6" y="38.6" transform="matrix(0.624 0.7814 -0.7814 0.624 374.7617 -699.1525)" class="plantBorderOne0" width="0.6" height="2.6"/>
				
					<rect id="XMLID_617_" x="915.1" y="40.5" transform="matrix(0.624 0.7814 -0.7814 0.624 376.8419 -699.6393)" class="plantBorderOne0" width="0.6" height="2.6"/>
				
					<rect id="XMLID_616_" x="915.9" y="41.4" transform="matrix(0.624 0.7814 -0.7814 0.624 377.8819 -699.8828)" class="plantBorderOne0" width="0.6" height="2.6"/>
				
					<rect id="XMLID_615_" x="916.7" y="42.4" transform="matrix(0.624 0.7814 -0.7814 0.624 378.922 -700.1262)" class="plantBorderOne0" width="0.6" height="2.6"/>
				
					<rect id="XMLID_607_" x="917.3" y="43.3" transform="matrix(0.619 0.7854 -0.7854 0.619 384.6798 -703.742)" class="plantBorderOne0" width="0.6" height="2.6"/>
				
					<rect id="XMLID_606_" x="918.1" y="44.3" transform="matrix(0.619 0.7854 -0.7854 0.619 385.7292 -703.9769)" class="plantBorderOne0" width="0.6" height="2.6"/>
				
					<rect id="XMLID_605_" x="918.9" y="45.2" transform="matrix(0.619 0.7854 -0.7854 0.619 386.7785 -704.2119)" class="plantBorderOne0" width="0.6" height="2.6"/>
				
					<rect id="XMLID_604_" x="919.6" y="46.2" transform="matrix(0.619 0.7854 -0.7854 0.619 387.8278 -704.4468)" class="plantBorderOne0" width="0.6" height="2.6"/>
				
					<rect id="XMLID_603_" x="920.4" y="47.2" transform="matrix(0.619 0.7854 -0.7854 0.619 388.8771 -704.6817)" class="plantBorderOne0" width="0.6" height="2.6"/>
				
					<rect id="XMLID_602_" x="921.2" y="48.1" transform="matrix(0.619 0.7854 -0.7854 0.619 389.9265 -704.9166)" class="plantBorderOne0" width="0.6" height="2.6"/>
			</g>
			<g id="XMLID_402_">
				<polygon id="XMLID_403_" class="plantBorderOne2" points="870.6,471.8 870.6,477.4 901,477.4 925,457.3 925,435.1 919.4,435.1 919.4,456.2 
					900.5,471.8 				"/>
			</g>
			<g id="XMLID_404_">
				<defs>
					<polygon id="XMLID_405_" points="921.2,55.3 761.7,55.3 782.7,30.9 925,30.9 					"/>
				</defs>
				<clipPath id="XMLID_30_">
					<use xlink:href="#XMLID_405_"  style="overflow:visible;"/>
				</clipPath>
				<g id="XMLID_12700_" class="plantBorderOne3">
					<polygon id="XMLID_601_" class="plantBorderOne0" points="800.2,52 797.7,52 782.8,32.6 785.3,32.6 					"/>
					<polygon id="XMLID_600_" class="plantBorderOne0" points="804.5,52 802.1,52 787.2,32.6 789.6,32.6 					"/>
					<polygon id="XMLID_599_" class="plantBorderOne0" points="808.9,52 806.5,52 791.6,32.6 794,32.6 					"/>
					<polygon id="XMLID_598_" class="plantBorderOne0" points="813.3,52 810.8,52 795.9,32.6 798.4,32.6 					"/>
					<polygon id="XMLID_597_" class="plantBorderOne0" points="817.7,52 815.2,52 800.3,32.6 802.8,32.6 					"/>
					<polygon id="XMLID_596_" class="plantBorderOne0" points="822.1,52 819.6,52 804.7,32.6 807.2,32.6 					"/>
					<polygon id="XMLID_595_" class="plantBorderOne0" points="826.5,52 824,52 809.1,32.6 811.5,32.6 					"/>
					<polygon id="XMLID_594_" class="plantBorderOne0" points="830.8,52 828.4,52 813.5,32.6 815.9,32.6 					"/>
					<polygon id="XMLID_582_" class="plantBorderOne0" points="765.1,52 762.7,52 747.8,32.6 750.2,32.6 					"/>
					<polygon id="XMLID_574_" class="plantBorderOne0" points="769.5,52 767,52 752.1,32.6 754.6,32.6 					"/>
					<polygon id="XMLID_572_" class="plantBorderOne0" points="773.9,52 771.4,52 756.5,32.6 759,32.6 					"/>
					<polygon id="XMLID_571_" class="plantBorderOne0" points="778.3,52 775.8,52 760.9,32.6 763.4,32.6 					"/>
					<polygon id="XMLID_570_" class="plantBorderOne0" points="782.6,52 780.2,52 765.3,32.6 767.7,32.6 					"/>
					<polygon id="XMLID_569_" class="plantBorderOne0" points="787,52 784.6,52 769.7,32.6 772.1,32.6 					"/>
					<polygon id="XMLID_566_" class="plantBorderOne0" points="791.4,52 788.9,52 774,32.6 776.5,32.6 					"/>
					<polygon id="XMLID_565_" class="plantBorderOne0" points="795.8,52 793.3,52 778.4,32.6 780.9,32.6 					"/>
					<polygon id="XMLID_564_" class="plantBorderOne0" points="835.2,52 832.8,52 817.8,32.6 820.3,32.6 					"/>
					<polygon id="XMLID_563_" class="plantBorderOne0" points="839.6,52 837.1,52 822.2,32.6 824.7,32.6 					"/>
					<polygon id="XMLID_559_" class="plantBorderOne0" points="848.4,52 845.9,52 831,32.6 833.5,32.6 					"/>
					<polygon id="XMLID_558_" class="plantBorderOne0" points="844,52 841.5,52 826.6,32.6 829.1,32.6 					"/>
					<polygon id="XMLID_551_" class="plantBorderOne0" points="857.1,52 854.7,52 839.8,32.6 842.2,32.6 					"/>
					<polygon id="XMLID_546_" class="plantBorderOne0" points="865.9,52 863.4,52 848.5,32.6 851,32.6 					"/>
					<polygon id="XMLID_545_" class="plantBorderOne0" points="883.4,52 880.9,52 866,32.6 868.5,32.6 					"/>
					<polygon id="XMLID_540_" class="plantBorderOne0" points="900.9,52 898.5,52 883.6,32.6 886,32.6 					"/>
					<polygon id="XMLID_539_" class="plantBorderOne0" points="874.6,52 872.2,52 857.3,32.6 859.7,32.6 					"/>
					<polygon id="XMLID_533_" class="plantBorderOne0" points="892.2,52 889.7,52 874.8,32.6 877.3,32.6 					"/>
					<polygon id="XMLID_527_" class="plantBorderOne0" points="909.7,52 907.2,52 892.3,32.6 894.8,32.6 					"/>
					<polygon id="XMLID_471_" class="plantBorderOne0" points="918.4,52 916,52 901.1,32.6 903.5,32.6 					"/>
					<polygon id="XMLID_406_" class="plantBorderOne0" points="852.7,52 850.3,52 835.4,32.6 837.8,32.6 					"/>
					<polygon id="XMLID_407_" class="plantBorderOne0" points="861.5,52 859,52 844.1,32.6 846.6,32.6 					"/>
					<polygon id="XMLID_408_" class="plantBorderOne0" points="870.3,52 867.8,52 852.9,32.6 855.4,32.6 					"/>
					<polygon id="XMLID_409_" class="plantBorderOne0" points="887.8,52 885.3,52 870.4,32.6 872.9,32.6 					"/>
					<polygon id="XMLID_410_" class="plantBorderOne0" points="879,52 876.6,52 861.7,32.6 864.1,32.6 					"/>
					<polygon id="XMLID_411_" class="plantBorderOne0" points="896.5,52 894.1,52 879.2,32.6 881.6,32.6 					"/>
					<polygon id="XMLID_412_" class="plantBorderOne0" points="905.3,52 902.8,52 887.9,32.6 890.4,32.6 					"/>
					<polygon id="XMLID_414_" class="plantBorderOne0" points="914.1,52 911.6,52 896.7,32.6 899.2,32.6 					"/>
				</g>
			</g>
		</g>
		<g id="XMLID_417_">
			<polygon id="XMLID_12695_" class="plantBorderOne2" points="8,57.8 1.6,57.8 1.6,16.1 18.5,3.4 42.5,3.4 42.5,6.4 19.5,6.4 8,15 			"/>
		</g>
	</g>
	<g id="XMLID_491_">
		<line id="XMLID_499_" class="plantBorderOne4" x1="322.1" y1="92.7" x2="322.1" y2="440.6"/>
		<line id="XMLID_501_" class="plantBorderOne5" x1="322.1" y1="91.7" x2="322.1" y2="108.8"/>
		<line id="XMLID_503_" class="plantBorderOne5" x1="322.1" y1="425.1" x2="322.1" y2="440.6"/>
	</g>
	<g id="XMLID_504_">
		<line id="XMLID_505_" class="plantBorderOne4" x1="616.3" y1="92.7" x2="616.3" y2="440.6"/>
		<line id="XMLID_510_" class="plantBorderOne5" x1="616.3" y1="91.7" x2="616.3" y2="108.8"/>
		<line id="XMLID_511_" class="plantBorderOne5" x1="616.3" y1="425.1" x2="616.3" y2="440.6"/>
	</g>
</g>
</svg>
