<?xml version="1.0" encoding="utf-8"?>
<!-- Generator: Adobe Illustrator 19.0.0, SVG Export Plug-In . SVG Version: 6.00 Build 0)  -->
<svg version="1.1" id="图层_1" xmlns="http://www.w3.org/2000/svg" xmlns:xlink="http://www.w3.org/1999/xlink" x="0px" y="0px"
	 viewBox="0 0 950 430" style="enable-background:new 0 0 950 430;" xml:space="preserve">
<style type="text/css">
	.plantFour0{fill:none;stroke:#1561C0;stroke-miterlimit:10;}
	.plantFour1{fill:none;stroke:#00BEFF;stroke-width:2;stroke-miterlimit:10;}
	.plantFour2{fill:#1561C0;}
	.plantFour3{opacity:0.6;fill:#1561C0;fill-opacity:0.6;stroke:#1561C0;stroke-miterlimit:10;}
	.plantFour4{fill:#00BEFF;}
	.plantFour5{clip-path:url(#XMLID_9_);}
</style>
<g id="XMLID_1_">
	<g id="XMLID_12946_">
		<line id="XMLID_12947_" class="plantFour0" x1="466" y1="82.2" x2="466" y2="387.1"/>
		<line id="XMLID_12948_" class="plantFour1" x1="466" y1="81.2" x2="466" y2="98.3"/>
		<line id="XMLID_12949_" class="plantFour1" x1="466" y1="371.6" x2="466" y2="387.1"/>
	</g>
	<polygon id="XMLID_12953_" class="plantFour2" points="429.7,52.5 407.8,52.5 377.3,6.1 354.8,6.1 354.8,2.1 379.1,2.1 409.7,48.5 
		429.7,48.5 	"/>
	<polygon id="XMLID_12957_" class="plantFour3" points="10.2,16.7 21,8.5 41.4,8.5 44.2,7 351.4,7 354.3,8.5 374.9,8.5 404.1,52.5 
		10.2,52.5 	"/>
	<g id="XMLID_12958_">
		<polygon id="XMLID_12959_" class="plantFour2" points="68.3,419.4 63.4,423 76.2,423 81.1,419.4 		"/>
		<polygon id="XMLID_12960_" class="plantFour2" points="47.4,419.4 42.5,423 55.3,423 60.3,419.4 		"/>
		<polygon id="XMLID_12961_" class="plantFour2" points="110.1,419.4 105.2,423 118,423 122.9,419.4 		"/>
		<polygon id="XMLID_12962_" class="plantFour2" points="89.2,419.4 84.3,423 97.1,423 102,419.4 		"/>
	</g>
	<polygon id="XMLID_12963_" class="plantFour2" points="940.4,55.3 940.2,406.5 920.9,423 6.7,423 6.7,14.5 18.9,5.1 377.5,5.1 408.2,51.5 
		781.5,51.8 801.4,28.8 923.9,29.1 926.2,27.1 800.4,27.1 779.9,49.1 408.4,49.2 377.8,4.1 18.2,4.1 1.7,16.1 1.7,425.4 1.7,427.3 
		39.7,427.3 39.4,427.5 52.2,427.5 52.5,427.3 60.5,427.3 60.3,427.5 73.1,427.5 73.4,427.3 81.4,427.3 81.1,427.5 93.9,427.5 
		94.2,427.3 102.3,427.3 102,427.5 114.8,427.5 115.1,427.3 921.4,427.5 945.4,406.9 945.5,50.2 	"/>
	<g id="XMLID_12964_">
		<polygon id="XMLID_12965_" class="plantFour4" points="948.9,67.9 946.9,70.5 946.9,48.3 927.9,25.2 901.9,25.1 904.4,23.2 928.9,23.2 
			948.9,47.6 		"/>
	</g>
	<g id="XMLID_12966_">
		
			<rect id="XMLID_12967_" x="934.9" y="39.1" transform="matrix(0.624 0.7814 -0.7814 0.624 383.1602 -715.583)" class="plantFour2" width="0.6" height="2.6"/>
		
			<rect id="XMLID_12968_" x="925.6" y="27.6" transform="matrix(0.624 0.7814 -0.7814 0.624 370.6795 -712.662)" class="plantFour2" width="0.6" height="2.6"/>
		
			<rect id="XMLID_12969_" x="926.3" y="28.5" transform="matrix(0.624 0.7814 -0.7814 0.624 371.7196 -712.9055)" class="plantFour2" width="0.6" height="2.6"/>
		
			<rect id="XMLID_12970_" x="927.1" y="29.5" transform="matrix(0.624 0.7814 -0.7814 0.624 372.7596 -713.1489)" class="plantFour2" width="0.6" height="2.6"/>
		
			<rect id="XMLID_12971_" x="927.9" y="30.4" transform="matrix(0.624 0.7814 -0.7814 0.624 373.7997 -713.3923)" class="plantFour2" width="0.6" height="2.6"/>
		
			<rect id="XMLID_12972_" x="928.7" y="31.4" transform="matrix(0.624 0.7814 -0.7814 0.624 374.8397 -713.6357)" class="plantFour2" width="0.6" height="2.6"/>
		
			<rect id="XMLID_12973_" x="929.4" y="32.4" transform="matrix(0.624 0.7814 -0.7814 0.624 375.8798 -713.8791)" class="plantFour2" width="0.6" height="2.6"/>
		
			<rect id="XMLID_12974_" x="930.2" y="33.3" transform="matrix(0.624 0.7814 -0.7814 0.624 376.9198 -714.1225)" class="plantFour2" width="0.6" height="2.6"/>
		
			<rect id="XMLID_12975_" x="931" y="34.3" transform="matrix(0.624 0.7814 -0.7814 0.624 377.9599 -714.366)" class="plantFour2" width="0.6" height="2.6"/>
		
			<rect id="XMLID_12976_" x="931.8" y="35.2" transform="matrix(0.624 0.7814 -0.7814 0.624 378.9999 -714.6094)" class="plantFour2" width="0.6" height="2.6"/>
		
			<rect id="XMLID_12977_" x="932.5" y="36.2" transform="matrix(0.624 0.7814 -0.7814 0.624 380.04 -714.8528)" class="plantFour2" width="0.6" height="2.6"/>
		
			<rect id="XMLID_12978_" x="933.3" y="37.1" transform="matrix(0.624 0.7814 -0.7814 0.624 381.08 -715.0962)" class="plantFour2" width="0.6" height="2.6"/>
		
			<rect id="XMLID_12979_" x="934.1" y="38.1" transform="matrix(0.624 0.7814 -0.7814 0.624 382.1201 -715.3396)" class="plantFour2" width="0.6" height="2.6"/>
		
			<rect id="XMLID_12980_" x="935.6" y="40" transform="matrix(0.624 0.7814 -0.7814 0.624 384.2002 -715.8265)" class="plantFour2" width="0.6" height="2.6"/>
		
			<rect id="XMLID_12981_" x="936.4" y="41" transform="matrix(0.624 0.7814 -0.7814 0.624 385.2403 -716.0699)" class="plantFour2" width="0.6" height="2.6"/>
		
			<rect id="XMLID_12982_" x="937.2" y="41.9" transform="matrix(0.624 0.7814 -0.7814 0.624 386.2803 -716.3133)" class="plantFour2" width="0.6" height="2.6"/>
		
			<rect id="XMLID_12983_" x="937.8" y="42.8" transform="matrix(0.619 0.7854 -0.7854 0.619 392.1398 -720.0135)" class="plantFour2" width="0.6" height="2.6"/>
		
			<rect id="XMLID_12984_" x="938.6" y="43.8" transform="matrix(0.619 0.7854 -0.7854 0.619 393.1892 -720.2484)" class="plantFour2" width="0.6" height="2.6"/>
		
			<rect id="XMLID_12985_" x="939.4" y="44.8" transform="matrix(0.619 0.7854 -0.7854 0.619 394.2385 -720.4833)" class="plantFour2" width="0.6" height="2.6"/>
		
			<rect id="XMLID_12986_" x="940.1" y="45.7" transform="matrix(0.619 0.7854 -0.7854 0.619 395.2878 -720.7183)" class="plantFour2" width="0.6" height="2.6"/>
		
			<rect id="XMLID_12987_" x="940.9" y="46.7" transform="matrix(0.619 0.7854 -0.7854 0.619 396.3372 -720.9532)" class="plantFour2" width="0.6" height="2.6"/>
		
			<rect id="XMLID_12988_" x="941.7" y="47.7" transform="matrix(0.619 0.7854 -0.7854 0.619 397.3865 -721.1881)" class="plantFour2" width="0.6" height="2.6"/>
	</g>
	<g id="XMLID_12989_">
		<polygon id="XMLID_12990_" class="plantFour4" points="891.1,422.3 891.1,427.9 921.5,427.9 945.5,407.7 945.5,385.5 939.9,385.5 
			939.9,406.6 921,422.3 		"/>
	</g>
	<g id="XMLID_12991_">
		<defs>
			<polygon id="XMLID_13029_" points="941.7,54.8 782.2,54.8 803.2,30.5 945.5,30.5 			"/>
		</defs>
		<clipPath id="XMLID_9_">
			<use xlink:href="#XMLID_13029_"  style="overflow:visible;"/>
		</clipPath>
		<g id="XMLID_12992_" class="plantFour5">
			<polygon id="XMLID_12993_" class="plantFour2" points="820.7,51.6 818.2,51.6 803.3,32.1 805.8,32.1 			"/>
			<polygon id="XMLID_12994_" class="plantFour2" points="825,51.6 822.6,51.6 807.7,32.1 810.1,32.1 			"/>
			<polygon id="XMLID_12995_" class="plantFour2" points="829.4,51.6 827,51.6 812.1,32.1 814.5,32.1 			"/>
			<polygon id="XMLID_12996_" class="plantFour2" points="833.8,51.6 831.3,51.6 816.4,32.1 818.9,32.1 			"/>
			<polygon id="XMLID_12997_" class="plantFour2" points="838.2,51.6 835.7,51.6 820.8,32.1 823.3,32.1 			"/>
			<polygon id="XMLID_12998_" class="plantFour2" points="842.6,51.6 840.1,51.6 825.2,32.1 827.7,32.1 			"/>
			<polygon id="XMLID_12999_" class="plantFour2" points="847,51.6 844.5,51.6 829.6,32.1 832,32.1 			"/>
			<polygon id="XMLID_13000_" class="plantFour2" points="851.3,51.6 848.9,51.6 834,32.1 836.4,32.1 			"/>
			<polygon id="XMLID_13001_" class="plantFour2" points="785.6,51.6 783.2,51.6 768.3,32.1 770.7,32.1 			"/>
			<polygon id="XMLID_13002_" class="plantFour2" points="790,51.6 787.5,51.6 772.6,32.1 775.1,32.1 			"/>
			<polygon id="XMLID_13003_" class="plantFour2" points="794.4,51.6 791.9,51.6 777,32.1 779.5,32.1 			"/>
			<polygon id="XMLID_13004_" class="plantFour2" points="798.8,51.6 796.3,51.6 781.4,32.1 783.9,32.1 			"/>
			<polygon id="XMLID_13005_" class="plantFour2" points="803.1,51.6 800.7,51.6 785.8,32.1 788.2,32.1 			"/>
			<polygon id="XMLID_13006_" class="plantFour2" points="807.5,51.6 805.1,51.6 790.2,32.1 792.6,32.1 			"/>
			<polygon id="XMLID_13007_" class="plantFour2" points="811.9,51.6 809.4,51.6 794.5,32.1 797,32.1 			"/>
			<polygon id="XMLID_13008_" class="plantFour2" points="816.3,51.6 813.8,51.6 798.9,32.1 801.4,32.1 			"/>
			<polygon id="XMLID_13009_" class="plantFour2" points="855.7,51.6 853.3,51.6 838.3,32.1 840.8,32.1 			"/>
			<polygon id="XMLID_13010_" class="plantFour2" points="860.1,51.6 857.6,51.6 842.7,32.1 845.2,32.1 			"/>
			<polygon id="XMLID_13011_" class="plantFour2" points="868.9,51.6 866.4,51.6 851.5,32.1 854,32.1 			"/>
			<polygon id="XMLID_13012_" class="plantFour2" points="864.5,51.6 862,51.6 847.1,32.1 849.6,32.1 			"/>
			<polygon id="XMLID_13013_" class="plantFour2" points="877.6,51.6 875.2,51.6 860.3,32.1 862.7,32.1 			"/>
			<polygon id="XMLID_13014_" class="plantFour2" points="886.4,51.6 883.9,51.6 869,32.1 871.5,32.1 			"/>
			<polygon id="XMLID_13015_" class="plantFour2" points="903.9,51.6 901.4,51.6 886.5,32.1 889,32.1 			"/>
			<polygon id="XMLID_13016_" class="plantFour2" points="921.4,51.6 919,51.6 904.1,32.1 906.5,32.1 			"/>
			<polygon id="XMLID_13017_" class="plantFour2" points="895.1,51.6 892.7,51.6 877.8,32.1 880.2,32.1 			"/>
			<polygon id="XMLID_13018_" class="plantFour2" points="912.7,51.6 910.2,51.6 895.3,32.1 897.8,32.1 			"/>
			<polygon id="XMLID_13019_" class="plantFour2" points="930.2,51.6 927.7,51.6 912.8,32.1 915.3,32.1 			"/>
			<polygon id="XMLID_13020_" class="plantFour2" points="938.9,51.6 936.5,51.6 921.6,32.1 924,32.1 			"/>
			<polygon id="XMLID_13021_" class="plantFour2" points="873.2,51.6 870.8,51.6 855.9,32.1 858.3,32.1 			"/>
			<polygon id="XMLID_13022_" class="plantFour2" points="882,51.6 879.5,51.6 864.6,32.1 867.1,32.1 			"/>
			<polygon id="XMLID_13023_" class="plantFour2" points="890.8,51.6 888.3,51.6 873.4,32.1 875.9,32.1 			"/>
			<polygon id="XMLID_13024_" class="plantFour2" points="908.3,51.6 905.8,51.6 890.9,32.1 893.4,32.1 			"/>
			<polygon id="XMLID_13025_" class="plantFour2" points="899.5,51.6 897.1,51.6 882.2,32.1 884.6,32.1 			"/>
			<polygon id="XMLID_13026_" class="plantFour2" points="917,51.6 914.6,51.6 899.7,32.1 902.1,32.1 			"/>
			<polygon id="XMLID_13027_" class="plantFour2" points="925.8,51.6 923.3,51.6 908.4,32.1 910.9,32.1 			"/>
			<polygon id="XMLID_13028_" class="plantFour2" points="934.6,51.6 932.1,51.6 917.2,32.1 919.7,32.1 			"/>
		</g>
	</g>
	<polygon id="XMLID_13030_" class="plantFour4" points="7.5,57.3 1.1,57.3 1.1,15.6 18,3 42,3 42,6 19,6 7.5,14.6 	"/>
</g>
</svg>
