<?xml version="1.0" encoding="utf-8"?>
<!-- Generator: Adobe Illustrator 19.0.0, SVG Export Plug-In . SVG Version: 6.00 Build 0)  -->
<svg version="1.1" id="图层_1" xmlns="http://www.w3.org/2000/svg" xmlns:xlink="http://www.w3.org/1999/xlink" x="0px" y="0px"
	 viewBox="0 0 950 460" style="enable-background:new 0 0 950 460;" xml:space="preserve">
<style type="text/css">
	.plantBorderTwo0{fill:#1561C0;}
	.plantBorderTwo1{opacity:0.6;fill:#1561C0;fill-opacity:0.6;stroke:#1561C0;stroke-miterlimit:10;}
	.plantBorderTwo2{fill:#00BEFF;}
	.plantBorderTwo3{clip-path:url(#XMLID_153_);fill:#1561C0;}
	.plantBorderTwo4{clip-path:url(#XMLID_154_);fill:#1561C0;}
	.plantBorderTwo5{fill:none;stroke:#1561C0;stroke-width:1.0476;stroke-miterlimit:10;}
	.plantBorderTwo6{fill:none;stroke:#00BEFF;stroke-width:2.0953;stroke-miterlimit:10;}
	.plantBorderTwo7{fill:none;stroke:#1561C0;stroke-miterlimit:10;}
	.plantBorderTwo8{fill:none;stroke:#00BEFF;stroke-width:2;stroke-miterlimit:10;}
</style>
<g id="XMLID_1_">
	<polygon id="XMLID_2997_" class="plantBorderTwo0" points="429.7,52.5 407.8,52.5 377.3,6.1 354.8,6.1 354.8,2.1 379.1,2.1 409.7,48.5 
		429.7,48.5 	"/>
	<polygon id="XMLID_2996_" class="plantBorderTwo0" points="68.3,449.4 63.4,453 76.2,453 81.1,449.4 	"/>
	<polygon id="XMLID_2995_" class="plantBorderTwo0" points="47.4,449.4 42.5,453 55.3,453 60.3,449.4 	"/>
	<polygon id="XMLID_2994_" class="plantBorderTwo0" points="110.1,449.4 105.2,453 118,453 122.9,449.4 	"/>
	<polygon id="XMLID_2993_" class="plantBorderTwo0" points="89.2,449.4 84.3,453 97.1,453 102,449.4 	"/>
	<polygon id="XMLID_2989_" class="plantBorderTwo1" points="10.7,16.6 21.6,8.3 42,8.3 44.7,6.8 352,6.8 354.8,8.3 375.5,8.3 404.7,52.4 
		10.7,52.4 	"/>
	<polygon id="XMLID_2988_" class="plantBorderTwo0" points="940.4,55.3 940.2,436.5 920.9,453 6.7,453 6.7,14.5 18.9,5.1 377.5,5.1 408.2,51.5 
		781.5,51.8 801.4,28.8 923.9,29.1 926.2,27.1 800.4,27.1 779.9,49.1 408.4,49.2 377.8,4.1 18.2,4.1 1.7,16.1 1.7,455.4 1.7,457.3 
		39.7,457.3 39.4,457.5 52.2,457.5 52.5,457.3 60.5,457.3 60.3,457.5 73.1,457.5 73.4,457.3 81.4,457.3 81.1,457.5 93.9,457.5 
		94.2,457.3 102.3,457.3 102,457.5 114.8,457.5 115.1,457.3 921.4,457.5 945.4,436.9 945.5,50.2 	"/>
	<polygon id="XMLID_2987_" class="plantBorderTwo2" points="948.9,67.9 946.9,70.5 946.9,48.3 927.9,25.2 901.9,25.1 904.4,23.2 928.9,23.2 
		948.9,47.6 	"/>
	
		<rect id="XMLID_2986_" x="934.9" y="39.1" transform="matrix(0.624 0.7814 -0.7814 0.624 383.1602 -715.583)" class="plantBorderTwo0" width="0.6" height="2.6"/>
	
		<rect id="XMLID_2985_" x="925.6" y="27.6" transform="matrix(0.624 0.7814 -0.7814 0.624 370.6795 -712.662)" class="plantBorderTwo0" width="0.6" height="2.6"/>
	
		<rect id="XMLID_2984_" x="926.3" y="28.5" transform="matrix(0.624 0.7814 -0.7814 0.624 371.7196 -712.9055)" class="plantBorderTwo0" width="0.6" height="2.6"/>
	
		<rect id="XMLID_2983_" x="927.1" y="29.5" transform="matrix(0.624 0.7814 -0.7814 0.624 372.7596 -713.1489)" class="plantBorderTwo0" width="0.6" height="2.6"/>
	
		<rect id="XMLID_2982_" x="927.9" y="30.4" transform="matrix(0.624 0.7814 -0.7814 0.624 373.7997 -713.3923)" class="plantBorderTwo0" width="0.6" height="2.6"/>
	
		<rect id="XMLID_2981_" x="928.7" y="31.4" transform="matrix(0.624 0.7814 -0.7814 0.624 374.8397 -713.6357)" class="plantBorderTwo0" width="0.6" height="2.6"/>
	
		<rect id="XMLID_2980_" x="929.4" y="32.4" transform="matrix(0.624 0.7814 -0.7814 0.624 375.8798 -713.8791)" class="plantBorderTwo0" width="0.6" height="2.6"/>
	
		<rect id="XMLID_2979_" x="930.2" y="33.3" transform="matrix(0.624 0.7814 -0.7814 0.624 376.9198 -714.1225)" class="plantBorderTwo0" width="0.6" height="2.6"/>
	
		<rect id="XMLID_2978_" x="931" y="34.3" transform="matrix(0.624 0.7814 -0.7814 0.624 377.9599 -714.366)" class="plantBorderTwo0" width="0.6" height="2.6"/>
	
		<rect id="XMLID_2977_" x="931.8" y="35.2" transform="matrix(0.624 0.7814 -0.7814 0.624 378.9999 -714.6094)" class="plantBorderTwo0" width="0.6" height="2.6"/>
	
		<rect id="XMLID_2976_" x="932.5" y="36.2" transform="matrix(0.624 0.7814 -0.7814 0.624 380.04 -714.8528)" class="plantBorderTwo0" width="0.6" height="2.6"/>
	
		<rect id="XMLID_2975_" x="933.3" y="37.1" transform="matrix(0.624 0.7814 -0.7814 0.624 381.08 -715.0962)" class="plantBorderTwo0" width="0.6" height="2.6"/>
	
		<rect id="XMLID_2974_" x="934.1" y="38.1" transform="matrix(0.624 0.7814 -0.7814 0.624 382.1201 -715.3396)" class="plantBorderTwo0" width="0.6" height="2.6"/>
	
		<rect id="XMLID_1153_" x="935.6" y="40" transform="matrix(0.624 0.7814 -0.7814 0.624 384.2002 -715.8265)" class="plantBorderTwo0" width="0.6" height="2.6"/>
	
		<rect id="XMLID_1151_" x="936.4" y="41" transform="matrix(0.624 0.7814 -0.7814 0.624 385.2403 -716.0699)" class="plantBorderTwo0" width="0.6" height="2.6"/>
	
		<rect id="XMLID_1146_" x="937.2" y="41.9" transform="matrix(0.624 0.7814 -0.7814 0.624 386.2803 -716.3133)" class="plantBorderTwo0" width="0.6" height="2.6"/>
	
		<rect id="XMLID_1139_" x="937.8" y="42.8" transform="matrix(0.619 0.7854 -0.7854 0.619 392.1398 -720.0135)" class="plantBorderTwo0" width="0.6" height="2.6"/>
	
		<rect id="XMLID_1116_" x="938.6" y="43.8" transform="matrix(0.619 0.7854 -0.7854 0.619 393.1892 -720.2484)" class="plantBorderTwo0" width="0.6" height="2.6"/>
	
		<rect id="XMLID_1114_" x="939.4" y="44.8" transform="matrix(0.619 0.7854 -0.7854 0.619 394.2385 -720.4833)" class="plantBorderTwo0" width="0.6" height="2.6"/>
	
		<rect id="XMLID_1074_" x="940.1" y="45.7" transform="matrix(0.619 0.7854 -0.7854 0.619 395.2878 -720.7183)" class="plantBorderTwo0" width="0.6" height="2.6"/>
	
		<rect id="XMLID_1071_" x="940.9" y="46.7" transform="matrix(0.619 0.7854 -0.7854 0.619 396.3372 -720.9532)" class="plantBorderTwo0" width="0.6" height="2.6"/>
	
		<rect id="XMLID_1068_" x="941.7" y="47.7" transform="matrix(0.619 0.7854 -0.7854 0.619 397.3865 -721.1881)" class="plantBorderTwo0" width="0.6" height="2.6"/>
	<polygon id="XMLID_1066_" class="plantBorderTwo2" points="891.1,452.3 891.1,457.9 921.5,457.9 945.5,437.7 945.5,415.5 939.9,415.5 
		939.9,436.6 921,452.3 	"/>
	<g id="XMLID_1007_">
		<defs>
			<polygon id="XMLID_2912_" points="941.7,54.8 782.2,54.8 803.2,30.5 945.5,30.5 			"/>
		</defs>
		<clipPath id="XMLID_153_">
			<use xlink:href="#XMLID_2912_"  style="overflow:visible;"/>
		</clipPath>
		<polygon id="XMLID_1061_" class="plantBorderTwo3" points="820.7,51.6 818.2,51.6 803.3,32.1 805.8,32.1 		"/>
		<polygon id="XMLID_1059_" class="plantBorderTwo3" points="825,51.6 822.6,51.6 807.7,32.1 810.1,32.1 		"/>
		<polygon id="XMLID_1058_" class="plantBorderTwo3" points="829.4,51.6 827,51.6 812.1,32.1 814.5,32.1 		"/>
		<polygon id="XMLID_1054_" class="plantBorderTwo3" points="833.8,51.6 831.3,51.6 816.4,32.1 818.9,32.1 		"/>
		<polygon id="XMLID_1031_" class="plantBorderTwo3" points="838.2,51.6 835.7,51.6 820.8,32.1 823.3,32.1 		"/>
		<polygon id="XMLID_1029_" class="plantBorderTwo3" points="842.6,51.6 840.1,51.6 825.2,32.1 827.7,32.1 		"/>
		<polygon id="XMLID_1017_" class="plantBorderTwo3" points="847,51.6 844.5,51.6 829.6,32.1 832,32.1 		"/>
		<polygon id="XMLID_1016_" class="plantBorderTwo3" points="851.3,51.6 848.9,51.6 834,32.1 836.4,32.1 		"/>
		<polygon id="XMLID_1015_" class="plantBorderTwo3" points="785.6,51.6 783.2,51.6 768.3,32.1 770.7,32.1 		"/>
		<polygon id="XMLID_1014_" class="plantBorderTwo3" points="790,51.6 787.5,51.6 772.6,32.1 775.1,32.1 		"/>
		<polygon id="XMLID_1013_" class="plantBorderTwo3" points="794.4,51.6 791.9,51.6 777,32.1 779.5,32.1 		"/>
		<polygon id="XMLID_1012_" class="plantBorderTwo3" points="798.8,51.6 796.3,51.6 781.4,32.1 783.9,32.1 		"/>
		<polygon id="XMLID_1011_" class="plantBorderTwo3" points="803.1,51.6 800.7,51.6 785.8,32.1 788.2,32.1 		"/>
		<polygon id="XMLID_1010_" class="plantBorderTwo3" points="807.5,51.6 805.1,51.6 790.2,32.1 792.6,32.1 		"/>
		<polygon id="XMLID_1009_" class="plantBorderTwo3" points="811.9,51.6 809.4,51.6 794.5,32.1 797,32.1 		"/>
		<polygon id="XMLID_1008_" class="plantBorderTwo3" points="816.3,51.6 813.8,51.6 798.9,32.1 801.4,32.1 		"/>
		<polygon id="XMLID_1154_" class="plantBorderTwo3" points="855.7,51.6 853.3,51.6 838.3,32.1 840.8,32.1 		"/>
		<polygon id="XMLID_1155_" class="plantBorderTwo3" points="860.1,51.6 857.6,51.6 842.7,32.1 845.2,32.1 		"/>
		<polygon id="XMLID_1156_" class="plantBorderTwo3" points="868.9,51.6 866.4,51.6 851.5,32.1 854,32.1 		"/>
		<polygon id="XMLID_1157_" class="plantBorderTwo3" points="864.5,51.6 862,51.6 847.1,32.1 849.6,32.1 		"/>
		<polygon id="XMLID_1158_" class="plantBorderTwo3" points="877.6,51.6 875.2,51.6 860.3,32.1 862.7,32.1 		"/>
		<polygon id="XMLID_1159_" class="plantBorderTwo3" points="886.4,51.6 883.9,51.6 869,32.1 871.5,32.1 		"/>
		<polygon id="XMLID_1160_" class="plantBorderTwo3" points="903.9,51.6 901.4,51.6 886.5,32.1 889,32.1 		"/>
		<polygon id="XMLID_1161_" class="plantBorderTwo3" points="921.4,51.6 919,51.6 904.1,32.1 906.5,32.1 		"/>
		<polygon id="XMLID_1162_" class="plantBorderTwo3" points="895.1,51.6 892.7,51.6 877.8,32.1 880.2,32.1 		"/>
		<polygon id="XMLID_2843_" class="plantBorderTwo3" points="912.7,51.6 910.2,51.6 895.3,32.1 897.8,32.1 		"/>
		<polygon id="XMLID_2901_" class="plantBorderTwo3" points="930.2,51.6 927.7,51.6 912.8,32.1 915.3,32.1 		"/>
		<polygon id="XMLID_2903_" class="plantBorderTwo3" points="938.9,51.6 936.5,51.6 921.6,32.1 924,32.1 		"/>
		<polygon id="XMLID_2904_" class="plantBorderTwo3" points="873.2,51.6 870.8,51.6 855.9,32.1 858.3,32.1 		"/>
		<polygon id="XMLID_2905_" class="plantBorderTwo3" points="882,51.6 879.5,51.6 864.6,32.1 867.1,32.1 		"/>
		<polygon id="XMLID_2906_" class="plantBorderTwo3" points="890.8,51.6 888.3,51.6 873.4,32.1 875.9,32.1 		"/>
		<polygon id="XMLID_2907_" class="plantBorderTwo3" points="908.3,51.6 905.8,51.6 890.9,32.1 893.4,32.1 		"/>
		<polygon id="XMLID_2908_" class="plantBorderTwo3" points="899.5,51.6 897.1,51.6 882.2,32.1 884.6,32.1 		"/>
		<polygon id="XMLID_2909_" class="plantBorderTwo3" points="917,51.6 914.6,51.6 899.7,32.1 902.1,32.1 		"/>
		<polygon id="XMLID_2910_" class="plantBorderTwo3" points="925.8,51.6 923.3,51.6 908.4,32.1 910.9,32.1 		"/>
		<polygon id="XMLID_2911_" class="plantBorderTwo3" points="934.6,51.6 932.1,51.6 917.2,32.1 919.7,32.1 		"/>
	</g>
	<polygon id="XMLID_2913_" class="plantBorderTwo2" points="7.5,57.3 1.1,57.3 1.1,15.6 18,3 42,3 42,6 19,6 7.5,14.6 	"/>
	<polygon id="XMLID_2914_" class="plantBorderTwo0" points="429.7,52.5 407.8,52.5 377.3,6.1 354.8,6.1 354.8,2.1 379.1,2.1 409.7,48.5 
		429.7,48.5 	"/>
	<polygon id="XMLID_2915_" class="plantBorderTwo0" points="68.3,449.4 63.4,453 76.2,453 81.1,449.4 	"/>
	<polygon id="XMLID_2916_" class="plantBorderTwo0" points="47.4,449.4 42.5,453 55.3,453 60.3,449.4 	"/>
	<polygon id="XMLID_2917_" class="plantBorderTwo0" points="110.1,449.4 105.2,453 118,453 122.9,449.4 	"/>
	<polygon id="XMLID_2918_" class="plantBorderTwo0" points="89.2,449.4 84.3,453 97.1,453 102,449.4 	"/>
	<polygon id="XMLID_2922_" class="plantBorderTwo1" points="10.7,16.6 21.6,8.3 42,8.3 44.7,6.8 352,6.8 354.8,8.3 375.5,8.3 404.7,52.4 
		10.7,52.4 	"/>
	<polygon id="XMLID_2923_" class="plantBorderTwo0" points="940.4,55.3 940.2,436.5 920.9,453 6.7,453 6.7,14.5 18.9,5.1 377.5,5.1 408.2,51.5 
		781.5,51.8 801.4,28.8 923.9,29.1 926.2,27.1 800.4,27.1 779.9,49.1 408.4,49.2 377.8,4.1 18.2,4.1 1.7,16.1 1.7,455.4 1.7,457.3 
		39.7,457.3 39.4,457.5 52.2,457.5 52.5,457.3 60.5,457.3 60.3,457.5 73.1,457.5 73.4,457.3 81.4,457.3 81.1,457.5 93.9,457.5 
		94.2,457.3 102.3,457.3 102,457.5 114.8,457.5 115.1,457.3 921.4,457.5 945.4,436.9 945.5,50.2 	"/>
	<polygon id="XMLID_2924_" class="plantBorderTwo2" points="948.9,67.9 946.9,70.5 946.9,48.3 927.9,25.2 901.9,25.1 904.4,23.2 928.9,23.2 
		948.9,47.6 	"/>
	
		<rect id="XMLID_2925_" x="934.9" y="39.1" transform="matrix(0.624 0.7814 -0.7814 0.624 383.1602 -715.583)" class="plantBorderTwo0" width="0.6" height="2.6"/>
	
		<rect id="XMLID_2926_" x="925.6" y="27.6" transform="matrix(0.624 0.7814 -0.7814 0.624 370.6795 -712.662)" class="plantBorderTwo0" width="0.6" height="2.6"/>
	
		<rect id="XMLID_2927_" x="926.3" y="28.5" transform="matrix(0.624 0.7814 -0.7814 0.624 371.7196 -712.9055)" class="plantBorderTwo0" width="0.6" height="2.6"/>
	
		<rect id="XMLID_2928_" x="927.1" y="29.5" transform="matrix(0.624 0.7814 -0.7814 0.624 372.7596 -713.1489)" class="plantBorderTwo0" width="0.6" height="2.6"/>
	
		<rect id="XMLID_2929_" x="927.9" y="30.4" transform="matrix(0.624 0.7814 -0.7814 0.624 373.7997 -713.3923)" class="plantBorderTwo0" width="0.6" height="2.6"/>
	
		<rect id="XMLID_2930_" x="928.7" y="31.4" transform="matrix(0.624 0.7814 -0.7814 0.624 374.8397 -713.6357)" class="plantBorderTwo0" width="0.6" height="2.6"/>
	
		<rect id="XMLID_2931_" x="929.4" y="32.4" transform="matrix(0.624 0.7814 -0.7814 0.624 375.8798 -713.8791)" class="plantBorderTwo0" width="0.6" height="2.6"/>
	
		<rect id="XMLID_2932_" x="930.2" y="33.3" transform="matrix(0.624 0.7814 -0.7814 0.624 376.9198 -714.1225)" class="plantBorderTwo0" width="0.6" height="2.6"/>
	
		<rect id="XMLID_2933_" x="931" y="34.3" transform="matrix(0.624 0.7814 -0.7814 0.624 377.9599 -714.366)" class="plantBorderTwo0" width="0.6" height="2.6"/>
	
		<rect id="XMLID_2934_" x="931.8" y="35.2" transform="matrix(0.624 0.7814 -0.7814 0.624 378.9999 -714.6094)" class="plantBorderTwo0" width="0.6" height="2.6"/>
	
		<rect id="XMLID_2935_" x="932.5" y="36.2" transform="matrix(0.624 0.7814 -0.7814 0.624 380.04 -714.8528)" class="plantBorderTwo0" width="0.6" height="2.6"/>
	
		<rect id="XMLID_2936_" x="933.3" y="37.1" transform="matrix(0.624 0.7814 -0.7814 0.624 381.08 -715.0962)" class="plantBorderTwo0" width="0.6" height="2.6"/>
	
		<rect id="XMLID_2937_" x="934.1" y="38.1" transform="matrix(0.624 0.7814 -0.7814 0.624 382.1201 -715.3396)" class="plantBorderTwo0" width="0.6" height="2.6"/>
	
		<rect id="XMLID_2938_" x="935.6" y="40" transform="matrix(0.624 0.7814 -0.7814 0.624 384.2002 -715.8265)" class="plantBorderTwo0" width="0.6" height="2.6"/>
	
		<rect id="XMLID_2939_" x="936.4" y="41" transform="matrix(0.624 0.7814 -0.7814 0.624 385.2403 -716.0699)" class="plantBorderTwo0" width="0.6" height="2.6"/>
	
		<rect id="XMLID_2940_" x="937.2" y="41.9" transform="matrix(0.624 0.7814 -0.7814 0.624 386.2803 -716.3133)" class="plantBorderTwo0" width="0.6" height="2.6"/>
	
		<rect id="XMLID_2941_" x="937.8" y="42.8" transform="matrix(0.619 0.7854 -0.7854 0.619 392.1398 -720.0135)" class="plantBorderTwo0" width="0.6" height="2.6"/>
	
		<rect id="XMLID_2942_" x="938.6" y="43.8" transform="matrix(0.619 0.7854 -0.7854 0.619 393.1892 -720.2484)" class="plantBorderTwo0" width="0.6" height="2.6"/>
	
		<rect id="XMLID_2943_" x="939.4" y="44.8" transform="matrix(0.619 0.7854 -0.7854 0.619 394.2385 -720.4833)" class="plantBorderTwo0" width="0.6" height="2.6"/>
	
		<rect id="XMLID_2944_" x="940.1" y="45.7" transform="matrix(0.619 0.7854 -0.7854 0.619 395.2878 -720.7183)" class="plantBorderTwo0" width="0.6" height="2.6"/>
	
		<rect id="XMLID_2945_" x="940.9" y="46.7" transform="matrix(0.619 0.7854 -0.7854 0.619 396.3372 -720.9532)" class="plantBorderTwo0" width="0.6" height="2.6"/>
	
		<rect id="XMLID_2946_" x="941.7" y="47.7" transform="matrix(0.619 0.7854 -0.7854 0.619 397.3865 -721.1881)" class="plantBorderTwo0" width="0.6" height="2.6"/>
	<polygon id="XMLID_2947_" class="plantBorderTwo2" points="891.1,452.3 891.1,457.9 921.5,457.9 945.5,437.7 945.5,415.5 939.9,415.5 
		939.9,436.6 921,452.3 	"/>
	<g id="XMLID_2948_">
		<defs>
			<polygon id="XMLID_3068_" points="941.7,54.8 782.2,54.8 803.2,30.5 945.5,30.5 			"/>
		</defs>
		<clipPath id="XMLID_154_">
			<use xlink:href="#XMLID_3068_"  style="overflow:visible;"/>
		</clipPath>
		<polygon id="XMLID_2949_" class="plantBorderTwo4" points="820.7,51.6 818.2,51.6 803.3,32.1 805.8,32.1 		"/>
		<polygon id="XMLID_2950_" class="plantBorderTwo4" points="825,51.6 822.6,51.6 807.7,32.1 810.1,32.1 		"/>
		<polygon id="XMLID_2951_" class="plantBorderTwo4" points="829.4,51.6 827,51.6 812.1,32.1 814.5,32.1 		"/>
		<polygon id="XMLID_2952_" class="plantBorderTwo4" points="833.8,51.6 831.3,51.6 816.4,32.1 818.9,32.1 		"/>
		<polygon id="XMLID_2953_" class="plantBorderTwo4" points="838.2,51.6 835.7,51.6 820.8,32.1 823.3,32.1 		"/>
		<polygon id="XMLID_2954_" class="plantBorderTwo4" points="842.6,51.6 840.1,51.6 825.2,32.1 827.7,32.1 		"/>
		<polygon id="XMLID_2955_" class="plantBorderTwo4" points="847,51.6 844.5,51.6 829.6,32.1 832,32.1 		"/>
		<polygon id="XMLID_2956_" class="plantBorderTwo4" points="851.3,51.6 848.9,51.6 834,32.1 836.4,32.1 		"/>
		<polygon id="XMLID_2957_" class="plantBorderTwo4" points="785.6,51.6 783.2,51.6 768.3,32.1 770.7,32.1 		"/>
		<polygon id="XMLID_2958_" class="plantBorderTwo4" points="790,51.6 787.5,51.6 772.6,32.1 775.1,32.1 		"/>
		<polygon id="XMLID_2959_" class="plantBorderTwo4" points="794.4,51.6 791.9,51.6 777,32.1 779.5,32.1 		"/>
		<polygon id="XMLID_2960_" class="plantBorderTwo4" points="798.8,51.6 796.3,51.6 781.4,32.1 783.9,32.1 		"/>
		<polygon id="XMLID_2961_" class="plantBorderTwo4" points="803.1,51.6 800.7,51.6 785.8,32.1 788.2,32.1 		"/>
		<polygon id="XMLID_2962_" class="plantBorderTwo4" points="807.5,51.6 805.1,51.6 790.2,32.1 792.6,32.1 		"/>
		<polygon id="XMLID_2963_" class="plantBorderTwo4" points="811.9,51.6 809.4,51.6 794.5,32.1 797,32.1 		"/>
		<polygon id="XMLID_2964_" class="plantBorderTwo4" points="816.3,51.6 813.8,51.6 798.9,32.1 801.4,32.1 		"/>
		<polygon id="XMLID_2965_" class="plantBorderTwo4" points="855.7,51.6 853.3,51.6 838.3,32.1 840.8,32.1 		"/>
		<polygon id="XMLID_2966_" class="plantBorderTwo4" points="860.1,51.6 857.6,51.6 842.7,32.1 845.2,32.1 		"/>
		<polygon id="XMLID_2967_" class="plantBorderTwo4" points="868.9,51.6 866.4,51.6 851.5,32.1 854,32.1 		"/>
		<polygon id="XMLID_2968_" class="plantBorderTwo4" points="864.5,51.6 862,51.6 847.1,32.1 849.6,32.1 		"/>
		<polygon id="XMLID_2969_" class="plantBorderTwo4" points="877.6,51.6 875.2,51.6 860.3,32.1 862.7,32.1 		"/>
		<polygon id="XMLID_2970_" class="plantBorderTwo4" points="886.4,51.6 883.9,51.6 869,32.1 871.5,32.1 		"/>
		<polygon id="XMLID_2971_" class="plantBorderTwo4" points="903.9,51.6 901.4,51.6 886.5,32.1 889,32.1 		"/>
		<polygon id="XMLID_2972_" class="plantBorderTwo4" points="921.4,51.6 919,51.6 904.1,32.1 906.5,32.1 		"/>
		<polygon id="XMLID_2973_" class="plantBorderTwo4" points="895.1,51.6 892.7,51.6 877.8,32.1 880.2,32.1 		"/>
		<polygon id="XMLID_3046_" class="plantBorderTwo4" points="912.7,51.6 910.2,51.6 895.3,32.1 897.8,32.1 		"/>
		<polygon id="XMLID_3048_" class="plantBorderTwo4" points="930.2,51.6 927.7,51.6 912.8,32.1 915.3,32.1 		"/>
		<polygon id="XMLID_3056_" class="plantBorderTwo4" points="938.9,51.6 936.5,51.6 921.6,32.1 924,32.1 		"/>
		<polygon id="XMLID_3060_" class="plantBorderTwo4" points="873.2,51.6 870.8,51.6 855.9,32.1 858.3,32.1 		"/>
		<polygon id="XMLID_3061_" class="plantBorderTwo4" points="882,51.6 879.5,51.6 864.6,32.1 867.1,32.1 		"/>
		<polygon id="XMLID_3062_" class="plantBorderTwo4" points="890.8,51.6 888.3,51.6 873.4,32.1 875.9,32.1 		"/>
		<polygon id="XMLID_3063_" class="plantBorderTwo4" points="908.3,51.6 905.8,51.6 890.9,32.1 893.4,32.1 		"/>
		<polygon id="XMLID_3064_" class="plantBorderTwo4" points="899.5,51.6 897.1,51.6 882.2,32.1 884.6,32.1 		"/>
		<polygon id="XMLID_3065_" class="plantBorderTwo4" points="917,51.6 914.6,51.6 899.7,32.1 902.1,32.1 		"/>
		<polygon id="XMLID_3066_" class="plantBorderTwo4" points="925.8,51.6 923.3,51.6 908.4,32.1 910.9,32.1 		"/>
		<polygon id="XMLID_3067_" class="plantBorderTwo4" points="934.6,51.6 932.1,51.6 917.2,32.1 919.7,32.1 		"/>
	</g>
	<polygon id="XMLID_3069_" class="plantBorderTwo2" points="7.5,57.3 1.1,57.3 1.1,15.6 18,3 42,3 42,6 19,6 7.5,14.6 	"/>
	<g id="XMLID_3071_">
		<line id="XMLID_3072_" class="plantBorderTwo5" x1="31.1" y1="117.9" x2="928.5" y2="117.9"/>
		<line id="XMLID_3073_" class="plantBorderTwo6" x1="21.8" y1="117.9" x2="46.7" y2="117.9"/>
		<line id="XMLID_3074_" class="plantBorderTwo6" x1="903.6" y1="117.9" x2="928.5" y2="117.9"/>
	</g>
	<g id="XMLID_3075_">
		<line id="XMLID_3076_" class="plantBorderTwo7" x1="304.9" y1="144.1" x2="304.9" y2="430"/>
		<line id="XMLID_3077_" class="plantBorderTwo8" x1="304.9" y1="143.1" x2="304.9" y2="160.2"/>
		<line id="XMLID_3078_" class="plantBorderTwo8" x1="304.9" y1="414.5" x2="304.9" y2="430"/>
	</g>
	<g id="XMLID_3079_">
		<line id="XMLID_3080_" class="plantBorderTwo7" x1="621.7" y1="147.1" x2="621.7" y2="433"/>
		<line id="XMLID_3081_" class="plantBorderTwo8" x1="621.7" y1="146.1" x2="621.7" y2="163.2"/>
		<line id="XMLID_3083_" class="plantBorderTwo8" x1="621.7" y1="417.5" x2="621.7" y2="433"/>
	</g>
</g>
</svg>
