<?xml version="1.0" encoding="utf-8"?>
<!-- Generator: Adobe Illustrator 19.0.0, SVG Export Plug-In . SVG Version: 6.00 Build 0)  -->
<svg version="1.1" id="图层_1" xmlns="http://www.w3.org/2000/svg" xmlns:xlink="http://www.w3.org/1999/xlink" x="0px" y="0px"
	 viewBox="0 0 120 120" style="enable-background:new 0 0 120 120;" xml:space="preserve">
<style type="text/css">
	.st0_xs{fill-rule:evenodd;clip-rule:evenodd;fill:#0BD83B;}
</style>
<g id="XMLID_15766_">
	<path id="XMLID_15785_" class="st0_xs" d="M60,37.6c9.3,0,16.8-7.5,16.8-16.8C76.8,11.5,69.3,4,60,4s-16.8,7.5-16.8,16.8
		C43.2,30.1,50.7,37.6,60,37.6L60,37.6 M60,9.6c6.2,0,11.2,5,11.2,11.2C71.2,27,66.2,32,60,32c-6.2,0-11.2-5-11.2-11.2
		C48.8,14.6,53.8,9.6,60,9.6L60,9.6 M60,9.6"/>
	<path id="XMLID_15781_" class="st0_xs" d="M71.2,43.2H48.8c-2.7,0-5,1.9-5.5,4.6l-5.6,30.8c-0.3,1.6,0.1,3.3,1.2,4.6
		c1.1,1.3,2.6,2,4.3,2h3.6l2,25.6c0.2,2.9,2.7,5.2,5.6,5.2h11.2c2.9,0,5.3-2.2,5.6-5.2l2-25.6h3.6c1.7,0,3.2-0.7,4.3-2
		c1.1-1.3,1.5-3,1.2-4.6l-5.6-30.8C76.2,45.1,73.9,43.2,71.2,43.2L71.2,43.2 M68.1,79.6l-2.5,30.8H54.4l-2.4-30.8h-8.8l5.6-30.8h8.4
		v16.8c0,1.6,1.2,2.8,2.8,2.8c1.5,0,2.8-1.2,2.8-2.8l0-16.8h8.4l5.6,30.8H68.1L68.1,79.6 M68.1,79.6"/>
	<path id="XMLID_15777_" class="st0_xs" d="M94.7,36.5c7.4,0,13.4-6,13.4-13.4c0-7.4-6-13.4-13.4-13.4c-7.4,0-13.4,6-13.4,13.4
		C81.3,30.5,87.3,36.5,94.7,36.5L94.7,36.5 M94.7,14.1c4.9,0,9,4,9,9c0,4.9-4,9-9,9c-4.9,0-9-4-9-9C85.8,18.1,89.8,14.1,94.7,14.1
		L94.7,14.1 M94.7,14.1"/>
	<path id="XMLID_15774_" class="st0_xs" d="M108.1,44.6c-0.4-2.1-2.2-3.7-4.4-3.7H85.8c-2.1,0-3.8,1.4-4.3,3.4c0.3,0.8,0.6,1.6,0.8,2.4
		l1.7,9.1l1.9-10.4h6.7v13.4c0,1.2,1,2.2,2.2,2.2c1.2,0,2.2-1,2.2-2.2V45.4h6.7l4.5,24.6h-7l-2,24.6h-9L88,82.4L84.6,88l1.1,7.1
		c0.2,2.3,2.1,4.1,4.5,4.1h9c2.3,0,4.3-1.8,4.5-4.1l1.6-20.5h2.9c1.3,0,2.6-0.6,3.4-1.6c0.9-1,1.2-2.4,1-3.7L108.1,44.6L108.1,44.6
		 M108.1,44.6"/>
	<path id="XMLID_15770_" class="st0_xs" d="M25.3,36.5c7.4,0,13.4-6,13.4-13.4c0-7.4-6-13.4-13.4-13.4c-7.4,0-13.4,6-13.4,13.4
		C11.8,30.5,17.9,36.5,25.3,36.5L25.3,36.5 M25.3,14.1c4.9,0,9,4,9,9c0,4.9-4,9-9,9c-4.9,0-9-4-9-9C16.3,18.1,20.3,14.1,25.3,14.1
		L25.3,14.1 M25.3,14.1"/>
	<path id="XMLID_15767_" class="st0_xs" d="M25.3,61.1c1.2,0,2.2-1,2.2-2.2V45.4h6.7l1.9,10.4l1.6-9.1c0.2-0.9,0.4-1.7,0.8-2.4
		c-0.5-2-2.2-3.4-4.3-3.4H16.3c-2.2,0-4,1.5-4.4,3.7L7.4,69.3c-0.2,1.3,0.1,2.6,1,3.7c0.9,1,2.1,1.6,3.4,1.6h2.9l1.6,20.5
		c0.2,2.3,2.1,4.1,4.5,4.1h9c2.3,0,4.3-1.8,4.5-4.1l1.1-7.1L32,82.4l-2.2,12.3h-9l-2-24.6h-7l4.5-24.6H23v13.4
		C23,60.1,24,61.1,25.3,61.1L25.3,61.1 M25.3,61.1"/>
</g>
</svg>
