<?xml version="1.0" encoding="utf-8"?>
<!-- Generator: Adobe Illustrator 19.0.0, SVG Export Plug-In . SVG Version: 6.00 Build 0)  -->
<svg version="1.1" id="图层_1" xmlns="http://www.w3.org/2000/svg" xmlns:xlink="http://www.w3.org/1999/xlink" x="0px" y="0px"
	 viewBox="0 0 120 120" style="enable-background:new 0 0 120 120;" xml:space="preserve">
<style type="text/css">
	.st0_jzg{fill:#94C609;}
</style>
<path id="XMLID_15297_" class="st0_jzg" d="M113,116l-8.9-20.7h-1.7L102.2,64l0-0.5c-1.2-7.1-6.7-13.4-15.1-17.2l-2.4-1.1l-10.1,18
	l-0.1-0.6c1-1.2,1.6-2.8,1.6-4.4c0-2.4-1.2-4.5-3-5.7c6-1.8,10.7-7.3,13.1-15.4c2.8-2.5,4-6.7,3.6-9.8c-0.2-1.9-1-3.6-2.2-4.8
	C86.2,11.6,78.5,4,68.6,4c-9.7,0-17.3,7.4-18.9,18.1c-1.5,1.3-2.4,3.1-2.7,5.3c-0.4,3.3,1,7.8,4.1,10.2c2.7,8.5,7.9,14,14.4,15.3
	C64,54.2,63,56.1,63,58.3c0,0.6,0.1,1.1,0.2,1.7l0.1,0.6l0.3,0.5c0.2,0.3,0.4,0.6,0.5,0.9l0.2,0.5l0.2,0.2L64.4,64v26
	c0,1.3-0.7,2.4-1.8,3l-1,0.6c0-0.2,0-0.4,0-0.6V67.6c0-4.8-3.9-8.7-8.7-8.7H15.7c-4.8,0-8.7,3.9-8.7,8.7V93c0,4.8,3.9,8.7,8.7,8.7
	h12.9v1L22.5,116H113z M37.9,107.8h-3.6v-6.1h3.6V107.8z M87.1,52.8c5.2,2.9,8.6,7,9.4,11.5l0.2,28.4h-27c0.3-0.8,0.4-1.7,0.4-2.6
	V71.3l1.4,9.3L87.1,52.8z M69.6,59.5l-0.3-0.2c-0.2-0.4-0.3-0.7-0.6-1c0-0.5,0.4-1,0.8-1c0.5,0,0.8,0.5,0.8,1.1
	c0,0.5-0.2,0.8-0.4,0.9L69.6,59.5z M56.3,35L56,33.8L55,33.3c-1.4-0.8-2.5-3.3-2.2-5.3c0.1-1.1,0.6-1.5,1-1.7l1.4-0.7l0.1-1.5
	c0.8-8.5,6.2-14.3,13.4-14.3c7.3,0,12.7,5.8,13.4,14.5l0.1,1.4l1.2,0.8c0.2,0.1,0.7,0.5,0.9,1.6c0.2,1.9-0.7,4.3-2,5.2l-0.9,0.6
	l-0.3,1c-2.2,8-6.8,12.7-12.3,12.7C63.1,47.5,58.6,42.8,56.3,35z M61.4,101h3.9h35l4,9.3H65.5h-2.7H47v-2.4v-2.6v-2.5h-3.3v-0.5
	v-0.5V101H61.4z M15.7,96c-1.7,0-3-1.3-3-3V67.6c0-1.7,1.3-3,3-3h37.2c1.7,0,3,1.3,3,3V93c0,0.9-0.3,1.8-1,2.2
	c-0.7,0.4-1.1,0.8-7.4,0.8S15.7,96,15.7,96z"/>
</svg>
