<?xml version="1.0" encoding="utf-8"?>
<!-- Generator: Adobe Illustrator 19.0.0, SVG Export Plug-In . SVG Version: 6.00 Build 0)  -->
<svg version="1.1" id="图层_1" xmlns="http://www.w3.org/2000/svg" xmlns:xlink="http://www.w3.org/1999/xlink" x="0px" y="0px"
	 viewBox="0 0 120 120" style="enable-background:new 0 0 120 120;" xml:space="preserve">
<style type="text/css">
	.st0_xx{fill-rule:evenodd;clip-rule:evenodd;fill:#0DD6BE;}
</style>
<g id="XMLID_14732_">
	<rect id="XMLID_14745_" x="23.3" y="85.3" class="st0_xx" width="5.8" height="8.5"/>
	<rect id="XMLID_14744_" x="23.3" y="98.4" class="st0_xx" width="5.8" height="8.5"/>
	<rect id="XMLID_14743_" x="90.9" y="98.4" class="st0_xx" width="5.8" height="8.5"/>
	<path id="XMLID_14737_" class="st0_xx" d="M112.4,59.6H84.5V46.4l5.2,2.6c0.4,0.2,0.9,0.3,1.3,0.3c1,0,2.1-0.6,2.6-1.5
		c0.7-1.4,0.2-3.1-1.2-3.9L63,28.9c-0.1-0.1-0.2-0.3-0.3-0.4c0-0.2,0.1-0.4,0.1-0.6v-4.5l16.5-6.6c0.2-0.1,0.3-0.2,0.5-0.3
		c0,0,0,0,0,0c0.2-0.1,0.4-0.3,0.6-0.5c0,0,0.1-0.1,0.1-0.1c0.2-0.2,0.3-0.4,0.4-0.7c0,0,0,0,0,0c0-0.1,0-0.1,0-0.2
		c0-0.1,0.1-0.2,0.1-0.4c0-0.1,0-0.2,0-0.2c0-0.1,0-0.2,0-0.3c0-0.1,0-0.2,0-0.3c0-0.1,0-0.2,0-0.3c0-0.1-0.1-0.2-0.1-0.3
		c0-0.1,0-0.1-0.1-0.2c0,0,0,0,0,0c-0.1-0.1-0.1-0.3-0.2-0.4c0,0,0-0.1-0.1-0.1c-0.2-0.3-0.4-0.5-0.7-0.7c0,0-0.1-0.1-0.1-0.1
		c0,0-0.1-0.1-0.2-0.1c-0.1-0.1-0.2-0.1-0.3-0.2c0,0,0,0,0,0L61.2,4.2c-1.1-0.5-2.4-0.1-3.2,0.7c-0.6,0.5-1,1.3-1,2.1V28
		c0,0.2,0,0.4,0.1,0.6c-0.1,0.1-0.2,0.2-0.2,0.3l-29.3,15c-1.4,0.7-2,2.5-1.2,3.9c0.5,1,1.5,1.5,2.6,1.5c0.4,0,0.9-0.1,1.3-0.3
		L60,33.8l18.8,9.6v67.3h-8V92.9c0-0.6-0.2-1.2-0.5-1.6c-0.5-0.8-1.4-1.4-2.5-1.4H52.1c-1.6,0-2.9,1.3-2.9,2.9c0,0,0,0.1,0,0.1
		c0,0,0,0.1,0,0.1v17.8h-8V43.4l-5.8,3v13.2H7.6c-1.6,0-2.9,1.3-2.9,2.9V74c0,1.6,1.3,2.9,2.9,2.9h3.3v0h5.8v0h18.8v33.9H16.7V76.9
		h-5.8V113c0,1.6,1.3,3,2.9,3c0,0,0,0,0.1,0l0,0H14h1.3h91c0.4,0,0.7-0.1,1-0.3c0.1,0,0.1-0.1,0.2-0.1c1-0.4,1.7-1.4,1.7-2.6V76.8
		h-5.8v33.9H84.5V76.8h18.8v0h5.8v0h3.3c1.6,0,2.9-1.3,2.9-2.9V62.5C115.3,60.9,114,59.6,112.4,59.6z M62.9,11.1l7.7,3.1l-7.7,3.1
		V11.1z M35.4,71.1H10.5v-5.8h24.9V71.1z M55,95.6H65v15.1H55V95.6z M109.5,71.1H84.6v-5.8h24.9V71.1z"/>
	<rect id="XMLID_14736_" x="90.9" y="85.3" class="st0_xx" width="5.8" height="8.5"/>
	<path id="XMLID_14733_" class="st0_xx" d="M60,72.5c7.1,0,12.8-5.7,12.8-12.7c0-7-5.8-12.7-12.8-12.7s-12.9,5.7-12.9,12.7
		C47.1,66.8,52.9,72.5,60,72.5z M60,51.9c4.4,0,7.9,3.5,7.9,7.8c0,4.3-3.5,7.8-7.9,7.8c-4.3,0-7.9-3.5-7.9-7.8
		C52.1,55.4,55.6,51.9,60,51.9z"/>
</g>
</svg>
