<?xml version="1.0" encoding="utf-8"?>
<!-- Generator: Adobe Illustrator 19.0.0, SVG Export Plug-In . SVG Version: 6.00 Build 0)  -->
<svg version="1.1" id="图层_1" xmlns="http://www.w3.org/2000/svg" xmlns:xlink="http://www.w3.org/1999/xlink" x="0px" y="0px"
	 viewBox="0 0 872 284" style="enable-background:new 0 0 872 284;" xml:space="preserve">
<style type="text/css">
	.st0_k{fill:#1561C0;fill-opacity:0.4;stroke:#1561C0;stroke-miterlimit:10;}
	.st1_k{fill:none;stroke:#1561C0;stroke-miterlimit:10;}
	.st2_k{fill:#00BEFF;}
	.st3_k{fill:none;stroke:#1561C0;stroke-width:5;stroke-miterlimit:10;}
	.st4_k{fill:#1561C0;}
	.st5_k{clip-path:url(#XMLID_35_);}
	.st6_k{fill:none;stroke:#04BCFE;stroke-width:0.25;stroke-miterlimit:10;}
	.st7_k{clip-path:url(#XMLID_36_);}
	.st8_k{clip-path:url(#XMLID_56_);}
	.st9_k{clip-path:url(#XMLID_57_);}
	.st10_k{fill:none;stroke:#1561C0;stroke-width:1.0476;stroke-miterlimit:10;}
	.st11_k{fill:none;stroke:#00BEFF;stroke-width:2.0953;stroke-miterlimit:10;}
</style>
<g id="XMLID_15753_">
	<g id="XMLID_16232_">
		<g id="XMLID_16236_">
			<polygon id="XMLID_16282_" class="st0_k" points="11.3,17.9 15.1,12.8 24.5,12.8 26.7,9.6 53.3,9.6 56.7,6.2 252.2,5.8 258.1,9.3 
				284.3,9.1 298.8,25 299.3,38.5 11.8,38.5 			"/>
			<polygon id="XMLID_16281_" class="st1_k" points="858.4,270.7 12.4,270.9 2.1,261.8 2.1,8.8 8.1,2.7 288.3,2.7 317.6,35.9 
				862.7,35.9 869.9,42.6 869.9,260.4 			"/>
			<polygon id="XMLID_16280_" class="st2_k" points="1.6,233.5 8.2,239.8 8.2,261.1 16.4,268.9 23.5,268.9 26.2,271.4 12.2,271.4 
				1.6,262 			"/>
			<polygon id="XMLID_16279_" class="st2_k" points="90.9,278.1 33.2,278.1 25.1,270.4 97.7,270.3 			"/>
			<g id="XMLID_16276_">
				<polygon id="XMLID_16278_" class="st2_k" points="870.4,231.8 864.8,237.8 864.8,259 856.6,266.8 848.2,266.8 843.8,271.2 
					858.5,271.2 870.4,260.7 				"/>
				<polygon id="XMLID_16277_" class="st2_k" points="779.1,277.8 836.9,277.8 844.8,270.1 772.4,270.1 				"/>
			</g>
			<polygon id="XMLID_16275_" class="st2_k" points="1.6,41 8.2,34.9 8.1,14.9 13.2,9.3 22.5,9.3 24.4,6.7 52.3,6.7 56.7,2.2 8.1,2.2 
				1.6,8.8 			"/>
			<polygon id="XMLID_16274_" class="st2_k" points="870.4,74.8 863.1,68.7 863.2,48.6 858.1,43.1 848.8,43.1 846.9,40.4 819.1,40.4 
				814.6,35.4 862.9,35.4 870.4,42.3 			"/>
			<polyline id="XMLID_16273_" class="st3_k" points="257.9,2.7 288.3,2.7 317.5,35.6 362.1,35.6 			"/>
			<g id="XMLID_16263_">
				<g id="XMLID_16270_">
					<circle id="XMLID_16272_" class="st1_k" cx="690.4" cy="7.5" r="3"/>
					<polyline id="XMLID_16271_" class="st1_k" points="813.4,35.9 789.9,7.5 693.4,7.5 					"/>
				</g>
				<g id="XMLID_16267_">
					<circle id="XMLID_16269_" class="st1_k" cx="719.7" cy="16.7" r="2.1"/>
					<polyline id="XMLID_16268_" class="st1_k" points="803.3,35.9 787.3,16.7 721.7,16.7 					"/>
				</g>
				<g id="XMLID_16264_">
					<polyline id="XMLID_16266_" class="st1_k" points="791,35.4 782.3,24.9 746.6,24.9 					"/>
					<circle id="XMLID_16265_" class="st1_k" cx="745.5" cy="24.9" r="1.1"/>
				</g>
			</g>
			<g id="XMLID_16260_">
				<circle id="XMLID_16262_" class="st1_k" cx="240.5" cy="278.8" r="3"/>
				<polyline id="XMLID_16261_" class="st1_k" points="133.4,270.7 141,278.8 237.5,278.8 				"/>
			</g>
			<g id="XMLID_16257_">
				<circle id="XMLID_16259_" class="st1_k" cx="651.7" cy="279.5" r="2.1"/>
				<polyline id="XMLID_16258_" class="st1_k" points="729.5,269.9 719.3,279.5 653.7,279.5 				"/>
			</g>
			<g id="XMLID_16254_">
				<polyline id="XMLID_16256_" class="st1_k" points="717.2,270 713.3,273.2 677.6,273.2 				"/>
				<circle id="XMLID_16255_" class="st1_k" cx="676.5" cy="273.2" r="1.1"/>
			</g>
			<g id="XMLID_16237_">
				<g id="XMLID_16246_">
					<polygon id="XMLID_16253_" class="st4_k" points="326.7,29.2 322.6,29.2 309.9,14.6 314.1,14.6 					"/>
					<polygon id="XMLID_16252_" class="st4_k" points="334.6,29.2 330.4,29.2 317.8,14.6 321.9,14.6 					"/>
					<polygon id="XMLID_16251_" class="st4_k" points="342.4,29.2 338.3,29.2 325.6,14.6 329.8,14.6 					"/>
					<polygon id="XMLID_16250_" class="st4_k" points="350.3,29.2 346.1,29.2 333.5,14.6 337.6,14.6 					"/>
					<polygon id="XMLID_16249_" class="st4_k" points="358.2,29.2 354,29.2 341.3,14.6 345.5,14.6 					"/>
					<polygon id="XMLID_16248_" class="st4_k" points="366,29.2 361.8,29.2 349.2,14.6 353.4,14.6 					"/>
					<polygon id="XMLID_16247_" class="st4_k" points="373.9,29.2 369.7,29.2 357,14.6 361.2,14.6 					"/>
				</g>
				<g id="XMLID_16238_">
					<polygon id="XMLID_16245_" class="st4_k" points="382.3,29.2 378.1,29.2 365.5,14.6 369.6,14.6 					"/>
					<polygon id="XMLID_16244_" class="st4_k" points="390.1,29.2 386,29.2 373.3,14.6 377.5,14.6 					"/>
					<polygon id="XMLID_16243_" class="st4_k" points="398,29.2 393.8,29.2 381.2,14.6 385.3,14.6 					"/>
					<polygon id="XMLID_16242_" class="st4_k" points="405.9,29.2 401.7,29.2 389,14.6 393.2,14.6 					"/>
					<polygon id="XMLID_16241_" class="st4_k" points="413.7,29.2 409.5,29.2 396.9,14.6 401.1,14.6 					"/>
					<polygon id="XMLID_16240_" class="st4_k" points="421.6,29.2 417.4,29.2 404.7,14.6 408.9,14.6 					"/>
					<polygon id="XMLID_16239_" class="st4_k" points="429.4,29.2 425.2,29.2 412.6,14.6 416.8,14.6 					"/>
				</g>
			</g>
		</g>
	</g>
	<g id="XMLID_16227_">
		<polygon id="XMLID_16231_" class="st2_k" points="236.9,251.2 236.9,239.3 233.9,236.3 233.9,253.8 253.2,253.8 250.3,251.2 		"/>
		<polygon id="XMLID_16230_" class="st2_k" points="236.9,56.6 236.9,68.5 233.9,71.5 233.9,54 253.2,54 250.3,56.6 		"/>
		<polygon id="XMLID_16229_" class="st2_k" points="815,251.1 815,239.1 818,236.1 818,253.6 798.7,253.6 801.7,251.1 		"/>
		<polygon id="XMLID_16228_" class="st2_k" points="815,56.4 815,68.4 818,71.3 818,53.8 798.7,53.8 801.7,56.4 		"/>
	</g>
	<g id="XMLID_16167_">
		<defs>
			<rect id="XMLID_16168_" x="301.4" y="108.1" width="155" height="37"/>
		</defs>
		<clipPath id="XMLID_35_">
			<use xlink:href="#XMLID_16168_"  style="overflow:visible;"/>
		</clipPath>
		<g id="XMLID_16169_" class="st5_k">
			<line id="XMLID_16226_" class="st6_k" x1="642.7" y1="145.8" x2="569.4" y2="106.5"/>
			<line id="XMLID_16225_" class="st6_k" x1="636.5" y1="145.8" x2="563.1" y2="106.5"/>
			<line id="XMLID_16224_" class="st6_k" x1="630.2" y1="145.8" x2="556.9" y2="106.5"/>
			<line id="XMLID_16223_" class="st6_k" x1="624" y1="145.8" x2="550.7" y2="106.5"/>
			<line id="XMLID_16222_" class="st6_k" x1="617.7" y1="145.8" x2="544.4" y2="106.5"/>
			<line id="XMLID_16221_" class="st6_k" x1="611.5" y1="145.8" x2="538.2" y2="106.5"/>
			<line id="XMLID_16220_" class="st6_k" x1="605.3" y1="145.8" x2="531.9" y2="106.5"/>
			<line id="XMLID_16219_" class="st6_k" x1="599" y1="145.8" x2="525.7" y2="106.5"/>
			<line id="XMLID_16218_" class="st6_k" x1="592.8" y1="145.8" x2="519.5" y2="106.5"/>
			<line id="XMLID_16217_" class="st6_k" x1="586.5" y1="145.8" x2="513.2" y2="106.5"/>
			<line id="XMLID_16216_" class="st6_k" x1="580.3" y1="145.8" x2="507" y2="106.5"/>
			<line id="XMLID_16215_" class="st6_k" x1="574.1" y1="145.8" x2="500.8" y2="106.5"/>
			<line id="XMLID_16214_" class="st6_k" x1="567.8" y1="145.8" x2="494.5" y2="106.5"/>
			<line id="XMLID_16213_" class="st6_k" x1="561.6" y1="145.8" x2="488.3" y2="106.5"/>
			<line id="XMLID_16212_" class="st6_k" x1="555.4" y1="145.8" x2="482" y2="106.5"/>
			<line id="XMLID_16211_" class="st6_k" x1="549.1" y1="145.8" x2="475.8" y2="106.5"/>
			<line id="XMLID_16210_" class="st6_k" x1="542.9" y1="145.8" x2="469.6" y2="106.5"/>
			<line id="XMLID_16209_" class="st6_k" x1="536.6" y1="145.8" x2="463.3" y2="106.5"/>
			<line id="XMLID_16208_" class="st6_k" x1="530.4" y1="145.8" x2="457.1" y2="106.5"/>
			<line id="XMLID_16207_" class="st6_k" x1="524.2" y1="145.8" x2="450.8" y2="106.5"/>
			<line id="XMLID_16206_" class="st6_k" x1="517.9" y1="145.8" x2="444.6" y2="106.5"/>
			<line id="XMLID_16205_" class="st6_k" x1="511.7" y1="145.8" x2="438.4" y2="106.5"/>
			<line id="XMLID_16204_" class="st6_k" x1="505.4" y1="145.8" x2="432.1" y2="106.5"/>
			<line id="XMLID_16203_" class="st6_k" x1="499.2" y1="145.8" x2="425.9" y2="106.5"/>
			<line id="XMLID_16202_" class="st6_k" x1="493" y1="145.8" x2="419.7" y2="106.5"/>
			<line id="XMLID_16201_" class="st6_k" x1="487.5" y1="145.8" x2="414.2" y2="106.5"/>
			<line id="XMLID_16200_" class="st6_k" x1="481.3" y1="145.8" x2="407.9" y2="106.5"/>
			<line id="XMLID_16199_" class="st6_k" x1="475" y1="145.8" x2="401.7" y2="106.5"/>
			<line id="XMLID_16198_" class="st6_k" x1="468.8" y1="145.8" x2="395.5" y2="106.5"/>
			<line id="XMLID_16197_" class="st6_k" x1="462.5" y1="145.8" x2="389.2" y2="106.5"/>
			<line id="XMLID_16196_" class="st6_k" x1="456.3" y1="145.8" x2="383" y2="106.5"/>
			<line id="XMLID_16195_" class="st6_k" x1="450.1" y1="145.8" x2="376.8" y2="106.5"/>
			<line id="XMLID_16194_" class="st6_k" x1="443.8" y1="145.8" x2="370.5" y2="106.5"/>
			<line id="XMLID_16193_" class="st6_k" x1="437.6" y1="145.8" x2="364.3" y2="106.5"/>
			<line id="XMLID_16192_" class="st6_k" x1="431.4" y1="145.8" x2="358" y2="106.5"/>
			<line id="XMLID_16191_" class="st6_k" x1="425.1" y1="145.8" x2="351.8" y2="106.5"/>
			<line id="XMLID_16190_" class="st6_k" x1="418.9" y1="145.8" x2="345.6" y2="106.5"/>
			<line id="XMLID_16189_" class="st6_k" x1="412.6" y1="145.8" x2="339.3" y2="106.5"/>
			<line id="XMLID_16188_" class="st6_k" x1="406.4" y1="145.8" x2="333.1" y2="106.5"/>
			<line id="XMLID_16187_" class="st6_k" x1="400.2" y1="145.8" x2="326.8" y2="106.5"/>
			<line id="XMLID_16186_" class="st6_k" x1="393.9" y1="145.8" x2="320.6" y2="106.5"/>
			<line id="XMLID_16185_" class="st6_k" x1="387.7" y1="145.8" x2="314.4" y2="106.5"/>
			<line id="XMLID_16184_" class="st6_k" x1="381.4" y1="145.8" x2="308.1" y2="106.5"/>
			<line id="XMLID_16183_" class="st6_k" x1="375.2" y1="145.8" x2="301.9" y2="106.5"/>
			<line id="XMLID_16182_" class="st6_k" x1="369" y1="145.8" x2="295.7" y2="106.5"/>
			<line id="XMLID_16181_" class="st6_k" x1="362.7" y1="145.8" x2="289.4" y2="106.5"/>
			<line id="XMLID_16180_" class="st6_k" x1="356.5" y1="145.8" x2="283.2" y2="106.5"/>
			<line id="XMLID_16179_" class="st6_k" x1="350.3" y1="145.8" x2="276.9" y2="106.5"/>
			<line id="XMLID_16178_" class="st6_k" x1="344" y1="145.8" x2="270.7" y2="106.5"/>
			<line id="XMLID_16177_" class="st6_k" x1="337.8" y1="145.8" x2="264.5" y2="106.5"/>
			<line id="XMLID_16176_" class="st6_k" x1="331.5" y1="145.8" x2="258.2" y2="106.5"/>
			<line id="XMLID_16175_" class="st6_k" x1="325.3" y1="145.8" x2="252" y2="106.5"/>
			<line id="XMLID_16174_" class="st6_k" x1="319.1" y1="145.8" x2="245.7" y2="106.5"/>
			<line id="XMLID_16173_" class="st6_k" x1="312.8" y1="145.8" x2="239.5" y2="106.5"/>
			<line id="XMLID_16172_" class="st6_k" x1="306.6" y1="145.8" x2="233.3" y2="106.5"/>
			<line id="XMLID_16171_" class="st6_k" x1="300.3" y1="145.8" x2="227" y2="106.5"/>
			<line id="XMLID_16170_" class="st6_k" x1="294.1" y1="145.8" x2="220.8" y2="106.5"/>
		</g>
	</g>
	<g id="XMLID_16089_">
		<defs>
			<rect id="XMLID_16107_" x="607.4" y="108.1" width="155" height="37"/>
		</defs>
		<clipPath id="XMLID_36_">
			<use xlink:href="#XMLID_16107_"  style="overflow:visible;"/>
		</clipPath>
		<g id="XMLID_16108_" class="st7_k">
			<line id="XMLID_16166_" class="st6_k" x1="949.2" y1="145.8" x2="875.9" y2="106.5"/>
			<line id="XMLID_16165_" class="st6_k" x1="942.9" y1="145.8" x2="869.6" y2="106.5"/>
			<line id="XMLID_16164_" class="st6_k" x1="936.7" y1="145.8" x2="863.4" y2="106.5"/>
			<line id="XMLID_16163_" class="st6_k" x1="930.5" y1="145.8" x2="857.1" y2="106.5"/>
			<line id="XMLID_16162_" class="st6_k" x1="924.2" y1="145.8" x2="850.9" y2="106.5"/>
			<line id="XMLID_16161_" class="st6_k" x1="918" y1="145.8" x2="844.7" y2="106.5"/>
			<line id="XMLID_16160_" class="st6_k" x1="911.7" y1="145.8" x2="838.4" y2="106.5"/>
			<line id="XMLID_16159_" class="st6_k" x1="905.5" y1="145.8" x2="832.2" y2="106.5"/>
			<line id="XMLID_16158_" class="st6_k" x1="899.3" y1="145.8" x2="825.9" y2="106.5"/>
			<line id="XMLID_16157_" class="st6_k" x1="893" y1="145.8" x2="819.7" y2="106.5"/>
			<line id="XMLID_16156_" class="st6_k" x1="886.8" y1="145.8" x2="813.5" y2="106.5"/>
			<line id="XMLID_16155_" class="st6_k" x1="880.6" y1="145.8" x2="807.2" y2="106.5"/>
			<line id="XMLID_16154_" class="st6_k" x1="874.3" y1="145.8" x2="801" y2="106.5"/>
			<line id="XMLID_16153_" class="st6_k" x1="868.1" y1="145.8" x2="794.8" y2="106.5"/>
			<line id="XMLID_16152_" class="st6_k" x1="861.8" y1="145.8" x2="788.5" y2="106.5"/>
			<line id="XMLID_16151_" class="st6_k" x1="855.6" y1="145.8" x2="782.3" y2="106.5"/>
			<line id="XMLID_16150_" class="st6_k" x1="849.4" y1="145.8" x2="776" y2="106.5"/>
			<line id="XMLID_16149_" class="st6_k" x1="843.1" y1="145.8" x2="769.8" y2="106.5"/>
			<line id="XMLID_16148_" class="st6_k" x1="836.9" y1="145.8" x2="763.6" y2="106.5"/>
			<line id="XMLID_16147_" class="st6_k" x1="830.6" y1="145.8" x2="757.3" y2="106.5"/>
			<line id="XMLID_16146_" class="st6_k" x1="824.4" y1="145.8" x2="751.1" y2="106.5"/>
			<line id="XMLID_16145_" class="st6_k" x1="818.2" y1="145.8" x2="744.8" y2="106.5"/>
			<line id="XMLID_16144_" class="st6_k" x1="811.9" y1="145.8" x2="738.6" y2="106.5"/>
			<line id="XMLID_16143_" class="st6_k" x1="805.7" y1="145.8" x2="732.4" y2="106.5"/>
			<line id="XMLID_16142_" class="st6_k" x1="799.4" y1="145.8" x2="726.1" y2="106.5"/>
			<line id="XMLID_16141_" class="st6_k" x1="794" y1="145.8" x2="720.7" y2="106.5"/>
			<line id="XMLID_16140_" class="st6_k" x1="787.7" y1="145.8" x2="714.4" y2="106.5"/>
			<line id="XMLID_16139_" class="st6_k" x1="781.5" y1="145.8" x2="708.2" y2="106.5"/>
			<line id="XMLID_16138_" class="st6_k" x1="775.3" y1="145.8" x2="701.9" y2="106.5"/>
			<line id="XMLID_16137_" class="st6_k" x1="769" y1="145.8" x2="695.7" y2="106.5"/>
			<line id="XMLID_16136_" class="st6_k" x1="762.8" y1="145.8" x2="689.5" y2="106.5"/>
			<line id="XMLID_16135_" class="st6_k" x1="756.6" y1="145.8" x2="683.2" y2="106.5"/>
			<line id="XMLID_16134_" class="st6_k" x1="750.3" y1="145.8" x2="677" y2="106.5"/>
			<line id="XMLID_16133_" class="st6_k" x1="744.1" y1="145.8" x2="670.8" y2="106.5"/>
			<line id="XMLID_16132_" class="st6_k" x1="737.8" y1="145.8" x2="664.5" y2="106.5"/>
			<line id="XMLID_16131_" class="st6_k" x1="731.6" y1="145.8" x2="658.3" y2="106.5"/>
			<line id="XMLID_16130_" class="st6_k" x1="725.4" y1="145.8" x2="652" y2="106.5"/>
			<line id="XMLID_16129_" class="st6_k" x1="719.1" y1="145.8" x2="645.8" y2="106.5"/>
			<line id="XMLID_16128_" class="st6_k" x1="712.9" y1="145.8" x2="639.6" y2="106.5"/>
			<line id="XMLID_16127_" class="st6_k" x1="706.6" y1="145.8" x2="633.3" y2="106.5"/>
			<line id="XMLID_16126_" class="st6_k" x1="700.4" y1="145.8" x2="627.1" y2="106.5"/>
			<line id="XMLID_16125_" class="st6_k" x1="694.2" y1="145.8" x2="620.8" y2="106.5"/>
			<line id="XMLID_16123_" class="st6_k" x1="687.9" y1="145.8" x2="614.6" y2="106.5"/>
			<line id="XMLID_16122_" class="st6_k" x1="681.7" y1="145.8" x2="608.4" y2="106.5"/>
			<line id="XMLID_16121_" class="st6_k" x1="675.4" y1="145.8" x2="602.1" y2="106.5"/>
			<line id="XMLID_16120_" class="st6_k" x1="669.2" y1="145.8" x2="595.9" y2="106.5"/>
			<line id="XMLID_16119_" class="st6_k" x1="663" y1="145.8" x2="589.7" y2="106.5"/>
			<line id="XMLID_16118_" class="st6_k" x1="656.7" y1="145.8" x2="583.4" y2="106.5"/>
			<line id="XMLID_16117_" class="st6_k" x1="650.5" y1="145.8" x2="577.2" y2="106.5"/>
			<line id="XMLID_16116_" class="st6_k" x1="644.3" y1="145.8" x2="570.9" y2="106.5"/>
			<line id="XMLID_16115_" class="st6_k" x1="638" y1="145.8" x2="564.7" y2="106.5"/>
			<line id="XMLID_16114_" class="st6_k" x1="631.8" y1="145.8" x2="558.5" y2="106.5"/>
			<line id="XMLID_16113_" class="st6_k" x1="625.5" y1="145.8" x2="552.2" y2="106.5"/>
			<line id="XMLID_16112_" class="st6_k" x1="619.3" y1="145.8" x2="546" y2="106.5"/>
			<line id="XMLID_16111_" class="st6_k" x1="613.1" y1="145.8" x2="539.7" y2="106.5"/>
			<line id="XMLID_16110_" class="st6_k" x1="606.8" y1="145.8" x2="533.5" y2="106.5"/>
			<line id="XMLID_16109_" class="st6_k" x1="600.6" y1="145.8" x2="527.3" y2="106.5"/>
		</g>
	</g>
	<g id="XMLID_15969_">
		<defs>
			<rect id="XMLID_15971_" x="301.4" y="201.1" width="155" height="37"/>
		</defs>
		<clipPath id="XMLID_56_">
			<use xlink:href="#XMLID_15971_"  style="overflow:visible;"/>
		</clipPath>
		<g id="XMLID_15972_" class="st8_k">
			<line id="XMLID_16088_" class="st6_k" x1="642.7" y1="238.8" x2="569.4" y2="199.5"/>
			<line id="XMLID_16087_" class="st6_k" x1="636.5" y1="238.8" x2="563.1" y2="199.5"/>
			<line id="XMLID_16086_" class="st6_k" x1="630.2" y1="238.8" x2="556.9" y2="199.5"/>
			<line id="XMLID_16085_" class="st6_k" x1="624" y1="238.8" x2="550.7" y2="199.5"/>
			<line id="XMLID_16084_" class="st6_k" x1="617.7" y1="238.8" x2="544.4" y2="199.5"/>
			<line id="XMLID_16083_" class="st6_k" x1="611.5" y1="238.8" x2="538.2" y2="199.5"/>
			<line id="XMLID_16082_" class="st6_k" x1="605.3" y1="238.8" x2="531.9" y2="199.5"/>
			<line id="XMLID_16081_" class="st6_k" x1="599" y1="238.8" x2="525.7" y2="199.5"/>
			<line id="XMLID_16080_" class="st6_k" x1="592.8" y1="238.8" x2="519.5" y2="199.5"/>
			<line id="XMLID_16079_" class="st6_k" x1="586.5" y1="238.8" x2="513.2" y2="199.5"/>
			<line id="XMLID_16078_" class="st6_k" x1="580.3" y1="238.8" x2="507" y2="199.5"/>
			<line id="XMLID_16077_" class="st6_k" x1="574.1" y1="238.8" x2="500.8" y2="199.5"/>
			<line id="XMLID_16076_" class="st6_k" x1="567.8" y1="238.8" x2="494.5" y2="199.5"/>
			<line id="XMLID_16073_" class="st6_k" x1="561.6" y1="238.8" x2="488.3" y2="199.5"/>
			<line id="XMLID_16070_" class="st6_k" x1="555.4" y1="238.8" x2="482" y2="199.5"/>
			<line id="XMLID_16067_" class="st6_k" x1="549.1" y1="238.8" x2="475.8" y2="199.5"/>
			<line id="XMLID_16064_" class="st6_k" x1="542.9" y1="238.8" x2="469.6" y2="199.5"/>
			<line id="XMLID_16061_" class="st6_k" x1="536.6" y1="238.8" x2="463.3" y2="199.5"/>
			<line id="XMLID_16058_" class="st6_k" x1="530.4" y1="238.8" x2="457.1" y2="199.5"/>
			<line id="XMLID_16055_" class="st6_k" x1="524.2" y1="238.8" x2="450.8" y2="199.5"/>
			<line id="XMLID_16052_" class="st6_k" x1="517.9" y1="238.8" x2="444.6" y2="199.5"/>
			<line id="XMLID_16051_" class="st6_k" x1="511.7" y1="238.8" x2="438.4" y2="199.5"/>
			<line id="XMLID_16048_" class="st6_k" x1="505.4" y1="238.8" x2="432.1" y2="199.5"/>
			<line id="XMLID_16045_" class="st6_k" x1="499.2" y1="238.8" x2="425.9" y2="199.5"/>
			<line id="XMLID_16042_" class="st6_k" x1="493" y1="238.8" x2="419.7" y2="199.5"/>
			<line id="XMLID_16039_" class="st6_k" x1="487.5" y1="238.8" x2="414.2" y2="199.5"/>
			<line id="XMLID_16036_" class="st6_k" x1="481.3" y1="238.8" x2="407.9" y2="199.5"/>
			<line id="XMLID_16033_" class="st6_k" x1="475" y1="238.8" x2="401.7" y2="199.5"/>
			<line id="XMLID_16030_" class="st6_k" x1="468.8" y1="238.8" x2="395.5" y2="199.5"/>
			<line id="XMLID_16029_" class="st6_k" x1="462.5" y1="238.8" x2="389.2" y2="199.5"/>
			<line id="XMLID_16028_" class="st6_k" x1="456.3" y1="238.8" x2="383" y2="199.5"/>
			<line id="XMLID_16027_" class="st6_k" x1="450.1" y1="238.8" x2="376.8" y2="199.5"/>
			<line id="XMLID_16026_" class="st6_k" x1="443.8" y1="238.8" x2="370.5" y2="199.5"/>
			<line id="XMLID_16025_" class="st6_k" x1="437.6" y1="238.8" x2="364.3" y2="199.5"/>
			<line id="XMLID_16024_" class="st6_k" x1="431.4" y1="238.8" x2="358" y2="199.5"/>
			<line id="XMLID_16023_" class="st6_k" x1="425.1" y1="238.8" x2="351.8" y2="199.5"/>
			<line id="XMLID_16022_" class="st6_k" x1="418.9" y1="238.8" x2="345.6" y2="199.5"/>
			<line id="XMLID_16021_" class="st6_k" x1="412.6" y1="238.8" x2="339.3" y2="199.5"/>
			<line id="XMLID_16020_" class="st6_k" x1="406.4" y1="238.8" x2="333.1" y2="199.5"/>
			<line id="XMLID_16019_" class="st6_k" x1="400.2" y1="238.8" x2="326.8" y2="199.5"/>
			<line id="XMLID_16018_" class="st6_k" x1="393.9" y1="238.8" x2="320.6" y2="199.5"/>
			<line id="XMLID_16017_" class="st6_k" x1="387.7" y1="238.8" x2="314.4" y2="199.5"/>
			<line id="XMLID_16016_" class="st6_k" x1="381.4" y1="238.8" x2="308.1" y2="199.5"/>
			<line id="XMLID_16015_" class="st6_k" x1="375.2" y1="238.8" x2="301.9" y2="199.5"/>
			<line id="XMLID_16014_" class="st6_k" x1="369" y1="238.8" x2="295.7" y2="199.5"/>
			<line id="XMLID_16013_" class="st6_k" x1="362.7" y1="238.8" x2="289.4" y2="199.5"/>
			<line id="XMLID_16012_" class="st6_k" x1="356.5" y1="238.8" x2="283.2" y2="199.5"/>
			<line id="XMLID_16011_" class="st6_k" x1="350.3" y1="238.8" x2="276.9" y2="199.5"/>
			<line id="XMLID_16007_" class="st6_k" x1="344" y1="238.8" x2="270.7" y2="199.5"/>
			<line id="XMLID_16006_" class="st6_k" x1="337.8" y1="238.8" x2="264.5" y2="199.5"/>
			<line id="XMLID_16002_" class="st6_k" x1="331.5" y1="238.8" x2="258.2" y2="199.5"/>
			<line id="XMLID_16001_" class="st6_k" x1="325.3" y1="238.8" x2="252" y2="199.5"/>
			<line id="XMLID_15981_" class="st6_k" x1="319.1" y1="238.8" x2="245.7" y2="199.5"/>
			<line id="XMLID_15980_" class="st6_k" x1="312.8" y1="238.8" x2="239.5" y2="199.5"/>
			<line id="XMLID_15979_" class="st6_k" x1="306.6" y1="238.8" x2="233.3" y2="199.5"/>
			<line id="XMLID_15977_" class="st6_k" x1="300.3" y1="238.8" x2="227" y2="199.5"/>
			<line id="XMLID_15974_" class="st6_k" x1="294.1" y1="238.8" x2="220.8" y2="199.5"/>
		</g>
	</g>
	<g id="XMLID_15805_">
		<defs>
			<rect id="XMLID_15806_" x="607.4" y="201.1" width="155" height="37"/>
		</defs>
		<clipPath id="XMLID_57_">
			<use xlink:href="#XMLID_15806_"  style="overflow:visible;"/>
		</clipPath>
		<g id="XMLID_15807_" class="st9_k">
			<line id="XMLID_15968_" class="st6_k" x1="949.2" y1="238.8" x2="875.9" y2="199.5"/>
			<line id="XMLID_15966_" class="st6_k" x1="942.9" y1="238.8" x2="869.6" y2="199.5"/>
			<line id="XMLID_15965_" class="st6_k" x1="936.7" y1="238.8" x2="863.4" y2="199.5"/>
			<line id="XMLID_15960_" class="st6_k" x1="930.5" y1="238.8" x2="857.1" y2="199.5"/>
			<line id="XMLID_15952_" class="st6_k" x1="924.2" y1="238.8" x2="850.9" y2="199.5"/>
			<line id="XMLID_15950_" class="st6_k" x1="918" y1="238.8" x2="844.7" y2="199.5"/>
			<line id="XMLID_15949_" class="st6_k" x1="911.7" y1="238.8" x2="838.4" y2="199.5"/>
			<line id="XMLID_15948_" class="st6_k" x1="905.5" y1="238.8" x2="832.2" y2="199.5"/>
			<line id="XMLID_15947_" class="st6_k" x1="899.3" y1="238.8" x2="825.9" y2="199.5"/>
			<line id="XMLID_15946_" class="st6_k" x1="893" y1="238.8" x2="819.7" y2="199.5"/>
			<line id="XMLID_15945_" class="st6_k" x1="886.8" y1="238.8" x2="813.5" y2="199.5"/>
			<line id="XMLID_15944_" class="st6_k" x1="880.6" y1="238.8" x2="807.2" y2="199.5"/>
			<line id="XMLID_15943_" class="st6_k" x1="874.3" y1="238.8" x2="801" y2="199.5"/>
			<line id="XMLID_15942_" class="st6_k" x1="868.1" y1="238.8" x2="794.8" y2="199.5"/>
			<line id="XMLID_15941_" class="st6_k" x1="861.8" y1="238.8" x2="788.5" y2="199.5"/>
			<line id="XMLID_15940_" class="st6_k" x1="855.6" y1="238.8" x2="782.3" y2="199.5"/>
			<line id="XMLID_15939_" class="st6_k" x1="849.4" y1="238.8" x2="776" y2="199.5"/>
			<line id="XMLID_15938_" class="st6_k" x1="843.1" y1="238.8" x2="769.8" y2="199.5"/>
			<line id="XMLID_15937_" class="st6_k" x1="836.9" y1="238.8" x2="763.6" y2="199.5"/>
			<line id="XMLID_15936_" class="st6_k" x1="830.6" y1="238.8" x2="757.3" y2="199.5"/>
			<line id="XMLID_15935_" class="st6_k" x1="824.4" y1="238.8" x2="751.1" y2="199.5"/>
			<line id="XMLID_15934_" class="st6_k" x1="818.2" y1="238.8" x2="744.8" y2="199.5"/>
			<line id="XMLID_15933_" class="st6_k" x1="811.9" y1="238.8" x2="738.6" y2="199.5"/>
			<line id="XMLID_15932_" class="st6_k" x1="805.7" y1="238.8" x2="732.4" y2="199.5"/>
			<line id="XMLID_15931_" class="st6_k" x1="799.4" y1="238.8" x2="726.1" y2="199.5"/>
			<line id="XMLID_15930_" class="st6_k" x1="794" y1="238.8" x2="720.7" y2="199.5"/>
			<line id="XMLID_15929_" class="st6_k" x1="787.7" y1="238.8" x2="714.4" y2="199.5"/>
			<line id="XMLID_15928_" class="st6_k" x1="781.5" y1="238.8" x2="708.2" y2="199.5"/>
			<line id="XMLID_15927_" class="st6_k" x1="775.3" y1="238.8" x2="701.9" y2="199.5"/>
			<line id="XMLID_15926_" class="st6_k" x1="769" y1="238.8" x2="695.7" y2="199.5"/>
			<line id="XMLID_15923_" class="st6_k" x1="762.8" y1="238.8" x2="689.5" y2="199.5"/>
			<line id="XMLID_15922_" class="st6_k" x1="756.6" y1="238.8" x2="683.2" y2="199.5"/>
			<line id="XMLID_15921_" class="st6_k" x1="750.3" y1="238.8" x2="677" y2="199.5"/>
			<line id="XMLID_15920_" class="st6_k" x1="744.1" y1="238.8" x2="670.8" y2="199.5"/>
			<line id="XMLID_15919_" class="st6_k" x1="737.8" y1="238.8" x2="664.5" y2="199.5"/>
			<line id="XMLID_15918_" class="st6_k" x1="731.6" y1="238.8" x2="658.3" y2="199.5"/>
			<line id="XMLID_15917_" class="st6_k" x1="725.4" y1="238.8" x2="652" y2="199.5"/>
			<line id="XMLID_15916_" class="st6_k" x1="719.1" y1="238.8" x2="645.8" y2="199.5"/>
			<line id="XMLID_15913_" class="st6_k" x1="712.9" y1="238.8" x2="639.6" y2="199.5"/>
			<line id="XMLID_15910_" class="st6_k" x1="706.6" y1="238.8" x2="633.3" y2="199.5"/>
			<line id="XMLID_15901_" class="st6_k" x1="700.4" y1="238.8" x2="627.1" y2="199.5"/>
			<line id="XMLID_15900_" class="st6_k" x1="694.2" y1="238.8" x2="620.8" y2="199.5"/>
			<line id="XMLID_15899_" class="st6_k" x1="687.9" y1="238.8" x2="614.6" y2="199.5"/>
			<line id="XMLID_15898_" class="st6_k" x1="681.7" y1="238.8" x2="608.4" y2="199.5"/>
			<line id="XMLID_15897_" class="st6_k" x1="675.4" y1="238.8" x2="602.1" y2="199.5"/>
			<line id="XMLID_15895_" class="st6_k" x1="669.2" y1="238.8" x2="595.9" y2="199.5"/>
			<line id="XMLID_15818_" class="st6_k" x1="663" y1="238.8" x2="589.7" y2="199.5"/>
			<line id="XMLID_15817_" class="st6_k" x1="656.7" y1="238.8" x2="583.4" y2="199.5"/>
			<line id="XMLID_15816_" class="st6_k" x1="650.5" y1="238.8" x2="577.2" y2="199.5"/>
			<line id="XMLID_15815_" class="st6_k" x1="644.3" y1="238.8" x2="570.9" y2="199.5"/>
			<line id="XMLID_15814_" class="st6_k" x1="638" y1="238.8" x2="564.7" y2="199.5"/>
			<line id="XMLID_15813_" class="st6_k" x1="631.8" y1="238.8" x2="558.5" y2="199.5"/>
			<line id="XMLID_15812_" class="st6_k" x1="625.5" y1="238.8" x2="552.2" y2="199.5"/>
			<line id="XMLID_15811_" class="st6_k" x1="619.3" y1="238.8" x2="546" y2="199.5"/>
			<line id="XMLID_15810_" class="st6_k" x1="613.1" y1="238.8" x2="539.7" y2="199.5"/>
			<line id="XMLID_15809_" class="st6_k" x1="606.8" y1="238.8" x2="533.5" y2="199.5"/>
			<line id="XMLID_15808_" class="st6_k" x1="600.6" y1="238.8" x2="527.3" y2="199.5"/>
		</g>
	</g>
	<g id="XMLID_15789_">
		<line id="XMLID_15792_" class="st10_k" x1="526" y1="230.9" x2="526" y2="67.8"/>
		<line id="XMLID_15791_" class="st11_k" x1="526" y1="240.2" x2="526" y2="215.4"/>
		<line id="XMLID_15790_" class="st11_k" x1="526" y1="92.7" x2="526" y2="67.8"/>
	</g>
</g>
</svg>
