<?xml version="1.0" encoding="utf-8"?>
<!-- Generator: Adobe Illustrator 19.0.0, SVG Export Plug-In . SVG Version: 6.00 Build 0)  -->
<svg version="1.1" id="图层_1" xmlns="http://www.w3.org/2000/svg" xmlns:xlink="http://www.w3.org/1999/xlink" x="0px" y="0px"
	 viewBox="0 0 320 80" style="enable-background:new 0 0 320 80;" xml:space="preserve">
<style type="text/css">
	.st0_t{opacity:0.7;fill:#1561C0;fill-opacity:0.4;stroke:#1561C0;stroke-miterlimit:10;}
	.st1_t{fill:none;stroke:#1561C0;stroke-miterlimit:10;}
	.st2_t{fill:#1561C0;fill-opacity:0.4;stroke:#1561C0;stroke-miterlimit:10;}
	.st3_t{fill:#00BEFF;}
	.st4_t{fill:none;stroke:#00BEFF;stroke-width:2;stroke-miterlimit:10;}
</style>
<g id="XMLID_15277_">
	<polygon id="XMLID_15292_" class="st0_t" points="12.4,14 12.5,34.5 6.7,39.9 6.7,56.2 26,71.2 70.7,71.2 73.8,69.4 244.7,69.4 
		249.1,71.2 313.7,71.2 313.7,63.2 311.8,60 311.8,29.5 313.1,27.5 313.1,19.3 307.9,14.5 255,14.5 243.8,10.6 62.9,10.7 59.6,12.5 
		30.6,12.5 28.5,11 16.1,11 	"/>
	<g id="XMLID_15279_">
		<polygon id="XMLID_15288_" class="st1_t" points="312.9,77.6 253.2,77.6 243.2,73 75.4,73 67.9,77.6 28.2,77.6 3.6,58.4 3.6,7.8 
			9.6,2.8 67.8,2.8 75.6,7.1 243.8,7.1 255.5,11.3 312.5,11.3 316.8,14.8 316.8,27.5 315.4,30.4 315.4,57.9 316.8,61.8 316.8,74.2 
					"/>
		<polygon id="XMLID_15284_" class="st2_t" points="3.6,64.8 3.6,77.6 19.5,77.6 		"/>
		<polygon id="XMLID_15283_" class="st3_t" points="312.4,76.6 315.8,73.5 312.5,73 		"/>
		<polygon id="XMLID_15282_" class="st3_t" points="310.9,76.1 254.2,76.1 248.7,73.4 310.9,73.4 		"/>
		<polygon id="XMLID_15281_" class="st3_t" points="29.4,76.2 67.2,76.2 70.7,74 26.5,74 		"/>
		<polygon id="XMLID_15280_" class="st3_t" points="3.2,7.6 9.5,2.4 68,2.4 75.9,6.6 73.5,8.2 60,8.2 57.4,9.6 30.7,9.5 28.7,8.2 
			13.1,8.2 8.3,11.9 8.3,32.5 3.2,37.4 		"/>
	</g>
	<polyline id="XMLID_15278_" class="st4_t" points="304.9,11.3 311.5,11.3 316.8,15.5 316.8,22.2 	"/>
</g>
</svg>
