<?xml version="1.0" encoding="utf-8"?>
<!-- Generator: Adobe Illustrator 19.0.0, SVG Export Plug-In . SVG Version: 6.00 Build 0)  -->
<svg version="1.1" id="图层_1" xmlns="http://www.w3.org/2000/svg" xmlns:xlink="http://www.w3.org/1999/xlink" x="0px" y="0px"
	 viewBox="-44 163 870 236" style="enable-background:new -44 163 870 236;" xml:space="preserve">
<style type="text/css">
	.edurrt0{fill:#00BEFF;fill-opacity:0.2;}
	.edurrt1{fill:#22D0FF;}
	.edurrt2{fill:none;stroke:#05A8F7;stroke-miterlimit:10;}
	.edurrt3{fill:url(#SVGID_1_);stroke:url(#SVGID_2_);stroke-miterlimit:10;}
	.edurrt4{fill:#1561C0;fill-opacity:0.4;stroke:#1561C0;stroke-miterlimit:10;}
	.edurrt5{fill:none;stroke:#1561C0;stroke-miterlimit:10;}
	.edurrt6{fill:#00BEFF;}
	.edurrt7{fill:none;stroke:#1561C0;stroke-width:5;stroke-miterlimit:10;}
	.edurrt8{fill:#1561C0;}
	.edurrt9{fill:url(#XMLID_7_);stroke:url(#XMLID_11_);stroke-miterlimit:10;}
</style>
<path class="edurrt0" d="M4324.6,722.9h-191.1c-2.2,0-4-1.8-4-4l0,0c0-2.2,1.8-4,4-4h191.1c2.2,0,4,1.8,4,4l0,0
	C4328.6,721.1,4326.8,722.9,4324.6,722.9z"/>
<path class="edurrt1" d="M4291.7,722.9h-158.2c-2.2,0-4-1.8-4-4l0,0c0-2.2,1.8-4,4-4h158.2c2.2,0,4,1.8,4,4l0,0
	C4295.7,721.1,4293.9,722.9,4291.7,722.9z"/>
<polygon class="edurrt2" points="4333.8,732.8 4115.4,732.8 4147.7,661.3 4115.4,583.6 4333.8,583.6 4366.1,661.3 "/>
<polygon class="edurrt0" points="4365.8,661.5 4148.5,661.5 4133.1,624.8 4350.4,624.8 "/>
<g>
	
		<text id="XMLID_169_" transform="matrix(1 0 0 1 4160.6074 648.6392)" style="fill:#FFFFFF; font-family:'MicrosoftYaHei'; font-size:18px;">注册基础教育教师空间</text>
</g>
<g>
	
		<text id="XMLID_167_" transform="matrix(1 0 0 1 4173.3545 696.5601)" style="fill:#FFFFFF; font-family:'MicrosoftYaHei'; font-size:14px;">占教师总数</text>
</g>
<g>
	
		<text id="XMLID_165_" transform="matrix(1 0 0 1 4212.3594 612.9648)" style="fill:#FFFFFF; font-family:'MicrosoftYaHei-Bold'; font-size:18px;">4.7万人</text>
</g>
<g>
	
		<text id="XMLID_163_" transform="matrix(1 0 0 1 4250.3491 699.418)" style="fill:#FEAB01; font-family:'MicrosoftYaHei-Bold'; font-size:28px;">76%</text>
</g>
<g>
	
		<text id="XMLID_161_" transform="matrix(1 0 0 1 4432.4482 696.5596)" style="fill:#FFFFFF; font-family:'MicrosoftYaHei'; font-size:14px;">占学生总数</text>
</g>
<g>
	
		<text id="XMLID_168_" transform="matrix(1 0 0 1 4515.6938 699.4185)" style="fill:#FEAB01; font-family:'MicrosoftYaHei-Bold'; font-size:28px;">41%</text>
</g>
<path class="edurrt0" d="M4594.3,722.9h-191.1c-2.2,0-4-1.8-4-4l0,0c0-2.2,1.8-4,4-4h191.1c2.2,0,4,1.8,4,4l0,0
	C4598.3,721.1,4596.5,722.9,4594.3,722.9z"/>
<path class="edurrt1" d="M4487.3,722.9h-84.1c-2.2,0-4-1.8-4-4l0,0c0-2.2,1.8-4,4-4h84.1c2.2,0,4,1.8,4,4l0,0
	C4491.3,721.1,4489.6,722.9,4487.3,722.9z"/>
<polygon class="edurrt2" points="4603.5,732.8 4385.1,732.8 4417.4,661.3 4385.1,583.6 4603.5,583.6 4635.8,661.3 "/>
<polygon class="edurrt0" points="4635.5,661.5 4418.2,661.5 4402.8,624.8 4620.1,624.8 "/>
<g>
	
		<text id="XMLID_194_" transform="matrix(1 0 0 1 4449.9287 648.6392)" style="fill:#FFFFFF; font-family:'MicrosoftYaHei'; font-size:18px;">注册学生用户空间</text>
</g>
<g>
	
		<text id="XMLID_197_" transform="matrix(1 0 0 1 4482.2773 612.9648)" style="fill:#FFFFFF; font-family:'MicrosoftYaHei-Bold'; font-size:18px;">42万人</text>
</g>
<g>
	
		<text id="XMLID_212_" transform="matrix(1 0 0 1 4703.6992 696.5596)" style="fill:#FFFFFF; font-family:'MicrosoftYaHei'; font-size:14px;">占专任总数</text>
</g>
<g>
	
		<text id="XMLID_215_" transform="matrix(1 0 0 1 4780.2041 699.4185)" style="fill:#FEAB01; font-family:'MicrosoftYaHei-Bold'; font-size:28px;">100%</text>
</g>
<path class="edurrt0" d="M4864,722.9h-191c-2.2,0-4-1.8-4-4l0,0c0-2.2,1.8-4,4-4h191c2.2,0,4,1.8,4,4l0,0
	C4868,721.1,4866.2,722.9,4864,722.9z"/>
<path class="edurrt1" d="M4864,722.9h-191c-2.2,0-4-1.8-4-4l0,0c0-2.2,1.8-4,4-4h191c2.2,0,4,1.8,4,4l0,0
	C4868,721.1,4866.2,722.9,4864,722.9z"/>
<linearGradient id="SVGID_1_" gradientUnits="userSpaceOnUse" x1="4865.1001" y1="-48.2" x2="4865.1001" y2="-48.2" gradientTransform="matrix(1 0 0 -1 0 564)">
	<stop  offset="0" style="stop-color:#FFFFFF"/>
	<stop  offset="1" style="stop-color:#000000"/>
</linearGradient>
<linearGradient id="SVGID_2_" gradientUnits="userSpaceOnUse" x1="4865.1001" y1="-48.2" x2="4865.1001" y2="-48.2" gradientTransform="matrix(1 0 0 -1 0 564)">
	<stop  offset="0" style="stop-color:#00BEFF;stop-opacity:0.1"/>
	<stop  offset="0.5" style="stop-color:#00BEFF"/>
	<stop  offset="1" style="stop-color:#00BEFF;stop-opacity:0.1"/>
</linearGradient>
<path class="edurrt3" d="M4865.1,612.2"/>
<polygon class="edurrt2" points="4873.2,732.8 4654.9,732.8 4687.2,661.3 4654.9,583.6 4873.2,583.6 4905.6,661.3 "/>
<polygon class="edurrt0" points="4905.3,661.5 4687.9,661.5 4672.5,624.8 4889.8,624.8 "/>
<g>
	
		<text id="XMLID_216_" transform="matrix(1 0 0 1 4696.4531 648.6392)" style="fill:#FFFFFF; font-family:'MicrosoftYaHei'; font-size:18px;">职业教育专任教师空间</text>
</g>
<g>
	<polygon id="XMLID_132_" class="edurrt4" points="4076,546.4 4079.8,541.3 4089.1,541.3 4091.4,538.1 4117.9,538.1 4121.4,534.7 
		4316.8,534.3 4322.7,537.8 4348.9,537.7 4363.4,553.5 4363.9,567 4076.5,567 	"/>
	<g>
		
			<text id="XMLID_217_" transform="matrix(1 0 0 1 4116.2314 559.7612)" style="fill:#FEAB01; font-family:'MicrosoftYaHei-Bold'; font-size:21.2247px;">网络学习空间人人通</text>
	</g>
	<polygon id="XMLID_131_" class="edurrt5" points="4923.1,751.7 4077.1,752 4066.7,742.8 4066.7,537.3 4072.7,531.2 4352.9,531.2 
		4382.2,564.4 4927.3,564.4 4934.5,571.1 4934.5,741.5 	"/>
	<polygon id="XMLID_130_" class="edurrt6" points="4066.2,714.6 4072.9,720.9 4072.9,742.1 4081.1,749.9 4088.1,749.9 4090.8,752.4 
		4076.9,752.4 4066.2,743.1 	"/>
	<polygon id="XMLID_129_" class="edurrt6" points="4155.5,759.2 4097.8,759.2 4089.8,751.5 4162.4,751.4 	"/>
	<g id="XMLID_126_">
		<polygon id="XMLID_128_" class="edurrt6" points="4935,712.8 4929.4,718.8 4929.4,740 4921.2,747.9 4912.9,747.9 4908.4,752.2 
			4923.1,752.2 4935,741.8 		"/>
		<polygon id="XMLID_127_" class="edurrt6" points="4843.8,758.9 4901.5,758.9 4909.5,751.2 4837,751.2 		"/>
	</g>
	<polygon id="XMLID_125_" class="edurrt6" points="4066.2,569.5 4072.8,563.4 4072.7,543.4 4077.9,537.8 4087.2,537.8 4089,535.2 
		4116.9,535.2 4121.3,530.7 4072.7,530.7 4066.2,537.3 	"/>
	<polygon id="XMLID_124_" class="edurrt6" points="4935,603.3 4927.8,597.2 4927.8,577.1 4922.7,571.6 4913.4,571.6 4911.5,568.9 
		4883.7,568.9 4879.3,563.9 4927.5,563.9 4935.1,570.8 	"/>
	<polyline id="XMLID_123_" class="edurrt7" points="4322.5,531.2 4352.9,531.2 4382.2,564.1 4426.7,564.1 	"/>
	<g id="XMLID_88_">
		<g id="XMLID_120_">
			<circle id="XMLID_122_" class="edurrt5" cx="4755" cy="536" r="3"/>
			<polyline id="XMLID_121_" class="edurrt5" points="4878.1,564.4 4854.5,536 4758,536 			"/>
		</g>
		<g id="XMLID_117_">
			<circle id="XMLID_119_" class="edurrt5" cx="4784.3" cy="545.2" r="2.1"/>
			<polyline id="XMLID_118_" class="edurrt5" points="4867.9,564.4 4851.9,545.2 4786.3,545.2 			"/>
		</g>
		<g id="XMLID_112_">
			<polyline id="XMLID_116_" class="edurrt5" points="4855.6,563.9 4846.9,553.4 4811.2,553.4 			"/>
			<circle id="XMLID_114_" class="edurrt5" cx="4810.1" cy="553.4" r="1.1"/>
		</g>
	</g>
	<g id="XMLID_85_">
		<circle id="XMLID_87_" class="edurrt5" cx="4305.1" cy="759.8" r="3"/>
		<polyline id="XMLID_86_" class="edurrt5" points="4198,751.8 4205.6,759.8 4302.2,759.8 		"/>
	</g>
	<g id="XMLID_82_">
		<circle id="XMLID_84_" class="edurrt5" cx="4716.3" cy="760.6" r="2.1"/>
		<polyline id="XMLID_83_" class="edurrt5" points="4794.1,750.9 4783.9,760.6 4718.3,760.6 		"/>
	</g>
	<g id="XMLID_8_">
		<polyline id="XMLID_10_" class="edurrt5" points="4781.8,751 4777.9,754.3 4742.2,754.3 		"/>
		<circle id="XMLID_9_" class="edurrt5" cx="4741.2" cy="754.3" r="1.1"/>
	</g>
</g>
<g>
	<g>
		<polygon class="edurrt8" points="4391.4,557.7 4387.2,557.7 4374.5,543.1 4378.7,543.1 		"/>
		<polygon class="edurrt8" points="4399.2,557.7 4395,557.7 4382.4,543.1 4386.6,543.1 		"/>
		<polygon class="edurrt8" points="4407.1,557.7 4402.9,557.7 4390.2,543.1 4394.4,543.1 		"/>
		<polygon class="edurrt8" points="4414.9,557.7 4410.7,557.7 4398.1,543.1 4402.3,543.1 		"/>
		<polygon class="edurrt8" points="4422.8,557.7 4418.6,557.7 4405.9,543.1 4410.1,543.1 		"/>
		<polygon class="edurrt8" points="4430.6,557.7 4426.5,557.7 4413.8,543.1 4418,543.1 		"/>
		<polygon class="edurrt8" points="4438.5,557.7 4434.3,557.7 4421.7,543.1 4425.8,543.1 		"/>
	</g>
	<g>
		<polygon class="edurrt8" points="4446.9,557.7 4442.7,557.7 4430.1,543.1 4434.3,543.1 		"/>
		<polygon class="edurrt8" points="4454.8,557.7 4450.6,557.7 4437.9,543.1 4442.1,543.1 		"/>
		<polygon class="edurrt8" points="4462.6,557.7 4458.4,557.7 4445.8,543.1 4450,543.1 		"/>
		<polygon class="edurrt8" points="4470.5,557.7 4466.3,557.7 4453.6,543.1 4457.8,543.1 		"/>
		<polygon class="edurrt8" points="4478.3,557.7 4474.2,557.7 4461.5,543.1 4465.7,543.1 		"/>
		<polygon class="edurrt8" points="4486.2,557.7 4482,557.7 4469.4,543.1 4473.5,543.1 		"/>
		<polygon class="edurrt8" points="4494.1,557.7 4489.9,557.7 4477.2,543.1 4481.4,543.1 		"/>
	</g>
</g>
<g id="XMLID_89_">
	<polygon id="XMLID_189_" class="edurrt2" points="224.2,367.4 5.8,367.4 38.1,295.9 5.8,218.1 224.2,218.1 256.5,295.9 	"/>
	<polygon id="XMLID_188_" class="edurrt0" points="256.2,296.1 38.9,296.1 23.4,259.3 240.8,259.3 	"/>
	<polygon id="XMLID_187_" class="edurrt2" points="493.9,367.4 275.5,367.4 307.8,295.9 275.5,218.1 493.9,218.1 526.2,295.9 	"/>
	<polygon id="XMLID_186_" class="edurrt0" points="525.9,296.1 308.6,296.1 293.2,259.3 510.5,259.3 	"/>
	
		<linearGradient id="XMLID_7_" gradientUnits="userSpaceOnUse" x1="755.4" y1="317.3" x2="755.4" y2="317.3" gradientTransform="matrix(1 0 0 -1 0 564)">
		<stop  offset="0" style="stop-color:#FFFFFF"/>
		<stop  offset="1" style="stop-color:#000000"/>
	</linearGradient>
	
		<linearGradient id="XMLID_11_" gradientUnits="userSpaceOnUse" x1="755.4" y1="317.3" x2="755.4" y2="317.3" gradientTransform="matrix(1 0 0 -1 0 564)">
		<stop  offset="0" style="stop-color:#00BEFF;stop-opacity:0.1"/>
		<stop  offset="0.5" style="stop-color:#00BEFF"/>
		<stop  offset="1" style="stop-color:#00BEFF;stop-opacity:0.1"/>
	</linearGradient>
	<path id="XMLID_185_" class="edurrt9" d="M755.4,246.7"/>
	<polygon id="XMLID_184_" class="edurrt2" points="763.6,367.4 545.2,367.4 577.6,295.9 545.2,218.1 763.6,218.1 795.9,295.9 	"/>
	<polygon id="XMLID_183_" class="edurrt0" points="795.6,296.1 578.3,296.1 562.9,259.3 780.2,259.3 	"/>
	<g id="XMLID_222_">
		<polygon id="XMLID_2067_" class="edurrt4" points="-33.7,181 -29.9,175.8 -20.5,175.8 -18.3,172.7 8.3,172.7 11.7,169.2 207.2,168.9 
			213.1,172.4 239.3,172.2 253.8,188 254.3,201.6 -33.2,201.6 		"/>
		<polygon id="XMLID_2066_" class="edurrt5" points="813.4,386.3 -32.6,386.5 -42.9,377.4 -42.9,171.9 -36.9,165.7 243.3,165.7 
			272.6,199 817.7,199 824.9,205.6 824.9,376 		"/>
		<polygon id="XMLID_2065_" class="edurrt6" points="-43.4,349.2 -36.8,355.4 -36.8,376.7 -28.6,384.5 -21.5,384.5 -18.8,387 -32.8,387 
			-43.4,377.6 		"/>
		<polygon id="XMLID_2064_" class="edurrt6" points="45.9,393.7 -11.8,393.7 -19.9,386 52.7,385.9 		"/>
		<g id="XMLID_2061_">
			<polygon id="XMLID_2063_" class="edurrt6" points="825.4,347.4 819.8,353.4 819.8,374.6 811.6,382.4 803.2,382.4 798.8,386.8 
				813.5,386.8 825.4,376.4 			"/>
			<polygon id="XMLID_2062_" class="edurrt6" points="734.1,393.4 791.9,393.4 799.8,385.8 727.4,385.8 			"/>
		</g>
		<polygon id="XMLID_2060_" class="edurrt6" points="-43.4,204.1 -36.8,198 -36.9,177.9 -31.8,172.4 -22.5,172.4 -20.6,169.7 7.3,169.7 
			11.7,165.3 -36.9,165.3 -43.4,171.9 		"/>
		<polygon id="XMLID_2059_" class="edurrt6" points="825.4,237.9 818.1,231.8 818.2,211.7 813.1,206.1 803.8,206.1 801.9,203.5 
			774.1,203.5 769.6,198.5 817.9,198.5 825.4,205.4 		"/>
		<polyline id="XMLID_2058_" class="edurrt7" points="212.9,165.7 243.3,165.7 272.5,198.7 317.1,198.7 		"/>
		<g id="XMLID_2048_">
			<g id="XMLID_2055_">
				<circle id="XMLID_2057_" class="edurrt5" cx="645.4" cy="170.6" r="3"/>
				<polyline id="XMLID_2056_" class="edurrt5" points="768.4,199 744.9,170.6 648.4,170.6 				"/>
			</g>
			<g id="XMLID_2052_">
				<circle id="XMLID_2054_" class="edurrt5" cx="674.7" cy="179.7" r="2.1"/>
				<polyline id="XMLID_2053_" class="edurrt5" points="758.3,199 742.3,179.7 676.7,179.7 				"/>
			</g>
			<g id="XMLID_2049_">
				<polyline id="XMLID_2051_" class="edurrt5" points="746,198.5 737.3,188 701.6,188 				"/>
				<circle id="XMLID_2050_" class="edurrt5" cx="700.5" cy="188" r="1.1"/>
			</g>
		</g>
		<g id="XMLID_2045_">
			<circle id="XMLID_2047_" class="edurrt5" cx="195.5" cy="394.4" r="3"/>
			<polyline id="XMLID_2046_" class="edurrt5" points="88.4,386.3 96,394.4 192.5,394.4 			"/>
		</g>
		<g id="XMLID_2042_">
			<circle id="XMLID_2044_" class="edurrt5" cx="606.7" cy="395.2" r="2.1"/>
			<polyline id="XMLID_2043_" class="edurrt5" points="684.5,385.5 674.3,395.2 608.7,395.2 			"/>
		</g>
		<g id="XMLID_2039_">
			<polyline id="XMLID_2041_" class="edurrt5" points="672.2,385.6 668.3,388.8 632.6,388.8 			"/>
			<circle id="XMLID_2040_" class="edurrt5" cx="631.5" cy="388.8" r="1.1"/>
		</g>
	</g>
	<g id="XMLID_190_">
		<g id="XMLID_214_">
			<polygon id="XMLID_182_" class="edurrt8" points="281.7,192.3 277.6,192.3 264.9,177.7 269.1,177.7 			"/>
			<polygon id="XMLID_181_" class="edurrt8" points="289.6,192.3 285.4,192.3 272.8,177.7 276.9,177.7 			"/>
			<polygon id="XMLID_180_" class="edurrt8" points="297.4,192.3 293.3,192.3 280.6,177.7 284.8,177.7 			"/>
			<polygon id="XMLID_179_" class="edurrt8" points="305.3,192.3 301.1,192.3 288.5,177.7 292.6,177.7 			"/>
			<polygon id="XMLID_178_" class="edurrt8" points="313.2,192.3 309,192.3 296.3,177.7 300.5,177.7 			"/>
			<polygon id="XMLID_177_" class="edurrt8" points="321,192.3 316.8,192.3 304.2,177.7 308.4,177.7 			"/>
			<polygon id="XMLID_176_" class="edurrt8" points="328.9,192.3 324.7,192.3 312,177.7 316.2,177.7 			"/>
		</g>
		<g id="XMLID_192_">
			<polygon id="XMLID_175_" class="edurrt8" points="337.3,192.3 333.1,192.3 320.5,177.7 324.6,177.7 			"/>
			<polygon id="XMLID_174_" class="edurrt8" points="345.1,192.3 341,192.3 328.3,177.7 332.5,177.7 			"/>
			<polygon id="XMLID_173_" class="edurrt8" points="353,192.3 348.8,192.3 336.2,177.7 340.3,177.7 			"/>
			<polygon id="XMLID_172_" class="edurrt8" points="360.9,192.3 356.7,192.3 344,177.7 348.2,177.7 			"/>
			<polygon id="XMLID_171_" class="edurrt8" points="368.7,192.3 364.5,192.3 351.9,177.7 356.1,177.7 			"/>
			<polygon id="XMLID_170_" class="edurrt8" points="376.6,192.3 372.4,192.3 359.7,177.7 363.9,177.7 			"/>
			<polygon id="XMLID_166_" class="edurrt8" points="384.4,192.3 380.2,192.3 367.6,177.7 371.8,177.7 			"/>
		</g>
	</g>
</g>
</svg>
