<?xml version="1.0" encoding="utf-8"?>
<!-- Generator: Adobe Illustrator 19.0.0, SVG Export Plug-In . SVG Version: 6.00 Build 0)  -->
<svg version="1.1" id="图层_1" xmlns="http://www.w3.org/2000/svg" xmlns:xlink="http://www.w3.org/1999/xlink" x="0px" y="0px"
	 viewBox="-44 163.8 427 200" style="enable-background:new -44 163.8 427 200;" xml:space="preserve">
<style type="text/css">
	.eduser0{fill:#00BEFF;fill-opacity:0.2;}
	.eduser1{fill:#22D0FF;}
	.eduser2{fill:none;stroke:#05A8F7;stroke-miterlimit:10;}
	.eduser3{fill:url(#SVGID_1_);stroke:url(#SVGID_2_);stroke-miterlimit:10;}
	.eduser4{fill:#1561C0;fill-opacity:0.4;stroke:#1561C0;stroke-miterlimit:10;}
	.eduser5{fill:none;stroke:#1561C0;stroke-miterlimit:10;}
	.eduser6{fill:#00BEFF;}
	.eduser7{fill:none;stroke:#1561C0;stroke-width:5;stroke-miterlimit:10;}
	.eduser8{fill:#1561C0;}
	.eduser9{fill:none;stroke:url(#SVGID_3_);stroke-miterlimit:10;}
	.eduser10{fill:none;stroke:url(#SVGID_4_);stroke-miterlimit:10;}
	.eduser11{fill:#00C9FF;}
</style>
<path class="eduser0" d="M4324.6,722.9h-191.1c-2.2,0-4-1.8-4-4l0,0c0-2.2,1.8-4,4-4h191.1c2.2,0,4,1.8,4,4l0,0
	C4328.6,721.1,4326.8,722.9,4324.6,722.9z"/>
<path class="eduser1" d="M4291.7,722.9h-158.2c-2.2,0-4-1.8-4-4l0,0c0-2.2,1.8-4,4-4h158.2c2.2,0,4,1.8,4,4l0,0
	C4295.7,721.1,4293.9,722.9,4291.7,722.9z"/>
<polygon class="eduser2" points="4333.8,732.8 4115.4,732.8 4147.7,661.3 4115.4,583.6 4333.8,583.6 4366.1,661.3 "/>
<polygon class="eduser0" points="4365.8,661.5 4148.5,661.5 4133.1,624.8 4350.4,624.8 "/>
<g>
	
		<text id="XMLID_169_" transform="matrix(1 0 0 1 4160.6074 648.6392)" style="fill:#FFFFFF; font-family:'MicrosoftYaHei'; font-size:18px;">注册基础教育教师空间</text>
</g>
<g>
	
		<text id="XMLID_167_" transform="matrix(1 0 0 1 4173.3545 696.5601)" style="fill:#FFFFFF; font-family:'MicrosoftYaHei'; font-size:14px;">占教师总数</text>
</g>
<g>
	
		<text id="XMLID_165_" transform="matrix(1 0 0 1 4212.3594 612.9648)" style="fill:#FFFFFF; font-family:'MicrosoftYaHei-Bold'; font-size:18px;">4.7万人</text>
</g>
<g>
	
		<text id="XMLID_163_" transform="matrix(1 0 0 1 4250.3491 699.418)" style="fill:#FEAB01; font-family:'MicrosoftYaHei-Bold'; font-size:28px;">76%</text>
</g>
<g>
	
		<text id="XMLID_161_" transform="matrix(1 0 0 1 4432.4482 696.5596)" style="fill:#FFFFFF; font-family:'MicrosoftYaHei'; font-size:14px;">占学生总数</text>
</g>
<g>
	
		<text id="XMLID_168_" transform="matrix(1 0 0 1 4515.6938 699.4185)" style="fill:#FEAB01; font-family:'MicrosoftYaHei-Bold'; font-size:28px;">41%</text>
</g>
<path class="eduser0" d="M4594.3,722.9h-191.1c-2.2,0-4-1.8-4-4l0,0c0-2.2,1.8-4,4-4h191.1c2.2,0,4,1.8,4,4l0,0
	C4598.3,721.1,4596.5,722.9,4594.3,722.9z"/>
<path class="eduser1" d="M4487.3,722.9h-84.1c-2.2,0-4-1.8-4-4l0,0c0-2.2,1.8-4,4-4h84.1c2.2,0,4,1.8,4,4l0,0
	C4491.3,721.1,4489.6,722.9,4487.3,722.9z"/>
<polygon class="eduser2" points="4603.5,732.8 4385.1,732.8 4417.4,661.3 4385.1,583.6 4603.5,583.6 4635.8,661.3 "/>
<polygon class="eduser0" points="4635.5,661.5 4418.2,661.5 4402.8,624.8 4620.1,624.8 "/>
<g>
	
		<text id="XMLID_194_" transform="matrix(1 0 0 1 4449.9287 648.6392)" style="fill:#FFFFFF; font-family:'MicrosoftYaHei'; font-size:18px;">注册学生用户空间</text>
</g>
<g>
	
		<text id="XMLID_197_" transform="matrix(1 0 0 1 4482.2773 612.9648)" style="fill:#FFFFFF; font-family:'MicrosoftYaHei-Bold'; font-size:18px;">42万人</text>
</g>
<g>
	
		<text id="XMLID_212_" transform="matrix(1 0 0 1 4703.6992 696.5596)" style="fill:#FFFFFF; font-family:'MicrosoftYaHei'; font-size:14px;">占专任总数</text>
</g>
<g>
	
		<text id="XMLID_215_" transform="matrix(1 0 0 1 4780.2041 699.4185)" style="fill:#FEAB01; font-family:'MicrosoftYaHei-Bold'; font-size:28px;">100%</text>
</g>
<path class="eduser0" d="M4864,722.9h-191c-2.2,0-4-1.8-4-4l0,0c0-2.2,1.8-4,4-4h191c2.2,0,4,1.8,4,4l0,0
	C4868,721.1,4866.2,722.9,4864,722.9z"/>
<path class="eduser1" d="M4864,722.9h-191c-2.2,0-4-1.8-4-4l0,0c0-2.2,1.8-4,4-4h191c2.2,0,4,1.8,4,4l0,0
	C4868,721.1,4866.2,722.9,4864,722.9z"/>
<linearGradient id="SVGID_1_" gradientUnits="userSpaceOnUse" x1="4865.1001" y1="-48.2" x2="4865.1001" y2="-48.2" gradientTransform="matrix(1 0 0 -1 0 564)">
	<stop  offset="0" style="stop-color:#FFFFFF"/>
	<stop  offset="1" style="stop-color:#000000"/>
</linearGradient>
<linearGradient id="SVGID_2_" gradientUnits="userSpaceOnUse" x1="4865.1001" y1="-48.2" x2="4865.1001" y2="-48.2" gradientTransform="matrix(1 0 0 -1 0 564)">
	<stop  offset="0" style="stop-color:#00BEFF;stop-opacity:0.1"/>
	<stop  offset="0.5" style="stop-color:#00BEFF"/>
	<stop  offset="1" style="stop-color:#00BEFF;stop-opacity:0.1"/>
</linearGradient>
<path class="eduser3" d="M4865.1,612.2"/>
<polygon class="eduser2" points="4873.2,732.8 4654.9,732.8 4687.2,661.3 4654.9,583.6 4873.2,583.6 4905.6,661.3 "/>
<polygon class="eduser0" points="4905.3,661.5 4687.9,661.5 4672.5,624.8 4889.8,624.8 "/>
<g>
	
		<text id="XMLID_216_" transform="matrix(1 0 0 1 4696.4531 648.6392)" style="fill:#FFFFFF; font-family:'MicrosoftYaHei'; font-size:18px;">职业教育专任教师空间</text>
</g>
<g>
	<polygon id="XMLID_132_" class="eduser4" points="4076,546.4 4079.8,541.3 4089.1,541.3 4091.4,538.1 4117.9,538.1 4121.4,534.7 
		4316.8,534.3 4322.7,537.8 4348.9,537.7 4363.4,553.5 4363.9,567 4076.5,567 	"/>
	<g>
		
			<text id="XMLID_217_" transform="matrix(1 0 0 1 4116.2314 559.7612)" style="fill:#FEAB01; font-family:'MicrosoftYaHei-Bold'; font-size:21.2247px;">网络学习空间人人通</text>
	</g>
	<polygon id="XMLID_131_" class="eduser5" points="4923.1,751.7 4077.1,752 4066.7,742.8 4066.7,537.3 4072.7,531.2 4352.9,531.2 
		4382.2,564.4 4927.3,564.4 4934.5,571.1 4934.5,741.5 	"/>
	<polygon id="XMLID_130_" class="eduser6" points="4066.2,714.6 4072.9,720.9 4072.9,742.1 4081.1,749.9 4088.1,749.9 4090.8,752.4 
		4076.9,752.4 4066.2,743.1 	"/>
	<polygon id="XMLID_129_" class="eduser6" points="4155.5,759.2 4097.8,759.2 4089.8,751.5 4162.4,751.4 	"/>
	<g id="XMLID_126_">
		<polygon id="XMLID_128_" class="eduser6" points="4935,712.8 4929.4,718.8 4929.4,740 4921.2,747.9 4912.9,747.9 4908.4,752.2 
			4923.1,752.2 4935,741.8 		"/>
		<polygon id="XMLID_127_" class="eduser6" points="4843.8,758.9 4901.5,758.9 4909.5,751.2 4837,751.2 		"/>
	</g>
	<polygon id="XMLID_125_" class="eduser6" points="4066.2,569.5 4072.8,563.4 4072.7,543.4 4077.9,537.8 4087.2,537.8 4089,535.2 
		4116.9,535.2 4121.3,530.7 4072.7,530.7 4066.2,537.3 	"/>
	<polygon id="XMLID_124_" class="eduser6" points="4935,603.3 4927.8,597.2 4927.8,577.1 4922.7,571.6 4913.4,571.6 4911.5,568.9 
		4883.7,568.9 4879.3,563.9 4927.5,563.9 4935.1,570.8 	"/>
	<polyline id="XMLID_123_" class="eduser7" points="4322.5,531.2 4352.9,531.2 4382.2,564.1 4426.7,564.1 	"/>
	<g id="XMLID_88_">
		<g id="XMLID_120_">
			<circle id="XMLID_122_" class="eduser5" cx="4755" cy="536" r="3"/>
			<polyline id="XMLID_121_" class="eduser5" points="4878.1,564.4 4854.5,536 4758,536 			"/>
		</g>
		<g id="XMLID_117_">
			<circle id="XMLID_119_" class="eduser5" cx="4784.3" cy="545.2" r="2.1"/>
			<polyline id="XMLID_118_" class="eduser5" points="4867.9,564.4 4851.9,545.2 4786.3,545.2 			"/>
		</g>
		<g id="XMLID_112_">
			<polyline id="XMLID_116_" class="eduser5" points="4855.6,563.9 4846.9,553.4 4811.2,553.4 			"/>
			<circle id="XMLID_114_" class="eduser5" cx="4810.1" cy="553.4" r="1.1"/>
		</g>
	</g>
	<g id="XMLID_85_">
		<circle id="XMLID_87_" class="eduser5" cx="4305.1" cy="759.8" r="3"/>
		<polyline id="XMLID_86_" class="eduser5" points="4198,751.8 4205.6,759.8 4302.2,759.8 		"/>
	</g>
	<g id="XMLID_82_">
		<circle id="XMLID_84_" class="eduser5" cx="4716.3" cy="760.6" r="2.1"/>
		<polyline id="XMLID_83_" class="eduser5" points="4794.1,750.9 4783.9,760.6 4718.3,760.6 		"/>
	</g>
	<g id="XMLID_8_">
		<polyline id="XMLID_10_" class="eduser5" points="4781.8,751 4777.9,754.3 4742.2,754.3 		"/>
		<circle id="XMLID_9_" class="eduser5" cx="4741.2" cy="754.3" r="1.1"/>
	</g>
</g>
<g>
	<g>
		<polygon class="eduser8" points="4391.4,557.7 4387.2,557.7 4374.5,543.1 4378.7,543.1 		"/>
		<polygon class="eduser8" points="4399.2,557.7 4395,557.7 4382.4,543.1 4386.6,543.1 		"/>
		<polygon class="eduser8" points="4407.1,557.7 4402.9,557.7 4390.2,543.1 4394.4,543.1 		"/>
		<polygon class="eduser8" points="4414.9,557.7 4410.7,557.7 4398.1,543.1 4402.3,543.1 		"/>
		<polygon class="eduser8" points="4422.8,557.7 4418.6,557.7 4405.9,543.1 4410.1,543.1 		"/>
		<polygon class="eduser8" points="4430.6,557.7 4426.5,557.7 4413.8,543.1 4418,543.1 		"/>
		<polygon class="eduser8" points="4438.5,557.7 4434.3,557.7 4421.7,543.1 4425.8,543.1 		"/>
	</g>
	<g>
		<polygon class="eduser8" points="4446.9,557.7 4442.7,557.7 4430.1,543.1 4434.3,543.1 		"/>
		<polygon class="eduser8" points="4454.8,557.7 4450.6,557.7 4437.9,543.1 4442.1,543.1 		"/>
		<polygon class="eduser8" points="4462.6,557.7 4458.4,557.7 4445.8,543.1 4450,543.1 		"/>
		<polygon class="eduser8" points="4470.5,557.7 4466.3,557.7 4453.6,543.1 4457.8,543.1 		"/>
		<polygon class="eduser8" points="4478.3,557.7 4474.2,557.7 4461.5,543.1 4465.7,543.1 		"/>
		<polygon class="eduser8" points="4486.2,557.7 4482,557.7 4469.4,543.1 4473.5,543.1 		"/>
		<polygon class="eduser8" points="4494.1,557.7 4489.9,557.7 4477.2,543.1 4481.4,543.1 		"/>
	</g>
</g>
<g>
	
		<linearGradient id="SVGID_3_" gradientUnits="userSpaceOnUse" x1="2471.001" y1="2434.1924" x2="2599.5542" y2="2434.1924" gradientTransform="matrix(4.489700e-011 1 -1 4.489700e-011 2532.2358 -2257.3911)">
		<stop  offset="0" style="stop-color:#00BEFF;stop-opacity:0.1"/>
		<stop  offset="0.5" style="stop-color:#00BEFF"/>
		<stop  offset="1" style="stop-color:#00BEFF;stop-opacity:0.1"/>
	</linearGradient>
	<line class="eduser9" x1="98" y1="213.6" x2="98" y2="342.2"/>
	
		<linearGradient id="SVGID_4_" gradientUnits="userSpaceOnUse" x1="2471.001" y1="2294.104" x2="2599.5542" y2="2294.104" gradientTransform="matrix(4.489700e-011 1 -1 4.489700e-011 2532.2358 -2257.3911)">
		<stop  offset="0" style="stop-color:#00BEFF;stop-opacity:0.1"/>
		<stop  offset="0.5" style="stop-color:#00BEFF"/>
		<stop  offset="1" style="stop-color:#00BEFF;stop-opacity:0.1"/>
	</linearGradient>
	<line class="eduser10" x1="238.1" y1="213.6" x2="238.1" y2="342.2"/>
	<polygon id="XMLID_2069_" class="eduser4" points="-31.3,182.4 -27,177.3 -17.7,177.3 -15.4,174.1 11.2,174.1 14.6,170.7 205.6,170.4 
		238,203 -31.3,203 	"/>
	<polygon class="eduser5" points="-41.8,334.4 -42,172.9 -36,166.7 207.5,166.7 243,202.1 357.1,202.1 378.2,229.7 378.2,347.6 
		366.6,357.4 -12.6,357.4 	"/>
	<polygon class="eduser11" points="-39.5,333.4 -11.9,355.1 23.2,355 23.2,359.6 -13.8,359.6 -44.2,335.9 -44.2,321.1 -39.5,321.1 	"/>
	<polygon class="eduser11" points="356.3,204.2 376.1,231.2 376.2,260.3 380.7,260.3 380.7,229.7 358.9,199.5 338.1,199.5 338.1,204.2 	
		"/>
	<polygon class="eduser8" points="249.5,199.1 245.3,199.1 231,185.2 235.2,185.2 	"/>
	<polygon class="eduser8" points="257.4,199.1 253.2,199.1 238.8,185.2 243,185.2 	"/>
	<polygon class="eduser8" points="265.2,199.1 261,199.1 246.7,185.2 250.9,185.2 	"/>
	<polygon class="eduser8" points="273.1,199.1 268.9,199.1 254.6,185.2 258.7,185.2 	"/>
	<polygon class="eduser8" points="280.9,199.1 276.7,199.1 262.4,185.2 266.6,185.2 	"/>
	<polygon class="eduser8" points="288.8,199.1 284.6,199.1 270.3,185.2 274.4,185.2 	"/>
	<polygon class="eduser8" points="296.6,199.1 292.5,199.1 278.1,185.2 282.3,185.2 	"/>
	<polygon class="eduser6" points="373.1,325.6 373.1,346.9 364.9,354.7 356.5,354.7 354.2,357 281.7,357 288.5,364.6 346.3,364.6 
		353.2,358 366.9,358 378.7,348.6 378.7,319.7 	"/>
	<polygon id="XMLID_1977_" class="eduser6" points="-42.5,205.5 -36,199.4 -36,179.4 -30.8,173.8 -21.5,173.8 -19.7,171.2 8.2,171.2 
		13.1,166.2 -36.1,166.2 -42.5,172.7 	"/>
</g>
</svg>
