<?xml version="1.0" encoding="utf-8"?>
<!-- Generator: Adobe Illustrator 19.0.0, SVG Export Plug-In . SVG Version: 6.00 Build 0)  -->
<svg version="1.1" id="图层_1" xmlns="http://www.w3.org/2000/svg" xmlns:xlink="http://www.w3.org/1999/xlink" x="0px" y="0px"
	 viewBox="0 0 316 77" style="enable-background:new 0 0 316 77;" xml:space="preserve">
<style type="text/css">
	.edu_stlpt0{opacity:0.7;fill:#1561C0;fill-opacity:0.4;stroke:#1561C0;stroke-miterlimit:10;}
	.edu_stlpt1{fill:none;stroke:#1561C0;stroke-miterlimit:10;}
	.edu_stlpt2{fill:#1561C0;fill-opacity:0.4;stroke:#1561C0;stroke-miterlimit:10;}
	.edu_stlpt3{fill:#00BEFF;}
	.edu_stlpt4{fill:none;stroke:#00BEFF;stroke-width:2;stroke-miterlimit:10;}
</style>
<g id="XMLID_60_">
	<polygon id="XMLID_72_" class="edu_stlpt0" points="10.4,12.5 10.5,33 4.7,38.4 4.7,54.7 24,69.7 68.7,69.7 71.8,67.9 242.7,67.9 
		247.1,69.7 311.7,69.7 311.7,61.7 309.8,58.5 309.8,28 311.1,26 311.1,17.8 305.9,13 253,13 241.8,9.1 60.9,9.2 57.6,11 28.6,11 
		26.5,9.5 14.1,9.5 	"/>
	<g id="XMLID_62_">
		<polygon id="XMLID_71_" class="edu_stlpt1" points="310.9,76.1 251.2,76.1 241.2,71.5 73.4,71.5 65.9,76.1 26.2,76.1 1.6,56.9 1.6,6.3 
			7.6,1.3 65.8,1.3 73.6,5.6 241.8,5.6 253.5,9.8 310.5,9.8 314.8,13.3 314.8,26 313.4,28.9 313.4,56.4 314.8,60.3 314.8,72.7 		"/>
		<polygon id="XMLID_67_" class="edu_stlpt2" points="1.6,63.3 1.6,76.1 17.5,76.1 		"/>
		<polygon id="XMLID_66_" class="edu_stlpt3" points="310.4,75.1 313.8,72 310.5,71.5 		"/>
		<polygon id="XMLID_65_" class="edu_stlpt3" points="308.9,74.6 252.2,74.6 246.7,71.9 308.9,71.9 		"/>
		<polygon id="XMLID_64_" class="edu_stlpt3" points="27.4,74.7 65.2,74.7 68.7,72.5 24.5,72.5 		"/>
		<polygon id="XMLID_63_" class="edu_stlpt3" points="1.2,6.1 7.5,0.9 66,0.9 73.9,5.1 71.5,6.7 58,6.7 55.4,8.1 28.7,8 26.7,6.7 11.1,6.7 
			6.3,10.4 6.3,31 1.2,35.9 		"/>
	</g>
	<polyline id="XMLID_61_" class="edu_stlpt4" points="302.9,9.8 309.5,9.8 314.8,14 314.8,20.7 	"/>
</g>
</svg>
