<?xml version="1.0" encoding="utf-8"?>
<!-- Generator: Adobe Illustrator 19.0.0, SVG Export Plug-In . SVG Version: 6.00 Build 0)  -->
<svg version="1.1" id="图层_1" xmlns="http://www.w3.org/2000/svg" xmlns:xlink="http://www.w3.org/1999/xlink" x="0px" y="0px"
	 viewBox="0 0 302 70" style="enable-background:new 0 0 302 70;" xml:space="preserve">
<style type="text/css">
	.edu_ljfw0{opacity:0.7;fill:#1561C0;}
	.edu_ljfw1{fill:none;stroke:#1561C0;stroke-miterlimit:10;}
	.edu_ljfw2{fill:#1561C0;}
	.edu_ljfw3{fill:none;stroke:#00BEFF;stroke-width:2;stroke-miterlimit:10;}
</style>
<g id="XMLID_79_">
	<polygon id="XMLID_98_" class="edu_ljfw0" points="114.6,62.8 16.4,62.8 8.5,54.6 8.5,15 14.6,7.2 114.6,7.2 	"/>
	<path id="XMLID_97_" class="edu_ljfw1" d="M25,20.8"/>
	<path id="XMLID_96_" class="edu_ljfw1" d="M25,45.2"/>
	<polyline id="XMLID_95_" class="edu_ljfw1" points="299.8,46.2 299.8,60.3 292.3,68.7 9.5,68.7 2.2,61 2.2,45.2 	"/>
	<line id="XMLID_94_" class="edu_ljfw1" x1="119.9" y1="46.2" x2="119.9" y2="68.7"/>
	<line id="XMLID_93_" class="edu_ljfw1" x1="119.9" y1="1.3" x2="119.9" y2="25.3"/>
	<polyline id="XMLID_92_" class="edu_ljfw1" points="2.2,25.3 2.2,8.7 9.5,1.3 292.2,1.3 299.8,9 299.8,25.3 	"/>
	<path id="XMLID_91_" class="edu_ljfw2" d="M2.2,27.3L2.2,27.3c-1.1,0-2-0.9-2-2v0c0-1.1,0.9-2,2-2h0c1.1,0,2,0.9,2,2v0
		C4.2,26.4,3.3,27.3,2.2,27.3z"/>
	<path id="XMLID_90_" class="edu_ljfw2" d="M2.2,47.2L2.2,47.2c-1.1,0-2-0.9-2-2v0c0-1.1,0.9-2,2-2h0c1.1,0,2,0.9,2,2v0
		C4.2,46.3,3.3,47.2,2.2,47.2z"/>
	<path id="XMLID_89_" class="edu_ljfw2" d="M119.9,27.3L119.9,27.3c-1.1,0-2-0.9-2-2v0c0-1.1,0.9-2,2-2l0,0c1.1,0,2,0.9,2,2v0
		C121.9,26.4,121,27.3,119.9,27.3z"/>
	<path id="XMLID_88_" class="edu_ljfw2" d="M119.9,47.2L119.9,47.2c-1.1,0-2-0.9-2-2v0c0-1.1,0.9-2,2-2l0,0c1.1,0,2,0.9,2,2v0
		C121.9,46.3,121,47.2,119.9,47.2z"/>
	<path id="XMLID_87_" class="edu_ljfw2" d="M299.8,27.3L299.8,27.3c-1.1,0-2-0.9-2-2v0c0-1.1,0.9-2,2-2l0,0c1.1,0,2,0.9,2,2v0
		C301.8,26.4,300.9,27.3,299.8,27.3z"/>
	<path id="XMLID_86_" class="edu_ljfw2" d="M299.8,47.2L299.8,47.2c-1.1,0-2-0.9-2-2v0c0-1.1,0.9-2,2-2l0,0c1.1,0,2,0.9,2,2v0
		C301.8,46.3,300.9,47.2,299.8,47.2z"/>
	<polyline id="XMLID_85_" class="edu_ljfw3" points="2.2,56.9 2.2,61 9.5,68.7 14.8,68.7 	"/>
	<polyline id="XMLID_84_" class="edu_ljfw3" points="2.2,13.1 2.2,9 9.5,1.3 14.8,1.3 	"/>
	<g>
		<polyline id="XMLID_83_" class="edu_ljfw3" points="299.8,56.9 299.8,61 292.5,68.7 287.2,68.7 		"/>
		<polyline id="XMLID_82_" class="edu_ljfw3" points="299.8,13.1 299.8,9 292.5,1.3 287.2,1.3 		"/>
	</g>
	<g>
		<polyline id="XMLID_81_" class="edu_ljfw3" points="119.9,7.2 119.9,1.3 114.1,1.3 125.7,1.3 		"/>
	</g>
	<g>
		<polyline id="XMLID_80_" class="edu_ljfw3" points="119.9,62.8 119.9,68.7 114.1,68.7 125.7,68.7 		"/>
	</g>
</g>
</svg>
