<?xml version="1.0" encoding="utf-8"?>
<!-- Generator: Adobe Illustrator 19.0.0, SVG Export Plug-In . SVG Version: 6.00 Build 0)  -->
<svg version="1.1" id="图层_1" xmlns="http://www.w3.org/2000/svg" xmlns:xlink="http://www.w3.org/1999/xlink" x="0px" y="0px"
	 viewBox="0 0 875 176" style="enable-background:new 0 0 875 176;" xml:space="preserve">
<style type="text/css">
	.edu_xxt0{fill:url(#XMLID_10_);stroke:url(#XMLID_11_);stroke-miterlimit:10;}
	.edu_xxt1{fill:url(#XMLID_112_);stroke:url(#XMLID_113_);stroke-miterlimit:10;}
	.edu_xxt2{fill:#1561C0;fill-opacity:0.4;stroke:#1561C0;stroke-miterlimit:10;}
	.edu_xxt3{fill:none;stroke:#1561C0;stroke-miterlimit:10;}
	.edu_xxt4{fill:#00BEFF;}
	.edu_xxt5{fill:none;stroke:#1561C0;stroke-width:5;stroke-miterlimit:10;}
	.edu_xxt6{fill:#1561C0;}
	.edu_xxt7{fill:none;stroke:#00BEFF;stroke-width:2;stroke-miterlimit:10;}
</style>
<g id="XMLID_1_">
	<linearGradient id="XMLID_10_" gradientUnits="userSpaceOnUse" x1="527.8665" y1="125.0415" x2="527.8665" y2="125.0415">
		<stop  offset="0" style="stop-color:#FFFFFF"/>
		<stop  offset="1" style="stop-color:#000000"/>
	</linearGradient>
	<linearGradient id="XMLID_11_" gradientUnits="userSpaceOnUse" x1="527.8665" y1="125.0415" x2="527.8665" y2="125.0415">
		<stop  offset="0" style="stop-color:#00BEFF;stop-opacity:0.1"/>
		<stop  offset="0.5" style="stop-color:#00BEFF"/>
		<stop  offset="1" style="stop-color:#00BEFF;stop-opacity:0.1"/>
	</linearGradient>
	<path id="XMLID_111_" class="edu_xxt0" d="M527.9,125"/>
	<linearGradient id="XMLID_112_" gradientUnits="userSpaceOnUse" x1="812.5418" y1="125.0415" x2="812.5418" y2="125.0415">
		<stop  offset="0" style="stop-color:#FFFFFF"/>
		<stop  offset="1" style="stop-color:#000000"/>
	</linearGradient>
	<linearGradient id="XMLID_113_" gradientUnits="userSpaceOnUse" x1="812.5418" y1="125.0415" x2="812.5418" y2="125.0415">
		<stop  offset="0" style="stop-color:#00BEFF;stop-opacity:0.1"/>
		<stop  offset="0.5" style="stop-color:#00BEFF"/>
		<stop  offset="1" style="stop-color:#00BEFF;stop-opacity:0.1"/>
	</linearGradient>
	<path id="XMLID_110_" class="edu_xxt1" d="M812.5,125"/>
	<polygon id="XMLID_1938_" class="edu_xxt2" points="12.8,18.3 16.6,13.2 26,13.2 28.2,10.1 54.8,10.1 58.2,6.6 253.7,6.3 259.6,9.8 
		285.8,9.6 300.3,25.4 300.8,39 13.3,39 	"/>
	<polygon id="XMLID_1937_" class="edu_xxt3" points="859.9,162.2 13.9,162.5 3.6,153.3 3.6,9.2 9.6,3.1 289.8,3.1 319.1,36.4 864.2,36.4 
		871.4,43 871.4,152 	"/>
	<polygon id="XMLID_1936_" class="edu_xxt4" points="3.1,125.1 9.7,131.4 9.7,152.6 17.9,160.4 25,160.4 27.7,162.9 13.7,162.9 
		3.1,153.6 	"/>
	<polygon id="XMLID_1935_" class="edu_xxt4" points="92.4,169.7 34.7,169.7 26.6,162 99.2,161.9 	"/>
	<g id="XMLID_1932_">
		<polygon id="XMLID_1934_" class="edu_xxt4" points="871.9,116.6 866.3,129.3 866.3,150.6 858.1,158.4 849.7,158.4 845.3,162.7 
			860,162.7 871.9,152.3 		"/>
		<polygon id="XMLID_1933_" class="edu_xxt4" points="780.6,169.4 838.4,169.4 846.3,161.7 773.9,161.7 		"/>
	</g>
	<polygon id="XMLID_1931_" class="edu_xxt4" points="3.1,41.5 9.7,35.4 9.6,15.3 14.7,9.8 24,9.8 25.9,7.1 53.8,7.1 58.2,2.6 9.6,2.6 
		3.1,9.2 	"/>
	<polygon id="XMLID_1930_" class="edu_xxt4" points="871.9,75.2 864.6,69.1 864.7,49.1 859.6,43.5 850.3,43.5 848.4,40.9 820.6,40.9 
		816.1,35.8 864.4,35.8 871.9,42.7 	"/>
	<polyline id="XMLID_1929_" class="edu_xxt5" points="259.4,3.1 289.8,3.1 319,36.1 363.6,36.1 	"/>
	<g id="XMLID_1919_">
		<g id="XMLID_1926_">
			<circle id="XMLID_1928_" class="edu_xxt3" cx="691.9" cy="8" r="3"/>
			<polyline id="XMLID_1927_" class="edu_xxt3" points="814.9,36.4 791.4,8 694.9,8 			"/>
		</g>
		<g id="XMLID_1923_">
			<circle id="XMLID_1925_" class="edu_xxt3" cx="721.2" cy="17.1" r="2.1"/>
			<polyline id="XMLID_1924_" class="edu_xxt3" points="804.8,36.4 788.8,17.1 723.2,17.1 			"/>
		</g>
		<g id="XMLID_1920_">
			<polyline id="XMLID_1922_" class="edu_xxt3" points="792.5,35.8 783.8,25.3 748.1,25.3 			"/>
			<circle id="XMLID_1921_" class="edu_xxt3" cx="747" cy="25.3" r="1.1"/>
		</g>
	</g>
	<g id="XMLID_107_">
		<circle id="XMLID_1918_" class="edu_xxt3" cx="242" cy="170.3" r="3"/>
		<polyline id="XMLID_1917_" class="edu_xxt3" points="134.9,162.3 142.5,170.3 239,170.3 		"/>
	</g>
	<g id="XMLID_102_">
		<circle id="XMLID_105_" class="edu_xxt3" cx="653.2" cy="171.1" r="2.1"/>
		<polyline id="XMLID_104_" class="edu_xxt3" points="731,161.5 720.8,171.1 655.2,171.1 		"/>
	</g>
	<g id="XMLID_7_">
		<polyline id="XMLID_100_" class="edu_xxt3" points="718.7,161.5 714.8,164.8 679.1,164.8 		"/>
		<circle id="XMLID_99_" class="edu_xxt3" cx="678" cy="164.8" r="1.1"/>
	</g>
	<g>
		<g>
			<polygon id="XMLID_109_" class="edu_xxt6" points="327.8,28.7 323.6,28.7 311,14.1 315.2,14.1 			"/>
			<polygon id="XMLID_108_" class="edu_xxt6" points="335.7,28.7 331.5,28.7 318.8,14.1 323,14.1 			"/>
			<polygon id="XMLID_106_" class="edu_xxt6" points="343.5,28.7 339.4,28.7 326.7,14.1 330.9,14.1 			"/>
			<polygon id="XMLID_103_" class="edu_xxt6" points="351.4,28.7 347.2,28.7 334.6,14.1 338.7,14.1 			"/>
			<polygon id="XMLID_101_" class="edu_xxt6" points="359.3,28.7 355.1,28.7 342.4,14.1 346.6,14.1 			"/>
			<polygon id="XMLID_98_" class="edu_xxt6" points="367.1,28.7 362.9,28.7 350.3,14.1 354.5,14.1 			"/>
			<polygon id="XMLID_97_" class="edu_xxt6" points="375,28.7 370.8,28.7 358.1,14.1 362.3,14.1 			"/>
		</g>
		<g>
			<polygon id="XMLID_96_" class="edu_xxt6" points="383.4,28.7 379.2,28.7 366.5,14.1 370.7,14.1 			"/>
			<polygon id="XMLID_95_" class="edu_xxt6" points="391.2,28.7 387.1,28.7 374.4,14.1 378.6,14.1 			"/>
			<polygon id="XMLID_94_" class="edu_xxt6" points="399.1,28.7 394.9,28.7 382.3,14.1 386.4,14.1 			"/>
			<polygon id="XMLID_93_" class="edu_xxt6" points="407,28.7 402.8,28.7 390.1,14.1 394.3,14.1 			"/>
			<polygon id="XMLID_92_" class="edu_xxt6" points="414.8,28.7 410.6,28.7 398,14.1 402.2,14.1 			"/>
			<polygon id="XMLID_91_" class="edu_xxt6" points="422.7,28.7 418.5,28.7 405.8,14.1 410,14.1 			"/>
			<polygon id="XMLID_90_" class="edu_xxt6" points="430.5,28.7 426.3,28.7 413.7,14.1 417.9,14.1 			"/>
		</g>
	</g>
	<g>
		<line id="XMLID_89_" class="edu_xxt3" x1="296" y1="55.5" x2="296" y2="146.8"/>
		<line id="XMLID_88_" class="edu_xxt7" x1="296" y1="55.5" x2="296" y2="61.5"/>
		<line id="XMLID_87_" class="edu_xxt7" x1="296" y1="140.8" x2="296" y2="146.8"/>
	</g>
	<g>
		<line id="XMLID_86_" class="edu_xxt3" x1="583.9" y1="55.5" x2="583.9" y2="146.8"/>
		<line id="XMLID_85_" class="edu_xxt7" x1="583.9" y1="55.5" x2="583.9" y2="61.5"/>
		<line id="XMLID_84_" class="edu_xxt7" x1="583.9" y1="140.8" x2="583.9" y2="146.8"/>
	</g>
</g>
</svg>
