<svg version="1.1" id="logo" xmlns="http://www.w3.org/2000/svg" xmlns:xlink="http://www.w3.org/1999/xlink" x="0px" y="0px" width="237.06px" height="230.547px" viewBox="0 0 222 222" xml:space="preserve">
	<style type="text/css">
		.logo_st0{fill:#1561C0;}
		.logo_st1{opacity:0.3;}
		.logo_st2{clip-path:url(#logo_XMLID_220_);}
		.logo_st3{fill:none;stroke:#05BCFE;stroke-width:0.2;stroke-miterlimit:10;}
		.logo_st4{fill:#00BEFF;}
	</style>
	<g id="logo_XMLID_1887_">
		<g id="logo_XMLID_6_">
			<path id="logo_XMLID_116_" class="logo_st0" d="M191.7,222H29.7l-0.1-0.1l-28.8-26V50.9L43.9,7.8h50.8l4.6,6.1h24.1l4.9-6.1H177l0.1,0.1
				l44.1,43v144.7L191.7,222z M30.1,221h161.2l29-25.8V51.4L176.6,8.8h-47.9l-4.9,6.1H98.8l-4.6-6.1H44.3L1.8,51.4v144.1L30.1,221z
				 M191.6,212.6H30.1l-11.8-13.5v-50.2l-5.8-3.9V85.9l6.3-5.5l-0.1-31.2l9.5-11.4l-0.6-6.2l19.5-18.8h28l6.6,8.5h60l5.5-8.5h27.3
				l21.9,20.4v7.2l8.8,9v28.8l4.9,7.4v58.3l-6,6l0.3,48.7L191.6,212.6z M30.5,211.6h160.7l12.2-13.4l-0.3-48.7l6-6V85.8l-4.9-7.4
				V49.7l-8.8-9v-7.2L174,13.7h-26.3l-5.5,8.5h-61l-6.6-8.5H47.5L28.6,31.9l0.5,6.2l-9.5,11.5l0.1,31.3l-6.3,5.5v58.2l5.8,3.9v50.3
				L30.5,211.6z"/>
		</g>
		<polygon id="logo_XMLID_9_" class="logo_st0" points="208.4,8.3 220.8,20 220.8,44.6 184.1,8.3 	"/>
		<polygon id="logo_XMLID_3960_" class="logo_st0" points="13.6,8.3 1.3,20 1.3,44.6 37.9,8.3 	"/>
		<polygon id="logo_XMLID_10_" class="logo_st0" points="220.8,202.2 220.8,215.1 213.7,221.5 199.3,221.5 	"/>
		<polygon id="logo_XMLID_3958_" class="logo_st0" points="1.3,202.5 1.3,215.4 8.3,221.8 22.7,221.8 	"/>
		<g id="logo_XMLID_11_" class="logo_st1">
			<defs>
				<polygon id="logo_XMLID_102_" class="logo_st1" points="209,143.7 203,149.7 203.3,198.5 190.9,212.2 29.7,212.2 18.2,199 18.2,148.8 
					12.4,144.9 12.4,86.2 18.7,80.7 18.6,49.5 28.1,38 27.5,31.8 45.3,14.5 74.3,13.3 80.9,21.8 141.4,21.8 146.9,13.3 175.5,13.3 
					195.3,32.4 195.3,40.7 204.1,49.6 204.1,78.4 209,85.7 			"/>
			</defs>
			<clipPath id="logo_XMLID_220_">
				<use xlink:href="#logo_XMLID_102_"  style="overflow:visible;"/>
			</clipPath>
			<g id="logo_XMLID_12_" class="logo_st2">
				<g id="logo_XMLID_13_">
					<line id="logo_XMLID_14_" class="logo_st3" x1="183.4" y1="11.7" x2="385.6" y2="213.8"/>
					<line id="logo_XMLID_15_" class="logo_st3" x1="179.1" y1="11.7" x2="381.3" y2="213.8"/>
					<line id="logo_XMLID_16_" class="logo_st3" x1="174.9" y1="11.7" x2="377" y2="213.8"/>
					<line id="logo_XMLID_17_" class="logo_st3" x1="170.6" y1="11.7" x2="372.8" y2="213.8"/>
					<line id="logo_XMLID_18_" class="logo_st3" x1="166.3" y1="11.7" x2="368.5" y2="213.8"/>
					<line id="logo_XMLID_19_" class="logo_st3" x1="162" y1="11.7" x2="364.2" y2="213.8"/>
					<line id="logo_XMLID_20_" class="logo_st3" x1="157.8" y1="11.7" x2="360" y2="213.8"/>
					<line id="logo_XMLID_21_" class="logo_st3" x1="153.5" y1="11.7" x2="355.7" y2="213.8"/>
					<line id="logo_XMLID_22_" class="logo_st3" x1="149.2" y1="11.7" x2="351.4" y2="213.8"/>
					<line id="logo_XMLID_23_" class="logo_st3" x1="145" y1="11.7" x2="347.1" y2="213.8"/>
					<line id="logo_XMLID_24_" class="logo_st3" x1="140.7" y1="11.7" x2="342.9" y2="213.8"/>
					<line id="logo_XMLID_25_" class="logo_st3" x1="132.2" y1="11.7" x2="334.3" y2="213.8"/>
					<line id="logo_XMLID_26_" class="logo_st3" x1="123.6" y1="11.7" x2="325.8" y2="213.8"/>
					<line id="logo_XMLID_27_" class="logo_st3" x1="115.1" y1="11.7" x2="317.3" y2="213.8"/>
					<line id="logo_XMLID_28_" class="logo_st3" x1="106.5" y1="11.7" x2="308.7" y2="213.8"/>
					<line id="logo_XMLID_29_" class="logo_st3" x1="98" y1="11.7" x2="300.2" y2="213.8"/>
					<line id="logo_XMLID_30_" class="logo_st3" x1="89.5" y1="11.7" x2="291.6" y2="213.8"/>
					<line id="logo_XMLID_31_" class="logo_st3" x1="80.9" y1="11.7" x2="283.1" y2="213.8"/>
					<line id="logo_XMLID_32_" class="logo_st3" x1="136.4" y1="11.7" x2="338.6" y2="213.8"/>
					<line id="logo_XMLID_33_" class="logo_st3" x1="127.9" y1="11.7" x2="330.1" y2="213.8"/>
					<line id="logo_XMLID_34_" class="logo_st3" x1="119.3" y1="11.7" x2="321.5" y2="213.8"/>
					<line id="logo_XMLID_35_" class="logo_st3" x1="110.8" y1="11.7" x2="313" y2="213.8"/>
					<line id="logo_XMLID_36_" class="logo_st3" x1="102.3" y1="11.7" x2="304.4" y2="213.8"/>
					<line id="logo_XMLID_37_" class="logo_st3" x1="93.7" y1="11.7" x2="295.9" y2="213.8"/>
					<line id="logo_XMLID_38_" class="logo_st3" x1="85.2" y1="11.7" x2="287.4" y2="213.8"/>
					<line id="logo_XMLID_39_" class="logo_st3" x1="76.6" y1="11.7" x2="278.8" y2="213.8"/>
					<line id="logo_XMLID_40_" class="logo_st3" x1="68.1" y1="11.7" x2="270.3" y2="213.8"/>
					<line id="logo_XMLID_41_" class="logo_st3" x1="59.6" y1="11.7" x2="261.7" y2="213.8"/>
					<line id="logo_XMLID_42_" class="logo_st3" x1="51" y1="11.7" x2="253.2" y2="213.8"/>
					<line id="logo_XMLID_43_" class="logo_st3" x1="42.5" y1="11.7" x2="244.7" y2="213.8"/>
					<line id="logo_XMLID_44_" class="logo_st3" x1="33.9" y1="11.7" x2="236.1" y2="213.8"/>
					<line id="logo_XMLID_45_" class="logo_st3" x1="25.4" y1="11.7" x2="227.6" y2="213.8"/>
					<line id="logo_XMLID_46_" class="logo_st3" x1="16.9" y1="11.7" x2="219" y2="213.8"/>
					<line id="logo_XMLID_47_" class="logo_st3" x1="8.3" y1="11.7" x2="210.5" y2="213.8"/>
					<line id="logo_XMLID_48_" class="logo_st3" x1="-0.2" y1="11.7" x2="202" y2="213.8"/>
					<line id="logo_XMLID_49_" class="logo_st3" x1="-8.8" y1="11.7" x2="193.4" y2="213.8"/>
					<line id="logo_XMLID_50_" class="logo_st3" x1="72.4" y1="11.7" x2="274.6" y2="213.8"/>
					<line id="logo_XMLID_51_" class="logo_st3" x1="63.8" y1="11.7" x2="266" y2="213.8"/>
					<line id="logo_XMLID_52_" class="logo_st3" x1="55.3" y1="11.7" x2="257.5" y2="213.8"/>
					<line id="logo_XMLID_53_" class="logo_st3" x1="46.8" y1="11.7" x2="248.9" y2="213.8"/>
					<line id="logo_XMLID_54_" class="logo_st3" x1="38.2" y1="11.7" x2="240.4" y2="213.8"/>
					<line id="logo_XMLID_55_" class="logo_st3" x1="29.7" y1="11.7" x2="231.9" y2="213.8"/>
					<line id="logo_XMLID_56_" class="logo_st3" x1="21.1" y1="11.7" x2="223.3" y2="213.8"/>
					<line id="logo_XMLID_57_" class="logo_st3" x1="12.6" y1="11.7" x2="214.8" y2="213.8"/>
					<line id="logo_XMLID_58_" class="logo_st3" x1="4.1" y1="11.7" x2="206.2" y2="213.8"/>
					<line id="logo_XMLID_59_" class="logo_st3" x1="-4.5" y1="11.7" x2="197.7" y2="213.8"/>
					<line id="logo_XMLID_60_" class="logo_st3" x1="-13" y1="11.7" x2="189.2" y2="213.8"/>
					<line id="logo_XMLID_61_" class="logo_st3" x1="-17.3" y1="11.7" x2="184.9" y2="213.8"/>
					<line id="logo_XMLID_62_" class="logo_st3" x1="-21.6" y1="11.7" x2="180.6" y2="213.8"/>
					<line id="logo_XMLID_63_" class="logo_st3" x1="-25.8" y1="11.7" x2="176.3" y2="213.8"/>
					<line id="logo_XMLID_64_" class="logo_st3" x1="-30.1" y1="11.7" x2="172.1" y2="213.8"/>
					<line id="logo_XMLID_65_" class="logo_st3" x1="-34.4" y1="11.7" x2="167.8" y2="213.8"/>
					<line id="logo_XMLID_66_" class="logo_st3" x1="-38.6" y1="11.7" x2="163.5" y2="213.8"/>
					<line id="logo_XMLID_67_" class="logo_st3" x1="-42.9" y1="11.7" x2="159.3" y2="213.8"/>
					<line id="logo_XMLID_68_" class="logo_st3" x1="-47.2" y1="11.7" x2="155" y2="213.8"/>
					<line id="logo_XMLID_69_" class="logo_st3" x1="-51.5" y1="11.7" x2="150.7" y2="213.8"/>
					<line id="logo_XMLID_70_" class="logo_st3" x1="-55.7" y1="11.7" x2="146.5" y2="213.8"/>
					<line id="logo_XMLID_71_" class="logo_st3" x1="-60" y1="11.7" x2="142.2" y2="213.8"/>
					<line id="logo_XMLID_72_" class="logo_st3" x1="-64.3" y1="11.7" x2="137.9" y2="213.8"/>
					<line id="logo_XMLID_73_" class="logo_st3" x1="-68.5" y1="11.7" x2="133.6" y2="213.8"/>
					<line id="logo_XMLID_74_" class="logo_st3" x1="-72.8" y1="11.7" x2="129.4" y2="213.8"/>
					<line id="logo_XMLID_75_" class="logo_st3" x1="-77.1" y1="11.7" x2="125.1" y2="213.8"/>
					<line id="logo_XMLID_76_" class="logo_st3" x1="-81.3" y1="11.7" x2="120.8" y2="213.8"/>
					<line id="logo_XMLID_77_" class="logo_st3" x1="-85.6" y1="11.7" x2="116.6" y2="213.8"/>
					<line id="logo_XMLID_78_" class="logo_st3" x1="-89.9" y1="11.7" x2="112.3" y2="213.8"/>
					<line id="logo_XMLID_79_" class="logo_st3" x1="-94.2" y1="11.7" x2="108" y2="213.8"/>
					<line id="logo_XMLID_80_" class="logo_st3" x1="-98.4" y1="11.7" x2="103.7" y2="213.8"/>
					<line id="logo_XMLID_81_" class="logo_st3" x1="-102.7" y1="11.7" x2="99.5" y2="213.8"/>
					<line id="logo_XMLID_82_" class="logo_st3" x1="-107" y1="11.7" x2="95.2" y2="213.8"/>
					<line id="logo_XMLID_83_" class="logo_st3" x1="-111.2" y1="11.7" x2="90.9" y2="213.8"/>
					<line id="logo_XMLID_84_" class="logo_st3" x1="-115.5" y1="11.7" x2="86.7" y2="213.8"/>
					<line id="logo_XMLID_85_" class="logo_st3" x1="-119.8" y1="11.7" x2="82.4" y2="213.8"/>
					<line id="logo_XMLID_86_" class="logo_st3" x1="-124" y1="11.7" x2="78.1" y2="213.8"/>
					<line id="logo_XMLID_87_" class="logo_st3" x1="-128.3" y1="11.7" x2="73.9" y2="213.8"/>
					<line id="logo_XMLID_88_" class="logo_st3" x1="-132.6" y1="11.7" x2="69.6" y2="213.8"/>
					<line id="logo_XMLID_89_" class="logo_st3" x1="-136.9" y1="11.7" x2="65.3" y2="213.8"/>
					<line id="logo_XMLID_90_" class="logo_st3" x1="-141.1" y1="11.7" x2="61" y2="213.8"/>
					<line id="logo_XMLID_91_" class="logo_st3" x1="-145.4" y1="11.7" x2="56.8" y2="213.8"/>
					<line id="logo_XMLID_92_" class="logo_st3" x1="-149.7" y1="11.7" x2="52.5" y2="213.8"/>
					<line id="logo_XMLID_93_" class="logo_st3" x1="-153.9" y1="11.7" x2="48.2" y2="213.8"/>
					<line id="logo_XMLID_94_" class="logo_st3" x1="-158.2" y1="11.7" x2="44" y2="213.8"/>
					<line id="logo_XMLID_95_" class="logo_st3" x1="-162.5" y1="11.7" x2="39.7" y2="213.8"/>
					<line id="logo_XMLID_96_" class="logo_st3" x1="-166.7" y1="11.7" x2="35.4" y2="213.8"/>
					<line id="logo_XMLID_97_" class="logo_st3" x1="-171" y1="11.7" x2="31.2" y2="213.8"/>
					<line id="logo_XMLID_98_" class="logo_st3" x1="-175.3" y1="11.7" x2="26.9" y2="213.8"/>
					<line id="logo_XMLID_99_" class="logo_st3" x1="-179.6" y1="11.7" x2="22.6" y2="213.8"/>
					<line id="logo_XMLID_100_" class="logo_st3" x1="-183.8" y1="11.7" x2="18.3" y2="213.8"/>
				</g>
				<g id="logo_XMLID_101_">
					<line id="logo_XMLID_3418_" class="logo_st3" x1="36.9" y1="11.7" x2="-165.3" y2="213.8"/>
					<line id="logo_XMLID_3417_" class="logo_st3" x1="41.2" y1="11.7" x2="-161" y2="213.8"/>
					<line id="logo_XMLID_3416_" class="logo_st3" x1="45.4" y1="11.7" x2="-156.7" y2="213.8"/>
					<line id="logo_XMLID_3415_" class="logo_st3" x1="49.7" y1="11.7" x2="-152.5" y2="213.8"/>
					<line id="logo_XMLID_3414_" class="logo_st3" x1="54" y1="11.7" x2="-148.2" y2="213.8"/>
					<line id="logo_XMLID_3413_" class="logo_st3" x1="58.3" y1="11.7" x2="-143.9" y2="213.8"/>
					<line id="logo_XMLID_3412_" class="logo_st3" x1="62.5" y1="11.7" x2="-139.6" y2="213.8"/>
					<line id="logo_XMLID_3411_" class="logo_st3" x1="66.8" y1="11.7" x2="-135.4" y2="213.8"/>
					<line id="logo_XMLID_3410_" class="logo_st3" x1="71.1" y1="11.7" x2="-131.1" y2="213.8"/>
					<line id="logo_XMLID_3409_" class="logo_st3" x1="75.3" y1="11.7" x2="-126.8" y2="213.8"/>
					<line id="logo_XMLID_3408_" class="logo_st3" x1="79.6" y1="11.7" x2="-122.6" y2="213.8"/>
					<line id="logo_XMLID_3407_" class="logo_st3" x1="88.2" y1="11.7" x2="-114" y2="213.8"/>
					<line id="logo_XMLID_3406_" class="logo_st3" x1="96.7" y1="11.7" x2="-105.5" y2="213.8"/>
					<line id="logo_XMLID_3405_" class="logo_st3" x1="105.2" y1="11.7" x2="-96.9" y2="213.8"/>
					<line id="logo_XMLID_3404_" class="logo_st3" x1="113.8" y1="11.7" x2="-88.4" y2="213.8"/>
					<line id="logo_XMLID_3403_" class="logo_st3" x1="122.3" y1="11.7" x2="-79.9" y2="213.8"/>
					<line id="logo_XMLID_3402_" class="logo_st3" x1="130.9" y1="11.7" x2="-71.3" y2="213.8"/>
					<line id="logo_XMLID_3401_" class="logo_st3" x1="139.4" y1="11.7" x2="-62.8" y2="213.8"/>
					<line id="logo_XMLID_3400_" class="logo_st3" x1="83.9" y1="11.7" x2="-118.3" y2="213.8"/>
					<line id="logo_XMLID_3399_" class="logo_st3" x1="92.4" y1="11.7" x2="-109.8" y2="213.8"/>
					<line id="logo_XMLID_3398_" class="logo_st3" x1="101" y1="11.7" x2="-101.2" y2="213.8"/>
					<line id="logo_XMLID_3397_" class="logo_st3" x1="109.5" y1="11.7" x2="-92.7" y2="213.8"/>
					<line id="logo_XMLID_3396_" class="logo_st3" x1="118" y1="11.7" x2="-84.1" y2="213.8"/>
					<line id="logo_XMLID_3395_" class="logo_st3" x1="126.6" y1="11.7" x2="-75.6" y2="213.8"/>
					<line id="logo_XMLID_3394_" class="logo_st3" x1="135.1" y1="11.7" x2="-67.1" y2="213.8"/>
					<line id="logo_XMLID_3393_" class="logo_st3" x1="143.7" y1="11.7" x2="-58.5" y2="213.8"/>
					<line id="logo_XMLID_3392_" class="logo_st3" x1="152.2" y1="11.7" x2="-50" y2="213.8"/>
					<line id="logo_XMLID_3391_" class="logo_st3" x1="160.7" y1="11.7" x2="-41.4" y2="213.8"/>
					<line id="logo_XMLID_3390_" class="logo_st3" x1="169.3" y1="11.7" x2="-32.9" y2="213.8"/>
					<line id="logo_XMLID_3389_" class="logo_st3" x1="177.8" y1="11.7" x2="-24.4" y2="213.8"/>
					<line id="logo_XMLID_3388_" class="logo_st3" x1="186.4" y1="11.7" x2="-15.8" y2="213.8"/>
					<line id="logo_XMLID_3387_" class="logo_st3" x1="194.9" y1="11.7" x2="-7.3" y2="213.8"/>
					<line id="logo_XMLID_3386_" class="logo_st3" x1="203.4" y1="11.7" x2="1.3" y2="213.8"/>
					<line id="logo_XMLID_3385_" class="logo_st3" x1="212" y1="11.7" x2="9.8" y2="213.8"/>
					<line id="logo_XMLID_3384_" class="logo_st3" x1="220.5" y1="11.7" x2="18.3" y2="213.8"/>
					<line id="logo_XMLID_3383_" class="logo_st3" x1="229.1" y1="11.7" x2="26.9" y2="213.8"/>
					<line id="logo_XMLID_3382_" class="logo_st3" x1="147.9" y1="11.7" x2="-54.2" y2="213.8"/>
					<line id="logo_XMLID_3381_" class="logo_st3" x1="156.5" y1="11.7" x2="-45.7" y2="213.8"/>
					<line id="logo_XMLID_3380_" class="logo_st3" x1="165" y1="11.7" x2="-37.2" y2="213.8"/>
					<line id="logo_XMLID_3379_" class="logo_st3" x1="173.6" y1="11.7" x2="-28.6" y2="213.8"/>
					<line id="logo_XMLID_3378_" class="logo_st3" x1="182.1" y1="11.7" x2="-20.1" y2="213.8"/>
					<line id="logo_XMLID_3377_" class="logo_st3" x1="190.6" y1="11.7" x2="-11.5" y2="213.8"/>
					<line id="logo_XMLID_3319_" class="logo_st3" x1="199.2" y1="11.7" x2="-3" y2="213.8"/>
					<line id="logo_XMLID_3318_" class="logo_st3" x1="207.7" y1="11.7" x2="5.5" y2="213.8"/>
					<line id="logo_XMLID_3317_" class="logo_st3" x1="216.3" y1="11.7" x2="14.1" y2="213.8"/>
					<line id="logo_XMLID_3315_" class="logo_st3" x1="224.8" y1="11.7" x2="22.6" y2="213.8"/>
					<line id="logo_XMLID_3314_" class="logo_st3" x1="233.3" y1="11.7" x2="31.2" y2="213.8"/>
					<line id="logo_XMLID_3313_" class="logo_st3" x1="237.6" y1="11.7" x2="35.4" y2="213.8"/>
					<line id="logo_XMLID_3312_" class="logo_st3" x1="241.9" y1="11.7" x2="39.7" y2="213.8"/>
					<line id="logo_XMLID_3311_" class="logo_st3" x1="246.1" y1="11.7" x2="44" y2="213.8"/>
					<line id="logo_XMLID_3309_" class="logo_st3" x1="250.4" y1="11.7" x2="48.2" y2="213.8"/>
					<line id="logo_XMLID_3308_" class="logo_st3" x1="254.7" y1="11.7" x2="52.5" y2="213.8"/>
					<line id="logo_XMLID_3307_" class="logo_st3" x1="259" y1="11.7" x2="56.8" y2="213.8"/>
					<line id="logo_XMLID_3305_" class="logo_st3" x1="263.2" y1="11.7" x2="61" y2="213.8"/>
					<line id="logo_XMLID_3303_" class="logo_st3" x1="267.5" y1="11.7" x2="65.3" y2="213.8"/>
					<line id="logo_XMLID_3302_" class="logo_st3" x1="271.8" y1="11.7" x2="69.6" y2="213.8"/>
					<line id="logo_XMLID_3301_" class="logo_st3" x1="276" y1="11.7" x2="73.9" y2="213.8"/>
					<line id="logo_XMLID_3299_" class="logo_st3" x1="280.3" y1="11.7" x2="78.1" y2="213.8"/>
					<line id="logo_XMLID_3298_" class="logo_st3" x1="284.6" y1="11.7" x2="82.4" y2="213.8"/>
					<line id="logo_XMLID_3297_" class="logo_st3" x1="288.8" y1="11.7" x2="86.7" y2="213.8"/>
					<line id="logo_XMLID_3296_" class="logo_st3" x1="293.1" y1="11.7" x2="90.9" y2="213.8"/>
					<line id="logo_XMLID_3294_" class="logo_st3" x1="297.4" y1="11.7" x2="95.2" y2="213.8"/>
					<line id="logo_XMLID_3293_" class="logo_st3" x1="301.7" y1="11.7" x2="99.5" y2="213.8"/>
					<line id="logo_XMLID_3289_" class="logo_st3" x1="305.9" y1="11.7" x2="103.7" y2="213.8"/>
					<line id="logo_XMLID_3288_" class="logo_st3" x1="310.2" y1="11.7" x2="108" y2="213.8"/>
					<line id="logo_XMLID_3287_" class="logo_st3" x1="314.5" y1="11.7" x2="112.3" y2="213.8"/>
					<line id="logo_XMLID_3286_" class="logo_st3" x1="318.7" y1="11.7" x2="116.6" y2="213.8"/>
					<line id="logo_XMLID_3285_" class="logo_st3" x1="323" y1="11.7" x2="120.8" y2="213.8"/>
					<line id="logo_XMLID_3284_" class="logo_st3" x1="327.3" y1="11.7" x2="125.1" y2="213.8"/>
					<line id="logo_XMLID_3283_" class="logo_st3" x1="331.5" y1="11.7" x2="129.4" y2="213.8"/>
					<line id="logo_XMLID_3282_" class="logo_st3" x1="335.8" y1="11.7" x2="133.6" y2="213.8"/>
					<line id="logo_XMLID_3281_" class="logo_st3" x1="340.1" y1="11.7" x2="137.9" y2="213.8"/>
					<line id="logo_XMLID_3280_" class="logo_st3" x1="344.4" y1="11.7" x2="142.2" y2="213.8"/>
					<line id="logo_XMLID_3279_" class="logo_st3" x1="348.6" y1="11.7" x2="146.4" y2="213.8"/>
					<line id="logo_XMLID_3278_" class="logo_st3" x1="352.9" y1="11.7" x2="150.7" y2="213.8"/>
					<line id="logo_XMLID_3159_" class="logo_st3" x1="357.2" y1="11.7" x2="155" y2="213.8"/>
					<line id="logo_XMLID_3158_" class="logo_st3" x1="361.4" y1="11.7" x2="159.3" y2="213.8"/>
					<line id="logo_XMLID_3157_" class="logo_st3" x1="365.7" y1="11.7" x2="163.5" y2="213.8"/>
					<line id="logo_XMLID_3156_" class="logo_st3" x1="370" y1="11.7" x2="167.8" y2="213.8"/>
					<line id="logo_XMLID_2848_" class="logo_st3" x1="374.2" y1="11.7" x2="172.1" y2="213.8"/>
					<line id="logo_XMLID_2847_" class="logo_st3" x1="378.5" y1="11.7" x2="176.3" y2="213.8"/>
					<line id="logo_XMLID_2846_" class="logo_st3" x1="382.8" y1="11.7" x2="180.6" y2="213.8"/>
					<line id="logo_XMLID_2845_" class="logo_st3" x1="387.1" y1="11.7" x2="184.9" y2="213.8"/>
					<line id="logo_XMLID_2844_" class="logo_st3" x1="391.3" y1="11.7" x2="189.2" y2="213.8"/>
					<line id="logo_XMLID_2782_" class="logo_st3" x1="395.6" y1="11.7" x2="193.4" y2="213.8"/>
					<line id="logo_XMLID_2780_" class="logo_st3" x1="399.9" y1="11.7" x2="197.7" y2="213.8"/>
					<line id="logo_XMLID_2576_" class="logo_st3" x1="404.1" y1="11.7" x2="202" y2="213.8"/>
				</g>
			</g>
		</g>
		<g id="logo_XMLID_112_">
			<polygon id="logo_XMLID_113_" class="logo_st4" points="100.7,56 84.5,56 80.6,61.5 100.7,61.5 100.7,76 87.6,76 87.6,63 81.1,66.9 
				81.1,81.3 87.6,81.4 87.6,81.4 100.7,81.4 107,77.7 107,61.5 107,56 107,56 100.7,56 		"/>
			<polygon id="logo_XMLID_165_" class="logo_st4" points="135.2,98.1 135.2,103.3 169.6,103.3 173.4,98.1 		"/>
			<polygon id="logo_XMLID_166_" class="logo_st4" points="82,128 82,125.2 74.5,125.2 74.5,128 52.2,128 52.2,134.2 52.2,142.1 58.7,138.1 
				58.7,134.2 100.5,134.2 100.5,142.1 107,138.1 107,128 107,128 107,128 		"/>
			<path id="logo_XMLID_169_" class="logo_st4" d="M118.2,130.4h24.5l-1.1,1.4h-17.2h-6.3v5.2v20.1h0.7h5.6h41.2l6.3-4.2v-21.1h-0.5h-5.7h-17.1
				l1-1.4h20.2l3.8-5.2h-55.3V130.4z M165.6,137v14.9h-41.2v-1.9h35.9l3.8-4.9h-39.7v-1.8h35.9l3.8-4.9h-39.7V137H165.6z"/>
			<polygon id="logo_XMLID_170_" class="logo_st4" points="52.2,149.6 91.3,149.6 91.3,174.3 56.7,174.3 61.5,180.5 91.3,180.5 98.3,176.2 
				98.3,149.6 102.1,149.6 107,143.4 52.2,143.4 		"/>
			<polygon id="logo_XMLID_171_" class="logo_st4" points="124.7,95.2 124.7,95.1 170.3,95.1 173.5,90.5 173.5,76.5 173.4,76.5 173.5,76.4 
				162.4,76.4 162.4,74.6 170.3,74.6 173.5,70 162.4,70 162.4,68.3 170.3,68.3 173.5,63.7 162.4,63.7 162.4,62 170.3,62 173.5,57.4 
				162.4,57.4 162.4,56 156.2,56 156.2,57.4 147.2,57.4 147.2,62 156.2,62 156.2,63.7 147.2,63.7 147.2,68.3 156.2,68.3 156.2,70 
				147.2,70 147.2,74.6 156.2,74.6 156.2,76.4 132.9,76.4 132.9,74.5 141.3,74.5 144.5,69.8 132.9,69.8 132.9,68.2 141.3,68.2 
				144.5,63.5 132.9,63.5 132.9,61.9 141.3,61.9 144.5,57.2 132.9,57.2 132.9,55.9 126.7,55.9 126.7,57.2 118.2,57.2 118.2,61.9 
				126.7,61.9 126.7,63.5 118.2,63.5 118.2,68.2 126.7,68.2 126.7,69.8 118.2,69.8 118.2,74.5 126.7,74.5 126.7,76.4 118.2,76.4 
				118.2,81 167.3,81 167.3,90.5 124.7,90.5 124.7,88.1 162.2,88.1 165.4,83.5 118.2,83.5 118.2,87.6 118.2,88.1 118.2,90.5 
				118.2,95.1 118.2,95.1 121.5,95.1 		"/>
			<polygon id="logo_XMLID_172_" class="logo_st4" points="126.5,97.5 126.5,106.1 126.5,106.1 126.5,111.3 170.2,111.3 173.9,106.1 133,106.1 
				133,97.5 		"/>
			<polygon id="logo_XMLID_173_" class="logo_st4" points="124.7,97.7 118.2,97.7 118.2,111.3 124.7,107.3 		"/>
			<polygon id="logo_XMLID_174_" class="logo_st4" points="100.7,84 52.2,84 52.2,90.2 100.7,90.2 100.7,105 58.7,105 58.7,100.7 94.6,100.7 
				99.5,94.5 52.2,94.5 52.2,95 52.2,100.7 52.2,105 52.2,110.5 52.2,111.3 103.2,111.3 107,105 107,90.2 107,90.2 107,84 107,84 		
				"/>
			<polygon id="logo_XMLID_175_" class="logo_st4" points="52.4,81.1 59.9,81.1 66.2,71.2 66.6,71.2 72.6,81.1 80.1,81.1 73.9,71.2 75.8,71.2 
				79.8,66.3 69.3,66.3 71.6,62.8 75.8,62.8 79.8,57.9 59.2,57.9 60.2,56 53.3,56 52.2,57.9 52.2,62.8 64.3,62.8 62,66.3 52.2,66.3 
				52.2,71.2 58.8,71.2 		"/>
			<polygon id="logo_XMLID_176_" class="logo_st4" points="172.1,170.2 172.1,166.9 172.1,166.8 172.1,158.8 172.1,158.8 172.1,158.8 
				170.2,158.8 166.2,158.7 166.2,158.8 125.5,158.7 125.5,158.7 125.3,158.7 125.2,158.7 125.2,158.7 119.8,158.7 118.3,169.8 
				124.1,169.8 124.8,164.6 166.2,164.6 166.2,166.7 148.3,169.9 131.5,166 131.5,170.9 136.2,172 118.9,175.1 118.9,180 
				147.6,174.7 172.9,180.5 172.9,175.6 159.4,172.5 		"/>
		</g>
	</g>
</svg>