<?xml version="1.0" encoding="utf-8"?>
<!-- Generator: Adobe Illustrator 19.0.0, SVG Export Plug-In . SVG Version: 6.00 Build 0)  -->
<svg version="1.1" id="图层_1" xmlns="http://www.w3.org/2000/svg" xmlns:xlink="http://www.w3.org/1999/xlink" x="0px" y="0px"
	 viewBox="0 0 870 1035" style="enable-background:new 0 0 870 1035;" xml:space="preserve">
<style type="text/css">
	.st0_r{fill:#1561C0;fill-opacity:0.4;stroke:#1561C0;stroke-miterlimit:10;}
	.st1_r{fill:none;stroke:#1561C0;stroke-miterlimit:10;}
	.st2_r{fill:#00BEFF;}
	.st3_r{fill:none;stroke:#1561C0;stroke-width:5;stroke-miterlimit:10;}
	.st4_r{fill:#1561C0;}
</style>
<g>
	<polygon id="XMLID_12705_" class="st0_r" points="10.3,19.3 14.1,14.2 23.5,14.2 25.7,11 52.3,11 55.7,7.6 195.6,7.3 201.5,10.7 
		227.7,10.6 254.5,55.6 10.8,55.6 	"/>
	<polygon id="XMLID_12704_" class="st1_r" points="857.4,1021.8 11.4,1022 1.1,1012.9 1.1,10.2 7.1,4.1 231.8,4.1 261.1,53 861.7,53 
		868.9,59.6 868.9,1011.5 	"/>
	<polygon id="XMLID_12703_" class="st2_r" points="0.6,984.7 7.2,990.9 7.2,1012.2 15.4,1020 22.5,1020 25.2,1022.5 11.2,1022.5 
		0.6,1013.1 	"/>
	<polygon id="XMLID_12702_" class="st2_r" points="89.9,1029.2 32.2,1029.2 24.1,1021.5 96.7,1021.4 	"/>
	<polygon id="XMLID_12701_" class="st2_r" points="869.4,982.9 863.8,988.9 863.8,1010.1 855.6,1017.9 847.2,1017.9 842.8,1022.3 
		857.5,1022.3 869.4,1011.9 	"/>
	<polygon id="XMLID_12698_" class="st2_r" points="778.1,1028.9 835.9,1028.9 843.8,1021.3 771.4,1021.3 	"/>
	<polygon id="XMLID_12696_" class="st2_r" points="0.6,58.1 7.2,51.9 7.1,16.3 12.2,10.7 21.5,10.7 23.4,8.1 51.3,8.1 55.7,3.6 
		7.1,3.6 0.6,10.2 	"/>
	<polygon id="XMLID_12689_" class="st2_r" points="869.4,91.8 862.1,85.7 862.2,65.6 857.1,60.1 847.8,60.1 845.9,57.5 818.1,57.5 
		813.6,52.4 861.9,52.4 869.4,59.3 	"/>
	<polyline id="XMLID_12688_" class="st3_r" points="201.3,4.1 231.8,4.1 261,52.6 305.5,52.6 	"/>
	<circle id="XMLID_12687_" class="st1_r" cx="689.4" cy="24.6" r="3"/>
	<polyline id="XMLID_12682_" class="st1_r" points="812.4,53 788.9,24.6 692.4,24.6 	"/>
	<circle id="XMLID_12678_" class="st1_r" cx="718.7" cy="33.7" r="2.1"/>
	<polyline id="XMLID_12677_" class="st1_r" points="802.3,53 786.3,33.7 720.7,33.7 	"/>
	<polyline id="XMLID_12675_" class="st1_r" points="790,52.4 781.3,41.9 745.6,41.9 	"/>
	<circle id="XMLID_12674_" class="st1_r" cx="744.5" cy="41.9" r="1.1"/>
	<circle id="XMLID_12671_" class="st1_r" cx="239.5" cy="1029.9" r="3"/>
	<polyline id="XMLID_12670_" class="st1_r" points="132.4,1021.8 140,1029.9 236.5,1029.9 	"/>
	<circle id="XMLID_12668_" class="st1_r" cx="650.7" cy="1030.7" r="2.1"/>
	<polyline id="XMLID_12660_" class="st1_r" points="728.5,1021 718.3,1030.7 652.7,1030.7 	"/>
	<polyline id="XMLID_12657_" class="st1_r" points="716.2,1021.1 712.3,1024.3 676.6,1024.3 	"/>
	<circle id="XMLID_12656_" class="st1_r" cx="675.5" cy="1024.3" r="1.1"/>
	<polygon id="XMLID_5987_" class="st4_r" points="269.9,46.2 265.7,46.2 247.3,16 251.5,16 	"/>
	<polygon id="XMLID_5920_" class="st4_r" points="277.8,46.2 273.6,46.2 255.2,16 259.4,16 	"/>
	<polygon id="XMLID_5917_" class="st4_r" points="285.6,46.2 281.4,46.2 263.1,16 267.2,16 	"/>
	<polygon id="XMLID_5916_" class="st4_r" points="293.5,46.2 289.3,46.2 270.9,16 275.1,16 	"/>
	<polygon id="XMLID_5915_" class="st4_r" points="301.3,46.2 297.2,46.2 278.8,16 282.9,16 	"/>
	<polygon id="XMLID_5724_" class="st4_r" points="309.2,46.2 305,46.2 286.6,16 290.8,16 	"/>
	<polygon id="XMLID_5723_" class="st4_r" points="317.1,46.2 312.9,46.2 294.5,16 298.7,16 	"/>
	<polygon id="XMLID_5722_" class="st4_r" points="325.5,46.2 321.3,46.2 302.9,16 307.1,16 	"/>
	<polygon id="XMLID_5557_" class="st4_r" points="333.3,46.2 329.1,46.2 310.8,16 314.9,16 	"/>
	<polygon id="XMLID_5556_" class="st4_r" points="341.2,46.2 337,46.2 318.6,16 322.8,16 	"/>
	<polygon id="XMLID_5522_" class="st4_r" points="349,46.2 344.9,46.2 326.5,16 330.6,16 	"/>
	<polygon id="XMLID_5520_" class="st4_r" points="356.9,46.2 352.7,46.2 334.3,16 338.5,16 	"/>
	<polygon id="XMLID_5516_" class="st4_r" points="364.8,46.2 360.6,46.2 342.2,16 346.4,16 	"/>
	<polygon id="XMLID_5514_" class="st4_r" points="372.6,46.2 368.4,46.2 350,16 354.2,16 	"/>
</g>
</svg>
