<?xml version="1.0" encoding="utf-8"?>
<!-- Generator: Adobe Illustrator 19.0.0, SVG Export Plug-In . SVG Version: 6.00 Build 0)  -->
<svg version="1.1" id="图层_1" xmlns="http://www.w3.org/2000/svg" xmlns:xlink="http://www.w3.org/1999/xlink" x="0px" y="0px"
	 viewBox="0 0 40 32" style="enable-background:new 0 0 40 32;" xml:space="preserve">
<style type="text/css">
	.st0{opacity:0.6;fill:#05A8F7;enable-background:new    ;}
	.st1{fill:#3A5188;}
</style>
<polygon class="st0" points="4035,622 4015.7,612.4 4015.7,602.8 4035,612.4 4054.3,602.8 4054.3,612.4 4035,622 4035,622 "/>
<polygon class="st1" points="4035,610.2 4015.7,600.6 4015.7,591 4035,600.6 4054.3,591 4054.3,600.6 4035,610.2 4035,610.2 "/>
<g id="XMLID_40_">
	<polygon id="XMLID_42_" class="st0" points="20,31.5 0.7,21.9 0.7,12.3 20,21.9 39.3,12.3 39.3,21.9 20,31.5 20,31.5 	"/>
	<polygon id="XMLID_41_" class="st1" points="20,19.7 0.7,10.1 0.7,0.5 20,10.1 39.3,0.5 39.3,10.1 20,19.7 20,19.7 	"/>
</g>
</svg>
