<?xml version="1.0" encoding="utf-8"?>
<!-- Generator: Adobe Illustrator 19.0.0, SVG Export Plug-In . SVG Version: 6.00 Build 0)  -->
<svg version="1.1" id="图层_1" xmlns="http://www.w3.org/2000/svg" xmlns:xlink="http://www.w3.org/1999/xlink" x="0px" y="0px"
	 viewBox="0 0 950 436" style="enable-background:new 0 0 950 436;" xml:space="preserve">
<style type="text/css">
	.st0_mrs{fill:#1561C0;}
	.st1_mrs{opacity:0.6;fill:#1561C0;fill-opacity:0.6;stroke:#1561C0;stroke-miterlimit:10;}
	.st2_mrs{fill:#00BEFF;}
	.st3_mrs{clip-path:url(#XMLID_35_);}
</style>
<g id="XMLID_1518_">
	<g id="XMLID_2030_">
		<polygon id="XMLID_2031_" class="st0_mrs" points="547.7,51.1 525.8,51.1 495.2,4.7 472.8,4.7 472.8,0.7 497,0.7 527.6,47.1 
			547.7,47.1 		"/>
	</g>
	<g id="XMLID_1524_">
		<g id="XMLID_2012_">
			<polygon id="XMLID_2016_" class="st0_mrs" points="71.3,426.9 66.3,430.4 79.1,430.4 84.1,426.9 			"/>
			<polygon id="XMLID_2015_" class="st0_mrs" points="50.4,426.9 45.5,430.4 58.3,430.4 63.2,426.9 			"/>
			<polygon id="XMLID_2014_" class="st0_mrs" points="113,426.9 108.1,430.4 120.9,430.4 125.8,426.9 			"/>
			<polygon id="XMLID_2013_" class="st0_mrs" points="92.1,426.9 87.2,430.4 100,430.4 104.9,426.9 			"/>
		</g>
		<polygon id="XMLID_2010_" class="st1_mrs" points="10.7,15.1 21.6,6.9 42,6.9 44.7,5.4 469.9,5.4 472.8,6.9 493.4,6.9 522.7,50.9 
			10.7,50.9 		"/>
		<polygon id="XMLID_2009_" class="st0_mrs" points="940.4,53.9 943.2,413.9 923.8,430.4 9.6,430.4 6.7,13 18.9,3.6 495.4,3.6 526.2,50 
			781.5,50.4 801.4,27.4 923.9,27.7 926.2,25.6 800.4,25.7 779.9,47.7 526.4,47.7 495.7,2.7 18.2,2.7 1.7,14.6 4.6,432.9 4.6,434.7 
			42.6,434.7 42.3,434.9 55.1,434.9 55.4,434.7 63.5,434.7 63.2,434.9 76,434.9 76.3,434.7 84.4,434.7 84.1,434.9 96.9,434.9 
			97.2,434.7 105.2,434.7 104.9,434.9 117.8,434.9 118,434.7 924.4,434.9 948.3,414.4 945.5,48.7 		"/>
		<g id="XMLID_2007_">
			<polygon id="XMLID_2008_" class="st2_mrs" points="948.9,66.5 946.9,69 946.9,46.8 927.9,23.7 901.9,23.6 904.4,21.7 928.9,21.7 
				948.9,46.1 			"/>
		</g>
		<g id="XMLID_1967_">
			
				<rect id="XMLID_2006_" x="934.9" y="37.6" transform="matrix(0.624 0.7814 -0.7814 0.624 382.0281 -716.1277)" class="st0_mrs" width="0.6" height="2.6"/>
			
				<rect id="XMLID_2005_" x="925.6" y="26.1" transform="matrix(0.624 0.7814 -0.7814 0.624 369.5474 -713.2067)" class="st0_mrs" width="0.6" height="2.6"/>
			
				<rect id="XMLID_2004_" x="926.3" y="27.1" transform="matrix(0.624 0.7814 -0.7814 0.624 370.5875 -713.4501)" class="st0_mrs" width="0.6" height="2.6"/>
			
				<rect id="XMLID_2003_" x="927.1" y="28" transform="matrix(0.624 0.7814 -0.7814 0.624 371.6275 -713.6936)" class="st0_mrs" width="0.6" height="2.6"/>
			
				<rect id="XMLID_2002_" x="927.9" y="29" transform="matrix(0.624 0.7814 -0.7814 0.624 372.6676 -713.937)" class="st0_mrs" width="0.6" height="2.6"/>
			
				<rect id="XMLID_2001_" x="928.7" y="29.9" transform="matrix(0.624 0.7814 -0.7814 0.624 373.7076 -714.1804)" class="st0_mrs" width="0.6" height="2.6"/>
			
				<rect id="XMLID_1999_" x="929.4" y="30.9" transform="matrix(0.624 0.7814 -0.7814 0.624 374.7477 -714.4238)" class="st0_mrs" width="0.6" height="2.6"/>
			
				<rect id="XMLID_1997_" x="930.2" y="31.9" transform="matrix(0.624 0.7814 -0.7814 0.624 375.7878 -714.6672)" class="st0_mrs" width="0.6" height="2.6"/>
			
				<rect id="XMLID_1995_" x="931" y="32.8" transform="matrix(0.624 0.7814 -0.7814 0.624 376.8278 -714.9106)" class="st0_mrs" width="0.6" height="2.6"/>
			
				<rect id="XMLID_1993_" x="931.8" y="33.8" transform="matrix(0.624 0.7814 -0.7814 0.624 377.8679 -715.1541)" class="st0_mrs" width="0.6" height="2.6"/>
			
				<rect id="XMLID_1991_" x="932.5" y="34.7" transform="matrix(0.624 0.7814 -0.7814 0.624 378.9079 -715.3975)" class="st0_mrs" width="0.6" height="2.6"/>
			
				<rect id="XMLID_1989_" x="933.3" y="35.7" transform="matrix(0.624 0.7814 -0.7814 0.624 379.948 -715.6409)" class="st0_mrs" width="0.6" height="2.6"/>
			
				<rect id="XMLID_1987_" x="934.1" y="36.7" transform="matrix(0.624 0.7814 -0.7814 0.624 380.988 -715.8843)" class="st0_mrs" width="0.6" height="2.6"/>
			
				<rect id="XMLID_1985_" x="935.6" y="38.6" transform="matrix(0.624 0.7814 -0.7814 0.624 383.0681 -716.3712)" class="st0_mrs" width="0.6" height="2.6"/>
			
				<rect id="XMLID_1984_" x="936.4" y="39.5" transform="matrix(0.624 0.7814 -0.7814 0.624 384.1082 -716.6146)" class="st0_mrs" width="0.6" height="2.6"/>
			
				<rect id="XMLID_1982_" x="937.2" y="40.5" transform="matrix(0.624 0.7814 -0.7814 0.624 385.1482 -716.858)" class="st0_mrs" width="0.6" height="2.6"/>
			
				<rect id="XMLID_1980_" x="937.8" y="41.4" transform="matrix(0.619 0.7854 -0.7854 0.619 391.002 -720.5656)" class="st0_mrs" width="0.6" height="2.6"/>
			
				<rect id="XMLID_1978_" x="938.6" y="42.4" transform="matrix(0.619 0.7854 -0.7854 0.619 392.0513 -720.8004)" class="st0_mrs" width="0.6" height="2.6"/>
			
				<rect id="XMLID_1975_" x="939.4" y="43.3" transform="matrix(0.619 0.7854 -0.7854 0.619 393.1006 -721.0353)" class="st0_mrs" width="0.6" height="2.6"/>
			
				<rect id="XMLID_1973_" x="940.1" y="44.3" transform="matrix(0.619 0.7854 -0.7854 0.619 394.1499 -721.2703)" class="st0_mrs" width="0.6" height="2.6"/>
			
				<rect id="XMLID_1971_" x="940.9" y="45.3" transform="matrix(0.619 0.7854 -0.7854 0.619 395.1992 -721.5052)" class="st0_mrs" width="0.6" height="2.6"/>
			
				<rect id="XMLID_1969_" x="941.7" y="46.2" transform="matrix(0.619 0.7854 -0.7854 0.619 396.2486 -721.7401)" class="st0_mrs" width="0.6" height="2.6"/>
		</g>
		<g id="XMLID_1965_">
			<polygon id="XMLID_1966_" class="st2_mrs" points="894.1,429.7 894.1,435.3 924.4,435.3 948.4,415.2 948.4,393 942.9,393 
				942.9,414.1 923.9,429.7 			"/>
		</g>
		<g id="XMLID_1525_">
			<defs>
				<polygon id="XMLID_1529_" points="941.7,53.4 782.2,53.4 803.2,29 945.5,29 				"/>
			</defs>
			<clipPath id="XMLID_35_">
				<use xlink:href="#XMLID_1529_"  style="overflow:visible;"/>
			</clipPath>
			<g id="XMLID_1532_" class="st3_mrs">
				<polygon id="XMLID_1964_" class="st0_mrs" points="820.7,50.1 818.2,50.1 803.3,30.7 805.8,30.7 				"/>
				<polygon id="XMLID_1963_" class="st0_mrs" points="825,50.1 822.6,50.1 807.7,30.7 810.1,30.7 				"/>
				<polygon id="XMLID_1962_" class="st0_mrs" points="829.4,50.1 827,50.1 812.1,30.7 814.5,30.7 				"/>
				<polygon id="XMLID_1961_" class="st0_mrs" points="833.8,50.1 831.3,50.1 816.4,30.7 818.9,30.7 				"/>
				<polygon id="XMLID_1960_" class="st0_mrs" points="838.2,50.1 835.7,50.1 820.8,30.7 823.3,30.7 				"/>
				<polygon id="XMLID_1959_" class="st0_mrs" points="842.6,50.1 840.1,50.1 825.2,30.7 827.7,30.7 				"/>
				<polygon id="XMLID_1958_" class="st0_mrs" points="847,50.1 844.5,50.1 829.6,30.7 832,30.7 				"/>
				<polygon id="XMLID_1956_" class="st0_mrs" points="851.3,50.1 848.9,50.1 834,30.7 836.4,30.7 				"/>
				<polygon id="XMLID_1900_" class="st0_mrs" points="785.6,50.1 783.2,50.1 768.3,30.7 770.7,30.7 				"/>
				<polygon id="XMLID_1891_" class="st0_mrs" points="790,50.1 787.5,50.1 772.6,30.7 775.1,30.7 				"/>
				<polygon id="XMLID_1890_" class="st0_mrs" points="794.4,50.1 791.9,50.1 777,30.7 779.5,30.7 				"/>
				<polygon id="XMLID_1889_" class="st0_mrs" points="798.8,50.1 796.3,50.1 781.4,30.7 783.9,30.7 				"/>
				<polygon id="XMLID_1888_" class="st0_mrs" points="803.1,50.1 800.7,50.1 785.8,30.7 788.2,30.7 				"/>
				<polygon id="XMLID_1887_" class="st0_mrs" points="807.5,50.1 805.1,50.1 790.2,30.7 792.6,30.7 				"/>
				<polygon id="XMLID_1886_" class="st0_mrs" points="811.9,50.1 809.4,50.1 794.5,30.7 797,30.7 				"/>
				<polygon id="XMLID_1885_" class="st0_mrs" points="816.3,50.1 813.8,50.1 798.9,30.7 801.4,30.7 				"/>
				<polygon id="XMLID_1884_" class="st0_mrs" points="855.7,50.1 853.3,50.1 838.3,30.7 840.8,30.7 				"/>
				<polygon id="XMLID_1883_" class="st0_mrs" points="860.1,50.1 857.6,50.1 842.7,30.7 845.2,30.7 				"/>
				<polygon id="XMLID_1882_" class="st0_mrs" points="868.9,50.1 866.4,50.1 851.5,30.7 854,30.7 				"/>
				<polygon id="XMLID_1881_" class="st0_mrs" points="864.5,50.1 862,50.1 847.1,30.7 849.6,30.7 				"/>
				<polygon id="XMLID_1880_" class="st0_mrs" points="877.6,50.1 875.2,50.1 860.3,30.7 862.7,30.7 				"/>
				<polygon id="XMLID_1844_" class="st0_mrs" points="886.4,50.1 883.9,50.1 869,30.7 871.5,30.7 				"/>
				<polygon id="XMLID_1732_" class="st0_mrs" points="903.9,50.1 901.4,50.1 886.5,30.7 889,30.7 				"/>
				<polygon id="XMLID_1725_" class="st0_mrs" points="921.4,50.1 919,50.1 904.1,30.7 906.5,30.7 				"/>
				<polygon id="XMLID_1669_" class="st0_mrs" points="895.1,50.1 892.7,50.1 877.8,30.7 880.2,30.7 				"/>
				<polygon id="XMLID_1613_" class="st0_mrs" points="912.7,50.1 910.2,50.1 895.3,30.7 897.8,30.7 				"/>
				<polygon id="XMLID_1573_" class="st0_mrs" points="930.2,50.1 927.7,50.1 912.8,30.7 915.3,30.7 				"/>
				<polygon id="XMLID_1551_" class="st0_mrs" points="938.9,50.1 936.5,50.1 921.6,30.7 924,30.7 				"/>
				<polygon id="XMLID_1549_" class="st0_mrs" points="873.2,50.1 870.8,50.1 855.9,30.7 858.3,30.7 				"/>
				<polygon id="XMLID_1543_" class="st0_mrs" points="882,50.1 879.5,50.1 864.6,30.7 867.1,30.7 				"/>
				<polygon id="XMLID_1542_" class="st0_mrs" points="890.8,50.1 888.3,50.1 873.4,30.7 875.9,30.7 				"/>
				<polygon id="XMLID_1541_" class="st0_mrs" points="908.3,50.1 905.8,50.1 890.9,30.7 893.4,30.7 				"/>
				<polygon id="XMLID_1536_" class="st0_mrs" points="899.5,50.1 897.1,50.1 882.2,30.7 884.6,30.7 				"/>
				<polygon id="XMLID_1535_" class="st0_mrs" points="917,50.1 914.6,50.1 899.7,30.7 902.1,30.7 				"/>
				<polygon id="XMLID_1534_" class="st0_mrs" points="925.8,50.1 923.3,50.1 908.4,30.7 910.9,30.7 				"/>
				<polygon id="XMLID_1533_" class="st0_mrs" points="934.6,50.1 932.1,50.1 917.2,30.7 919.7,30.7 				"/>
			</g>
		</g>
	</g>
	<g id="XMLID_1520_">
		<polygon id="XMLID_1522_" class="st2_mrs" points="7.5,55.9 1.1,55.9 1.1,14.2 18,1.5 42,1.5 42,4.5 19,4.5 7.5,13.1 		"/>
	</g>
</g>
</svg>
