<?xml version="1.0" encoding="utf-8"?>
<!-- Generator: Adobe Illustrator 19.0.0, SVG Export Plug-In . SVG Version: 6.00 Build 0)  -->
<svg version="1.1" id="图层_1" xmlns="http://www.w3.org/2000/svg" xmlns:xlink="http://www.w3.org/1999/xlink" x="0px" y="0px"
	 viewBox="0 0 950 458" style="enable-background:new 0 0 950 458;" xml:space="preserve">
<style type="text/css">
	.st0_xst{fill:#1561C0;}
	.st1_xst{opacity:0.6;fill:#1561C0;fill-opacity:0.6;stroke:#1561C0;stroke-miterlimit:10;}
	.st2_xst{fill:#00BEFF;}
	.st3_xst{clip-path:url(#XMLID_35_);}
</style>
<g id="XMLID_1518_">
	<g id="XMLID_2030_">
		<polygon id="XMLID_2031_" class="st0_xst" points="547.7,52.2 525.8,52.2 495.2,5.8 472.8,5.8 472.8,1.8 497,1.8 527.6,48.2 
			547.7,48.2 		"/>
	</g>
	<g id="XMLID_1524_">
		<g id="XMLID_2012_">
			<polygon id="XMLID_2016_" class="st0_xst" points="68.3,447.7 63.4,451.3 76.2,451.3 81.1,447.7 			"/>
			<polygon id="XMLID_2015_" class="st0_xst" points="47.4,447.7 42.5,451.3 55.3,451.3 60.3,447.7 			"/>
			<polygon id="XMLID_2014_" class="st0_xst" points="110.1,447.7 105.2,451.3 118,451.3 122.9,447.7 			"/>
			<polygon id="XMLID_2013_" class="st0_xst" points="89.2,447.7 84.3,451.3 97.1,451.3 102,447.7 			"/>
		</g>
		<polygon id="XMLID_2010_" class="st1_xst" points="10.7,16.3 21.6,8 42,8 44.7,6.5 469.9,6.5 472.8,8 493.4,8 522.7,52.1 10.7,52.1 		
			"/>
		<polygon id="XMLID_2009_" class="st0_xst" points="940.4,55 940.2,434.8 920.9,451.3 6.7,451.3 6.7,14.1 18.9,4.8 495.4,4.8 
			526.2,51.2 781.5,51.5 801.4,28.5 923.9,28.8 926.2,26.8 800.4,26.8 779.9,48.8 526.4,48.9 495.7,3.8 18.2,3.8 1.7,15.7 
			1.7,453.7 1.7,455.6 39.7,455.6 39.4,455.8 52.2,455.8 52.5,455.6 60.5,455.6 60.3,455.8 73.1,455.8 73.4,455.6 81.4,455.6 
			81.1,455.8 93.9,455.8 94.2,455.6 102.3,455.6 102,455.8 114.8,455.8 115.1,455.6 921.4,455.8 945.4,435.2 945.5,49.8 		"/>
		<g id="XMLID_2007_">
			<polygon id="XMLID_2008_" class="st2_xst" points="948.9,67.6 946.9,70.2 946.9,48 927.9,24.9 901.9,24.8 904.4,22.9 928.9,22.9 
				948.9,47.3 			"/>
		</g>
		<g id="XMLID_1967_">
			
				<rect id="XMLID_2006_" x="934.9" y="38.7" transform="matrix(0.624 0.7814 -0.7814 0.624 382.9106 -715.7031)" class="st0_xst" width="0.6" height="2.6"/>
			
				<rect id="XMLID_2005_" x="925.6" y="27.2" transform="matrix(0.624 0.7814 -0.7814 0.624 370.43 -712.7821)" class="st0_xst" width="0.6" height="2.6"/>
			
				<rect id="XMLID_2004_" x="926.3" y="28.2" transform="matrix(0.624 0.7814 -0.7814 0.624 371.47 -713.0255)" class="st0_xst" width="0.6" height="2.6"/>
			
				<rect id="XMLID_2003_" x="927.1" y="29.2" transform="matrix(0.624 0.7814 -0.7814 0.624 372.5101 -713.2689)" class="st0_xst" width="0.6" height="2.6"/>
			
				<rect id="XMLID_2002_" x="927.9" y="30.1" transform="matrix(0.624 0.7814 -0.7814 0.624 373.5501 -713.5123)" class="st0_xst" width="0.6" height="2.6"/>
			
				<rect id="XMLID_2001_" x="928.7" y="31.1" transform="matrix(0.624 0.7814 -0.7814 0.624 374.5902 -713.7557)" class="st0_xst" width="0.6" height="2.6"/>
			
				<rect id="XMLID_1999_" x="929.4" y="32" transform="matrix(0.624 0.7814 -0.7814 0.624 375.6302 -713.9992)" class="st0_xst" width="0.6" height="2.6"/>
			
				<rect id="XMLID_1997_" x="930.2" y="33" transform="matrix(0.624 0.7814 -0.7814 0.624 376.6703 -714.2426)" class="st0_xst" width="0.6" height="2.6"/>
			
				<rect id="XMLID_1995_" x="931" y="34" transform="matrix(0.624 0.7814 -0.7814 0.624 377.7104 -714.486)" class="st0_xst" width="0.6" height="2.6"/>
			
				<rect id="XMLID_1993_" x="931.8" y="34.9" transform="matrix(0.624 0.7814 -0.7814 0.624 378.7504 -714.7294)" class="st0_xst" width="0.6" height="2.6"/>
			
				<rect id="XMLID_1991_" x="932.5" y="35.9" transform="matrix(0.624 0.7814 -0.7814 0.624 379.7905 -714.9728)" class="st0_xst" width="0.6" height="2.6"/>
			
				<rect id="XMLID_1989_" x="933.3" y="36.8" transform="matrix(0.624 0.7814 -0.7814 0.624 380.8305 -715.2162)" class="st0_xst" width="0.6" height="2.6"/>
			
				<rect id="XMLID_1987_" x="934.1" y="37.8" transform="matrix(0.624 0.7814 -0.7814 0.624 381.8706 -715.4597)" class="st0_xst" width="0.6" height="2.6"/>
			
				<rect id="XMLID_1985_" x="935.6" y="39.7" transform="matrix(0.624 0.7814 -0.7814 0.624 383.9507 -715.9465)" class="st0_xst" width="0.6" height="2.6"/>
			
				<rect id="XMLID_1984_" x="936.4" y="40.7" transform="matrix(0.624 0.7814 -0.7814 0.624 384.9907 -716.1899)" class="st0_xst" width="0.6" height="2.6"/>
			
				<rect id="XMLID_1982_" x="937.2" y="41.6" transform="matrix(0.624 0.7814 -0.7814 0.624 386.0308 -716.4333)" class="st0_xst" width="0.6" height="2.6"/>
			
				<rect id="XMLID_1980_" x="937.8" y="42.5" transform="matrix(0.619 0.7854 -0.7854 0.619 391.889 -720.1352)" class="st0_xst" width="0.6" height="2.6"/>
			
				<rect id="XMLID_1978_" x="938.6" y="43.5" transform="matrix(0.619 0.7854 -0.7854 0.619 392.9384 -720.3701)" class="st0_xst" width="0.6" height="2.6"/>
			
				<rect id="XMLID_1975_" x="939.4" y="44.5" transform="matrix(0.619 0.7854 -0.7854 0.619 393.9877 -720.605)" class="st0_xst" width="0.6" height="2.6"/>
			
				<rect id="XMLID_1973_" x="940.1" y="45.4" transform="matrix(0.619 0.7854 -0.7854 0.619 395.037 -720.8399)" class="st0_xst" width="0.6" height="2.6"/>
			
				<rect id="XMLID_1971_" x="940.9" y="46.4" transform="matrix(0.619 0.7854 -0.7854 0.619 396.0863 -721.0748)" class="st0_xst" width="0.6" height="2.6"/>
			
				<rect id="XMLID_1969_" x="941.7" y="47.3" transform="matrix(0.619 0.7854 -0.7854 0.619 397.1357 -721.3098)" class="st0_xst" width="0.6" height="2.6"/>
		</g>
		<g id="XMLID_1965_">
			<polygon id="XMLID_1966_" class="st2_xst" points="891.1,450.6 891.1,456.2 921.5,456.2 945.5,436 945.5,413.9 939.9,413.9 
				939.9,434.9 921,450.6 			"/>
		</g>
		<g id="XMLID_1525_">
			<defs>
				<polygon id="XMLID_1529_" points="941.7,54.5 782.2,54.5 803.2,30.2 945.5,30.2 				"/>
			</defs>
			<clipPath id="XMLID_35_">
				<use xlink:href="#XMLID_1529_"  style="overflow:visible;"/>
			</clipPath>
			<g id="XMLID_1532_" class="st3_xst">
				<polygon id="XMLID_1964_" class="st0_xst" points="820.7,51.3 818.2,51.3 803.3,31.8 805.8,31.8 				"/>
				<polygon id="XMLID_1963_" class="st0_xst" points="825,51.3 822.6,51.3 807.7,31.8 810.1,31.8 				"/>
				<polygon id="XMLID_1962_" class="st0_xst" points="829.4,51.3 827,51.3 812.1,31.8 814.5,31.8 				"/>
				<polygon id="XMLID_1961_" class="st0_xst" points="833.8,51.3 831.3,51.3 816.4,31.8 818.9,31.8 				"/>
				<polygon id="XMLID_1960_" class="st0_xst" points="838.2,51.3 835.7,51.3 820.8,31.8 823.3,31.8 				"/>
				<polygon id="XMLID_1959_" class="st0_xst" points="842.6,51.3 840.1,51.3 825.2,31.8 827.7,31.8 				"/>
				<polygon id="XMLID_1958_" class="st0_xst" points="847,51.3 844.5,51.3 829.6,31.8 832,31.8 				"/>
				<polygon id="XMLID_1956_" class="st0_xst" points="851.3,51.3 848.9,51.3 834,31.8 836.4,31.8 				"/>
				<polygon id="XMLID_1900_" class="st0_xst" points="785.6,51.3 783.2,51.3 768.3,31.8 770.7,31.8 				"/>
				<polygon id="XMLID_1891_" class="st0_xst" points="790,51.3 787.5,51.3 772.6,31.8 775.1,31.8 				"/>
				<polygon id="XMLID_1890_" class="st0_xst" points="794.4,51.3 791.9,51.3 777,31.8 779.5,31.8 				"/>
				<polygon id="XMLID_1889_" class="st0_xst" points="798.8,51.3 796.3,51.3 781.4,31.8 783.9,31.8 				"/>
				<polygon id="XMLID_1888_" class="st0_xst" points="803.1,51.3 800.7,51.3 785.8,31.8 788.2,31.8 				"/>
				<polygon id="XMLID_1887_" class="st0_xst" points="807.5,51.3 805.1,51.3 790.2,31.8 792.6,31.8 				"/>
				<polygon id="XMLID_1886_" class="st0_xst" points="811.9,51.3 809.4,51.3 794.5,31.8 797,31.8 				"/>
				<polygon id="XMLID_1885_" class="st0_xst" points="816.3,51.3 813.8,51.3 798.9,31.8 801.4,31.8 				"/>
				<polygon id="XMLID_1884_" class="st0_xst" points="855.7,51.3 853.3,51.3 838.3,31.8 840.8,31.8 				"/>
				<polygon id="XMLID_1883_" class="st0_xst" points="860.1,51.3 857.6,51.3 842.7,31.8 845.2,31.8 				"/>
				<polygon id="XMLID_1882_" class="st0_xst" points="868.9,51.3 866.4,51.3 851.5,31.8 854,31.8 				"/>
				<polygon id="XMLID_1881_" class="st0_xst" points="864.5,51.3 862,51.3 847.1,31.8 849.6,31.8 				"/>
				<polygon id="XMLID_1880_" class="st0_xst" points="877.6,51.3 875.2,51.3 860.3,31.8 862.7,31.8 				"/>
				<polygon id="XMLID_1844_" class="st0_xst" points="886.4,51.3 883.9,51.3 869,31.8 871.5,31.8 				"/>
				<polygon id="XMLID_1732_" class="st0_xst" points="903.9,51.3 901.4,51.3 886.5,31.8 889,31.8 				"/>
				<polygon id="XMLID_1725_" class="st0_xst" points="921.4,51.3 919,51.3 904.1,31.8 906.5,31.8 				"/>
				<polygon id="XMLID_1669_" class="st0_xst" points="895.1,51.3 892.7,51.3 877.8,31.8 880.2,31.8 				"/>
				<polygon id="XMLID_1613_" class="st0_xst" points="912.7,51.3 910.2,51.3 895.3,31.8 897.8,31.8 				"/>
				<polygon id="XMLID_1573_" class="st0_xst" points="930.2,51.3 927.7,51.3 912.8,31.8 915.3,31.8 				"/>
				<polygon id="XMLID_1551_" class="st0_xst" points="938.9,51.3 936.5,51.3 921.6,31.8 924,31.8 				"/>
				<polygon id="XMLID_1549_" class="st0_xst" points="873.2,51.3 870.8,51.3 855.9,31.8 858.3,31.8 				"/>
				<polygon id="XMLID_1543_" class="st0_xst" points="882,51.3 879.5,51.3 864.6,31.8 867.1,31.8 				"/>
				<polygon id="XMLID_1542_" class="st0_xst" points="890.8,51.3 888.3,51.3 873.4,31.8 875.9,31.8 				"/>
				<polygon id="XMLID_1541_" class="st0_xst" points="908.3,51.3 905.8,51.3 890.9,31.8 893.4,31.8 				"/>
				<polygon id="XMLID_1536_" class="st0_xst" points="899.5,51.3 897.1,51.3 882.2,31.8 884.6,31.8 				"/>
				<polygon id="XMLID_1535_" class="st0_xst" points="917,51.3 914.6,51.3 899.7,31.8 902.1,31.8 				"/>
				<polygon id="XMLID_1534_" class="st0_xst" points="925.8,51.3 923.3,51.3 908.4,31.8 910.9,31.8 				"/>
				<polygon id="XMLID_1533_" class="st0_xst" points="934.6,51.3 932.1,51.3 917.2,31.8 919.7,31.8 				"/>
			</g>
		</g>
	</g>
	<g id="XMLID_1520_">
		<polygon id="XMLID_1522_" class="st2_xst" points="7.5,57 1.1,57 1.1,15.3 18,2.6 42,2.6 42,5.6 19,5.6 7.5,14.3 		"/>
	</g>
</g>
</svg>
