<?xml version="1.0" encoding="utf-8"?>
<!-- Generator: Adobe Illustrator 19.0.0, SVG Export Plug-In . SVG Version: 6.00 Build 0)  -->
<svg version="1.1" id="图层_1" xmlns="http://www.w3.org/2000/svg" xmlns:xlink="http://www.w3.org/1999/xlink" x="0px" y="0px"
	 viewBox="0 0 950 430" style="enable-background:new 0 0 950 430;" xml:space="preserve">
<style type="text/css">
	.st0_xsb{fill:#1561C0;}
	.st1_xsb{opacity:0.6;fill:#1561C0;fill-opacity:0.6;stroke:#1561C0;stroke-miterlimit:10;}
	.st2_xsb{fill:#00BEFF;}
	.st3_xsb{clip-path:url(#XMLID_84_);}
</style>
<g id="XMLID_34_">
	<g id="XMLID_2033_">
		<polygon id="XMLID_2034_" class="st0_xsb" points="547.7,51.7 525.8,51.7 495.2,5.4 472.8,5.4 472.8,1.4 497,1.4 527.6,47.7 
			547.7,47.7 		"/>
	</g>
	<g id="XMLID_56_">
		<g id="XMLID_1515_">
			<polygon id="XMLID_2032_" class="st0_xsb" points="68.3,420.2 63.4,423.7 76.2,423.7 81.1,420.2 			"/>
			<polygon id="XMLID_2011_" class="st0_xsb" points="47.4,420.2 42.5,423.7 55.3,423.7 60.3,420.2 			"/>
			<polygon id="XMLID_1517_" class="st0_xsb" points="110.1,420.2 105.2,423.7 118,423.7 122.9,420.2 			"/>
			<polygon id="XMLID_1516_" class="st0_xsb" points="89.2,420.2 84.3,423.7 97.1,423.7 102,420.2 			"/>
		</g>
		<polygon id="XMLID_1513_" class="st1_xsb" points="10.7,15.8 21.6,7.6 42,7.6 44.7,6.1 469.9,6.1 472.8,7.6 493.4,7.6 522.7,51.6 
			10.7,51.6 		"/>
		<polygon id="XMLID_1512_" class="st0_xsb" points="940.4,54.5 940.2,407.3 920.9,423.7 6.7,423.7 6.7,13.7 18.9,4.3 495.4,4.3 
			526.2,50.7 781.5,51.1 801.4,28.1 923.9,28.3 926.2,26.3 800.4,26.3 779.9,48.3 526.4,48.4 495.7,3.4 18.2,3.4 1.7,15.3 
			1.7,426.2 1.7,428 39.7,428 39.4,428.2 52.2,428.2 52.5,428 60.5,428 60.3,428.2 73.1,428.2 73.4,428 81.4,428 81.1,428.2 
			93.9,428.2 94.2,428 102.3,428 102,428.2 114.8,428.2 115.1,428 921.4,428.2 945.4,407.7 945.5,49.4 		"/>
		<g id="XMLID_1510_">
			<polygon id="XMLID_1511_" class="st2_xsb" points="948.9,67.2 946.9,69.7 946.9,47.5 927.9,24.4 901.9,24.3 904.4,22.4 928.9,22.4 
				948.9,46.8 			"/>
		</g>
		<g id="XMLID_1429_">
			
				<rect id="XMLID_1509_" x="934.9" y="38.3" transform="matrix(0.624 0.7814 -0.7814 0.624 382.5547 -715.8744)" class="st0_xsb" width="0.6" height="2.6"/>
			
				<rect id="XMLID_1508_" x="925.6" y="26.8" transform="matrix(0.624 0.7814 -0.7814 0.624 370.0741 -712.9533)" class="st0_xsb" width="0.6" height="2.6"/>
			
				<rect id="XMLID_1507_" x="926.3" y="27.7" transform="matrix(0.624 0.7814 -0.7814 0.624 371.1141 -713.1968)" class="st0_xsb" width="0.6" height="2.6"/>
			
				<rect id="XMLID_1504_" x="927.1" y="28.7" transform="matrix(0.624 0.7814 -0.7814 0.624 372.1542 -713.4402)" class="st0_xsb" width="0.6" height="2.6"/>
			
				<rect id="XMLID_1503_" x="927.9" y="29.7" transform="matrix(0.624 0.7814 -0.7814 0.624 373.1942 -713.6836)" class="st0_xsb" width="0.6" height="2.6"/>
			
				<rect id="XMLID_1502_" x="928.7" y="30.6" transform="matrix(0.624 0.7814 -0.7814 0.624 374.2343 -713.927)" class="st0_xsb" width="0.6" height="2.6"/>
			
				<rect id="XMLID_1498_" x="929.4" y="31.6" transform="matrix(0.624 0.7814 -0.7814 0.624 375.2743 -714.1704)" class="st0_xsb" width="0.6" height="2.6"/>
			
				<rect id="XMLID_1497_" x="930.2" y="32.5" transform="matrix(0.624 0.7814 -0.7814 0.624 376.3144 -714.4138)" class="st0_xsb" width="0.6" height="2.6"/>
			
				<rect id="XMLID_1496_" x="931" y="33.5" transform="matrix(0.624 0.7814 -0.7814 0.624 377.3544 -714.6573)" class="st0_xsb" width="0.6" height="2.6"/>
			
				<rect id="XMLID_1495_" x="931.8" y="34.5" transform="matrix(0.624 0.7814 -0.7814 0.624 378.3945 -714.9007)" class="st0_xsb" width="0.6" height="2.6"/>
			
				<rect id="XMLID_1493_" x="932.5" y="35.4" transform="matrix(0.624 0.7814 -0.7814 0.624 379.4345 -715.1441)" class="st0_xsb" width="0.6" height="2.6"/>
			
				<rect id="XMLID_1492_" x="933.3" y="36.4" transform="matrix(0.624 0.7814 -0.7814 0.624 380.4746 -715.3875)" class="st0_xsb" width="0.6" height="2.6"/>
			
				<rect id="XMLID_1491_" x="934.1" y="37.3" transform="matrix(0.624 0.7814 -0.7814 0.624 381.5146 -715.6309)" class="st0_xsb" width="0.6" height="2.6"/>
			
				<rect id="XMLID_1490_" x="935.6" y="39.3" transform="matrix(0.624 0.7814 -0.7814 0.624 383.5948 -716.1178)" class="st0_xsb" width="0.6" height="2.6"/>
			
				<rect id="XMLID_1489_" x="936.4" y="40.2" transform="matrix(0.624 0.7814 -0.7814 0.624 384.6348 -716.3612)" class="st0_xsb" width="0.6" height="2.6"/>
			
				<rect id="XMLID_1440_" x="937.2" y="41.2" transform="matrix(0.624 0.7814 -0.7814 0.624 385.6749 -716.6046)" class="st0_xsb" width="0.6" height="2.6"/>
			
				<rect id="XMLID_1438_" x="937.8" y="42.1" transform="matrix(0.619 0.7854 -0.7854 0.619 391.5313 -720.3087)" class="st0_xsb" width="0.6" height="2.6"/>
			
				<rect id="XMLID_1436_" x="938.6" y="43" transform="matrix(0.619 0.7854 -0.7854 0.619 392.5806 -720.5436)" class="st0_xsb" width="0.6" height="2.6"/>
			
				<rect id="XMLID_1435_" x="939.4" y="44" transform="matrix(0.619 0.7854 -0.7854 0.619 393.6299 -720.7786)" class="st0_xsb" width="0.6" height="2.6"/>
			
				<rect id="XMLID_1434_" x="940.1" y="45" transform="matrix(0.619 0.7854 -0.7854 0.619 394.6793 -721.0135)" class="st0_xsb" width="0.6" height="2.6"/>
			
				<rect id="XMLID_1433_" x="940.9" y="45.9" transform="matrix(0.619 0.7854 -0.7854 0.619 395.7286 -721.2484)" class="st0_xsb" width="0.6" height="2.6"/>
			
				<rect id="XMLID_1432_" x="941.7" y="46.9" transform="matrix(0.619 0.7854 -0.7854 0.619 396.7779 -721.4833)" class="st0_xsb" width="0.6" height="2.6"/>
		</g>
		<g id="XMLID_1135_">
			<polygon id="XMLID_1427_" class="st2_xsb" points="891.1,423.1 891.1,428.6 921.5,428.6 945.5,408.5 945.5,386.3 939.9,386.3 
				939.9,407.4 921,423.1 			"/>
		</g>
		<g id="XMLID_57_">
			<defs>
				<polygon id="XMLID_58_" points="941.7,54.1 782.2,54.1 803.2,29.7 945.5,29.7 				"/>
			</defs>
			<clipPath id="XMLID_84_">
				<use xlink:href="#XMLID_58_"  style="overflow:visible;"/>
			</clipPath>
			<g id="XMLID_59_" class="st3_xsb">
				<polygon id="XMLID_1119_" class="st0_xsb" points="820.7,50.8 818.2,50.8 803.3,31.4 805.8,31.4 				"/>
				<polygon id="XMLID_815_" class="st0_xsb" points="825,50.8 822.6,50.8 807.7,31.4 810.1,31.4 				"/>
				<polygon id="XMLID_801_" class="st0_xsb" points="829.4,50.8 827,50.8 812.1,31.4 814.5,31.4 				"/>
				<polygon id="XMLID_529_" class="st0_xsb" points="833.8,50.8 831.3,50.8 816.4,31.4 818.9,31.4 				"/>
				<polygon id="XMLID_528_" class="st0_xsb" points="838.2,50.8 835.7,50.8 820.8,31.4 823.3,31.4 				"/>
				<polygon id="XMLID_453_" class="st0_xsb" points="842.6,50.8 840.1,50.8 825.2,31.4 827.7,31.4 				"/>
				<polygon id="XMLID_448_" class="st0_xsb" points="847,50.8 844.5,50.8 829.6,31.4 832,31.4 				"/>
				<polygon id="XMLID_348_" class="st0_xsb" points="851.3,50.8 848.9,50.8 834,31.4 836.4,31.4 				"/>
				<polygon id="XMLID_276_" class="st0_xsb" points="785.6,50.8 783.2,50.8 768.3,31.4 770.7,31.4 				"/>
				<polygon id="XMLID_269_" class="st0_xsb" points="790,50.8 787.5,50.8 772.6,31.4 775.1,31.4 				"/>
				<polygon id="XMLID_199_" class="st0_xsb" points="794.4,50.8 791.9,50.8 777,31.4 779.5,31.4 				"/>
				<polygon id="XMLID_198_" class="st0_xsb" points="798.8,50.8 796.3,50.8 781.4,31.4 783.9,31.4 				"/>
				<polygon id="XMLID_148_" class="st0_xsb" points="803.1,50.8 800.7,50.8 785.8,31.4 788.2,31.4 				"/>
				<polygon id="XMLID_104_" class="st0_xsb" points="807.5,50.8 805.1,50.8 790.2,31.4 792.6,31.4 				"/>
				<polygon id="XMLID_92_" class="st0_xsb" points="811.9,50.8 809.4,50.8 794.5,31.4 797,31.4 				"/>
				<polygon id="XMLID_91_" class="st0_xsb" points="816.3,50.8 813.8,50.8 798.9,31.4 801.4,31.4 				"/>
				<polygon id="XMLID_90_" class="st0_xsb" points="855.7,50.8 853.3,50.8 838.3,31.4 840.8,31.4 				"/>
				<polygon id="XMLID_89_" class="st0_xsb" points="860.1,50.8 857.6,50.8 842.7,31.4 845.2,31.4 				"/>
				<polygon id="XMLID_88_" class="st0_xsb" points="868.9,50.8 866.4,50.8 851.5,31.4 854,31.4 				"/>
				<polygon id="XMLID_85_" class="st0_xsb" points="864.5,50.8 862,50.8 847.1,31.4 849.6,31.4 				"/>
				<polygon id="XMLID_78_" class="st0_xsb" points="877.6,50.8 875.2,50.8 860.3,31.4 862.7,31.4 				"/>
				<polygon id="XMLID_77_" class="st0_xsb" points="886.4,50.8 883.9,50.8 869,31.4 871.5,31.4 				"/>
				<polygon id="XMLID_76_" class="st0_xsb" points="903.9,50.8 901.4,50.8 886.5,31.4 889,31.4 				"/>
				<polygon id="XMLID_75_" class="st0_xsb" points="921.4,50.8 919,50.8 904.1,31.4 906.5,31.4 				"/>
				<polygon id="XMLID_74_" class="st0_xsb" points="895.1,50.8 892.7,50.8 877.8,31.4 880.2,31.4 				"/>
				<polygon id="XMLID_73_" class="st0_xsb" points="912.7,50.8 910.2,50.8 895.3,31.4 897.8,31.4 				"/>
				<polygon id="XMLID_72_" class="st0_xsb" points="930.2,50.8 927.7,50.8 912.8,31.4 915.3,31.4 				"/>
				<polygon id="XMLID_71_" class="st0_xsb" points="938.9,50.8 936.5,50.8 921.6,31.4 924,31.4 				"/>
				<polygon id="XMLID_70_" class="st0_xsb" points="873.2,50.8 870.8,50.8 855.9,31.4 858.3,31.4 				"/>
				<polygon id="XMLID_69_" class="st0_xsb" points="882,50.8 879.5,50.8 864.6,31.4 867.1,31.4 				"/>
				<polygon id="XMLID_68_" class="st0_xsb" points="890.8,50.8 888.3,50.8 873.4,31.4 875.9,31.4 				"/>
				<polygon id="XMLID_67_" class="st0_xsb" points="908.3,50.8 905.8,50.8 890.9,31.4 893.4,31.4 				"/>
				<polygon id="XMLID_66_" class="st0_xsb" points="899.5,50.8 897.1,50.8 882.2,31.4 884.6,31.4 				"/>
				<polygon id="XMLID_65_" class="st0_xsb" points="917,50.8 914.6,50.8 899.7,31.4 902.1,31.4 				"/>
				<polygon id="XMLID_64_" class="st0_xsb" points="925.8,50.8 923.3,50.8 908.4,31.4 910.9,31.4 				"/>
				<polygon id="XMLID_63_" class="st0_xsb" points="934.6,50.8 932.1,50.8 917.2,31.4 919.7,31.4 				"/>
			</g>
		</g>
	</g>
	<g id="XMLID_35_">
		<polygon id="XMLID_36_" class="st2_xsb" points="7.5,56.5 1.1,56.5 1.1,14.9 18,2.2 42,2.2 42,5.2 19,5.2 7.5,13.8 		"/>
	</g>
</g>
</svg>
